g ____581
v 56.585 20.2798 28.312
v 65.5869 20.2798 28.312
v 65.5869 20.2798 3.4839
v 56.585 20.2798 3.4839
v 56.585 -34.0981 28.312
v 65.5869 -34.0981 28.312
v 65.5869 -34.0981 3.4839
v 56.585 -34.0981 3.4839
v 56.585 33.0444 3.4839
v 65.5869 33.0444 3.4839
v 65.5869 33.0444 28.312
v 56.585 33.0444 28.312
v 56.585 -21.3335 3.4839
v 65.5869 -21.3335 3.4839
v 65.5869 -21.3335 28.312
v 56.585 -21.3335 28.312
v 56.585 33.0444 28.312
v 56.585 20.2798 28.312
v 56.585 20.2798 3.4839
v 56.585 33.0444 3.4839
v 56.585 -21.3335 28.312
v 56.585 -34.0981 28.312
v 56.585 -34.0981 3.4839
v 56.585 -21.3335 3.4839
v 56.585 20.2798 28.312
v 56.585 33.0444 28.312
v 65.5869 33.0444 28.312
v 65.5869 20.2798 28.312
v 56.585 -34.0981 28.312
v 56.585 -21.3335 28.312
v 65.5869 -21.3335 28.312
v 65.5869 -34.0981 28.312
v 65.5869 33.0444 3.4839
v 65.5869 20.2798 3.4839
v 65.5869 20.2798 28.312
v 65.5869 33.0444 28.312
v 65.5869 -21.3335 3.4839
v 65.5869 -34.0981 3.4839
v 65.5869 -34.0981 28.312
v 65.5869 -21.3335 28.312
v 65.5869 20.2798 3.4839
v 65.5869 33.0444 3.4839
v 56.585 33.0444 3.4839
v 56.585 20.2798 3.4839
v 65.5869 -34.0981 3.4839
v 65.5869 -21.3335 3.4839
v 56.585 -21.3335 3.4839
v 56.585 -34.0981 3.4839
vt 0.5056 0.4021
vt 0.5056 0.3935
vt 0.4818 0.3935
vt 0.4818 0.4021
vt 0.4834 0.273
vt 0.4834 0.2644
vt 0.4597 0.2644
vt 0.4597 0.273
vt 0.4471 0.2847
vt 0.4471 0.2761
vt 0.4233 0.2761
vt 0.4233 0.2847
vt 0.5112 0.2736
vt 0.5112 0.265
vt 0.4874 0.265
vt 0.4874 0.2736
vt 0.4524 0.3935
vt 0.4524 0.4057
vt 0.4762 0.4057
vt 0.4762 0.3935
vt 0.3645 0.2761
vt 0.3645 0.2883
vt 0.3883 0.2883
vt 0.3883 0.2761
vt 0.4948 0.2884
vt 0.507 0.2884
vt 0.507 0.2798
vt 0.4948 0.2798
vt 0.5116 0.2893
vt 0.5238 0.2893
vt 0.5238 0.2807
vt 0.5116 0.2807
vt 0.3939 0.2761
vt 0.3939 0.2883
vt 0.4177 0.2883
vt 0.4177 0.2761
vt 0.423 0.3935
vt 0.423 0.4057
vt 0.4468 0.4057
vt 0.4468 0.3935
vt 0.4575 0.2878
vt 0.4697 0.2878
vt 0.4697 0.2792
vt 0.4575 0.2792
vt 0.4773 0.2891
vt 0.4895 0.2891
vt 0.4895 0.2805
vt 0.4773 0.2805
vn 0 -1 0
vn 0 -1 0
vn 0 -1 0
vn 0 -1 0
vn 0 -1 0
vn 0 -1 0
vn 0 -1 0
vn 0 -1 0
vn 0 1 0
vn 0 1 0
vn 0 1 0
vn 0 1 0
vn 0 1 0
vn 0 1 0
vn 0 1 0
vn 0 1 0
vn -1 0 0
vn -1 0 0
vn -1 0 0
vn -1 0 0
vn -1 0 0
vn -1 0 0
vn -1 0 0
vn -1 0 0
vn 0 0 1
vn 0 0 1
vn 0 0 1
vn 0 0 1
vn 0 0 1
vn 0 0 1
vn 0 0 1
vn 0 0 1
vn 1 0 0
vn 1 0 0
vn 1 0 0
vn 1 0 0
vn 1 0 0
vn 1 0 0
vn 1 0 0
vn 1 0 0
vn 0 0 -1
vn 0 0 -1
vn 0 0 -1
vn 0 0 -1
vn 0 0 -1
vn 0 0 -1
vn 0 0 -1
vn 0 0 -1
g ____581_0
f 3/3/3 2/2/2 1/1/1
f 4/4/4 3/3/3 1/1/1
f 7/7/7 6/6/6 5/5/5
f 8/8/8 7/7/7 5/5/5
f 11/11/11 10/10/10 9/9/9
f 12/12/12 11/11/11 9/9/9
f 15/15/15 14/14/14 13/13/13
f 16/16/16 15/15/15 13/13/13
f 19/19/19 18/18/18 17/17/17
f 20/20/20 19/19/19 17/17/17
f 23/23/23 22/22/22 21/21/21
f 24/24/24 23/23/23 21/21/21
f 27/27/27 26/26/26 25/25/25
f 28/28/28 27/27/27 25/25/25
f 31/31/31 30/30/30 29/29/29
f 32/32/32 31/31/31 29/29/29
f 35/35/35 34/34/34 33/33/33
f 36/36/36 35/35/35 33/33/33
f 39/39/39 38/38/38 37/37/37
f 40/40/40 39/39/39 37/37/37
f 43/43/43 42/42/42 41/41/41
f 44/44/44 43/43/43 41/41/41
f 47/47/47 46/46/46 45/45/45
f 48/48/48 47/47/47 45/45/45
