g ____489
v -218.5 0 -32.9131
v -216.959 -5.6138 -31.041
v -197.3652 -5.6138 -39.2969
v -197.3652 0 -41.6084
v -216.959 5.6138 -31.041
v -197.3652 5.6138 -39.2969
v 177.9922 5.6138 -39.2969
v 177.9922 0 -41.6084
v 177.9922 -5.6138 -39.2969
v 200.3379 -5.6138 -42.3789
v 199.5674 0 -43.9199
v 200.3379 5.6138 -42.3789
v 215.9688 -5.6138 -51.9561
v 215.9688 5.6138 -51.9561
v 214.7578 0 -52.7266
v -217.9492 -5.6138 -7.1553
v -208.2627 0 -20.584
v -209.6943 -5.6138 -22.4551
v -215.748 0 -6.3848
v -209.6943 5.6138 -22.4551
v -218.8301 -5.6138 11.998
v -217.9492 5.6138 -7.1553
v -216.7393 0 11.3379
v -218.8301 5.6138 11.998
v -210.2441 -9.3564 33.0225
v -210.2441 9.3564 33.0225
v -208.5928 0 32.1416
v -191.9717 0 52.0654
v -192.5225 -13.6494 53.0566
v -192.5225 13.6494 53.0566
v -228.5166 5.6138 -11.1172
v -218.5 0 -32.9131
v -216.959 5.6138 -31.041
v -230.7188 0 -11.8877
v -216.959 -5.6138 -31.041
v -228.5166 -5.6138 -11.1172
v -228.957 5.6138 14.8604
v -231.1592 0 15.5205
v -228.957 -5.6138 14.8604
v -218.0596 -9.3564 37.4258
v -219.7109 0 38.416
v -218.0596 9.3564 37.4258
v -228.957 5.6138 14.8604
v -214.0967 13.209 35.2246
v -218.0596 9.3564 37.4258
v -223.8936 8.0354 13.4297
v -228.5166 5.6138 -11.1172
v -210.2441 9.3564 33.0225
v -194.0635 19.3733 55.2578
v -192.5225 13.6494 53.0566
v -218.8301 5.6138 11.998
v -223.2334 8.0354 -9.1367
v -217.9492 5.6138 -7.1553
v -216.959 5.6138 -31.041
v -209.6943 5.6138 -22.4551
v -213.3262 8.0354 -26.748
v -197.3652 5.6138 -39.2969
v -197.3652 8.0354 -33.5732
v -197.3652 5.6138 -27.959
v 177.9922 5.6138 -39.2969
v 177.9922 5.6138 -27.959
v 177.9922 8.0354 -33.5732
v 202.209 8.0354 -38.6367
v 200.3379 5.6138 -42.3789
v 204.1904 5.6138 -34.7842
v 215.9688 5.6138 -51.9561
v 221.6924 5.6138 -48.1035
v 218.8301 8.0354 -49.9746
v 224.2236 5.6138 -66.1553
v 229.9482 5.6138 -64.6143
v 227.0859 8.0354 -65.3848
v -194.0635 -19.3733 55.2578
v -192.5225 -13.6494 53.0566
v -210.2441 -9.3564 33.0225
v -214.0967 -13.209 35.2246
v -223.8936 -8.0354 13.4297
v -218.0596 -9.3564 37.4258
v -218.8301 -5.6138 11.998
v -228.957 -5.6138 14.8604
v -223.2334 -8.0354 -9.1367
v -217.9492 -5.6138 -7.1553
v -228.5166 -5.6138 -11.1172
v -209.6943 -5.6138 -22.4551
v -213.3262 -8.0354 -26.748
v -216.959 -5.6138 -31.041
v -197.3652 -5.6138 -27.959
v -197.3652 -8.0354 -33.5732
v -197.3652 -5.6138 -39.2969
v 177.9922 -5.6138 -39.2969
v 177.9922 -8.0354 -33.5732
v 177.9922 -5.6138 -27.959
v 200.3379 -5.6138 -42.3789
v 204.1904 -5.6138 -34.7842
v 202.209 -8.0354 -38.6367
v 221.6924 -5.6138 -48.1035
v 215.9688 -5.6138 -51.9561
v 218.8301 -8.0354 -49.9746
v 229.9482 -5.6138 -64.6143
v 227.0859 -8.0354 -65.3848
v 224.2236 -5.6138 -66.1553
v -194.0635 -19.3733 55.2578
v -214.0967 -13.209 35.2246
v -218.0596 -9.3564 37.4258
v -195.4941 -13.6494 57.459
v -218.0596 9.3564 37.4258
v -214.0967 13.209 35.2246
v -194.0635 19.3733 55.2578
v -195.4941 13.6494 57.459
v -194.0635 19.3733 55.2578
v -173.9199 15.9609 61.2021
v -175.4609 22.4553 63.4033
v -192.5225 13.6494 53.0566
v -191.9717 0 52.0654
v -173.3691 0 60.2109
v -192.5225 -13.6494 53.0566
v -173.9199 -15.9609 61.2021
v -175.4609 -22.4553 63.4033
v -173.9199 -15.9609 61.2021
v -192.5225 -13.6494 53.0566
v -194.0635 -19.3733 55.2578
v -175.4609 -22.4553 63.4033
v -194.0635 -19.3733 55.2578
v -195.4941 -13.6494 57.459
v -176.8916 -15.9609 65.6055
v -196.1543 0 58.3398
v -218.0596 -9.3564 37.4258
v -219.7109 0 38.416
v -218.0596 9.3564 37.4258
v -177.5518 0 66.4854
v -195.4941 13.6494 57.459
v -176.8916 15.9609 65.6055
v -175.4609 22.4553 63.4033
v -194.0635 19.3733 55.2578
v 229.9482 5.6138 -64.6143
v 222.793 0 -47.332
v 221.6924 5.6138 -48.1035
v 231.1592 0 -64.2842
v 221.6924 -5.6138 -48.1035
v 229.9482 -5.6138 -64.6143
v 224.2236 -5.6138 -66.1553
v 214.7578 0 -52.7266
v 215.9688 -5.6138 -51.9561
v 223.123 0 -66.4854
v 224.2236 5.6138 -66.1553
v 215.9688 5.6138 -51.9561
v -176.8916 -15.9609 65.6055
v -173.9199 -15.9609 61.2021
v -175.4609 -22.4553 63.4033
v -177.5518 0 66.4854
v -173.3691 0 60.2109
v -173.9199 15.9609 61.2021
v -176.8916 15.9609 65.6055
v -175.4609 22.4553 63.4033
v 224.2236 5.6138 -66.1553
v 229.9482 5.6138 -64.6143
v 227.0859 8.0354 -65.3848
v 231.1592 0 -64.2842
v 223.123 0 -66.4854
v 224.2236 -5.6138 -66.1553
v 229.9482 -5.6138 -64.6143
v 227.0859 -8.0354 -65.3848
v -197.3652 0 -25.5371
v 177.9922 -5.6138 -27.959
v -197.3652 -5.6138 -27.959
v -209.6943 -5.6138 -22.4551
v -208.2627 0 -20.584
v -209.6943 5.6138 -22.4551
v -197.3652 5.6138 -27.959
v 177.9922 5.6138 -27.959
v 177.9922 0 -25.5371
v 204.1904 -5.6138 -34.7842
v 204.9609 0 -33.2432
v 204.1904 5.6138 -34.7842
v 221.6924 -5.6138 -48.1035
v 221.6924 5.6138 -48.1035
v 222.793 0 -47.332
vt 0.8785 0.1554
vt 0.8804 0.1548
vt 0.8804 0.148
vt 0.8785 0.148
vt 0.8765 0.1548
vt 0.8765 0.148
vt 0.8765 0.0167
vt 0.8785 0.0167
vt 0.8804 0.0167
vt 0.8804 0.0089
vt 0.8785 0.0092
vt 0.8765 0.0089
vt 0.8804 0.0034
vt 0.8765 0.0034
vt 0.8785 0.0039
vt 0.8382 0.0519
vt 0.8363 0.0566
vt 0.8382 0.0573
vt 0.8363 0.0517
vt 0.8343 0.0573
vt 0.8382 0.0452
vt 0.8343 0.0519
vt 0.8363 0.0455
vt 0.8343 0.0452
vt 0.8395 0.0379
vt 0.833 0.0379
vt 0.8363 0.0382
vt 0.8363 0.0312
vt 0.841 0.0309
vt 0.8315 0.0309
vt 0.8395 0.0705
vt 0.8417 0.063
vt 0.8398 0.0635
vt 0.8415 0.0703
vt 0.8437 0.0637
vt 0.8434 0.0707
vt 0.8391 0.0796
vt 0.8411 0.0799
vt 0.8431 0.0797
vt 0.8441 0.0877
vt 0.8408 0.0879
vt 0.8375 0.0874
vt 0.8232 0.1722
vt 0.8154 0.1682
vt 0.8148 0.1697
vt 0.8234 0.1704
vt 0.8321 0.1707
vt 0.8159 0.1667
vt 0.8074 0.1623
vt 0.8084 0.1613
vt 0.8236 0.1686
vt 0.8312 0.169
vt 0.8302 0.1672
vt 0.8384 0.1656
vt 0.8351 0.1636
vt 0.8367 0.1646
vt 0.8402 0.1584
vt 0.8382 0.1587
vt 0.8363 0.159
vt 0.8202 0.0287
vt 0.8163 0.0293
vt 0.8182 0.029
vt 0.8187 0.0203
vt 0.8201 0.0208
vt 0.8172 0.0199
vt 0.8225 0.0149
vt 0.8209 0.0131
vt 0.8217 0.014
vt 0.827 0.0113
vt 0.8262 0.0094
vt 0.8266 0.0103
vt 0.8763 0.1629
vt 0.8753 0.1619
vt 0.8676 0.167
vt 0.8681 0.1685
vt 0.86 0.1704
vt 0.8686 0.17
vt 0.8598 0.1686
vt 0.8601 0.1722
vt 0.8523 0.1687
vt 0.8533 0.167
vt 0.8512 0.1703
vt 0.8486 0.1631
vt 0.8469 0.1641
vt 0.8452 0.165
vt 0.8475 0.1585
vt 0.8456 0.1581
vt 0.8436 0.1578
vt 0.8687 0.0289
vt 0.8707 0.0293
vt 0.8726 0.0297
vt 0.8692 0.021
vt 0.872 0.0202
vt 0.8706 0.0206
vt 0.8686 0.0133
vt 0.8669 0.015
vt 0.8678 0.0142
vt 0.8635 0.0094
vt 0.8631 0.0103
vt 0.8626 0.0112
vt 0.8402 0.0204
vt 0.8417 0.0104
vt 0.8401 0.0094
vt 0.8381 0.0198
vt 0.8662 0.1641
vt 0.8652 0.1624
vt 0.8551 0.1635
vt 0.8556 0.1657
vt 0.8548 0.0136
vt 0.8613 0.0162
vt 0.8614 0.0137
vt 0.8546 0.0158
vt 0.8545 0.0203
vt 0.8612 0.0214
vt 0.8546 0.0245
vt 0.8613 0.0263
vt 0.8415 0.1054
vt 0.8439 0.1051
vt 0.8431 0.0985
vt 0.8409 0.0988
vt 0.8444 0.0573
vt 0.8509 0.0562
vt 0.8514 0.0542
vt 0.8449 0.055
vt 0.8517 0.0494
vt 0.8593 0.0527
vt 0.8599 0.0494
vt 0.8593 0.0462
vt 0.8452 0.0494
vt 0.8514 0.0447
vt 0.8449 0.0438
vt 0.8444 0.0416
vt 0.8509 0.0426
vt 0.8533 0.0202
vt 0.8513 0.0263
vt 0.8533 0.026
vt 0.8513 0.0204
vt 0.8494 0.026
vt 0.8494 0.0202
vt 0.8368 0.0133
vt 0.8321 0.0113
vt 0.8319 0.0133
vt 0.837 0.0113
vt 0.8368 0.0094
vt 0.8319 0.0094
vt 0.842 0.1088
vt 0.8439 0.1088
vt 0.843 0.1065
vt 0.8414 0.1143
vt 0.8441 0.1144
vt 0.8434 0.12
vt 0.8416 0.1199
vt 0.8424 0.1222
vt 0.8475 0.0256
vt 0.8455 0.0253
vt 0.8464 0.0263
vt 0.8455 0.0232
vt 0.8482 0.0238
vt 0.8482 0.0218
vt 0.8463 0.0214
vt 0.8474 0.0208
vt 0.8858 0.0084
vt 0.8878 0.1397
vt 0.8878 0.0084
vt 0.8878 0.0041
vt 0.8858 0.0046
vt 0.8838 0.0041
vt 0.8838 0.0084
vt 0.8838 0.1397
vt 0.8858 0.1397
vt 0.8878 0.1489
vt 0.8858 0.1491
vt 0.8838 0.1489
vt 0.8878 0.155
vt 0.8838 0.155
vt 0.8858 0.1554
vn -0.6568889 0 -0.7539873
vn -0.4896774 -0.670069 -0.5578743
vn -0.1435996 -0.6796982 -0.719298
vn -0.1861056 0 -0.9825298
vn -0.4896774 0.670069 -0.5578743
vn -0.1435996 0.6796982 -0.719298
vn -0.04239989 0.7120982 -0.7007982
vn -0.05470015 0 -0.9985029
vn -0.04239989 -0.7120982 -0.7007982
vn -0.2554176 -0.6555453 -0.7106491
vn -0.3158078 0 -0.9488233
vn -0.2554176 0.6555453 -0.7106491
vn -0.5759944 -0.5941942 -0.5613946
vn -0.5759944 0.5941942 -0.5613946
vn -0.7025925 0 -0.7115924
vn 0.6576295 -0.7320329 0.177908
vn 0.6880054 0 0.7257057
vn 0.451315 -0.7487249 0.4855161
vn 0.9649861 0.001599977 0.2622962
vn 0.451315 0.7487249 0.4855161
vn 0.6963021 -0.6998021 -0.1595005
vn 0.6561116 0.732413 0.1819032
vn 0.9881788 0.001699964 -0.1532967
vn 0.695964 0.6992639 -0.1632916
vn 0.6725731 -0.5158794 -0.5305788
vn 0.6725731 0.5158794 -0.5305788
vn 0.8501095 0 -0.5266059
vn 0.5883203 0 -0.808628
vn 0.5157186 -0.27821 -0.8103293
vn 0.5157186 0.27821 -0.8103293
vn -0.7101083 0.6766078 -0.1948023
vn -0.6568889 0 -0.7539873
vn -0.4896774 0.670069 -0.5578743
vn -0.9627184 -0.0006000114 -0.2705052
vn -0.4896774 -0.670069 -0.5578743
vn -0.7108828 -0.6760836 -0.1937953
vn -0.7523131 0.6442112 0.1379024
vn -0.9743337 -0.0006000208 0.2251078
vn -0.753021 -0.6436179 0.1368038
vn -0.7338822 -0.4933881 0.4668887
vn -0.7997 0 0.6003999
vn -0.7338822 0.4933881 0.4668887
vn -0.7523131 0.6442112 0.1379024
vn -0.1395038 0.9866264 -0.08430225
vn -0.7338822 0.4933881 0.4668887
vn -0.08239815 0.9944776 -0.06499854
vn -0.7101083 0.6766078 -0.1948023
vn 0.6725731 0.5158794 -0.5305788
vn -0.1893015 0.9819078 -0.004700037
vn 0.5157186 0.27821 -0.8103293
vn 0.695964 0.6992639 -0.1632916
vn -0.057899 0.9982828 -0.008899846
vn 0.6561116 0.732413 0.1819032
vn -0.4896774 0.670069 -0.5578743
vn 0.451315 0.7487249 0.4855161
vn -0.05219865 0.9969742 -0.05759851
vn -0.1435996 0.6796982 -0.719298
vn -0.01879917 0.998656 -0.04829787
vn 0.1436042 0.7283212 0.6700195
vn -0.04239989 0.7120982 -0.7007982
vn 0.09789746 0.6876821 0.7193813
vn 0.01629962 0.9995766 0.02409944
vn 0.02369894 0.9983554 0.05219767
vn -0.2554176 0.6555453 -0.7106491
vn 0.3394222 0.60974 0.7162469
vn -0.5759944 0.5941942 -0.5613946
vn 0.6470222 0.5448186 0.5334183
vn 0.05879862 0.9969766 0.05079881
vn -0.729403 0.5464023 -0.4116017
vn 0.7736292 0.5043191 0.3836145
vn 0.07829878 0.9964845 0.02979954
vn -0.1893015 -0.9819078 -0.004700037
vn 0.5157186 -0.27821 -0.8103293
vn 0.6725731 -0.5158794 -0.5305788
vn -0.1395038 -0.9866264 -0.08430225
vn -0.0832001 -0.9945012 -0.06360009
vn -0.7338822 -0.4933881 0.4668887
vn 0.6963021 -0.6998021 -0.1595005
vn -0.753021 -0.6436179 0.1368038
vn -0.05789828 -0.9982704 -0.0101997
vn 0.6576295 -0.7320329 0.177908
vn -0.7108828 -0.6760836 -0.1937953
vn 0.451315 -0.7487249 0.4855161
vn -0.05219865 -0.9969742 -0.05759851
vn -0.4896774 -0.670069 -0.5578743
vn 0.1436042 -0.7283212 0.6700195
vn -0.01879917 -0.998656 -0.04829787
vn -0.1435996 -0.6796982 -0.719298
vn -0.04239989 -0.7120982 -0.7007982
vn 0.01629962 -0.9995766 0.02409944
vn 0.09789746 -0.6876821 0.7193813
vn -0.2554176 -0.6555453 -0.7106491
vn 0.3451091 -0.607516 0.7154188
vn 0.02369894 -0.9983554 0.05219767
vn 0.6477826 -0.5412855 0.5360855
vn -0.5759944 -0.5941942 -0.5613946
vn 0.05879862 -0.9969766 0.05079881
vn 0.7735953 -0.500697 0.3883976
vn 0.07829878 -0.9964845 0.02979954
vn -0.729403 -0.5464023 -0.4116017
vn -0.1893015 -0.9819078 -0.004700037
vn -0.1395038 -0.9866264 -0.08430225
vn -0.7338822 -0.4933881 0.4668887
vn -0.5606848 -0.2655928 0.7842788
vn -0.7338822 0.4933881 0.4668887
vn -0.1395038 0.9866264 -0.08430225
vn -0.1893015 0.9819078 -0.004700037
vn -0.5606848 0.2655928 0.7842788
vn -0.1893015 0.9819078 -0.004700037
vn 0.3589984 0.231799 -0.9040959
vn -0.09299521 0.9817494 -0.1658915
vn 0.5157186 0.27821 -0.8103293
vn 0.5883203 0 -0.808628
vn 0.3966812 0 -0.9179564
vn 0.5157186 -0.27821 -0.8103293
vn 0.3589984 -0.231799 -0.9040959
vn -0.09299521 -0.9817494 -0.1658915
vn 0.3589984 -0.231799 -0.9040959
vn 0.5157186 -0.27821 -0.8103293
vn -0.1893015 -0.9819078 -0.004700037
vn -0.09299521 -0.9817494 -0.1658915
vn -0.1893015 -0.9819078 -0.004700037
vn -0.5606848 -0.2655928 0.7842788
vn -0.420118 -0.2426104 0.8744376
vn -0.541081 0 0.8409705
vn -0.7338822 -0.4933881 0.4668887
vn -0.7997 0 0.6003999
vn -0.7338822 0.4933881 0.4668887
vn -0.4054981 0 0.9140958
vn -0.5606848 0.2655928 0.7842788
vn -0.420118 0.2426104 0.8744376
vn -0.09299521 0.9817494 -0.1658915
vn -0.1893015 0.9819078 -0.004700037
vn 0.7736292 0.5043191 0.3836145
vn 0.7773967 -0.004099983 0.6289973
vn 0.6470222 0.5448186 0.5334183
vn 0.8965127 -0.003200046 0.4430063
vn 0.6477826 -0.5412855 0.5360855
vn 0.7735953 -0.500697 0.3883976
vn -0.729403 -0.5464023 -0.4116017
vn -0.7025925 0 -0.7115924
vn -0.5759944 -0.5941942 -0.5613946
vn -0.8634777 0 -0.504387
vn -0.729403 0.5464023 -0.4116017
vn -0.5759944 0.5941942 -0.5613946
vn 0.8338611 0 0.5519742
vn 0.8339837 0 0.5517892
vn 0.8338611 0 0.5519742
vn 0.8336621 0 0.5522749
vn 0.8336621 0 0.5522749
vn 0.8339837 0 0.5517892
vn 0.8338611 0 0.5519742
vn 0.8338611 0 0.5519742
vn 0.2644034 0 -0.9644122
vn 0.2644964 0 -0.9643867
vn 0.2644034 0 -0.9644122
vn 0.2651054 0 -0.9642195
vn 0.2651054 0 -0.9642195
vn 0.2644034 0 -0.9644122
vn 0.2644964 0 -0.9643867
vn 0.2644034 0 -0.9644122
vn 0.2218934 0 0.975071
vn 0.09789746 -0.6876821 0.7193813
vn 0.1436042 -0.7283212 0.6700195
vn 0.451315 -0.7487249 0.4855161
vn 0.6880054 0 0.7257057
vn 0.451315 0.7487249 0.4855161
vn 0.1436042 0.7283212 0.6700195
vn 0.09789746 0.6876821 0.7193813
vn 0.1330021 0 0.9911158
vn 0.3451091 -0.607516 0.7154188
vn 0.4448105 -0.002500059 0.8956212
vn 0.3394222 0.60974 0.7162469
vn 0.6477826 -0.5412855 0.5360855
vn 0.6470222 0.5448186 0.5334183
vn 0.7773967 -0.004099983 0.6289973
g ____489_0
f 3/3/3 2/2/2 1/1/1
f 4/4/4 3/3/3 1/1/1
f 4/4/4 1/1/1 5/5/5
f 6/6/6 4/4/4 5/5/5
f 6/6/6 7/7/7 4/4/4
f 4/4/4 8/8/8 3/3/3
f 7/7/7 8/8/8 4/4/4
f 8/8/8 9/9/9 3/3/3
f 9/9/9 8/8/8 10/10/10
f 8/8/8 7/7/7 11/11/11
f 8/8/8 11/11/11 10/10/10
f 7/7/7 12/12/12 11/11/11
f 10/10/10 11/11/11 13/13/13
f 12/12/12 14/14/14 11/11/11
f 11/11/11 15/15/15 13/13/13
f 14/14/14 15/15/15 11/11/11
f 18/18/18 17/17/17 16/16/16
f 17/17/17 19/19/19 16/16/16
f 17/17/17 20/20/20 19/19/19
f 16/16/16 19/19/19 21/21/21
f 20/20/20 22/22/22 19/19/19
f 19/19/19 23/23/23 21/21/21
f 23/23/23 19/19/19 22/22/22
f 24/24/24 23/23/23 22/22/22
f 21/21/21 23/23/23 25/25/25
f 24/24/24 26/26/26 23/23/23
f 23/23/23 27/27/27 25/25/25
f 26/26/26 27/27/27 23/23/23
f 25/25/25 27/27/27 28/28/28
f 27/27/27 26/26/26 28/28/28
f 29/29/29 25/25/25 28/28/28
f 26/26/26 30/30/30 28/28/28
f 33/33/33 32/32/32 31/31/31
f 32/32/32 34/34/34 31/31/31
f 32/32/32 35/35/35 34/34/34
f 35/35/35 36/36/36 34/34/34
f 37/37/37 31/31/31 34/34/34
f 34/34/34 36/36/36 38/38/38
f 38/38/38 37/37/37 34/34/34
f 36/36/36 39/39/39 38/38/38
f 38/38/38 39/39/39 40/40/40
f 41/41/41 38/38/38 40/40/40
f 37/37/37 38/38/38 41/41/41
f 42/42/42 37/37/37 41/41/41
f 45/45/45 44/44/44 43/43/43
f 44/44/44 46/46/46 43/43/43
f 43/43/43 46/46/46 47/47/47
f 46/46/46 44/44/44 48/48/48
f 44/44/44 49/49/49 48/48/48
f 49/49/49 50/50/50 48/48/48
f 51/51/51 46/46/46 48/48/48
f 46/46/46 52/52/52 47/47/47
f 46/46/46 51/51/51 52/52/52
f 51/51/51 53/53/53 52/52/52
f 47/47/47 52/52/52 54/54/54
f 52/52/52 53/53/53 55/55/55
f 52/52/52 56/56/56 54/54/54
f 56/56/56 52/52/52 55/55/55
f 57/57/57 54/54/54 56/56/56
f 58/58/58 56/56/56 55/55/55
f 58/58/58 57/57/57 56/56/56
f 59/59/59 58/58/58 55/55/55
f 60/60/60 57/57/57 58/58/58
f 59/59/59 61/61/61 58/58/58
f 62/62/62 60/60/60 58/58/58
f 61/61/61 62/62/62 58/58/58
f 62/62/62 63/63/63 60/60/60
f 63/63/63 62/62/62 61/61/61
f 63/63/63 64/64/64 60/60/60
f 65/65/65 63/63/63 61/61/61
f 64/64/64 63/63/63 66/66/66
f 65/65/65 67/67/67 63/63/63
f 63/63/63 68/68/68 66/66/66
f 67/67/67 68/68/68 63/63/63
f 66/66/66 68/68/68 69/69/69
f 67/67/67 70/70/70 68/68/68
f 68/68/68 71/71/71 69/69/69
f 70/70/70 71/71/71 68/68/68
f 74/74/74 73/73/73 72/72/72
f 75/75/75 74/74/74 72/72/72
f 75/75/75 76/76/76 74/74/74
f 75/75/75 77/77/77 76/76/76
f 76/76/76 78/78/78 74/74/74
f 77/77/77 79/79/79 76/76/76
f 78/78/78 76/76/76 80/80/80
f 80/80/80 76/76/76 79/79/79
f 81/81/81 78/78/78 80/80/80
f 82/82/82 80/80/80 79/79/79
f 83/83/83 81/81/81 80/80/80
f 84/84/84 80/80/80 82/82/82
f 84/84/84 83/83/83 80/80/80
f 85/85/85 84/84/84 82/82/82
f 86/86/86 83/83/83 84/84/84
f 87/87/87 84/84/84 85/85/85
f 87/87/87 86/86/86 84/84/84
f 88/88/88 87/87/87 85/85/85
f 88/88/88 89/89/89 87/87/87
f 87/87/87 90/90/90 86/86/86
f 89/89/89 90/90/90 87/87/87
f 90/90/90 91/91/91 86/86/86
f 90/90/90 89/89/89 92/92/92
f 91/91/91 90/90/90 93/93/93
f 94/94/94 90/90/90 92/92/92
f 90/90/90 94/94/94 93/93/93
f 93/93/93 94/94/94 95/95/95
f 94/94/94 92/92/92 96/96/96
f 94/94/94 97/97/97 95/95/95
f 97/97/97 94/94/94 96/96/96
f 98/98/98 95/95/95 97/97/97
f 99/99/99 98/98/98 97/97/97
f 99/99/99 97/97/97 96/96/96
f 100/100/100 99/99/99 96/96/96
f 103/103/103 102/102/102 101/101/101
f 104/104/104 103/103/103 101/101/101
f 107/107/107 106/106/106 105/105/105
f 108/108/108 107/107/107 105/105/105
f 111/111/111 110/110/110 109/109/109
f 110/110/110 112/112/112 109/109/109
f 112/112/112 110/110/110 113/113/113
f 110/110/110 114/114/114 113/113/113
f 113/113/113 114/114/114 115/115/115
f 114/114/114 116/116/116 115/115/115
f 119/119/119 118/118/118 117/117/117
f 120/120/120 119/119/119 117/117/117
f 123/123/123 122/122/122 121/121/121
f 124/124/124 123/123/123 121/121/121
f 123/123/123 124/124/124 125/125/125
f 123/123/123 125/125/125 126/126/126
f 125/125/125 127/127/127 126/126/126
f 127/127/127 125/125/125 128/128/128
f 124/124/124 129/129/129 125/125/125
f 125/125/125 130/130/130 128/128/128
f 130/130/130 125/125/125 129/129/129
f 131/131/131 130/130/130 129/129/129
f 131/131/131 132/132/132 130/130/130
f 132/132/132 133/133/133 130/130/130
f 136/136/136 135/135/135 134/134/134
f 135/135/135 137/137/137 134/134/134
f 137/137/137 135/135/135 138/138/138
f 139/139/139 137/137/137 138/138/138
f 142/142/142 141/141/141 140/140/140
f 141/141/141 143/143/143 140/140/140
f 144/144/144 143/143/143 141/141/141
f 145/145/145 144/144/144 141/141/141
f 148/148/148 147/147/147 146/146/146
f 146/146/146 147/147/147 149/149/149
f 147/147/147 150/150/150 149/149/149
f 149/149/149 150/150/150 151/151/151
f 152/152/152 149/149/149 151/151/151
f 153/153/153 152/152/152 151/151/151
f 156/156/156 155/155/155 154/154/154
f 154/154/154 155/155/155 157/157/157
f 158/158/158 154/154/154 157/157/157
f 158/158/158 157/157/157 159/159/159
f 157/157/157 160/160/160 159/159/159
f 161/161/161 159/159/159 160/160/160
f 164/164/164 163/163/163 162/162/162
f 164/164/164 162/162/162 165/165/165
f 162/162/162 166/166/166 165/165/165
f 166/166/166 162/162/162 167/167/167
f 162/162/162 168/168/168 167/167/167
f 169/169/169 168/168/168 162/162/162
f 163/163/163 170/170/170 162/162/162
f 170/170/170 169/169/169 162/162/162
f 163/163/163 171/171/171 170/170/170
f 169/169/169 170/170/170 172/172/172
f 171/171/171 172/172/172 170/170/170
f 173/173/173 169/169/169 172/172/172
f 171/171/171 174/174/174 172/172/172
f 173/173/173 172/172/172 175/175/175
f 174/174/174 176/176/176 172/172/172
f 172/172/172 176/176/176 175/175/175
