g ____580
v 45.5625 22.0583 24.145
v 45.5625 22.0583 26.5151
v 56.9766 22.0583 26.5151
v 56.9766 22.0583 24.145
v 45.5625 -32.3196 24.145
v 45.5625 -32.3196 26.5151
v 56.9766 -32.3196 26.5151
v 56.9766 -32.3196 24.145
v 56.9766 30.8796 24.145
v 56.9766 30.8796 26.5151
v 45.5625 30.8796 26.5151
v 45.5625 30.8796 24.145
v 56.9766 -23.4983 24.145
v 56.9766 -23.4983 26.5151
v 45.5625 -23.4983 26.5151
v 45.5625 -23.4983 24.145
v 45.5625 30.8796 24.145
v 45.5625 22.0583 24.145
v 56.9766 22.0583 24.145
v 56.9766 30.8796 24.145
v 45.5625 -23.4983 24.145
v 45.5625 -32.3196 24.145
v 56.9766 -32.3196 24.145
v 56.9766 -23.4983 24.145
v 45.5625 22.0583 24.145
v 45.5625 30.8796 24.145
v 45.5625 30.8796 26.5151
v 45.5625 22.0583 26.5151
v 45.5625 -32.3196 24.145
v 45.5625 -23.4983 24.145
v 45.5625 -23.4983 26.5151
v 45.5625 -32.3196 26.5151
v 56.9766 30.8796 26.5151
v 56.9766 22.0583 26.5151
v 45.5625 22.0583 26.5151
v 45.5625 30.8796 26.5151
v 56.9766 -23.4983 26.5151
v 56.9766 -32.3196 26.5151
v 45.5625 -32.3196 26.5151
v 45.5625 -23.4983 26.5151
v 56.9766 22.0583 26.5151
v 56.9766 30.8796 26.5151
v 56.9766 30.8796 24.145
v 56.9766 22.0583 24.145
v 56.9766 -32.3196 26.5151
v 56.9766 -23.4983 26.5151
v 56.9766 -23.4983 24.145
v 56.9766 -32.3196 24.145
vt 0.8114 0.5272
vt 0.8114 0.5195
vt 0.7746 0.5195
vt 0.7746 0.5272
vt 0.8114 0.5172
vt 0.8114 0.5095
vt 0.7746 0.5095
vt 0.7746 0.5172
vt 0.7746 0.5295
vt 0.7746 0.5372
vt 0.8114 0.5372
vt 0.8114 0.5295
vt 0.7355 0.5711
vt 0.7355 0.5787
vt 0.7722 0.5787
vt 0.7722 0.5711
vt 0.7355 0.5403
vt 0.7355 0.5688
vt 0.7722 0.5688
vt 0.7722 0.5403
vt 0.7355 0.5095
vt 0.7355 0.538
vt 0.7722 0.538
vt 0.7722 0.5095
vt 0.7761 0.5801
vt 0.8046 0.5801
vt 0.8046 0.5724
vt 0.7761 0.5724
vt 0.7746 0.5472
vt 0.803 0.5472
vt 0.803 0.5395
vt 0.7746 0.5395
vt 0.7355 0.4787
vt 0.7355 0.5072
vt 0.7722 0.5072
vt 0.7722 0.4787
vt 0.7746 0.4787
vt 0.7746 0.5072
vt 0.8114 0.5072
vt 0.8114 0.4787
vt 0.7746 0.5579
vt 0.803 0.5579
vt 0.803 0.5503
vt 0.7746 0.5503
vt 0.7746 0.5687
vt 0.803 0.5687
vt 0.803 0.5611
vt 0.7746 0.5611
vn 0 -1 0
vn 0 -1 0
vn 0 -1 0
vn 0 -1 0
vn 0 -1 0
vn 0 -1 0
vn 0 -1 0
vn 0 -1 0
vn 0 1 0
vn 0 1 0
vn 0 1 0
vn 0 1 0
vn 0 1 0
vn 0 1 0
vn 0 1 0
vn 0 1 0
vn 0 0 -1
vn 0 0 -1
vn 0 0 -1
vn 0 0 -1
vn 0 0 -1
vn 0 0 -1
vn 0 0 -1
vn 0 0 -1
vn -1 0 0
vn -1 0 0
vn -1 0 0
vn -1 0 0
vn -1 0 0
vn -1 0 0
vn -1 0 0
vn -1 0 0
vn 0 0 1
vn 0 0 1
vn 0 0 1
vn 0 0 1
vn 0 0 1
vn 0 0 1
vn 0 0 1
vn 0 0 1
vn 1 0 0
vn 1 0 0
vn 1 0 0
vn 1 0 0
vn 1 0 0
vn 1 0 0
vn 1 0 0
vn 1 0 0
g ____580_0
f 3/3/3 2/2/2 1/1/1
f 4/4/4 3/3/3 1/1/1
f 7/7/7 6/6/6 5/5/5
f 8/8/8 7/7/7 5/5/5
f 11/11/11 10/10/10 9/9/9
f 12/12/12 11/11/11 9/9/9
f 15/15/15 14/14/14 13/13/13
f 16/16/16 15/15/15 13/13/13
f 19/19/19 18/18/18 17/17/17
f 20/20/20 19/19/19 17/17/17
f 23/23/23 22/22/22 21/21/21
f 24/24/24 23/23/23 21/21/21
f 27/27/27 26/26/26 25/25/25
f 28/28/28 27/27/27 25/25/25
f 31/31/31 30/30/30 29/29/29
f 32/32/32 31/31/31 29/29/29
f 35/35/35 34/34/34 33/33/33
f 36/36/36 35/35/35 33/33/33
f 39/39/39 38/38/38 37/37/37
f 40/40/40 39/39/39 37/37/37
f 43/43/43 42/42/42 41/41/41
f 44/44/44 43/43/43 41/41/41
f 47/47/47 46/46/46 45/45/45
f 48/48/48 47/47/47 45/45/45
