g ____468
v -8.6533 7.6301 0
v -6.083 7.6301 6.1357
v -8.6006 3.3826 8.6523
v -12.2188 3.3826 0
v -6.083 7.6301 6.1357
v 0 7.6301 8.6523
v 0 3.3826 12.2188
v -8.6006 3.3826 8.6523
v 0 7.6301 8.6523
v 6.1357 7.6301 6.1357
v 8.6533 3.3826 8.6523
v 0 3.3826 12.2188
v 8.6533 3.3826 8.6523
v 6.1357 7.6301 6.1357
v 8.6533 7.6301 0
v 12.2188 3.3826 0
v 8.6533 7.6301 0
v 6.1357 7.6301 -6.1357
v 8.6533 3.3826 -8.6533
v 12.2188 3.3826 0
v 0 7.6301 -8.6533
v 0 3.3826 -12.2188
v 8.6533 3.3826 -8.6533
v 6.1357 7.6301 -6.1357
v 0 7.6301 -8.6533
v -6.083 7.6301 -6.1357
v -8.6006 3.3826 -8.6533
v 0 3.3826 -12.2188
v -8.6533 7.6301 0
v -12.2188 3.3826 0
v -8.6006 3.3826 -8.6533
v -6.083 7.6301 -6.1357
v -8.6533 7.6301 0
v -4.7197 9.5181 0
v -3.3564 9.5181 3.3564
v -6.083 7.6301 6.1357
v -6.083 7.6301 6.1357
v -3.3564 9.5181 3.3564
v 0 9.5181 4.7725
v 0 7.6301 8.6523
v 6.1357 7.6301 6.1357
v 0 7.6301 8.6523
v 0 9.5181 4.7725
v 3.3564 9.5181 3.3564
v 3.3564 9.5181 3.3564
v 4.7725 9.5181 0
v 8.6533 7.6301 0
v 6.1357 7.6301 6.1357
v 8.6533 7.6301 0
v 4.7725 9.5181 0
v 3.3564 9.5181 -3.3564
v 6.1357 7.6301 -6.1357
v 3.3564 9.5181 -3.3564
v 0 9.5181 -4.7197
v 0 7.6301 -8.6533
v 6.1357 7.6301 -6.1357
v 0 7.6301 -8.6533
v 0 9.5181 -4.7197
v -3.3564 9.5181 -3.3564
v -6.083 7.6301 -6.1357
v -8.6533 7.6301 0
v -6.083 7.6301 -6.1357
v -3.3564 9.5181 -3.3564
v -4.7197 9.5181 0
v 5.8213 9.4133 -5.6641
v 0 20.426 -8.0234
v 0 9.4133 -8.0234
v 5.8213 20.426 -5.6641
v 8.1807 9.4133 0.1572
v 8.1807 20.426 0.1572
v 5.8213 9.4133 5.9785
v 5.8213 20.426 5.9785
v 0 9.4133 8.3379
v 0 20.426 8.3379
v -5.8213 20.426 5.9785
v -5.8213 9.4133 5.9785
v -8.1807 9.4133 0.1572
v -8.1807 20.426 0.1572
v -5.8213 20.426 -5.6641
v -5.8213 9.4133 -5.6641
v 0 9.4133 -8.0234
v 0 20.426 -8.0234
v 0 3.3826 -12.2188
v 0 -20.426 -12.2188
v 8.6533 -20.426 -8.6533
v 8.6533 3.3826 -8.6533
v 12.2188 3.3826 0
v 12.2188 -20.426 0
v 8.6533 3.3826 8.6523
v 8.6533 -20.426 8.6523
v 0 3.3826 12.2188
v 0 -20.426 12.2188
v -8.6006 -20.426 8.6523
v -8.6006 3.3826 8.6523
v -12.2188 3.3826 0
v -12.2188 -20.426 0
v -8.6006 -20.426 -8.6533
v -8.6006 3.3826 -8.6533
v 0 -20.426 -12.2188
v 0 3.3826 -12.2188
v -5.8213 9.4133 5.9785
v 0 9.4133 0.1572
v -8.1807 9.4133 0.1572
v 0 9.4133 8.3379
v -5.8213 9.4133 -5.6641
v 5.8213 9.4133 5.9785
v 0 9.4133 -8.0234
v 8.1807 9.4133 0.1572
v 5.8213 9.4133 -5.6641
v -8.1807 20.426 0.1572
v 0 20.426 0.1572
v -5.8213 20.426 5.9785
v -5.8213 20.426 -5.6641
v 0 20.426 8.3379
v 0 20.426 -8.0234
v 5.8213 20.426 5.9785
v 5.8213 20.426 -5.6641
v 8.1807 20.426 0.1572
v -8.6006 -20.426 8.6523
v 0 -20.426 0
v -12.2188 -20.426 0
v 0 -20.426 12.2188
v -8.6006 -20.426 -8.6533
v 8.6533 -20.426 8.6523
v 0 -20.426 -12.2188
v 12.2188 -20.426 0
v 8.6533 -20.426 -8.6533
vt 0.6084 0.3624
vt 0.6078 0.3591
vt 0.6052 0.3595
vt 0.6059 0.3632
vt 0.6078 0.3591
vt 0.6076 0.3558
vt 0.605 0.3557
vt 0.6052 0.3595
vt 0.6076 0.3558
vt 0.6079 0.3525
vt 0.6053 0.3521
vt 0.605 0.3557
vt 0.6053 0.3521
vt 0.6079 0.3525
vt 0.6085 0.3493
vt 0.6061 0.3484
vt 0.6085 0.3493
vt 0.6096 0.3462
vt 0.6074 0.3447
vt 0.6061 0.3484
vt 0.6113 0.3436
vt 0.6093 0.3409
vt 0.6074 0.3447
vt 0.6096 0.3462
vt 0.6112 0.3682
vt 0.6094 0.3655
vt 0.6071 0.3669
vt 0.609 0.3709
vt 0.6084 0.3624
vt 0.6059 0.3632
vt 0.6071 0.3669
vt 0.6094 0.3655
vt 0.6084 0.3624
vt 0.6103 0.3617
vt 0.6098 0.3589
vt 0.6078 0.3591
vt 0.6078 0.3591
vt 0.6098 0.3589
vt 0.6097 0.3559
vt 0.6076 0.3558
vt 0.6079 0.3525
vt 0.6076 0.3558
vt 0.6097 0.3559
vt 0.6098 0.353
vt 0.6098 0.353
vt 0.6103 0.3501
vt 0.6085 0.3493
vt 0.6079 0.3525
vt 0.6085 0.3493
vt 0.6103 0.3501
vt 0.6111 0.3476
vt 0.6096 0.3462
vt 0.6111 0.3476
vt 0.6123 0.3459
vt 0.6113 0.3436
vt 0.6096 0.3462
vt 0.6112 0.3682
vt 0.6123 0.3658
vt 0.6111 0.3642
vt 0.6094 0.3655
vt 0.6084 0.3624
vt 0.6094 0.3655
vt 0.6111 0.3642
vt 0.6103 0.3617
vt 0.6741 0.3116
vt 0.6814 0.3074
vt 0.6741 0.3074
vt 0.6814 0.3116
vt 0.6741 0.3157
vt 0.6814 0.3157
vt 0.6741 0.3198
vt 0.6814 0.3198
vt 0.6741 0.324
vt 0.6814 0.324
vt 0.6814 0.3281
vt 0.6741 0.3281
vt 0.6741 0.3323
vt 0.6814 0.3323
vt 0.6814 0.3364
vt 0.6741 0.3364
vt 0.6741 0.3405
vt 0.6814 0.3405
vt 0.6093 0.3409
vt 0.5976 0.337
vt 0.5961 0.3415
vt 0.6074 0.3447
vt 0.6061 0.3484
vt 0.5948 0.3461
vt 0.6053 0.3521
vt 0.5939 0.3509
vt 0.605 0.3557
vt 0.5936 0.3557
vt 0.5939 0.3606
vt 0.6052 0.3595
vt 0.6059 0.3632
vt 0.5947 0.3654
vt 0.596 0.3699
vt 0.6071 0.3669
vt 0.5974 0.3743
vt 0.609 0.3709
vt 0.6644 0.3542
vt 0.6668 0.3486
vt 0.6611 0.351
vt 0.6691 0.3542
vt 0.6611 0.3463
vt 0.6724 0.351
vt 0.6644 0.343
vt 0.6724 0.3463
vt 0.6691 0.343
vt 0.6702 0.3647
vt 0.6646 0.3624
vt 0.6669 0.368
vt 0.6702 0.36
vt 0.6622 0.368
vt 0.6669 0.3567
vt 0.6589 0.3647
vt 0.6622 0.3567
vt 0.6589 0.36
vt 0.6386 0.3238
vt 0.632 0.3211
vt 0.6348 0.3277
vt 0.6386 0.3183
vt 0.6293 0.3277
vt 0.6348 0.3145
vt 0.6254 0.3238
vt 0.6293 0.3145
vt 0.6254 0.3183
vn -0.7282392 0.6153331 0.3017162
vn -0.7281945 0.6153953 0.3016977
vn -0.7282862 0.6152884 0.3016943
vn -0.7282862 0.6152884 0.3016943
vn -0.3016977 0.6153953 0.7281945
vn -0.3017162 0.6153331 0.7282392
vn -0.3016943 0.6152884 0.7282862
vn -0.3016943 0.6152884 0.7282862
vn 0.3017162 0.6153331 0.7282392
vn 0.3017162 0.6153331 0.7282392
vn 0.3016943 0.6152884 0.7282862
vn 0.3016943 0.6152884 0.7282862
vn 0.7282862 0.6152884 0.3016943
vn 0.7281945 0.6153953 0.3016977
vn 0.7282392 0.6153331 0.3017162
vn 0.7282862 0.6152884 0.3016943
vn 0.7282392 0.6153331 -0.3017162
vn 0.7282392 0.6153331 -0.3017162
vn 0.7282862 0.6152884 -0.3016943
vn 0.7282862 0.6152884 -0.3016943
vn 0.3016943 0.6152884 -0.7282862
vn 0.3016943 0.6152884 -0.7282862
vn 0.3016943 0.6152884 -0.7282862
vn 0.3017162 0.6153331 -0.7282392
vn -0.3016943 0.6152884 -0.7282862
vn -0.3017162 0.6153331 -0.7282392
vn -0.3016943 0.6152884 -0.7282862
vn -0.3016943 0.6152884 -0.7282862
vn -0.7282392 0.6153331 -0.3017162
vn -0.7282862 0.6152884 -0.3016943
vn -0.7282862 0.6152884 -0.3016943
vn -0.7282392 0.6153331 -0.3017162
vn -0.4289007 0.8857013 0.1777003
vn -0.4289007 0.8857013 0.1777003
vn -0.4289007 0.8857013 0.1777003
vn -0.4289007 0.8857013 0.1777003
vn -0.1777003 0.8857013 0.4289007
vn -0.1777003 0.8857013 0.4289007
vn -0.1777003 0.8857013 0.4289007
vn -0.1777003 0.8857013 0.4289007
vn 0.1777003 0.8857013 0.4289007
vn 0.1777003 0.8857013 0.4289007
vn 0.1777003 0.8857013 0.4289007
vn 0.1777003 0.8857013 0.4289007
vn 0.4289007 0.8857013 0.1777003
vn 0.4289007 0.8857013 0.1777003
vn 0.4289007 0.8857013 0.1777003
vn 0.4289007 0.8857013 0.1777003
vn 0.4289007 0.8857013 -0.1777003
vn 0.4289007 0.8857013 -0.1777003
vn 0.4289007 0.8857013 -0.1777003
vn 0.4289007 0.8857013 -0.1777003
vn 0.1777003 0.8857013 -0.4289007
vn 0.1777079 0.8857393 -0.428819
vn 0.1777079 0.8857393 -0.428819
vn 0.1777003 0.8857013 -0.4289007
vn -0.1777079 0.8857393 -0.428819
vn -0.1777079 0.8857393 -0.428819
vn -0.1777003 0.8857013 -0.4289007
vn -0.1777003 0.8857013 -0.4289007
vn -0.4289007 0.8857013 -0.1777003
vn -0.4289007 0.8857013 -0.1777003
vn -0.4289007 0.8857013 -0.1777003
vn -0.4289007 0.8857013 -0.1777003
vn 0.7071068 0 -0.7071068
vn 0 0 -1
vn 0 0 -1
vn 0.7071068 0 -0.7071068
vn 1 0 0
vn 1 0 0
vn 0.7071068 0 0.7071068
vn 0.7071068 0 0.7071068
vn 0 0 1
vn 0 0 1
vn -0.7071068 0 0.7071068
vn -0.7071068 0 0.7071068
vn -1 0 0
vn -1 0 0
vn -0.7071068 0 -0.7071068
vn -0.7071068 0 -0.7071068
vn 0 0 -1
vn 0 0 -1
vn 0 0 -1
vn 0 0 -1
vn 0.7071068 0 -0.7071068
vn 0.7071068 0 -0.7071068
vn 1 0 0
vn 1 0 0
vn 0.7071068 0 0.7071068
vn 0.7071068 0 0.7071068
vn 0 0 1
vn 0 0 1
vn -0.7071068 0 0.7071068
vn -0.7071068 0 0.7071068
vn -1 0 0
vn -1 0 0
vn -0.7071068 0 -0.7071068
vn -0.7071068 0 -0.7071068
vn 0 0 -1
vn 0 0 -1
vn 0 -1 0
vn 0 -1 0
vn 0 -1 0
vn 0 -1 0
vn 0 -1 0
vn 0 -1 0
vn 0 -1 0
vn 0 -1 0
vn 0 -1 0
vn 0 1 0
vn 0 1 0
vn 0 1 0
vn 0 1 0
vn 0 1 0
vn 0 1 0
vn 0 1 0
vn 0 1 0
vn 0 1 0
vn 0 -1 0
vn 0 -1 0
vn 0 -1 0
vn 0 -1 0
vn 0 -1 0
vn 0 -1 0
vn 0 -1 0
vn 0 -1 0
vn 0 -1 0
g ____468_0
f 3/3/3 2/2/2 1/1/1
f 4/4/4 3/3/3 1/1/1
f 7/7/7 6/6/6 5/5/5
f 8/8/8 7/7/7 5/5/5
f 11/11/11 10/10/10 9/9/9
f 12/12/12 11/11/11 9/9/9
f 15/15/15 14/14/14 13/13/13
f 16/16/16 15/15/15 13/13/13
f 19/19/19 18/18/18 17/17/17
f 20/20/20 19/19/19 17/17/17
f 23/23/23 22/22/22 21/21/21
f 24/24/24 23/23/23 21/21/21
f 27/27/27 26/26/26 25/25/25
f 28/28/28 27/27/27 25/25/25
f 31/31/31 30/30/30 29/29/29
f 32/32/32 31/31/31 29/29/29
f 35/35/35 34/34/34 33/33/33
f 36/36/36 35/35/35 33/33/33
f 39/39/39 38/38/38 37/37/37
f 40/40/40 39/39/39 37/37/37
f 43/43/43 42/42/42 41/41/41
f 44/44/44 43/43/43 41/41/41
f 47/47/47 46/46/46 45/45/45
f 48/48/48 47/47/47 45/45/45
f 51/51/51 50/50/50 49/49/49
f 52/52/52 51/51/51 49/49/49
f 55/55/55 54/54/54 53/53/53
f 56/56/56 55/55/55 53/53/53
f 59/59/59 58/58/58 57/57/57
f 60/60/60 59/59/59 57/57/57
f 63/63/63 62/62/62 61/61/61
f 64/64/64 63/63/63 61/61/61
f 67/67/67 66/66/66 65/65/65
f 66/66/66 68/68/68 65/65/65
f 65/65/65 68/68/68 69/69/69
f 68/68/68 70/70/70 69/69/69
f 69/69/69 70/70/70 71/71/71
f 70/70/70 72/72/72 71/71/71
f 71/71/71 72/72/72 73/73/73
f 72/72/72 74/74/74 73/73/73
f 74/74/74 75/75/75 73/73/73
f 75/75/75 76/76/76 73/73/73
f 76/76/76 75/75/75 77/77/77
f 75/75/75 78/78/78 77/77/77
f 78/78/78 79/79/79 77/77/77
f 79/79/79 80/80/80 77/77/77
f 80/80/80 79/79/79 81/81/81
f 79/79/79 82/82/82 81/81/81
f 85/85/85 84/84/84 83/83/83
f 86/86/86 85/85/85 83/83/83
f 85/85/85 86/86/86 87/87/87
f 88/88/88 85/85/85 87/87/87
f 88/88/88 87/87/87 89/89/89
f 90/90/90 88/88/88 89/89/89
f 89/89/89 91/91/91 90/90/90
f 91/91/91 92/92/92 90/90/90
f 93/93/93 92/92/92 91/91/91
f 94/94/94 93/93/93 91/91/91
f 93/93/93 94/94/94 95/95/95
f 96/96/96 93/93/93 95/95/95
f 96/96/96 95/95/95 97/97/97
f 95/95/95 98/98/98 97/97/97
f 99/99/99 97/97/97 98/98/98
f 100/100/100 99/99/99 98/98/98
f 103/103/103 102/102/102 101/101/101
f 101/101/101 102/102/102 104/104/104
f 105/105/105 102/102/102 103/103/103
f 104/104/104 102/102/102 106/106/106
f 107/107/107 102/102/102 105/105/105
f 106/106/106 102/102/102 108/108/108
f 109/109/109 102/102/102 107/107/107
f 108/108/108 102/102/102 109/109/109
f 112/112/112 111/111/111 110/110/110
f 110/110/110 111/111/111 113/113/113
f 114/114/114 111/111/111 112/112/112
f 113/113/113 111/111/111 115/115/115
f 116/116/116 111/111/111 114/114/114
f 115/115/115 111/111/111 117/117/117
f 118/118/118 111/111/111 116/116/116
f 117/117/117 111/111/111 118/118/118
f 121/121/121 120/120/120 119/119/119
f 119/119/119 120/120/120 122/122/122
f 123/123/123 120/120/120 121/121/121
f 122/122/122 120/120/120 124/124/124
f 125/125/125 120/120/120 123/123/123
f 124/124/124 120/120/120 126/126/126
f 127/127/127 120/120/120 125/125/125
f 126/126/126 120/120/120 127/127/127
