g ____576
v 3.2305 -11.8782 -0.3506
v -1.0557 -28.6602 -0.1284
v 2.7656 -28.6602 -0.1284
v -1.5205 -11.8782 -0.3506
v 3.8574 -10.7458 -0.3506
v 5.1924 -11.8782 -0.3506
v 5.6973 -10.7458 -0.3506
v 6.2031 -4.4172 -0.3506
v -2.168 -10.7458 -0.3506
v -3.4619 -11.8782 -0.3506
v -4.0078 -10.7458 -0.3506
v 4.2217 -4.4172 -0.3506
v -2.4912 -4.4172 -0.3506
v -4.5127 -4.4172 -0.3506
v -3.4619 -2.4761 -0.3506
v -1.8438 -2.4761 -0.3506
v 3.5547 -2.4761 -0.3506
v 5.1924 -2.4761 -0.3506
v 2.7656 -28.6602 0.8828
v 3.2305 -11.8782 1.105
v 3.2305 -11.8782 -0.3506
v 2.7656 -28.6602 -0.1284
v -1.5205 -11.8782 1.105
v 2.7656 -28.6602 0.8828
v -1.0557 -28.6602 0.8828
v 3.2305 -11.8782 1.105
v -2.168 -10.7458 1.105
v -4.0078 -10.7458 1.105
v -3.4619 -11.8782 1.105
v -2.4912 -4.4172 1.105
v -4.5127 -4.4172 1.105
v -1.8438 -2.4761 1.105
v -3.4619 -2.4761 1.105
v 3.5547 -2.4761 1.105
v 4.2217 -4.4172 1.105
v 5.1924 -2.4761 1.105
v 6.2031 -4.4172 1.105
v 3.8574 -10.7458 1.105
v 5.6973 -10.7458 1.105
v 5.1924 -11.8782 1.105
v -1.5205 -11.8782 -0.3506
v -1.5205 -11.8782 1.105
v -1.0557 -28.6602 0.8828
v -1.0557 -28.6602 -0.1284
v 2.7656 -4.4778 -2.2915
v 3.959 -0.1509 -4.0303
v 4.5654 -0.1509 -3.626
v 3.332 -4.4778 -1.8872
v 0.3193 -4.4778 1.186
v 3.291 -5.4282 -2.4736
v 4.8076 -0.1509 -4.5967
v 3.959 -0.1509 -4.0303
v 2.7656 -4.4778 -2.2915
v 0.3193 -4.4778 1.186
v 0.3594 -5.4282 1.7725
v -0.8936 -0.1509 2.9248
v 0.9053 -4.4778 1.5903
v -0.8936 -0.1509 2.9248
v -1.1572 -0.1509 3.8955
v -0.3076 -0.1509 3.3291
v 0.3594 5.1465 1.7725
v 0.3193 4.1963 1.186
v 3.291 5.1465 -2.4736
v 2.7656 4.1963 -2.2915
v 3.959 -0.1509 -4.0303
v 4.8076 -0.1509 -4.5967
v 4.5654 -0.1509 -3.626
v 0.9053 4.1963 1.5903
v 0.3193 4.1963 1.186
v 3.332 4.1963 -1.8872
v 3.959 -0.1509 -4.0303
v 2.7656 4.1963 -2.2915
v 4.4443 7.8357 0.0132
v 4.4443 7.8357 -0.7144
v 3.0488 12.1829 -0.7144
v 3.0488 12.1829 0.0132
v 0.2793 12.1829 -0.7144
v 3.3721 13.1331 -0.3506
v 5.0508 7.8357 -0.3506
v 0.2793 12.1829 0.0132
v 3.0488 12.1829 -0.7144
v 4.4443 7.8357 -0.7144
v 0.2793 12.1829 -0.7144
v -0.0244 13.1331 -0.3506
v -1.7227 7.8357 -0.3506
v -1.1162 7.8357 -0.7144
v -1.1162 7.8357 0.0132
v 0.2793 3.5088 0.0132
v -1.1162 7.8357 -0.7144
v 0.2793 3.5088 -0.7144
v 3.0488 3.5088 -0.7144
v -0.0244 2.5583 -0.3506
v 0.2793 3.5088 -0.7144
v 3.3721 2.5583 -0.3506
v 3.0488 3.5088 -0.7144
v 3.0488 3.5088 0.0132
v 4.4443 7.8357 -0.7144
v 4.4443 7.8357 0.0132
v 5.0508 7.8357 -0.3506
v 4.4443 7.8357 -0.7144
v 13.7041 27.6304 -0.6538
v -10.4775 27.6304 -0.6538
v -10.4775 12.749 -0.6538
v 13.7041 12.749 -0.6538
v 13.7041 12.749 0.5591
v -10.4775 12.749 0.5591
v -10.4775 27.6304 0.5591
v 13.7041 27.6304 0.5591
v 5.6973 -10.7458 1.105
v 5.1924 -11.8782 -0.3506
v 5.1924 -11.8782 1.105
v 5.6973 -10.7458 -0.3506
v 6.2031 -4.4172 1.105
v 6.2031 -4.4172 -0.3506
v 5.1924 -2.4761 1.105
v 5.1924 -2.4761 -0.3506
v 13.7041 27.6304 -0.6538
v 13.7041 27.6304 0.5591
v -10.4775 27.6304 0.5591
v -10.4775 27.6304 -0.6538
v -1.8438 -2.4761 1.105
v -3.4619 -2.4761 1.105
v -3.4619 -2.4761 -0.3506
v -1.8438 -2.4761 -0.3506
v 3.5547 -2.4761 1.105
v 3.5547 -2.4761 -0.3506
v 5.1924 -2.4761 1.105
v 5.1924 -2.4761 -0.3506
v -10.4775 12.749 -0.6538
v -10.4775 27.6304 -0.6538
v -10.4775 27.6304 0.5591
v -10.4775 12.749 0.5591
v -4.5127 -4.4172 1.105
v -3.4619 -2.4761 -0.3506
v -3.4619 -2.4761 1.105
v -4.5127 -4.4172 -0.3506
v -4.0078 -10.7458 -0.3506
v -4.0078 -10.7458 1.105
v -3.4619 -11.8782 1.105
v -3.4619 -11.8782 -0.3506
v -10.4775 12.749 -0.6538
v -10.4775 12.749 0.5591
v 13.7041 12.749 0.5591
v 13.7041 12.749 -0.6538
v 2.7656 -28.6602 0.8828
v 2.7656 -28.6602 -0.1284
v -1.0557 -28.6602 -0.1284
v -1.0557 -28.6602 0.8828
v 3.2305 -11.8782 1.105
v 5.1924 -11.8782 1.105
v 5.1924 -11.8782 -0.3506
v 3.2305 -11.8782 -0.3506
v -1.5205 -11.8782 1.105
v -1.5205 -11.8782 -0.3506
v -3.4619 -11.8782 -0.3506
v -3.4619 -11.8782 1.105
v 13.7041 27.6304 -0.6538
v 13.7041 12.749 -0.6538
v 13.7041 12.749 0.5591
v 13.7041 27.6304 0.5591
vt 0.5094 0.0228
vt 0.4653 0.0111
vt 0.4652 0.0212
vt 0.5096 0.0103
vt 0.5124 0.0246
vt 0.5094 0.028
vt 0.5124 0.0294
vt 0.5291 0.0309
vt 0.5126 0.0086
vt 0.5096 0.0051
vt 0.5126 0.0038
vt 0.5291 0.0256
vt 0.5293 0.0079
vt 0.5293 0.0026
vt 0.5344 0.0054
vt 0.5344 0.0097
vt 0.5342 0.0239
vt 0.5342 0.0282
vt 0.5559 0.0028
vt 0.5554 0.0471
vt 0.5592 0.0471
vt 0.5586 0.0028
vt 0.452 0.0362
vt 0.4356 0.0916
vt 0.4483 0.0921
vt 0.4362 0.0356
vt 0.4543 0.0324
vt 0.4604 0.0327
vt 0.4585 0.0364
vt 0.4562 0.0114
vt 0.4629 0.0117
vt 0.4542 0.0049
vt 0.4597 0.0051
vt 0.4362 0.0042
vt 0.4338 0.0106
vt 0.4308 0.004
vt 0.4271 0.0103
vt 0.4342 0.0317
vt 0.4281 0.0315
vt 0.4296 0.0353
vt 0.554 0.0341
vt 0.5501 0.0341
vt 0.5507 0.0784
vt 0.5534 0.0784
vt 0.4189 0.0938
vt 0.4191 0.1069
vt 0.4212 0.1069
vt 0.4208 0.0938
vt 0.4188 0.0822
vt 0.4234 0.0933
vt 0.4237 0.1078
vt 0.4262 0.1067
vt 0.4261 0.0938
vt 0.4259 0.0821
vt 0.4234 0.0825
vt 0.4257 0.0693
vt 0.4208 0.0822
vt 0.4189 0.0693
vt 0.4232 0.0693
vt 0.4209 0.0693
vt 0.4234 0.0561
vt 0.4259 0.0564
vt 0.4234 0.0453
vt 0.4261 0.0448
vt 0.4262 0.0318
vt 0.4237 0.0307
vt 0.4211 0.0316
vt 0.4208 0.0564
vt 0.4188 0.0564
vt 0.4208 0.0447
vt 0.4191 0.0316
vt 0.4189 0.0447
vt 0.5359 0.0341
vt 0.5359 0.032
vt 0.5238 0.0319
vt 0.5238 0.034
vt 0.5157 0.0314
vt 0.5225 0.0362
vt 0.5362 0.036
vt 0.5156 0.0334
vt 0.5236 0.0383
vt 0.5358 0.038
vt 0.5153 0.0376
vt 0.5167 0.0354
vt 0.5034 0.0354
vt 0.5034 0.0373
vt 0.5034 0.0335
vt 0.4912 0.0335
vt 0.5034 0.0314
vt 0.4911 0.0314
vt 0.483 0.0317
vt 0.49 0.0357
vt 0.4913 0.0379
vt 0.4841 0.0357
vt 0.483 0.0378
vt 0.483 0.0337
vt 0.4709 0.0319
vt 0.471 0.0339
vt 0.4706 0.0358
vt 0.4711 0.0378
vt 0.4939 0.1038
vt 0.4939 0.0399
vt 0.4547 0.0399
vt 0.4547 0.1038
vt 0.5361 0.1042
vt 0.5361 0.0404
vt 0.4969 0.0404
vt 0.4969 0.1042
vt 0.5554 0.0556
vt 0.5592 0.0523
vt 0.5554 0.0523
vt 0.5592 0.0556
vt 0.5554 0.0724
vt 0.5592 0.0724
vt 0.5554 0.0782
vt 0.5592 0.0782
vt 0.5423 0.0026
vt 0.5392 0.0026
vt 0.5392 0.0664
vt 0.5423 0.0664
vt 0.5554 0.0967
vt 0.5554 0.101
vt 0.5592 0.101
vt 0.5592 0.0967
vt 0.5554 0.0825
vt 0.5592 0.0825
vt 0.5554 0.0782
vt 0.5592 0.0782
vt 0.5423 0.1056
vt 0.5423 0.0664
vt 0.5392 0.0664
vt 0.5392 0.1056
vt 0.5501 0.0089
vt 0.554 0.0031
vt 0.5501 0.0031
vt 0.554 0.0089
vt 0.554 0.0256
vt 0.5501 0.0256
vt 0.5501 0.0289
vt 0.554 0.0289
vt 0.5478 0.0036
vt 0.5446 0.0036
vt 0.5446 0.0675
vt 0.5478 0.0675
vt 0.5507 0.0884
vt 0.5534 0.0884
vt 0.5534 0.0784
vt 0.5507 0.0784
vt 0.5554 0.0471
vt 0.5554 0.0523
vt 0.5592 0.0523
vt 0.5592 0.0471
vt 0.5501 0.0341
vt 0.554 0.0341
vt 0.554 0.0289
vt 0.5501 0.0289
vt 0.5478 0.1068
vt 0.5478 0.0675
vt 0.5446 0.0675
vt 0.5446 0.1068
vn 0 -0.01330015 -0.9999115
vn 0 -0.01330015 -0.9999115
vn 0 -0.01330015 -0.9999115
vn 0 -0.01330015 -0.9999115
vn 0 0 -1
vn 0 0 -1
vn 0 0 -1
vn 0 0 -1
vn 0 0 -1
vn 0 0 -1
vn 0 0 -1
vn 0 0 -1
vn 0 0 -1
vn 0 0 -1
vn 0 0 -1
vn 0 0 -1
vn 0 0 -1
vn 0 0 -1
vn 0.9996163 -0.02770045 0
vn 0.9996163 -0.02770045 0
vn 0.9996163 -0.02770045 0
vn 0.9996163 -0.02770045 0
vn 0 -0.01330015 0.9999115
vn 0 -0.01330015 0.9999115
vn 0 -0.01330015 0.9999115
vn 0 -0.01330015 0.9999115
vn 0 0 1
vn 0 0 1
vn 0 0 1
vn 0 0 1
vn 0 0 1
vn 0 0 1
vn 0 0 1
vn 0 0 1
vn 0 0 1
vn 0 0 1
vn 0 0 1
vn 0 0 1
vn 0 0 1
vn 0 0 1
vn -0.9996163 -0.02770045 0
vn -0.9996163 -0.02770045 0
vn -0.9996163 -0.02770045 0
vn -0.9996163 -0.02770045 0
vn -0.8645128 0.2900043 -0.4105061
vn -0.9735691 0.0002999905 -0.2283928
vn 0.566117 0.000300009 0.8243248
vn 0.6885147 0.2870061 0.6660143
vn -0.6847965 0.2877985 -0.6694966
vn 0.2887897 -0.8616692 -0.4172851
vn 0.5680133 -0.0005000117 -0.8230193
vn -0.9735691 0.0002999905 -0.2283928
vn -0.8645128 0.2900043 -0.4105061
vn -0.6847965 0.2877985 -0.6694966
vn -0.2941948 -0.8612846 0.4142926
vn -0.5583181 0.0003000097 -0.8296269
vn 0.8636671 0.289289 0.4127843
vn -0.5583181 0.0003000097 -0.8296269
vn -0.5725021 -0.0005000019 0.8199031
vn 0.9719444 0.0003000137 0.2352107
vn -0.2943915 0.8610752 0.4145881
vn -0.6850013 -0.2873005 -0.6695012
vn 0.2889986 0.8614959 -0.417498
vn -0.8646277 -0.2895093 -0.4106132
vn -0.9735691 0.0002999905 -0.2283928
vn 0.5680133 -0.0005000117 -0.8230193
vn 0.566117 0.000300009 0.8243248
vn 0.8637818 -0.2887939 0.4128913
vn -0.6850013 -0.2873005 -0.6695012
vn 0.6887186 -0.2865078 0.666018
vn -0.9735691 0.0002999905 -0.2283928
vn -0.8646277 -0.2895093 -0.4106132
vn -0.3450889 0.0002999904 0.93857
vn -0.3450889 0.0002999904 -0.93857
vn -0.0703006 -0.2507022 -0.9655083
vn -0.0703006 -0.2507022 0.9655083
vn 0.06530051 -0.2509019 -0.9658075
vn 0.5341811 0.8453701 0
vn 1 -0.0004 0
vn 0.06530051 -0.2509019 0.9658075
vn -0.0703006 -0.2507022 -0.9655083
vn -0.3450889 0.0002999904 -0.93857
vn 0.06530051 -0.2509019 -0.9658075
vn -0.5271736 0.8497576 0
vn -1 -0.0004 0
vn 0.341197 0.0002999974 -0.9399918
vn 0.341197 0.0002999974 0.9399918
vn 0.06560061 0.2512023 0.965709
vn 0.341197 0.0002999974 -0.9399918
vn 0.06560061 0.2512023 -0.965709
vn -0.07060239 0.2509085 -0.9654327
vn -0.5269845 -0.8498749 0
vn 0.06560061 0.2512023 -0.965709
vn 0.5339929 -0.8454889 0
vn -0.07060239 0.2509085 -0.9654327
vn -0.07060239 0.2509085 0.9654327
vn -0.3450889 0.0002999904 -0.93857
vn -0.3450889 0.0002999904 0.93857
vn 1 -0.0004 0
vn -0.3450889 0.0002999904 -0.93857
vn 0 0 -1
vn 0 0 -1
vn 0 0 -1
vn 0 0 -1
vn 0 0 1
vn 0 0 1
vn 0 0 1
vn 0 0 1
vn 0.9689667 -0.2471915 0
vn 0.9131132 -0.4077059 0
vn 0.9131132 -0.4077059 0
vn 0.9689667 -0.2471915 0
vn 0.980019 0.1989039 0
vn 0.980019 0.1989039 0
vn 0.8869252 0.4619131 0
vn 0.8869252 0.4619131 0
vn 0 1 0
vn 0 1 0
vn 0 1 0
vn 0 1 0
vn 0 1 0
vn 0 1 0
vn 0 1 0
vn 0 1 0
vn 0 1 0
vn 0 1 0
vn 0 1 0
vn 0 1 0
vn -1 0 0
vn -1 0 0
vn -1 0 0
vn -1 0 0
vn -0.9783638 0.2068923 0
vn -0.8792867 0.4762928 0
vn -0.8792867 0.4762928 0
vn -0.9783638 0.2068923 0
vn -0.9652285 -0.2614077 0
vn -0.9652285 -0.2614077 0
vn -0.9007742 -0.4342876 0
vn -0.9007742 -0.4342876 0
vn 0 -1 0
vn 0 -1 0
vn 0 -1 0
vn 0 -1 0
vn 0 -1 0
vn 0 -1 0
vn 0 -1 0
vn 0 -1 0
vn 0 -1 0
vn 0 -1 0
vn 0 -1 0
vn 0 -1 0
vn 0 -1 0
vn 0 -1 0
vn 0 -1 0
vn 0 -1 0
vn 1 0 0
vn 1 0 0
vn 1 0 0
vn 1 0 0
g ____576_0
f 3/3/3 2/2/2 1/1/1
f 2/2/2 4/4/4 1/1/1
f 5/5/5 1/1/1 4/4/4
f 1/1/1 5/5/5 6/6/6
f 5/5/5 7/7/7 6/6/6
f 8/8/8 7/7/7 5/5/5
f 9/9/9 5/5/5 4/4/4
f 4/4/4 10/10/10 9/9/9
f 10/10/10 11/11/11 9/9/9
f 12/12/12 8/8/8 5/5/5
f 5/5/5 9/9/9 12/12/12
f 13/13/13 9/9/9 11/11/11
f 9/9/9 13/13/13 12/12/12
f 14/14/14 13/13/13 11/11/11
f 14/14/14 15/15/15 13/13/13
f 15/15/15 16/16/16 13/13/13
f 16/16/16 17/17/17 13/13/13
f 17/17/17 12/12/12 13/13/13
f 8/8/8 12/12/12 17/17/17
f 18/18/18 8/8/8 17/17/17
f 21/21/21 20/20/20 19/19/19
f 22/22/22 21/21/21 19/19/19
f 25/25/25 24/24/24 23/23/23
f 24/24/24 26/26/26 23/23/23
f 23/23/23 26/26/26 27/27/27
f 27/27/27 28/28/28 23/23/23
f 28/28/28 29/29/29 23/23/23
f 27/27/27 30/30/30 28/28/28
f 30/30/30 31/31/31 28/28/28
f 31/31/31 30/30/30 32/32/32
f 33/33/33 31/31/31 32/32/32
f 34/34/34 32/32/32 30/30/30
f 35/35/35 34/34/34 30/30/30
f 35/35/35 30/30/30 27/27/27
f 36/36/36 34/34/34 35/35/35
f 37/37/37 36/36/36 35/35/35
f 38/38/38 35/35/35 27/27/27
f 35/35/35 38/38/38 37/37/37
f 26/26/26 38/38/38 27/27/27
f 38/38/38 39/39/39 37/37/37
f 38/38/38 26/26/26 39/39/39
f 26/26/26 40/40/40 39/39/39
f 43/43/43 42/42/42 41/41/41
f 44/44/44 43/43/43 41/41/41
f 47/47/47 46/46/46 45/45/45
f 48/48/48 47/47/47 45/45/45
f 48/48/48 45/45/45 49/49/49
f 47/47/47 48/48/48 50/50/50
f 51/51/51 47/47/47 50/50/50
f 51/51/51 50/50/50 52/52/52
f 50/50/50 53/53/53 52/52/52
f 53/53/53 50/50/50 54/54/54
f 50/50/50 55/55/55 54/54/54
f 55/55/55 50/50/50 48/48/48
f 54/54/54 55/55/55 56/56/56
f 57/57/57 48/48/48 49/49/49
f 57/57/57 55/55/55 48/48/48
f 49/49/49 58/58/58 57/57/57
f 55/55/55 59/59/59 56/56/56
f 55/55/55 57/57/57 59/59/59
f 58/58/58 60/60/60 57/57/57
f 57/57/57 60/60/60 59/59/59
f 59/59/59 61/61/61 56/56/56
f 59/59/59 60/60/60 61/61/61
f 61/61/61 62/62/62 56/56/56
f 61/61/61 63/63/63 62/62/62
f 63/63/63 64/64/64 62/62/62
f 64/64/64 63/63/63 65/65/65
f 63/63/63 66/66/66 65/65/65
f 67/67/67 66/66/66 63/63/63
f 68/68/68 60/60/60 58/58/58
f 60/60/60 68/68/68 61/61/61
f 61/61/61 68/68/68 63/63/63
f 69/69/69 68/68/68 58/58/58
f 70/70/70 67/67/67 63/63/63
f 68/68/68 70/70/70 63/63/63
f 68/68/68 69/69/69 70/70/70
f 71/71/71 67/67/67 70/70/70
f 69/69/69 72/72/72 70/70/70
f 72/72/72 71/71/71 70/70/70
f 75/75/75 74/74/74 73/73/73
f 76/76/76 75/75/75 73/73/73
f 75/75/75 76/76/76 77/77/77
f 76/76/76 73/73/73 78/78/78
f 73/73/73 79/79/79 78/78/78
f 76/76/76 80/80/80 77/77/77
f 80/80/80 76/76/76 78/78/78
f 78/78/78 79/79/79 81/81/81
f 79/79/79 82/82/82 81/81/81
f 78/78/78 81/81/81 83/83/83
f 84/84/84 78/78/78 83/83/83
f 84/84/84 80/80/80 78/78/78
f 84/84/84 83/83/83 85/85/85
f 80/80/80 84/84/84 85/85/85
f 83/83/83 86/86/86 85/85/85
f 77/77/77 80/80/80 87/87/87
f 87/87/87 80/80/80 85/85/85
f 88/88/88 87/87/87 85/85/85
f 89/89/89 77/77/77 87/87/87
f 87/87/87 88/88/88 89/89/89
f 88/88/88 90/90/90 89/89/89
f 91/91/91 90/90/90 88/88/88
f 92/92/92 85/85/85 86/86/86
f 92/92/92 88/88/88 85/85/85
f 93/93/93 92/92/92 86/86/86
f 92/92/92 93/93/93 94/94/94
f 88/88/88 92/92/92 94/94/94
f 93/93/93 95/95/95 94/94/94
f 96/96/96 91/91/91 88/88/88
f 96/96/96 88/88/88 94/94/94
f 97/97/97 91/91/91 96/96/96
f 98/98/98 97/97/97 96/96/96
f 98/98/98 96/96/96 99/99/99
f 96/96/96 94/94/94 99/99/99
f 94/94/94 95/95/95 99/99/99
f 95/95/95 100/100/100 99/99/99
f 103/103/103 102/102/102 101/101/101
f 104/104/104 103/103/103 101/101/101
f 107/107/107 106/106/106 105/105/105
f 108/108/108 107/107/107 105/105/105
f 111/111/111 110/110/110 109/109/109
f 110/110/110 112/112/112 109/109/109
f 113/113/113 109/109/109 112/112/112
f 114/114/114 113/113/113 112/112/112
f 113/113/113 114/114/114 115/115/115
f 114/114/114 116/116/116 115/115/115
f 119/119/119 118/118/118 117/117/117
f 120/120/120 119/119/119 117/117/117
f 123/123/123 122/122/122 121/121/121
f 124/124/124 123/123/123 121/121/121
f 121/121/121 125/125/125 124/124/124
f 125/125/125 126/126/126 124/124/124
f 125/125/125 127/127/127 126/126/126
f 127/127/127 128/128/128 126/126/126
f 131/131/131 130/130/130 129/129/129
f 132/132/132 131/131/131 129/129/129
f 135/135/135 134/134/134 133/133/133
f 134/134/134 136/136/136 133/133/133
f 133/133/133 136/136/136 137/137/137
f 138/138/138 133/133/133 137/137/137
f 138/138/138 137/137/137 139/139/139
f 137/137/137 140/140/140 139/139/139
f 143/143/143 142/142/142 141/141/141
f 144/144/144 143/143/143 141/141/141
f 147/147/147 146/146/146 145/145/145
f 148/148/148 147/147/147 145/145/145
f 151/151/151 150/150/150 149/149/149
f 152/152/152 151/151/151 149/149/149
f 155/155/155 154/154/154 153/153/153
f 156/156/156 155/155/155 153/153/153
f 159/159/159 158/158/158 157/157/157
f 160/160/160 159/159/159 157/157/157
