g ____476
v -92.6738 2.7285 14.6777
v -110.6445 2.7285 7.6211
v -110.6445 2.7285 2.4463
v -92.6738 2.7285 6.5859
v -79.9727 2.7285 0.4707
v -79.9727 2.7285 8.5615
v -48.1719 2.7285 0.5645
v -48.1719 2.7285 8.5615
v 21.6396 2.7285 20.793
v 21.6396 2.7285 28.79
v 50.9004 2.7285 22.3926
v 50.9004 2.7285 30.4834
v 78.5615 2.7285 16.7471
v 78.5615 2.7285 24.8389
v 110.6445 2.7285 5.9277
v 105.1875 2.7285 13.4541
v -110.6445 -2.7285 7.6211
v -92.6738 -2.7285 6.5859
v -110.6445 -2.7285 2.4463
v -92.6738 -2.7285 14.6777
v -79.9727 -2.7285 0.4707
v -79.9727 -2.7285 8.5615
v -48.1719 -2.7285 0.5645
v -48.1719 -2.7285 8.5615
v 21.6396 -2.7285 20.793
v 21.6396 -2.7285 28.79
v 50.9004 -2.7285 22.3926
v 50.9004 -2.7285 30.4834
v 78.5615 -2.7285 16.7471
v 78.5615 -2.7285 24.8389
v 105.1875 -2.7285 13.4541
v 110.6445 -2.7285 5.9277
v -92.6738 2.7285 -14.6777
v -110.6445 2.7285 -2.54
v -110.6445 2.7285 -7.6211
v -92.6738 2.7285 -6.5859
v -79.9727 2.7285 -0.4707
v -79.9727 2.7285 -8.5615
v -48.1719 2.7285 -8.5615
v -48.1719 2.7285 -0.5645
v 21.6396 2.7285 -28.79
v 21.6396 2.7285 -20.793
v 50.9004 2.7285 -30.4834
v 50.9004 2.7285 -22.3926
v 78.5615 2.7285 -24.8389
v 78.5615 2.7285 -16.7471
v 105.1875 2.7285 -13.4541
v 110.6445 2.7285 -5.9277
v -110.6445 -2.7285 -2.54
v -92.6738 -2.7285 -14.6777
v -110.6445 -2.7285 -7.6211
v -92.6738 -2.7285 -6.5859
v -79.9727 -2.7285 -8.5615
v -79.9727 -2.7285 -0.4707
v -48.1719 -2.7285 -8.5615
v -48.1719 -2.7285 -0.5645
v 21.6396 -2.7285 -20.793
v 21.6396 -2.7285 -28.79
v 50.9004 -2.7285 -22.3926
v 50.9004 -2.7285 -30.4834
v 78.5615 -2.7285 -24.8389
v 78.5615 -2.7285 -16.7471
v 110.6445 -2.7285 -5.9277
v 105.1875 -2.7285 -13.4541
v -92.6738 2.7285 6.5859
v -110.6445 2.7285 2.4463
v -110.6445 -2.7285 2.4463
v -92.6738 -2.7285 6.5859
v -79.9727 2.7285 0.4707
v -79.9727 -2.7285 0.4707
v -48.1719 2.7285 0.5645
v -48.1719 -2.7285 0.5645
v 21.6396 -2.7285 20.793
v 21.6396 2.7285 20.793
v 50.9004 -2.7285 22.3926
v 50.9004 2.7285 22.3926
v 78.5615 2.7285 16.7471
v 78.5615 -2.7285 16.7471
v 110.6445 -2.7285 5.9277
v 110.6445 2.7285 5.9277
v -92.6738 -2.7285 -6.5859
v -110.6445 -2.7285 -2.54
v -110.6445 2.7285 -2.54
v -92.6738 2.7285 -6.5859
v -79.9727 2.7285 -0.4707
v -79.9727 -2.7285 -0.4707
v -48.1719 2.7285 -0.5645
v -48.1719 -2.7285 -0.5645
v 21.6396 2.7285 -20.793
v 21.6396 -2.7285 -20.793
v 50.9004 2.7285 -22.3926
v 50.9004 -2.7285 -22.3926
v 78.5615 2.7285 -16.7471
v 78.5615 -2.7285 -16.7471
v 110.6445 -2.7285 -5.9277
v 110.6445 2.7285 -5.9277
v -92.6738 -2.7285 14.6777
v -110.6445 -2.7285 7.6211
v -110.6445 2.7285 7.6211
v -92.6738 2.7285 14.6777
v -79.9727 2.7285 8.5615
v -79.9727 -2.7285 8.5615
v -48.1719 -2.7285 8.5615
v -48.1719 2.7285 8.5615
v 21.6396 -2.7285 28.79
v 21.6396 2.7285 28.79
v 50.9004 2.7285 30.4834
v 50.9004 -2.7285 30.4834
v 78.5615 -2.7285 24.8389
v 78.5615 2.7285 24.8389
v 105.1875 -2.7285 13.4541
v 105.1875 2.7285 13.4541
v 110.6445 2.7285 5.9277
v 110.6445 -2.7285 5.9277
v 105.1875 -2.7285 13.4541
v 105.1875 2.7285 13.4541
v -110.6445 2.7285 -7.6211
v -110.6445 -2.7285 -7.6211
v -92.6738 -2.7285 -14.6777
v -92.6738 2.7285 -14.6777
v -79.9727 -2.7285 -8.5615
v -79.9727 2.7285 -8.5615
v -48.1719 2.7285 -8.5615
v -48.1719 -2.7285 -8.5615
v 21.6396 -2.7285 -28.79
v 21.6396 2.7285 -28.79
v 50.9004 2.7285 -30.4834
v 50.9004 -2.7285 -30.4834
v 78.5615 -2.7285 -24.8389
v 78.5615 2.7285 -24.8389
v 105.1875 -2.7285 -13.4541
v 105.1875 2.7285 -13.4541
v 110.6445 2.7285 -5.9277
v 105.1875 2.7285 -13.4541
v 105.1875 -2.7285 -13.4541
v 110.6445 -2.7285 -5.9277
v -110.6445 2.7285 7.6211
v -110.6445 -2.7285 7.6211
v -110.6445 -2.7285 2.4463
v -110.6445 2.7285 2.4463
v -110.6445 -2.7285 -7.6211
v -110.6445 2.7285 -7.6211
v -110.6445 2.7285 -2.54
v -110.6445 -2.7285 -2.54
vt 0.9762 0.2362
vt 0.9867 0.2325
vt 0.9868 0.2295
vt 0.9764 0.2315
vt 0.9692 0.2277
vt 0.969 0.2324
vt 0.9509 0.227
vt 0.9507 0.2317
vt 0.9102 0.2371
vt 0.91 0.2417
vt 0.8933 0.2374
vt 0.8931 0.242
vt 0.8774 0.2335
vt 0.8773 0.2382
vt 0.8592 0.2265
vt 0.8622 0.231
vt 0.9882 0.2626
vt 0.9779 0.2635
vt 0.9883 0.2655
vt 0.9777 0.2589
vt 0.9707 0.2673
vt 0.9705 0.2627
vt 0.9523 0.268
vt 0.9522 0.2634
vt 0.9117 0.2578
vt 0.9115 0.2532
vt 0.8948 0.2575
vt 0.8946 0.2529
vt 0.879 0.2614
vt 0.8788 0.2567
vt 0.8637 0.2638
vt 0.8607 0.2683
vt 0.9766 0.2675
vt 0.9872 0.2741
vt 0.9871 0.2712
vt 0.9767 0.2722
vt 0.9696 0.276
vt 0.9694 0.2713
vt 0.9511 0.272
vt 0.9512 0.2766
vt 0.9104 0.2619
vt 0.9106 0.2665
vt 0.8935 0.2615
vt 0.8937 0.2662
vt 0.8777 0.2654
vt 0.8778 0.27
vt 0.8626 0.2725
vt 0.8596 0.277
vt 0.9872 0.2369
vt 0.9766 0.2435
vt 0.9871 0.2398
vt 0.9767 0.2388
vt 0.9694 0.2396
vt 0.9696 0.235
vt 0.951 0.2389
vt 0.9512 0.2343
vt 0.9105 0.2444
vt 0.9104 0.249
vt 0.8936 0.2447
vt 0.8935 0.2493
vt 0.8776 0.2454
vt 0.8778 0.2408
vt 0.8596 0.2338
vt 0.8625 0.2383
vt 0.8716 0.2771
vt 0.8613 0.2771
vt 0.8613 0.2802
vt 0.8716 0.2802
vt 0.8789 0.2771
vt 0.8789 0.2802
vt 0.8973 0.2771
vt 0.8973 0.2802
vt 0.9376 0.2802
vt 0.9376 0.2771
vt 0.9544 0.2802
vt 0.9544 0.2771
vt 0.9704 0.2771
vt 0.9704 0.2802
vt 0.9889 0.2802
vt 0.9889 0.2771
vt 0.9785 0.2863
vt 0.9889 0.2863
vt 0.9889 0.2832
vt 0.9785 0.2832
vt 0.9712 0.2832
vt 0.9712 0.2863
vt 0.9529 0.2832
vt 0.9529 0.2863
vt 0.9126 0.2832
vt 0.9126 0.2863
vt 0.8957 0.2832
vt 0.8957 0.2863
vt 0.8798 0.2832
vt 0.8798 0.2863
vt 0.8613 0.2863
vt 0.8613 0.2832
vt 0.9754 0.2924
vt 0.9857 0.2924
vt 0.9857 0.2892
vt 0.9754 0.2892
vt 0.9681 0.2892
vt 0.9681 0.2924
vt 0.9497 0.2924
vt 0.9497 0.2892
vt 0.9094 0.2924
vt 0.9094 0.2892
vt 0.8926 0.2892
vt 0.8926 0.2924
vt 0.8766 0.2924
vt 0.8766 0.2892
vt 0.8613 0.2924
vt 0.8613 0.2892
vt 0.9528 0.2476
vt 0.9497 0.2476
vt 0.9497 0.252
vt 0.9528 0.252
vt 0.8613 0.2953
vt 0.8613 0.2985
vt 0.8716 0.2985
vt 0.8716 0.2953
vt 0.8789 0.2985
vt 0.8789 0.2953
vt 0.8973 0.2953
vt 0.8973 0.2985
vt 0.9376 0.2985
vt 0.9376 0.2953
vt 0.9544 0.2953
vt 0.9544 0.2985
vt 0.9704 0.2985
vt 0.9704 0.2953
vt 0.9857 0.2985
vt 0.9857 0.2953
vt 0.9644 0.2539
vt 0.9644 0.2496
vt 0.9613 0.2496
vt 0.9613 0.2539
vt 0.959 0.2487
vt 0.9558 0.2487
vt 0.9558 0.2517
vt 0.959 0.2517
vt 0.9455 0.252
vt 0.9487 0.252
vt 0.9487 0.2491
vt 0.9455 0.2491
vn 0 1 0
vn 0 1 0
vn 0 1 0
vn 0 1 0
vn 0 1 0
vn 0 1 0
vn 0 1 0
vn 0 1 0
vn 0 1 0
vn 0 1 0
vn 0 1 0
vn 0 1 0
vn 0 1 0
vn 0 1 0
vn 0 1 0
vn 0 1 0
vn 0 -1 0
vn 0 -1 0
vn 0 -1 0
vn 0 -1 0
vn 0 -1 0
vn 0 -1 0
vn 0 -1 0
vn 0 -1 0
vn 0 -1 0
vn 0 -1 0
vn 0 -1 0
vn 0 -1 0
vn 0 -1 0
vn 0 -1 0
vn 0 -1 0
vn 0 -1 0
vn 0 1 0
vn 0 1 0
vn 0 1 0
vn 0 1 0
vn 0 1 0
vn 0 1 0
vn 0 1 0
vn 0 1 0
vn 0 1 0
vn 0 1 0
vn 0 1 0
vn 0 1 0
vn 0 1 0
vn 0 1 0
vn 0 1 0
vn 0 1 0
vn 0 -1 0
vn 0 -1 0
vn 0 -1 0
vn 0 -1 0
vn 0 -1 0
vn 0 -1 0
vn 0 -1 0
vn 0 -1 0
vn 0 -1 0
vn 0 -1 0
vn 0 -1 0
vn 0 -1 0
vn 0 -1 0
vn 0 -1 0
vn 0 -1 0
vn 0 -1 0
vn -0.1105962 0 -0.9938654
vn 0.226006 0 -0.9741259
vn 0.226006 0 -0.9741259
vn -0.1105962 0 -0.9938654
vn -0.2219885 0 -0.9750493
vn -0.2219885 0 -0.9750493
vn 0.1416034 0 -0.9899235
vn 0.1416034 0 -0.9899235
vn 0.1677063 0 -0.985837
vn 0.1677063 0 -0.985837
vn -0.07259719 0 -0.9973614
vn -0.07259719 0 -0.9973614
vn -0.2595108 0 -0.9657401
vn -0.2595108 0 -0.9657401
vn -0.3182071 0 -0.9480212
vn -0.3182071 0 -0.9480212
vn -0.1118034 0 0.9937303
vn 0.223194 0 0.974774
vn 0.223194 0 0.974774
vn -0.1118034 0 0.9937303
vn -0.2219885 0 0.9750493
vn -0.2219885 0 0.9750493
vn 0.1416034 0 0.9899235
vn 0.1416034 0 0.9899235
vn 0.1677063 0 0.985837
vn 0.1677063 0 0.985837
vn -0.07259719 0 0.9973614
vn -0.07259719 0 0.9973614
vn -0.2595108 0 0.9657401
vn -0.2595108 0 0.9657401
vn -0.3182071 0 0.9480212
vn -0.3182071 0 0.9480212
vn 0.03839856 0 0.9992625
vn -0.3647952 0 0.9310877
vn -0.3647952 0 0.9310877
vn 0.03839856 0 0.9992625
vn 0.2222953 0 0.9749795
vn 0.2222953 0 0.9749795
vn -0.1417994 0 0.9898955
vn -0.1417994 0 0.9898955
vn -0.1678035 0 0.9858205
vn -0.1678035 0 0.9858205
vn 0.07280338 0 0.9973463
vn 0.07280338 0 0.9973463
vn 0.2966006 0 0.9550017
vn 0.2966006 0 0.9550017
vn 0.6237922 0 0.7815902
vn 0.6237922 0 0.7815902
vn 0.8105183 0 0.5857132
vn 0.8105183 0 0.5857132
vn 0.6237922 0 0.7815902
vn 0.6237922 0 0.7815902
vn -0.3647952 0 -0.9310877
vn -0.3647952 0 -0.9310877
vn 0.03839856 0 -0.9992625
vn 0.03839856 0 -0.9992625
vn 0.2222953 0 -0.9749795
vn 0.2222953 0 -0.9749795
vn -0.1417994 0 -0.9898955
vn -0.1417994 0 -0.9898955
vn -0.1678035 0 -0.9858205
vn -0.1678035 0 -0.9858205
vn 0.07280338 0 -0.9973463
vn 0.07280338 0 -0.9973463
vn 0.2966006 0 -0.9550017
vn 0.2966006 0 -0.9550017
vn 0.6237922 0 -0.7815902
vn 0.6237922 0 -0.7815902
vn 0.8105183 0 -0.5857132
vn 0.6237922 0 -0.7815902
vn 0.6237922 0 -0.7815902
vn 0.8105183 0 -0.5857132
vn -1 0 0
vn -1 0 0
vn -1 0 0
vn -1 0 0
vn -1 0 0
vn -1 0 0
vn -1 0 0
vn -1 0 0
g ____476_0
f 3/3/3 2/2/2 1/1/1
f 4/4/4 3/3/3 1/1/1
f 4/4/4 1/1/1 5/5/5
f 1/1/1 6/6/6 5/5/5
f 7/7/7 5/5/5 6/6/6
f 8/8/8 7/7/7 6/6/6
f 9/9/9 7/7/7 8/8/8
f 10/10/10 9/9/9 8/8/8
f 9/9/9 10/10/10 11/11/11
f 10/10/10 12/12/12 11/11/11
f 11/11/11 12/12/12 13/13/13
f 12/12/12 14/14/14 13/13/13
f 15/15/15 13/13/13 14/14/14
f 16/16/16 15/15/15 14/14/14
f 19/19/19 18/18/18 17/17/17
f 18/18/18 20/20/20 17/17/17
f 18/18/18 21/21/21 20/20/20
f 21/21/21 22/22/22 20/20/20
f 22/22/22 21/21/21 23/23/23
f 24/24/24 22/22/22 23/23/23
f 23/23/23 25/25/25 24/24/24
f 25/25/25 26/26/26 24/24/24
f 25/25/25 27/27/27 26/26/26
f 27/27/27 28/28/28 26/26/26
f 27/27/27 29/29/29 28/28/28
f 29/29/29 30/30/30 28/28/28
f 30/30/30 29/29/29 31/31/31
f 29/29/29 32/32/32 31/31/31
f 35/35/35 34/34/34 33/33/33
f 34/34/34 36/36/36 33/33/33
f 33/33/33 36/36/36 37/37/37
f 38/38/38 33/33/33 37/37/37
f 38/38/38 37/37/37 39/39/39
f 37/37/37 40/40/40 39/39/39
f 41/41/41 39/39/39 40/40/40
f 42/42/42 41/41/41 40/40/40
f 41/41/41 42/42/42 43/43/43
f 42/42/42 44/44/44 43/43/43
f 43/43/43 44/44/44 45/45/45
f 44/44/44 46/46/46 45/45/45
f 47/47/47 45/45/45 46/46/46
f 48/48/48 47/47/47 46/46/46
f 51/51/51 50/50/50 49/49/49
f 50/50/50 52/52/52 49/49/49
f 50/50/50 53/53/53 52/52/52
f 53/53/53 54/54/54 52/52/52
f 54/54/54 53/53/53 55/55/55
f 56/56/56 54/54/54 55/55/55
f 57/57/57 56/56/56 55/55/55
f 58/58/58 57/57/57 55/55/55
f 57/57/57 58/58/58 59/59/59
f 58/58/58 60/60/60 59/59/59
f 60/60/60 61/61/61 59/59/59
f 61/61/61 62/62/62 59/59/59
f 63/63/63 62/62/62 61/61/61
f 64/64/64 63/63/63 61/61/61
f 67/67/67 66/66/66 65/65/65
f 68/68/68 67/67/67 65/65/65
f 65/65/65 69/69/69 68/68/68
f 69/69/69 70/70/70 68/68/68
f 70/70/70 69/69/69 71/71/71
f 72/72/72 70/70/70 71/71/71
f 72/72/72 71/71/71 73/73/73
f 71/71/71 74/74/74 73/73/73
f 75/75/75 73/73/73 74/74/74
f 76/76/76 75/75/75 74/74/74
f 75/75/75 76/76/76 77/77/77
f 78/78/78 75/75/75 77/77/77
f 79/79/79 78/78/78 77/77/77
f 80/80/80 79/79/79 77/77/77
f 83/83/83 82/82/82 81/81/81
f 84/84/84 83/83/83 81/81/81
f 85/85/85 84/84/84 81/81/81
f 86/86/86 85/85/85 81/81/81
f 87/87/87 85/85/85 86/86/86
f 88/88/88 87/87/87 86/86/86
f 87/87/87 88/88/88 89/89/89
f 88/88/88 90/90/90 89/89/89
f 91/91/91 89/89/89 90/90/90
f 92/92/92 91/91/91 90/90/90
f 93/93/93 91/91/91 92/92/92
f 94/94/94 93/93/93 92/92/92
f 93/93/93 94/94/94 95/95/95
f 96/96/96 93/93/93 95/95/95
f 99/99/99 98/98/98 97/97/97
f 100/100/100 99/99/99 97/97/97
f 101/101/101 100/100/100 97/97/97
f 102/102/102 101/101/101 97/97/97
f 101/101/101 102/102/102 103/103/103
f 104/104/104 101/101/101 103/103/103
f 104/104/104 103/103/103 105/105/105
f 106/106/106 104/104/104 105/105/105
f 107/107/107 106/106/106 105/105/105
f 108/108/108 107/107/107 105/105/105
f 107/107/107 108/108/108 109/109/109
f 110/110/110 107/107/107 109/109/109
f 110/110/110 109/109/109 111/111/111
f 112/112/112 110/110/110 111/111/111
f 115/115/115 114/114/114 113/113/113
f 116/116/116 115/115/115 113/113/113
f 119/119/119 118/118/118 117/117/117
f 120/120/120 119/119/119 117/117/117
f 119/119/119 120/120/120 121/121/121
f 120/120/120 122/122/122 121/121/121
f 121/121/121 122/122/122 123/123/123
f 124/124/124 121/121/121 123/123/123
f 125/125/125 124/124/124 123/123/123
f 126/126/126 125/125/125 123/123/123
f 125/125/125 126/126/126 127/127/127
f 128/128/128 125/125/125 127/127/127
f 128/128/128 127/127/127 129/129/129
f 127/127/127 130/130/130 129/129/129
f 129/129/129 130/130/130 131/131/131
f 130/130/130 132/132/132 131/131/131
f 135/135/135 134/134/134 133/133/133
f 136/136/136 135/135/135 133/133/133
f 139/139/139 138/138/138 137/137/137
f 140/140/140 139/139/139 137/137/137
f 143/143/143 142/142/142 141/141/141
f 144/144/144 143/143/143 141/141/141
