g ____469
v -6.1514 12.1697 0
v -4.3262 12.1697 4.3271
v -15.3467 6.2876 15.3477
v -21.7021 6.2876 0
v -4.3262 12.1697 4.3271
v 0.001 12.1697 6.1523
v 0.001 6.2876 21.7021
v -15.3467 6.2876 15.3477
v 0.001 12.1697 6.1523
v 4.3281 12.1697 4.3271
v 15.3477 6.2876 15.3477
v 0.001 6.2876 21.7021
v 15.3477 6.2876 15.3477
v 4.3281 12.1697 4.3271
v 6.0859 12.1697 0
v 21.7031 6.2876 0
v 6.0859 12.1697 0
v 4.3281 12.1697 -4.3271
v 15.3477 6.2876 -15.3477
v 21.7031 6.2876 0
v 0.001 12.1697 -6.1523
v 0.001 6.2876 -21.7021
v 15.3477 6.2876 -15.3477
v 4.3281 12.1697 -4.3271
v 0.001 12.1697 -6.1523
v -4.3262 12.1697 -4.3271
v -15.3467 6.2876 -15.3477
v 0.001 6.2876 -21.7021
v -6.1514 12.1697 0
v -21.7021 6.2876 0
v -15.3467 6.2876 -15.3477
v -4.3262 12.1697 -4.3271
v 7.4375 12.0344 -7.3018
v -0.0664 26.2998 -10.4121
v -0.0664 12.0344 -10.4121
v 7.4375 26.2998 -7.3018
v 10.5479 12.0344 0.2031
v 10.5479 26.2998 0.2031
v 7.4375 12.0344 7.6396
v 7.4375 26.2998 7.6396
v -0.0664 12.0344 10.75
v -0.0664 26.2998 10.75
v -7.5039 26.2998 7.6396
v -7.5039 12.0344 7.6396
v -10.6143 12.0344 0.2031
v -10.6143 26.2998 0.2031
v -7.5039 26.2998 -7.3018
v -7.5039 12.0344 -7.3018
v -0.0664 12.0344 -10.4121
v -0.0664 26.2998 -10.4121
v 0.001 6.2876 -21.7021
v 0.001 -26.2998 -21.7021
v 15.3477 -26.2998 -15.3477
v 15.3477 6.2876 -15.3477
v 21.7031 6.2876 0
v 21.7031 -26.2998 0
v 15.3477 6.2876 15.3477
v 15.3477 -26.2998 15.3477
v 0.001 6.2876 21.7021
v 0.001 -26.2998 21.7021
v -15.3467 -26.2998 15.3477
v -15.3467 6.2876 15.3477
v -21.7021 6.2876 0
v -21.7021 -26.2998 0
v -15.3467 -26.2998 -15.3477
v -15.3467 6.2876 -15.3477
v 0.001 -26.2998 -21.7021
v 0.001 6.2876 -21.7021
v -7.5039 12.0344 7.6396
v -0.0664 12.0344 0.2031
v -10.6143 12.0344 0.2031
v -0.0664 12.0344 10.75
v -7.5039 12.0344 -7.3018
v 7.4375 12.0344 7.6396
v -0.0664 12.0344 -10.4121
v 10.5479 12.0344 0.2031
v 7.4375 12.0344 -7.3018
v -10.6143 26.2998 0.2031
v -0.0664 26.2998 0.2031
v -7.5039 26.2998 7.6396
v -7.5039 26.2998 -7.3018
v -0.0664 26.2998 10.75
v -0.0664 26.2998 -10.4121
v 7.4375 26.2998 7.6396
v 7.4375 26.2998 -7.3018
v 10.5479 26.2998 0.2031
v -15.3467 -26.2998 15.3477
v 0.001 -26.2998 0
v -21.7021 -26.2998 0
v 0.001 -26.2998 21.7021
v -15.3467 -26.2998 -15.3477
v 15.3477 -26.2998 15.3477
v 0.001 -26.2998 -21.7021
v 21.7031 -26.2998 0
v 15.3477 -26.2998 -15.3477
vt 0.5547 0.3667
vt 0.5538 0.3643
vt 0.5475 0.3657
vt 0.5492 0.3701
vt 0.5538 0.3643
vt 0.5535 0.3617
vt 0.5471 0.3612
vt 0.5475 0.3657
vt 0.5535 0.3617
vt 0.5537 0.3591
vt 0.5478 0.3568
vt 0.5471 0.3612
vt 0.5478 0.3568
vt 0.5537 0.3591
vt 0.5546 0.3567
vt 0.5499 0.3526
vt 0.5546 0.3567
vt 0.556 0.3547
vt 0.5531 0.3489
vt 0.5499 0.3526
vt 0.5576 0.3536
vt 0.5576 0.3456
vt 0.5531 0.3489
vt 0.556 0.3547
vt 0.5576 0.3697
vt 0.556 0.3686
vt 0.5523 0.3742
vt 0.5566 0.378
vt 0.5547 0.3667
vt 0.5492 0.3701
vt 0.5523 0.3742
vt 0.556 0.3686
vt 0.6716 0.3364
vt 0.6643 0.3405
vt 0.6716 0.3405
vt 0.6643 0.3364
vt 0.6716 0.3323
vt 0.6643 0.3323
vt 0.6716 0.3281
vt 0.6643 0.3281
vt 0.6716 0.324
vt 0.6643 0.324
vt 0.6643 0.3198
vt 0.6716 0.3198
vt 0.6716 0.3157
vt 0.6643 0.3157
vt 0.6643 0.3116
vt 0.6716 0.3116
vt 0.6716 0.3074
vt 0.6643 0.3074
vt 0.5576 0.3456
vt 0.5472 0.3368
vt 0.5429 0.3417
vt 0.5531 0.3489
vt 0.5499 0.3526
vt 0.539 0.3474
vt 0.5478 0.3568
vt 0.5363 0.354
vt 0.5471 0.3612
vt 0.5353 0.3611
vt 0.536 0.3682
vt 0.5475 0.3657
vt 0.5492 0.3701
vt 0.5385 0.3748
vt 0.5421 0.3806
vt 0.5523 0.3742
vt 0.5461 0.3856
vt 0.5566 0.378
vt 0.6496 0.3847
vt 0.644 0.3824
vt 0.6463 0.388
vt 0.6496 0.3801
vt 0.6416 0.388
vt 0.6463 0.3768
vt 0.6383 0.3847
vt 0.6416 0.3768
vt 0.6383 0.3801
vt 0.6521 0.3773
vt 0.6577 0.375
vt 0.6521 0.3726
vt 0.6554 0.3806
vt 0.6554 0.3694
vt 0.66 0.3806
vt 0.66 0.3694
vt 0.6633 0.3773
vt 0.6633 0.3726
vt 0.6475 0.3305
vt 0.6513 0.3214
vt 0.6422 0.3252
vt 0.6551 0.3305
vt 0.6422 0.3176
vt 0.6604 0.3252
vt 0.6475 0.3123
vt 0.6604 0.3176
vt 0.6551 0.3123
vn -0.3496085 0.9256225 0.1449035
vn -0.3496085 0.9256225 0.1449035
vn -0.3497013 0.9256034 0.1448006
vn -0.3497013 0.9256034 0.1448006
vn -0.1448056 0.9256358 0.3496135
vn -0.1449035 0.9256225 0.3496085
vn -0.1448952 0.9256691 0.3494883
vn -0.1450014 0.925609 0.3496034
vn 0.1449035 0.9256225 0.3496085
vn 0.1448056 0.9256358 0.3496135
vn 0.1449035 0.9256225 0.3496085
vn 0.1448952 0.9256691 0.3494883
vn 0.3496135 0.9256358 0.1448056
vn 0.3496135 0.9256358 0.1448056
vn 0.3496085 0.9256225 0.1449035
vn 0.3497013 0.9256034 0.1448006
vn 0.3496085 0.9256225 -0.1449035
vn 0.3496135 0.9256358 -0.1448056
vn 0.3496135 0.9256358 -0.1448056
vn 0.3497013 0.9256034 -0.1448006
vn 0.1449035 0.9256225 -0.3496085
vn 0.1448952 0.9256691 -0.3494883
vn 0.1449035 0.9256225 -0.3496085
vn 0.1448056 0.9256358 -0.3496135
vn -0.1449035 0.9256225 -0.3496085
vn -0.1448056 0.9256358 -0.3496135
vn -0.1450014 0.925609 -0.3496034
vn -0.1448952 0.9256691 -0.3494883
vn -0.3496085 0.9256225 -0.1449035
vn -0.3497013 0.9256034 -0.1448006
vn -0.3497013 0.9256034 -0.1448006
vn -0.3496085 0.9256225 -0.1449035
vn 0.7071068 0 -0.7071068
vn 0 0 -1
vn 0 0 -1
vn 0.7071068 0 -0.7071068
vn 1 0 0
vn 1 0 0
vn 0.7071068 0 0.7071068
vn 0.7071068 0 0.7071068
vn 0 0 1
vn 0 0 1
vn -0.7071068 0 0.7071068
vn -0.7071068 0 0.7071068
vn -1 0 0
vn -1 0 0
vn -0.7071068 0 -0.7071068
vn -0.7071068 0 -0.7071068
vn 0 0 -1
vn 0 0 -1
vn 0 0 -1
vn 0 0 -1
vn 0.7071568 0 -0.7070568
vn 0.7071568 0 -0.7070568
vn 1 0 0
vn 1 0 0
vn 0.7071568 0 0.7070568
vn 0.7071568 0 0.7070568
vn 0 0 1
vn 0 0 1
vn -0.7071568 0 0.7070568
vn -0.7071568 0 0.7070568
vn -1 0 0
vn -1 0 0
vn -0.7071568 0 -0.7070568
vn -0.7071568 0 -0.7070568
vn 0 0 -1
vn 0 0 -1
vn 0 -1 0
vn 0 -1 0
vn 0 -1 0
vn 0 -1 0
vn 0 -1 0
vn 0 -1 0
vn 0 -1 0
vn 0 -1 0
vn 0 -1 0
vn 0 1 0
vn 0 1 0
vn 0 1 0
vn 0 1 0
vn 0 1 0
vn 0 1 0
vn 0 1 0
vn 0 1 0
vn 0 1 0
vn 0 -1 0
vn 0 -1 0
vn 0 -1 0
vn 0 -1 0
vn 0 -1 0
vn 0 -1 0
vn 0 -1 0
vn 0 -1 0
vn 0 -1 0
g ____469_0
f 3/3/3 2/2/2 1/1/1
f 4/4/4 3/3/3 1/1/1
f 7/7/7 6/6/6 5/5/5
f 8/8/8 7/7/7 5/5/5
f 11/11/11 10/10/10 9/9/9
f 12/12/12 11/11/11 9/9/9
f 15/15/15 14/14/14 13/13/13
f 16/16/16 15/15/15 13/13/13
f 19/19/19 18/18/18 17/17/17
f 20/20/20 19/19/19 17/17/17
f 23/23/23 22/22/22 21/21/21
f 24/24/24 23/23/23 21/21/21
f 27/27/27 26/26/26 25/25/25
f 28/28/28 27/27/27 25/25/25
f 31/31/31 30/30/30 29/29/29
f 32/32/32 31/31/31 29/29/29
f 35/35/35 34/34/34 33/33/33
f 34/34/34 36/36/36 33/33/33
f 33/33/33 36/36/36 37/37/37
f 36/36/36 38/38/38 37/37/37
f 37/37/37 38/38/38 39/39/39
f 38/38/38 40/40/40 39/39/39
f 39/39/39 40/40/40 41/41/41
f 40/40/40 42/42/42 41/41/41
f 42/42/42 43/43/43 41/41/41
f 43/43/43 44/44/44 41/41/41
f 44/44/44 43/43/43 45/45/45
f 43/43/43 46/46/46 45/45/45
f 46/46/46 47/47/47 45/45/45
f 47/47/47 48/48/48 45/45/45
f 48/48/48 47/47/47 49/49/49
f 47/47/47 50/50/50 49/49/49
f 53/53/53 52/52/52 51/51/51
f 54/54/54 53/53/53 51/51/51
f 53/53/53 54/54/54 55/55/55
f 56/56/56 53/53/53 55/55/55
f 56/56/56 55/55/55 57/57/57
f 58/58/58 56/56/56 57/57/57
f 57/57/57 59/59/59 58/58/58
f 59/59/59 60/60/60 58/58/58
f 61/61/61 60/60/60 59/59/59
f 62/62/62 61/61/61 59/59/59
f 61/61/61 62/62/62 63/63/63
f 64/64/64 61/61/61 63/63/63
f 64/64/64 63/63/63 65/65/65
f 63/63/63 66/66/66 65/65/65
f 67/67/67 65/65/65 66/66/66
f 68/68/68 67/67/67 66/66/66
f 71/71/71 70/70/70 69/69/69
f 69/69/69 70/70/70 72/72/72
f 73/73/73 70/70/70 71/71/71
f 72/72/72 70/70/70 74/74/74
f 75/75/75 70/70/70 73/73/73
f 74/74/74 70/70/70 76/76/76
f 77/77/77 70/70/70 75/75/75
f 76/76/76 70/70/70 77/77/77
f 80/80/80 79/79/79 78/78/78
f 78/78/78 79/79/79 81/81/81
f 82/82/82 79/79/79 80/80/80
f 81/81/81 79/79/79 83/83/83
f 84/84/84 79/79/79 82/82/82
f 83/83/83 79/79/79 85/85/85
f 86/86/86 79/79/79 84/84/84
f 85/85/85 79/79/79 86/86/86
f 89/89/89 88/88/88 87/87/87
f 87/87/87 88/88/88 90/90/90
f 91/91/91 88/88/88 89/89/89
f 90/90/90 88/88/88 92/92/92
f 93/93/93 88/88/88 91/91/91
f 92/92/92 88/88/88 94/94/94
f 95/95/95 88/88/88 93/93/93
f 94/94/94 88/88/88 95/95/95
