g ____477
v 104.4883 5.5833 -9.1729
v 109.4072 0 0.5322
v 104.4883 11.2996 0.5322
v 104.4883 -5.5833 -9.1729
v 109.4072 0 0.5322
v 104.4883 5.5833 -9.1729
v 104.4883 -11.2996 0.5322
v 109.4072 0 0.5322
v 104.4883 -5.5833 -9.1729
v 104.4883 -5.5833 10.3691
v 109.4072 0 0.5322
v 104.4883 -11.2996 0.5322
v 104.4883 5.5833 10.3691
v 109.4072 0 0.5322
v 104.4883 -5.5833 10.3691
v 104.4883 11.2996 0.5322
v 109.4072 0 0.5322
v 104.4883 5.5833 10.3691
v 44.5342 11.2996 0.5322
v 17.6807 7.7104 0.5322
v 17.6807 3.8552 -6.1152
v 44.5342 5.5833 -9.1729
v 44.5342 5.5833 -9.1729
v 17.6807 3.8552 -6.1152
v 17.6807 -3.8552 -6.1152
v 44.5342 -5.5833 -9.1729
v 44.5342 -5.5833 -9.1729
v 17.6807 -3.8552 -6.1152
v 17.6807 -7.7104 0.5322
v 44.5342 -11.2996 0.5322
v 44.5342 -11.2996 0.5322
v 17.6807 -7.7104 0.5322
v 17.6807 -3.8552 7.1787
v 44.5342 -5.5833 10.3691
v 44.5342 -5.5833 10.3691
v 17.6807 -3.8552 7.1787
v 17.6807 3.8552 7.1787
v 44.5342 5.5833 10.3691
v 44.5342 5.5833 10.3691
v 17.6807 3.8552 7.1787
v 17.6807 7.7104 0.5322
v 44.5342 11.2996 0.5322
v 17.6807 7.7104 0.5322
v -50.7822 7.7104 0.5322
v -50.7822 3.8552 -6.1152
v 17.6807 3.8552 -6.1152
v 17.6807 3.8552 -6.1152
v -50.7822 3.8552 -6.1152
v -50.7822 -3.8552 -6.1152
v 17.6807 -3.8552 -6.1152
v 17.6807 -3.8552 -6.1152
v -50.7822 -3.8552 -6.1152
v -50.7822 -7.7104 0.5322
v 17.6807 -7.7104 0.5322
v 17.6807 -7.7104 0.5322
v -50.7822 -7.7104 0.5322
v -50.7822 -3.8552 7.1787
v 17.6807 -3.8552 7.1787
v 17.6807 -3.8552 7.1787
v -50.7822 -3.8552 7.1787
v -50.7822 3.8552 7.1787
v 17.6807 3.8552 7.1787
v 17.6807 3.8552 7.1787
v -50.7822 3.8552 7.1787
v -50.7822 7.7104 0.5322
v 17.6807 7.7104 0.5322
v -50.7822 7.7104 0.5322
v -73.3809 11.9644 0.5322
v -73.3809 5.9822 -9.8369
v -50.7822 3.8552 -6.1152
v -50.7822 3.8552 -6.1152
v -73.3809 5.9822 -9.8369
v -73.3809 -5.9822 -9.8369
v -50.7822 -3.8552 -6.1152
v -50.7822 -3.8552 -6.1152
v -73.3809 -5.9822 -9.8369
v -73.3809 -11.9644 0.5322
v -50.7822 -7.7104 0.5322
v -50.7822 -7.7104 0.5322
v -73.3809 -11.9644 0.5322
v -73.3809 -5.9822 10.9004
v -50.7822 -3.8552 7.1787
v -50.7822 -3.8552 7.1787
v -73.3809 -5.9822 10.9004
v -73.3809 5.9822 10.9004
v -50.7822 3.8552 7.1787
v -50.7822 3.8552 7.1787
v -73.3809 5.9822 10.9004
v -73.3809 11.9644 0.5322
v -50.7822 7.7104 0.5322
v -85.2129 -20.6052 -31.373
v -68.0635 -17.1489 -20.6055
v -70.5898 -14.4902 -31.373
v -85.2129 -24.1946 -20.6055
v -99.7031 -14.4902 -31.373
v -68.0635 -17.1489 20.6055
v -102.2285 -17.1489 -20.6055
v -85.2129 -24.1946 20.6055
v -70.5898 -14.4902 31.373
v -102.2285 -17.1489 20.6055
v -85.2129 -20.6052 31.373
v -99.7031 -14.4902 31.373
v -105.8174 0 -31.373
v -102.2285 -17.1489 -20.6055
v -99.7031 -14.4902 -31.373
v -109.4072 0 -20.6055
v -99.7031 14.4902 -31.373
v -102.2285 -17.1489 20.6055
v -102.2285 17.1489 -20.6055
v -109.4072 0 20.6055
v -99.7031 -14.4902 31.373
v -102.2285 17.1489 20.6055
v -105.8174 0 31.373
v -99.7031 14.4902 31.373
v -85.2129 20.6052 -31.373
v -102.2285 17.1489 -20.6055
v -99.7031 14.4902 -31.373
v -85.2129 24.1946 -20.6055
v -70.5898 14.4902 -31.373
v -102.2285 17.1489 20.6055
v -68.0635 17.1489 -20.6055
v -85.2129 24.1946 20.6055
v -99.7031 14.4902 31.373
v -68.0635 17.1489 20.6055
v -85.2129 20.6052 31.373
v -70.5898 14.4902 31.373
v 104.4883 11.2996 0.5322
v 44.5342 5.5833 -9.1729
v 104.4883 5.5833 -9.1729
v 44.5342 11.2996 0.5322
v 104.4883 5.5833 10.3691
v 44.5342 5.5833 10.3691
v 104.4883 5.5833 -9.1729
v 44.5342 5.5833 -9.1729
v 44.5342 -5.5833 -9.1729
v 104.4883 -5.5833 -9.1729
v 104.4883 -5.5833 -9.1729
v 44.5342 -5.5833 -9.1729
v 44.5342 -11.2996 0.5322
v 104.4883 -11.2996 0.5322
v 44.5342 -5.5833 10.3691
v 104.4883 -5.5833 10.3691
v 104.4883 -5.5833 10.3691
v 44.5342 -5.5833 10.3691
v 44.5342 5.5833 10.3691
v 104.4883 5.5833 10.3691
v -68.0635 -17.1489 -20.6055
v -68.0635 -17.1489 20.6055
v -61.0176 0 20.6055
v -70.5898 -14.4902 31.373
v -64.6074 0 31.373
v -70.5898 14.4902 31.373
v -68.0635 17.1489 20.6055
v -61.0176 0 -20.6055
v -70.5898 -14.4902 -31.373
v -68.0635 17.1489 -20.6055
v -64.6074 0 -31.373
v -70.5898 14.4902 -31.373
v -70.5898 -14.4902 31.373
v -85.2129 0 31.373
v -64.6074 0 31.373
v -85.2129 -20.6052 31.373
v -70.5898 14.4902 31.373
v -99.7031 -14.4902 31.373
v -85.2129 20.6052 31.373
v -105.8174 0 31.373
v -99.7031 14.4902 31.373
v -64.6074 0 -31.373
v -85.2129 0 -31.373
v -70.5898 -14.4902 -31.373
v -70.5898 14.4902 -31.373
v -85.2129 -20.6052 -31.373
v -85.2129 20.6052 -31.373
v -99.7031 -14.4902 -31.373
v -99.7031 14.4902 -31.373
v -105.8174 0 -31.373
vt 0.1153 0.5217
vt 0.1226 0.5216
vt 0.1188 0.5152
vt 0.119 0.5279
vt 0.1226 0.5216
vt 0.1153 0.5217
vt 0.1264 0.5279
vt 0.1226 0.5216
vt 0.119 0.5279
vt 0.13 0.5214
vt 0.1226 0.5216
vt 0.1264 0.5279
vt 0.1263 0.5151
vt 0.1226 0.5216
vt 0.13 0.5214
vt 0.1188 0.5152
vt 0.1226 0.5216
vt 0.1263 0.5151
vt 0.1415 0.4517
vt 0.1591 0.4517
vt 0.1591 0.4473
vt 0.1415 0.4453
vt 0.1795 0.4614
vt 0.1619 0.4625
vt 0.1619 0.4675
vt 0.1795 0.4687
vt 0.1415 0.4418
vt 0.1591 0.4398
vt 0.1591 0.4355
vt 0.1415 0.4355
vt 0.1415 0.4355
vt 0.1591 0.4355
vt 0.1591 0.4311
vt 0.1415 0.4291
vt 0.1415 0.4791
vt 0.1591 0.478
vt 0.1591 0.4729
vt 0.1415 0.4718
vt 0.1415 0.4581
vt 0.1591 0.456
vt 0.1591 0.4517
vt 0.1415 0.4517
vt 0.1591 0.4517
vt 0.2039 0.4517
vt 0.2039 0.4473
vt 0.1591 0.4473
vt 0.1619 0.4625
vt 0.1171 0.4625
vt 0.1171 0.4675
vt 0.1619 0.4675
vt 0.1591 0.4398
vt 0.2039 0.4398
vt 0.2039 0.4355
vt 0.1591 0.4355
vt 0.1591 0.4355
vt 0.2039 0.4355
vt 0.2039 0.4311
vt 0.1591 0.4311
vt 0.1591 0.478
vt 0.2039 0.478
vt 0.2039 0.4729
vt 0.1591 0.4729
vt 0.1591 0.456
vt 0.2039 0.456
vt 0.2039 0.4517
vt 0.1591 0.4517
vt 0.2039 0.4517
vt 0.2187 0.4517
vt 0.2187 0.4449
vt 0.2039 0.4473
vt 0.1171 0.4625
vt 0.1023 0.4611
vt 0.1023 0.4689
vt 0.1171 0.4675
vt 0.2039 0.4398
vt 0.2187 0.4423
vt 0.2187 0.4355
vt 0.2039 0.4355
vt 0.2039 0.4355
vt 0.2187 0.4355
vt 0.2187 0.4287
vt 0.2039 0.4311
vt 0.2039 0.478
vt 0.2187 0.4794
vt 0.2187 0.4716
vt 0.2039 0.4729
vt 0.2039 0.456
vt 0.2187 0.4585
vt 0.2187 0.4517
vt 0.2039 0.4517
vt 0.0431 0.5207
vt 0.0309 0.513
vt 0.0327 0.5207
vt 0.0431 0.513
vt 0.0534 0.5207
vt 0.0309 0.4837
vt 0.0552 0.513
vt 0.0431 0.4837
vt 0.0327 0.476
vt 0.0552 0.4837
vt 0.0431 0.476
vt 0.0534 0.476
vt 0.017 0.4288
vt 0.0292 0.4365
vt 0.0273 0.4288
vt 0.017 0.4365
vt 0.0066 0.4288
vt 0.0292 0.4658
vt 0.0048 0.4365
vt 0.017 0.4658
vt 0.0273 0.4735
vt 0.0048 0.4658
vt 0.017 0.4735
vt 0.0066 0.4735
vt 0.0431 0.4288
vt 0.0552 0.4365
vt 0.0534 0.4288
vt 0.0431 0.4365
vt 0.0327 0.4288
vt 0.0552 0.4658
vt 0.0309 0.4365
vt 0.0431 0.4658
vt 0.0534 0.4735
vt 0.0309 0.4658
vt 0.0431 0.4735
vt 0.0327 0.4735
vt 0.1023 0.4517
vt 0.1415 0.4453
vt 0.1023 0.4453
vt 0.1415 0.4517
vt 0.1023 0.4581
vt 0.1415 0.4581
vt 0.2187 0.4614
vt 0.1795 0.4614
vt 0.1795 0.4687
vt 0.2187 0.4687
vt 0.1023 0.4418
vt 0.1415 0.4418
vt 0.1415 0.4355
vt 0.1023 0.4355
vt 0.1415 0.4291
vt 0.1023 0.4291
vt 0.1023 0.4791
vt 0.1415 0.4791
vt 0.1415 0.4718
vt 0.1023 0.4718
vt 0.0292 0.5122
vt 0.0292 0.4828
vt 0.017 0.4828
vt 0.0273 0.4752
vt 0.017 0.4752
vt 0.0066 0.4752
vt 0.0048 0.4828
vt 0.017 0.5122
vt 0.0273 0.5198
vt 0.0048 0.5122
vt 0.017 0.5198
vt 0.0066 0.5198
vt 0.0655 0.4559
vt 0.0713 0.4424
vt 0.0577 0.4479
vt 0.0768 0.456
vt 0.0578 0.4367
vt 0.0848 0.4481
vt 0.0659 0.4288
vt 0.0849 0.4369
vt 0.0771 0.429
vt 0.0849 0.4658
vt 0.0713 0.4713
vt 0.0848 0.477
vt 0.0771 0.4579
vt 0.0768 0.4849
vt 0.0659 0.4577
vt 0.0656 0.4847
vt 0.0579 0.4656
vt 0.0577 0.4768
vn 0.8936911 0.3885961 -0.2242977
vn 0.8937659 0.3884852 -0.2241915
vn 0.8936911 0.3885961 -0.2242977
vn 0.8937261 0 -0.4486131
vn 0.8937863 0 -0.4484931
vn 0.8937261 0 -0.4486131
vn 0.8936911 -0.3885961 -0.2242977
vn 0.8937659 -0.3884852 -0.2241915
vn 0.8936911 -0.3885961 -0.2242977
vn 0.8936911 -0.3885961 0.2242977
vn 0.8937458 -0.3884765 0.2242864
vn 0.8936911 -0.3885961 0.2242977
vn 0.8937261 0 0.4486131
vn 0.8937261 0 0.4486131
vn 0.8937261 0 0.4486131
vn 0.8936911 0.3885961 0.2242977
vn 0.8937458 0.3884765 0.2242864
vn 0.8936911 0.3885961 0.2242977
vn -0.1150957 0.8602678 -0.4966814
vn -0.1151943 0.8602578 -0.4966756
vn -0.1150957 0.8602678 -0.4966814
vn -0.1151014 0.8603105 -0.4966061
vn -0.1150947 0 -0.9933546
vn -0.1150947 0 -0.9933546
vn -0.1150947 0 -0.9933546
vn -0.1150947 0 -0.9933546
vn -0.1151014 -0.8603105 -0.4966061
vn -0.1150957 -0.8602678 -0.4966814
vn -0.1151943 -0.8602578 -0.4966756
vn -0.1150957 -0.8602678 -0.4966814
vn -0.1150957 -0.8602678 0.4966814
vn -0.1151943 -0.8602578 0.4966756
vn -0.1150957 -0.8602678 0.4966814
vn -0.1150957 -0.8602678 0.4966814
vn -0.1150947 0 0.9933546
vn -0.1150947 0 0.9933546
vn -0.1150947 0 0.9933546
vn -0.1150947 0 0.9933546
vn -0.1150957 0.8602678 0.4966814
vn -0.1150957 0.8602678 0.4966814
vn -0.1151943 0.8602578 0.4966756
vn -0.1150957 0.8602678 0.4966814
vn 0 0.8660191 -0.500011
vn 0 0.8660191 -0.500011
vn 0 0.8660191 -0.500011
vn 0 0.8660191 -0.500011
vn 0 0 -1
vn 0 0 -1
vn 0 0 -1
vn 0 0 -1
vn 0 -0.8660191 -0.500011
vn 0 -0.8660191 -0.500011
vn 0 -0.8660191 -0.500011
vn 0 -0.8660191 -0.500011
vn 0 -0.8660191 0.500011
vn 0 -0.8660191 0.500011
vn 0 -0.8660191 0.500011
vn 0 -0.8660191 0.500011
vn 0 0 1
vn 0 0 1
vn 0 0 1
vn 0 0 1
vn 0 0.8660191 0.500011
vn 0 0.8660191 0.500011
vn 0 0.8660191 0.500011
vn 0 0.8660191 0.500011
vn 0.1630071 0.8544371 -0.4933214
vn 0.1632018 0.8544093 -0.4933053
vn 0.1632098 0.8544513 -0.4932296
vn 0.1629931 0.8544641 -0.4932792
vn 0.1630042 0 -0.9866254
vn 0.1631989 0 -0.9865932
vn 0.1631989 0 -0.9865932
vn 0.1630042 0 -0.9866254
vn 0.1629931 -0.8544641 -0.4932792
vn 0.1632098 -0.8544513 -0.4932296
vn 0.1632018 -0.8544093 -0.4933053
vn 0.1630071 -0.8544371 -0.4933214
vn 0.1630071 -0.8544371 0.4933214
vn 0.1632018 -0.8544093 0.4933053
vn 0.1632098 -0.8544513 0.4932296
vn 0.1629931 -0.8544641 0.4932792
vn 0.1630042 0 0.9866254
vn 0.1631989 0 0.9865932
vn 0.1631989 0 0.9865932
vn 0.1630042 0 0.9866254
vn 0.1629931 0.8544641 0.4932792
vn 0.1632098 0.8544513 0.4932296
vn 0.1632018 0.8544093 0.4933053
vn 0.1630071 0.8544371 0.4933214
vn 0 -0.9481218 -0.3179073
vn 0.6984487 -0.6986487 -0.1551108
vn 0.6703226 -0.6705226 -0.3179107
vn 0 -0.9878988 -0.1550998
vn -0.6703226 -0.6705226 -0.3179107
vn 0.6984487 -0.6986487 0.1551108
vn -0.6984487 -0.6986487 -0.1551108
vn 0 -0.9878988 0.1550998
vn 0.6703226 -0.6705226 0.3179107
vn -0.6984487 -0.6986487 0.1551108
vn 0 -0.9481218 0.3179073
vn -0.6703226 -0.6705226 0.3179107
vn -0.9480917 0 -0.3179972
vn -0.6984487 -0.6986487 -0.1551108
vn -0.6703226 -0.6705226 -0.3179107
vn -0.9878834 0 -0.1551974
vn -0.6703226 0.6705226 -0.3179107
vn -0.6984487 -0.6986487 0.1551108
vn -0.6984487 0.6986487 -0.1551108
vn -0.9878834 0 0.1551974
vn -0.6703226 -0.6705226 0.3179107
vn -0.6984487 0.6986487 0.1551108
vn -0.9480917 0 0.3179972
vn -0.6703226 0.6705226 0.3179107
vn 0 0.9481218 -0.3179073
vn -0.6984487 0.6986487 -0.1551108
vn -0.6703226 0.6705226 -0.3179107
vn 0 0.9878988 -0.1550998
vn 0.6703226 0.6705226 -0.3179107
vn -0.6984487 0.6986487 0.1551108
vn 0.6984487 0.6986487 -0.1551108
vn 0 0.9878988 0.1550998
vn -0.6703226 0.6705226 0.3179107
vn 0.6984487 0.6986487 0.1551108
vn 0 0.9481218 0.3179073
vn 0.6703226 0.6705226 0.3179107
vn 0 1 0
vn 0 0.500011 -0.8660191
vn 0 0.500011 -0.8660191
vn 0 1 0
vn 0 0.500011 0.8660191
vn 0 0.500011 0.8660191
vn 0 0.500011 -0.8660191
vn 0 0.500011 -0.8660191
vn 0 -0.500011 -0.8660191
vn 0 -0.500011 -0.8660191
vn 0 -0.500011 -0.8660191
vn 0 -0.500011 -0.8660191
vn 0 -1 0
vn 0 -1 0
vn 0 -0.500011 0.8660191
vn 0 -0.500011 0.8660191
vn 0 -0.500011 0.8660191
vn 0 -0.500011 0.8660191
vn 0 0.500011 0.8660191
vn 0 0.500011 0.8660191
vn 0.6984487 -0.6986487 -0.1551108
vn 0.6984487 -0.6986487 0.1551108
vn 0.9878988 0 0.1550998
vn 0.6703226 -0.6705226 0.3179107
vn 0.9482223 0 0.3176075
vn 0.6703226 0.6705226 0.3179107
vn 0.6984487 0.6986487 0.1551108
vn 0.9878988 0 -0.1550998
vn 0.6703226 -0.6705226 -0.3179107
vn 0.6984487 0.6986487 -0.1551108
vn 0.9482223 0 -0.3176075
vn 0.6703226 0.6705226 -0.3179107
vn 0 0 1
vn 0 0 1
vn 0 0 1
vn 0 0 1
vn 0 0 1
vn 0 0 1
vn 0 0 1
vn 0 0 1
vn 0 0 1
vn 0 0 -1
vn 0 0 -1
vn 0 0 -1
vn 0 0 -1
vn 0 0 -1
vn 0 0 -1
vn 0 0 -1
vn 0 0 -1
vn 0 0 -1
g ____477_0
f 3/3/3 2/2/2 1/1/1
f 6/6/6 5/5/5 4/4/4
f 9/9/9 8/8/8 7/7/7
f 12/12/12 11/11/11 10/10/10
f 15/15/15 14/14/14 13/13/13
f 18/18/18 17/17/17 16/16/16
f 21/21/21 20/20/20 19/19/19
f 22/22/22 21/21/21 19/19/19
f 25/25/25 24/24/24 23/23/23
f 26/26/26 25/25/25 23/23/23
f 29/29/29 28/28/28 27/27/27
f 30/30/30 29/29/29 27/27/27
f 33/33/33 32/32/32 31/31/31
f 34/34/34 33/33/33 31/31/31
f 37/37/37 36/36/36 35/35/35
f 38/38/38 37/37/37 35/35/35
f 41/41/41 40/40/40 39/39/39
f 42/42/42 41/41/41 39/39/39
f 45/45/45 44/44/44 43/43/43
f 46/46/46 45/45/45 43/43/43
f 49/49/49 48/48/48 47/47/47
f 50/50/50 49/49/49 47/47/47
f 53/53/53 52/52/52 51/51/51
f 54/54/54 53/53/53 51/51/51
f 57/57/57 56/56/56 55/55/55
f 58/58/58 57/57/57 55/55/55
f 61/61/61 60/60/60 59/59/59
f 62/62/62 61/61/61 59/59/59
f 65/65/65 64/64/64 63/63/63
f 66/66/66 65/65/65 63/63/63
f 69/69/69 68/68/68 67/67/67
f 70/70/70 69/69/69 67/67/67
f 73/73/73 72/72/72 71/71/71
f 74/74/74 73/73/73 71/71/71
f 77/77/77 76/76/76 75/75/75
f 78/78/78 77/77/77 75/75/75
f 81/81/81 80/80/80 79/79/79
f 82/82/82 81/81/81 79/79/79
f 85/85/85 84/84/84 83/83/83
f 86/86/86 85/85/85 83/83/83
f 89/89/89 88/88/88 87/87/87
f 90/90/90 89/89/89 87/87/87
f 93/93/93 92/92/92 91/91/91
f 92/92/92 94/94/94 91/91/91
f 91/91/91 94/94/94 95/95/95
f 92/92/92 96/96/96 94/94/94
f 94/94/94 97/97/97 95/95/95
f 96/96/96 98/98/98 94/94/94
f 94/94/94 98/98/98 97/97/97
f 98/98/98 96/96/96 99/99/99
f 98/98/98 100/100/100 97/97/97
f 101/101/101 98/98/98 99/99/99
f 100/100/100 98/98/98 101/101/101
f 102/102/102 100/100/100 101/101/101
f 105/105/105 104/104/104 103/103/103
f 104/104/104 106/106/106 103/103/103
f 103/103/103 106/106/106 107/107/107
f 104/104/104 108/108/108 106/106/106
f 106/106/106 109/109/109 107/107/107
f 108/108/108 110/110/110 106/106/106
f 106/106/106 110/110/110 109/109/109
f 110/110/110 108/108/108 111/111/111
f 110/110/110 112/112/112 109/109/109
f 113/113/113 110/110/110 111/111/111
f 112/112/112 110/110/110 113/113/113
f 114/114/114 112/112/112 113/113/113
f 117/117/117 116/116/116 115/115/115
f 116/116/116 118/118/118 115/115/115
f 115/115/115 118/118/118 119/119/119
f 116/116/116 120/120/120 118/118/118
f 118/118/118 121/121/121 119/119/119
f 120/120/120 122/122/122 118/118/118
f 118/118/118 122/122/122 121/121/121
f 122/122/122 120/120/120 123/123/123
f 122/122/122 124/124/124 121/121/121
f 125/125/125 122/122/122 123/123/123
f 124/124/124 122/122/122 125/125/125
f 126/126/126 124/124/124 125/125/125
f 129/129/129 128/128/128 127/127/127
f 128/128/128 130/130/130 127/127/127
f 127/127/127 130/130/130 131/131/131
f 130/130/130 132/132/132 131/131/131
f 135/135/135 134/134/134 133/133/133
f 136/136/136 135/135/135 133/133/133
f 139/139/139 138/138/138 137/137/137
f 140/140/140 139/139/139 137/137/137
f 141/141/141 139/139/139 140/140/140
f 142/142/142 141/141/141 140/140/140
f 145/145/145 144/144/144 143/143/143
f 146/146/146 145/145/145 143/143/143
f 149/149/149 148/148/148 147/147/147
f 150/150/150 148/148/148 149/149/149
f 151/151/151 150/150/150 149/149/149
f 151/151/151 149/149/149 152/152/152
f 149/149/149 153/153/153 152/152/152
f 154/154/154 149/149/149 147/147/147
f 153/153/153 149/149/149 154/154/154
f 154/154/154 147/147/147 155/155/155
f 156/156/156 153/153/153 154/154/154
f 157/157/157 154/154/154 155/155/155
f 158/158/158 156/156/156 154/154/154
f 157/157/157 158/158/158 154/154/154
f 161/161/161 160/160/160 159/159/159
f 159/159/159 160/160/160 162/162/162
f 163/163/163 160/160/160 161/161/161
f 162/162/162 160/160/160 164/164/164
f 165/165/165 160/160/160 163/163/163
f 164/164/164 160/160/160 166/166/166
f 167/167/167 160/160/160 165/165/165
f 166/166/166 160/160/160 167/167/167
f 170/170/170 169/169/169 168/168/168
f 168/168/168 169/169/169 171/171/171
f 172/172/172 169/169/169 170/170/170
f 171/171/171 169/169/169 173/173/173
f 174/174/174 169/169/169 172/172/172
f 173/173/173 169/169/169 175/175/175
f 176/176/176 169/169/169 174/174/174
f 175/175/175 169/169/169 176/176/176
