g ____471
v -4.7412 17.2803 -0.1582
v -3.3721 17.2803 3.2139
v -9.2725 12.644 9.1143
v -13.0654 12.644 -0.1582
v -3.3721 17.2803 3.2139
v 0 17.2803 4.6357
v 0 12.644 12.96
v -9.2725 12.644 9.1143
v 0 17.2803 4.6357
v 3.3721 17.2803 3.2139
v 9.2725 12.644 9.1143
v 0 12.644 12.96
v 9.2725 12.644 9.1143
v 3.3721 17.2803 3.2139
v 4.7939 17.2803 -0.1582
v 13.1182 12.644 -0.1582
v 4.7939 17.2803 -0.1582
v 3.3721 17.2803 -3.5303
v 9.2725 12.644 -9.4307
v 13.1182 12.644 -0.1582
v 0 17.2803 -4.8994
v 0 12.644 -13.2236
v 9.2725 12.644 -9.4307
v 3.3721 17.2803 -3.5303
v 0 17.2803 -4.8994
v -3.3721 17.2803 -3.5303
v -9.2725 12.644 -9.4307
v 0 12.644 -13.2236
v -4.7412 17.2803 -0.1582
v -13.0654 12.644 -0.1582
v -9.2725 12.644 -9.4307
v -3.3721 17.2803 -3.5303
v 4.4258 14.0139 -4.4258
v 0 24.2346 -6.2695
v 0 14.0139 -6.2695
v 4.4258 24.2346 -4.4258
v 6.2695 14.0139 0
v 6.2695 24.2346 0
v 4.4258 14.0139 4.4258
v 4.4258 24.2346 4.4258
v 0 14.0139 6.2695
v 0 24.2346 6.2695
v -4.4258 24.2346 4.4258
v -4.4258 14.0139 4.4258
v -6.2695 14.0139 0
v -6.2695 24.2346 0
v -4.4258 24.2346 -4.4258
v -4.4258 14.0139 -4.4258
v 0 14.0139 -6.2695
v 0 24.2346 -6.2695
v 0 12.644 -13.2236
v 0 -35.4565 -13.2236
v 9.2725 -35.4565 -9.4307
v 9.2725 12.644 -9.4307
v 13.1182 12.644 -0.1582
v 13.1182 -35.4565 -0.1582
v 9.2725 12.644 9.1143
v 9.2725 -35.4565 9.1143
v 0 12.644 12.96
v 0 -35.4565 12.96
v -9.2725 -35.4565 9.1143
v -9.2725 12.644 9.1143
v -13.0654 12.644 -0.1582
v -13.0654 -35.4565 -0.1582
v -9.2725 -35.4565 -9.4307
v -9.2725 12.644 -9.4307
v 0 -35.4565 -13.2236
v 0 12.644 -13.2236
v 6.8486 22.3906 -6.8486
v 0 35.4563 -13.9609
v 0 22.3906 -9.6943
v 9.9043 35.4563 -9.9043
v 9.6943 22.3906 0
v 13.9609 35.4563 0
v 9.9043 35.4563 9.9043
v 6.8486 22.3906 6.8486
v 0 22.3906 9.6943
v 0 35.4563 13.9609
v -6.8486 22.3906 6.8486
v -9.9043 35.4563 9.9043
v -13.9609 35.4563 0
v -9.6943 22.3906 0
v -6.8486 22.3906 -6.8486
v -9.9043 35.4563 -9.9043
v 0 35.4563 -13.9609
v 0 22.3906 -9.6943
v -4.4258 14.0139 4.4258
v 0 14.0139 0
v -6.2695 14.0139 0
v 0 14.0139 6.2695
v -4.4258 14.0139 -4.4258
v 4.4258 14.0139 4.4258
v 0 14.0139 -6.2695
v 6.2695 14.0139 0
v 4.4258 14.0139 -4.4258
v -6.2695 24.2346 0
v 0 24.2346 0
v -4.4258 24.2346 4.4258
v -4.4258 24.2346 -4.4258
v 0 24.2346 6.2695
v 0 24.2346 -6.2695
v 4.4258 24.2346 4.4258
v 4.4258 24.2346 -4.4258
v 6.2695 24.2346 0
v -9.2725 -35.4565 9.1143
v 0 -35.4565 -0.1582
v -13.0654 -35.4565 -0.1582
v 0 -35.4565 12.96
v -9.2725 -35.4565 -9.4307
v 9.2725 -35.4565 9.1143
v 0 -35.4565 -13.2236
v 13.1182 -35.4565 -0.1582
v 9.2725 -35.4565 -9.4307
v -6.8486 22.3906 6.8486
v 0 22.3906 0
v -9.6943 22.3906 0
v 0 22.3906 9.6943
v -6.8486 22.3906 -6.8486
v 6.8486 22.3906 6.8486
v 0 22.3906 -9.6943
v 9.6943 22.3906 0
v 6.8486 22.3906 -6.8486
v -13.9609 35.4563 0
v 0 35.4563 0
v -9.9043 35.4563 9.9043
v -9.9043 35.4563 -9.9043
v 0 35.4563 13.9609
v 0 35.4563 -13.9609
v 9.9043 35.4563 9.9043
v 9.9043 35.4563 -9.9043
v 13.9609 35.4563 0
vt 0.5903 0.3657
vt 0.59 0.3627
vt 0.5856 0.3631
vt 0.586 0.3672
vt 0.59 0.3627
vt 0.5899 0.3595
vt 0.5856 0.3591
vt 0.5856 0.3631
vt 0.5899 0.3595
vt 0.59 0.3563
vt 0.5858 0.3551
vt 0.5856 0.3591
vt 0.5858 0.3551
vt 0.59 0.3563
vt 0.5903 0.3532
vt 0.5864 0.3512
vt 0.5903 0.3532
vt 0.5909 0.3504
vt 0.5874 0.3471
vt 0.5864 0.3512
vt 0.5918 0.3485
vt 0.5888 0.3428
vt 0.5874 0.3471
vt 0.5909 0.3504
vt 0.5918 0.3702
vt 0.5909 0.3683
vt 0.5869 0.3714
vt 0.5881 0.3758
vt 0.5903 0.3657
vt 0.586 0.3672
vt 0.5869 0.3714
vt 0.5909 0.3683
vt 0.691 0.3192
vt 0.7036 0.3133
vt 0.691 0.3133
vt 0.7036 0.3192
vt 0.691 0.3251
vt 0.7036 0.3251
vt 0.691 0.331
vt 0.7036 0.331
vt 0.691 0.3369
vt 0.7036 0.3369
vt 0.7036 0.3428
vt 0.691 0.3428
vt 0.691 0.3487
vt 0.7036 0.3487
vt 0.7036 0.3547
vt 0.691 0.3547
vt 0.691 0.3606
vt 0.7036 0.3606
vt 0.5888 0.3428
vt 0.5647 0.3388
vt 0.5639 0.3437
vt 0.5874 0.3471
vt 0.5864 0.3512
vt 0.5632 0.3487
vt 0.5858 0.3551
vt 0.5628 0.3537
vt 0.5856 0.3591
vt 0.5626 0.3588
vt 0.5627 0.3638
vt 0.5856 0.3631
vt 0.586 0.3672
vt 0.563 0.3688
vt 0.5636 0.3738
vt 0.5869 0.3714
vt 0.5642 0.3786
vt 0.5881 0.3758
vt 0.6332 0.376
vt 0.6315 0.3879
vt 0.6373 0.3796
vt 0.6256 0.3826
vt 0.6301 0.3714
vt 0.6211 0.3761
vt 0.6183 0.3688
vt 0.6282 0.3663
vt 0.6275 0.3609
vt 0.6174 0.3609
vt 0.6282 0.3555
vt 0.6183 0.3531
vt 0.6211 0.3457
vt 0.6301 0.3504
vt 0.6332 0.3459
vt 0.6256 0.3392
vt 0.6315 0.3339
vt 0.6373 0.3422
vt 0.592 0.4021
vt 0.581 0.3975
vt 0.5856 0.4085
vt 0.592 0.393
vt 0.5764 0.4085
vt 0.5856 0.3865
vt 0.5699 0.4021
vt 0.5764 0.3865
vt 0.5699 0.393
vt 0.6118 0.3394
vt 0.6156 0.3353
vt 0.61 0.3356
vt 0.6158 0.3408
vt 0.6115 0.3316
vt 0.6196 0.3391
vt 0.6153 0.3298
vt 0.6211 0.3351
vt 0.6193 0.3312
vt 0.6181 0.3283
vt 0.6152 0.3212
vt 0.6123 0.3283
vt 0.6223 0.3241
vt 0.6081 0.3241
vt 0.6223 0.3183
vt 0.6081 0.3183
vt 0.6181 0.3141
vt 0.6123 0.3141
vt 0.6449 0.3741
vt 0.6421 0.3675
vt 0.6394 0.3741
vt 0.6487 0.3703
vt 0.6355 0.3703
vt 0.6487 0.3648
vt 0.6355 0.3648
vt 0.6449 0.3609
vt 0.6394 0.3609
vt 0.641 0.3532
vt 0.6506 0.3493
vt 0.641 0.3453
vt 0.6466 0.3588
vt 0.6466 0.3397
vt 0.6545 0.3588
vt 0.6545 0.3397
vt 0.6601 0.3532
vt 0.6601 0.3453
vn -0.476697 0.8565946 0.1974988
vn -0.476697 0.8565946 0.1974988
vn -0.476815 0.8565271 0.1975062
vn -0.476697 0.8565946 0.1974988
vn -0.1974988 0.8565946 0.476697
vn -0.1974988 0.8565946 0.476697
vn -0.1974894 0.8565538 0.4767742
vn -0.1975062 0.8565271 0.476815
vn 0.1974988 0.8565946 0.476697
vn 0.1974988 0.8565946 0.476697
vn 0.1975062 0.8565271 0.476815
vn 0.1974894 0.8565538 0.4767742
vn 0.476815 0.8565271 0.1975062
vn 0.476697 0.8565946 0.1974988
vn 0.476697 0.8565946 0.1974988
vn 0.4767742 0.8565538 0.1974894
vn 0.476697 0.8565946 -0.1974988
vn 0.476697 0.8565946 -0.1974988
vn 0.476815 0.8565271 -0.1975062
vn 0.4767742 0.8565538 -0.1974894
vn 0.1974988 0.8565946 -0.476697
vn 0.1974894 0.8565538 -0.4767742
vn 0.1974988 0.8565946 -0.476697
vn 0.1974988 0.8565946 -0.476697
vn -0.1974988 0.8565946 -0.476697
vn -0.1974988 0.8565946 -0.476697
vn -0.1974988 0.8565946 -0.476697
vn -0.1974894 0.8565538 -0.4767742
vn -0.476697 0.8565946 -0.1974988
vn -0.476697 0.8565946 -0.1974988
vn -0.476815 0.8565271 -0.1975062
vn -0.476697 0.8565946 -0.1974988
vn 0.7071068 0 -0.7071068
vn 0 0 -1
vn 0 0 -1
vn 0.7071068 0 -0.7071068
vn 1 0 0
vn 1 0 0
vn 0.7071068 0 0.7071068
vn 0.7071068 0 0.7071068
vn 0 0 1
vn 0 0 1
vn -0.7071068 0 0.7071068
vn -0.7071068 0 0.7071068
vn -1 0 0
vn -1 0 0
vn -0.7071068 0 -0.7071068
vn -0.7071068 0 -0.7071068
vn 0 0 -1
vn 0 0 -1
vn 0 0 -1
vn 0 0 -1
vn 0.7071068 0 -0.7071068
vn 0.7071068 0 -0.7071068
vn 1 0 0
vn 1 0 0
vn 0.7071068 0 0.7071068
vn 0.7071068 0 0.7071068
vn 0 0 1
vn 0 0 1
vn -0.7071068 0 0.7071068
vn -0.7071068 0 0.7071068
vn -1 0 0
vn -1 0 0
vn -0.7071068 0 -0.7071068
vn -0.7071068 0 -0.7071068
vn 0 0 -1
vn 0 0 -1
vn 0.6714333 -0.3136155 -0.6714333
vn 0 -0.3134063 -0.9496192
vn 0 -0.3134965 -0.9495894
vn 0.6714852 -0.3133931 -0.6714852
vn 0.9495894 -0.3134965 0
vn 0.9496192 -0.3134063 0
vn 0.6714852 -0.3133931 0.6714852
vn 0.6714333 -0.3136155 0.6714333
vn 0 -0.3134965 0.9495894
vn 0 -0.3134063 0.9496192
vn -0.6714333 -0.3136155 0.6714333
vn -0.6714852 -0.3133931 0.6714852
vn -0.9496192 -0.3134063 0
vn -0.9495894 -0.3134965 0
vn -0.6714333 -0.3136155 -0.6714333
vn -0.6714852 -0.3133931 -0.6714852
vn 0 -0.3134063 -0.9496192
vn 0 -0.3134965 -0.9495894
vn 0 -1 0
vn 0 -1 0
vn 0 -1 0
vn 0 -1 0
vn 0 -1 0
vn 0 -1 0
vn 0 -1 0
vn 0 -1 0
vn 0 -1 0
vn 0 1 0
vn 0 1 0
vn 0 1 0
vn 0 1 0
vn 0 1 0
vn 0 1 0
vn 0 1 0
vn 0 1 0
vn 0 1 0
vn 0 -1 0
vn 0 -1 0
vn 0 -1 0
vn 0 -1 0
vn 0 -1 0
vn 0 -1 0
vn 0 -1 0
vn 0 -1 0
vn 0 -1 0
vn 0 -1 0
vn 0 -1 0
vn 0 -1 0
vn 0 -1 0
vn 0 -1 0
vn 0 -1 0
vn 0 -1 0
vn 0 -1 0
vn 0 -1 0
vn 0 1 0
vn 0 1 0
vn 0 1 0
vn 0 1 0
vn 0 1 0
vn 0 1 0
vn 0 1 0
vn 0 1 0
vn 0 1 0
g ____471_0
f 3/3/3 2/2/2 1/1/1
f 4/4/4 3/3/3 1/1/1
f 7/7/7 6/6/6 5/5/5
f 8/8/8 7/7/7 5/5/5
f 11/11/11 10/10/10 9/9/9
f 12/12/12 11/11/11 9/9/9
f 15/15/15 14/14/14 13/13/13
f 16/16/16 15/15/15 13/13/13
f 19/19/19 18/18/18 17/17/17
f 20/20/20 19/19/19 17/17/17
f 23/23/23 22/22/22 21/21/21
f 24/24/24 23/23/23 21/21/21
f 27/27/27 26/26/26 25/25/25
f 28/28/28 27/27/27 25/25/25
f 31/31/31 30/30/30 29/29/29
f 32/32/32 31/31/31 29/29/29
f 35/35/35 34/34/34 33/33/33
f 34/34/34 36/36/36 33/33/33
f 33/33/33 36/36/36 37/37/37
f 36/36/36 38/38/38 37/37/37
f 37/37/37 38/38/38 39/39/39
f 38/38/38 40/40/40 39/39/39
f 39/39/39 40/40/40 41/41/41
f 40/40/40 42/42/42 41/41/41
f 42/42/42 43/43/43 41/41/41
f 43/43/43 44/44/44 41/41/41
f 44/44/44 43/43/43 45/45/45
f 43/43/43 46/46/46 45/45/45
f 46/46/46 47/47/47 45/45/45
f 47/47/47 48/48/48 45/45/45
f 48/48/48 47/47/47 49/49/49
f 47/47/47 50/50/50 49/49/49
f 53/53/53 52/52/52 51/51/51
f 54/54/54 53/53/53 51/51/51
f 53/53/53 54/54/54 55/55/55
f 56/56/56 53/53/53 55/55/55
f 56/56/56 55/55/55 57/57/57
f 58/58/58 56/56/56 57/57/57
f 57/57/57 59/59/59 58/58/58
f 59/59/59 60/60/60 58/58/58
f 61/61/61 60/60/60 59/59/59
f 62/62/62 61/61/61 59/59/59
f 61/61/61 62/62/62 63/63/63
f 64/64/64 61/61/61 63/63/63
f 64/64/64 63/63/63 65/65/65
f 63/63/63 66/66/66 65/65/65
f 67/67/67 65/65/65 66/66/66
f 68/68/68 67/67/67 66/66/66
f 71/71/71 70/70/70 69/69/69
f 70/70/70 72/72/72 69/69/69
f 69/69/69 72/72/72 73/73/73
f 72/72/72 74/74/74 73/73/73
f 74/74/74 75/75/75 73/73/73
f 75/75/75 76/76/76 73/73/73
f 76/76/76 75/75/75 77/77/77
f 75/75/75 78/78/78 77/77/77
f 77/77/77 78/78/78 79/79/79
f 78/78/78 80/80/80 79/79/79
f 80/80/80 81/81/81 79/79/79
f 81/81/81 82/82/82 79/79/79
f 82/82/82 81/81/81 83/83/83
f 81/81/81 84/84/84 83/83/83
f 84/84/84 85/85/85 83/83/83
f 85/85/85 86/86/86 83/83/83
f 89/89/89 88/88/88 87/87/87
f 87/87/87 88/88/88 90/90/90
f 91/91/91 88/88/88 89/89/89
f 90/90/90 88/88/88 92/92/92
f 93/93/93 88/88/88 91/91/91
f 92/92/92 88/88/88 94/94/94
f 95/95/95 88/88/88 93/93/93
f 94/94/94 88/88/88 95/95/95
f 98/98/98 97/97/97 96/96/96
f 96/96/96 97/97/97 99/99/99
f 100/100/100 97/97/97 98/98/98
f 99/99/99 97/97/97 101/101/101
f 102/102/102 97/97/97 100/100/100
f 101/101/101 97/97/97 103/103/103
f 104/104/104 97/97/97 102/102/102
f 103/103/103 97/97/97 104/104/104
f 107/107/107 106/106/106 105/105/105
f 105/105/105 106/106/106 108/108/108
f 109/109/109 106/106/106 107/107/107
f 108/108/108 106/106/106 110/110/110
f 111/111/111 106/106/106 109/109/109
f 110/110/110 106/106/106 112/112/112
f 113/113/113 106/106/106 111/111/111
f 112/112/112 106/106/106 113/113/113
f 116/116/116 115/115/115 114/114/114
f 114/114/114 115/115/115 117/117/117
f 118/118/118 115/115/115 116/116/116
f 117/117/117 115/115/115 119/119/119
f 120/120/120 115/115/115 118/118/118
f 119/119/119 115/115/115 121/121/121
f 122/122/122 115/115/115 120/120/120
f 121/121/121 115/115/115 122/122/122
f 125/125/125 124/124/124 123/123/123
f 123/123/123 124/124/124 126/126/126
f 127/127/127 124/124/124 125/125/125
f 126/126/126 124/124/124 128/128/128
f 129/129/129 124/124/124 127/127/127
f 128/128/128 124/124/124 130/130/130
f 131/131/131 124/124/124 129/129/129
f 130/130/130 124/124/124 131/131/131
