g ____579
v -47.6416 -33.2947 16.6743
v 42.9531 -33.2947 16.6743
v 42.9531 -33.2947 24.083
v -47.6416 -33.2947 24.083
v 42.9531 34.1418 16.6743
v -47.6416 34.1418 16.6743
v -47.6416 34.1418 24.083
v 42.9531 34.1418 24.083
v 42.9531 -33.2947 16.6743
v 42.9531 34.1418 16.6743
v 42.9531 34.1418 24.083
v 42.9531 -33.2947 24.083
v -47.6416 34.1418 16.6743
v -47.6416 -33.2947 16.6743
v -47.6416 -33.2947 24.083
v -47.6416 34.1418 24.083
v -56.4648 -40.1453 24.083
v 51.7764 -40.1453 24.083
v 51.7764 -40.1453 16.7065
v -56.4648 -40.1453 16.7065
v -56.4648 40.9924 24.083
v -56.4648 40.9924 16.7065
v 51.7764 40.9924 16.7065
v 51.7764 40.9924 24.083
v 51.7764 -40.1453 16.7065
v 51.7764 -40.1453 24.083
v 51.7764 40.9924 24.083
v 51.7764 40.9924 16.7065
v -56.4648 -40.1453 24.083
v -56.4648 -40.1453 16.7065
v -56.4648 40.9924 16.7065
v -56.4648 40.9924 24.083
v 51.7764 40.9924 16.7065
v 42.9531 -33.2947 16.6743
v 51.7764 -40.1453 16.7065
v -56.4648 -40.1453 16.7065
v 42.9531 34.1418 16.6743
v -47.6416 -33.2947 16.6743
v -47.6416 34.1418 16.6743
v -56.4648 40.9924 16.7065
v 51.7764 -40.1453 24.083
v -56.4648 -40.1453 24.083
v -47.6416 -33.2947 24.083
v 42.9531 -33.2947 24.083
v -47.6416 34.1418 24.083
v 51.7764 40.9924 24.083
v -56.4648 40.9924 24.083
v 42.9531 34.1418 24.083
vt 0.3751 0.8417
vt 0.2466 0.8417
vt 0.2466 0.8522
vt 0.3751 0.8522
vt 0.2482 0.8707
vt 0.3741 0.8707
vt 0.3741 0.8604
vt 0.2482 0.8604
vt 0.269 0.9012
vt 0.3713 0.9012
vt 0.3713 0.8899
vt 0.269 0.8899
vt 0.3713 0.8764
vt 0.269 0.8764
vt 0.269 0.8876
vt 0.3713 0.8876
vt 0.3913 0.9681
vt 0.227 0.9681
vt 0.227 0.9793
vt 0.3913 0.9793
vt 0.3913 0.9613
vt 0.3913 0.9501
vt 0.227 0.9501
vt 0.227 0.9613
vt 0.2482 0.9035
vt 0.2482 0.9147
vt 0.3713 0.9147
vt 0.3713 0.9035
vt 0.2482 0.9169
vt 0.2482 0.9281
vt 0.3713 0.9281
vt 0.3713 0.9169
vt 0.3913 0.69
vt 0.3779 0.8028
vt 0.3913 0.8132
vt 0.227 0.8132
vt 0.3779 0.7004
vt 0.2404 0.8028
vt 0.2404 0.7004
vt 0.227 0.69
vt 0.227 0.9432
vt 0.3913 0.9432
vt 0.3779 0.9328
vt 0.2404 0.9328
vt 0.3779 0.8304
vt 0.227 0.82
vt 0.3913 0.82
vt 0.2404 0.8304
vn 0 1 0
vn 0 1 0
vn 0 1 0
vn 0 1 0
vn 0 -1 0
vn 0 -1 0
vn 0 -1 0
vn 0 -1 0
vn -1 0 0
vn -1 0 0
vn -1 0 0
vn -1 0 0
vn 1 0 0
vn 1 0 0
vn 1 0 0
vn 1 0 0
vn 0 -1 0
vn 0 -1 0
vn 0 -1 0
vn 0 -1 0
vn 0 1 0
vn 0 1 0
vn 0 1 0
vn 0 1 0
vn 1 0 0
vn 1 0 0
vn 1 0 0
vn 1 0 0
vn -1 0 0
vn -1 0 0
vn -1 0 0
vn -1 0 0
vn 0.003699975 0 -0.9999932
vn 0.003699975 0 -0.9999932
vn 0.003699975 0 -0.9999932
vn -0.003699975 0 -0.9999932
vn 0.003699975 0 -0.9999932
vn -0.003699975 0 -0.9999932
vn -0.003699975 0 -0.9999932
vn -0.003699975 0 -0.9999932
vn 0 0 1
vn 0 0 1
vn 0 0 1
vn 0 0 1
vn 0 0 1
vn 0 0 1
vn 0 0 1
vn 0 0 1
g ____579_0
f 3/3/3 2/2/2 1/1/1
f 4/4/4 3/3/3 1/1/1
f 7/7/7 6/6/6 5/5/5
f 8/8/8 7/7/7 5/5/5
f 11/11/11 10/10/10 9/9/9
f 12/12/12 11/11/11 9/9/9
f 15/15/15 14/14/14 13/13/13
f 16/16/16 15/15/15 13/13/13
f 19/19/19 18/18/18 17/17/17
f 20/20/20 19/19/19 17/17/17
f 23/23/23 22/22/22 21/21/21
f 24/24/24 23/23/23 21/21/21
f 27/27/27 26/26/26 25/25/25
f 28/28/28 27/27/27 25/25/25
f 31/31/31 30/30/30 29/29/29
f 32/32/32 31/31/31 29/29/29
f 35/35/35 34/34/34 33/33/33
f 34/34/34 35/35/35 36/36/36
f 34/34/34 37/37/37 33/33/33
f 38/38/38 34/34/34 36/36/36
f 37/37/37 39/39/39 33/33/33
f 39/39/39 38/38/38 36/36/36
f 39/39/39 40/40/40 33/33/33
f 40/40/40 39/39/39 36/36/36
f 43/43/43 42/42/42 41/41/41
f 44/44/44 43/43/43 41/41/41
f 42/42/42 43/43/43 45/45/45
f 41/41/41 46/46/46 44/44/44
f 47/47/47 42/42/42 45/45/45
f 46/46/46 48/48/48 44/44/44
f 45/45/45 48/48/48 47/47/47
f 48/48/48 46/46/46 47/47/47
