g ____490
v -30.0244 5.3081 11.6113
v -30.0244 5.3081 31.1025
v -38.0693 5.3081 30.4395
v -37.1572 5.3081 11.7773
v -45.9492 5.3081 27.8682
v -43.1289 5.3081 6.4697
v -62.6201 5.3081 4.5615
v -69.2549 5.3081 19.9053
v -73.9004 5.3081 15.6758
v -68.8408 5.3081 -0.166
v -73.9004 5.3081 -16.0078
v -69.2549 5.3081 -20.2373
v -62.6201 5.3081 -4.8936
v -45.9492 5.3081 -28.1172
v -43.1289 5.3081 -6.8008
v -38.0693 5.3081 -30.7705
v -37.1572 5.3081 -12.1094
v -30.0244 5.3081 -11.9434
v -30.0244 5.3081 -31.4346
v -30.0244 -6.1377 31.1025
v -30.0244 -6.1377 11.6113
v -37.1572 -6.1377 11.7773
v -38.0693 -6.1377 30.4395
v -43.1289 -6.1377 6.4697
v -45.9492 -6.1377 27.8682
v -69.2549 -6.1377 19.9053
v -62.6201 -6.1377 4.5615
v -73.9004 -6.1377 15.6758
v -68.8408 -6.1377 -0.166
v -73.9004 -6.1377 -16.0078
v -62.6201 -6.1377 -4.8936
v -69.2549 -6.1377 -20.2373
v -45.9492 -6.1377 -28.1172
v -43.1289 -6.1377 -6.8008
v -37.1572 -6.1377 -12.1094
v -38.0693 -6.1377 -30.7705
v -30.0244 -6.1377 -11.9434
v -30.0244 -6.1377 -31.4346
v -118.2734 5.3081 29.6094
v -135.8564 5.3081 29.6094
v -146.0586 5.3081 15.6758
v -121.0098 5.3081 15.6758
v -112.0527 5.3081 29.6094
v -115.4531 5.3081 3.4834
v -150.2881 5.3081 3.4834
v -112.0527 5.3081 -0.166
v -112.0527 5.3081 15.6758
v -92.9766 5.3081 15.6758
v -92.9766 5.3081 29.6094
v -73.9004 5.3081 15.6758
v -87.2529 5.3081 29.6094
v -92.9766 5.3081 -0.166
v -68.8408 5.3081 -0.166
v -73.9004 5.3081 -16.0078
v -92.9766 5.3081 -16.0078
v -87.2529 5.3081 -29.9414
v -92.9766 5.3081 -29.9414
v -112.0527 5.3081 -16.0078
v -112.0527 5.3081 -29.9414
v -118.2734 5.3081 -29.9414
v -121.0098 5.3081 -16.0078
v -115.4531 5.3081 -3.8154
v -150.2881 5.3081 -3.8154
v -146.0586 5.3081 -16.0078
v -135.8564 5.3081 -29.9414
v -146.0586 -6.1377 -16.0078
v -118.2734 -6.1377 -29.9414
v -135.8564 -6.1377 -29.9414
v -121.0098 -6.1377 -16.0078
v -150.2881 -6.1377 -3.8154
v -115.4531 -6.1377 -3.8154
v -112.0527 -6.1377 -29.9414
v -112.0527 -6.1377 -0.166
v -112.0527 -6.1377 -16.0078
v -92.9766 -6.1377 -29.9414
v -92.9766 -6.1377 -16.0078
v -87.2529 -6.1377 -29.9414
v -73.9004 -6.1377 -16.0078
v -92.9766 -6.1377 -0.166
v -68.8408 -6.1377 -0.166
v -73.9004 -6.1377 15.6758
v -92.9766 -6.1377 15.6758
v -87.2529 -6.1377 29.6094
v -92.9766 -6.1377 29.6094
v -112.0527 -6.1377 29.6094
v -112.0527 -6.1377 15.6758
v -115.4531 -6.1377 3.4834
v -121.0098 -6.1377 15.6758
v -118.2734 -6.1377 29.6094
v -150.2881 -6.1377 3.4834
v -135.8564 -6.1377 29.6094
v -146.0586 -6.1377 15.6758
v -69.2549 -6.1377 19.9053
v -73.9004 -6.1377 15.6758
v -73.9004 5.3081 15.6758
v -69.2549 5.3081 19.9053
v -45.9492 -6.1377 27.8682
v -45.9492 5.3081 27.8682
v -38.0693 -6.1377 30.4395
v -38.0693 5.3081 30.4395
v -30.0244 5.3081 31.1025
v -30.0244 -6.1377 31.1025
v -68.8408 5.3081 -0.166
v -68.8408 -6.1377 -0.166
v -62.6201 -6.1377 4.5615
v -62.6201 5.3081 4.5615
v -43.1289 -6.1377 6.4697
v -43.1289 5.3081 6.4697
v -37.1572 -6.1377 11.7773
v -37.1572 5.3081 11.7773
v -30.0244 -6.1377 11.6113
v -30.0244 5.3081 11.6113
v -69.2549 5.3081 -20.2373
v -73.9004 5.3081 -16.0078
v -73.9004 -6.1377 -16.0078
v -69.2549 -6.1377 -20.2373
v -45.9492 5.3081 -28.1172
v -45.9492 -6.1377 -28.1172
v -38.0693 -6.1377 -30.7705
v -38.0693 5.3081 -30.7705
v -30.0244 -6.1377 -31.4346
v -30.0244 5.3081 -31.4346
v 150.2881 0 23.7207
v 149.127 13.4363 37.1572
v 149.9561 9.5381 27.7021
v 149.9561 -9.5381 27.7021
v 149.127 -13.4363 37.1572
v 148.2979 -9.5381 46.6123
v 147.9658 0 50.5938
v 148.2979 9.5381 46.6123
v -35.499 -9.5381 11.4453
v -35.167 0 7.5479
v -35.499 9.5381 11.4453
v -37.1572 9.5381 30.4395
v -36.3281 13.4363 20.9014
v -36.3281 -13.4363 20.9014
v -37.1572 -9.5381 30.4395
v -37.4893 0 34.3369
v 150.2881 0 -23.7207
v 149.9561 9.5381 -27.7021
v 149.127 13.4363 -37.1572
v 149.127 -13.4363 -37.1572
v 149.9561 -9.5381 -27.7021
v 147.9658 0 -50.5938
v 148.2979 -9.5381 -46.6123
v 148.2979 9.5381 -46.6123
v -37.1572 -9.5381 -30.4395
v -35.499 -9.5381 -11.4453
v -36.3281 -13.4363 -20.9014
v -37.4893 0 -34.3369
v -37.1572 9.5381 -30.4395
v -35.167 0 -7.5479
v -35.499 9.5381 -11.4453
v -36.3281 13.4363 -20.9014
v -135.8564 -6.1377 29.6094
v -135.8564 5.3081 29.6094
v -118.2734 5.3081 29.6094
v -118.2734 -6.1377 29.6094
v -112.0527 -6.1377 29.6094
v -112.0527 5.3081 29.6094
v -92.9766 -6.1377 29.6094
v -92.9766 5.3081 29.6094
v -87.2529 -6.1377 29.6094
v -87.2529 5.3081 29.6094
v -115.4531 5.3081 3.4834
v -150.2881 5.3081 3.4834
v -150.2881 -6.1377 3.4834
v -115.4531 -6.1377 3.4834
v -135.8564 5.3081 -29.9414
v -146.0586 -6.1377 -16.0078
v -135.8564 -6.1377 -29.9414
v -146.0586 5.3081 -16.0078
v -150.2881 -6.1377 -3.8154
v -150.2881 5.3081 -3.8154
v -87.2529 -6.1377 -29.9414
v -73.9004 -6.1377 -16.0078
v -73.9004 5.3081 -16.0078
v -87.2529 5.3081 -29.9414
v -115.4531 5.3081 -3.8154
v -112.0527 5.3081 -0.166
v -112.0527 -6.1377 -0.166
v -115.4531 -6.1377 -3.8154
v -68.8408 -6.1377 -0.166
v -68.8408 5.3081 -0.166
v -62.6201 5.3081 -4.8936
v -62.6201 -6.1377 -4.8936
v -43.1289 -6.1377 -6.8008
v -43.1289 5.3081 -6.8008
v -37.1572 -6.1377 -12.1094
v -37.1572 5.3081 -12.1094
v -30.0244 -6.1377 -11.9434
v -30.0244 5.3081 -11.9434
v -146.0586 5.3081 15.6758
v -135.8564 5.3081 29.6094
v -135.8564 -6.1377 29.6094
v -146.0586 -6.1377 15.6758
v -150.2881 -6.1377 3.4834
v -150.2881 5.3081 3.4834
v -87.2529 5.3081 29.6094
v -73.9004 5.3081 15.6758
v -73.9004 -6.1377 15.6758
v -87.2529 -6.1377 29.6094
v -112.0527 5.3081 -0.166
v -115.4531 5.3081 3.4834
v -115.4531 -6.1377 3.4834
v -112.0527 -6.1377 -0.166
v -118.2734 5.3081 -29.9414
v -135.8564 5.3081 -29.9414
v -135.8564 -6.1377 -29.9414
v -118.2734 -6.1377 -29.9414
v -112.0527 5.3081 -29.9414
v -112.0527 -6.1377 -29.9414
v -92.9766 -6.1377 -29.9414
v -92.9766 5.3081 -29.9414
v -87.2529 5.3081 -29.9414
v -87.2529 -6.1377 -29.9414
v -115.4531 5.3081 -3.8154
v -115.4531 -6.1377 -3.8154
v -150.2881 -6.1377 -3.8154
v -150.2881 5.3081 -3.8154
v -35.499 9.5381 11.4453
v -35.167 0 7.5479
v 150.2881 0 23.7207
v 149.9561 9.5381 27.7021
v -36.3281 13.4363 20.9014
v 149.127 13.4363 37.1572
v -37.1572 9.5381 30.4395
v 148.2979 9.5381 46.6123
v 147.9658 0 50.5938
v -37.4893 0 34.3369
v -37.1572 -9.5381 30.4395
v 148.2979 -9.5381 46.6123
v -36.3281 -13.4363 20.9014
v 149.127 -13.4363 37.1572
v -35.499 -9.5381 11.4453
v 149.9561 -9.5381 27.7021
v -35.167 0 7.5479
v 150.2881 0 23.7207
v -35.499 9.5381 -11.4453
v 150.2881 0 -23.7207
v -35.167 0 -7.5479
v 149.9561 9.5381 -27.7021
v -36.3281 13.4363 -20.9014
v 149.127 13.4363 -37.1572
v -37.1572 9.5381 -30.4395
v 148.2979 9.5381 -46.6123
v -37.4893 0 -34.3369
v 147.9658 0 -50.5938
v -37.1572 -9.5381 -30.4395
v 148.2979 -9.5381 -46.6123
v -36.3281 -13.4363 -20.9014
v 149.127 -13.4363 -37.1572
v 149.9561 -9.5381 -27.7021
v -35.499 -9.5381 -11.4453
v 150.2881 0 -23.7207
v -35.167 0 -7.5479
vt 0.3286 0.2208
vt 0.3175 0.2209
vt 0.318 0.2254
vt 0.3285 0.2248
vt 0.3195 0.2299
vt 0.3316 0.2281
vt 0.3328 0.2391
vt 0.3242 0.243
vt 0.3266 0.2456
vt 0.3356 0.2427
vt 0.3446 0.2454
vt 0.347 0.2427
vt 0.3382 0.2391
vt 0.3513 0.2294
vt 0.3392 0.228
vt 0.3527 0.2249
vt 0.3421 0.2246
vt 0.342 0.2205
vt 0.353 0.2204
vt 0.308 0.2197
vt 0.2969 0.2199
vt 0.2971 0.2239
vt 0.3077 0.2243
vt 0.2941 0.2274
vt 0.3062 0.2288
vt 0.3019 0.2421
vt 0.2932 0.2384
vt 0.2996 0.2447
vt 0.2905 0.242
vt 0.2816 0.245
vt 0.2878 0.2385
vt 0.2792 0.2424
vt 0.2745 0.2293
vt 0.2866 0.2275
vt 0.2835 0.2241
vt 0.273 0.2248
vt 0.2836 0.2201
vt 0.2725 0.2203
vt 0.3191 0.2709
vt 0.3192 0.2809
vt 0.3272 0.2866
vt 0.327 0.2723
vt 0.319 0.2674
vt 0.3339 0.2691
vt 0.3342 0.2889
vt 0.3359 0.2672
vt 0.3269 0.2673
vt 0.3268 0.2565
vt 0.3189 0.2566
vt 0.3266 0.2456
vt 0.3189 0.2533
vt 0.3358 0.2564
vt 0.3356 0.2427
vt 0.3446 0.2454
vt 0.3448 0.2562
vt 0.3526 0.2528
vt 0.3527 0.2561
vt 0.3449 0.267
vt 0.3528 0.2669
vt 0.3529 0.2705
vt 0.345 0.2721
vt 0.338 0.2691
vt 0.3383 0.2888
vt 0.3452 0.2863
vt 0.353 0.2804
vt 0.2822 0.2859
vt 0.2741 0.2703
vt 0.2742 0.2802
vt 0.282 0.2717
vt 0.2891 0.2882
vt 0.2888 0.2685
vt 0.274 0.2668
vt 0.2909 0.2665
vt 0.2819 0.2666
vt 0.2739 0.2559
vt 0.2818 0.2558
vt 0.2738 0.2527
vt 0.2816 0.245
vt 0.2908 0.2557
vt 0.2905 0.242
vt 0.2996 0.2447
vt 0.2997 0.2556
vt 0.3076 0.2522
vt 0.3076 0.2555
vt 0.3078 0.2663
vt 0.2999 0.2664
vt 0.293 0.2684
vt 0.3 0.2715
vt 0.3078 0.2698
vt 0.2933 0.2882
vt 0.308 0.2798
vt 0.3001 0.2857
vt 0.4223 0.3228
vt 0.4259 0.3228
vt 0.4259 0.3163
vt 0.4223 0.3163
vt 0.4084 0.3228
vt 0.4084 0.3163
vt 0.4037 0.3228
vt 0.4037 0.3163
vt 0.3991 0.3163
vt 0.3991 0.3228
vt 0.3684 0.3321
vt 0.3684 0.3256
vt 0.3639 0.3256
vt 0.3639 0.3321
vt 0.3529 0.3256
vt 0.3529 0.3321
vt 0.3483 0.3256
vt 0.3483 0.3321
vt 0.3443 0.3256
vt 0.3443 0.3321
vt 0.4412 0.3248
vt 0.4376 0.3248
vt 0.4376 0.3313
vt 0.4412 0.3313
vt 0.4551 0.3248
vt 0.4551 0.3313
vt 0.4599 0.3313
vt 0.4599 0.3248
vt 0.4644 0.3313
vt 0.4644 0.3248
vt 0.3195 0.3042
vt 0.3237 0.2942
vt 0.3195 0.2984
vt 0.3237 0.3083
vt 0.3295 0.3083
vt 0.3336 0.3042
vt 0.3336 0.2984
vt 0.3295 0.2942
vt 0.2828 0.3071
vt 0.2886 0.3071
vt 0.2928 0.3029
vt 0.2886 0.293
vt 0.2928 0.2971
vt 0.2787 0.3029
vt 0.2787 0.2971
vt 0.2828 0.293
vt 0.2961 0.2983
vt 0.2961 0.3041
vt 0.3003 0.3083
vt 0.3061 0.2941
vt 0.3003 0.2941
vt 0.3102 0.3041
vt 0.3102 0.2983
vt 0.3061 0.3083
vt 0.3404 0.2955
vt 0.3504 0.2996
vt 0.3463 0.2955
vt 0.3363 0.2996
vt 0.3363 0.3054
vt 0.3504 0.3054
vt 0.3463 0.3095
vt 0.3404 0.3095
vt 0.4644 0.3228
vt 0.4644 0.3163
vt 0.4545 0.3163
vt 0.4545 0.3228
vt 0.4509 0.3228
vt 0.4509 0.3163
vt 0.4401 0.3228
vt 0.4401 0.3163
vt 0.4368 0.3228
vt 0.4368 0.3163
vt 0.4219 0.3072
vt 0.4021 0.3072
vt 0.4021 0.3137
vt 0.4219 0.3137
vt 0.4644 0.3072
vt 0.4546 0.3137
vt 0.4644 0.3137
vt 0.4546 0.3072
vt 0.4473 0.3137
vt 0.4473 0.3072
vt 0.4267 0.3313
vt 0.4376 0.3313
vt 0.4376 0.3248
vt 0.4267 0.3248
vt 0.4275 0.3072
vt 0.4247 0.3072
vt 0.4247 0.3137
vt 0.4275 0.3137
vt 0.3684 0.3256
vt 0.3684 0.3321
vt 0.3729 0.3321
vt 0.3729 0.3256
vt 0.384 0.3256
vt 0.384 0.3321
vt 0.3885 0.3256
vt 0.3885 0.3321
vt 0.3925 0.3256
vt 0.3925 0.3321
vt 0.3948 0.3072
vt 0.385 0.3072
vt 0.385 0.3137
vt 0.3948 0.3137
vt 0.4021 0.3137
vt 0.4021 0.3072
vt 0.4368 0.3163
vt 0.4259 0.3163
vt 0.4259 0.3228
vt 0.4368 0.3228
vt 0.4247 0.3072
vt 0.4219 0.3072
vt 0.4219 0.3137
vt 0.4247 0.3137
vt 0.409 0.3248
vt 0.3991 0.3248
vt 0.3991 0.3313
vt 0.409 0.3313
vt 0.4126 0.3248
vt 0.4126 0.3313
vt 0.4234 0.3313
vt 0.4234 0.3248
vt 0.4267 0.3248
vt 0.4267 0.3313
vt 0.4275 0.3072
vt 0.4275 0.3137
vt 0.4473 0.3137
vt 0.4473 0.3072
vt 0.3737 0.1991
vt 0.3678 0.1991
vt 0.3678 0.3047
vt 0.3737 0.3047
vt 0.3795 0.1991
vt 0.3795 0.3047
vt 0.3853 0.1991
vt 0.3853 0.3047
vt 0.3912 0.3047
vt 0.3912 0.1991
vt 0.397 0.1991
vt 0.397 0.3047
vt 0.4029 0.1991
vt 0.4029 0.3047
vt 0.4087 0.1991
vt 0.4087 0.3047
vt 0.4145 0.1991
vt 0.4145 0.3047
vt 0.4601 0.1981
vt 0.4659 0.3037
vt 0.4659 0.1981
vt 0.4601 0.3037
vt 0.4542 0.1981
vt 0.4542 0.3037
vt 0.4484 0.1981
vt 0.4484 0.3037
vt 0.4426 0.1981
vt 0.4426 0.3037
vt 0.4367 0.1981
vt 0.4367 0.3037
vt 0.4309 0.1981
vt 0.4309 0.3037
vt 0.425 0.3037
vt 0.425 0.1981
vt 0.4192 0.3037
vt 0.4192 0.1981
vn 0 1 0
vn 0 1 0
vn 0 1 0
vn 0 1 0
vn 0 1 0
vn 0 1 0
vn 0 1 0
vn 0 1 0
vn 0 1 0
vn 0 1 0
vn 0 1 0
vn 0 1 0
vn 0 1 0
vn 0 1 0
vn 0 1 0
vn 0 1 0
vn 0 1 0
vn 0 1 0
vn 0 1 0
vn 0 -1 0
vn 0 -1 0
vn 0 -1 0
vn 0 -1 0
vn 0 -1 0
vn 0 -1 0
vn 0 -1 0
vn 0 -1 0
vn 0 -1 0
vn 0 -1 0
vn 0 -1 0
vn 0 -1 0
vn 0 -1 0
vn 0 -1 0
vn 0 -1 0
vn 0 -1 0
vn 0 -1 0
vn 0 -1 0
vn 0 -1 0
vn 0 1 0
vn 0 1 0
vn 0 1 0
vn 0 1 0
vn 0 1 0
vn 0 1 0
vn 0 1 0
vn 0 1 0
vn 0 1 0
vn 0 1 0
vn 0 1 0
vn -0.341096 0.8629898 0.3726956
vn 0 1 0
vn 0 1 0
vn 0.3174941 0.8496842 -0.4209922
vn -0.3410833 0.8629577 -0.3727817
vn 0 1 0
vn 0 1 0
vn 0 1 0
vn 0 1 0
vn 0 1 0
vn 0 1 0
vn 0 1 0
vn 0 1 0
vn 0 1 0
vn 0 1 0
vn 0 1 0
vn 0 -1 0
vn 0 -1 0
vn 0 -1 0
vn 0 -1 0
vn 0 -1 0
vn 0 -1 0
vn 0 -1 0
vn 0 -1 0
vn 0 -1 0
vn 0 -1 0
vn 0 -1 0
vn 0 -1 0
vn -0.3410833 -0.8629577 -0.3727817
vn 0 -1 0
vn 0.3174941 -0.8496842 -0.4209922
vn -0.341096 -0.8629898 0.3726956
vn 0 -1 0
vn 0 -1 0
vn 0 -1 0
vn 0 -1 0
vn 0 -1 0
vn 0 -1 0
vn 0 -1 0
vn 0 -1 0
vn 0 -1 0
vn 0 -1 0
vn 0 -1 0
vn -0.5091773 0 0.8606617
vn -0.341096 -0.8629898 0.3726956
vn -0.341096 0.8629898 0.3726956
vn -0.5091773 0 0.8606617
vn -0.3185069 0 0.9479205
vn -0.3185069 0 0.9479205
vn -0.1986923 0 0.9800619
vn -0.1986923 0 0.9800619
vn -0.07960214 0 0.9968267
vn -0.07960214 0 0.9968267
vn 0.3174941 0.8496842 -0.4209922
vn 0.3174941 -0.8496842 -0.4209922
vn 0.363498 0 -0.9315949
vn 0.363498 0 -0.9315949
vn 0.3991868 0 -0.9168696
vn 0.3991868 0 -0.9168696
vn 0.3405142 0 -0.9402394
vn 0.3405142 0 -0.9402394
vn -0.02829999 0 -0.9995995
vn -0.02829999 0 -0.9995995
vn -0.5092211 0 -0.8606358
vn -0.3410833 0.8629577 -0.3727817
vn -0.3410833 -0.8629577 -0.3727817
vn -0.5092211 0 -0.8606358
vn -0.318417 0 -0.9479507
vn -0.318417 0 -0.9479507
vn -0.1986923 0 -0.9800619
vn -0.1986923 0 -0.9800619
vn -0.07960214 0 -0.9968267
vn -0.07960214 0 -0.9968267
vn 0.9961909 0 0.0871992
vn 0.9961821 0 0.08729844
vn 0.9961909 0 0.0871992
vn 0.9961909 0 0.0871992
vn 0.9961821 0 0.08729844
vn 0.9961995 0 0.08709996
vn 0.9961995 0 0.08709996
vn 0.9961995 0 0.08709996
vn -0.9961909 0 -0.0871992
vn -0.9961909 0 -0.0871992
vn -0.9961909 0 -0.0871992
vn -0.9961995 0 -0.08709996
vn -0.9961995 0 -0.08709996
vn -0.9961995 0 -0.08709996
vn -0.9961995 0 -0.08709996
vn -0.9962168 0 -0.08690147
vn 0.9961909 0 -0.0871992
vn 0.9961909 0 -0.0871992
vn 0.9961821 0 -0.08729844
vn 0.9961821 0 -0.08729844
vn 0.9961909 0 -0.0871992
vn 0.9961995 0 -0.08709996
vn 0.9961995 0 -0.08709996
vn 0.9961995 0 -0.08709996
vn -0.9961995 0 0.08709996
vn -0.9961909 0 0.0871992
vn -0.9961995 0 0.08709996
vn -0.9961995 0 0.08709996
vn -0.9961995 0 0.08709996
vn -0.9961995 0 0.08709996
vn -0.9961909 0 0.0871992
vn -0.9961995 0 0.08709996
vn 0 0 1
vn 0 0 1
vn 0 0 1
vn 0 0 1
vn 0 0 1
vn 0 0 1
vn 0 0 1
vn 0 0 1
vn 0 0 1
vn 0 0 1
vn 0 0 -1
vn 0 0 -1
vn 0 0 -1
vn 0 0 -1
vn -0.8065512 0 -0.5911642
vn -0.8849963 0 -0.4655981
vn -0.8065512 0 -0.5911642
vn -0.8849963 0 -0.4655981
vn -0.943941 0 -0.3301143
vn -0.943941 0 -0.3301143
vn 0.7209195 0 -0.6930188
vn 0.7209195 0 -0.6930188
vn 0.7209195 0 -0.6930188
vn 0.7209195 0 -0.6930188
vn -0.7343125 0 0.6788116
vn -0.7343125 0 0.6788116
vn -0.7343125 0 0.6788116
vn -0.7343125 0 0.6788116
vn 0.6022855 0 0.7982808
vn 0.6022855 0 0.7982808
vn 0.363498 0 0.9315949
vn 0.363498 0 0.9315949
vn 0.3991868 0 0.9168696
vn 0.3991868 0 0.9168696
vn 0.3405142 0 0.9402394
vn 0.3405142 0 0.9402394
vn -0.02829999 0 0.9995995
vn -0.02829999 0 0.9995995
vn -0.8849963 0 0.4655981
vn -0.8065163 0 0.5912119
vn -0.8065163 0 0.5912119
vn -0.8849963 0 0.4655981
vn -0.943941 0 0.3301143
vn -0.943941 0 0.3301143
vn 0.7209195 0 0.6930188
vn 0.7209195 0 0.6930188
vn 0.7209195 0 0.6930188
vn 0.7209195 0 0.6930188
vn -0.7343125 0 -0.6788116
vn -0.7343125 0 -0.6788116
vn -0.7343125 0 -0.6788116
vn -0.7343125 0 -0.6788116
vn 0 0 -1
vn 0 0 -1
vn 0 0 -1
vn 0 0 -1
vn 0 0 -1
vn 0 0 -1
vn 0 0 -1
vn 0 0 -1
vn 0 0 -1
vn 0 0 -1
vn 0 0 1
vn 0 0 1
vn 0 0 1
vn 0 0 1
vn 0.06160109 0.7071126 -0.7044125
vn 0.08729844 0 -0.9961821
vn 0.08649585 0 -0.9962522
vn 0.06199957 0.7070951 -0.7043952
vn 0 1 0
vn 0 1 0
vn -0.06160109 0.7071126 0.7044125
vn -0.06280088 0.7070099 0.7044098
vn -0.08729844 0 0.9961821
vn -0.08709996 0 0.9961995
vn -0.06160109 -0.7071126 0.7044125
vn -0.06280088 -0.7070099 0.7044098
vn 0 -1 0
vn 0 -1 0
vn 0.06160109 -0.7071126 -0.7044125
vn 0.06199957 -0.7070951 -0.7043952
vn 0.08729844 0 -0.9961821
vn 0.08649585 0 -0.9962522
vn 0.06160109 0.7071126 0.7044125
vn 0.08649585 0 0.9962522
vn 0.08729844 0 0.9961821
vn 0.06199957 0.7070951 0.7043952
vn 0 1 0
vn 0 1 0
vn -0.06160109 0.7071126 -0.7044125
vn -0.06280088 0.7070099 -0.7044098
vn -0.08709996 0 -0.9961995
vn -0.08729844 0 -0.9961821
vn -0.06160109 -0.7071126 -0.7044125
vn -0.06280088 -0.7070099 -0.7044098
vn 0 -1 0
vn 0 -1 0
vn 0.06199957 -0.7070951 0.7043952
vn 0.06160109 -0.7071126 0.7044125
vn 0.08649585 0 0.9962522
vn 0.08729844 0 0.9961821
g ____490_0
f 3/3/3 2/2/2 1/1/1
f 4/4/4 3/3/3 1/1/1
f 3/3/3 4/4/4 5/5/5
f 4/4/4 6/6/6 5/5/5
f 6/6/6 7/7/7 5/5/5
f 7/7/7 8/8/8 5/5/5
f 9/9/9 8/8/8 7/7/7
f 10/10/10 9/9/9 7/7/7
f 12/12/12 11/11/11 10/10/10
f 13/13/13 12/12/12 10/10/10
f 14/14/14 12/12/12 13/13/13
f 15/15/15 14/14/14 13/13/13
f 14/14/14 15/15/15 16/16/16
f 15/15/15 17/17/17 16/16/16
f 17/17/17 18/18/18 16/16/16
f 18/18/18 19/19/19 16/16/16
f 22/22/22 21/21/21 20/20/20
f 23/23/23 22/22/22 20/20/20
f 22/22/22 23/23/23 24/24/24
f 23/23/23 25/25/25 24/24/24
f 25/25/25 26/26/26 24/24/24
f 26/26/26 27/27/27 24/24/24
f 26/26/26 28/28/28 27/27/27
f 28/28/28 29/29/29 27/27/27
f 31/31/31 29/29/29 30/30/30
f 32/32/32 31/31/31 30/30/30
f 32/32/32 33/33/33 31/31/31
f 33/33/33 34/34/34 31/31/31
f 35/35/35 34/34/34 33/33/33
f 36/36/36 35/35/35 33/33/33
f 35/35/35 36/36/36 37/37/37
f 36/36/36 38/38/38 37/37/37
f 41/41/41 40/40/40 39/39/39
f 42/42/42 41/41/41 39/39/39
f 42/42/42 39/39/39 43/43/43
f 41/41/41 42/42/42 44/44/44
f 45/45/45 41/41/41 44/44/44
f 44/44/44 42/42/42 46/46/46
f 47/47/47 42/42/42 43/43/43
f 42/42/42 47/47/47 46/46/46
f 48/48/48 47/47/47 43/43/43
f 46/46/46 47/47/47 48/48/48
f 49/49/49 48/48/48 43/43/43
f 48/48/48 49/49/49 50/50/50
f 49/49/49 51/51/51 50/50/50
f 48/48/48 50/50/50 52/52/52
f 52/52/52 46/46/46 48/48/48
f 50/50/50 53/53/53 52/52/52
f 52/52/52 53/53/53 54/54/54
f 55/55/55 52/52/52 54/54/54
f 54/54/54 56/56/56 55/55/55
f 56/56/56 57/57/57 55/55/55
f 55/55/55 58/58/58 52/52/52
f 55/55/55 57/57/57 58/58/58
f 58/58/58 46/46/46 52/52/52
f 57/57/57 59/59/59 58/58/58
f 58/58/58 59/59/59 60/60/60
f 46/46/46 58/58/58 61/61/61
f 61/61/61 58/58/58 60/60/60
f 62/62/62 46/46/46 61/61/61
f 63/63/63 62/62/62 61/61/61
f 64/64/64 63/63/63 61/61/61
f 61/61/61 60/60/60 64/64/64
f 60/60/60 65/65/65 64/64/64
f 68/68/68 67/67/67 66/66/66
f 67/67/67 69/69/69 66/66/66
f 66/66/66 69/69/69 70/70/70
f 69/69/69 71/71/71 70/70/70
f 67/67/67 72/72/72 69/69/69
f 71/71/71 69/69/69 73/73/73
f 72/72/72 74/74/74 69/69/69
f 69/69/69 74/74/74 73/73/73
f 72/72/72 75/75/75 74/74/74
f 75/75/75 76/76/76 74/74/74
f 74/74/74 76/76/76 73/73/73
f 76/76/76 75/75/75 77/77/77
f 78/78/78 76/76/76 77/77/77
f 76/76/76 78/78/78 79/79/79
f 76/76/76 79/79/79 73/73/73
f 78/78/78 80/80/80 79/79/79
f 79/79/79 80/80/80 81/81/81
f 82/82/82 79/79/79 81/81/81
f 73/73/73 79/79/79 82/82/82
f 81/81/81 83/83/83 82/82/82
f 83/83/83 84/84/84 82/82/82
f 82/82/82 84/84/84 85/85/85
f 86/86/86 73/73/73 82/82/82
f 86/86/86 82/82/82 85/85/85
f 87/87/87 73/73/73 86/86/86
f 86/86/86 85/85/85 88/88/88
f 88/88/88 87/87/87 86/86/86
f 85/85/85 89/89/89 88/88/88
f 90/90/90 87/87/87 88/88/88
f 88/88/88 89/89/89 91/91/91
f 92/92/92 90/90/90 88/88/88
f 92/92/92 88/88/88 91/91/91
f 95/95/95 94/94/94 93/93/93
f 96/96/96 95/95/95 93/93/93
f 93/93/93 97/97/97 96/96/96
f 97/97/97 98/98/98 96/96/96
f 98/98/98 97/97/97 99/99/99
f 100/100/100 98/98/98 99/99/99
f 100/100/100 99/99/99 101/101/101
f 99/99/99 102/102/102 101/101/101
f 105/105/105 104/104/104 103/103/103
f 106/106/106 105/105/105 103/103/103
f 107/107/107 105/105/105 106/106/106
f 108/108/108 107/107/107 106/106/106
f 107/107/107 108/108/108 109/109/109
f 108/108/108 110/110/110 109/109/109
f 109/109/109 110/110/110 111/111/111
f 110/110/110 112/112/112 111/111/111
f 115/115/115 114/114/114 113/113/113
f 116/116/116 115/115/115 113/113/113
f 113/113/113 117/117/117 116/116/116
f 117/117/117 118/118/118 116/116/116
f 118/118/118 117/117/117 119/119/119
f 117/117/117 120/120/120 119/119/119
f 119/119/119 120/120/120 121/121/121
f 120/120/120 122/122/122 121/121/121
f 125/125/125 124/124/124 123/123/123
f 126/126/126 123/123/123 124/124/124
f 127/127/127 126/126/126 124/124/124
f 128/128/128 127/127/127 124/124/124
f 129/129/129 128/128/128 124/124/124
f 129/129/129 124/124/124 130/130/130
f 133/133/133 132/132/132 131/131/131
f 134/134/134 133/133/133 131/131/131
f 133/133/133 134/134/134 135/135/135
f 131/131/131 136/136/136 134/134/134
f 136/136/136 137/137/137 134/134/134
f 138/138/138 134/134/134 137/137/137
f 141/141/141 140/140/140 139/139/139
f 142/142/142 141/141/141 139/139/139
f 143/143/143 142/142/142 139/139/139
f 141/141/141 142/142/142 144/144/144
f 142/142/142 145/145/145 144/144/144
f 141/141/141 144/144/144 146/146/146
f 149/149/149 148/148/148 147/147/147
f 147/147/147 148/148/148 150/150/150
f 148/148/148 151/151/151 150/150/150
f 151/151/151 148/148/148 152/152/152
f 153/153/153 151/151/151 152/152/152
f 151/151/151 153/153/153 154/154/154
f 157/157/157 156/156/156 155/155/155
f 158/158/158 157/157/157 155/155/155
f 157/157/157 158/158/158 159/159/159
f 160/160/160 157/157/157 159/159/159
f 159/159/159 161/161/161 160/160/160
f 161/161/161 162/162/162 160/160/160
f 161/161/161 163/163/163 162/162/162
f 163/163/163 164/164/164 162/162/162
f 167/167/167 166/166/166 165/165/165
f 168/168/168 167/167/167 165/165/165
f 171/171/171 170/170/170 169/169/169
f 170/170/170 172/172/172 169/169/169
f 172/172/172 170/170/170 173/173/173
f 174/174/174 172/172/172 173/173/173
f 177/177/177 176/176/176 175/175/175
f 178/178/178 177/177/177 175/175/175
f 181/181/181 180/180/180 179/179/179
f 182/182/182 181/181/181 179/179/179
f 185/185/185 184/184/184 183/183/183
f 186/186/186 185/185/185 183/183/183
f 186/186/186 187/187/187 185/185/185
f 187/187/187 188/188/188 185/185/185
f 187/187/187 189/189/189 188/188/188
f 189/189/189 190/190/190 188/188/188
f 189/189/189 191/191/191 190/190/190
f 191/191/191 192/192/192 190/190/190
f 195/195/195 194/194/194 193/193/193
f 196/196/196 195/195/195 193/193/193
f 196/196/196 193/193/193 197/197/197
f 193/193/193 198/198/198 197/197/197
f 201/201/201 200/200/200 199/199/199
f 202/202/202 201/201/201 199/199/199
f 205/205/205 204/204/204 203/203/203
f 206/206/206 205/205/205 203/203/203
f 209/209/209 208/208/208 207/207/207
f 210/210/210 209/209/209 207/207/207
f 210/210/210 207/207/207 211/211/211
f 212/212/212 210/210/210 211/211/211
f 212/212/212 211/211/211 213/213/213
f 211/211/211 214/214/214 213/213/213
f 214/214/214 215/215/215 213/213/213
f 215/215/215 216/216/216 213/213/213
f 219/219/219 218/218/218 217/217/217
f 220/220/220 219/219/219 217/217/217
f 223/223/223 222/222/222 221/221/221
f 224/224/224 223/223/223 221/221/221
f 221/221/221 225/225/225 224/224/224
f 225/225/225 226/226/226 224/224/224
f 226/226/226 225/225/225 227/227/227
f 228/228/228 226/226/226 227/227/227
f 229/229/229 228/228/228 227/227/227
f 230/230/230 229/229/229 227/227/227
f 230/230/230 231/231/231 229/229/229
f 231/231/231 232/232/232 229/229/229
f 231/231/231 233/233/233 232/232/232
f 233/233/233 234/234/234 232/232/232
f 234/234/234 233/233/233 235/235/235
f 236/236/236 234/234/234 235/235/235
f 236/236/236 235/235/235 237/237/237
f 238/238/238 236/236/236 237/237/237
f 241/241/241 240/240/240 239/239/239
f 240/240/240 242/242/242 239/239/239
f 239/239/239 242/242/242 243/243/243
f 242/242/242 244/244/244 243/243/243
f 245/245/245 243/243/243 244/244/244
f 246/246/246 245/245/245 244/244/244
f 247/247/247 245/245/245 246/246/246
f 248/248/248 247/247/247 246/246/246
f 247/247/247 248/248/248 249/249/249
f 248/248/248 250/250/250 249/249/249
f 249/249/249 250/250/250 251/251/251
f 250/250/250 252/252/252 251/251/251
f 251/251/251 252/252/252 253/253/253
f 254/254/254 251/251/251 253/253/253
f 254/254/254 253/253/253 255/255/255
f 256/256/256 254/254/254 255/255/255
