g Album_Stellar
v -0.1367045 0.0322193 0.1475173
v -0.1407581 0.02876094 0.1473436
v -0.1395036 0.03165719 0.1474862
v 0.1407573 0.03220985 0.1473964
v -0.1407581 0.003580387 0.1473436
v 0.1407573 0.000131469 0.1473964
v -0.1367045 0.0001220168 0.1475173
v -0.1395036 0.0006841364 0.1474862
v 0.1407579 0.0001299265 -0.1473956
v 0.1407573 0.03220985 0.1473964
v 0.1407579 0.03221148 -0.1473956
v 0.1407573 0.000131469 0.1473964
v -0.1367045 0.0001198264 -0.1475173
v -0.1407581 0.003578668 -0.1473606
v -0.1395036 0.000682012 -0.1474892
v 0.1407579 0.0001299265 -0.1473956
v -0.1407581 0.02876274 -0.1473605
v 0.1407579 0.03221148 -0.1473956
v -0.1367045 0.03222157 -0.1475172
v -0.1395036 0.0316594 -0.1474892
v -0.1367045 0.0322193 0.1475173
v 0.1407579 0.03221148 -0.1473956
v 0.1407573 0.03220985 0.1473964
v -0.1367045 0.03222157 -0.1475172
v -0.1395036 0.03165719 0.1474862
v -0.1395036 0.0316594 -0.1474892
v -0.1407581 0.02876094 0.1473436
v -0.1395036 0.0316594 -0.1474892
v -0.1395036 0.03165719 0.1474862
v -0.1407581 0.02876274 -0.1473605
v -0.1407581 0.003580387 0.1473436
v -0.1407581 0.003578668 -0.1473606
v -0.1395036 0.0006841364 0.1474862
v -0.1395036 0.000682012 -0.1474892
v -0.1367045 0.0001220168 0.1475173
v -0.1395036 0.000682012 -0.1474892
v -0.1395036 0.0006841364 0.1474862
v -0.1367045 0.0001198264 -0.1475173
v 0.1407573 0.000131469 0.1473964
v 0.1407579 0.0001299265 -0.1473956
vt 0.7615331 0.3511809
vt 0.7588213 0.3543553
vt 0.7610921 0.3533728
vt 0.761522 0.1338853
vt 0.7391008 0.3543553
vt 0.7363997 0.1338855
vt 0.7363889 0.3511811
vt 0.7368297 0.3533731
vt 0.8250836 0.1225037
vt 0.8502071 0.3533712
vt 0.8502084 0.1225037
vt 0.8250849 0.3533712
vt 0.9141074 0.1420123
vt 0.916819 0.1388379
vt 0.9145482 0.1398202
vt 0.9141183 0.3593081
vt 0.9365423 0.1388379
vt 0.939243 0.3593084
vt 0.939254 0.1420123
vt 0.9388131 0.1398204
vt 0.843549 0.8025075
vt 0.6351019 0.9986227
vt 0.8434648 0.9986209
vt 0.6350147 0.802509
vt 0.8435269 0.8004898
vt 0.6350345 0.8004913
vt 0.843426 0.7982593
vt 0.6350345 0.8004913
vt 0.8435269 0.8004898
vt 0.6351254 0.7982606
vt 0.843426 0.7804618
vt 0.6351254 0.7804605
vt 0.8435269 0.7782313
vt 0.6350345 0.7782296
vt 0.843549 0.7762135
vt 0.6350345 0.7782296
vt 0.8435269 0.7782313
vt 0.6350147 0.7762117
vt 0.843465 0.5800999
vt 0.6351021 0.5800977
vn 0.0001268124 -0.05031449 0.9987335
vn -0.0002221094 -0.02098512 0.9997798
vn -0.00134133 -0.04859789 0.9988175
vn -0.0001827488 -0.0003966122 0.9999999
vn -0.0002220946 0.02098512 0.9997798
vn -0.0001827488 0.0003966115 0.9999999
vn 0.0001268272 0.05031442 0.9987335
vn -0.001341243 0.04859791 0.9988175
vn 1 0 2.102799E-06
vn 1 0 2.102799E-06
vn 1 0 2.102799E-06
vn 1 0 2.102799E-06
vn 0.0001464065 0.04544773 -0.9989667
vn -0.0001683485 0.01894568 -0.9998205
vn -0.001243069 0.0438226 -0.9990386
vn -0.000120103 0.0003583917 -1
vn -0.000163391 -0.01894305 -0.9998206
vn -0.0001201073 -0.0003582186 -1
vn 0.0001513916 -0.04543451 -0.9989673
vn -0.001212896 -0.04383884 -0.9990379
vn -0.09858265 0.9951289 7.077649E-06
vn 3.525816E-05 1 6.638967E-06
vn 3.405584E-05 1 5.507787E-06
vn -0.0986243 0.9951248 7.565504E-06
vn -0.6215219 0.7833967 5.982837E-06
vn -0.6222777 0.7827966 5.579114E-06
vn -0.9785882 0.2058281 1.545284E-06
vn -0.6222777 0.7827966 5.579114E-06
vn -0.6215219 0.7833967 5.982837E-06
vn -0.9786517 0.205526 1.258683E-06
vn -0.9785882 -0.2058281 1.200587E-06
vn -0.9786516 -0.2055263 1.478311E-06
vn -0.6215227 -0.7833961 5.342589E-06
vn -0.6222773 -0.782797 5.761855E-06
vn -0.09858397 -0.9951288 7.279583E-06
vn -0.6222773 -0.782797 5.761855E-06
vn -0.6215227 -0.7833961 5.342589E-06
vn -0.09862752 -0.9951244 6.814486E-06
vn 3.518895E-05 -1 6.371245E-06
vn 3.639919E-05 -1 5.232621E-06
g Album_Stellar_0
f 3/3/3 2/2/2 1/1/1
f 4/4/4 1/1/1 2/2/2
f 2/2/2 5/5/5 4/4/4
f 6/6/6 4/4/4 5/5/5
f 6/6/6 5/5/5 7/7/7
f 8/8/8 7/7/7 5/5/5
f 11/11/11 10/10/10 9/9/9
f 12/12/12 9/9/9 10/10/10
f 15/15/15 14/14/14 13/13/13
f 16/16/16 13/13/13 14/14/14
f 14/14/14 17/17/17 16/16/16
f 18/18/18 16/16/16 17/17/17
f 18/18/18 17/17/17 19/19/19
f 20/20/20 19/19/19 17/17/17
f 23/23/23 22/22/22 21/21/21
f 24/24/24 21/21/21 22/22/22
f 21/21/21 24/24/24 25/25/25
f 26/26/26 25/25/25 24/24/24
f 29/29/29 28/28/28 27/27/27
f 30/30/30 27/27/27 28/28/28
f 27/27/27 30/30/30 31/31/31
f 32/32/32 31/31/31 30/30/30
f 31/31/31 32/32/32 33/33/33
f 34/34/34 33/33/33 32/32/32
f 37/37/37 36/36/36 35/35/35
f 38/38/38 35/35/35 36/36/36
f 35/35/35 38/38/38 39/39/39
f 40/40/40 39/39/39 38/38/38
