g Arm_Strap_L
v -0.002249641 -0.01105591 0.02693574
v -0.008078098 -0.007377167 0.02693574
v -0.01065926 -0.0002755737 0.02693574
v -0.008078098 0.006826019 0.02693574
v -0.002249641 0.01050476 0.02693574
v 0.01644341 0.01050491 0.02693574
v 0.02178755 -0.01105576 0.02693574
v 0.02646864 0.01247711 0.02693574
v 0.01779701 0.01606918 0.02693574
v 0.03316179 0.03906479 0.02693574
v 0.03979919 0.03242737 0.02693574
v 0.05615703 0.05442978 0.02693574
v 0.0597496 0.04575775 0.02693574
v 0.08328184 0.05982529 0.02693574
v 0.08328184 0.05043869 0.02693574
v 0.1104074 0.05442978 0.02693574
v 0.1068156 0.04575775 0.02693574
v 0.1334027 0.03906463 0.02693574
v 0.1267653 0.03242737 0.02693574
v 0.1487682 0.01606918 0.02693574
v 0.1400958 0.01247711 0.02693574
v 0.1534447 -0.002734527 0.02693574
v 0.1447769 -0.01105576 0.02693574
v 0.1812318 -0.01105576 0.02693574
v 0.1739115 -0.002734527 0.02693574
v 0.1739115 0.02254913 0.02693574
v 0.1812318 0.02254913 0.02693574
v 0.01779701 0.01606918 -0.02693403
v 0.01644341 0.01050491 0.02693574
v 0.01644341 0.01050491 -0.02693403
v 0.01779701 0.01606918 0.02693574
v 0.03316179 0.03906479 0.02693574
v 0.03316179 0.03906479 -0.02693403
v 0.05615703 0.05442978 0.02693574
v 0.05615703 0.05442978 -0.02693403
v 0.08328184 0.05982529 0.02693574
v 0.08328184 0.05982529 -0.02693403
v 0.1739115 -0.002734527 -0.02693403
v 0.1534447 -0.002734527 0.02693574
v 0.1534447 -0.002734527 -0.02693403
v 0.1739115 -0.002734527 0.02693574
v -0.01065926 -0.0002755737 0.02693574
v -0.008078098 -0.007377167 -0.02693403
v -0.01065926 -0.0002755737 -0.02693403
v -0.008078098 -0.007377167 0.02693574
v -0.002249641 -0.01105591 -0.02693403
v -0.002249641 -0.01105591 0.02693574
v 0.1739115 0.02254913 -0.02693403
v 0.1739115 -0.002734527 0.02693574
v 0.1739115 -0.002734527 -0.02693403
v 0.1739115 0.02254913 0.02693574
v 0.1447769 -0.01105576 -0.02693403
v 0.1400958 0.01247711 0.02693574
v 0.1447769 -0.01105576 0.02693574
v 0.1400958 0.01247711 -0.02693403
v 0.1267653 0.03242737 -0.02693403
v 0.1267653 0.03242737 0.02693574
v 0.1068156 0.04575775 0.02693574
v 0.1068156 0.04575775 -0.02693403
v 0.1068156 0.04575775 -0.02693403
v 0.08328184 0.05043869 0.02693574
v 0.1068156 0.04575775 0.02693574
v 0.08328184 0.05043869 -0.02693403
v 0.0597496 0.04575775 0.02693574
v 0.0597496 0.04575775 -0.02693403
v 0.03979919 0.03242737 0.02693574
v 0.03979919 0.03242737 -0.02693403
v 0.02646864 0.01247711 0.02693574
v 0.02646864 0.01247711 -0.02693403
v 0.02178755 -0.01105576 -0.02693403
v 0.02178755 -0.01105576 0.02693574
v -0.01065926 -0.0002755737 -0.02693403
v -0.002249641 0.01050476 -0.02693403
v -0.008078098 0.006826019 -0.02693403
v -0.002249641 -0.01105591 -0.02693403
v -0.008078098 -0.007377167 -0.02693403
v 0.02178755 -0.01105576 -0.02693403
v 0.01644341 0.01050491 -0.02693403
v 0.01779701 0.01606918 -0.02693403
v 0.02646864 0.01247711 -0.02693403
v 0.03316179 0.03906479 -0.02693403
v 0.03979919 0.03242737 -0.02693403
v 0.05615703 0.05442978 -0.02693403
v 0.0597496 0.04575775 -0.02693403
v 0.08328184 0.05982529 -0.02693403
v 0.08328184 0.05043869 -0.02693403
v 0.1104074 0.05442978 -0.02693403
v 0.1068156 0.04575775 -0.02693403
v 0.1334027 0.03906463 -0.02693403
v 0.1267653 0.03242737 -0.02693403
v 0.1487682 0.01606918 -0.02693403
v 0.1400958 0.01247711 -0.02693403
v 0.1534447 -0.002734527 -0.02693403
v 0.1447769 -0.01105576 -0.02693403
v 0.1739115 -0.002734527 -0.02693403
v 0.1812318 -0.01105576 -0.02693403
v 0.1812318 0.02254913 -0.02693403
v 0.1739115 0.02254913 -0.02693403
v -0.008078098 0.006826019 -0.02693403
v -0.01065926 -0.0002755737 0.02693574
v -0.01065926 -0.0002755737 -0.02693403
v -0.008078098 0.006826019 0.02693574
v -0.002249641 0.01050476 -0.02693403
v -0.002249641 0.01050476 0.02693574
v 0.01644341 0.01050491 0.02693574
v 0.01644341 0.01050491 -0.02693403
v 0.1812318 0.02254913 -0.02693403
v 0.1739115 0.02254913 0.02693574
v 0.1739115 0.02254913 -0.02693403
v 0.1812318 0.02254913 0.02693574
v 0.1447769 -0.01105576 0.02693574
v 0.1812318 -0.01105576 -0.02693403
v 0.1447769 -0.01105576 -0.02693403
v 0.1812318 -0.01105576 0.02693574
v 0.1812318 0.02254913 0.02693574
v 0.1812318 -0.01105576 -0.02693403
v 0.1812318 -0.01105576 0.02693574
v 0.1812318 0.02254913 -0.02693403
v 0.1534447 -0.002734527 0.02693574
v 0.1487682 0.01606918 -0.02693403
v 0.1534447 -0.002734527 -0.02693403
v 0.1487682 0.01606918 0.02693574
v 0.1334027 0.03906463 -0.02693403
v 0.1334027 0.03906463 0.02693574
v 0.1104074 0.05442978 -0.02693403
v 0.1104074 0.05442978 0.02693574
v 0.08328184 0.05982529 -0.02693403
v 0.08328184 0.05982529 0.02693574
v 0.02178755 -0.01105576 -0.02693403
v -0.002249641 -0.01105591 0.02693574
v 0.02178755 -0.01105576 0.02693574
v -0.002249641 -0.01105591 -0.02693403
vt 0.2408497 0.1295925
vt 0.2404958 0.129032
vt 0.2398131 0.1287838
vt 0.2391303 0.1290319
vt 0.2387765 0.1295925
vt 0.2387765 0.1313899
vt 0.2408497 0.1319035
vt 0.2385868 0.1323534
vt 0.2382416 0.1315196
vt 0.2360305 0.1329971
vt 0.2366687 0.1336351
vt 0.2345533 0.135208
vt 0.235387 0.1355532
vt 0.2340345 0.1378161
vt 0.2349371 0.1378161
vt 0.2345533 0.1404241
vt 0.235387 0.1400785
vt 0.2360307 0.1426349
vt 0.2366688 0.1419966
vt 0.2382416 0.1441123
vt 0.2385868 0.1432782
vt 0.2400495 0.1445618
vt 0.2408497 0.1437284
vt 0.2408497 0.1472336
vt 0.2400495 0.1465295
vt 0.2376187 0.1465295
vt 0.2376187 0.1472336
vt 0.3260899 0.2101946
vt 0.3255617 0.2052202
vt 0.3255617 0.2101946
vt 0.3260899 0.2052202
vt 0.3286432 0.2052202
vt 0.3286432 0.2101946
vt 0.3311969 0.2052202
vt 0.3311969 0.2101946
vt 0.3337502 0.2052202
vt 0.3337502 0.2101946
vt 0.345556 0.2101719
vt 0.3436662 0.2051975
vt 0.3436662 0.2101719
vt 0.345556 0.2051975
vt 0.3225019 0.2052202
vt 0.3218042 0.2101946
vt 0.3225019 0.2101946
vt 0.3218042 0.2052202
vt 0.3211677 0.2101946
vt 0.3211677 0.2052202
vt 0.3484509 0.2101946
vt 0.3461161 0.2052202
vt 0.3461161 0.2101946
vt 0.3484509 0.2052202
vt 0.3001044 0.210138
vt 0.3023198 0.2051635
vt 0.3001044 0.2051635
vt 0.3023198 0.210138
vt 0.3045352 0.210138
vt 0.3045352 0.2051635
vt 0.3067507 0.2051635
vt 0.3067507 0.210138
vt 0.3067507 0.210138
vt 0.3089663 0.2051635
vt 0.3067507 0.2051635
vt 0.3089663 0.210138
vt 0.3111815 0.2051635
vt 0.3111815 0.210138
vt 0.3133971 0.2051635
vt 0.3133971 0.210138
vt 0.3156123 0.2051635
vt 0.3156123 0.210138
vt 0.3178279 0.210138
vt 0.3178279 0.2051635
vt 0.2349449 0.1468017
vt 0.2339181 0.1460672
vt 0.23428 0.1465907
vt 0.2359073 0.1459844
vt 0.2355901 0.1465363
vt 0.2358147 0.1437667
vt 0.2338461 0.1443423
vt 0.2333269 0.1442383
vt 0.2336254 0.1434245
vt 0.2311466 0.1429074
vt 0.2317336 0.1422703
vt 0.2296421 0.1408426
vt 0.2304281 0.1404796
vt 0.2290454 0.1383588
vt 0.2299099 0.1383253
vt 0.2294518 0.1358362
vt 0.2302614 0.1361393
vt 0.2308046 0.1336674
vt 0.2314329 0.1342618
vt 0.2328963 0.1321968
vt 0.2332434 0.1329916
vt 0.2346304 0.1317388
vt 0.2354063 0.1325359
vt 0.2346238 0.1298473
vt 0.2353956 0.1291709
vt 0.2322911 0.1291697
vt 0.2322901 0.1298461
vt 0.3231996 0.2101946
vt 0.3225019 0.2052202
vt 0.3225019 0.2101946
vt 0.3231996 0.2052202
vt 0.3238359 0.2101946
vt 0.3238359 0.2052202
vt 0.3255617 0.2052202
vt 0.3255617 0.2101946
vt 0.349831 0.2101725
vt 0.3491549 0.2051983
vt 0.3491549 0.2101725
vt 0.349831 0.2051983
vt 0.3001044 0.2051635
vt 0.2967378 0.2101379
vt 0.3001044 0.210138
vt 0.2967378 0.2051635
vt 0.3508293 0.2053517
vt 0.3539326 0.2103259
vt 0.3539326 0.2053517
vt 0.3508293 0.2103259
vt 0.3431998 0.2052202
vt 0.3414108 0.2101946
vt 0.3431998 0.2101946
vt 0.3414108 0.2052202
vt 0.3388572 0.2101946
vt 0.3388572 0.2052202
vt 0.3363037 0.2101946
vt 0.3363037 0.2052202
vt 0.3337502 0.2101946
vt 0.3337502 0.2052202
vt 0.3178279 0.210138
vt 0.3200475 0.2051635
vt 0.3178279 0.2051635
vt 0.3200475 0.210138
vn 0 0 1
vn 0 0 1
vn 0 0 1
vn 0 0 1
vn 0 0 1
vn 0 0 1
vn 0 0 1
vn 0 0 1
vn 0 0 1
vn 0 0 1
vn 0 0 1
vn 0 0 1
vn 0 0 1
vn 0 0 1
vn 0 0 1
vn 0 0 1
vn 0 0 1
vn 0 0 1
vn 0 0 1
vn 0 0 1
vn 0 0 1
vn 0 0 1
vn 0 0 1
vn 0 0 1
vn 0 0 1
vn 0 0 1
vn 0 0 1
vn -0.9155855 0.4021232 0
vn -0.9716622 0.236374 0
vn -0.9716622 0.236374 0
vn -0.9155855 0.4021232 0
vn -0.7071115 0.7071019 0
vn -0.7071116 0.7071019 0
vn -0.382685 0.9238788 0
vn -0.382685 0.9238788 0
vn -2.778345E-06 1 0
vn -2.766255E-06 1 0
vn 0 1 0
vn 0 1 0
vn 0 1 0
vn 0 1 0
vn -1 0 0
vn -0.7787064 -0.6273885 0
vn -1 0 0
vn -0.7787064 -0.6273884 0
vn -0.277805 -0.9606375 0
vn -0.277805 -0.9606375 0
vn -1 0 0
vn -1 0 0
vn -1 0 0
vn -1 0 0
vn -0.9807843 -0.1950949 0
vn -0.9238771 -0.3826894 0
vn -0.9807843 -0.1950949 0
vn -0.9238771 -0.3826894 0
vn -0.7071096 -0.7071039 0
vn -0.7071096 -0.7071039 0
vn -0.3826867 -0.9238782 0
vn -0.3826867 -0.9238782 0
vn -0.3826867 -0.9238782 0
vn 6.277269E-06 -1 0
vn -0.3826867 -0.9238782 0
vn 6.282105E-06 -1 0
vn 0.3826842 -0.9238792 0
vn 0.3826842 -0.9238792 0
vn 0.7071034 -0.7071101 0
vn 0.7071034 -0.7071101 0
vn 0.9238772 -0.3826891 0
vn 0.9238772 -0.3826891 0
vn 0.9807843 -0.1950949 0
vn 0.9807843 -0.1950949 0
vn 0 0 -1
vn 0 0 -1
vn 0 0 -1
vn 0 0 -1
vn 0 0 -1
vn 0 0 -1
vn 0 0 -1
vn 0 0 -1
vn 0 0 -1
vn 0 0 -1
vn 0 0 -1
vn 0 0 -1
vn 0 0 -1
vn 0 0 -1
vn 0 0 -1
vn 0 0 -1
vn 0 0 -1
vn 0 0 -1
vn 0 0 -1
vn 0 0 -1
vn 0 0 -1
vn 0 0 -1
vn 0 0 -1
vn 0 0 -1
vn 0 0 -1
vn 0 0 -1
vn 0 0 -1
vn -0.7787064 0.6273885 0
vn -1 0 0
vn -1 0 0
vn -0.7787064 0.6273884 0
vn -0.2778119 0.9606355 0
vn -0.2778119 0.9606355 0
vn -8.162816E-06 1 0
vn -8.162816E-06 1 0
vn 0 1 0
vn 0 1 0
vn 0 1 0
vn 0 1 0
vn 0 -1 0
vn 0 -1 0
vn 0 -1 0
vn 0 -1 0
vn 1 0 0
vn 1 0 0
vn 1 0 0
vn 1 0 0
vn 0.9704382 0.2413496 0
vn 0.914547 0.4044797 0
vn 0.9704382 0.2413496 0
vn 0.914547 0.4044797 0
vn 0.7071038 0.7071097 0
vn 0.7071038 0.7071097 0
vn 0.3826846 0.923879 0
vn 0.3826846 0.923879 0
vn -2.766255E-06 1 0
vn -2.778345E-06 1 0
vn 6.347992E-06 -1 0
vn -0.277805 -0.9606375 0
vn 6.347992E-06 -1 0
vn -0.277805 -0.9606375 0
g Arm_Strap_L_0
f 3/3/3 2/2/2 1/1/1
f 4/4/4 3/3/3 1/1/1
f 5/5/5 4/4/4 1/1/1
f 5/5/5 1/1/1 6/6/6
f 7/7/7 6/6/6 1/1/1
f 7/7/7 8/8/8 6/6/6
f 9/9/9 6/6/6 8/8/8
f 9/9/9 8/8/8 10/10/10
f 11/11/11 10/10/10 8/8/8
f 10/10/10 11/11/11 12/12/12
f 13/13/13 12/12/12 11/11/11
f 12/12/12 13/13/13 14/14/14
f 15/15/15 14/14/14 13/13/13
f 14/14/14 15/15/15 16/16/16
f 17/17/17 16/16/16 15/15/15
f 16/16/16 17/17/17 18/18/18
f 19/19/19 18/18/18 17/17/17
f 18/18/18 19/19/19 20/20/20
f 21/21/21 20/20/20 19/19/19
f 20/20/20 21/21/21 22/22/22
f 23/23/23 22/22/22 21/21/21
f 23/23/23 24/24/24 22/22/22
f 25/25/25 22/22/22 24/24/24
f 25/25/25 24/24/24 26/26/26
f 27/27/27 26/26/26 24/24/24
f 30/30/30 29/29/29 28/28/28
f 31/31/31 28/28/28 29/29/29
f 31/31/31 32/32/32 28/28/28
f 33/33/33 28/28/28 32/32/32
f 32/32/32 34/34/34 33/33/33
f 35/35/35 33/33/33 34/34/34
f 34/34/34 36/36/36 35/35/35
f 37/37/37 35/35/35 36/36/36
f 40/40/40 39/39/39 38/38/38
f 41/41/41 38/38/38 39/39/39
f 44/44/44 43/43/43 42/42/42
f 45/45/45 42/42/42 43/43/43
f 43/43/43 46/46/46 45/45/45
f 47/47/47 45/45/45 46/46/46
f 50/50/50 49/49/49 48/48/48
f 51/51/51 48/48/48 49/49/49
f 54/54/54 53/53/53 52/52/52
f 55/55/55 52/52/52 53/53/53
f 55/55/55 53/53/53 56/56/56
f 57/57/57 56/56/56 53/53/53
f 57/57/57 58/58/58 56/56/56
f 59/59/59 56/56/56 58/58/58
f 62/62/62 61/61/61 60/60/60
f 63/63/63 60/60/60 61/61/61
f 61/61/61 64/64/64 63/63/63
f 65/65/65 63/63/63 64/64/64
f 64/64/64 66/66/66 65/65/65
f 67/67/67 65/65/65 66/66/66
f 66/66/66 68/68/68 67/67/67
f 69/69/69 67/67/67 68/68/68
f 69/69/69 68/68/68 70/70/70
f 71/71/71 70/70/70 68/68/68
f 74/74/74 73/73/73 72/72/72
f 73/73/73 75/75/75 72/72/72
f 75/75/75 76/76/76 72/72/72
f 75/75/75 73/73/73 77/77/77
f 78/78/78 77/77/77 73/73/73
f 78/78/78 79/79/79 77/77/77
f 80/80/80 77/77/77 79/79/79
f 79/79/79 81/81/81 80/80/80
f 82/82/82 80/80/80 81/81/81
f 81/81/81 83/83/83 82/82/82
f 84/84/84 82/82/82 83/83/83
f 83/83/83 85/85/85 84/84/84
f 86/86/86 84/84/84 85/85/85
f 85/85/85 87/87/87 86/86/86
f 88/88/88 86/86/86 87/87/87
f 87/87/87 89/89/89 88/88/88
f 90/90/90 88/88/88 89/89/89
f 89/89/89 91/91/91 90/90/90
f 92/92/92 90/90/90 91/91/91
f 91/91/91 93/93/93 92/92/92
f 94/94/94 92/92/92 93/93/93
f 93/93/93 95/95/95 94/94/94
f 96/96/96 94/94/94 95/95/95
f 96/96/96 95/95/95 97/97/97
f 98/98/98 97/97/97 95/95/95
f 101/101/101 100/100/100 99/99/99
f 102/102/102 99/99/99 100/100/100
f 99/99/99 102/102/102 103/103/103
f 104/104/104 103/103/103 102/102/102
f 104/104/104 105/105/105 103/103/103
f 106/106/106 103/103/103 105/105/105
f 109/109/109 108/108/108 107/107/107
f 110/110/110 107/107/107 108/108/108
f 113/113/113 112/112/112 111/111/111
f 114/114/114 111/111/111 112/112/112
f 117/117/117 116/116/116 115/115/115
f 118/118/118 115/115/115 116/116/116
f 121/121/121 120/120/120 119/119/119
f 122/122/122 119/119/119 120/120/120
f 120/120/120 123/123/123 122/122/122
f 124/124/124 122/122/122 123/123/123
f 123/123/123 125/125/125 124/124/124
f 126/126/126 124/124/124 125/125/125
f 125/125/125 127/127/127 126/126/126
f 128/128/128 126/126/126 127/127/127
f 131/131/131 130/130/130 129/129/129
f 132/132/132 129/129/129 130/130/130
