g Book_Geography_2
v 0.0818498 9.692836E-09 -0.1108731
v -0.0700772 -9.692836E-09 0.1108731
v 0.0818498 -9.692836E-09 0.1108731
v -0.0700772 9.692836E-09 -0.1108731
v -0.07858842 0.006410505 -0.1108731
v -0.07858842 0.006410482 0.1108731
v -0.08184975 0.04901809 0.1108731
v -0.07858842 0.06069691 -0.1108731
v -0.07858842 0.0606969 0.1108731
v -0.08184975 0.04901811 -0.1108731
v -0.08184975 0.01808928 0.1108731
v -0.08184975 0.0180893 -0.1108731
v -0.07858842 0.006410505 -0.1108731
v -0.07858842 0.006410482 0.1108731
v -0.07858842 0.06069691 -0.1108731
v -0.0700772 0.06710738 0.1108731
v -0.07858842 0.0606969 0.1108731
v -0.0700772 0.0671074 -0.1108731
v 0.0818498 0.0671074 -0.1108731
v 0.0818498 0.06710738 0.1108731
v -0.0700772 9.692836E-09 -0.1108731
v -0.08184975 0.0180893 -0.1108731
v -0.07858842 0.006410505 -0.1108731
v -0.07858842 0.06069691 -0.1108731
v -0.08184975 0.04901811 -0.1108731
v -0.0700772 0.0671074 -0.1108731
v 0.0818498 0.0671074 -0.1108731
v 0.0818498 9.692836E-09 -0.1108731
v -0.0700772 0.06710738 0.1108731
v -0.08184975 0.04901809 0.1108731
v -0.07858842 0.0606969 0.1108731
v -0.08184975 0.01808928 0.1108731
v -0.07858842 0.006410482 0.1108731
v -0.0700772 -9.692836E-09 0.1108731
v 0.0818498 -9.692836E-09 0.1108731
v 0.0818498 0.06710738 0.1108731
v 0.0818498 0.0671074 -0.1108731
v 0.0818498 -9.692836E-09 0.1108731
v 0.0818498 0.06710738 0.1108731
v 0.0818498 9.692836E-09 -0.1108731
vt 0.9967775 0.5743397
vt 0.8738229 0.4900987
vt 0.8738229 0.5743397
vt 0.9967775 0.4900987
vt 0.9967775 0.4841907
vt 0.8738229 0.4841907
vt 0.8738229 0.4603189
vt 0.9967775 0.4535959
vt 0.8738229 0.4535959
vt 0.9967775 0.4603189
vt 0.8738229 0.4774678
vt 0.9967775 0.4774678
vt 0.9967775 0.4841907
vt 0.8738229 0.4841907
vt 0.9967775 0.4535959
vt 0.8738229 0.4476879
vt 0.8738229 0.4535959
vt 0.9967775 0.4476879
vt 0.9967775 0.3634468
vt 0.8738229 0.3634468
vt 0.1697918 0.01894596
vt 0.179822 0.01241809
vt 0.1733464 0.01422649
vt 0.2034473 0.01422649
vt 0.1969715 0.01241809
vt 0.2070019 0.01894596
vt 0.2070019 0.1031872
vt 0.1697918 0.1031872
vt 0.7262394 0.1149604
vt 0.7162092 0.1214883
vt 0.7226848 0.1196799
vt 0.6990597 0.1214883
vt 0.692584 0.1196799
vt 0.6890295 0.1149604
vt 0.6890298 0.03071925
vt 0.7262396 0.03071937
vt 0.8846707 0.7409709
vt 0.8474606 0.8639257
vt 0.8846707 0.8639257
vt 0.8474606 0.7409709
vn 0 -1 0
vn -0.3171916 -0.9483615 0
vn 0 -1 0
vn -0.3171918 -0.9483613 0
vn -0.826019 -0.5636423 0
vn -0.8260189 -0.5636426 0
vn -0.9907449 0.1357373 0
vn -0.8260189 0.5636425 0
vn -0.8260187 0.5636427 0
vn -0.9907449 0.1357373 0
vn -0.9907449 -0.1357374 0
vn -0.9907449 -0.1357374 0
vn -0.826019 -0.5636423 0
vn -0.8260189 -0.5636426 0
vn -0.8260189 0.5636425 0
vn -0.3171914 0.9483616 0
vn -0.8260187 0.5636427 0
vn -0.3171916 0.9483615 1.019665E-07
vn 0 1 1.075187E-07
vn 0 1 1.075187E-07
vn 0 0 -1
vn 0 0 -1
vn 0 0 -1
vn 0 0 -1
vn 0 0 -1
vn 0 0 -1
vn 0 0 -1
vn 0 0 -1
vn 0 0 1
vn 0 0 1
vn 0 0 1
vn 0 0 1
vn 0 0 1
vn 0 0 1
vn 0 0 1
vn 0 0 1
vn 1 0 0
vn 1 0 0
vn 1 0 0
vn 1 0 0
g Book_Geography_2_0
f 3/3/3 2/2/2 1/1/1
f 4/4/4 1/1/1 2/2/2
f 4/4/4 2/2/2 5/5/5
f 6/6/6 5/5/5 2/2/2
f 9/9/9 8/8/8 7/7/7
f 10/10/10 7/7/7 8/8/8
f 7/7/7 10/10/10 11/11/11
f 12/12/12 11/11/11 10/10/10
f 12/12/12 13/13/13 11/11/11
f 14/14/14 11/11/11 13/13/13
f 17/17/17 16/16/16 15/15/15
f 18/18/18 15/15/15 16/16/16
f 18/18/18 16/16/16 19/19/19
f 20/20/20 19/19/19 16/16/16
f 23/23/23 22/22/22 21/21/21
f 21/21/21 22/22/22 24/24/24
f 22/22/22 25/25/25 24/24/24
f 26/26/26 21/21/21 24/24/24
f 26/26/26 27/27/27 21/21/21
f 28/28/28 21/21/21 27/27/27
f 31/31/31 30/30/30 29/29/29
f 30/30/30 32/32/32 29/29/29
f 29/29/29 32/32/32 33/33/33
f 34/34/34 29/29/29 33/33/33
f 34/34/34 35/35/35 29/29/29
f 36/36/36 29/29/29 35/35/35
f 39/39/39 38/38/38 37/37/37
f 40/40/40 37/37/37 38/38/38
