g Book_Butterfly
v 0.08699849 1.013481E-08 -0.1159287
v -0.07618576 -1.013481E-08 0.1159287
v 0.08699849 -1.013481E-08 0.1159287
v -0.07618576 1.013481E-08 -0.1159287
v -0.08400315 0.005887898 -0.1159287
v -0.08400315 0.005887874 0.1159287
v -0.08699858 0.0554257 0.1159287
v -0.08400315 0.06615242 -0.1159287
v -0.08400315 0.06615239 0.1159287
v -0.08699858 0.05542571 -0.1159287
v -0.08699858 0.01661457 0.1159287
v -0.08699858 0.01661459 -0.1159287
v -0.08400315 0.005887898 -0.1159287
v -0.08400315 0.005887874 0.1159287
v -0.08400315 0.06615242 -0.1159287
v -0.07618576 0.07204027 0.1159287
v -0.08400315 0.06615239 0.1159287
v -0.07618576 0.0720403 -0.1159287
v 0.08699849 0.0720403 -0.1159287
v 0.08699849 0.07204027 0.1159287
v -0.07618576 1.013481E-08 -0.1159287
v -0.08699858 0.01661459 -0.1159287
v -0.08400315 0.005887898 -0.1159287
v -0.08400315 0.06615242 -0.1159287
v -0.08699858 0.05542571 -0.1159287
v -0.07618576 0.0720403 -0.1159287
v 0.08699849 0.0720403 -0.1159287
v 0.08699849 1.013481E-08 -0.1159287
v -0.08400315 0.06615239 0.1159287
v -0.08699858 0.01661457 0.1159287
v -0.08699858 0.0554257 0.1159287
v -0.07618576 0.07204027 0.1159287
v -0.08400315 0.005887874 0.1159287
v -0.07618576 -1.013481E-08 0.1159287
v 0.08699849 -1.013481E-08 0.1159287
v 0.08699849 0.07204027 0.1159287
v 0.08699849 0.0720403 -0.1159287
v 0.08699849 -1.013481E-08 0.1159287
v 0.08699849 0.07204027 0.1159287
v 0.08699849 1.013481E-08 -0.1159287
vt 0.7308626 0.5749201
vt 0.6023012 0.4844372
vt 0.6023012 0.5749201
vt 0.7308626 0.4844372
vt 0.7308626 0.4790109
vt 0.6023012 0.4790111
vt 0.6023012 0.451317
vt 0.7308626 0.4451423
vt 0.6023012 0.4451424
vt 0.7308626 0.451317
vt 0.6023012 0.4728362
vt 0.7308626 0.4728362
vt 0.7308626 0.4790109
vt 0.6023012 0.4790111
vt 0.7308626 0.4451423
vt 0.6023012 0.4397162
vt 0.6023012 0.4451424
vt 0.7308626 0.4397162
vt 0.7308626 0.3492333
vt 0.6023012 0.3492333
vt 0.7613725 0.0298627
vt 0.770585 0.02386704
vt 0.7646374 0.0255279
vt 0.798053 0.0255279
vt 0.7921051 0.02386704
vt 0.8013176 0.0298627
vt 0.8013176 0.120346
vt 0.7613725 0.120346
vt 0.8898183 0.1251936
vt 0.8623503 0.1268546
vt 0.8838705 0.1268546
vt 0.893083 0.1208589
vt 0.8564025 0.1251936
vt 0.8531379 0.1208589
vt 0.8531379 0.03037582
vt 0.893083 0.03037582
vt 0.8868637 0.8698453
vt 0.8469183 0.9984066
vt 0.8868637 0.9984067
vt 0.8469183 0.8698453
vn 0 -1 0
vn -0.3171906 -0.9483618 0
vn 0 -1 0
vn -0.3171908 -0.9483618 0
vn -0.8260188 -0.5636426 0
vn -0.8260187 -0.5636427 0
vn -0.9907449 0.1357364 0
vn -0.8260186 0.5636429 0
vn -0.8260186 0.5636429 0
vn -0.9907449 0.1357364 0
vn -0.9907449 -0.1357364 0
vn -0.9907449 -0.1357365 0
vn -0.8260188 -0.5636426 0
vn -0.8260187 -0.5636427 0
vn -0.8260186 0.5636429 0
vn -0.3171905 0.9483619 0
vn -0.8260186 0.5636429 0
vn -0.3171905 0.9483619 0
vn 0 1 0
vn 0 1 0
vn 0 0 -1
vn 0 0 -1
vn 0 0 -1
vn 0 0 -1
vn 0 0 -1
vn 0 0 -1
vn 0 0 -1
vn 0 0 -1
vn 0 0 1
vn 0 0 1
vn 0 0 1
vn 0 0 1
vn 0 0 1
vn 0 0 1
vn 0 0 1
vn 0 0 1
vn 1 0 0
vn 1 0 0
vn 1 0 0
vn 1 0 0
g Book_Butterfly_0
f 3/3/3 2/2/2 1/1/1
f 4/4/4 1/1/1 2/2/2
f 4/4/4 2/2/2 5/5/5
f 6/6/6 5/5/5 2/2/2
f 9/9/9 8/8/8 7/7/7
f 10/10/10 7/7/7 8/8/8
f 7/7/7 10/10/10 11/11/11
f 12/12/12 11/11/11 10/10/10
f 12/12/12 13/13/13 11/11/11
f 14/14/14 11/11/11 13/13/13
f 17/17/17 16/16/16 15/15/15
f 18/18/18 15/15/15 16/16/16
f 18/18/18 16/16/16 19/19/19
f 20/20/20 19/19/19 16/16/16
f 23/23/23 22/22/22 21/21/21
f 21/21/21 22/22/22 24/24/24
f 22/22/22 25/25/25 24/24/24
f 26/26/26 21/21/21 24/24/24
f 26/26/26 27/27/27 21/21/21
f 28/28/28 21/21/21 27/27/27
f 31/31/31 30/30/30 29/29/29
f 29/29/29 30/30/30 32/32/32
f 32/32/32 30/30/30 33/33/33
f 34/34/34 32/32/32 33/33/33
f 34/34/34 35/35/35 32/32/32
f 36/36/36 32/32/32 35/35/35
f 39/39/39 38/38/38 37/37/37
f 40/40/40 37/37/37 38/38/38
