g Book_Creatures
v -0.08320158 -1.136894E-08 0.1300455
v 0.09681119 1.136894E-08 -0.1300455
v -0.08320158 1.136894E-08 -0.1300456
v 0.09681119 -1.136894E-08 0.1300455
v 0.09681123 0.08047412 0.1300455
v -0.08320158 0.08047418 -0.1300456
v 0.09681123 0.08047418 -0.1300456
v -0.08320158 0.08047412 0.1300455
v -0.09364564 0.06813434 0.1300455
v -0.09364564 0.06813437 -0.1300456
v -0.08320158 1.136894E-08 -0.1300456
v -0.09364564 0.01233978 0.1300455
v -0.08320158 -1.136894E-08 0.1300455
v -0.09364564 0.01233981 -0.1300456
v -0.09681128 0.04074407 0.1300455
v -0.09681128 0.04074409 -0.1300456
v -0.09364564 0.06813437 -0.1300456
v -0.09364564 0.06813434 0.1300455
v -0.08320158 1.136894E-08 -0.1300456
v -0.09681128 0.04074409 -0.1300456
v -0.09364564 0.01233981 -0.1300456
v -0.09364564 0.06813437 -0.1300456
v -0.08320158 0.08047418 -0.1300456
v 0.09681119 1.136894E-08 -0.1300455
v 0.09681123 0.08047418 -0.1300456
v -0.08320158 0.08047412 0.1300455
v -0.09681128 0.04074407 0.1300455
v -0.09364564 0.06813434 0.1300455
v -0.09364564 0.01233978 0.1300455
v -0.08320158 -1.136894E-08 0.1300455
v 0.09681123 0.08047412 0.1300455
v 0.09681119 -1.136894E-08 0.1300455
v 0.09681123 0.08047412 0.1300455
v 0.09681119 1.136894E-08 -0.1300455
v 0.09681119 -1.136894E-08 0.1300455
v 0.09681123 0.08047418 -0.1300456
vt 0.158447 0.475664
vt 0.3026635 0.5754781
vt 0.3026635 0.475664
vt 0.158447 0.575478
vt 0.158447 0.3267879
vt 0.3026635 0.4266021
vt 0.3026635 0.3267881
vt 0.158447 0.4266021
vt 0.158447 0.4355657
vt 0.3026635 0.4355657
vt 0.3026635 0.475664
vt 0.158447 0.4667005
vt 0.158447 0.475664
vt 0.3026635 0.4667005
vt 0.158447 0.4508538
vt 0.3026635 0.4508538
vt 0.3026635 0.4355657
vt 0.158447 0.4355657
vt 0.4294352 0.04126824
vt 0.4520268 0.03372121
vt 0.4362774 0.03547711
vt 0.4672146 0.03547594
vt 0.4740567 0.04126672
vt 0.4294378 0.1410822
vt 0.4740593 0.141081
vt 0.9414986 0.1279064
vt 0.9194688 0.1354522
vt 0.9346563 0.1336974
vt 0.9037191 0.1336965
vt 0.8968772 0.1279053
vt 0.9415008 0.02809229
vt 0.8968796 0.02809124
vt 0.9363541 0.9974027
vt 0.8917323 0.8531861
vt 0.8917323 0.9974027
vt 0.9363541 0.8531861
vn -0.4206902 -0.9072043 0
vn 0 -1 0
vn -0.4206903 -0.9072043 0
vn 0 -1 0
vn 0 1 1.833346E-07
vn -0.4206904 0.9072043 1.475124E-07
vn 0 1 1.833346E-07
vn -0.4206901 0.9072044 1.66322E-07
vn -0.9176283 0.3974394 0
vn -0.9176286 0.3974392 0
vn -0.4206903 -0.9072043 0
vn -0.9184361 -0.3955694 0
vn -0.4206902 -0.9072043 0
vn -0.9184361 -0.3955693 0
vn -0.999998 0.002036743 0
vn -0.999998 0.00203671 0
vn -0.9176286 0.3974392 0
vn -0.9176283 0.3974394 0
vn 4.849301E-07 -1.494677E-07 -1
vn 1.1182E-06 0 -1
vn 2.1032E-06 2.344008E-07 -1
vn 3.596502E-07 -2.248099E-07 -1
vn 1.329335E-07 -2.150974E-07 -1
vn 0 -1.502232E-07 -1
vn 1.059563E-07 -1.18507E-07 -1
vn 0 -1.096476E-07 1
vn 6.850057E-07 -2.346517E-07 1
vn 0 0 1
vn 0 -1.32416E-07 1
vn 0 -1.185069E-07 1
vn 0 -1.185069E-07 1
vn 0 -1.185069E-07 1
vn 1 -5.925347E-07 0
vn 1 -5.925345E-07 0
vn 1 -5.925347E-07 0
vn 1 -5.925344E-07 0
g Book_Creatures_0
f 3/3/3 2/2/2 1/1/1
f 4/4/4 1/1/1 2/2/2
f 7/7/7 6/6/6 5/5/5
f 8/8/8 5/5/5 6/6/6
f 8/8/8 6/6/6 9/9/9
f 10/10/10 9/9/9 6/6/6
f 13/13/13 12/12/12 11/11/11
f 14/14/14 11/11/11 12/12/12
f 12/12/12 15/15/15 14/14/14
f 16/16/16 14/14/14 15/15/15
f 16/16/16 15/15/15 17/17/17
f 18/18/18 17/17/17 15/15/15
f 21/21/21 20/20/20 19/19/19
f 20/20/20 22/22/22 19/19/19
f 19/19/19 22/22/22 23/23/23
f 19/19/19 23/23/23 24/24/24
f 25/25/25 24/24/24 23/23/23
f 28/28/28 27/27/27 26/26/26
f 27/27/27 29/29/29 26/26/26
f 26/26/26 29/29/29 30/30/30
f 26/26/26 30/30/30 31/31/31
f 32/32/32 31/31/31 30/30/30
f 35/35/35 34/34/34 33/33/33
f 36/36/36 33/33/33 34/34/34
