g Box081
v -0.4451404 3.35182 -0.1881287
v -4.552473 3.351821 -0.1881287
v -4.552474 2.288818E-06 -0.1881287
v -0.4451416 1.373291E-06 -0.1881287
v 2.795322 3.351819 -0.1881287
v 2.795321 4.577637E-07 -0.1881287
v -0.4451404 5.981434 -0.1881287
v 2.795322 5.981433 -0.1881287
v -4.552474 2.288818E-06 7.247925E-07
v -4.552473 3.351821 7.247925E-07
v -0.4451404 3.35182 7.247925E-07
v -0.4451416 1.373291E-06 7.247925E-07
v 2.795321 4.577637E-07 7.247925E-07
v 2.795322 3.351819 7.247925E-07
v 2.795322 5.981433 7.247925E-07
v -0.4451404 5.981434 7.247925E-07
v -4.552473 3.351821 -0.1881287
v -4.552473 3.351821 7.247925E-07
v -4.552474 2.288818E-06 7.247925E-07
v -4.552474 2.288818E-06 -0.1881287
v -0.4451416 1.373291E-06 -0.1881287
v -4.552474 2.288818E-06 -0.1881287
v -4.552474 2.288818E-06 7.247925E-07
v -0.4451416 1.373291E-06 7.247925E-07
v 2.795321 4.577637E-07 -0.1881287
v 2.795321 4.577637E-07 7.247925E-07
v 2.795321 4.577637E-07 -0.1881287
v 2.795321 4.577637E-07 7.247925E-07
v 2.795322 3.351819 7.247925E-07
v 2.795322 3.351819 -0.1881287
v 2.795322 5.981433 -0.1881287
v 2.795322 5.981433 7.247925E-07
v -0.4451404 5.981434 -0.1881287
v 2.795322 5.981433 -0.1881287
v 2.795322 5.981433 7.247925E-07
v -0.4451404 5.981434 7.247925E-07
v -10.57349 5.981434 -4.147723
v -10.57349 5.981434 -3.959594
v -13.85995 5.981434 -4.147723
v -13.85995 5.981434 -3.959594
v -4.552473 3.351821 -0.1881287
v -0.4451404 3.35182 -0.1881287
v -0.4451404 3.35182 7.247925E-07
v -4.552473 3.351821 7.247925E-07
v -13.85995 3.35182 -4.147723
v -13.85995 5.981434 -4.147723
v -13.85995 5.981434 -3.959594
v -13.85995 3.35182 -3.959594
v -13.85995 -0.01914474 -4.147723
v -13.85995 -0.01914474 -3.959594
v -0.4451404 3.35182 -0.1881287
v -10.57349 3.35182 -4.147723
v -10.57349 3.35182 -3.959594
v -0.4451404 3.35182 7.247925E-07
v -0.4451404 3.35182 7.247925E-07
v -10.57349 3.35182 -3.959594
v -10.57349 5.981434 -3.959594
v -0.4451404 5.981434 7.247925E-07
v -0.4451404 5.981434 -0.1881287
v -10.57349 5.981434 -4.147723
v -10.57349 3.35182 -4.147723
v -0.4451404 3.35182 -0.1881287
v -10.57349 -0.01914474 -4.147723
v -13.85995 -0.01914474 -4.147723
v -13.85995 -0.01914474 -3.959594
v -10.57349 -0.01914474 -3.959594
v -0.2356976 -0.01914474 -7.981779
v -0.2356976 -0.01914474 -7.793649
v -10.57349 3.35182 -3.959594
v -13.85995 5.981434 -3.959594
v -10.57349 5.981434 -3.959594
v -13.85995 3.35182 -3.959594
v -13.85995 -0.01914474 -3.959594
v -10.57349 -0.01914474 -3.959594
v -10.57349 5.981434 -4.147723
v -13.85995 5.981434 -4.147723
v -13.85995 3.35182 -4.147723
v -10.57349 3.35182 -4.147723
v -10.57349 -0.01914474 -4.147723
v -13.85995 -0.01914474 -4.147723
v -0.2356976 3.35182 -7.981779
v -0.2356976 -0.01914474 -7.981779
v -0.2356976 -0.01914474 -7.793649
v -0.2356976 3.35182 -7.793649
v -10.57349 3.35182 -4.147723
v -0.2356976 3.35182 -7.981779
v -0.2356976 3.35182 -7.793649
v -10.57349 3.35182 -3.959594
v -10.57349 3.35182 -3.959594
v -0.2356976 3.35182 -7.793649
v -0.2356976 -0.01914474 -7.793649
v -10.57349 -0.01914474 -3.959594
v -10.57349 -0.01914474 -4.147723
v -0.2356976 -0.01914474 -7.981779
v -0.2356976 3.35182 -7.981779
v -10.57349 3.35182 -4.147723
vt -7.030411 -4.455071
vt -4.571942 -4.45507
vt -4.571942 -6.461321
vt -7.03041 -6.461321
vt -8.970009 -4.455071
vt -8.970008 -6.461322
vt -7.030411 -2.8811
vt -8.970009 -2.8811
vt -4.571942 0.9844598
vt -4.571942 -1.021791
vt -7.030411 -1.021791
vt -7.03041 0.9844598
vt -8.970008 0.9844601
vt -8.970009 -1.02179
vt -8.970009 -2.595761
vt -7.030411 -2.595762
vt 0.4634506 4.643188
vt 0.4634506 4.530581
vt -1.5428 4.530581
vt -1.5428 4.643188
vt -7.030411 4.643188
vt -4.571942 4.643188
vt -4.571942 4.530581
vt -7.030411 4.530581
vt -8.970009 4.643188
vt -8.970009 4.530581
vt 1.541584 4.091748
vt 1.541584 3.979143
vt -0.4646665 3.979143
vt -0.4646665 4.091748
vt -2.038638 4.091748
vt -2.038638 3.979143
vt -0.5993876 1.389815
vt 1.270483 1.905205
vt 1.300405 1.796647
vt -0.5694654 1.281256
vt -7.073596 2.06375
vt -7.043674 1.955193
vt -8.970009 1.541044
vt -8.940086 1.432486
vt -4.286605 4.643188
vt -1.828137 4.643188
vt -1.828137 4.530581
vt -4.286605 4.530581
vt 0.06728458 3.423772
vt 1.641256 3.423772
vt 1.641256 3.311166
vt 0.06728458 3.311166
vt -1.950426 3.423772
vt -1.950426 3.311166
vt -2.461157 3.979143
vt -8.970009 4.045681
vt -8.927938 4.150133
vt -2.419086 4.083594
vt -7.030411 -1.021791
vt -0.9680261 -1.021791
vt -0.9680261 -2.595762
vt -7.030411 -2.595762
vt -7.030411 -2.8811
vt -0.9680261 -2.8811
vt -0.9680261 -4.455071
vt -7.030411 -4.455071
vt -2.394908 2.457645
vt -0.4984962 2.980352
vt -0.4685751 2.871795
vt -2.364988 2.349087
vt -8.970009 3.025828
vt -8.940086 2.917271
vt -0.9680261 -1.021791
vt 0.9991036 -2.595762
vt -0.9680261 -2.595762
vt 0.9991036 -1.021791
vt 0.9991036 0.9959199
vt -0.9680261 0.9959199
vt -0.9680261 -2.8811
vt 0.9991036 -2.8811
vt 0.9991036 -4.455071
vt -0.9680261 -4.455071
vt -0.9680261 -6.472782
vt 0.9991036 -6.472782
vt -0.183239 2.461693
vt 1.834472 2.461693
vt 1.834472 2.349087
vt -0.183239 2.349087
vt -2.372944 3.311166
vt -8.970009 3.494243
vt -8.927938 3.598694
vt -2.330874 3.415617
vt -0.9680261 -1.021791
vt -7.155774 -1.021791
vt -7.155774 0.9959199
vt -0.9680261 0.9959199
vt -0.9680261 -6.472782
vt -7.155774 -6.472782
vt -7.155774 -4.455071
vt -0.9680261 -4.455071
vn 0 0 -1
vn 0 0 -1
vn 0 0 -1
vn 0 0 -1
vn 0 0 -1
vn 0 0 -1
vn 0 0 -1
vn 0 0 -1
vn 0 0 1
vn 0 0 1
vn 0 0 1
vn 0 0 1
vn 0 0 1
vn 0 0 1
vn 0 0 1
vn 0 0 1
vn -1 1.820956E-07 0
vn -1 1.820956E-07 0
vn -1 1.820956E-07 0
vn -1 1.820956E-07 0
vn -2.527153E-07 -1 0
vn -2.229007E-07 -1 0
vn -2.229007E-07 -1 0
vn -2.527153E-07 -1 0
vn -2.825298E-07 -1 0
vn -2.825298E-07 -1 0
vn 1 -1.820957E-07 0
vn 1 -1.820957E-07 0
vn 1 -1.820957E-07 0
vn 1 -1.820957E-07 0
vn 1 0 0
vn 1 0 0
vn 3.767065E-07 1 0
vn 3.767065E-07 1 0
vn 3.767065E-07 1 0
vn 3.767065E-07 1 0
vn 0 1 0
vn 0 1 0
vn 0 1 0
vn 0 1 0
vn 1.486005E-07 1 0
vn 1.486005E-07 1 0
vn 1.486005E-07 1 0
vn 1.486005E-07 1 0
vn -1 0 0
vn -1 0 0
vn -1 0 0
vn -1 0 0
vn -1 0 0
vn -1 0 0
vn 0 -1 0
vn 0 -1 0
vn 0 -1 0
vn 0 -1 0
vn -0.3641064 0 0.9313573
vn -0.3641064 0 0.9313573
vn -0.3641064 0 0.9313573
vn -0.3641064 0 0.9313573
vn 0.3641064 0 -0.9313573
vn 0.3641064 0 -0.9313573
vn 0.3641064 0 -0.9313573
vn 0.3641064 0 -0.9313573
vn 0 -1 0
vn 0 -1 0
vn 0 -1 0
vn 0 -1 0
vn 0 -1 0
vn 0 -1 0
vn 0 0 1
vn 0 0 1
vn 0 0 1
vn 0 0 1
vn 0 0 1
vn 0 0 1
vn 0 0 -1
vn 0 0 -1
vn 0 0 -1
vn 0 0 -1
vn 0 0 -1
vn 0 0 -1
vn 1 0 0
vn 1 0 0
vn 1 0 0
vn 1 0 0
vn 0 1 0
vn 0 1 0
vn 0 1 0
vn 0 1 0
vn 0.3477325 0 0.9375938
vn 0.3477325 0 0.9375938
vn 0.3477325 0 0.9375938
vn 0.3477325 0 0.9375938
vn -0.3477325 0 -0.9375938
vn -0.3477325 0 -0.9375938
vn -0.3477325 0 -0.9375938
vn -0.3477325 0 -0.9375938
g Box081_0
f 3/3/3 2/2/2 1/1/1
f 4/4/4 3/3/3 1/1/1
f 4/4/4 1/1/1 5/5/5
f 6/6/6 4/4/4 5/5/5
f 1/1/1 7/7/7 5/5/5
f 7/7/7 8/8/8 5/5/5
f 11/11/11 10/10/10 9/9/9
f 12/12/12 11/11/11 9/9/9
f 11/11/11 12/12/12 13/13/13
f 14/14/14 11/11/11 13/13/13
f 14/14/14 15/15/15 11/11/11
f 15/15/15 16/16/16 11/11/11
f 19/19/19 18/18/18 17/17/17
f 20/20/20 19/19/19 17/17/17
f 23/23/23 22/22/22 21/21/21
f 24/24/24 23/23/23 21/21/21
f 24/24/24 21/21/21 25/25/25
f 26/26/26 24/24/24 25/25/25
f 29/29/29 28/28/28 27/27/27
f 30/30/30 29/29/29 27/27/27
f 30/30/30 31/31/31 29/29/29
f 31/31/31 32/32/32 29/29/29
f 35/35/35 34/34/34 33/33/33
f 36/36/36 35/35/35 33/33/33
f 33/33/33 37/37/37 36/36/36
f 37/37/37 38/38/38 36/36/36
f 37/37/37 39/39/39 38/38/38
f 39/39/39 40/40/40 38/38/38
f 43/43/43 42/42/42 41/41/41
f 44/44/44 43/43/43 41/41/41
f 47/47/47 46/46/46 45/45/45
f 48/48/48 47/47/47 45/45/45
f 45/45/45 49/49/49 48/48/48
f 49/49/49 50/50/50 48/48/48
f 53/53/53 52/52/52 51/51/51
f 54/54/54 53/53/53 51/51/51
f 57/57/57 56/56/56 55/55/55
f 58/58/58 57/57/57 55/55/55
f 61/61/61 60/60/60 59/59/59
f 62/62/62 61/61/61 59/59/59
f 65/65/65 64/64/64 63/63/63
f 66/66/66 65/65/65 63/63/63
f 63/63/63 67/67/67 66/66/66
f 67/67/67 68/68/68 66/66/66
f 71/71/71 70/70/70 69/69/69
f 70/70/70 72/72/72 69/69/69
f 72/72/72 73/73/73 69/69/69
f 73/73/73 74/74/74 69/69/69
f 77/77/77 76/76/76 75/75/75
f 78/78/78 77/77/77 75/75/75
f 78/78/78 79/79/79 77/77/77
f 79/79/79 80/80/80 77/77/77
f 83/83/83 82/82/82 81/81/81
f 84/84/84 83/83/83 81/81/81
f 87/87/87 86/86/86 85/85/85
f 88/88/88 87/87/87 85/85/85
f 91/91/91 90/90/90 89/89/89
f 92/92/92 91/91/91 89/89/89
f 95/95/95 94/94/94 93/93/93
f 96/96/96 95/95/95 93/93/93
