g Box108
v 1.623678 -1.920641 0.09065063
v 1.623678 0.5720268 0.09065063
v 1.623678 0.5720267 3.06009
v 1.623678 -1.920641 3.06009
v -1.368272 0.5720268 0.09065063
v -1.368272 -1.920641 0.09065063
v -1.368272 -1.920641 3.06009
v -1.368272 0.5720267 3.06009
v 1.623678 0.5720267 3.06009
v 1.217895 -1.920641 3.06009
v 1.623678 -1.920641 3.06009
v 1.217895 0.5720267 3.06009
v -0.9624891 -1.920641 3.06009
v 1.217895 -2.013181 3.06009
v -0.9624891 -2.013181 3.06009
v -0.9624891 0.5720267 3.06009
v -1.368272 -1.920641 3.06009
v -1.368272 0.5720267 3.06009
v -0.9624891 0.6972986 3.06009
v 1.217895 0.6972986 3.06009
v -1.368272 0.5720267 3.06009
v -0.9624891 0.5720267 3.06009
v -0.9624891 0.5720268 0.09065063
v -1.368272 0.5720268 0.09065063
v 1.623678 0.5720268 0.09065063
v 1.217895 0.5720268 0.09065063
v 1.217895 0.5720267 3.06009
v 1.623678 0.5720267 3.06009
v -1.368272 0.5720268 0.09065063
v -0.9624891 -1.920641 0.09065063
v -1.368272 -1.920641 0.09065063
v -0.9624891 0.5720268 0.09065063
v 1.217895 -1.920641 0.09065063
v -0.9624891 -2.013181 0.09065063
v 1.217895 -2.013181 0.09065063
v 1.217895 0.5720268 0.09065063
v 1.623678 -1.920641 0.09065063
v 1.623678 0.5720268 0.09065063
v 1.217895 0.6972987 0.09065063
v -0.9624891 0.6972987 0.09065063
v 1.217895 -1.920641 0.09065063
v 1.623678 -1.920641 0.09065063
v 1.623678 -1.920641 3.06009
v 1.217895 -1.920641 3.06009
v -0.9624891 -1.920641 3.06009
v -1.368272 -1.920641 3.06009
v -1.368272 -1.920641 0.09065063
v -0.9624891 -1.920641 0.09065063
v 1.217895 -1.920641 3.06009
v 1.217895 -2.013181 3.06009
v 1.217895 -2.013181 0.09065063
v 1.217895 -1.920641 0.09065063
v -0.9624891 -1.920641 0.09065063
v -0.9624891 -2.013181 0.09065063
v -0.9624891 -2.013181 3.06009
v -0.9624891 -1.920641 3.06009
v -0.9624891 0.5720267 3.06009
v -0.9624891 0.6972986 3.06009
v -0.9624891 0.6972987 0.09065063
v -0.9624891 0.5720268 0.09065063
v 1.217895 0.5720268 0.09065063
v 1.217895 0.6972987 0.09065063
v 1.217895 0.6972986 3.06009
v 1.217895 0.5720267 3.06009
vt 0 0
vt 1 0
vt 1 1
vt 0 1
vt 0 0
vt 1 0
vt 1 1
vt 0 1
vt 1 1
vt 0.864375 0
vt 1 0
vt 0.864375 1
vt 0.135625 0
vt 0.864375 0
vt 0.135625 0
vt 0.135625 1
vt 0 0
vt 0 1
vt 0.135625 1
vt 0.864375 1
vt 1 1
vt 0.864375 1
vt 0.864375 0
vt 1 0
vt 0 0
vt 0.135625 0
vt 0.135625 1
vt 0 1
vt 0 1
vt 0.135625 0
vt 0 0
vt 0.135625 1
vt 0.864375 0
vt 0.135625 0
vt 0.864375 0
vt 0.864375 1
vt 1 0
vt 1 1
vt 0.864375 1
vt 0.135625 1
vt 1 1
vt 1 0
vt 1 0
vt 0 1
vt 1 1
vt 0 0
vt 0 0
vt 0 1
vt 0 1
vt 0 1
vt 1 1
vt 1 1
vt 0 1
vt 0 1
vt 1 1
vt 1 1
vt 0.864375 1
vt 0.864375 1
vt 0.864375 0
vt 0.864375 0
vt 0.135625 0
vt 0.135625 0
vt 0.135625 1
vt 0.135625 1
vn -1 0 0
vn -1 0 0
vn -1 0 0
vn -1 0 0
vn 1 0 0
vn 1 0 0
vn 1 0 0
vn 1 0 0
vn 0 0 -1
vn 0 0 -1
vn 0 0 -1
vn 0 0 -1
vn 0 0 -1
vn 0 0 -1
vn 0 0 -1
vn 0 0 -1
vn 0 0 -1
vn 0 0 -1
vn 0 0 -1
vn 0 0 -1
vn 0 -1 0
vn 0 -1 0
vn 0 -1 0
vn 0 -1 0
vn 0 -1 0
vn 0 -1 0
vn 0 -1 0
vn 0 -1 0
vn 0 0 1
vn 0 0 1
vn 0 0 1
vn 0 0 1
vn 0 0 1
vn 0 0 1
vn 0 0 1
vn 0 0 1
vn 0 0 1
vn 0 0 1
vn 0 0 1
vn 0 0 1
vn 0 1 0
vn 0 1 0
vn 0 1 0
vn 0 1 0
vn 0 1 0
vn 0 1 0
vn 0 1 0
vn 0 1 0
vn -1 0 0
vn -1 0 0
vn -1 0 0
vn -1 0 0
vn 1 0 0
vn 1 0 0
vn 1 0 0
vn 1 0 0
vn 1 0 0
vn 1 0 0
vn 1 0 0
vn 1 0 0
vn -1 0 0
vn -1 0 0
vn -1 0 0
vn -1 0 0
g Box108_0
f 3/3/3 2/2/2 1/1/1
f 4/4/4 3/3/3 1/1/1
f 7/7/7 6/6/6 5/5/5
f 8/8/8 7/7/7 5/5/5
f 11/11/11 10/10/10 9/9/9
f 10/10/10 12/12/12 9/9/9
f 10/10/10 13/13/13 12/12/12
f 10/10/10 14/14/14 13/13/13
f 14/14/14 15/15/15 13/13/13
f 13/13/13 16/16/16 12/12/12
f 16/16/16 13/13/13 17/17/17
f 18/18/18 16/16/16 17/17/17
f 16/16/16 19/19/19 12/12/12
f 19/19/19 20/20/20 12/12/12
f 23/23/23 22/22/22 21/21/21
f 24/24/24 23/23/23 21/21/21
f 27/27/27 26/26/26 25/25/25
f 28/28/28 27/27/27 25/25/25
f 31/31/31 30/30/30 29/29/29
f 30/30/30 32/32/32 29/29/29
f 30/30/30 33/33/33 32/32/32
f 30/30/30 34/34/34 33/33/33
f 34/34/34 35/35/35 33/33/33
f 33/33/33 36/36/36 32/32/32
f 36/36/36 33/33/33 37/37/37
f 38/38/38 36/36/36 37/37/37
f 36/36/36 39/39/39 32/32/32
f 39/39/39 40/40/40 32/32/32
f 43/43/43 42/42/42 41/41/41
f 44/44/44 43/43/43 41/41/41
f 47/47/47 46/46/46 45/45/45
f 48/48/48 47/47/47 45/45/45
f 51/51/51 50/50/50 49/49/49
f 52/52/52 51/51/51 49/49/49
f 55/55/55 54/54/54 53/53/53
f 56/56/56 55/55/55 53/53/53
f 59/59/59 58/58/58 57/57/57
f 60/60/60 59/59/59 57/57/57
f 63/63/63 62/62/62 61/61/61
f 64/64/64 63/63/63 61/61/61
