g Box183
v 0.5654 13.4939 1.5513
v 0.5654 2.1389 8.3638
v 0.5654 3.9116 11.2847
v 0.5654 15.2666 4.4717
v 6.4141 2.1389 8.3638
v 6.4141 3.9116 11.2847
v 0.5654 3.9116 11.2847
v 0.5654 2.1389 8.3638
v 6.4141 13.4939 1.5513
v 6.4141 15.2666 4.4717
v 6.4141 3.9116 11.2847
v 6.4141 2.1389 8.3638
v 0.5654 15.2666 4.4717
v 6.4141 15.2666 4.4717
v 6.4141 13.4939 1.5513
v 0.5654 13.4939 1.5513
v -11.7559 -19.1777 -13.6318
v -11.7559 -19.1777 13.6318
v -8.9072 -19.1777 13.6318
v -8.9072 -19.1777 -13.6318
v 0.5654 -19.1777 13.6318
v 0.5654 -19.1777 -13.6318
v 6.4141 -19.1777 13.6318
v 6.4141 -19.1777 -13.6318
v 8.9072 -19.1777 13.6318
v 8.9072 -19.1777 -13.6318
v 11.7559 -19.1777 13.6318
v 11.7559 -19.1777 -13.6318
v -8.9072 19.178 -13.6318
v -11.7559 19.178 2.125
v -11.7559 19.178 -13.6318
v -8.9072 19.178 2.125
v 0.5654 19.178 -13.6318
v 0.5654 19.178 2.125
v 6.4141 19.178 -13.6318
v 6.4141 19.178 2.125
v 8.9072 19.178 2.125
v 8.9072 19.178 -13.6318
v 11.7559 19.178 -13.6318
v 11.7559 19.178 2.125
v -11.7559 0.0002 -13.6318
v -11.7559 -19.1777 -13.6318
v -8.9072 -19.1777 -13.6318
v -8.9072 0.0002 -13.6318
v -11.7559 3.9116 -13.6318
v 0.5654 0.0002 -13.6318
v 0.5654 -19.1777 -13.6318
v 6.4141 -19.1777 -13.6318
v -8.9072 3.9116 -13.6318
v -11.7559 15.2666 -13.6318
v 6.4141 0.0002 -13.6318
v 8.9072 -19.1777 -13.6318
v 0.5654 3.9116 -13.6318
v 8.9072 0.0002 -13.6318
v 11.7559 -19.1777 -13.6318
v 11.7559 0.0002 -13.6318
v 11.7559 3.9116 -13.6318
v 6.4141 3.9116 -13.6318
v 8.9072 3.9116 -13.6318
v 6.4141 15.2666 -13.6318
v 8.9072 15.2666 -13.6318
v 11.7559 15.2666 -13.6318
v 11.7559 19.178 -13.6318
v 8.9072 19.178 -13.6318
v 6.4141 19.178 -13.6318
v 0.5654 15.2666 -13.6318
v 0.5654 19.178 -13.6318
v -8.9072 19.178 -13.6318
v -8.9072 15.2666 -13.6318
v -11.7559 19.178 -13.6318
v -11.7559 -19.1777 -13.6318
v -11.7559 0.0002 13.6318
v -11.7559 -19.1777 13.6318
v -11.7559 0.0002 -13.6318
v -11.7559 3.9116 11.2847
v -11.7559 3.9116 -13.6318
v -11.7559 15.2666 -13.6318
v -11.7559 15.2666 4.4717
v -11.7559 19.178 -13.6318
v -11.7559 19.178 2.125
v 0.5654 13.4939 1.5513
v 6.4141 13.4939 1.5513
v 6.4141 2.1389 8.3638
v 0.5654 2.1389 8.3638
v -8.9072 19.178 2.125
v -11.7559 15.2666 4.4717
v -11.7559 19.178 2.125
v -8.9072 15.2666 4.4717
v -11.7559 3.9116 11.2847
v 0.5654 19.178 2.125
v -8.9072 3.9116 11.2847
v -11.7559 0.0002 13.6318
v -8.9072 0.0002 13.6318
v -11.7559 -19.1777 13.6318
v -8.9072 -19.1777 13.6318
v 0.5654 -19.1777 13.6318
v 0.5654 3.9116 11.2847
v 0.5654 15.2666 4.4717
v 6.4141 15.2666 4.4717
v 6.4141 19.178 2.125
v 8.9072 15.2666 4.4717
v 8.9072 19.178 2.125
v 6.4141 3.9116 11.2847
v 0.5654 0.0002 13.6318
v 6.4141 0.0002 13.6318
v 8.9072 0.0002 13.6318
v 6.4141 -19.1777 13.6318
v 8.9072 -19.1777 13.6318
v 11.7559 -19.1777 13.6318
v 11.7559 0.0002 13.6318
v 11.7559 3.9116 11.2847
v 8.9072 3.9116 11.2847
v 11.7559 15.2666 4.4717
v 11.7559 19.178 2.125
v 11.7559 -19.1777 13.6318
v 11.7559 0.0002 -13.6318
v 11.7559 -19.1777 -13.6318
v 11.7559 0.0002 13.6318
v 11.7559 3.9116 11.2847
v 11.7559 3.9116 -13.6318
v 11.7559 15.2666 -13.6318
v 11.7559 15.2666 4.4717
v 11.7559 19.178 2.125
v 11.7559 19.178 -13.6318
vt 0.9936 0.9803
vt 0.9665 0.9794
vt 0.9663 0.9863
vt 0.9934 0.9873
vt 0.6397 0.9466
vt 0.6397 0.9406
vt 0.6278 0.9406
vt 0.6278 0.9466
vt 0.7474 0.9353
vt 0.7468 0.9422
vt 0.7737 0.9444
vt 0.7743 0.9374
vt 0.983 0.952
vt 0.9711 0.952
vt 0.9711 0.958
vt 0.983 0.958
vt 0.8923 0.9946
vt 0.948 0.9946
vt 0.948 0.9888
vt 0.8923 0.9888
vt 0.948 0.9694
vt 0.8923 0.9694
vt 0.948 0.9575
vt 0.8923 0.9575
vt 0.948 0.9524
vt 0.8923 0.9524
vt 0.948 0.9466
vt 0.8923 0.9466
vt 0.7857 0.9479
vt 0.7915 0.98
vt 0.7915 0.9479
vt 0.7857 0.98
vt 0.7664 0.9479
vt 0.7664 0.98
vt 0.7544 0.9479
vt 0.7544 0.98
vt 0.7493 0.98
vt 0.7493 0.9479
vt 0.7435 0.9479
vt 0.7435 0.98
vt 0.3921 0.5682
vt 0.3921 0.6074
vt 0.3979 0.6074
vt 0.3979 0.5682
vt 0.3921 0.5603
vt 0.4172 0.5682
vt 0.4172 0.6074
vt 0.4292 0.6074
vt 0.3979 0.5603
vt 0.3921 0.5371
vt 0.4292 0.5682
vt 0.4343 0.6074
vt 0.4172 0.5603
vt 0.4343 0.5682
vt 0.4401 0.6074
vt 0.4401 0.5682
vt 0.4401 0.5603
vt 0.4292 0.5603
vt 0.4343 0.5603
vt 0.4292 0.5371
vt 0.4343 0.5371
vt 0.4401 0.5371
vt 0.4401 0.5291
vt 0.4343 0.5291
vt 0.4292 0.5291
vt 0.4172 0.5371
vt 0.4172 0.5291
vt 0.3979 0.5291
vt 0.3979 0.5371
vt 0.3921 0.5291
vt 0.5645 0.994
vt 0.6036 0.9383
vt 0.5645 0.9383
vt 0.6036 0.994
vt 0.6116 0.9431
vt 0.6116 0.994
vt 0.6348 0.994
vt 0.6348 0.957
vt 0.6428 0.994
vt 0.6428 0.9618
vt 0.9895 0.973
vt 0.9895 0.9611
vt 0.9663 0.9611
vt 0.9663 0.973
vt 0.7281 0.9837
vt 0.7201 0.9895
vt 0.7281 0.9895
vt 0.7201 0.9837
vt 0.6969 0.9895
vt 0.7281 0.9643
vt 0.6969 0.9837
vt 0.6889 0.9895
vt 0.6889 0.9837
vt 0.6498 0.9895
vt 0.6498 0.9837
vt 0.6498 0.9643
vt 0.6969 0.9643
vt 0.7201 0.9643
vt 0.7201 0.9524
vt 0.7281 0.9524
vt 0.7201 0.9473
vt 0.7281 0.9473
vt 0.6969 0.9524
vt 0.6889 0.9643
vt 0.6889 0.9524
vt 0.6889 0.9473
vt 0.6498 0.9524
vt 0.6498 0.9473
vt 0.6498 0.9415
vt 0.6889 0.9415
vt 0.6969 0.9415
vt 0.6969 0.9473
vt 0.7201 0.9415
vt 0.7281 0.9415
vt 0.3668 0.6671
vt 0.4059 0.6115
vt 0.3668 0.6115
vt 0.4059 0.6671
vt 0.4139 0.6623
vt 0.4139 0.6115
vt 0.4371 0.6115
vt 0.4371 0.6484
vt 0.4451 0.6436
vt 0.4451 0.6115
vn 1 0 0
vn 1 0 0
vn 1 0 0
vn 1 0 0
vn 0 0.8548968 -0.5187981
vn 0 0.8548968 -0.5187981
vn 0 0.8548968 -0.5187981
vn 0 0.8548968 -0.5187981
vn -1 0 0
vn -1 0 0
vn -1 0 0
vn -1 0 0
vn 0 -0.8548968 0.5187981
vn 0 -0.8548968 0.5187981
vn 0 -0.8548968 0.5187981
vn 0 -0.8548968 0.5187981
vn 0 -1 0
vn 0 -1 0
vn 0 -1 0
vn 0 -1 0
vn 0 -1 0
vn 0 -1 0
vn 0 -1 0
vn 0 -1 0
vn 0 -1 0
vn 0 -1 0
vn 0 -1 0
vn 0 -1 0
vn 0 1 0
vn 0 1 0
vn 0 1 0
vn 0 1 0
vn 0 1 0
vn 0 1 0
vn 0 1 0
vn 0 1 0
vn 0 1 0
vn 0 1 0
vn 0 1 0
vn 0 1 0
vn 0 0 -1
vn 0 0 -1
vn 0 0 -1
vn 0 0 -1
vn 0 0 -1
vn 0 0 -1
vn 0 0 -1
vn 0 0 -1
vn 0 0 -1
vn 0 0 -1
vn 0 0 -1
vn 0 0 -1
vn 0 0 -1
vn 0 0 -1
vn 0 0 -1
vn 0 0 -1
vn 0 0 -1
vn 0 0 -1
vn 0 0 -1
vn 0 0 -1
vn 0 0 -1
vn 0 0 -1
vn 0 0 -1
vn 0 0 -1
vn 0 0 -1
vn 0 0 -1
vn 0 0 -1
vn 0 0 -1
vn 0 0 -1
vn 0 0 -1
vn -1 0 0
vn -1 0 0
vn -1 0 0
vn -1 0 0
vn -1 0 0
vn -1 0 0
vn -1 0 0
vn -1 0 0
vn -1 0 0
vn -1 0 0
vn 0 0.5144958 0.8574929
vn 0 0.5144958 0.8574929
vn 0 0.5144958 0.8574929
vn 0 0.5144958 0.8574929
vn 0 0.5144958 0.8574929
vn 0 0.5144958 0.8574929
vn 0 0.5144958 0.8574929
vn 0 0.5144958 0.8574929
vn 0 0.5144958 0.8574929
vn 0 0.5144958 0.8574929
vn 0 0.5144958 0.8574929
vn 0 0.2669062 0.9637225
vn 0 0.2669062 0.9637225
vn 0 0 1
vn 0 0 1
vn 0 0 1
vn 0 0.5144958 0.8574929
vn 0 0.5144958 0.8574929
vn 0 0.5144958 0.8574929
vn 0 0.5144958 0.8574929
vn 0 0.5144958 0.8574929
vn 0 0.5144958 0.8574929
vn 0 0.5144958 0.8574929
vn 0 0.2669062 0.9637225
vn 0 0.2669062 0.9637225
vn 0 0.2669062 0.9637225
vn 0 0 1
vn 0 0 1
vn 0 0 1
vn 0 0.2669062 0.9637225
vn 0 0.5144958 0.8574929
vn 0 0.5144958 0.8574929
vn 0 0.5144958 0.8574929
vn 0 0.5144958 0.8574929
vn 1 0 0
vn 1 0 0
vn 1 0 0
vn 1 0 0
vn 1 0 0
vn 1 0 0
vn 1 0 0
vn 1 0 0
vn 1 0 0
vn 1 0 0
g Box183_0
f 3/3/3 2/2/2 1/1/1
f 4/4/4 3/3/3 1/1/1
f 7/7/7 6/6/6 5/5/5
f 8/8/8 7/7/7 5/5/5
f 11/11/11 10/10/10 9/9/9
f 12/12/12 11/11/11 9/9/9
f 15/15/15 14/14/14 13/13/13
f 16/16/16 15/15/15 13/13/13
f 19/19/19 18/18/18 17/17/17
f 20/20/20 19/19/19 17/17/17
f 19/19/19 20/20/20 21/21/21
f 20/20/20 22/22/22 21/21/21
f 21/21/21 22/22/22 23/23/23
f 22/22/22 24/24/24 23/23/23
f 25/25/25 23/23/23 24/24/24
f 26/26/26 25/25/25 24/24/24
f 27/27/27 25/25/25 26/26/26
f 28/28/28 27/27/27 26/26/26
f 31/31/31 30/30/30 29/29/29
f 30/30/30 32/32/32 29/29/29
f 29/29/29 32/32/32 33/33/33
f 32/32/32 34/34/34 33/33/33
f 33/33/33 34/34/34 35/35/35
f 34/34/34 36/36/36 35/35/35
f 35/35/35 36/36/36 37/37/37
f 38/38/38 35/35/35 37/37/37
f 39/39/39 38/38/38 37/37/37
f 40/40/40 39/39/39 37/37/37
f 43/43/43 42/42/42 41/41/41
f 44/44/44 43/43/43 41/41/41
f 41/41/41 45/45/45 44/44/44
f 43/43/43 44/44/44 46/46/46
f 47/47/47 43/43/43 46/46/46
f 47/47/47 46/46/46 48/48/48
f 45/45/45 49/49/49 44/44/44
f 49/49/49 45/45/45 50/50/50
f 46/46/46 51/51/51 48/48/48
f 52/52/52 48/48/48 51/51/51
f 53/53/53 46/46/46 44/44/44
f 49/49/49 53/53/53 44/44/44
f 54/54/54 52/52/52 51/51/51
f 55/55/55 52/52/52 54/54/54
f 56/56/56 55/55/55 54/54/54
f 57/57/57 56/56/56 54/54/54
f 51/51/51 46/46/46 58/58/58
f 51/51/51 58/58/58 54/54/54
f 46/46/46 53/53/53 58/58/58
f 59/59/59 57/57/57 54/54/54
f 58/58/58 59/59/59 54/54/54
f 58/58/58 53/53/53 60/60/60
f 59/59/59 58/58/58 60/60/60
f 57/57/57 59/59/59 61/61/61
f 61/61/61 59/59/59 60/60/60
f 62/62/62 57/57/57 61/61/61
f 63/63/63 62/62/62 61/61/61
f 64/64/64 63/63/63 61/61/61
f 64/64/64 61/61/61 60/60/60
f 65/65/65 64/64/64 60/60/60
f 53/53/53 66/66/66 60/60/60
f 60/60/60 66/66/66 65/65/65
f 66/66/66 67/67/67 65/65/65
f 66/66/66 53/53/53 49/49/49
f 67/67/67 66/66/66 68/68/68
f 69/69/69 66/66/66 49/49/49
f 66/66/66 69/69/69 68/68/68
f 69/69/69 49/49/49 50/50/50
f 69/69/69 50/50/50 68/68/68
f 50/50/50 70/70/70 68/68/68
f 73/73/73 72/72/72 71/71/71
f 72/72/72 74/74/74 71/71/71
f 74/74/74 72/72/72 75/75/75
f 76/76/76 74/74/74 75/75/75
f 77/77/77 76/76/76 75/75/75
f 78/78/78 77/77/77 75/75/75
f 79/79/79 77/77/77 78/78/78
f 80/80/80 79/79/79 78/78/78
f 83/83/83 82/82/82 81/81/81
f 84/84/84 83/83/83 81/81/81
f 87/87/87 86/86/86 85/85/85
f 86/86/86 88/88/88 85/85/85
f 86/86/86 89/89/89 88/88/88
f 85/85/85 88/88/88 90/90/90
f 89/89/89 91/91/91 88/88/88
f 91/91/91 89/89/89 92/92/92
f 93/93/93 91/91/91 92/92/92
f 93/93/93 92/92/92 94/94/94
f 95/95/95 93/93/93 94/94/94
f 93/93/93 95/95/95 96/96/96
f 91/91/91 97/97/97 88/88/88
f 97/97/97 91/91/91 93/93/93
f 88/88/88 98/98/98 90/90/90
f 97/97/97 98/98/98 88/88/88
f 98/98/98 99/99/99 90/90/90
f 99/99/99 100/100/100 90/90/90
f 99/99/99 101/101/101 100/100/100
f 101/101/101 102/102/102 100/100/100
f 101/101/101 99/99/99 103/103/103
f 104/104/104 93/93/93 96/96/96
f 104/104/104 97/97/97 93/93/93
f 105/105/105 104/104/104 96/96/96
f 97/97/97 104/104/104 105/105/105
f 103/103/103 97/97/97 105/105/105
f 103/103/103 105/105/105 106/106/106
f 107/107/107 105/105/105 96/96/96
f 106/106/106 105/105/105 107/107/107
f 108/108/108 106/106/106 107/107/107
f 106/106/106 108/108/108 109/109/109
f 110/110/110 106/106/106 109/109/109
f 110/110/110 111/111/111 106/106/106
f 112/112/112 103/103/103 106/106/106
f 111/111/111 112/112/112 106/106/106
f 112/112/112 101/101/101 103/103/103
f 112/112/112 111/111/111 101/101/101
f 111/111/111 113/113/113 101/101/101
f 101/101/101 113/113/113 102/102/102
f 113/113/113 114/114/114 102/102/102
f 117/117/117 116/116/116 115/115/115
f 116/116/116 118/118/118 115/115/115
f 119/119/119 118/118/118 116/116/116
f 120/120/120 119/119/119 116/116/116
f 120/120/120 121/121/121 119/119/119
f 121/121/121 122/122/122 119/119/119
f 122/122/122 121/121/121 123/123/123
f 121/121/121 124/124/124 123/123/123
