g Box171
v -22.6816 -22.8113 -0.0127
v 22.6816 -22.8113 -0.0127
v 22.6816 -22.8113 9.3359
v -22.6816 -22.8113 9.3359
v 22.6816 22.8113 -0.0127
v -22.6816 22.8113 -0.0127
v -22.6816 22.8113 9.3359
v 22.6816 22.8113 9.3359
v 22.6816 -22.8113 -0.0127
v 22.6816 22.8113 -0.0127
v 22.6816 22.8113 9.3359
v 22.6816 -22.8113 9.3359
v -22.6816 22.8113 -0.0127
v -22.6816 -22.8113 -0.0127
v -22.6816 -22.8113 9.3359
v -22.6816 22.8113 9.3359
v 22.6816 -22.8113 -0.0127
v -22.6816 -22.8113 -0.0127
v -22.6816 22.8113 -0.0127
v 22.6816 22.8113 -0.0127
v -30.9961 -31.1724 -13.6416
v -30.9961 -31.1724 9.3359
v 30.9961 -31.1724 9.3359
v 30.9961 -31.1724 -13.6416
v 30.9961 31.1724 9.3359
v -30.9961 31.1724 9.3359
v -30.9961 31.1724 -13.6416
v 30.9961 31.1724 -13.6416
v -0.1064 -12.2334 13.6421
v 7.5781 -9.7363 13.6421
v 7.5781 -9.7363 -2.7339
v -0.1064 -12.2334 -2.7339
v -7.792 -9.7363 13.6421
v -7.792 -9.7363 -2.7339
v 12.3271 -3.1992 -2.7339
v 7.5781 -9.7363 -2.7339
v 7.5781 -9.7363 13.6421
v 12.3271 -3.1992 13.6421
v 12.3271 4.8809 13.6421
v 12.3271 4.8809 -2.7339
v 7.5781 11.418 13.6421
v 7.5781 11.418 -2.7339
v -0.1064 13.915 13.6421
v 7.5781 11.418 -2.7339
v 7.5781 11.418 13.6421
v -0.1064 13.915 -2.7339
v -7.792 11.418 13.6421
v -7.792 11.418 -2.7339
v -7.792 11.418 -2.7339
v -7.792 11.418 13.6421
v -12.541 4.8809 13.6421
v -12.541 4.8809 -2.7339
v -12.541 -3.1992 -2.7339
v -12.541 -3.1992 13.6421
v -7.792 -9.7363 13.6421
v -7.792 -9.7363 -2.7339
v 30.9961 -31.1724 -13.6416
v 30.9961 -31.1724 9.3359
v 30.9961 31.1724 9.3359
v 30.9961 31.1724 -13.6416
v -30.9961 -31.1724 9.3359
v -30.9961 -31.1724 -13.6416
v -30.9961 31.1724 -13.6416
v -30.9961 31.1724 9.3359
v -0.1064 -12.2334 13.6421
v -0.1064 0.8408 13.6421
v 7.5781 -9.7363 13.6421
v -7.792 -9.7363 13.6421
v 12.3271 -3.1992 13.6421
v -12.541 -3.1992 13.6421
v 12.3271 4.8809 13.6421
v -12.541 4.8809 13.6421
v 7.5781 11.418 13.6421
v -7.792 11.418 13.6421
v -0.1064 13.915 13.6421
v -22.6816 -22.8113 9.3359
v 22.6816 -22.8113 9.3359
v 30.9961 -31.1724 9.3359
v -30.9961 -31.1724 9.3359
v 30.9961 31.1724 9.3359
v -22.6816 22.8113 9.3359
v 22.6816 22.8113 9.3359
v -30.9961 31.1724 9.3359
vt 0.9789 0.6761
vt 0.9789 0.7071
vt 0.9853 0.7071
vt 0.9853 0.6761
vt 0.9939 0.7071
vt 0.9939 0.6761
vt 0.9875 0.6761
vt 0.9875 0.7071
vt 0.9103 0.7992
vt 0.9103 0.768
vt 0.9039 0.768
vt 0.9039 0.7992
vt 0.9594 0.6761
vt 0.9594 0.7072
vt 0.9658 0.7072
vt 0.9658 0.6761
vt 0.9153 0.7072
vt 0.9463 0.7072
vt 0.9463 0.6761
vt 0.9153 0.6761
vt 0.9691 0.7106
vt 0.9534 0.7106
vt 0.9534 0.753
vt 0.9691 0.753
vt 0.9691 0.7976
vt 0.9691 0.7552
vt 0.9534 0.7552
vt 0.9534 0.7976
vt 0.8419 0.7881
vt 0.8419 0.7776
vt 0.8194 0.7776
vt 0.8194 0.7881
vt 0.8419 0.7987
vt 0.8194 0.7987
vt 0.8423 0.7415
vt 0.8333 0.7415
vt 0.8333 0.764
vt 0.8423 0.764
vt 0.8534 0.764
vt 0.8534 0.7415
vt 0.8624 0.764
vt 0.8624 0.7415
vt 0.8443 0.7881
vt 0.8668 0.7776
vt 0.8443 0.7776
vt 0.8668 0.7881
vt 0.8443 0.7987
vt 0.8668 0.7987
vt 0.8171 0.8001
vt 0.8171 0.7776
vt 0.8081 0.7776
vt 0.8081 0.8001
vt 0.797 0.8001
vt 0.797 0.7776
vt 0.788 0.7776
vt 0.788 0.8001
vt 0.9153 0.7992
vt 0.931 0.7992
vt 0.931 0.7566
vt 0.9153 0.7566
vt 0.9153 0.7532
vt 0.931 0.7532
vt 0.931 0.7106
vt 0.9153 0.7106
vt 0.7951 0.7585
vt 0.813 0.7585
vt 0.7985 0.748
vt 0.7985 0.7691
vt 0.8075 0.7415
vt 0.8075 0.7756
vt 0.8186 0.7415
vt 0.8186 0.7756
vt 0.8276 0.748
vt 0.8276 0.7691
vt 0.831 0.7585
vt 0.9062 0.713
vt 0.8752 0.713
vt 0.8696 0.7187
vt 0.9119 0.7187
vt 0.8696 0.6761
vt 0.9062 0.6818
vt 0.8752 0.6818
vt 0.9119 0.6761
vn 0 1 0
vn 0 1 0
vn 0 1 0
vn 0 1 0
vn 0 -1 0
vn 0 -1 0
vn 0 -1 0
vn 0 -1 0
vn -1 0 0
vn -1 0 0
vn -1 0 0
vn -1 0 0
vn 1 0 0
vn 1 0 0
vn 1 0 0
vn 1 0 0
vn 0 0 1
vn 0 0 1
vn 0 0 1
vn 0 0 1
vn 0 -1 0
vn 0 -1 0
vn 0 -1 0
vn 0 -1 0
vn 0 1 0
vn 0 1 0
vn 0 1 0
vn 0 1 0
vn 0 -1 0
vn 0.587803 -0.8090041 0
vn 0.587803 -0.8090041 0
vn 0 -1 0
vn -0.587803 -0.8090041 0
vn -0.587803 -0.8090041 0
vn 0.9510657 -0.3089888 0
vn 0.587803 -0.8090041 0
vn 0.587803 -0.8090041 0
vn 0.9510657 -0.3089888 0
vn 0.9510657 0.3089888 0
vn 0.9510657 0.3089888 0
vn 0.587803 0.8090041 0
vn 0.587803 0.8090041 0
vn 0 1 0
vn 0.587803 0.8090041 0
vn 0.587803 0.8090041 0
vn 0 1 0
vn -0.587803 0.8090041 0
vn -0.587803 0.8090041 0
vn -0.587803 0.8090041 0
vn -0.587803 0.8090041 0
vn -0.9510657 0.3089888 0
vn -0.9510657 0.3089888 0
vn -0.9510657 -0.3089888 0
vn -0.9510657 -0.3089888 0
vn -0.587803 -0.8090041 0
vn -0.587803 -0.8090041 0
vn 1 0 0
vn 1 0 0
vn 1 0 0
vn 1 0 0
vn -1 0 0
vn -1 0 0
vn -1 0 0
vn -1 0 0
vn 0 0 1
vn 0 0 1
vn 0 0 1
vn 0 0 1
vn 0 0 1
vn 0 0 1
vn 0 0 1
vn 0 0 1
vn 0 0 1
vn 0 0 1
vn 0 0 1
vn 0 0 1
vn 0 0 1
vn 0 0 1
vn 0 0 1
vn 0 0 1
vn 0 0 1
vn 0 0 1
vn 0 0 1
g Box171_0
f 3/3/3 2/2/2 1/1/1
f 4/4/4 3/3/3 1/1/1
f 7/7/7 6/6/6 5/5/5
f 8/8/8 7/7/7 5/5/5
f 11/11/11 10/10/10 9/9/9
f 12/12/12 11/11/11 9/9/9
f 15/15/15 14/14/14 13/13/13
f 16/16/16 15/15/15 13/13/13
f 19/19/19 18/18/18 17/17/17
f 20/20/20 19/19/19 17/17/17
f 23/23/23 22/22/22 21/21/21
f 24/24/24 23/23/23 21/21/21
f 27/27/27 26/26/26 25/25/25
f 28/28/28 27/27/27 25/25/25
f 31/31/31 30/30/30 29/29/29
f 32/32/32 31/31/31 29/29/29
f 32/32/32 29/29/29 33/33/33
f 34/34/34 32/32/32 33/33/33
f 37/37/37 36/36/36 35/35/35
f 38/38/38 37/37/37 35/35/35
f 38/38/38 35/35/35 39/39/39
f 35/35/35 40/40/40 39/39/39
f 39/39/39 40/40/40 41/41/41
f 40/40/40 42/42/42 41/41/41
f 45/45/45 44/44/44 43/43/43
f 44/44/44 46/46/46 43/43/43
f 43/43/43 46/46/46 47/47/47
f 46/46/46 48/48/48 47/47/47
f 51/51/51 50/50/50 49/49/49
f 52/52/52 51/51/51 49/49/49
f 51/51/51 52/52/52 53/53/53
f 54/54/54 51/51/51 53/53/53
f 55/55/55 54/54/54 53/53/53
f 56/56/56 55/55/55 53/53/53
f 59/59/59 58/58/58 57/57/57
f 60/60/60 59/59/59 57/57/57
f 63/63/63 62/62/62 61/61/61
f 64/64/64 63/63/63 61/61/61
f 67/67/67 66/66/66 65/65/65
f 65/65/65 66/66/66 68/68/68
f 69/69/69 66/66/66 67/67/67
f 68/68/68 66/66/66 70/70/70
f 71/71/71 66/66/66 69/69/69
f 70/70/70 66/66/66 72/72/72
f 73/73/73 66/66/66 71/71/71
f 72/72/72 66/66/66 74/74/74
f 75/75/75 66/66/66 73/73/73
f 74/74/74 66/66/66 75/75/75
f 78/78/78 77/77/77 76/76/76
f 79/79/79 78/78/78 76/76/76
f 78/78/78 80/80/80 77/77/77
f 79/79/79 76/76/76 81/81/81
f 80/80/80 82/82/82 77/77/77
f 83/83/83 79/79/79 81/81/81
f 83/83/83 81/81/81 82/82/82
f 80/80/80 83/83/83 82/82/82
