g Box175
v 46.0713 -7.9453 8.999
v 46.0713 -7.9453 0.6279
v 17.042 -7.9453 0.6279
v 17.042 -7.9453 8.999
v 17.042 8.3066 0.6279
v 46.0713 8.3066 0.6279
v 46.0713 8.3066 8.999
v 17.042 8.3066 8.999
v 17.042 -7.9453 0.6279
v 46.0713 -7.9453 0.6279
v 46.0713 8.3066 0.6279
v 17.042 8.3066 0.6279
v 17.042 -7.9453 8.999
v 17.042 -7.9453 0.6279
v 17.042 8.3066 0.6279
v 17.042 8.3066 8.999
v 46.0713 -7.9453 8.999
v 17.042 -7.9453 8.999
v 17.042 8.3066 8.999
v 46.0713 8.3066 8.999
v 46.0713 -7.9453 0.6279
v 46.0713 -7.9453 8.999
v 46.0713 8.3066 8.999
v 46.0713 8.3066 0.6279
vt 0.306 0.4712
vt 0.3192 0.4712
vt 0.3192 0.4255
vt 0.306 0.4255
vt 0.2902 0.4255
vt 0.2902 0.4712
vt 0.3034 0.4712
vt 0.3034 0.4255
vt 0.3158 0.3686
vt 0.3158 0.3228
vt 0.2902 0.3228
vt 0.2902 0.3686
vt 0.273 0.457
vt 0.2862 0.457
vt 0.2862 0.4314
vt 0.273 0.4314
vt 0.3158 0.4229
vt 0.3158 0.3771
vt 0.2902 0.3771
vt 0.2902 0.4229
vt 0.2559 0.457
vt 0.2691 0.457
vt 0.2691 0.4314
vt 0.2559 0.4314
vn 0 -1 0
vn 0 -1 0
vn 0 -1 0
vn 0 -1 0
vn 0 1 0
vn 0 1 0
vn 0 1 0
vn 0 1 0
vn 0 0 -1
vn 0 0 -1
vn 0 0 -1
vn 0 0 -1
vn -1 0 0
vn -1 0 0
vn -1 0 0
vn -1 0 0
vn 0 0 1
vn 0 0 1
vn 0 0 1
vn 0 0 1
vn 1 0 0
vn 1 0 0
vn 1 0 0
vn 1 0 0
g Box175_0
f 3/3/3 2/2/2 1/1/1
f 4/4/4 3/3/3 1/1/1
f 7/7/7 6/6/6 5/5/5
f 8/8/8 7/7/7 5/5/5
f 11/11/11 10/10/10 9/9/9
f 12/12/12 11/11/11 9/9/9
f 15/15/15 14/14/14 13/13/13
f 16/16/16 15/15/15 13/13/13
f 19/19/19 18/18/18 17/17/17
f 20/20/20 19/19/19 17/17/17
f 23/23/23 22/22/22 21/21/21
f 24/24/24 23/23/23 21/21/21
