g Box_Black
v 0.4556431 0.3337886 -0.01143682
v 0.4633344 0.3288684 -0.01143682
v 0.4633344 0.3337886 -0.01143682
v 0.4556431 0.3288684 -0.01143682
v 0.4633344 -0.3288683 -0.01143682
v -0.4556431 0.3337886 -0.01143682
v 0.4556431 -0.3288683 -0.01143682
v 0.4633344 -0.3337885 -0.01143682
v 0.4556431 -0.3337885 -0.01143682
v -0.4556431 0.3288684 -0.01143682
v -0.4633344 0.3337886 -0.01143682
v -0.4633344 0.3288684 -0.01143682
v -0.4556431 -0.3288683 -0.01143682
v -0.4556431 -0.3337885 -0.01143682
v -0.4633344 -0.3288683 -0.01143682
v -0.4633344 -0.3337885 -0.01143682
v 0.4556431 -0.3337886 0.5982508
v 0.4633344 -0.3288683 0.5982508
v 0.4633344 -0.3337886 0.5982508
v 0.4556431 -0.3288683 0.5982508
v 0.4633344 0.3288684 0.5982508
v -0.4556431 -0.3337886 0.5982508
v 0.4556431 0.3288684 0.5982508
v 0.4633344 0.3337886 0.5982508
v 0.4556431 0.3337886 0.5982508
v -0.4556431 -0.3288683 0.5982508
v -0.4633344 -0.3337886 0.5982508
v -0.4633344 -0.3288683 0.5982508
v -0.4556431 0.3288684 0.5982508
v -0.4556431 0.3337886 0.5982508
v -0.4633344 0.3288684 0.5982508
v -0.4633344 0.3337886 0.5982508
v 0.4556431 -0.3337885 -0.01143682
v 0.4633344 -0.3337885 -0.007421481
v 0.4633344 -0.3337885 -0.01143682
v 0.4556431 -0.3337885 -0.007421481
v 0.4633344 -0.3337886 0.5942354
v -0.4556431 -0.3337885 -0.01143682
v 0.4556431 -0.3337886 0.5942354
v 0.4633344 -0.3337886 0.5982508
v 0.4556431 -0.3337886 0.5982508
v -0.4556431 -0.3337885 -0.007421456
v -0.4633344 -0.3337885 -0.01143682
v -0.4633344 -0.3337885 -0.007421456
v -0.4556431 -0.3337886 0.5942354
v -0.4556431 -0.3337886 0.5982508
v -0.4633344 -0.3337886 0.5942354
v -0.4633344 -0.3337886 0.5982508
v -0.4556431 0.3337886 -0.01143682
v -0.4633344 0.3337886 -0.007421481
v -0.4633344 0.3337886 -0.01143682
v -0.4556431 0.3337886 -0.007421481
v -0.4633344 0.3337886 0.5942354
v 0.4556431 0.3337886 -0.01143682
v -0.4556431 0.3337886 0.5942354
v -0.4633344 0.3337886 0.5982508
v -0.4556431 0.3337886 0.5982508
v 0.4556431 0.3337886 -0.007421456
v 0.4633344 0.3337886 -0.01143682
v 0.4633344 0.3337886 -0.007421481
v 0.4556431 0.3337886 0.5942354
v 0.4556431 0.3337886 0.5982508
v 0.4633344 0.3337886 0.5942354
v 0.4633344 0.3337886 0.5982508
v 0.4633344 0.3288684 -0.01143682
v 0.4633344 0.3337886 -0.007421481
v 0.4633344 0.3337886 -0.01143682
v 0.4633344 0.3288684 -0.007421481
v 0.4633344 0.3337886 0.5942354
v 0.4633344 -0.3288683 -0.01143682
v 0.4633344 0.3288684 0.5942354
v 0.4633344 0.3337886 0.5982508
v 0.4633344 0.3288684 0.5982508
v 0.4633344 -0.3288683 -0.007421456
v 0.4633344 -0.3337885 -0.01143682
v 0.4633344 -0.3337885 -0.007421481
v 0.4633344 -0.3288683 0.5942354
v 0.4633344 -0.3288683 0.5982508
v 0.4633344 -0.3337886 0.5942354
v 0.4633344 -0.3337886 0.5982508
v -0.4633344 -0.3288683 -0.01143682
v -0.4633344 -0.3337885 -0.007421456
v -0.4633344 -0.3337885 -0.01143682
v -0.4633344 -0.3288683 -0.007421481
v -0.4633344 -0.3337886 0.5942354
v -0.4633344 0.3288684 -0.01143682
v -0.4633344 -0.3288683 0.5942354
v -0.4633344 -0.3337886 0.5982508
v -0.4633344 -0.3288683 0.5982508
v -0.4633344 0.3288684 -0.007421456
v -0.4633344 0.3337886 -0.01143682
v -0.4633344 0.3337886 -0.007421481
v -0.4633344 0.3288684 0.5942354
v -0.4633344 0.3288684 0.5982508
v -0.4633344 0.3337886 0.5942354
v -0.4633344 0.3337886 0.5982508
vt 0.3213052 0.5565446
vt 0.3239659 0.5584589
vt 0.3239659 0.5565446
vt 0.3213052 0.5584589
vt 0.3239658 0.7852737
vt 0.006017804 0.5565445
vt 0.3213051 0.7852737
vt 0.3239659 0.7871882
vt 0.3213051 0.7871882
vt 0.006017804 0.5584589
vt 0.003356695 0.5565445
vt 0.003356695 0.5584589
vt 0.006017685 0.7852736
vt 0.006017685 0.7871881
vt 0.003356695 0.7852736
vt 0.003356695 0.7871881
vt 0.3212096 0.5562889
vt 0.3238745 0.5579889
vt 0.3238726 0.5562879
vt 0.3212107 0.5579897
vt 0.3238767 0.7855023
vt 0.005986571 0.5562897
vt 0.3212121 0.7855029
vt 0.3238765 0.7872028
vt 0.3212136 0.7872027
vt 0.005987048 0.5579903
vt 0.003321528 0.5562891
vt 0.003319978 0.5579907
vt 0.005988479 0.7855037
vt 0.005991101 0.7872044
vt 0.003322243 0.7855045
vt 0.003326177 0.7872064
vt 0.321207 0.3453971
vt 0.3238686 0.346785
vt 0.3238674 0.3453962
vt 0.3212078 0.3467856
vt 0.3238702 0.5549002
vt 0.005989432 0.3453981
vt 0.3212087 0.5549009
vt 0.3238726 0.5562879
vt 0.3212096 0.5562889
vt 0.005987763 0.3467866
vt 0.003329158 0.3453963
vt 0.003326773 0.3467855
vt 0.005987644 0.5549018
vt 0.005986571 0.5562897
vt 0.003325581 0.5549011
vt 0.003321528 0.5562891
vt 0.006004453 0.9980984
vt 0.00334239 0.9967104
vt 0.003344178 0.9980994
vt 0.006003499 0.9967099
vt 0.003333926 0.7885951
vt 0.321222 0.9980923
vt 0.005995512 0.7885935
vt 0.003326177 0.7872064
vt 0.005991101 0.7872044
vt 0.3212223 0.9967037
vt 0.3238822 0.9980932
vt 0.3238833 0.9967044
vt 0.3212152 0.7885891
vt 0.3212136 0.7872027
vt 0.3238759 0.7885894
vt 0.3238765 0.7872028
vt 0.5347769 0.7854967
vt 0.5333873 0.7871987
vt 0.5347769 0.7871986
vt 0.5333874 0.7854969
vt 0.3252689 0.7872037
vt 0.5347725 0.5579823
vt 0.3252691 0.785502
vt 0.3238765 0.7872028
vt 0.3238767 0.7855023
vt 0.5333829 0.5579825
vt 0.5347724 0.5562803
vt 0.5333829 0.5562804
vt 0.3252654 0.5579879
vt 0.3238745 0.5579889
vt 0.3252647 0.556286
vt 0.3238726 0.5562879
vt 0.005447996 0.1093974
vt 0.006838215 0.1076955
vt 0.005447996 0.1076955
vt 0.006837976 0.1093973
vt 0.2149586 0.1076892
vt 0.005452764 0.3369122
vt 0.2149579 0.1093914
vt 0.2163543 0.1076894
vt 0.2163527 0.109391
vt 0.006842864 0.3369121
vt 0.005452883 0.3386143
vt 0.006842864 0.3386141
vt 0.2149618 0.3369062
vt 0.216355 0.3369048
vt 0.2149631 0.3386082
vt 0.2163589 0.3386066
vn 0 0.7071069 -0.7071066
vn 0.7071068 0 -0.7071068
vn 0.5773503 0.5773503 -0.5773503
vn 0 0 -1
vn 0.7071066 0 -0.7071069
vn 0 0.7071074 -0.7071061
vn 0 0 -1
vn 0.5773502 -0.5773503 -0.5773502
vn 0 -0.7071074 -0.7071061
vn 0 0 -1
vn -0.5773503 0.5773503 -0.5773503
vn -0.7071066 0 -0.7071069
vn 0 0 -1
vn 0 -0.707107 -0.7071065
vn -0.7071068 0 -0.7071068
vn -0.5773503 -0.5773503 -0.5773503
vn 0 -0.7071069 0.7071066
vn 0.7071066 0 0.7071068
vn 0.5773503 -0.5773503 0.5773503
vn 0 0 1
vn 0.7071066 0 0.7071069
vn 0 -0.7071074 0.7071061
vn 0 0 1
vn 0.5773502 0.5773503 0.5773502
vn 0 0.7071074 0.7071061
vn 0 0 1
vn -0.5773503 -0.5773503 0.5773503
vn -0.7071066 0 0.7071069
vn 0 0 1
vn 0 0.707107 0.7071065
vn -0.7071068 0 0.7071068
vn -0.5773503 0.5773503 0.5773503
vn 0 -0.7071074 -0.7071061
vn 0.7071076 -0.7071059 0
vn 0.5773502 -0.5773503 -0.5773502
vn 0 -1 0
vn 0.7071066 -0.7071069 0
vn 0 -0.707107 -0.7071065
vn 0 -1 0
vn 0.5773503 -0.5773503 0.5773503
vn 0 -0.7071069 0.7071066
vn 0 -1 0
vn -0.5773503 -0.5773503 -0.5773503
vn -0.7071066 -0.7071069 0
vn 0 -1 0
vn 0 -0.7071074 0.7071061
vn -0.7071077 -0.7071059 0
vn -0.5773503 -0.5773503 0.5773503
vn 0 0.7071074 -0.7071061
vn -0.7071076 0.7071059 0
vn -0.5773503 0.5773503 -0.5773503
vn 0 1 0
vn -0.7071066 0.7071069 0
vn 0 0.7071069 -0.7071066
vn 0 1 0
vn -0.5773503 0.5773503 0.5773503
vn 0 0.707107 0.7071065
vn 0 1 0
vn 0.5773503 0.5773503 -0.5773503
vn 0.7071066 0.7071069 0
vn 0 1 0
vn 0 0.7071074 0.7071061
vn 0.7071077 0.7071059 0
vn 0.5773502 0.5773503 0.5773502
vn 0.7071068 0 -0.7071068
vn 0.7071066 0.7071069 0
vn 0.5773503 0.5773503 -0.5773503
vn 1 0 0
vn 0.7071077 0.7071059 0
vn 0.7071066 0 -0.7071069
vn 1 0 0
vn 0.5773502 0.5773503 0.5773502
vn 0.7071066 0 0.7071069
vn 1 0 0
vn 0.5773502 -0.5773503 -0.5773502
vn 0.7071076 -0.7071059 0
vn 1 0 0
vn 0.7071066 0 0.7071068
vn 0.7071066 -0.7071069 0
vn 0.5773503 -0.5773503 0.5773503
vn -0.7071068 0 -0.7071068
vn -0.7071066 -0.7071069 0
vn -0.5773503 -0.5773503 -0.5773503
vn -1 0 0
vn -0.7071077 -0.7071059 0
vn -0.7071066 0 -0.7071069
vn -1 0 0
vn -0.5773503 -0.5773503 0.5773503
vn -0.7071066 0 0.7071069
vn -1 0 0
vn -0.5773503 0.5773503 -0.5773503
vn -0.7071076 0.7071059 0
vn -1 0 0
vn -0.7071068 0 0.7071068
vn -0.7071066 0.7071069 0
vn -0.5773503 0.5773503 0.5773503
g Box_Black_0
f 3/3/3 2/2/2 1/1/1
f 4/4/4 1/1/1 2/2/2
f 2/2/2 5/5/5 4/4/4
f 1/1/1 4/4/4 6/6/6
f 7/7/7 4/4/4 5/5/5
f 5/5/5 8/8/8 7/7/7
f 9/9/9 7/7/7 8/8/8
f 10/10/10 6/6/6 4/4/4
f 4/4/4 7/7/7 10/10/10
f 6/6/6 10/10/10 11/11/11
f 12/12/12 11/11/11 10/10/10
f 7/7/7 9/9/9 13/13/13
f 13/13/13 10/10/10 7/7/7
f 10/10/10 13/13/13 12/12/12
f 14/14/14 13/13/13 9/9/9
f 15/15/15 12/12/12 13/13/13
f 13/13/13 14/14/14 15/15/15
f 16/16/16 15/15/15 14/14/14
f 19/19/19 18/18/18 17/17/17
f 20/20/20 17/17/17 18/18/18
f 18/18/18 21/21/21 20/20/20
f 17/17/17 20/20/20 22/22/22
f 23/23/23 20/20/20 21/21/21
f 21/21/21 24/24/24 23/23/23
f 25/25/25 23/23/23 24/24/24
f 26/26/26 22/22/22 20/20/20
f 20/20/20 23/23/23 26/26/26
f 22/22/22 26/26/26 27/27/27
f 28/28/28 27/27/27 26/26/26
f 23/23/23 25/25/25 29/29/29
f 29/29/29 26/26/26 23/23/23
f 26/26/26 29/29/29 28/28/28
f 30/30/30 29/29/29 25/25/25
f 31/31/31 28/28/28 29/29/29
f 29/29/29 30/30/30 31/31/31
f 32/32/32 31/31/31 30/30/30
f 35/35/35 34/34/34 33/33/33
f 36/36/36 33/33/33 34/34/34
f 34/34/34 37/37/37 36/36/36
f 33/33/33 36/36/36 38/38/38
f 39/39/39 36/36/36 37/37/37
f 37/37/37 40/40/40 39/39/39
f 41/41/41 39/39/39 40/40/40
f 42/42/42 38/38/38 36/36/36
f 36/36/36 39/39/39 42/42/42
f 38/38/38 42/42/42 43/43/43
f 44/44/44 43/43/43 42/42/42
f 39/39/39 41/41/41 45/45/45
f 45/45/45 42/42/42 39/39/39
f 42/42/42 45/45/45 44/44/44
f 46/46/46 45/45/45 41/41/41
f 47/47/47 44/44/44 45/45/45
f 45/45/45 46/46/46 47/47/47
f 48/48/48 47/47/47 46/46/46
f 51/51/51 50/50/50 49/49/49
f 52/52/52 49/49/49 50/50/50
f 50/50/50 53/53/53 52/52/52
f 49/49/49 52/52/52 54/54/54
f 55/55/55 52/52/52 53/53/53
f 53/53/53 56/56/56 55/55/55
f 57/57/57 55/55/55 56/56/56
f 58/58/58 54/54/54 52/52/52
f 52/52/52 55/55/55 58/58/58
f 54/54/54 58/58/58 59/59/59
f 60/60/60 59/59/59 58/58/58
f 55/55/55 57/57/57 61/61/61
f 61/61/61 58/58/58 55/55/55
f 58/58/58 61/61/61 60/60/60
f 62/62/62 61/61/61 57/57/57
f 63/63/63 60/60/60 61/61/61
f 61/61/61 62/62/62 63/63/63
f 64/64/64 63/63/63 62/62/62
f 67/67/67 66/66/66 65/65/65
f 68/68/68 65/65/65 66/66/66
f 66/66/66 69/69/69 68/68/68
f 65/65/65 68/68/68 70/70/70
f 71/71/71 68/68/68 69/69/69
f 69/69/69 72/72/72 71/71/71
f 73/73/73 71/71/71 72/72/72
f 74/74/74 70/70/70 68/68/68
f 68/68/68 71/71/71 74/74/74
f 70/70/70 74/74/74 75/75/75
f 76/76/76 75/75/75 74/74/74
f 71/71/71 73/73/73 77/77/77
f 77/77/77 74/74/74 71/71/71
f 74/74/74 77/77/77 76/76/76
f 78/78/78 77/77/77 73/73/73
f 79/79/79 76/76/76 77/77/77
f 77/77/77 78/78/78 79/79/79
f 80/80/80 79/79/79 78/78/78
f 83/83/83 82/82/82 81/81/81
f 84/84/84 81/81/81 82/82/82
f 82/82/82 85/85/85 84/84/84
f 81/81/81 84/84/84 86/86/86
f 87/87/87 84/84/84 85/85/85
f 85/85/85 88/88/88 87/87/87
f 89/89/89 87/87/87 88/88/88
f 90/90/90 86/86/86 84/84/84
f 84/84/84 87/87/87 90/90/90
f 86/86/86 90/90/90 91/91/91
f 92/92/92 91/91/91 90/90/90
f 87/87/87 89/89/89 93/93/93
f 93/93/93 90/90/90 87/87/87
f 90/90/90 93/93/93 92/92/92
f 94/94/94 93/93/93 89/89/89
f 95/95/95 92/92/92 93/93/93
f 93/93/93 94/94/94 95/95/95
f 96/96/96 95/95/95 94/94/94
