g Box_Gray
v 0.3455876 -0.2248061 0.3562895
v -0.3455876 -0.2248061 -0.004544506
v -0.3455876 -0.2248061 0.3562895
v 0.3455876 -0.2248061 -0.004544525
v -0.3455876 0.2248062 0.3562895
v 0.3455876 0.2248062 -0.004544506
v 0.3455876 0.2248062 0.3562895
v -0.3455876 0.2248062 -0.004544525
v 0.3455876 0.2248062 -0.007590008
v 0.3514212 0.2210745 -0.007590008
v 0.3514212 0.2248062 -0.007590008
v 0.3455876 0.2210745 -0.007590008
v 0.3514212 -0.2210744 -0.007590008
v -0.3455876 0.2248062 -0.007590008
v 0.3455876 -0.2210744 -0.007590008
v 0.3514212 -0.2248061 -0.007590008
v 0.3455876 -0.2248061 -0.007590008
v -0.3455876 0.2210745 -0.007590008
v -0.3514212 0.2248062 -0.007590008
v -0.3514212 0.2210745 -0.007590008
v -0.3455876 -0.2210744 -0.007590008
v -0.3455876 -0.2248061 -0.007590008
v -0.3514212 -0.2210744 -0.007590008
v -0.3514212 -0.2248061 -0.007590008
v 0.3455876 -0.2248061 0.359335
v 0.3514212 -0.2210744 0.359335
v 0.3514212 -0.2248061 0.359335
v 0.3455876 -0.2210744 0.359335
v 0.3514212 0.2210745 0.359335
v -0.3455876 -0.2248061 0.359335
v 0.3455876 0.2210745 0.359335
v 0.3514212 0.2248062 0.359335
v 0.3455876 0.2248062 0.359335
v -0.3455876 -0.2210744 0.359335
v -0.3514212 -0.2248061 0.359335
v -0.3514212 -0.2210744 0.359335
v -0.3455876 0.2210745 0.359335
v -0.3455876 0.2248062 0.359335
v -0.3514212 0.2210745 0.359335
v -0.3514212 0.2248062 0.359335
v 0.3455876 -0.2248061 -0.007590008
v 0.3514212 -0.2248061 -0.004544525
v 0.3514212 -0.2248061 -0.007590008
v 0.3455876 -0.2248061 -0.004544525
v 0.3514212 -0.2248061 0.3562895
v -0.3455876 -0.2248061 -0.007590008
v 0.3455876 -0.2248061 0.3562895
v 0.3514212 -0.2248061 0.359335
v 0.3455876 -0.2248061 0.359335
v -0.3455876 -0.2248061 -0.004544506
v -0.3514212 -0.2248061 -0.007590008
v -0.3514212 -0.2248061 -0.004544506
v -0.3455876 -0.2248061 0.3562895
v -0.3455876 -0.2248061 0.359335
v -0.3514212 -0.2248061 0.3562895
v -0.3514212 -0.2248061 0.359335
v -0.3455876 0.2248062 -0.007590008
v -0.3514212 0.2248062 -0.004544525
v -0.3514212 0.2248062 -0.007590008
v -0.3455876 0.2248062 -0.004544525
v -0.3514212 0.2248062 0.3562895
v 0.3455876 0.2248062 -0.007590008
v -0.3455876 0.2248062 0.3562895
v -0.3514212 0.2248062 0.359335
v -0.3455876 0.2248062 0.359335
v 0.3455876 0.2248062 -0.004544506
v 0.3514212 0.2248062 -0.007590008
v 0.3514212 0.2248062 -0.004544525
v 0.3455876 0.2248062 0.3562895
v 0.3455876 0.2248062 0.359335
v 0.3514212 0.2248062 0.3562895
v 0.3514212 0.2248062 0.359335
v 0.3514212 0.2210745 -0.007590008
v 0.3514212 0.2248062 -0.004544525
v 0.3514212 0.2248062 -0.007590008
v 0.3514212 0.2210745 -0.004544525
v 0.3514212 0.2248062 0.3562895
v 0.3514212 -0.2210744 -0.007590008
v 0.3514212 0.2210745 0.3562895
v 0.3514212 0.2248062 0.359335
v 0.3514212 0.2210745 0.359335
v 0.3514212 -0.2210744 -0.004544506
v 0.3514212 -0.2248061 -0.007590008
v 0.3514212 -0.2248061 -0.004544525
v 0.3514212 -0.2210744 0.3562895
v 0.3514212 -0.2210744 0.359335
v 0.3514212 -0.2248061 0.3562895
v 0.3514212 -0.2248061 0.359335
v -0.3514212 -0.2210744 -0.007590008
v -0.3514212 -0.2248061 -0.004544506
v -0.3514212 -0.2248061 -0.007590008
v -0.3514212 -0.2210744 -0.004544525
v -0.3514212 -0.2248061 0.3562895
v -0.3514212 0.2210745 -0.007590008
v -0.3514212 -0.2210744 0.3562895
v -0.3514212 -0.2248061 0.359335
v -0.3514212 -0.2210744 0.359335
v -0.3514212 0.2210745 -0.004544506
v -0.3514212 0.2248062 -0.007590008
v -0.3514212 0.2248062 -0.004544525
v -0.3514212 0.2210745 0.3562895
v -0.3514212 0.2210745 0.359335
v -0.3514212 0.2248062 0.3562895
v -0.3514212 0.2248062 0.359335
vt 0.7746344 0.1412297
vt 0.9425203 0.00549507
vt 0.942517 0.1412348
vt 0.7746375 0.00548899
vt 0.9425136 0.1412501
vt 0.7746286 0.005514095
vt 0.7746304 0.1412532
vt 0.9425116 0.005508505
vt 0.7746662 0.143366
vt 0.776062 0.1412015
vt 0.7746662 0.1412015
vt 0.776062 0.1433661
vt 0.9414333 0.1412034
vt 0.7746633 0.399847
vt 0.9414333 0.1433678
vt 0.9428292 0.1412033
vt 0.9428292 0.1433678
vt 0.7760591 0.399847
vt 0.7746633 0.4020118
vt 0.7760591 0.4020118
vt 0.9414304 0.3998488
vt 0.9428262 0.3998488
vt 0.9414304 0.4020135
vt 0.9428262 0.4020135
vt 0.7745644 0.1435267
vt 0.775959 0.1413619
vt 0.7745636 0.1413628
vt 0.7759604 0.1435252
vt 0.9413093 0.1413586
vt 0.7745637 0.3999969
vt 0.9413108 0.1435247
vt 0.9427041 0.1413578
vt 0.942705 0.1435231
vt 0.7759591 0.3999955
vt 0.7745647 0.4021616
vt 0.7759603 0.4021605
vt 0.94131 0.3999954
vt 0.9427065 0.3999941
vt 0.9413114 0.4021594
vt 0.9427075 0.4021586
vt 0.9425964 0.1434468
vt 0.9412035 0.141282
vt 0.9425965 0.1412821
vt 0.9412035 0.1434465
vt 0.7761898 0.1412789
vt 0.9425918 0.3999306
vt 0.7761895 0.1434436
vt 0.7747968 0.1412787
vt 0.7747956 0.1434427
vt 0.9411989 0.3999302
vt 0.9425917 0.402095
vt 0.9411989 0.402095
vt 0.776186 0.399927
vt 0.7747942 0.3999262
vt 0.7761855 0.4020916
vt 0.774793 0.402091
vt 0.9425753 0.3999169
vt 0.9411827 0.4020817
vt 0.9425759 0.4020817
vt 0.9411826 0.3999171
vt 0.7761679 0.4020868
vt 0.9425654 0.1434327
vt 0.7761675 0.3999218
vt 0.7747739 0.4020875
vt 0.7747726 0.3999229
vt 0.941173 0.1434329
vt 0.9425653 0.1412678
vt 0.9411729 0.141268
vt 0.776161 0.1434375
vt 0.7747709 0.1434385
vt 0.7761607 0.1412727
vt 0.7747697 0.141273
vt 0.9412979 0.005201329
vt 0.9426935 0.006331759
vt 0.9426934 0.005201211
vt 0.9412981 0.006331759
vt 0.9427036 0.1402258
vt 0.7759474 0.005213157
vt 0.941308 0.1402261
vt 0.9427041 0.1413578
vt 0.9413093 0.1413586
vt 0.7759477 0.006342996
vt 0.7745519 0.005213512
vt 0.774552 0.006343114
vt 0.7759577 0.1402341
vt 0.775959 0.1413619
vt 0.7745623 0.1402347
vt 0.7745636 0.1413628
vt 0.7759672 0.5383154
vt 0.7745713 0.5371853
vt 0.7745715 0.5383156
vt 0.7759668 0.5371853
vt 0.7745659 0.4032922
vt 0.941318 0.5383106
vt 0.7759616 0.4032919
vt 0.7745647 0.4021616
vt 0.7759603 0.4021605
vt 0.9413177 0.5371805
vt 0.9427136 0.5383105
vt 0.9427136 0.5371805
vt 0.9413126 0.4032886
vt 0.9413114 0.4021594
vt 0.9427082 0.4032881
vt 0.9427075 0.4021586
vn 0 -1 0
vn 0 -1 0
vn 0 -1 0
vn 0 -1 0
vn 0 1 0
vn 0 1 0
vn 0 1 0
vn 0 1 0
vn 0 0.7071069 -0.7071066
vn 0.7071066 0 -0.7071068
vn 0.5773503 0.5773503 -0.5773503
vn 0 0 -1
vn 0.7071068 0 -0.7071066
vn 0 0.7071074 -0.7071061
vn 0 0 -1
vn 0.5773503 -0.5773503 -0.5773503
vn 0 -0.7071074 -0.7071061
vn 0 0 -1
vn -0.5773503 0.5773503 -0.5773503
vn -0.7071068 0 -0.7071066
vn 0 0 -1
vn 0 -0.7071069 -0.7071066
vn -0.7071068 0 -0.7071068
vn -0.5773503 -0.5773503 -0.5773503
vn 0 -0.7071069 0.7071066
vn 0.7071068 0 0.7071068
vn 0.5773503 -0.5773503 0.5773503
vn 0 0 1
vn 0.7071068 0 0.7071066
vn 0 -0.7071074 0.7071061
vn 0 0 1
vn 0.5773503 0.5773503 0.5773503
vn 0 0.7071074 0.7071061
vn 0 0 1
vn -0.5773503 -0.5773503 0.5773503
vn -0.7071068 0 0.7071066
vn 0 0 1
vn 0 0.7071069 0.7071066
vn -0.7071068 0 0.7071068
vn -0.5773503 0.5773503 0.5773503
vn 0 -0.7071074 -0.7071061
vn 0.7071066 -0.7071068 0
vn 0.5773503 -0.5773503 -0.5773503
vn 0 -1 0
vn 0.7071068 -0.7071068 0
vn 0 -0.7071069 -0.7071066
vn 0 -1 0
vn 0.5773503 -0.5773503 0.5773503
vn 0 -0.7071069 0.7071066
vn 0 -1 0
vn -0.5773503 -0.5773503 -0.5773503
vn -0.7071068 -0.7071068 0
vn 0 -1 0
vn 0 -0.7071074 0.7071061
vn -0.7071066 -0.7071069 0
vn -0.5773503 -0.5773503 0.5773503
vn 0 0.7071074 -0.7071061
vn -0.7071066 0.7071068 0
vn -0.5773503 0.5773503 -0.5773503
vn 0 1 0
vn -0.7071068 0.7071066 0
vn 0 0.7071069 -0.7071066
vn 0 1 0
vn -0.5773503 0.5773503 0.5773503
vn 0 0.7071069 0.7071066
vn 0 1 0
vn 0.5773503 0.5773503 -0.5773503
vn 0.7071068 0.7071068 0
vn 0 1 0
vn 0 0.7071074 0.7071061
vn 0.7071066 0.7071068 0
vn 0.5773503 0.5773503 0.5773503
vn 0.7071066 0 -0.7071068
vn 0.7071068 0.7071068 0
vn 0.5773503 0.5773503 -0.5773503
vn 1 0 0
vn 0.7071066 0.7071068 0
vn 0.7071068 0 -0.7071066
vn 1 0 0
vn 0.5773503 0.5773503 0.5773503
vn 0.7071068 0 0.7071066
vn 1 0 0
vn 0.5773503 -0.5773503 -0.5773503
vn 0.7071066 -0.7071068 0
vn 1 0 0
vn 0.7071068 0 0.7071068
vn 0.7071068 -0.7071068 0
vn 0.5773503 -0.5773503 0.5773503
vn -0.7071068 0 -0.7071068
vn -0.7071068 -0.7071068 0
vn -0.5773503 -0.5773503 -0.5773503
vn -1 0 0
vn -0.7071066 -0.7071069 0
vn -0.7071068 0 -0.7071066
vn -1 0 0
vn -0.5773503 -0.5773503 0.5773503
vn -0.7071068 0 0.7071066
vn -1 0 0
vn -0.5773503 0.5773503 -0.5773503
vn -0.7071066 0.7071068 0
vn -1 0 0
vn -0.7071068 0 0.7071068
vn -0.7071068 0.7071066 0
vn -0.5773503 0.5773503 0.5773503
g Box_Gray_0
f 3/3/3 2/2/2 1/1/1
f 4/4/4 1/1/1 2/2/2
f 7/7/7 6/6/6 5/5/5
f 8/8/8 5/5/5 6/6/6
f 11/11/11 10/10/10 9/9/9
f 12/12/12 9/9/9 10/10/10
f 10/10/10 13/13/13 12/12/12
f 9/9/9 12/12/12 14/14/14
f 15/15/15 12/12/12 13/13/13
f 13/13/13 16/16/16 15/15/15
f 17/17/17 15/15/15 16/16/16
f 18/18/18 14/14/14 12/12/12
f 12/12/12 15/15/15 18/18/18
f 14/14/14 18/18/18 19/19/19
f 20/20/20 19/19/19 18/18/18
f 15/15/15 17/17/17 21/21/21
f 21/21/21 18/18/18 15/15/15
f 18/18/18 21/21/21 20/20/20
f 22/22/22 21/21/21 17/17/17
f 23/23/23 20/20/20 21/21/21
f 21/21/21 22/22/22 23/23/23
f 24/24/24 23/23/23 22/22/22
f 27/27/27 26/26/26 25/25/25
f 28/28/28 25/25/25 26/26/26
f 26/26/26 29/29/29 28/28/28
f 25/25/25 28/28/28 30/30/30
f 31/31/31 28/28/28 29/29/29
f 29/29/29 32/32/32 31/31/31
f 33/33/33 31/31/31 32/32/32
f 34/34/34 30/30/30 28/28/28
f 28/28/28 31/31/31 34/34/34
f 30/30/30 34/34/34 35/35/35
f 36/36/36 35/35/35 34/34/34
f 31/31/31 33/33/33 37/37/37
f 37/37/37 34/34/34 31/31/31
f 34/34/34 37/37/37 36/36/36
f 38/38/38 37/37/37 33/33/33
f 39/39/39 36/36/36 37/37/37
f 37/37/37 38/38/38 39/39/39
f 40/40/40 39/39/39 38/38/38
f 43/43/43 42/42/42 41/41/41
f 44/44/44 41/41/41 42/42/42
f 42/42/42 45/45/45 44/44/44
f 41/41/41 44/44/44 46/46/46
f 47/47/47 44/44/44 45/45/45
f 45/45/45 48/48/48 47/47/47
f 49/49/49 47/47/47 48/48/48
f 50/50/50 46/46/46 44/44/44
f 46/46/46 50/50/50 51/51/51
f 52/52/52 51/51/51 50/50/50
f 47/47/47 49/49/49 53/53/53
f 50/50/50 53/53/53 52/52/52
f 54/54/54 53/53/53 49/49/49
f 55/55/55 52/52/52 53/53/53
f 53/53/53 54/54/54 55/55/55
f 56/56/56 55/55/55 54/54/54
f 59/59/59 58/58/58 57/57/57
f 60/60/60 57/57/57 58/58/58
f 58/58/58 61/61/61 60/60/60
f 57/57/57 60/60/60 62/62/62
f 63/63/63 60/60/60 61/61/61
f 61/61/61 64/64/64 63/63/63
f 65/65/65 63/63/63 64/64/64
f 66/66/66 62/62/62 60/60/60
f 62/62/62 66/66/66 67/67/67
f 68/68/68 67/67/67 66/66/66
f 63/63/63 65/65/65 69/69/69
f 66/66/66 69/69/69 68/68/68
f 70/70/70 69/69/69 65/65/65
f 71/71/71 68/68/68 69/69/69
f 69/69/69 70/70/70 71/71/71
f 72/72/72 71/71/71 70/70/70
f 75/75/75 74/74/74 73/73/73
f 76/76/76 73/73/73 74/74/74
f 74/74/74 77/77/77 76/76/76
f 73/73/73 76/76/76 78/78/78
f 79/79/79 76/76/76 77/77/77
f 77/77/77 80/80/80 79/79/79
f 81/81/81 79/79/79 80/80/80
f 82/82/82 78/78/78 76/76/76
f 76/76/76 79/79/79 82/82/82
f 78/78/78 82/82/82 83/83/83
f 84/84/84 83/83/83 82/82/82
f 79/79/79 81/81/81 85/85/85
f 85/85/85 82/82/82 79/79/79
f 82/82/82 85/85/85 84/84/84
f 86/86/86 85/85/85 81/81/81
f 87/87/87 84/84/84 85/85/85
f 85/85/85 86/86/86 87/87/87
f 88/88/88 87/87/87 86/86/86
f 91/91/91 90/90/90 89/89/89
f 92/92/92 89/89/89 90/90/90
f 90/90/90 93/93/93 92/92/92
f 89/89/89 92/92/92 94/94/94
f 95/95/95 92/92/92 93/93/93
f 93/93/93 96/96/96 95/95/95
f 97/97/97 95/95/95 96/96/96
f 98/98/98 94/94/94 92/92/92
f 92/92/92 95/95/95 98/98/98
f 94/94/94 98/98/98 99/99/99
f 100/100/100 99/99/99 98/98/98
f 95/95/95 97/97/97 101/101/101
f 101/101/101 98/98/98 95/95/95
f 98/98/98 101/101/101 100/100/100
f 102/102/102 101/101/101 97/97/97
f 103/103/103 100/100/100 101/101/101
f 101/101/101 102/102/102 103/103/103
f 104/104/104 103/103/103 102/102/102
