g BroomStick
v 3.126404E-06 1.480788 -0.01432824
v 0.01241495 0.06490688 -0.007162588
v 0.01241495 1.480788 -0.007162526
v 3.126404E-06 0.06490688 -0.01432831
v 0.01241495 1.480788 -0.007162526
v 0.01241495 0.06490688 0.007171974
v 0.01241495 1.480788 0.007172036
v 0.01241495 0.06490688 -0.007162588
v 0.01241495 0.06490688 0.007171974
v 3.126404E-06 1.480788 0.01433775
v 0.01241495 1.480788 0.007172036
v 3.126404E-06 0.06490688 0.01433769
v 0.2606874 0.04648454 0.02735916
v 0.2675154 0.03408845 0.02735604
v 0.2482912 0.05331232 0.02736229
v 0.1453418 0.05331232 0.02739981
v 0.2675154 -0.0005267026 0.02735603
v 0.03914414 0.06831163 0.02742169
v -0.2675123 -0.0005267026 0.02735603
v -0.03914727 0.06831163 0.02742169
v -0.145345 0.05331232 0.02739981
v -0.2675123 0.03408845 0.02735604
v -0.2482912 0.05331232 0.02736229
v -0.2606874 0.04648454 0.02735916
v 0.2482912 0.05331232 0.02736229
v 0.2606874 0.04648454 -0.02734978
v 0.2606874 0.04648454 0.02735916
v 0.2482912 0.05331232 -0.0273529
v 0.1453418 0.05331232 -0.02739667
v 0.1453418 0.05331232 0.02739981
v 0.03914414 0.06831163 -0.02742169
v 0.03914414 0.06831163 0.02742169
v -0.03914727 0.06831163 -0.02742169
v -0.03914727 0.06831163 0.02742169
v -0.145345 0.05331232 0.02739981
v -0.145345 0.05331232 -0.02739667
v -0.2482912 0.05331232 -0.0273529
v -0.2482912 0.05331232 0.02736229
v -0.2606874 0.04648454 0.02735916
v -0.2606874 0.04648454 -0.02734978
v 0.2675154 0.03408846 -0.02734665
v 0.2606874 0.04648454 0.02735916
v 0.2606874 0.04648454 -0.02734978
v 0.2675154 0.03408845 0.02735604
v 0.2675154 -0.0005267026 0.02735603
v 0.2675154 -0.0005267002 -0.02734665
v 0.2482912 0.05331232 -0.0273529
v 0.2675154 0.03408846 -0.02734665
v 0.2606874 0.04648454 -0.02734978
v 0.1453418 0.05331232 -0.02739667
v 0.2675154 -0.0005267002 -0.02734665
v 0.03914414 0.06831163 -0.02742169
v -0.03914727 0.06831163 -0.02742169
v -0.2675123 -0.0005267002 -0.02734665
v -0.145345 0.05331232 -0.02739667
v -0.2675123 0.03408846 -0.02734665
v -0.2482912 0.05331232 -0.0273529
v -0.2606874 0.04648454 -0.02734978
v 0.2675154 -0.0005267002 -0.02734665
v -0.2675123 -0.0005267026 0.02735603
v 0.2675154 -0.0005267026 0.02735603
v -0.2675123 -0.0005267002 -0.02734665
v -0.01241182 1.480788 -0.007162526
v 3.126404E-06 0.06490688 -0.01432831
v 3.126404E-06 1.480788 -0.01432824
v -0.01241182 0.06490688 -0.007162588
v -0.01241182 1.480788 0.007172036
v -0.01241182 0.06490688 -0.007162588
v -0.01241182 1.480788 -0.007162526
v -0.01241182 0.06490688 0.007171974
v -0.01241182 0.06490688 0.007171974
v 3.126404E-06 1.480788 0.01433775
v 3.126404E-06 0.06490688 0.01433769
v -0.01241182 1.480788 0.007172036
v -0.2606874 0.04648454 0.02735916
v -0.2675123 0.03408846 -0.02734665
v -0.2606874 0.04648454 -0.02734978
v -0.2675123 0.03408845 0.02735604
v -0.2675123 -0.0005267026 0.02735603
v -0.2675123 -0.0005267002 -0.02734665
v 3.126404E-06 1.480788 0.01433775
v 0.01241495 1.480788 -0.007162526
v 0.01241495 1.480788 0.007172036
v -0.01241182 1.480788 0.007172036
v -0.01241182 1.480788 -0.007162526
v 3.126404E-06 1.480788 -0.01432824
v -0.01241182 0.06490688 -0.007162588
v 0.01241495 0.06490688 -0.007162588
v 3.126404E-06 0.06490688 -0.01432831
v -0.01241182 0.06490688 0.007171974
v 0.01241495 0.06490688 0.007171974
v 3.126404E-06 0.06490688 0.01433769
vt 0.9895388 0.8177993
vt 0.9873407 0.6006692
vt 0.9873407 0.8177993
vt 0.9895388 0.6006692
vt 0.9873407 0.8177993
vt 0.9851426 0.6006692
vt 0.9851426 0.8177993
vt 0.9873407 0.6006692
vt 0.9851426 0.6006692
vt 0.9829444 0.8177993
vt 0.9851426 0.8177993
vt 0.9829444 0.6006692
vt 0.9594536 0.5828683
vt 0.9613522 0.5839196
vt 0.9584108 0.5809647
vt 0.9584486 0.5651773
vt 0.9666599 0.583932
vt 0.956188 0.5488855
vt 0.9668661 0.5018839
vt 0.9562181 0.5368776
vt 0.9585604 0.5205968
vt 0.9615579 0.5018693
vt 0.9586021 0.504809
vt 0.959654 0.502911
vt 0.9796225 0.5107432
vt 0.9880127 0.5085737
vt 0.979623 0.5085737
vt 0.9880133 0.5107432
vt 0.98802 0.5265303
vt 0.9796167 0.5265303
vt 0.9880241 0.5429772
vt 0.9796135 0.5429772
vt 0.9880241 0.5549837
vt 0.9796135 0.5549837
vt 0.9796167 0.5714307
vt 0.98802 0.5714307
vt 0.9880137 0.5872178
vt 0.9796225 0.5872178
vt 0.979623 0.5893878
vt 0.9880127 0.5893878
vt 0.9880124 0.5064037
vt 0.979623 0.5085737
vt 0.9880127 0.5085737
vt 0.9796233 0.5064037
vt 0.9796233 0.5010955
vt 0.9880124 0.5010955
vt 0.9462028 0.504991
vt 0.9491515 0.5020441
vt 0.9472504 0.5030903
vt 0.9462007 0.5207791
vt 0.9544597 0.5020454
vt 0.9438991 0.537065
vt 0.9438991 0.5490725
vt 0.9544571 0.5840932
vt 0.9461998 0.5653586
vt 0.9491487 0.5840937
vt 0.9462004 0.5811465
vt 0.9472476 0.5830475
vt 0.9769408 0.5840258
vt 0.9685517 0.5019776
vt 0.9685517 0.5840258
vt 0.9769408 0.5019776
vt 0.9917368 0.8177993
vt 0.9895388 0.6006692
vt 0.9895388 0.8177993
vt 0.9917368 0.6006692
vt 0.9939347 0.8177993
vt 0.9917368 0.6006692
vt 0.9917368 0.8177993
vt 0.9939347 0.6006692
vt 0.9939347 0.6006692
vt 0.9961326 0.8177993
vt 0.9961326 0.6006692
vt 0.9939347 0.8177993
vt 0.979623 0.5893878
vt 0.9880124 0.5915579
vt 0.9880127 0.5893878
vt 0.9796233 0.5915579
vt 0.9796233 0.5968663
vt 0.9880124 0.5968663
vt 0.9631122 0.8157045
vt 0.959815 0.8176081
vt 0.9620132 0.8176081
vt 0.9620132 0.8138008
vt 0.959815 0.8138008
vt 0.9587159 0.8157045
vt 0.8884015 0.6365148
vt 0.8884015 0.6327077
vt 0.8873024 0.634611
vt 0.8905999 0.6365148
vt 0.8905999 0.6327077
vt 0.8916987 0.634611
vn 5.625691E-05 0 -1
vn 0.8660208 0 -0.500008
vn 0.8660223 0 -0.5000054
vn 5.316807E-05 0 -1
vn 0.8660223 0 -0.5000054
vn 0.8660215 0 0.5000069
vn 0.8660216 0 0.5000066
vn 0.8660208 0 -0.500008
vn 0.8660215 0 0.5000069
vn 5.487665E-05 0 1
vn 0.8660216 0 0.5000066
vn 5.452643E-05 0 1
vn 0.0001624423 -0.0001628646 1
vn 0.0003388045 -8.117217E-06 1
vn 0.0003428414 1.753797E-05 1
vn 0.0001628955 -0.0004421995 0.9999999
vn 0.0002740469 -0.0002174032 1
vn 6.820805E-06 -0.0009311728 0.9999996
vn -0.0002740567 -0.0002174132 1
vn -6.820992E-06 -0.0009311727 0.9999996
vn -0.000162896 -0.0004422189 0.9999999
vn -0.000338809 -8.140134E-06 1
vn -0.0003428416 1.74827E-05 1
vn -0.0001624101 -0.0001629231 1
vn 0.2490307 0.9684956 0
vn 0.7070705 0.7071429 0
vn 0.7070706 0.7071429 0
vn 0.2490259 0.9684968 0
vn 0.07011288 0.997539 0
vn 0.07011088 0.9975393 0
vn 0.07009299 0.9975405 0
vn 0.07009363 0.9975404 0
vn -0.07009299 0.9975405 0
vn -0.07009363 0.9975404 0
vn -0.07011088 0.9975393 0
vn -0.07011288 0.997539 0
vn -0.2490259 0.9684968 0
vn -0.2490307 0.9684956 0
vn -0.7071387 0.7070748 0
vn -0.7071386 0.7070749 0
vn 0.9684766 0.2491047 0
vn 0.7070706 0.7071429 0
vn 0.7070705 0.7071429 0
vn 0.9684766 0.2491046 0
vn 1 0 0
vn 1 0 0
vn 0.0003970745 7.177213E-05 -1
vn 0.0003867974 6.458472E-06 -1
vn 0.0001624423 -0.0001628647 -1
vn 0.0001866225 -0.0005025281 -0.9999999
vn 0.0003132072 -0.0002483196 -1
vn 7.797737E-06 -0.001064115 -0.9999995
vn -7.797952E-06 -0.001064115 -0.9999995
vn -0.0003132183 -0.0002483315 -1
vn -0.000186623 -0.0005025502 -0.9999999
vn -0.0003868024 6.434307E-06 -1
vn -0.0003970745 7.170793E-05 -1
vn -0.00016241 -0.0001629232 -1
vn 0 -1 0
vn 0 -1 0
vn 0 -1 0
vn 0 -1 0
vn -0.8659937 0 -0.5000549
vn 5.316807E-05 0 -1
vn 5.625691E-05 0 -1
vn -0.865995 0 -0.5000527
vn -0.865995 0 0.5000527
vn -0.865995 0 -0.5000527
vn -0.8659937 0 -0.5000549
vn -0.8659937 0 0.500055
vn -0.8659937 0 0.500055
vn 5.487665E-05 0 1
vn 5.452643E-05 0 1
vn -0.865995 0 0.5000527
vn -0.7071387 0.7070748 0
vn -0.9685005 0.2490115 0
vn -0.7071386 0.7070749 0
vn -0.9685005 0.2490115 0
vn -1 0 0
vn -1 0 0
vn 0 1 0
vn 0 1 0
vn 0 1 0
vn 0 1 0
vn 0 1 0
vn 0 1 0
vn 0 -1 0
vn 0 -1 0
vn 0 -1 0
vn 0 -1 0
vn 0 -1 0
vn 0 -1 0
g BroomStick_0
f 3/3/3 2/2/2 1/1/1
f 4/4/4 1/1/1 2/2/2
f 7/7/7 6/6/6 5/5/5
f 8/8/8 5/5/5 6/6/6
f 11/11/11 10/10/10 9/9/9
f 12/12/12 9/9/9 10/10/10
f 15/15/15 14/14/14 13/13/13
f 16/16/16 14/14/14 15/15/15
f 17/17/17 14/14/14 16/16/16
f 17/17/17 16/16/16 18/18/18
f 17/17/17 18/18/18 19/19/19
f 20/20/20 19/19/19 18/18/18
f 19/19/19 20/20/20 21/21/21
f 19/19/19 21/21/21 22/22/22
f 21/21/21 23/23/23 22/22/22
f 23/23/23 24/24/24 22/22/22
f 27/27/27 26/26/26 25/25/25
f 28/28/28 25/25/25 26/26/26
f 28/28/28 29/29/29 25/25/25
f 30/30/30 25/25/25 29/29/29
f 29/29/29 31/31/31 30/30/30
f 32/32/32 30/30/30 31/31/31
f 31/31/31 33/33/33 32/32/32
f 34/34/34 32/32/32 33/33/33
f 34/34/34 33/33/33 35/35/35
f 36/36/36 35/35/35 33/33/33
f 36/36/36 37/37/37 35/35/35
f 38/38/38 35/35/35 37/37/37
f 38/38/38 37/37/37 39/39/39
f 40/40/40 39/39/39 37/37/37
f 43/43/43 42/42/42 41/41/41
f 44/44/44 41/41/41 42/42/42
f 44/44/44 45/45/45 41/41/41
f 46/46/46 41/41/41 45/45/45
f 49/49/49 48/48/48 47/47/47
f 47/47/47 48/48/48 50/50/50
f 51/51/51 50/50/50 48/48/48
f 51/51/51 52/52/52 50/50/50
f 52/52/52 51/51/51 53/53/53
f 54/54/54 53/53/53 51/51/51
f 54/54/54 55/55/55 53/53/53
f 54/54/54 56/56/56 55/55/55
f 56/56/56 57/57/57 55/55/55
f 58/58/58 57/57/57 56/56/56
f 61/61/61 60/60/60 59/59/59
f 62/62/62 59/59/59 60/60/60
f 65/65/65 64/64/64 63/63/63
f 66/66/66 63/63/63 64/64/64
f 69/69/69 68/68/68 67/67/67
f 70/70/70 67/67/67 68/68/68
f 73/73/73 72/72/72 71/71/71
f 74/74/74 71/71/71 72/72/72
f 77/77/77 76/76/76 75/75/75
f 78/78/78 75/75/75 76/76/76
f 78/78/78 76/76/76 79/79/79
f 80/80/80 79/79/79 76/76/76
f 83/83/83 82/82/82 81/81/81
f 81/81/81 82/82/82 84/84/84
f 84/84/84 82/82/82 85/85/85
f 85/85/85 82/82/82 86/86/86
f 89/89/89 88/88/88 87/87/87
f 87/87/87 88/88/88 90/90/90
f 88/88/88 91/91/91 90/90/90
f 90/90/90 91/91/91 92/92/92
