g Carpet
v 2.25798 0.01247713 1.219128
v 2.266403 0.01247713 1.210706
v 2.266403 0 1.210706
v 2.25798 0 1.219128
v 0 0 1.219128
v 0 0.01247713 1.219128
v 2.266403 0.01247713 -1.210706
v 2.25798 0.01247713 -1.219128
v 2.25798 0 -1.219128
v 0 0 -1.219128
v 0 0.01247713 -1.219128
v 2.266403 0.01247713 -1.210706
v 2.25798 0 -1.219128
v 2.266403 0 -1.210706
v 2.266403 0 1.210706
v 2.266403 0.01247713 1.210706
v 2.25798 0.01247713 -1.219128
v 0 0.0178237 -1.210706
v 0 0.01247713 -1.219128
v 2.25798 0.0178237 -1.210706
v 2.266403 0.01247713 -1.210706
v 2.266403 0.01247713 1.210706
v 2.25798 0.0178237 1.210706
v 0 0.0178237 1.210706
v 2.25798 0.01247713 1.219128
v 0 0.01247713 1.219128
v -2.25798 0.01247713 1.219128
v -2.25798 0 1.219128
v -2.266403 0 1.210706
v 0 0 1.219128
v 0 0.01247713 1.219128
v -2.25798 0.01247713 1.219128
v -2.266403 0 1.210706
v -2.266403 0.01247713 1.210706
v -2.266403 0.01247713 -1.210706
v -2.266403 0 -1.210706
v -2.266403 0.01247713 -1.210706
v -2.266403 0 -1.210706
v -2.25798 0 -1.219128
v -2.25798 0.01247713 -1.219128
v 0 0 -1.219128
v 0 0.01247713 -1.219128
v -2.25798 0.01247713 -1.219128
v 0 0.01247713 -1.219128
v 0 0.0178237 -1.210706
v -2.25798 0.0178237 -1.210706
v -2.266403 0.01247713 -1.210706
v -2.266403 0.01247713 1.210706
v -2.25798 0.0178237 1.210706
v 0 0.0178237 1.210706
v -2.25798 0.01247713 1.219128
v 0 0.01247713 1.219128
vt 0.0106317 0.004773717
vt 0.006822996 0.008528222
vt 0.002041702 0.006952203
vt 0.008962822 0
vt 0.9994905 0.0007906412
vt 0.999535 0.005573479
vt 0.004757349 0.9913966
vt 0.00852205 0.9951901
vt 0.006970362 1
vt 0.9991724 0.9998516
vt 0.9991004 0.9950691
vt 0.004757349 0.9913966
vt 0.006970362 1
vt 0 0.993108
vt 0.002041702 0.006952203
vt 0.006822996 0.008528222
vt 0.00852205 0.9951901
vt 0.9991105 0.9910408
vt 0.9991004 0.9950691
vt 0.008779001 0.9911627
vt 0.004757349 0.9913966
vt 0.006822996 0.008528222
vt 0.01084134 0.008804408
vt 0.999498 0.009601635
vt 0.0106317 0.004773717
vt 0.999535 0.005573479
vt 0.0106317 0.004773717
vt 0.008962822 0
vt 0.002041702 0.006952203
vt 0.9994905 0.0007906412
vt 0.999535 0.005573479
vt 0.0106317 0.004773717
vt 0.002041702 0.006952203
vt 0.006822996 0.008528222
vt 0.004757349 0.9913966
vt 0 0.993108
vt 0.004757349 0.9913966
vt 0 0.993108
vt 0.006970362 1
vt 0.00852205 0.9951901
vt 0.9991724 0.9998516
vt 0.9991004 0.9950691
vt 0.00852205 0.9951901
vt 0.9991004 0.9950691
vt 0.9991105 0.9910408
vt 0.008779001 0.9911627
vt 0.004757349 0.9913966
vt 0.006822996 0.008528222
vt 0.01084134 0.008804408
vt 0.999498 0.009601635
vt 0.0106317 0.004773717
vt 0.999535 0.005573479
vn 0.002653727 0.4265979 0.9044375
vn 0.9044076 0.4266625 0.002475153
vn 0.999994 0 0.00346641
vn 0.003716147 0 0.9999931
vn 0 0 1
vn 0 0.4272396 0.9041384
vn 0.9044076 0.4266626 -0.002475147
vn 0.002653615 0.4265781 -0.9044468
vn 0.00371595 0 -0.9999931
vn 0 0 -1
vn 0 0.4272198 -0.9041479
vn 0.9044076 0.4266626 -0.002475147
vn 0.00371595 0 -0.9999931
vn 0.999994 0 -0.003466411
vn 0.999994 0 0.00346641
vn 0.9044076 0.4266625 0.002475153
vn 0.002653615 0.4265781 -0.9044468
vn 0 0.9999976 -0.002200381
vn 0 0.4272198 -0.9041479
vn 0.002354216 0.9999949 -0.002195545
vn 0.9044076 0.4266626 -0.002475147
vn 0.9044076 0.4266625 0.002475153
vn 0.002354216 0.9999949 0.002195545
vn 0 0.9999976 0.002200381
vn 0.002653727 0.4265979 0.9044375
vn 0 0.4272396 0.9041384
vn -0.002653727 0.4265979 0.9044375
vn -0.003716147 0 0.9999931
vn -0.999994 0 0.00346641
vn 0 0 1
vn 0 0.4272396 0.9041384
vn -0.002653727 0.4265979 0.9044375
vn -0.999994 0 0.00346641
vn -0.9044076 0.4266625 0.002475153
vn -0.9044076 0.4266626 -0.002475147
vn -0.999994 0 -0.003466411
vn -0.9044076 0.4266626 -0.002475147
vn -0.999994 0 -0.003466411
vn -0.00371595 0 -0.9999931
vn -0.002653615 0.4265781 -0.9044468
vn 0 0 -1
vn 0 0.4272198 -0.9041479
vn -0.002653615 0.4265781 -0.9044468
vn 0 0.4272198 -0.9041479
vn 0 0.9999976 -0.002200381
vn -0.002354216 0.9999949 -0.002195545
vn -0.9044076 0.4266626 -0.002475147
vn -0.9044076 0.4266625 0.002475153
vn -0.002354216 0.9999949 0.002195545
vn 0 0.9999976 0.002200381
vn -0.002653727 0.4265979 0.9044375
vn 0 0.4272396 0.9041384
g Carpet_0
f 3/3/3 2/2/2 1/1/1
f 4/4/4 3/3/3 1/1/1
f 5/5/5 4/4/4 1/1/1
f 6/6/6 5/5/5 1/1/1
f 9/9/9 8/8/8 7/7/7
f 9/9/9 10/10/10 8/8/8
f 10/10/10 11/11/11 8/8/8
f 14/14/14 13/13/13 12/12/12
f 15/15/15 14/14/14 12/12/12
f 16/16/16 15/15/15 12/12/12
f 19/19/19 18/18/18 17/17/17
f 18/18/18 20/20/20 17/17/17
f 17/17/17 20/20/20 21/21/21
f 21/21/21 20/20/20 22/22/22
f 20/20/20 18/18/18 23/23/23
f 20/20/20 23/23/23 22/22/22
f 18/18/18 24/24/24 23/23/23
f 23/23/23 25/25/25 22/22/22
f 24/24/24 26/26/26 23/23/23
f 26/26/26 25/25/25 23/23/23
f 29/29/29 28/28/28 27/27/27
f 28/28/28 30/30/30 27/27/27
f 30/30/30 31/31/31 27/27/27
f 34/34/34 33/33/33 32/32/32
f 33/33/33 34/34/34 35/35/35
f 36/36/36 33/33/33 35/35/35
f 39/39/39 38/38/38 37/37/37
f 40/40/40 39/39/39 37/37/37
f 41/41/41 39/39/39 40/40/40
f 42/42/42 41/41/41 40/40/40
f 45/45/45 44/44/44 43/43/43
f 46/46/46 45/45/45 43/43/43
f 46/46/46 43/43/43 47/47/47
f 46/46/46 47/47/47 48/48/48
f 45/45/45 46/46/46 49/49/49
f 49/49/49 46/46/46 48/48/48
f 50/50/50 45/45/45 49/49/49
f 51/51/51 49/49/49 48/48/48
f 52/52/52 50/50/50 49/49/49
f 51/51/51 52/52/52 49/49/49
