g Chandelier_LOD1
v 0.8432782 -1.15571 -0.3492975
v 0.904949 -1.359668 0.1191393
v 0.904949 -1.15571 0.1191393
v -0.7241393 -1.359668 -0.5556519
v -0.904949 -1.15571 -0.1191391
v -0.904949 -1.359668 -0.1191391
v 0.05764822 3.356934E-05 -0.09984968
v -0.05764823 3.356934E-05 -0.09984964
v -1.732415E-08 3.356934E-05 -0.1152964
v 0.1152964 3.356934E-05 4.988512E-17
v 0.09984968 3.356934E-05 -0.05764822
v -0.05764826 3.356934E-05 0.09984962
v -0.1152964 3.356934E-05 -2.598623E-08
v -0.09984966 3.356934E-05 -0.05764823
v -0.09984967 3.356934E-05 0.05764819
v 0.05764816 3.356934E-05 0.09984969
v -5.197246E-08 3.356934E-05 0.1152964
v 0.09984962 3.356934E-05 0.05764829
v 0.03980072 0.008988037 -0.009442084
v 0.8251017 -1.166478 2.043918E-08
v 0.04434524 0.0119989 2.043918E-08
v 0.8205572 -1.169489 -0.009442084
v 0.03071167 0.002966309 -0.009442083
v 0.8205572 -1.169489 -0.009442084
v 0.03980072 0.008988037 -0.009442084
v 0.8114681 -1.175511 -0.009442083
v 0.02616714 -4.455566E-05 2.121956E-08
v 0.8114681 -1.175511 -0.009442083
v 0.03071167 0.002966309 -0.009442083
v 0.8069236 -1.178522 2.121956E-08
v 0.03071167 0.002966309 0.009442125
v 0.8069236 -1.178522 2.121956E-08
v 0.02616714 -4.455566E-05 2.121956E-08
v 0.8114681 -1.175511 0.009442125
v 0.03980072 0.008988037 0.009442125
v 0.8114681 -1.175511 0.009442125
v 0.03071167 0.002966309 0.009442125
v 0.8205572 -1.169489 0.009442125
v 0.04434524 0.0119989 2.043918E-08
v 0.8205572 -1.169489 0.009442125
v 0.03980072 0.008988037 0.009442125
v 0.8251017 -1.166478 2.043918E-08
v -0.01172328 0.008988037 0.03918948
v -0.4125509 -1.166478 0.714559
v -0.02217264 0.0119989 0.0384041
v -0.4021015 -1.169489 0.7153444
v -0.007178754 0.002966309 0.03131812
v -0.4021015 -1.169489 0.7153444
v -0.01172328 0.008988037 0.03918948
v -0.397557 -1.175511 0.707473
v -0.01308359 -4.455566E-05 0.0226614
v -0.397557 -1.175511 0.707473
v -0.007178754 0.002966309 0.03131812
v -0.4034618 -1.178522 0.6988163
v -0.02353296 0.002966309 0.02187602
v -0.4034618 -1.178522 0.6988163
v -0.01308359 -4.455566E-05 0.0226614
v -0.4139112 -1.175511 0.6980309
v -0.02807748 0.008988037 0.02974737
v -0.4139112 -1.175511 0.6980309
v -0.02353296 0.002966309 0.02187602
v -0.4184557 -1.169489 0.7059022
v -0.02217264 0.0119989 0.0384041
v -0.4184557 -1.169489 0.7059022
v -0.02807748 0.008988037 0.02974737
v -0.4125509 -1.166478 0.714559
v -0.02807744 0.008988037 -0.02974739
v -0.4125508 -1.166478 -0.7145591
v -0.0221726 0.0119989 -0.03840412
v -0.4184556 -1.169489 -0.7059023
v -0.02353291 0.002966309 -0.02187605
v -0.4184556 -1.169489 -0.7059023
v -0.02807744 0.008988037 -0.02974739
v -0.413911 -1.175511 -0.698031
v -0.01308355 -4.455566E-05 -0.02266142
v -0.413911 -1.175511 -0.698031
v -0.02353291 0.002966309 -0.02187605
v -0.4034617 -1.178522 -0.6988164
v -0.007178712 0.002966309 -0.03131815
v -0.4034617 -1.178522 -0.6988164
v -0.01308355 -4.455566E-05 -0.02266142
v -0.3975569 -1.175511 -0.7074731
v -0.01172324 0.008988037 -0.0391895
v -0.3975569 -1.175511 -0.7074731
v -0.007178712 0.002966309 -0.03131815
v -0.4021014 -1.169489 -0.7153444
v -0.0221726 0.0119989 -0.03840412
v -0.4021014 -1.169489 -0.7153444
v -0.01172324 0.008988037 -0.0391895
v -0.4125508 -1.166478 -0.7145591
v 0.904949 -1.359668 0.1191393
v 0.8432782 -1.15571 -0.3492975
v 0.8432782 -1.359668 -0.3492975
v 0.5556519 -1.15571 -0.7241394
v 0.5556519 -1.359668 -0.7241394
v 0.1191387 -1.15571 -0.9049491
v 0.7241392 -1.359668 0.5556521
v 0.904949 -1.15571 0.1191393
v 0.904949 -1.359668 0.1191393
v 0.7241392 -1.15571 0.5556521
v 0.3492967 -1.359668 0.8432786
v 0.3492967 -1.15571 0.8432786
v -0.1191392 -1.359668 0.904949
v 0.3492967 -1.15571 0.8432786
v 0.3492967 -1.359668 0.8432786
v -0.1191392 -1.15571 0.904949
v -0.5556521 -1.359668 0.7241392
v -0.5556521 -1.15571 0.7241392
v -0.8432785 -1.359668 0.3492969
v -0.5556521 -1.15571 0.7241392
v -0.8432785 -1.359668 0.3492969
v -0.8432785 -1.15571 0.3492969
v -0.904949 -1.359668 -0.1191391
v -0.904949 -1.15571 -0.1191391
v -0.904949 -1.15571 -0.1191391
v -0.7241393 -1.359668 -0.5556519
v -0.7241393 -1.15571 -0.5556519
v -0.3492972 -1.359668 -0.8432783
v -0.3492972 -1.15571 -0.8432783
v 0.1191387 -1.359668 -0.9049491
v 0.1191387 -1.15571 -0.9049491
v 0.5556519 -1.359668 -0.7241394
v 0.09984968 3.356934E-05 -0.05764822
v 0.08937693 -0.03105041 0.02394851
v 0.1152964 3.356934E-05 4.988512E-17
v 0.09984962 3.356934E-05 0.05764829
v 0.06542847 -0.03105041 -0.06542849
v 0.05764822 3.356934E-05 -0.09984968
v -1.732415E-08 3.356934E-05 -0.1152964
v 0.02394844 -0.03105041 0.08937696
v 0.05764816 3.356934E-05 0.09984969
v -5.197246E-08 3.356934E-05 0.1152964
v -0.02394848 -0.03105041 -0.08937694
v -0.05764823 3.356934E-05 -0.09984964
v -0.09984966 3.356934E-05 -0.05764823
v 9.768539E-10 -0.04424652 -1.506673E-09
v -0.06542847 -0.03105041 0.06542842
v -0.05764826 3.356934E-05 0.09984962
v -0.09984967 3.356934E-05 0.05764819
v -0.08937696 -0.03105041 -0.0239485
v -0.1152964 3.356934E-05 -2.598623E-08
v 0.3492967 -1.15571 0.8432786
v 0.6835784 -1.137088 0.5245289
v 0.7241392 -1.15571 0.5556521
v 0.904949 -1.15571 0.1191393
v 0.3297319 -1.137088 0.7960445
v -0.1191392 -1.15571 0.904949
v 0.8542607 -1.137088 0.1124659
v -0.5245287 -1.137088 0.6835785
v -0.3297322 -1.137088 -0.7960443
v -0.1124659 -1.137088 0.8542607
v -0.5556521 -1.15571 0.7241392
v -0.8432785 -1.15571 0.3492969
v 0.7960443 -1.137088 -0.3297324
v 0.8432782 -1.15571 -0.3492975
v 0.5245284 -1.137088 -0.6835788
v 0.5556519 -1.15571 -0.7241394
v 0.1124656 -1.137088 -0.8542607
v 0.1191387 -1.15571 -0.9049491
v -0.3492972 -1.15571 -0.8432783
v -0.7960445 -1.137088 0.329732
v -0.904949 -1.15571 -0.1191391
v -0.8542607 -1.137088 -0.1124659
v -0.7241393 -1.15571 -0.5556519
v -0.6835786 -1.137088 -0.5245286
v 0.904949 -1.359668 0.1191393
v 0.5005666 -1.526939 0.3840987
v 0.7241392 -1.359668 0.5556521
v 0.3492967 -1.359668 0.8432786
v 0.241454 -1.526939 0.5829225
v -0.1191392 -1.359668 0.904949
v -0.08235587 -1.526939 0.6255527
v -0.5556521 -1.359668 0.7241392
v 0.02699285 -1.633183 0.2050318
v -0.3840986 -1.526939 0.5005666
v -0.8432785 -1.359668 0.3492969
v -0.1640663 -1.633183 0.1258924
v -0.5829225 -1.526939 0.2414541
v -0.904949 -1.359668 -0.1191391
v -0.6255527 -1.526939 -0.08235584
v -0.7241393 -1.359668 -0.5556519
v -0.1910592 -1.633183 -0.0791394
v -0.5005668 -1.526939 -0.3840985
v -0.3492972 -1.359668 -0.8432783
v -8.34465E-09 -1.641303 -2.78155E-09
v 0.1910591 -1.633183 0.07913942
v -0.2414543 -1.526939 -0.5829223
v 0.1191387 -1.359668 -0.9049491
v -0.02699293 -1.633183 -0.2050318
v 0.08235562 -1.526939 -0.6255527
v 0.5556519 -1.359668 -0.7241394
v 0.1640662 -1.633183 -0.1258925
v 0.3840984 -1.526939 -0.5005668
v 0.8432782 -1.359668 -0.3492975
v 0.5829223 -1.526939 -0.2414544
v 0.6255527 -1.526939 0.08235584
vt 0.1418145 0.8951288
vt 0.07635941 0.9946093
vt 0.1418145 0.9946093
vt 0.07635941 0.3696898
vt 0.1418145 0.2377423
vt 0.07635941 0.2377423
vt 0.9025546 0.9953518
vt 0.8936814 0.9929063
vt 0.8977906 0.9953177
vt 0.909109 0.9888904
vt 0.9066974 0.9929991
vt 0.8979176 0.9775374
vt 0.8913633 0.9839988
vt 0.8913292 0.9887631
vt 0.8937746 0.9798903
vt 0.9067906 0.9799836
vt 0.9026817 0.9775715
vt 0.9091431 0.9841261
vt 0.9334927 0.4484388
vt 0.9300926 0.007631391
vt 0.9300929 0.4484391
vt 0.9334925 0.007631183
vt 0.937085 0.4484387
vt 0.9336851 0.007631212
vt 0.9336852 0.4484388
vt 0.9370849 0.007631026
vt 0.9406773 0.4484387
vt 0.9372775 0.007630929
vt 0.9372775 0.4484388
vt 0.9406773 0.007631011
vt 0.9227155 0.4484397
vt 0.9193155 0.007632084
vt 0.9193158 0.4484399
vt 0.9227154 0.007631786
vt 0.9263079 0.4484392
vt 0.9229079 0.007631712
vt 0.922908 0.4484397
vt 0.9263076 0.00763157
vt 0.9299003 0.4484391
vt 0.9265001 0.007631682
vt 0.9265006 0.4484392
vt 0.9299001 0.007631443
vt 0.9334926 0.4484388
vt 0.9300927 0.007631391
vt 0.9300929 0.4484391
vt 0.9334925 0.007631168
vt 0.937085 0.4484387
vt 0.9336852 0.007631212
vt 0.9336852 0.4484388
vt 0.937085 0.007631011
vt 0.9406773 0.4484387
vt 0.9372775 0.007630907
vt 0.9372775 0.4484387
vt 0.9406773 0.007631011
vt 0.9227154 0.4484397
vt 0.9193156 0.007632121
vt 0.9193157 0.4484399
vt 0.9227154 0.007631809
vt 0.926308 0.4484393
vt 0.9229079 0.007631712
vt 0.9229081 0.4484397
vt 0.9263076 0.00763157
vt 0.9299003 0.4484391
vt 0.9265001 0.007631719
vt 0.9265006 0.4484392
vt 0.9299001 0.007631473
vt 0.9334927 0.4484388
vt 0.9300927 0.007631384
vt 0.9300929 0.4484391
vt 0.9334925 0.00763119
vt 0.937085 0.4484387
vt 0.9336852 0.007631198
vt 0.9336852 0.4484388
vt 0.937085 0.007630996
vt 0.9406773 0.4484387
vt 0.9372775 0.007630929
vt 0.9372775 0.4484388
vt 0.9406773 0.007631004
vt 0.9227155 0.4484397
vt 0.9193155 0.007632099
vt 0.9193158 0.4484398
vt 0.9227154 0.007631771
vt 0.9263079 0.4484392
vt 0.9229079 0.007631697
vt 0.9229081 0.4484396
vt 0.9263076 0.00763157
vt 0.9299003 0.4484391
vt 0.9265001 0.007631682
vt 0.9265006 0.4484392
vt 0.9299 0.007631443
vt 0.07635941 0.9946093
vt 0.1418145 0.8951288
vt 0.07635941 0.8951288
vt 0.1418145 0.7636923
vt 0.07635941 0.7636923
vt 0.1418145 0.6323634
vt 0.005307708 0.3701916
vt 0.07076292 0.2382441
vt 0.005307708 0.2382441
vt 0.07076292 0.3701916
vt 0.005307708 0.5015414
vt 0.07076292 0.5015414
vt 0.005307708 0.6328658
vt 0.07076292 0.5015414
vt 0.005307708 0.5015414
vt 0.07076292 0.6328658
vt 0.005307708 0.7641947
vt 0.07076292 0.7641947
vt 0.005307708 0.8956313
vt 0.07076292 0.7641947
vt 0.005307708 0.8956313
vt 0.07076292 0.8956313
vt 0.005307708 0.9951116
vt 0.07076292 0.9951116
vt 0.1418145 0.2377423
vt 0.07635941 0.3696898
vt 0.1418145 0.3696898
vt 0.07635941 0.5010393
vt 0.1418145 0.5010393
vt 0.07635941 0.6323634
vt 0.1418145 0.6323634
vt 0.07635941 0.7636923
vt 0.8361163 0.1972367
vt 0.8510385 0.1722691
vt 0.8362685 0.1759447
vt 0.8470464 0.1575816
vt 0.8508322 0.2011231
vt 0.8466308 0.2157521
vt 0.8649941 0.2265297
vt 0.8761299 0.1580205
vt 0.8655617 0.1470673
vt 0.8868536 0.1472193
vt 0.8757178 0.2157286
vt 0.886286 0.2266819
vt 0.9048012 0.2161676
vt 0.8759238 0.1868746
vt 0.9010152 0.1726261
vt 0.9052166 0.157997
vt 0.9157313 0.1765124
vt 0.9008091 0.2014801
vt 0.9155789 0.1978044
vt 0.3957172 0.4311287
vt 0.5390517 0.4490511
vt 0.5437466 0.4318216
vt 0.6716637 0.506327
vt 0.4002615 0.4483954
vt 0.2672046 0.5045917
vt 0.6589956 0.5189145
vt 0.2100363 0.6372287
vt 0.5375651 0.9669124
vt 0.2797821 0.5172616
vt 0.1928033 0.6325628
vt 0.1924809 0.7805923
vt 0.7280909 0.6392968
vt 0.7453502 0.6347168
vt 0.7277937 0.7780797
vt 0.7450267 0.782746
vt 0.6580441 0.8980443
vt 0.6706215 0.9107144
vt 0.5421097 0.9841791
vt 0.2097401 0.7760122
vt 0.2661649 0.9089836
vt 0.2788334 0.8963963
vt 0.3940805 0.9834908
vt 0.3987751 0.9662614
vt 0.6421594 0.5340048
vt 0.6264355 0.6655223
vt 0.7058512 0.6442018
vt 0.7058916 0.7714792
vt 0.626469 0.7502271
vt 0.6423057 0.8817331
vt 0.5841373 0.8236216
vt 0.5321089 0.9454248
vt 0.513903 0.7342056
vt 0.5107995 0.8660061
vt 0.4048316 0.9454654
vt 0.4683911 0.7605076
vt 0.4260724 0.8660397
vt 0.2945779 0.8818792
vt 0.3526975 0.8237191
vt 0.2308859 0.7716823
vt 0.4228568 0.7342442
vt 0.3103018 0.7503618
vt 0.2308447 0.644405
vt 0.4683687 0.7079421
vt 0.5138806 0.68164
vt 0.3102678 0.6656571
vt 0.2944305 0.534151
vt 0.4228343 0.6816786
vt 0.3525993 0.5922625
vt 0.4046276 0.4704596
vt 0.4683461 0.6553766
vt 0.4259371 0.5498782
vt 0.5319051 0.4704189
vt 0.5106643 0.5498446
vt 0.5840397 0.592165
vn 0.9238795 0 -0.3826833
vn 0.9914449 0 0.1305265
vn 0.9914449 0 0.1305265
vn -0.7933532 0 -0.6087617
vn -0.9914448 0 -0.1305266
vn -0.9914448 0 -0.1305267
vn 0 1 0
vn 0 1 0
vn 0 1 0
vn 0 1 0
vn 0 1 0
vn 0 1 0
vn 0 1 0
vn 0 1 0
vn 0 1 0
vn 0 1 0
vn 0 1 0
vn 0 1 0
vn 0.4168236 0.2761511 -0.8660246
vn 0.833645 0.5523007 0
vn 0.8336449 0.5523007 1.485285E-06
vn 0.4168226 0.2761504 -0.8660253
vn -0.4168212 -0.2761495 -0.8660263
vn 0.4168226 0.2761504 -0.8660253
vn 0.4168236 0.2761511 -0.8660246
vn -0.4168232 -0.2761508 -0.8660249
vn -0.8336449 -0.5523007 -1.445911E-06
vn -0.4168232 -0.2761508 -0.8660249
vn -0.4168212 -0.2761495 -0.8660263
vn -0.833645 -0.5523007 1.533551E-06
vn -0.4168212 -0.2761495 0.8660263
vn -0.833645 -0.5523007 1.533551E-06
vn -0.8336449 -0.5523007 -1.445911E-06
vn -0.416822 -0.2761501 0.8660258
vn 0.4168226 0.2761504 0.8660253
vn -0.416822 -0.2761501 0.8660258
vn -0.4168212 -0.2761495 0.8660263
vn 0.4168228 0.2761506 0.8660253
vn 0.8336449 0.5523007 1.485285E-06
vn 0.4168228 0.2761506 0.8660253
vn 0.4168226 0.2761504 0.8660253
vn 0.833645 0.5523007 0
vn 0.5415887 0.2761504 0.7939916
vn -0.4168234 0.5523006 0.7219572
vn -0.4168237 0.5523007 0.721957
vn 0.5415909 0.276149 0.7939906
vn 0.9584116 -0.2761475 0.07203913
vn 0.5415909 0.276149 0.7939906
vn 0.5415887 0.2761504 0.7939916
vn 0.9584114 -0.2761495 0.07203548
vn 0.4168239 -0.5523007 -0.721957
vn 0.9584114 -0.2761495 0.07203548
vn 0.9584116 -0.2761475 0.07203913
vn 0.4168228 -0.5523007 -0.7219574
vn -0.5415902 -0.2761495 -0.793991
vn 0.4168228 -0.5523007 -0.7219574
vn 0.4168239 -0.5523007 -0.721957
vn -0.541589 -0.2761502 -0.7939914
vn -0.9584112 0.2761504 -0.07203368
vn -0.541589 -0.2761502 -0.7939914
vn -0.5415902 -0.2761495 -0.793991
vn -0.9584113 0.27615 -0.07203438
vn -0.4168237 0.5523007 0.721957
vn -0.9584113 0.27615 -0.07203438
vn -0.9584112 0.2761504 -0.07203368
vn -0.4168234 0.5523006 0.7219572
vn -0.9584112 0.276151 0.07203246
vn -0.4168235 0.5523006 -0.7219571
vn -0.4168223 0.5523006 -0.7219579
vn -0.9584114 0.2761494 0.07203544
vn -0.5415914 -0.2761488 0.7939903
vn -0.9584114 0.2761494 0.07203544
vn -0.9584112 0.276151 0.07203246
vn -0.5415877 -0.276151 0.793992
vn 0.4168212 -0.5523007 0.7219585
vn -0.5415877 -0.276151 0.793992
vn -0.5415914 -0.2761488 0.7939903
vn 0.4168241 -0.5523008 0.7219567
vn 0.9584114 -0.2761495 -0.07203529
vn 0.4168241 -0.5523008 0.7219567
vn 0.4168212 -0.5523007 0.7219585
vn 0.9584114 -0.2761494 -0.07203545
vn 0.5415887 0.2761504 -0.7939916
vn 0.9584114 -0.2761494 -0.07203545
vn 0.9584114 -0.2761495 -0.07203529
vn 0.5415894 0.2761499 -0.7939911
vn -0.4168223 0.5523006 -0.7219579
vn 0.5415894 0.2761499 -0.7939911
vn 0.5415887 0.2761504 -0.7939916
vn -0.4168235 0.5523006 -0.7219571
vn 0.9914449 0 0.1305265
vn 0.9238795 0 -0.3826833
vn 0.9238795 0 -0.3826833
vn 0.6087614 0 -0.7933533
vn 0.6087614 0 -0.7933533
vn 0.1305262 0 -0.9914449
vn 0.7933531 0 0.6087618
vn 0.9914449 0 0.1305265
vn 0.9914449 0 0.1305265
vn 0.7933531 0 0.6087617
vn 0.3826829 0 0.9238797
vn 0.3826829 0 0.9238797
vn -0.1305268 0 0.9914448
vn 0.3826829 0 0.9238797
vn 0.3826829 0 0.9238797
vn -0.1305268 0 0.9914448
vn -0.6087617 0 0.7933531
vn -0.6087617 0 0.7933531
vn -0.9238797 0 0.382683
vn -0.6087617 0 0.7933531
vn -0.9238797 0 0.382683
vn -0.9238797 0 0.3826831
vn -0.9914448 0 -0.1305267
vn -0.9914448 0 -0.1305266
vn -0.9914448 0 -0.1305266
vn -0.7933532 0 -0.6087617
vn -0.7933532 0 -0.6087617
vn -0.3826834 0 -0.9238795
vn -0.3826834 0 -0.9238795
vn 0.1305262 0 -0.9914449
vn 0.1305262 0 -0.9914449
vn 0.6087614 0 -0.7933533
vn 0.6734626 -0.6649201 -0.3230007
vn 0.5292961 -0.8364995 0.1418247
vn 0.744736 -0.6649202 -0.05700411
vn 0.6164581 -0.66492 0.4217355
vn 0.3874717 -0.8364995 -0.3874718
vn 0.3230004 -0.66492 -0.6734627
vn 0.0570042 -0.6649196 -0.7447366
vn 0.1418242 -0.8364993 0.5292964
vn 0.421735 -0.6649198 0.6164588
vn -0.05700478 -0.6649199 0.7447361
vn -0.1418244 -0.8364993 -0.5292965
vn -0.4217352 -0.6649197 -0.6164585
vn -0.6164584 -0.6649199 -0.4217354
vn 0 -1 0
vn -0.3874717 -0.8364996 0.3874715
vn -0.3230012 -0.6649201 0.6734623
vn -0.6734625 -0.6649201 0.3230008
vn -0.5292963 -0.8364993 -0.1418246
vn -0.7447364 -0.6649197 0.05700421
vn 0.1309697 0.9396121 0.3161899
vn 0.1598941 0.9794798 0.1226913
vn 0.2715189 0.9396118 0.2083438
vn 0.3393138 0.9396119 0.0446718
vn 0.07712668 0.9794799 0.1862003
vn -0.04467164 0.9396119 0.3393139
vn 0.1998178 0.9794798 0.02630644
vn -0.1226912 0.9794798 0.159894
vn -0.07712679 0.9794798 -0.1862005
vn -0.02630662 0.9794798 0.1998179
vn -0.2083438 0.9396119 0.2715187
vn -0.3161902 0.9396119 0.1309701
vn 0.1862008 0.9794798 -0.07712674
vn 0.3161905 0.9396118 -0.1309706
vn 0.122691 0.9794798 -0.1598943
vn 0.2083439 0.9396118 -0.2715188
vn 0.02630666 0.9794799 -0.1998177
vn 0.04467133 0.939612 -0.3393137
vn -0.1309702 0.9396119 -0.3161902
vn -0.1862006 0.9794798 0.0771267
vn -0.3393139 0.9396119 -0.04467168
vn -0.1998179 0.9794798 -0.02630661
vn -0.2715189 0.9396117 -0.208344
vn -0.1598942 0.9794798 -0.1226912
vn 0.5060542 -0.8599247 0.06662349
vn 0.3157317 -0.916848 0.2443424
vn 0.4049441 -0.8599247 0.3107248
vn 0.1953293 -0.8599247 0.4715675
vn 0.1542988 -0.9168481 0.368214
vn -0.06662355 -0.8599247 0.5060542
vn -0.05374084 -0.916848 0.3956029
vn -0.3107248 -0.8599247 0.4049441
vn 0.02063142 -0.9874288 0.1567118
vn -0.2417332 -0.9168481 0.3177337
vn -0.4715676 -0.8599247 0.1953294
vn -0.1254007 -0.9874288 0.09622323
vn -0.3694724 -0.9168481 0.1512605
vn -0.5060542 -0.8599247 -0.06662349
vn -0.3960322 -0.916848 -0.05048021
vn -0.4049442 -0.8599247 -0.3107248
vn -0.1460321 -0.9874288 -0.06048853
vn -0.3157318 -0.916848 -0.2443423
vn -0.1953296 -0.8599247 -0.4715675
vn 0 -1 0
vn 0.1460321 -0.9874288 0.06048852
vn -0.1542989 -0.9168481 -0.3682139
vn 0.06662326 -0.8599247 -0.5060542
vn -0.02063145 -0.9874288 -0.1567118
vn 0.05374067 -0.916848 -0.3956029
vn 0.3107246 -0.8599247 -0.4049442
vn 0.1254007 -0.9874288 -0.09622328
vn 0.241733 -0.916848 -0.3177339
vn 0.4715675 -0.8599247 -0.1953297
vn 0.3694725 -0.916848 -0.1512606
vn 0.3960321 -0.9168481 0.05048015
g Chandelier_LOD1_0
f 3/3/3 2/2/2 1/1/1
f 6/6/6 5/5/5 4/4/4
f 9/9/9 8/8/8 7/7/7
f 8/8/8 10/10/10 7/7/7
f 7/7/7 10/10/10 11/11/11
f 12/12/12 10/10/10 8/8/8
f 13/13/13 12/12/12 8/8/8
f 14/14/14 13/13/13 8/8/8
f 15/15/15 12/12/12 13/13/13
f 16/16/16 10/10/10 12/12/12
f 17/17/17 16/16/16 12/12/12
f 18/18/18 10/10/10 16/16/16
f 21/21/21 20/20/20 19/19/19
f 22/22/22 19/19/19 20/20/20
f 25/25/25 24/24/24 23/23/23
f 26/26/26 23/23/23 24/24/24
f 29/29/29 28/28/28 27/27/27
f 30/30/30 27/27/27 28/28/28
f 33/33/33 32/32/32 31/31/31
f 34/34/34 31/31/31 32/32/32
f 37/37/37 36/36/36 35/35/35
f 38/38/38 35/35/35 36/36/36
f 41/41/41 40/40/40 39/39/39
f 42/42/42 39/39/39 40/40/40
f 45/45/45 44/44/44 43/43/43
f 46/46/46 43/43/43 44/44/44
f 49/49/49 48/48/48 47/47/47
f 50/50/50 47/47/47 48/48/48
f 53/53/53 52/52/52 51/51/51
f 54/54/54 51/51/51 52/52/52
f 57/57/57 56/56/56 55/55/55
f 58/58/58 55/55/55 56/56/56
f 61/61/61 60/60/60 59/59/59
f 62/62/62 59/59/59 60/60/60
f 65/65/65 64/64/64 63/63/63
f 66/66/66 63/63/63 64/64/64
f 69/69/69 68/68/68 67/67/67
f 70/70/70 67/67/67 68/68/68
f 73/73/73 72/72/72 71/71/71
f 74/74/74 71/71/71 72/72/72
f 77/77/77 76/76/76 75/75/75
f 78/78/78 75/75/75 76/76/76
f 81/81/81 80/80/80 79/79/79
f 82/82/82 79/79/79 80/80/80
f 85/85/85 84/84/84 83/83/83
f 86/86/86 83/83/83 84/84/84
f 89/89/89 88/88/88 87/87/87
f 90/90/90 87/87/87 88/88/88
f 93/93/93 92/92/92 91/91/91
f 92/92/92 93/93/93 94/94/94
f 95/95/95 94/94/94 93/93/93
f 94/94/94 95/95/95 96/96/96
f 99/99/99 98/98/98 97/97/97
f 100/100/100 97/97/97 98/98/98
f 97/97/97 100/100/100 101/101/101
f 102/102/102 101/101/101 100/100/100
f 105/105/105 104/104/104 103/103/103
f 106/106/106 103/103/103 104/104/104
f 103/103/103 106/106/106 107/107/107
f 108/108/108 107/107/107 106/106/106
f 107/107/107 108/108/108 109/109/109
f 112/112/112 111/111/111 110/110/110
f 111/111/111 112/112/112 113/113/113
f 114/114/114 113/113/113 112/112/112
f 117/117/117 116/116/116 115/115/115
f 116/116/116 117/117/117 118/118/118
f 119/119/119 118/118/118 117/117/117
f 118/118/118 119/119/119 120/120/120
f 121/121/121 120/120/120 119/119/119
f 120/120/120 121/121/121 122/122/122
f 125/125/125 124/124/124 123/123/123
f 125/125/125 126/126/126 124/124/124
f 127/127/127 123/123/123 124/124/124
f 128/128/128 123/123/123 127/127/127
f 128/128/128 127/127/127 129/129/129
f 124/124/124 126/126/126 130/130/130
f 131/131/131 130/130/130 126/126/126
f 131/131/131 132/132/132 130/130/130
f 133/133/133 129/129/129 127/127/127
f 134/134/134 129/129/129 133/133/133
f 134/134/134 133/133/133 135/135/135
f 124/124/124 136/136/136 127/127/127
f 130/130/130 136/136/136 124/124/124
f 127/127/127 136/136/136 133/133/133
f 130/130/130 132/132/132 137/137/137
f 137/137/137 136/136/136 130/130/130
f 138/138/138 137/137/137 132/132/132
f 138/138/138 139/139/139 137/137/137
f 140/140/140 135/135/135 133/133/133
f 133/133/133 136/136/136 140/140/140
f 140/140/140 136/136/136 137/137/137
f 137/137/137 139/139/139 140/140/140
f 141/141/141 135/135/135 140/140/140
f 141/141/141 140/140/140 139/139/139
f 144/144/144 143/143/143 142/142/142
f 144/144/144 145/145/145 143/143/143
f 146/146/146 142/142/142 143/143/143
f 142/142/142 146/146/146 147/147/147
f 148/148/148 143/143/143 145/145/145
f 143/143/143 148/148/148 146/146/146
f 146/146/146 148/148/148 149/149/149
f 149/149/149 148/148/148 150/150/150
f 151/151/151 147/147/147 146/146/146
f 151/151/151 146/146/146 149/149/149
f 147/147/147 151/151/151 152/152/152
f 149/149/149 152/152/152 151/151/151
f 152/152/152 149/149/149 153/153/153
f 148/148/148 145/145/145 154/154/154
f 155/155/155 154/154/154 145/145/145
f 156/156/156 148/148/148 154/154/154
f 154/154/154 155/155/155 156/156/156
f 150/150/150 148/148/148 156/156/156
f 157/157/157 156/156/156 155/155/155
f 156/156/156 157/157/157 158/158/158
f 158/158/158 150/150/150 156/156/156
f 159/159/159 158/158/158 157/157/157
f 158/158/158 159/159/159 150/150/150
f 160/160/160 150/150/150 159/159/159
f 161/161/161 153/153/153 149/149/149
f 153/153/153 161/161/161 162/162/162
f 161/161/161 149/149/149 163/163/163
f 163/163/163 162/162/162 161/161/161
f 163/163/163 149/149/149 150/150/150
f 162/162/162 163/163/163 164/164/164
f 164/164/164 165/165/165 160/160/160
f 150/150/150 160/160/160 165/165/165
f 165/165/165 164/164/164 163/163/163
f 165/165/165 163/163/163 150/150/150
f 168/168/168 167/167/167 166/166/166
f 168/168/168 169/169/169 167/167/167
f 170/170/170 167/167/167 169/169/169
f 169/169/169 171/171/171 170/170/170
f 172/172/172 170/170/170 171/171/171
f 171/171/171 173/173/173 172/172/172
f 170/170/170 174/174/174 167/167/167
f 172/172/172 174/174/174 170/170/170
f 175/175/175 172/172/172 173/173/173
f 173/173/173 176/176/176 175/175/175
f 175/175/175 177/177/177 172/172/172
f 174/174/174 172/172/172 177/177/177
f 178/178/178 175/175/175 176/176/176
f 178/178/178 177/177/177 175/175/175
f 176/176/176 179/179/179 178/178/178
f 180/180/180 178/178/178 179/179/179
f 179/179/179 181/181/181 180/180/180
f 177/177/177 178/178/178 182/182/182
f 180/180/180 182/182/182 178/178/178
f 183/183/183 180/180/180 181/181/181
f 183/183/183 182/182/182 180/180/180
f 181/181/181 184/184/184 183/183/183
f 177/177/177 185/185/185 174/174/174
f 182/182/182 185/185/185 177/177/177
f 186/186/186 167/167/167 174/174/174
f 174/174/174 185/185/185 186/186/186
f 187/187/187 183/183/183 184/184/184
f 184/184/184 188/188/188 187/187/187
f 182/182/182 183/183/183 189/189/189
f 189/189/189 185/185/185 182/182/182
f 187/187/187 189/189/189 183/183/183
f 190/190/190 187/187/187 188/188/188
f 190/190/190 189/189/189 187/187/187
f 188/188/188 191/191/191 190/190/190
f 192/192/192 185/185/185 189/189/189
f 189/189/189 190/190/190 192/192/192
f 186/186/186 185/185/185 192/192/192
f 193/193/193 190/190/190 191/191/191
f 193/193/193 192/192/192 190/190/190
f 191/191/191 194/194/194 193/193/193
f 195/195/195 192/192/192 193/193/193
f 195/195/195 193/193/193 194/194/194
f 192/192/192 195/195/195 186/186/186
f 194/194/194 166/166/166 195/195/195
f 196/196/196 186/186/186 195/195/195
f 196/196/196 195/195/195 166/166/166
f 167/167/167 186/186/186 196/196/196
f 196/196/196 166/166/166 167/167/167
