g Closet_Metal
v 0.7819999 0.2749999 2.016289
v -0.7819999 0.2749999 2.016289
v -0.7819999 0.275 0.01628872
v 0.7819999 0.275 0.01628872
v 0.7496254 0.2289999 1.968789
v -0.7480008 0.229 0.06378872
v -0.7480008 0.2289999 1.968789
v 0.7496254 0.229 0.06378872
v 0.7819999 -0.2749999 0.01628872
v -0.7819999 0.275 0.01628872
v -0.7819999 -0.2749999 0.01628872
v 0.7819999 0.275 0.01628872
v 0.7819999 0.2749999 2.016289
v 0.7819999 0.275 0.01628872
v 0.7819999 -0.2749999 0.01628872
v 0.7819999 -0.275 2.016289
v 0.7819999 0.2749999 2.016289
v -0.7819999 -0.275 2.016289
v -0.7819999 0.2749999 2.016289
v 0.7819999 -0.275 2.016289
v -0.7819999 -0.2749999 0.01628872
v -0.7819999 0.2749999 2.016289
v -0.7819999 -0.275 2.016289
v -0.7819999 0.275 0.01628872
v 0.7496254 0.229 0.06378872
v -0.7480008 -0.2749999 0.06378872
v -0.7480008 0.229 0.06378872
v 0.7496254 -0.2749999 0.06378872
v 0.7496254 0.2289999 1.968789
v 0.7496254 -0.275 1.968789
v 0.7496254 -0.2749999 0.06378872
v 0.7496254 0.229 0.06378872
v -0.7480008 0.2289999 1.968789
v -0.7480008 -0.275 1.968789
v 0.7496254 -0.275 1.968789
v 0.7496254 0.2289999 1.968789
v -0.7480008 0.2289999 1.968789
v -0.7480008 0.229 0.06378872
v -0.7480008 -0.2749999 0.06378872
v -0.7480008 -0.275 1.968789
v 0.7542819 0.2493997 0.02501106
v 0.6742819 0.2493997 0.02501106
v 0.6742819 0.2493997 -0.004988937
v 0.7542819 0.2493997 -0.004988937
v 0.7542819 0.1693997 0.02501106
v 0.6742819 0.1693997 -0.004988937
v 0.6742819 0.1693997 0.02501106
v 0.7542819 0.1693997 -0.004988937
v 0.7542819 0.1693997 -0.004988937
v 0.6742819 0.2493997 -0.004988937
v 0.6742819 0.1693997 -0.004988937
v 0.7542819 0.2493997 -0.004988937
v 0.7542819 0.1693997 0.02501106
v 0.7542819 0.2493997 0.02501106
v 0.7542819 0.2493997 -0.004988937
v 0.7542819 0.1693997 -0.004988937
v 0.6742819 0.2493997 -0.004988937
v 0.6742819 0.2493997 0.02501106
v 0.6742819 0.1693997 -0.004988937
v 0.6742819 0.1693997 0.02501106
v 0.7542819 -0.1726599 0.02501106
v 0.6742819 -0.1726599 0.02501106
v 0.6742819 -0.1726599 -0.004988937
v 0.7542819 -0.1726599 -0.004988937
v 0.7542819 -0.2526599 0.02501106
v 0.6742819 -0.2526599 -0.004988937
v 0.6742819 -0.2526599 0.02501106
v 0.7542819 -0.2526599 -0.004988937
v 0.7542819 -0.2526599 -0.004988937
v 0.6742819 -0.1726599 -0.004988937
v 0.6742819 -0.2526599 -0.004988937
v 0.7542819 -0.1726599 -0.004988937
v 0.7542819 -0.2526599 0.02501106
v 0.7542819 -0.1726599 0.02501106
v 0.7542819 -0.1726599 -0.004988937
v 0.7542819 -0.2526599 -0.004988937
v 0.6742819 -0.1726599 -0.004988937
v 0.6742819 -0.1726599 0.02501106
v 0.6742819 -0.2526599 -0.004988937
v 0.6742819 -0.2526599 0.02501106
v -0.6739555 0.2493997 0.02501106
v -0.7539555 0.2493997 0.02501106
v -0.7539555 0.2493997 -0.004988937
v -0.6739555 0.2493997 -0.004988937
v -0.6739555 0.1693997 0.02501106
v -0.7539555 0.1693997 -0.004988937
v -0.7539555 0.1693997 0.02501106
v -0.6739555 0.1693997 -0.004988937
v -0.6739555 0.1693997 -0.004988937
v -0.7539555 0.2493997 -0.004988937
v -0.7539555 0.1693997 -0.004988937
v -0.6739555 0.2493997 -0.004988937
v -0.6739555 0.1693997 0.02501106
v -0.6739555 0.2493997 0.02501106
v -0.6739555 0.2493997 -0.004988937
v -0.6739555 0.1693997 -0.004988937
v -0.7539555 0.2493997 -0.004988937
v -0.7539555 0.2493997 0.02501106
v -0.7539555 0.1693997 -0.004988937
v -0.7539555 0.1693997 0.02501106
v -0.6739555 -0.1726599 0.02501106
v -0.7539555 -0.1726599 0.02501106
v -0.7539555 -0.1726599 -0.004988937
v -0.6739555 -0.1726599 -0.004988937
v -0.6739555 -0.2526599 0.02501106
v -0.7539555 -0.2526599 -0.004988937
v -0.7539555 -0.2526599 0.02501106
v -0.6739555 -0.2526599 -0.004988937
v -0.6739555 -0.2526599 -0.004988937
v -0.7539555 -0.1726599 -0.004988937
v -0.7539555 -0.2526599 -0.004988937
v -0.6739555 -0.1726599 -0.004988937
v -0.6739555 -0.2526599 0.02501106
v -0.6739555 -0.1726599 0.02501106
v -0.6739555 -0.1726599 -0.004988937
v -0.6739555 -0.2526599 -0.004988937
v -0.7539555 -0.1726599 -0.004988937
v -0.7539555 -0.1726599 0.02501106
v -0.7539555 -0.2526599 -0.004988937
v -0.7539555 -0.2526599 0.02501106
v -0.7480008 -0.2749999 0.06378872
v 0.7496254 -0.2749999 0.06378872
v 0.7819999 -0.2749999 0.01628872
v 0.7496254 -0.275 1.968789
v -0.7819999 -0.2749999 0.01628872
v 0.7819999 -0.275 2.016289
v -0.7819999 -0.275 2.016289
v -0.7480008 -0.275 1.968789
vt 0.433866 0.9670045
vt 0.6865782 0.9670045
vt 0.6865782 0.6438432
vt 0.433866 0.6438432
vt 0.6848586 0.9647533
vt 0.435481 0.6475416
vt 0.435481 0.9647533
vt 0.6848586 0.6475416
vt 0.4323688 0.9674851
vt 0.6896422 0.03534074
vt 0.4323691 0.03534053
vt 0.6896417 0.9674853
vt 0.6887518 0.9682707
vt 0.6887518 0.0344706
vt 0.4319568 0.0344706
vt 0.4319569 0.9682707
vt 0.4323685 0.9674851
vt 0.6896421 0.03534074
vt 0.4323688 0.03534068
vt 0.6896417 0.9674853
vt 0.6887522 0.03447063
vt 0.4319568 0.9682707
vt 0.6887521 0.9682707
vt 0.4319569 0.03447063
vt 0.4330752 0.964026
vt 0.6822895 0.2310407
vt 0.4330752 0.2310413
vt 0.6822897 0.964026
vt 0.4344103 0.9679665
vt 0.6836265 0.9679677
vt 0.6836265 0.03560007
vt 0.4344103 0.03560007
vt 0.6873263 0.2310414
vt 0.4381131 0.2310407
vt 0.4381133 0.9640262
vt 0.6873263 0.9640262
vt 0.4360205 0.9679665
vt 0.4360205 0.03560007
vt 0.6852355 0.03560007
vt 0.6852349 0.9679677
vt 0.9002128 0.9015511
vt 0.8481105 0.9015511
vt 0.8481105 0.9210895
vt 0.9002128 0.9210895
vt 0.9002128 0.9927301
vt 0.8481105 0.9731919
vt 0.8481105 0.9927301
vt 0.9002128 0.9731919
vt 0.9002128 0.9731919
vt 0.8481105 0.9210895
vt 0.8481105 0.9731919
vt 0.9002128 0.9210895
vt 0.9197511 0.9731919
vt 0.9197511 0.9210895
vt 0.9002128 0.9210895
vt 0.9002128 0.9731919
vt 0.8481105 0.9210895
vt 0.8285722 0.9210895
vt 0.8481105 0.9731919
vt 0.8285722 0.9731919
vt 0.9002128 0.9015511
vt 0.8481105 0.9015511
vt 0.8481105 0.9210895
vt 0.9002128 0.9210895
vt 0.9002128 0.9927301
vt 0.8481105 0.9731919
vt 0.8481105 0.9927301
vt 0.9002128 0.9731919
vt 0.9002128 0.9731919
vt 0.8481105 0.9210895
vt 0.8481105 0.9731919
vt 0.9002128 0.9210895
vt 0.9197511 0.9731919
vt 0.9197511 0.9210895
vt 0.9002128 0.9210895
vt 0.9002128 0.9731919
vt 0.8481105 0.9210895
vt 0.8285722 0.9210895
vt 0.8481105 0.9731919
vt 0.8285722 0.9731919
vt 0.9002128 0.9015511
vt 0.8481105 0.9015511
vt 0.8481105 0.9210895
vt 0.9002128 0.9210895
vt 0.9002128 0.9927301
vt 0.8481105 0.9731919
vt 0.8481105 0.9927301
vt 0.9002128 0.9731919
vt 0.9002128 0.9731919
vt 0.8481105 0.9210895
vt 0.8481105 0.9731919
vt 0.9002128 0.9210895
vt 0.9197511 0.9731919
vt 0.9197511 0.9210895
vt 0.9002128 0.9210895
vt 0.9002128 0.9731919
vt 0.8481105 0.9210895
vt 0.8285722 0.9210895
vt 0.8481105 0.9731919
vt 0.8285722 0.9731919
vt 0.9002128 0.9015511
vt 0.8481105 0.9015511
vt 0.8481105 0.9210895
vt 0.9002128 0.9210895
vt 0.9002128 0.9927301
vt 0.8481105 0.9731919
vt 0.8481105 0.9927301
vt 0.9002128 0.9731919
vt 0.9002128 0.9731919
vt 0.8481105 0.9210895
vt 0.8481105 0.9731919
vt 0.9002128 0.9210895
vt 0.9197511 0.9731919
vt 0.9197511 0.9210895
vt 0.9002128 0.9210895
vt 0.9002128 0.9731919
vt 0.8481105 0.9210895
vt 0.8285722 0.9210895
vt 0.8481105 0.9731919
vt 0.8285722 0.9731919
vt 0.01869381 0.02853381
vt 0.762293 0.02853387
vt 0.7783676 0.004949265
vt 0.762293 0.9744015
vt 0.001812581 0.004949206
vt 0.7783676 0.9979861
vt 0.001812581 0.9979861
vt 0.01869381 0.9744015
vn 0 1 0
vn 0 1 0
vn 0 1 0
vn 0 1 0
vn 0 -1 0
vn 0 -1 0
vn 0 -1 0
vn 0 -1 0
vn 0 0 -1
vn 0 0 -1
vn 0 0 -1
vn 0 0 -1
vn 1 0 0
vn 1 0 0
vn 1 0 0
vn 1 0 0
vn 0 0 1
vn 0 0 1
vn 0 0 1
vn 0 0 1
vn -1 0 0
vn -1 0 0
vn -1 0 0
vn -1 0 0
vn 0 0 1
vn 0 0 1
vn 0 0 1
vn 0 0 1
vn -1 0 0
vn -1 0 0
vn -1 0 0
vn -1 0 0
vn 0 0 -1
vn 0 0 -1
vn 0 0 -1
vn 0 0 -1
vn 1 0 0
vn 1 0 0
vn 1 0 0
vn 1 0 0
vn 0 1 0
vn 0 1 0
vn 0 1 0
vn 0 1 0
vn 0 -1 0
vn 0 -1 0
vn 0 -1 0
vn 0 -1 0
vn 0 0 -1
vn 0 0 -1
vn 0 0 -1
vn 0 0 -1
vn 1 0 0
vn 1 0 0
vn 1 0 0
vn 1 0 0
vn -1 0 0
vn -1 0 0
vn -1 0 0
vn -1 0 0
vn 0 1 0
vn 0 1 0
vn 0 1 0
vn 0 1 0
vn 0 -1 0
vn 0 -1 0
vn 0 -1 0
vn 0 -1 0
vn 0 0 -1
vn 0 0 -1
vn 0 0 -1
vn 0 0 -1
vn 1 0 0
vn 1 0 0
vn 1 0 0
vn 1 0 0
vn -1 0 0
vn -1 0 0
vn -1 0 0
vn -1 0 0
vn 0 1 0
vn 0 1 0
vn 0 1 0
vn 0 1 0
vn 0 -1 0
vn 0 -1 0
vn 0 -1 0
vn 0 -1 0
vn 0 0 -1
vn 0 0 -1
vn 0 0 -1
vn 0 0 -1
vn 1 0 0
vn 1 0 0
vn 1 0 0
vn 1 0 0
vn -1 0 0
vn -1 0 0
vn -1 0 0
vn -1 0 0
vn 0 1 0
vn 0 1 0
vn 0 1 0
vn 0 1 0
vn 0 -1 0
vn 0 -1 0
vn 0 -1 0
vn 0 -1 0
vn 0 0 -1
vn 0 0 -1
vn 0 0 -1
vn 0 0 -1
vn 1 0 0
vn 1 0 0
vn 1 0 0
vn 1 0 0
vn -1 0 0
vn -1 0 0
vn -1 0 0
vn -1 0 0
vn 0 -1 0
vn 0 -1 0
vn 0 -1 0
vn 0 -1 0
vn 0 -1 0
vn 0 -1 0
vn 0 -1 0
vn 0 -1 0
g Closet_Metal_0
f 3/3/3 2/2/2 1/1/1
f 1/1/1 4/4/4 3/3/3
f 7/7/7 6/6/6 5/5/5
f 6/6/6 8/8/8 5/5/5
f 11/11/11 10/10/10 9/9/9
f 10/10/10 12/12/12 9/9/9
f 15/15/15 14/14/14 13/13/13
f 13/13/13 16/16/16 15/15/15
f 19/19/19 18/18/18 17/17/17
f 18/18/18 20/20/20 17/17/17
f 23/23/23 22/22/22 21/21/21
f 24/24/24 21/21/21 22/22/22
f 27/27/27 26/26/26 25/25/25
f 26/26/26 28/28/28 25/25/25
f 31/31/31 30/30/30 29/29/29
f 29/29/29 32/32/32 31/31/31
f 35/35/35 34/34/34 33/33/33
f 33/33/33 36/36/36 35/35/35
f 39/39/39 38/38/38 37/37/37
f 37/37/37 40/40/40 39/39/39
f 43/43/43 42/42/42 41/41/41
f 41/41/41 44/44/44 43/43/43
f 47/47/47 46/46/46 45/45/45
f 46/46/46 48/48/48 45/45/45
f 51/51/51 50/50/50 49/49/49
f 50/50/50 52/52/52 49/49/49
f 55/55/55 54/54/54 53/53/53
f 53/53/53 56/56/56 55/55/55
f 59/59/59 58/58/58 57/57/57
f 58/58/58 59/59/59 60/60/60
f 63/63/63 62/62/62 61/61/61
f 61/61/61 64/64/64 63/63/63
f 67/67/67 66/66/66 65/65/65
f 66/66/66 68/68/68 65/65/65
f 71/71/71 70/70/70 69/69/69
f 70/70/70 72/72/72 69/69/69
f 75/75/75 74/74/74 73/73/73
f 73/73/73 76/76/76 75/75/75
f 79/79/79 78/78/78 77/77/77
f 78/78/78 79/79/79 80/80/80
f 83/83/83 82/82/82 81/81/81
f 81/81/81 84/84/84 83/83/83
f 87/87/87 86/86/86 85/85/85
f 86/86/86 88/88/88 85/85/85
f 91/91/91 90/90/90 89/89/89
f 90/90/90 92/92/92 89/89/89
f 95/95/95 94/94/94 93/93/93
f 93/93/93 96/96/96 95/95/95
f 99/99/99 98/98/98 97/97/97
f 98/98/98 99/99/99 100/100/100
f 103/103/103 102/102/102 101/101/101
f 101/101/101 104/104/104 103/103/103
f 107/107/107 106/106/106 105/105/105
f 106/106/106 108/108/108 105/105/105
f 111/111/111 110/110/110 109/109/109
f 110/110/110 112/112/112 109/109/109
f 115/115/115 114/114/114 113/113/113
f 113/113/113 116/116/116 115/115/115
f 119/119/119 118/118/118 117/117/117
f 118/118/118 119/119/119 120/120/120
f 123/123/123 122/122/122 121/121/121
f 124/124/124 122/122/122 123/123/123
f 121/121/121 125/125/125 123/123/123
f 126/126/126 124/124/124 123/123/123
f 125/125/125 121/121/121 127/127/127
f 128/128/128 124/124/124 126/126/126
f 127/127/127 128/128/128 126/126/126
f 121/121/121 128/128/128 127/127/127
