g Cylinder224
v -79.1113 -6.1545 -9.4883
v -79.1113 -6.1545 3.5898
v 16.7969 -6.1545 3.4619
v 16.7969 -6.1545 -9.6162
v -79.1113 -6.1545 -22.5664
v 16.7969 -6.1545 -22.6943
v 78.3418 -6.1545 -18.9766
v 78.3418 -6.1545 -2.8213
v 78.3418 -6.1545 13.335
v 131.8096 -6.1545 -8.5908
v 115.5254 -6.1545 22.6943
v 150.0166 -6.1545 14.3604
v -150.0166 -1.4104 -4.8721
v -150.0166 -1.4104 -0.7695
v -121.6797 -1.4104 15.5146
v -121.6797 -1.4104 -5.8984
v -77.4443 -1.4104 -18.8486
v -77.4443 -1.4104 -0.7695
v -79.1113 6.1545 -9.4883
v 16.7969 6.1545 3.4619
v -79.1113 6.1545 3.5898
v 16.7969 6.1545 -9.6162
v -79.1113 6.1545 -22.5664
v 78.3418 6.1545 13.335
v 16.7969 6.1545 -22.6943
v 78.3418 6.1545 -2.8213
v 115.5254 6.1545 22.6943
v 78.3418 6.1545 -18.9766
v 150.0166 6.1545 14.3604
v 131.8096 6.1545 -8.5908
v -121.6797 3.9749 15.5146
v -150.0166 3.9749 -0.7695
v -150.0166 3.9749 -4.8721
v -121.6797 3.9749 -5.8984
v -77.4443 3.9749 -18.8486
v -77.4443 3.9749 -0.7695
v 16.7969 -6.1545 3.4619
v -79.1113 -6.1545 3.5898
v -79.1113 6.1545 3.5898
v 16.7969 6.1545 3.4619
v 78.3418 6.1545 13.335
v 78.3418 -6.1545 13.335
v 115.5254 -6.1545 22.6943
v 115.5254 6.1545 22.6943
v -121.6797 -1.4104 15.5146
v -150.0166 -1.4104 -0.7695
v -150.0166 3.9749 -0.7695
v -121.6797 3.9749 15.5146
v -77.4443 -1.4104 -0.7695
v -77.4443 3.9749 -0.7695
v 115.5254 6.1545 22.6943
v 150.0166 6.1545 14.3604
v 150.0166 -6.1545 14.3604
v 115.5254 -6.1545 22.6943
v 150.0166 -6.1545 14.3604
v 150.0166 6.1545 14.3604
v 131.8096 6.1545 -8.5908
v 131.8096 -6.1545 -8.5908
v -77.4443 -1.4104 -0.7695
v -77.4443 3.9749 -0.7695
v -77.4443 3.9749 -18.8486
v -77.4443 -1.4104 -18.8486
v 78.3418 6.1545 -18.9766
v 131.8096 -6.1545 -8.5908
v 131.8096 6.1545 -8.5908
v 78.3418 -6.1545 -18.9766
v 16.7969 -6.1545 -22.6943
v 16.7969 6.1545 -22.6943
v -79.1113 -6.1545 -22.5664
v -79.1113 6.1545 -22.5664
v -77.4443 3.9749 -18.8486
v -121.6797 -1.4104 -5.8984
v -77.4443 -1.4104 -18.8486
v -121.6797 3.9749 -5.8984
v -150.0166 -1.4104 -4.8721
v -150.0166 3.9749 -4.8721
v -79.1113 -6.1545 -9.4883
v -79.1113 -6.1545 -22.5664
v -79.1113 6.1545 -22.5664
v -79.1113 6.1545 -9.4883
v -79.1113 -6.1545 3.5898
v -79.1113 6.1545 3.5898
v -150.0166 -1.4104 -0.7695
v -150.0166 -1.4104 -4.8721
v -150.0166 3.9749 -4.8721
v -150.0166 3.9749 -0.7695
vt 0.747 0.1998
vt 0.7474 0.2047
vt 0.7834 0.2019
vt 0.783 0.197
vt 0.7466 0.1949
vt 0.7826 0.1921
vt 0.8059 0.1917
vt 0.8063 0.1977
vt 0.8068 0.2038
vt 0.8262 0.194
vt 0.821 0.2063
vt 0.8337 0.2021
vt 0.9133 0.1862
vt 0.9124 0.1907
vt 0.9403 0.2148
vt 0.9449 0.1912
vt 0.9966 0.1864
vt 0.9927 0.2064
vt 0.8167 0.1812
vt 0.8531 0.1805
vt 0.8172 0.1763
vt 0.8525 0.1854
vt 0.8161 0.1861
vt 0.8766 0.1795
vt 0.852 0.1903
vt 0.8759 0.1855
vt 0.8909 0.1776
vt 0.8752 0.1916
vt 0.9034 0.1822
vt 0.8956 0.19
vt 0.9686 0.1873
vt 0.9955 0.1622
vt 0.9944 0.1577
vt 0.9631 0.1638
vt 0.9112 0.161
vt 0.9159 0.1808
vt 0.7968 0.2133
vt 0.8329 0.2133
vt 0.8329 0.2086
vt 0.7968 0.2086
vt 0.7736 0.2086
vt 0.7736 0.2133
vt 0.7596 0.2133
vt 0.7596 0.2086
vt 0.9623 0.2225
vt 0.9942 0.2225
vt 0.9942 0.2164
vt 0.9623 0.2164
vt 0.9124 0.2225
vt 0.9124 0.2164
vt 0.7596 0.2086
vt 0.7466 0.2086
vt 0.7466 0.2133
vt 0.7596 0.2133
vt 0.9033 0.1744
vt 0.9033 0.1698
vt 0.8946 0.1698
vt 0.8946 0.1744
vt 0.8908 0.2009
vt 0.8908 0.1948
vt 0.8704 0.1948
vt 0.8704 0.2009
vt 0.8059 0.215
vt 0.8261 0.2197
vt 0.8261 0.215
vt 0.8059 0.2197
vt 0.7827 0.2197
vt 0.7827 0.215
vt 0.7466 0.2197
vt 0.7466 0.215
vt 0.9306 0.2072
vt 0.8808 0.2133
vt 0.9306 0.2133
vt 0.8808 0.2072
vt 0.8489 0.2133
vt 0.8489 0.2072
vt 0.8995 0.168
vt 0.9045 0.168
vt 0.9045 0.1634
vt 0.8995 0.1634
vt 0.8946 0.168
vt 0.8946 0.1634
vt 0.8931 0.1948
vt 0.8931 0.1994
vt 0.8992 0.1994
vt 0.8992 0.1948
vn 0 -1 0
vn 0 -1 0
vn 0 -1 0
vn 0 -1 0
vn 0 -1 0
vn 0 -1 0
vn 0 -1 0
vn 0 -1 0
vn 0 -1 0
vn 0 -1 0
vn 0 -1 0
vn 0 -1 0
vn 0 -1 0
vn 0 -1 0
vn 0 -1 0
vn 0 -1 0
vn 0 -1 0
vn 0 -1 0
vn 0 1 0
vn 0 1 0
vn 0 1 0
vn 0 1 0
vn 0 1 0
vn 0 1 0
vn 0 1 0
vn 0 1 0
vn 0 1 0
vn 0 1 0
vn 0 1 0
vn 0 1 0
vn 0 1 0
vn 0 1 0
vn 0 1 0
vn 0 1 0
vn 0 1 0
vn 0 1 0
vn -0.07840171 0 0.9969218
vn 0.0007999998 0 0.9999998
vn 0.0007999998 0 0.9999998
vn -0.07840171 0 0.9969218
vn -0.2010942 0 0.9795719
vn -0.2010942 0 0.9795719
vn -0.2447937 0 0.9695752
vn -0.2447937 0 0.9695752
vn -0.08359995 0 0.9964994
vn -0.498689 0 0.8667809
vn -0.498689 0 0.8667809
vn -0.08359995 0 0.9964994
vn 0.3458907 0 0.9382749
vn 0.3458907 0 0.9382749
vn 0.2358004 0 0.9718015
vn 0.9458153 0 0.3247053
vn 0.9458153 0 0.3247053
vn 0.2358004 0 0.9718015
vn 0.9458153 0 0.3247053
vn 0.9458153 0 0.3247053
vn 0.7833214 0 -0.621617
vn 0.7833214 0 -0.621617
vn 1 0 0
vn 1 0 0
vn 1 0 0
vn 1 0 0
vn 0.1253024 0 -0.9921186
vn 0.1900934 0 -0.981766
vn 0.1900934 0 -0.981766
vn 0.1253024 0 -0.9921186
vn 0.02989859 0 -0.9995529
vn 0.02989859 0 -0.9995529
vn -0.0007999998 0 -0.9999998
vn -0.0007999998 0 -0.9999998
vn -0.2810942 0 -0.9596802
vn -0.1587042 0 -0.9873262
vn -0.2810942 0 -0.9596802
vn -0.1587042 0 -0.9873262
vn -0.0343004 0 -0.9994116
vn -0.0343004 0 -0.9994116
vn -1 0 0
vn -1 0 0
vn -1 0 0
vn -1 0 0
vn -1 0 0
vn -1 0 0
vn -1 0 0
vn -1 0 0
vn -1 0 0
vn -1 0 0
g Cylinder224_0
f 3/3/3 2/2/2 1/1/1
f 4/4/4 3/3/3 1/1/1
f 4/4/4 1/1/1 5/5/5
f 6/6/6 4/4/4 5/5/5
f 6/6/6 7/7/7 4/4/4
f 3/3/3 4/4/4 8/8/8
f 7/7/7 8/8/8 4/4/4
f 9/9/9 3/3/3 8/8/8
f 7/7/7 10/10/10 8/8/8
f 9/9/9 8/8/8 11/11/11
f 10/10/10 12/12/12 8/8/8
f 8/8/8 12/12/12 11/11/11
f 15/15/15 14/14/14 13/13/13
f 16/16/16 15/15/15 13/13/13
f 16/16/16 17/17/17 15/15/15
f 17/17/17 18/18/18 15/15/15
f 21/21/21 20/20/20 19/19/19
f 20/20/20 22/22/22 19/19/19
f 19/19/19 22/22/22 23/23/23
f 20/20/20 24/24/24 22/22/22
f 22/22/22 25/25/25 23/23/23
f 24/24/24 26/26/26 22/22/22
f 22/22/22 26/26/26 25/25/25
f 24/24/24 27/27/27 26/26/26
f 26/26/26 28/28/28 25/25/25
f 27/27/27 29/29/29 26/26/26
f 28/28/28 26/26/26 29/29/29
f 30/30/30 28/28/28 29/29/29
f 33/33/33 32/32/32 31/31/31
f 34/34/34 33/33/33 31/31/31
f 34/34/34 31/31/31 35/35/35
f 31/31/31 36/36/36 35/35/35
f 39/39/39 38/38/38 37/37/37
f 40/40/40 39/39/39 37/37/37
f 41/41/41 40/40/40 37/37/37
f 42/42/42 41/41/41 37/37/37
f 41/41/41 42/42/42 43/43/43
f 44/44/44 41/41/41 43/43/43
f 47/47/47 46/46/46 45/45/45
f 48/48/48 47/47/47 45/45/45
f 45/45/45 49/49/49 48/48/48
f 49/49/49 50/50/50 48/48/48
f 53/53/53 52/52/52 51/51/51
f 54/54/54 53/53/53 51/51/51
f 57/57/57 56/56/56 55/55/55
f 58/58/58 57/57/57 55/55/55
f 61/61/61 60/60/60 59/59/59
f 62/62/62 61/61/61 59/59/59
f 65/65/65 64/64/64 63/63/63
f 64/64/64 66/66/66 63/63/63
f 66/66/66 67/67/67 63/63/63
f 67/67/67 68/68/68 63/63/63
f 68/68/68 67/67/67 69/69/69
f 70/70/70 68/68/68 69/69/69
f 73/73/73 72/72/72 71/71/71
f 72/72/72 74/74/74 71/71/71
f 74/74/74 72/72/72 75/75/75
f 76/76/76 74/74/74 75/75/75
f 79/79/79 78/78/78 77/77/77
f 80/80/80 79/79/79 77/77/77
f 80/80/80 77/77/77 81/81/81
f 82/82/82 80/80/80 81/81/81
f 85/85/85 84/84/84 83/83/83
f 86/86/86 85/85/85 83/83/83
