g Cylinder236
v 27.6737 -12.3242 -17.5283
v -26.3848 -12.3242 -17.5283
v -26.3848 -12.3242 -0.5791
v 27.6737 -12.3242 -0.5801
v -26.3848 16.3875 -17.5283
v 27.6737 16.3875 -17.5283
v 27.6737 16.3875 -0.5801
v -26.3848 16.3875 -0.5791
v 27.6737 -12.3242 -0.5801
v 27.6738 2.0317 -17.5283
v 27.6737 -12.3242 -17.5283
v 27.6738 2.0317 -0.5801
v 27.6737 -8.1194 9.5713
v 27.6737 16.3875 -17.5283
v 27.6737 2.0317 13.7764
v 27.6737 16.3875 -0.5801
v 27.6737 12.1826 9.5713
v -28.4296 20.3542 23.5977
v -28.4296 29.0347 32.2783
v -28.4296 22.8967 29.7354
v -28.4296 22.8967 17.46
v -28.4296 29.0347 14.917
v -28.4296 35.1726 17.46
v -28.4296 37.7151 23.5977
v -28.4296 35.1726 29.7354
v 28.7183 29.0347 32.2783
v 28.7183 20.3542 23.5977
v 28.7183 22.8967 29.7354
v 28.7183 37.7151 23.5977
v 28.7183 35.1726 29.7354
v 28.7183 22.8967 17.46
v 28.7183 29.0347 14.917
v 28.7183 35.1726 17.46
v -16.7217 3.8713 -6.3174
v -16.7217 -0.5842 -1.8613
v -13.0303 -0.5842 -1.8613
v -13.0303 3.8713 -6.3174
v 20.0366 -0.5842 -1.8613
v 20.0366 3.8713 -6.3174
v 16.3452 3.8713 -6.3174
v 16.3452 -0.5842 -1.8613
v 31.7919 -37.7148 -14.2852
v 31.7919 -37.7148 -32.2783
v -31.792 -37.7151 -32.2783
v -31.792 -37.7151 -14.2852
v -13.0303 29.25 27.9727
v -16.7217 29.25 27.9727
v -16.7217 33.7053 23.5166
v -13.0303 33.7053 23.5166
v 16.3452 29.25 27.9727
v 16.3452 33.7053 23.5166
v 20.0366 33.7053 23.5166
v 20.0366 29.25 27.9727
v -31.792 34.5952 -32.2783
v 31.7919 34.5952 -32.2783
v 31.7919 34.5952 -14.2852
v -31.792 34.5952 -14.2852
v -28.4296 22.8967 29.7354
v -28.4296 29.0347 32.2783
v 28.7183 29.0347 32.2783
v 28.7183 22.8967 29.7354
v 28.7183 22.8967 29.7354
v 28.7183 20.3542 23.5977
v -28.4296 20.3542 23.5977
v -28.4296 22.8967 29.7354
v 28.7183 20.3542 23.5977
v 28.7183 22.8967 17.46
v -28.4296 22.8967 17.46
v -28.4296 20.3542 23.5977
v 28.7183 29.0347 14.917
v -28.4296 29.0347 14.917
v -28.4296 22.8967 17.46
v 28.7183 22.8967 17.46
v 28.7183 29.0347 14.917
v 28.7183 35.1726 17.46
v -28.4296 35.1726 17.46
v -28.4296 29.0347 14.917
v 28.7183 35.1726 17.46
v 28.7183 37.7151 23.5977
v -28.4296 37.7151 23.5977
v -28.4296 35.1726 17.46
v -28.4296 35.1726 29.7354
v -28.4296 37.7151 23.5977
v 28.7183 37.7151 23.5977
v 28.7183 35.1726 29.7354
v 28.7183 29.0347 32.2783
v -28.4296 29.0347 32.2783
v -28.4296 35.1726 29.7354
v 28.7183 35.1726 29.7354
v -16.7217 29.25 27.9727
v -13.0303 29.25 27.9727
v -13.0303 -0.5842 -1.8613
v -16.7217 -0.5842 -1.8613
v 16.3452 -0.5842 -1.8613
v 16.3452 29.25 27.9727
v 20.0366 29.25 27.9727
v 20.0366 -0.5842 -1.8613
v 27.6737 2.0317 13.7764
v 27.6737 -8.1194 9.5713
v -26.3848 -8.1194 9.5713
v -26.3848 2.0315 13.7764
v 27.6737 12.1826 9.5713
v -26.3848 12.1826 9.5713
v 27.6737 -8.1194 9.5713
v 27.6737 -12.3242 -0.5801
v -26.3848 -12.3242 -0.5791
v -26.3848 -8.1194 9.5713
v 27.6737 16.3875 -0.5801
v 27.6737 12.1826 9.5713
v -26.3848 12.1826 9.5713
v -26.3848 16.3875 -0.5791
v -31.792 34.5952 -14.2852
v 31.7919 34.5952 -14.2852
v 31.7919 -37.7148 -14.2852
v -31.792 -37.7151 -14.2852
v -13.0303 3.8713 -6.3174
v -13.0303 -0.5842 -1.8613
v -13.0303 29.25 27.9727
v -13.0303 33.7053 23.5166
v 20.0366 3.8713 -6.3174
v 20.0366 -0.5842 -1.8613
v 20.0366 29.25 27.9727
v 20.0366 33.7053 23.5166
v 31.7919 34.5952 -14.2852
v 31.7919 34.5952 -32.2783
v 31.7919 -37.7148 -32.2783
v 31.7919 -37.7148 -14.2852
v -13.0303 3.8713 -6.3174
v -13.0303 33.7053 23.5166
v -16.7217 33.7053 23.5166
v -16.7217 3.8713 -6.3174
v 16.3452 3.8713 -6.3174
v 20.0366 3.8713 -6.3174
v 20.0366 33.7053 23.5166
v 16.3452 33.7053 23.5166
v -16.7217 3.8713 -6.3174
v -16.7217 33.7053 23.5166
v -16.7217 29.25 27.9727
v -16.7217 -0.5842 -1.8613
v 16.3452 33.7053 23.5166
v 16.3452 29.25 27.9727
v 16.3452 -0.5842 -1.8613
v 16.3452 3.8713 -6.3174
v -31.792 34.5952 -32.2783
v -31.792 34.5952 -14.2852
v -31.792 -37.7151 -14.2852
v -31.792 -37.7151 -32.2783
v -26.3848 -8.1194 9.5713
v -26.3848 2.0315 -0.5791
v -26.3848 2.0315 13.7764
v -26.3848 -12.3242 -0.5791
v -26.3848 12.1826 9.5713
v -26.3848 -12.3242 -17.5283
v -26.3848 16.3875 -0.5791
v -26.3848 2.0315 -17.5283
v -26.3848 16.3875 -17.5283
vt 0.325 0.7254
vt 0.325 0.6848
vt 0.3122 0.6848
vt 0.3122 0.7254
vt 0.3556 0.6273
vt 0.3556 0.6679
vt 0.3683 0.6679
vt 0.3683 0.6273
vt 0.4326 0.6381
vt 0.4219 0.6508
vt 0.4326 0.6508
vt 0.4219 0.6381
vt 0.4295 0.6305
vt 0.4111 0.6508
vt 0.4219 0.6273
vt 0.4111 0.6381
vt 0.4142 0.6305
vt 0.4174 0.6785
vt 0.421 0.6701
vt 0.4175 0.6736
vt 0.4209 0.6821
vt 0.4259 0.6822
vt 0.4294 0.6787
vt 0.4295 0.6737
vt 0.426 0.6701
vt 0.3356 0.7544
vt 0.3271 0.7508
vt 0.3306 0.7544
vt 0.3392 0.7459
vt 0.3392 0.7509
vt 0.3272 0.7458
vt 0.3307 0.7423
vt 0.3357 0.7424
vt 0.3965 0.7441
vt 0.3965 0.7408
vt 0.3937 0.7408
vt 0.3937 0.7441
vt 0.4111 0.653
vt 0.4111 0.6563
vt 0.4139 0.6563
vt 0.4139 0.653
vt 0.3781 0.6751
vt 0.3916 0.6751
vt 0.3916 0.6273
vt 0.3781 0.6273
vt 0.3438 0.7556
vt 0.3466 0.7556
vt 0.3466 0.7523
vt 0.3438 0.7523
vt 0.3149 0.7533
vt 0.3149 0.75
vt 0.3121 0.75
vt 0.3121 0.7533
vt 0.3781 0.6772
vt 0.3781 0.7249
vt 0.3916 0.7249
vt 0.3916 0.6772
vt 0.4029 0.6957
vt 0.3983 0.6957
vt 0.3983 0.7386
vt 0.4029 0.7386
vt 0.4164 0.7386
vt 0.421 0.7386
vt 0.421 0.6957
vt 0.4164 0.6957
vt 0.421 0.7386
vt 0.4256 0.7386
vt 0.4256 0.6957
vt 0.421 0.6957
vt 0.3484 0.6848
vt 0.3484 0.7277
vt 0.353 0.7277
vt 0.353 0.6848
vt 0.3484 0.6848
vt 0.3438 0.6848
vt 0.3438 0.7277
vt 0.3484 0.7277
vt 0.4051 0.7386
vt 0.4097 0.7386
vt 0.4097 0.6957
vt 0.4051 0.6957
vt 0.4143 0.6957
vt 0.4097 0.6957
vt 0.4097 0.7386
vt 0.4143 0.7386
vt 0.3983 0.7386
vt 0.3983 0.6957
vt 0.3937 0.6957
vt 0.3937 0.7386
vt 0.3894 0.7271
vt 0.3866 0.7271
vt 0.3866 0.7495
vt 0.3894 0.7495
vt 0.3658 0.75
vt 0.3658 0.7276
vt 0.3631 0.7276
vt 0.3631 0.75
vt 0.4013 0.6679
vt 0.4089 0.6679
vt 0.4089 0.6273
vt 0.4013 0.6273
vt 0.3937 0.6679
vt 0.3937 0.6273
vt 0.3046 0.7254
vt 0.3122 0.7254
vt 0.3122 0.6848
vt 0.3046 0.6848
vt 0.3683 0.6679
vt 0.3759 0.6679
vt 0.3759 0.6273
vt 0.3683 0.6273
vt 0.3524 0.6273
vt 0.3046 0.6273
vt 0.3046 0.6816
vt 0.3524 0.6816
vt 0.3834 0.7272
vt 0.3787 0.7271
vt 0.3781 0.7588
vt 0.3828 0.7588
vt 0.4331 0.6958
vt 0.4284 0.6957
vt 0.4278 0.7274
vt 0.4325 0.7275
vt 0.3691 0.6701
vt 0.3556 0.6701
vt 0.3556 0.7243
vt 0.3691 0.7243
vt 0.3438 0.7299
vt 0.3438 0.7523
vt 0.3466 0.7523
vt 0.3466 0.7299
vt 0.3149 0.7276
vt 0.3121 0.7276
vt 0.3121 0.75
vt 0.3149 0.75
vt 0.3094 0.7593
vt 0.31 0.7277
vt 0.3053 0.7276
vt 0.3046 0.7592
vt 0.3609 0.7277
vt 0.3562 0.7276
vt 0.3556 0.7592
vt 0.3603 0.7593
vt 0.3406 0.6848
vt 0.3271 0.6848
vt 0.3271 0.7391
vt 0.3406 0.7391
vt 0.4121 0.6904
vt 0.4045 0.6828
vt 0.4045 0.6936
vt 0.4153 0.6828
vt 0.3969 0.6904
vt 0.4153 0.6701
vt 0.3937 0.6828
vt 0.4045 0.6701
vt 0.3937 0.6701
vn 0 -1 0
vn 0 -1 0
vn 0 -1 0
vn 0 -1 0
vn 0 1 0
vn 0 1 0
vn 0 1 0
vn 0 1 0
vn 1 0 0
vn 1 0 0
vn 1 0 0
vn 1 0 0
vn 1 0 0
vn 1 0 0
vn 1 0 0
vn 1 0 0
vn 1 0 0
vn -1 0 0
vn -1 0 0
vn -1 0 0
vn -1 0 0
vn -1 0 0
vn -1 0 0
vn -1 0 0
vn -1 0 0
vn 1 0 0
vn 1 0 0
vn 1 0 0
vn 1 0 0
vn 1 0 0
vn 1 0 0
vn 1 0 0
vn 1 0 0
vn 0 -0.7071068 -0.7071068
vn 0 -0.7071068 -0.7071068
vn 0 -0.7071068 -0.7071068
vn 0 -0.7071068 -0.7071068
vn 0 -0.7071068 -0.7071068
vn 0 -0.7071068 -0.7071068
vn 0 -0.7071068 -0.7071068
vn 0 -0.7071068 -0.7071068
vn 0 -1 0
vn 0 -1 0
vn 0 -1 0
vn 0 -1 0
vn 0 0.7071068 0.7071068
vn 0 0.7071068 0.7071068
vn 0 0.7071068 0.7071068
vn 0 0.7071068 0.7071068
vn 0 0.7071068 0.7071068
vn 0 0.7071068 0.7071068
vn 0 0.7071068 0.7071068
vn 0 0.7071068 0.7071068
vn 0 1 0
vn 0 1 0
vn 0 1 0
vn 0 1 0
vn 0 -0.7071068 0.7071068
vn 0 0 1
vn 0 0 1
vn 0 -0.7071068 0.7071068
vn 0 -0.7071068 0.7071068
vn 0 -1 0
vn 0 -1 0
vn 0 -0.7071068 0.7071068
vn 0 -1 0
vn 0 -0.7071068 -0.7071068
vn 0 -0.7071068 -0.7071068
vn 0 -1 0
vn 0 0 -1
vn 0 0 -1
vn 0 -0.7071068 -0.7071068
vn 0 -0.7071068 -0.7071068
vn 0 0 -1
vn 0 0.7071068 -0.7071068
vn 0 0.7071068 -0.7071068
vn 0 0 -1
vn 0 0.7071068 -0.7071068
vn 0 1 0
vn 0 1 0
vn 0 0.7071068 -0.7071068
vn 0 0.7071068 0.7071068
vn 0 1 0
vn 0 1 0
vn 0 0.7071068 0.7071068
vn 0 0 1
vn 0 0 1
vn 0 0.7071068 0.7071068
vn 0 0.7071068 0.7071068
vn 0 -0.7071068 0.7071068
vn 0 -0.7071068 0.7071068
vn 0 -0.7071068 0.7071068
vn 0 -0.7071068 0.7071068
vn 0 -0.7071068 0.7071068
vn 0 -0.7071068 0.7071068
vn 0 -0.7071068 0.7071068
vn 0 -0.7071068 0.7071068
vn 0 0 1
vn 0 -0.7071068 0.7071068
vn 0 -0.7071068 0.7071068
vn 0 0 1
vn 0 0.7071068 0.7071068
vn 0 0.7071068 0.7071068
vn 0 -0.7071068 0.7071068
vn 0 -0.9238766 0.3826903
vn 0 -0.9238766 0.3826903
vn 0 -0.7071068 0.7071068
vn 0 0.9238766 0.3826903
vn 0 0.7071068 0.7071068
vn 0 0.7071068 0.7071068
vn 0 0.9238766 0.3826903
vn 0 0 1
vn 0 0 1
vn 0 0 1
vn 0 0 1
vn 1 0 0
vn 1 0 0
vn 1 0 0
vn 1 0 0
vn 1 0 0
vn 1 0 0
vn 1 0 0
vn 1 0 0
vn 1 0 0
vn 1 0 0
vn 1 0 0
vn 1 0 0
vn 0 0.7071068 -0.7071068
vn 0 0.7071068 -0.7071068
vn 0 0.7071068 -0.7071068
vn 0 0.7071068 -0.7071068
vn 0 0.7071068 -0.7071068
vn 0 0.7071068 -0.7071068
vn 0 0.7071068 -0.7071068
vn 0 0.7071068 -0.7071068
vn -1 0 0
vn -1 0 0
vn -1 0 0
vn -1 0 0
vn -1 0 0
vn -1 0 0
vn -1 0 0
vn -1 0 0
vn -1 0 0
vn -1 0 0
vn -1 0 0
vn -1 0 0
vn -1 0 0
vn -1 0 0
vn -1 0 0
vn -1 0 0
vn -1 0 0
vn -1 0 0
vn -1 0 0
vn -1 0 0
vn -1 0 0
g Cylinder236_0
f 3/3/3 2/2/2 1/1/1
f 4/4/4 3/3/3 1/1/1
f 7/7/7 6/6/6 5/5/5
f 8/8/8 7/7/7 5/5/5
f 11/11/11 10/10/10 9/9/9
f 10/10/10 12/12/12 9/9/9
f 9/9/9 12/12/12 13/13/13
f 12/12/12 10/10/10 14/14/14
f 13/13/13 12/12/12 15/15/15
f 16/16/16 12/12/12 14/14/14
f 15/15/15 12/12/12 17/17/17
f 17/17/17 12/12/12 16/16/16
f 20/20/20 19/19/19 18/18/18
f 18/18/18 19/19/19 21/21/21
f 19/19/19 22/22/22 21/21/21
f 23/23/23 22/22/22 19/19/19
f 24/24/24 23/23/23 19/19/19
f 24/24/24 19/19/19 25/25/25
f 28/28/28 27/27/27 26/26/26
f 27/27/27 29/29/29 26/26/26
f 26/26/26 29/29/29 30/30/30
f 29/29/29 27/27/27 31/31/31
f 32/32/32 29/29/29 31/31/31
f 33/33/33 29/29/29 32/32/32
f 36/36/36 35/35/35 34/34/34
f 37/37/37 36/36/36 34/34/34
f 40/40/40 39/39/39 38/38/38
f 41/41/41 40/40/40 38/38/38
f 44/44/44 43/43/43 42/42/42
f 45/45/45 44/44/44 42/42/42
f 48/48/48 47/47/47 46/46/46
f 49/49/49 48/48/48 46/46/46
f 52/52/52 51/51/51 50/50/50
f 53/53/53 52/52/52 50/50/50
f 56/56/56 55/55/55 54/54/54
f 57/57/57 56/56/56 54/54/54
f 60/60/60 59/59/59 58/58/58
f 61/61/61 60/60/60 58/58/58
f 64/64/64 63/63/63 62/62/62
f 65/65/65 64/64/64 62/62/62
f 68/68/68 67/67/67 66/66/66
f 69/69/69 68/68/68 66/66/66
f 72/72/72 71/71/71 70/70/70
f 73/73/73 72/72/72 70/70/70
f 76/76/76 75/75/75 74/74/74
f 77/77/77 76/76/76 74/74/74
f 80/80/80 79/79/79 78/78/78
f 81/81/81 80/80/80 78/78/78
f 84/84/84 83/83/83 82/82/82
f 85/85/85 84/84/84 82/82/82
f 88/88/88 87/87/87 86/86/86
f 89/89/89 88/88/88 86/86/86
f 92/92/92 91/91/91 90/90/90
f 93/93/93 92/92/92 90/90/90
f 96/96/96 95/95/95 94/94/94
f 97/97/97 96/96/96 94/94/94
f 100/100/100 99/99/99 98/98/98
f 101/101/101 100/100/100 98/98/98
f 98/98/98 102/102/102 101/101/101
f 102/102/102 103/103/103 101/101/101
f 106/106/106 105/105/105 104/104/104
f 107/107/107 106/106/106 104/104/104
f 110/110/110 109/109/109 108/108/108
f 111/111/111 110/110/110 108/108/108
f 114/114/114 113/113/113 112/112/112
f 115/115/115 114/114/114 112/112/112
f 118/118/118 117/117/117 116/116/116
f 119/119/119 118/118/118 116/116/116
f 122/122/122 121/121/121 120/120/120
f 123/123/123 122/122/122 120/120/120
f 126/126/126 125/125/125 124/124/124
f 127/127/127 126/126/126 124/124/124
f 130/130/130 129/129/129 128/128/128
f 131/131/131 130/130/130 128/128/128
f 134/134/134 133/133/133 132/132/132
f 135/135/135 134/134/134 132/132/132
f 138/138/138 137/137/137 136/136/136
f 139/139/139 138/138/138 136/136/136
f 142/142/142 141/141/141 140/140/140
f 143/143/143 142/142/142 140/140/140
f 146/146/146 145/145/145 144/144/144
f 147/147/147 146/146/146 144/144/144
f 150/150/150 149/149/149 148/148/148
f 148/148/148 149/149/149 151/151/151
f 152/152/152 149/149/149 150/150/150
f 151/151/151 149/149/149 153/153/153
f 154/154/154 149/149/149 152/152/152
f 149/149/149 155/155/155 153/153/153
f 154/154/154 156/156/156 149/149/149
f 156/156/156 155/155/155 149/149/149
