g Cylinder240
v 18.5322 -79.4548 0
v 18.5322 -71.8691 0
v 13.1045 -71.8691 -13.1045
v 13.1045 -79.4548 -13.1045
v 0 -71.8691 -18.5322
v 0 -79.4548 -18.5322
v 13.1045 -79.4548 -13.1045
v 13.1045 -71.8691 -13.1045
v -13.1045 -79.4548 -13.1045
v 0 -79.4548 -18.5322
v 0 -71.8691 -18.5322
v -13.1045 -71.8691 -13.1045
v -13.1045 -79.4548 -13.1045
v -13.1045 -71.8691 -13.1045
v -18.5322 -71.8691 0
v -18.5322 -79.4548 0
v -13.1045 -79.4548 13.1045
v -18.5322 -79.4548 0
v -18.5322 -71.8691 0
v -13.1045 -71.8691 13.1045
v -13.1045 -79.4548 13.1045
v -13.1045 -71.8691 13.1045
v 0 -71.8691 18.5322
v 0 -79.4548 18.5322
v 13.1045 -79.4548 13.1045
v 0 -79.4548 18.5322
v 0 -71.8691 18.5322
v 13.1045 -71.8691 13.1045
v 18.5322 -71.8691 0
v 18.5322 -79.4548 0
v 13.1045 -79.4548 13.1045
v 13.1045 -71.8691 13.1045
v 15.792 79.4551 0
v 11.166 79.4551 -11.1665
v 11.166 75.6094 -11.1665
v 15.792 75.6094 0
v 11.166 75.6094 -11.1665
v 11.166 79.4551 -11.1665
v 0 79.4551 -15.7915
v 0 75.6094 -15.7915
v -11.166 75.6094 -11.1665
v 0 75.6094 -15.7915
v 0 79.4551 -15.7915
v -11.166 79.4551 -11.1665
v -15.792 75.6094 0
v -11.166 75.6094 -11.1665
v -11.166 79.4551 -11.1665
v -15.792 79.4551 0
v -15.792 79.4551 0
v -11.166 79.4551 11.1665
v -11.166 75.6094 11.1665
v -15.792 75.6094 0
v 0 75.6094 15.7915
v -11.166 75.6094 11.1665
v -11.166 79.4551 11.1665
v 0 79.4551 15.7915
v 0 79.4551 15.7915
v 11.166 79.4551 11.1665
v 11.166 75.6094 11.1665
v 0 75.6094 15.7915
v 11.166 75.6094 11.1665
v 11.166 79.4551 11.1665
v 15.792 79.4551 0
v 15.792 75.6094 0
v 10.5742 75.6094 0
v 7.4766 -71.8691 -7.4771
v 10.5742 -71.8691 0
v 7.4766 75.6094 -7.4771
v 0 -71.8691 -10.5742
v 0 75.6094 -10.5742
v 0 -71.8691 -10.5742
v 0 75.6094 -10.5742
v -7.4766 75.6094 -7.4771
v -7.4766 -71.8691 -7.4771
v -10.5742 75.6094 0
v -10.5742 -71.8691 0
v -10.5742 -71.8691 0
v -10.5742 75.6094 0
v -7.4766 75.6094 7.4771
v -7.4766 -71.8691 7.4771
v 0 75.6094 10.5742
v 0 -71.8691 10.5742
v 0 -71.8691 10.5742
v 0 75.6094 10.5742
v 7.4766 75.6094 7.4771
v 7.4766 -71.8691 7.4771
v 10.5742 75.6094 0
v 10.5742 -71.8691 0
v 15.792 75.6094 0
v 7.4766 75.6094 -7.4771
v 10.5742 75.6094 0
v 7.4766 75.6094 7.4771
v 11.166 75.6094 -11.1665
v 11.166 75.6094 11.1665
v 0 75.6094 15.7915
v 0 75.6094 10.5742
v -11.166 75.6094 11.1665
v -7.4766 75.6094 7.4771
v -15.792 75.6094 0
v -10.5742 75.6094 0
v 0 75.6094 -10.5742
v 0 75.6094 -15.7915
v -11.166 75.6094 -11.1665
v -7.4766 75.6094 -7.4771
v -7.4766 -71.8691 7.4771
v 0 -71.8691 10.5742
v 0 -71.8691 18.5322
v 7.4766 -71.8691 7.4771
v -13.1045 -71.8691 13.1045
v 13.1045 -71.8691 13.1045
v -10.5742 -71.8691 0
v 18.5322 -71.8691 0
v -18.5322 -71.8691 0
v 10.5742 -71.8691 0
v -7.4766 -71.8691 -7.4771
v 13.1045 -71.8691 -13.1045
v -13.1045 -71.8691 -13.1045
v 7.4766 -71.8691 -7.4771
v 0 -71.8691 -10.5742
v 0 -71.8691 -18.5322
vt 0.3966 0.4988
vt 0.3966 0.4908
vt 0.3828 0.4908
vt 0.3828 0.4988
vt 0.3966 0.5021
vt 0.3966 0.5101
vt 0.4104 0.5101
vt 0.4104 0.5021
vt 0.3828 0.5101
vt 0.3966 0.5101
vt 0.3966 0.5021
vt 0.3828 0.5021
vt 0.3731 0.5713
vt 0.3731 0.5633
vt 0.3594 0.5633
vt 0.3594 0.5713
vt 0.3456 0.5713
vt 0.3594 0.5713
vt 0.3594 0.5633
vt 0.3456 0.5633
vt 0.4413 0.4988
vt 0.4413 0.4908
vt 0.4275 0.4908
vt 0.4275 0.4988
vt 0.4138 0.4988
vt 0.4275 0.4988
vt 0.4275 0.4908
vt 0.4138 0.4908
vt 0.3966 0.4908
vt 0.3966 0.4988
vt 0.4104 0.4988
vt 0.4104 0.4908
vt 0.3946 0.5135
vt 0.3828 0.5135
vt 0.3828 0.5175
vt 0.3946 0.5175
vt 0.4681 0.4949
vt 0.4681 0.4908
vt 0.4564 0.4908
vt 0.4564 0.4949
vt 0.4447 0.4949
vt 0.4564 0.4949
vt 0.4564 0.4908
vt 0.4447 0.4908
vt 0.4255 0.5062
vt 0.4372 0.5062
vt 0.4372 0.5021
vt 0.4255 0.5021
vt 0.4255 0.5021
vt 0.4138 0.5021
vt 0.4138 0.5062
vt 0.4255 0.5062
vt 0.3946 0.5249
vt 0.4063 0.5249
vt 0.4063 0.5209
vt 0.3946 0.5209
vt 0.3946 0.5209
vt 0.3828 0.5209
vt 0.3828 0.5249
vt 0.3946 0.5249
vt 0.4063 0.5175
vt 0.4063 0.5135
vt 0.3946 0.5135
vt 0.3946 0.5175
vt 0.5006 0.4483
vt 0.3456 0.4398
vt 0.3456 0.4483
vt 0.5006 0.4398
vt 0.3456 0.4338
vt 0.5006 0.4338
vt 0.3456 0.4673
vt 0.5006 0.4673
vt 0.5006 0.4588
vt 0.3456 0.4588
vt 0.5006 0.4528
vt 0.3456 0.4528
vt 0.3456 0.4293
vt 0.5006 0.4293
vt 0.5006 0.4208
vt 0.3456 0.4208
vt 0.5006 0.4148
vt 0.3456 0.4148
vt 0.3456 0.4863
vt 0.5006 0.4863
vt 0.5006 0.4778
vt 0.3456 0.4778
vt 0.5006 0.4718
vt 0.3456 0.4718
vt 0.3764 0.5373
vt 0.3653 0.5332
vt 0.3713 0.5393
vt 0.3712 0.5478
vt 0.3675 0.5282
vt 0.3763 0.55
vt 0.3672 0.5589
vt 0.3651 0.5538
vt 0.3545 0.5587
vt 0.3566 0.5537
vt 0.3456 0.5497
vt 0.3507 0.5476
vt 0.3568 0.5332
vt 0.3548 0.5281
vt 0.3457 0.537
vt 0.3508 0.5391
vt 0.368 0.4987
vt 0.374 0.5047
vt 0.3817 0.5016
vt 0.3739 0.5132
vt 0.3713 0.491
vt 0.3816 0.5165
vt 0.3595 0.4986
vt 0.3709 0.527
vt 0.3564 0.4908
vt 0.3678 0.5192
vt 0.3534 0.5045
vt 0.356 0.5268
vt 0.3457 0.5012
vt 0.3593 0.5191
vt 0.3533 0.513
vt 0.3456 0.5162
vn 0.9238766 0 -0.3826903
vn 0.9238766 0 -0.3826903
vn 0.9238766 0 -0.3826903
vn 0.9238766 0 -0.3826903
vn 0.3826903 0 -0.9238766
vn 0.3826903 0 -0.9238766
vn 0.3826903 0 -0.9238766
vn 0.3826903 0 -0.9238766
vn -0.3826903 0 -0.9238766
vn -0.3826903 0 -0.9238766
vn -0.3826903 0 -0.9238766
vn -0.3826903 0 -0.9238766
vn -0.9238766 0 -0.3826903
vn -0.9238766 0 -0.3826903
vn -0.9238766 0 -0.3826903
vn -0.9238766 0 -0.3826903
vn -0.9238766 0 0.3826903
vn -0.9238766 0 0.3826903
vn -0.9238766 0 0.3826903
vn -0.9238766 0 0.3826903
vn -0.3826903 0 0.9238766
vn -0.3826903 0 0.9238766
vn -0.3826903 0 0.9238766
vn -0.3826903 0 0.9238766
vn 0.3826903 0 0.9238766
vn 0.3826903 0 0.9238766
vn 0.3826903 0 0.9238766
vn 0.3826903 0 0.9238766
vn 0.9238766 0 0.3826903
vn 0.9238766 0 0.3826903
vn 0.9238766 0 0.3826903
vn 0.9238766 0 0.3826903
vn 0.9238766 0 -0.3826903
vn 0.9238766 0 -0.3826903
vn 0.9238766 0 -0.3826903
vn 0.9238766 0 -0.3826903
vn 0.3826903 0 -0.9238766
vn 0.3826903 0 -0.9238766
vn 0.3826903 0 -0.9238766
vn 0.3826903 0 -0.9238766
vn -0.3826903 0 -0.9238766
vn -0.3826903 0 -0.9238766
vn -0.3826903 0 -0.9238766
vn -0.3826903 0 -0.9238766
vn -0.9238766 0 -0.3826903
vn -0.9238766 0 -0.3826903
vn -0.9238766 0 -0.3826903
vn -0.9238766 0 -0.3826903
vn -0.9238766 0 0.3826903
vn -0.9238766 0 0.3826903
vn -0.9238766 0 0.3826903
vn -0.9238766 0 0.3826903
vn -0.3826903 0 0.9238766
vn -0.3826903 0 0.9238766
vn -0.3826903 0 0.9238766
vn -0.3826903 0 0.9238766
vn 0.3826903 0 0.9238766
vn 0.3826903 0 0.9238766
vn 0.3826903 0 0.9238766
vn 0.3826903 0 0.9238766
vn 0.9238766 0 0.3826903
vn 0.9238766 0 0.3826903
vn 0.9238766 0 0.3826903
vn 0.9238766 0 0.3826903
vn 1 0 0
vn 0.7071068 0 -0.7071068
vn 1 0 0
vn 0.7071068 0 -0.7071068
vn 0 0 -1
vn 0 0 -1
vn 0 0 -1
vn 0 0 -1
vn -0.7071068 0 -0.7071068
vn -0.7071068 0 -0.7071068
vn -1 0 0
vn -1 0 0
vn -1 0 0
vn -1 0 0
vn -0.7071068 0 0.7071068
vn -0.7071068 0 0.7071068
vn 0 0 1
vn 0 0 1
vn 0 0 1
vn 0 0 1
vn 0.7071068 0 0.7071068
vn 0.7071068 0 0.7071068
vn 1 0 0
vn 1 0 0
vn 0 -1 0
vn 0 -1 0
vn 0 -1 0
vn 0 -1 0
vn 0 -1 0
vn 0 -1 0
vn 0 -1 0
vn 0 -1 0
vn 0 -1 0
vn 0 -1 0
vn 0 -1 0
vn 0 -1 0
vn 0 -1 0
vn 0 -1 0
vn 0 -1 0
vn 0 -1 0
vn 0 1 0
vn 0 1 0
vn 0 1 0
vn 0 1 0
vn 0 1 0
vn 0 1 0
vn 0 1 0
vn 0 1 0
vn 0 1 0
vn 0 1 0
vn 0 1 0
vn 0 1 0
vn 0 1 0
vn 0 1 0
vn 0 1 0
vn 0 1 0
g Cylinder240_0
f 3/3/3 2/2/2 1/1/1
f 4/4/4 3/3/3 1/1/1
f 7/7/7 6/6/6 5/5/5
f 8/8/8 7/7/7 5/5/5
f 11/11/11 10/10/10 9/9/9
f 12/12/12 11/11/11 9/9/9
f 15/15/15 14/14/14 13/13/13
f 16/16/16 15/15/15 13/13/13
f 19/19/19 18/18/18 17/17/17
f 20/20/20 19/19/19 17/17/17
f 23/23/23 22/22/22 21/21/21
f 24/24/24 23/23/23 21/21/21
f 27/27/27 26/26/26 25/25/25
f 28/28/28 27/27/27 25/25/25
f 31/31/31 30/30/30 29/29/29
f 32/32/32 31/31/31 29/29/29
f 35/35/35 34/34/34 33/33/33
f 36/36/36 35/35/35 33/33/33
f 39/39/39 38/38/38 37/37/37
f 40/40/40 39/39/39 37/37/37
f 43/43/43 42/42/42 41/41/41
f 44/44/44 43/43/43 41/41/41
f 47/47/47 46/46/46 45/45/45
f 48/48/48 47/47/47 45/45/45
f 51/51/51 50/50/50 49/49/49
f 52/52/52 51/51/51 49/49/49
f 55/55/55 54/54/54 53/53/53
f 56/56/56 55/55/55 53/53/53
f 59/59/59 58/58/58 57/57/57
f 60/60/60 59/59/59 57/57/57
f 63/63/63 62/62/62 61/61/61
f 64/64/64 63/63/63 61/61/61
f 67/67/67 66/66/66 65/65/65
f 66/66/66 68/68/68 65/65/65
f 66/66/66 69/69/69 68/68/68
f 69/69/69 70/70/70 68/68/68
f 73/73/73 72/72/72 71/71/71
f 74/74/74 73/73/73 71/71/71
f 75/75/75 73/73/73 74/74/74
f 76/76/76 75/75/75 74/74/74
f 79/79/79 78/78/78 77/77/77
f 80/80/80 79/79/79 77/77/77
f 79/79/79 80/80/80 81/81/81
f 80/80/80 82/82/82 81/81/81
f 85/85/85 84/84/84 83/83/83
f 86/86/86 85/85/85 83/83/83
f 85/85/85 86/86/86 87/87/87
f 86/86/86 88/88/88 87/87/87
f 91/91/91 90/90/90 89/89/89
f 91/91/91 89/89/89 92/92/92
f 90/90/90 93/93/93 89/89/89
f 89/89/89 94/94/94 92/92/92
f 94/94/94 95/95/95 92/92/92
f 95/95/95 96/96/96 92/92/92
f 95/95/95 97/97/97 96/96/96
f 97/97/97 98/98/98 96/96/96
f 97/97/97 99/99/99 98/98/98
f 99/99/99 100/100/100 98/98/98
f 93/93/93 90/90/90 101/101/101
f 102/102/102 93/93/93 101/101/101
f 99/99/99 103/103/103 100/100/100
f 102/102/102 101/101/101 103/103/103
f 103/103/103 104/104/104 100/100/100
f 101/101/101 104/104/104 103/103/103
f 107/107/107 106/106/106 105/105/105
f 106/106/106 107/107/107 108/108/108
f 109/109/109 107/107/107 105/105/105
f 107/107/107 110/110/110 108/108/108
f 109/109/109 105/105/105 111/111/111
f 110/110/110 112/112/112 108/108/108
f 113/113/113 109/109/109 111/111/111
f 112/112/112 114/114/114 108/108/108
f 113/113/113 111/111/111 115/115/115
f 112/112/112 116/116/116 114/114/114
f 117/117/117 113/113/113 115/115/115
f 116/116/116 118/118/118 114/114/114
f 115/115/115 119/119/119 117/117/117
f 116/116/116 120/120/120 118/118/118
f 119/119/119 120/120/120 117/117/117
f 120/120/120 119/119/119 118/118/118
