g Cylinder239
v 19.5303 -101.0464 -19.5308
v 23.0664 -108.4231 -23.0664
v 32.6201 -108.4231 0
v 27.6201 -101.0464 0
v 19.5303 -101.0464 19.5308
v 27.6201 -101.0464 0
v 32.6201 -108.4231 0
v 23.0664 -108.4231 23.0664
v 19.5303 -101.0464 19.5308
v 23.0664 -108.4231 23.0664
v 0 -108.4231 32.6206
v 0 -101.0464 27.6206
v 0 -101.0464 27.6206
v 0 -108.4231 32.6206
v -23.0664 -108.4231 23.0664
v -19.5303 -101.0464 19.5308
v -19.5303 -101.0464 19.5308
v -23.0664 -108.4231 23.0664
v -32.6201 -108.4231 0
v -27.6201 -101.0464 0
v -19.5303 -101.0464 -19.5308
v -27.6201 -101.0464 0
v -32.6201 -108.4231 0
v -23.0664 -108.4231 -23.0664
v -19.5303 -101.0464 -19.5308
v -23.0664 -108.4231 -23.0664
v 0 -108.4231 -32.6206
v 0 -101.0464 -27.6206
v 0 -101.0464 -27.6206
v 0 -108.4231 -32.6206
v 23.0664 -108.4231 -23.0664
v 19.5303 -101.0464 -19.5308
v 32.6201 110.7507 0
v 23.0664 110.7507 -23.0664
v 19.5303 102.9546 -19.5308
v 27.6201 102.9546 0
v 19.5303 102.9546 -19.5308
v 23.0664 110.7507 -23.0664
v 0 110.7507 -32.6206
v 0 102.9546 -27.6206
v -23.0664 110.7507 -23.0664
v -19.5303 102.9546 -19.5308
v 0 102.9546 -27.6206
v 0 110.7507 -32.6206
v -19.5303 102.9546 -19.5308
v -23.0664 110.7507 -23.0664
v -32.6201 110.7507 0
v -27.6201 102.9546 0
v -23.0664 110.7507 23.0664
v -19.5303 102.9546 19.5308
v -27.6201 102.9546 0
v -32.6201 110.7507 0
v 0 102.9546 27.6206
v -19.5303 102.9546 19.5308
v -23.0664 110.7507 23.0664
v 0 110.7507 32.6206
v 19.5303 102.9546 19.5308
v 0 102.9546 27.6206
v 0 110.7507 32.6206
v 23.0664 110.7507 23.0664
v 32.6201 110.7507 0
v 27.6201 102.9546 0
v 19.5303 102.9546 19.5308
v 23.0664 110.7507 23.0664
v 32.6201 -128.7742 0
v 23.0664 -108.4231 -23.0664
v 23.0664 -128.7742 -23.0664
v 32.6201 -108.4231 0
v 23.0664 -128.7742 23.0664
v 23.0664 -108.4231 23.0664
v 23.0664 -108.4231 -23.0664
v 0 -128.7742 -32.6206
v 23.0664 -128.7742 -23.0664
v 0 -108.4231 -32.6206
v -23.0664 -128.7742 -23.0664
v -23.0664 -108.4231 -23.0664
v -32.6201 -128.7742 0
v -23.0664 -128.7742 -23.0664
v -23.0664 -108.4231 -23.0664
v -32.6201 -108.4231 0
v -23.0664 -128.7742 23.0664
v -23.0664 -108.4231 23.0664
v 0 -108.4231 32.6206
v -23.0664 -128.7742 23.0664
v -23.0664 -108.4231 23.0664
v 0 -128.7742 32.6206
v 23.0664 -128.7742 23.0664
v 23.0664 -108.4231 23.0664
v 19.5303 -101.0464 -19.5308
v 27.6201 102.9546 0
v 19.5303 102.9546 -19.5308
v 27.6201 -101.0464 0
v 19.5303 102.9546 19.5308
v 19.5303 -101.0464 19.5308
v 19.5303 -101.0464 -19.5308
v 19.5303 102.9546 -19.5308
v 0 102.9546 -27.6206
v 0 -101.0464 -27.6206
v -19.5303 102.9546 -19.5308
v -19.5303 -101.0464 -19.5308
v -27.6201 -101.0464 0
v -19.5303 -101.0464 -19.5308
v -19.5303 102.9546 -19.5308
v -27.6201 102.9546 0
v -19.5303 102.9546 19.5308
v -19.5303 -101.0464 19.5308
v 0 -101.0464 27.6206
v -19.5303 -101.0464 19.5308
v -19.5303 102.9546 19.5308
v 0 102.9546 27.6206
v 19.5303 102.9546 19.5308
v 19.5303 -101.0464 19.5308
v 23.0664 110.7507 -23.0664
v 32.6201 128.7744 0
v 23.0664 128.7744 -23.0664
v 32.6201 110.7507 0
v 23.0664 110.7507 23.0664
v 23.0664 128.7744 23.0664
v 23.0664 110.7507 -23.0664
v 23.0664 128.7744 -23.0664
v 0 128.7744 -32.6206
v 0 110.7507 -32.6206
v -23.0664 128.7744 -23.0664
v -23.0664 110.7507 -23.0664
v -23.0664 110.7507 -23.0664
v -23.0664 128.7744 -23.0664
v -32.6201 128.7744 0
v -32.6201 110.7507 0
v -23.0664 128.7744 23.0664
v -23.0664 110.7507 23.0664
v 0 128.7744 32.6206
v -23.0664 110.7507 23.0664
v -23.0664 128.7744 23.0664
v 0 110.7507 32.6206
v 23.0664 128.7744 23.0664
v 23.0664 110.7507 23.0664
v 19.5303 -128.7742 -19.5308
v 32.6201 -128.7742 0
v 23.0664 -128.7742 -23.0664
v 0 -128.7742 -32.6206
v 27.6201 -128.7742 0
v 0 -128.7742 -27.6206
v 23.0664 -128.7742 23.0664
v 19.5303 -128.7742 19.5308
v 0 -128.7742 27.6206
v 0 -128.7742 32.6206
v -19.5303 -128.7742 19.5308
v -23.0664 -128.7742 23.0664
v -23.0664 -128.7742 -23.0664
v -19.5303 -128.7742 -19.5308
v -27.6201 -128.7742 0
v -32.6201 -128.7742 0
v 0 128.7744 0
v 23.0664 128.7744 -23.0664
v 32.6201 128.7744 0
v 23.0664 128.7744 23.0664
v 0 128.7744 -32.6206
v 0 128.7744 32.6206
v -23.0664 128.7744 -23.0664
v -23.0664 128.7744 23.0664
v -32.6201 128.7744 0
vt 0.5848 0.4378
vt 0.5787 0.4349
vt 0.5787 0.454
vt 0.5848 0.454
vt 0.5848 0.4701
vt 0.5848 0.454
vt 0.5787 0.454
vt 0.5787 0.4731
vt 0.5848 0.392
vt 0.5787 0.3891
vt 0.5787 0.4081
vt 0.5848 0.4081
vt 0.5848 0.4081
vt 0.5787 0.4081
vt 0.5787 0.4272
vt 0.5848 0.4243
vt 0.5848 0.3002
vt 0.5787 0.2973
vt 0.5787 0.3164
vt 0.5848 0.3164
vt 0.5848 0.3325
vt 0.5848 0.3164
vt 0.5787 0.3164
vt 0.5787 0.3354
vt 0.5848 0.3461
vt 0.5787 0.3432
vt 0.5787 0.3622
vt 0.5848 0.3622
vt 0.5848 0.3622
vt 0.5787 0.3622
vt 0.5787 0.3813
vt 0.5848 0.3784
vt 0.7598 0.454
vt 0.7598 0.4349
vt 0.7534 0.4378
vt 0.7534 0.454
vt 0.7534 0.3784
vt 0.7598 0.3813
vt 0.7598 0.3622
vt 0.7534 0.3622
vt 0.7598 0.3432
vt 0.7534 0.3461
vt 0.7534 0.3622
vt 0.7598 0.3622
vt 0.7534 0.3325
vt 0.7598 0.3354
vt 0.7598 0.3164
vt 0.7534 0.3164
vt 0.7598 0.2973
vt 0.7534 0.3002
vt 0.7534 0.3164
vt 0.7598 0.3164
vt 0.7534 0.4081
vt 0.7534 0.4243
vt 0.7598 0.4272
vt 0.7598 0.4081
vt 0.7534 0.392
vt 0.7534 0.4081
vt 0.7598 0.4081
vt 0.7598 0.3891
vt 0.7598 0.454
vt 0.7534 0.454
vt 0.7534 0.4701
vt 0.7598 0.4731
vt 0.5619 0.454
vt 0.5787 0.4349
vt 0.5619 0.4349
vt 0.5787 0.454
vt 0.5619 0.4731
vt 0.5787 0.4731
vt 0.5787 0.3813
vt 0.5619 0.3622
vt 0.5619 0.3813
vt 0.5787 0.3622
vt 0.5619 0.3432
vt 0.5787 0.3432
vt 0.5619 0.3164
vt 0.5619 0.3354
vt 0.5787 0.3354
vt 0.5787 0.3164
vt 0.5619 0.2973
vt 0.5787 0.2973
vt 0.5787 0.4081
vt 0.5619 0.4272
vt 0.5787 0.4272
vt 0.5619 0.4081
vt 0.5619 0.3891
vt 0.5787 0.3891
vt 0.5848 0.4378
vt 0.7534 0.454
vt 0.7534 0.4378
vt 0.5848 0.454
vt 0.7534 0.4701
vt 0.5848 0.4701
vt 0.5848 0.3784
vt 0.7534 0.3784
vt 0.7534 0.3622
vt 0.5848 0.3622
vt 0.7534 0.3461
vt 0.5848 0.3461
vt 0.5848 0.3164
vt 0.5848 0.3325
vt 0.7534 0.3325
vt 0.7534 0.3164
vt 0.7534 0.3002
vt 0.5848 0.3002
vt 0.5848 0.4081
vt 0.5848 0.4243
vt 0.7534 0.4243
vt 0.7534 0.4081
vt 0.7534 0.392
vt 0.5848 0.392
vt 0.7598 0.4349
vt 0.7747 0.454
vt 0.7747 0.4349
vt 0.7598 0.454
vt 0.7598 0.4731
vt 0.7747 0.4731
vt 0.7598 0.3813
vt 0.7747 0.3813
vt 0.7747 0.3622
vt 0.7598 0.3622
vt 0.7747 0.3432
vt 0.7598 0.3432
vt 0.7598 0.3354
vt 0.7747 0.3354
vt 0.7747 0.3164
vt 0.7598 0.3164
vt 0.7747 0.2973
vt 0.7598 0.2973
vt 0.7747 0.4081
vt 0.7598 0.4272
vt 0.7747 0.4272
vt 0.7598 0.4081
vt 0.7747 0.3891
vt 0.7598 0.3891
vt 0.4513 0.145
vt 0.4622 0.1289
vt 0.4475 0.1434
vt 0.4473 0.164
vt 0.4638 0.1328
vt 0.4511 0.1625
vt 0.4829 0.1291
vt 0.4813 0.1329
vt 0.4935 0.1454
vt 0.4973 0.1439
vt 0.4933 0.1629
vt 0.4971 0.1645
vt 0.4618 0.1787
vt 0.4634 0.1749
vt 0.4808 0.1751
vt 0.4824 0.1789
vt 0.5281 0.1539
vt 0.5387 0.1291
vt 0.5181 0.1289
vt 0.5033 0.1434
vt 0.5531 0.1439
vt 0.5031 0.164
vt 0.5529 0.1645
vt 0.5176 0.1787
vt 0.5382 0.1789
vn 0.7830384 0.5307261 -0.3243159
vn 0.7830384 0.5307261 -0.3243159
vn 0.7830384 0.5307261 -0.3243159
vn 0.7830384 0.5307261 -0.3243159
vn 0.7830384 0.5307261 0.3243159
vn 0.7830384 0.5307261 0.3243159
vn 0.7830384 0.5307261 0.3243159
vn 0.7830384 0.5307261 0.3243159
vn 0.3243159 0.5307261 0.7830384
vn 0.3243159 0.5307261 0.7830384
vn 0.3243159 0.5307261 0.7830384
vn 0.3243159 0.5307261 0.7830384
vn -0.3243159 0.5307261 0.7830384
vn -0.3243159 0.5307261 0.7830384
vn -0.3243159 0.5307261 0.7830384
vn -0.3243159 0.5307261 0.7830384
vn -0.7830384 0.5307261 0.3243159
vn -0.7830384 0.5307261 0.3243159
vn -0.7830384 0.5307261 0.3243159
vn -0.7830384 0.5307261 0.3243159
vn -0.7830384 0.5307261 -0.3243159
vn -0.7830384 0.5307261 -0.3243159
vn -0.7830384 0.5307261 -0.3243159
vn -0.7830384 0.5307261 -0.3243159
vn -0.3243159 0.5307261 -0.7830384
vn -0.3243159 0.5307261 -0.7830384
vn -0.3243159 0.5307261 -0.7830384
vn -0.3243159 0.5307261 -0.7830384
vn 0.3243159 0.5307261 -0.7830384
vn 0.3243159 0.5307261 -0.7830384
vn 0.3243159 0.5307261 -0.7830384
vn 0.3243159 0.5307261 -0.7830384
vn 0.7948096 -0.5098062 -0.329204
vn 0.7948096 -0.5098062 -0.329204
vn 0.7948096 -0.5098062 -0.329204
vn 0.7948096 -0.5098062 -0.329204
vn 0.329204 -0.5098062 -0.7948096
vn 0.329204 -0.5098062 -0.7948096
vn 0.329204 -0.5098062 -0.7948096
vn 0.329204 -0.5098062 -0.7948096
vn -0.329204 -0.5098062 -0.7948096
vn -0.329204 -0.5098062 -0.7948096
vn -0.329204 -0.5098062 -0.7948096
vn -0.329204 -0.5098062 -0.7948096
vn -0.7948096 -0.5098062 -0.329204
vn -0.7948096 -0.5098062 -0.329204
vn -0.7948096 -0.5098062 -0.329204
vn -0.7948096 -0.5098062 -0.329204
vn -0.7948096 -0.5098062 0.329204
vn -0.7948096 -0.5098062 0.329204
vn -0.7948096 -0.5098062 0.329204
vn -0.7948096 -0.5098062 0.329204
vn -0.329204 -0.5098062 0.7948096
vn -0.329204 -0.5098062 0.7948096
vn -0.329204 -0.5098062 0.7948096
vn -0.329204 -0.5098062 0.7948096
vn 0.329204 -0.5098062 0.7948096
vn 0.329204 -0.5098062 0.7948096
vn 0.329204 -0.5098062 0.7948096
vn 0.329204 -0.5098062 0.7948096
vn 0.7948096 -0.5098062 0.329204
vn 0.7948096 -0.5098062 0.329204
vn 0.7948096 -0.5098062 0.329204
vn 0.7948096 -0.5098062 0.329204
vn 1 0 0
vn 0.7071068 0 -0.7071068
vn 0.7071068 0 -0.7071068
vn 1 0 0
vn 0.7071068 0 0.7071068
vn 0.7071068 0 0.7071068
vn 0.7071068 0 -0.7071068
vn 0 0 -1
vn 0.7071068 0 -0.7071068
vn 0 0 -1
vn -0.7071068 0 -0.7071068
vn -0.7071068 0 -0.7071068
vn -1 0 0
vn -0.7071068 0 -0.7071068
vn -0.7071068 0 -0.7071068
vn -1 0 0
vn -0.7071068 0 0.7071068
vn -0.7071068 0 0.7071068
vn 0 0 1
vn -0.7071068 0 0.7071068
vn -0.7071068 0 0.7071068
vn 0 0 1
vn 0.7071068 0 0.7071068
vn 0.7071068 0 0.7071068
vn 0.7071068 0 -0.7071068
vn 1 0 0
vn 0.7071068 0 -0.7071068
vn 1 0 0
vn 0.7071068 0 0.7071068
vn 0.7071068 0 0.7071068
vn 0.7071068 0 -0.7071068
vn 0.7071068 0 -0.7071068
vn 0 0 -1
vn 0 0 -1
vn -0.7071068 0 -0.7071068
vn -0.7071068 0 -0.7071068
vn -1 0 0
vn -0.7071068 0 -0.7071068
vn -0.7071068 0 -0.7071068
vn -1 0 0
vn -0.7071068 0 0.7071068
vn -0.7071068 0 0.7071068
vn 0 0 1
vn -0.7071068 0 0.7071068
vn -0.7071068 0 0.7071068
vn 0 0 1
vn 0.7071068 0 0.7071068
vn 0.7071068 0 0.7071068
vn 0.7071068 0 -0.7071068
vn 1 0 0
vn 0.7071068 0 -0.7071068
vn 1 0 0
vn 0.7071068 0 0.7071068
vn 0.7071068 0 0.7071068
vn 0.7071068 0 -0.7071068
vn 0.7071068 0 -0.7071068
vn 0 0 -1
vn 0 0 -1
vn -0.7071068 0 -0.7071068
vn -0.7071068 0 -0.7071068
vn -0.7071068 0 -0.7071068
vn -0.7071068 0 -0.7071068
vn -1 0 0
vn -1 0 0
vn -0.7071068 0 0.7071068
vn -0.7071068 0 0.7071068
vn 0 0 1
vn -0.7071068 0 0.7071068
vn -0.7071068 0 0.7071068
vn 0 0 1
vn 0.7071068 0 0.7071068
vn 0.7071068 0 0.7071068
vn 0 -1 0
vn 0 -1 0
vn 0 -1 0
vn 0 -1 0
vn 0 -1 0
vn 0 -1 0
vn 0 -1 0
vn 0 -1 0
vn 0 -1 0
vn 0 -1 0
vn 0 -1 0
vn 0 -1 0
vn 0 -1 0
vn 0 -1 0
vn 0 -1 0
vn 0 -1 0
vn 0 1 0
vn 0 1 0
vn 0 1 0
vn 0 1 0
vn 0 1 0
vn 0 1 0
vn 0 1 0
vn 0 1 0
vn 0 1 0
g Cylinder239_0
f 3/3/3 2/2/2 1/1/1
f 4/4/4 3/3/3 1/1/1
f 7/7/7 6/6/6 5/5/5
f 8/8/8 7/7/7 5/5/5
f 11/11/11 10/10/10 9/9/9
f 12/12/12 11/11/11 9/9/9
f 15/15/15 14/14/14 13/13/13
f 16/16/16 15/15/15 13/13/13
f 19/19/19 18/18/18 17/17/17
f 20/20/20 19/19/19 17/17/17
f 23/23/23 22/22/22 21/21/21
f 24/24/24 23/23/23 21/21/21
f 27/27/27 26/26/26 25/25/25
f 28/28/28 27/27/27 25/25/25
f 31/31/31 30/30/30 29/29/29
f 32/32/32 31/31/31 29/29/29
f 35/35/35 34/34/34 33/33/33
f 36/36/36 35/35/35 33/33/33
f 39/39/39 38/38/38 37/37/37
f 40/40/40 39/39/39 37/37/37
f 43/43/43 42/42/42 41/41/41
f 44/44/44 43/43/43 41/41/41
f 47/47/47 46/46/46 45/45/45
f 48/48/48 47/47/47 45/45/45
f 51/51/51 50/50/50 49/49/49
f 52/52/52 51/51/51 49/49/49
f 55/55/55 54/54/54 53/53/53
f 56/56/56 55/55/55 53/53/53
f 59/59/59 58/58/58 57/57/57
f 60/60/60 59/59/59 57/57/57
f 63/63/63 62/62/62 61/61/61
f 64/64/64 63/63/63 61/61/61
f 67/67/67 66/66/66 65/65/65
f 66/66/66 68/68/68 65/65/65
f 65/65/65 68/68/68 69/69/69
f 68/68/68 70/70/70 69/69/69
f 73/73/73 72/72/72 71/71/71
f 72/72/72 74/74/74 71/71/71
f 74/74/74 72/72/72 75/75/75
f 76/76/76 74/74/74 75/75/75
f 79/79/79 78/78/78 77/77/77
f 80/80/80 79/79/79 77/77/77
f 80/80/80 77/77/77 81/81/81
f 82/82/82 80/80/80 81/81/81
f 85/85/85 84/84/84 83/83/83
f 84/84/84 86/86/86 83/83/83
f 83/83/83 86/86/86 87/87/87
f 88/88/88 83/83/83 87/87/87
f 91/91/91 90/90/90 89/89/89
f 90/90/90 92/92/92 89/89/89
f 90/90/90 93/93/93 92/92/92
f 93/93/93 94/94/94 92/92/92
f 97/97/97 96/96/96 95/95/95
f 98/98/98 97/97/97 95/95/95
f 97/97/97 98/98/98 99/99/99
f 98/98/98 100/100/100 99/99/99
f 103/103/103 102/102/102 101/101/101
f 104/104/104 103/103/103 101/101/101
f 105/105/105 104/104/104 101/101/101
f 106/106/106 105/105/105 101/101/101
f 109/109/109 108/108/108 107/107/107
f 110/110/110 109/109/109 107/107/107
f 110/110/110 107/107/107 111/111/111
f 107/107/107 112/112/112 111/111/111
f 115/115/115 114/114/114 113/113/113
f 114/114/114 116/116/116 113/113/113
f 116/116/116 114/114/114 117/117/117
f 114/114/114 118/118/118 117/117/117
f 121/121/121 120/120/120 119/119/119
f 122/122/122 121/121/121 119/119/119
f 121/121/121 122/122/122 123/123/123
f 122/122/122 124/124/124 123/123/123
f 127/127/127 126/126/126 125/125/125
f 128/128/128 127/127/127 125/125/125
f 127/127/127 128/128/128 129/129/129
f 128/128/128 130/130/130 129/129/129
f 133/133/133 132/132/132 131/131/131
f 132/132/132 134/134/134 131/131/131
f 135/135/135 131/131/131 134/134/134
f 136/136/136 135/135/135 134/134/134
f 139/139/139 138/138/138 137/137/137
f 140/140/140 139/139/139 137/137/137
f 138/138/138 141/141/141 137/137/137
f 142/142/142 140/140/140 137/137/137
f 141/141/141 138/138/138 143/143/143
f 144/144/144 141/141/141 143/143/143
f 144/144/144 143/143/143 145/145/145
f 143/143/143 146/146/146 145/145/145
f 145/145/145 146/146/146 147/147/147
f 146/146/146 148/148/148 147/147/147
f 140/140/140 142/142/142 149/149/149
f 142/142/142 150/150/150 149/149/149
f 147/147/147 148/148/148 151/151/151
f 149/149/149 150/150/150 151/151/151
f 148/148/148 152/152/152 151/151/151
f 152/152/152 149/149/149 151/151/151
f 155/155/155 154/154/154 153/153/153
f 156/156/156 155/155/155 153/153/153
f 154/154/154 157/157/157 153/153/153
f 158/158/158 156/156/156 153/153/153
f 157/157/157 159/159/159 153/153/153
f 160/160/160 158/158/158 153/153/153
f 159/159/159 161/161/161 153/153/153
f 161/161/161 160/160/160 153/153/153
