g default
v 2.264683 0.226435 2.986507
v -2.264684 0.226435 2.986507
v -2.264684 5.067081 0.101265
v 2.264683 5.067081 0.101265
v 2.462468 0.254325 2.73963
v 2.462468 4.850675 0
v -2.264684 0.226435 -2.986507
v 2.264683 0.226435 -2.986507
v 2.264683 5.067081 -0.101265
v -2.264684 5.067081 -0.101265
v -2.462469 0.254325 -2.73963
v -2.462469 4.850675 0
v -2.264684 5.067081 0.101265
v -2.462469 4.850675 0
v -2.264684 5.067081 -0.101265
v -2.264684 0.226435 2.986507
v -2.462469 0.254325 2.73963
v -2.264684 0.05654 2.889987
v -2.462469 0.254325 -2.73963
v -2.264684 0.05654 -2.889987
v -2.264684 0.226435 -2.986507
v 2.462468 0.254325 2.73963
v 2.264683 0.05654 2.889987
v 2.264683 0.226435 2.986507
v 2.462468 0.254325 -2.73963
v 2.264683 0.05654 -2.889987
v 2.264683 0.226435 -2.986507
v 2.462468 4.850675 0
v 2.264683 5.067081 -0.101265
v 2.264683 5.067081 0.101265
v 2.264683 0.05654 -2.889987
v 2.264683 0.226435 -2.986507
v -2.264684 0.226435 -2.986507
v -2.264684 0.05654 -2.889987
v -2.264684 0.05654 2.889987
v -2.264684 0.226435 2.986507
v 2.264683 0.226435 2.986507
v 2.264683 0.05654 2.889987
v -2.264684 5.067081 0.101265
v -2.264684 5.067081 -0.101265
v 2.264683 5.067081 -0.101265
v 2.264683 5.067081 0.101265
v -2.264684 0.05654 -2.889987
v -2.264684 0.05654 2.889987
v 2.264683 0.05654 2.889987
v 2.264683 0.05654 -2.889987
vt 0.3832 0.9768
vt 0.5313 0.9768
vt 0.5313 0.7575
vt 0.3832 0.7575
vt 0.3768 0.9709
vt 0.3768 0.7627
vt 0.3751 0.7427
vt 0.5232 0.7427
vt 0.5232 0.5234
vt 0.3751 0.5234
vt 0.3686 0.7368
vt 0.3686 0.5287
vt 0.1897 0.8705
vt 0.1968 0.8665
vt 0.1897 0.8626
vt 0.348 0.9827
vt 0.3471 0.9731
vt 0.3535 0.979
vt 0.3471 0.76
vt 0.3535 0.7541
vt 0.348 0.7504
vt 0.1686 0.7398
vt 0.1751 0.734
vt 0.1695 0.7302
vt 0.1686 0.953
vt 0.1751 0.9588
vt 0.1695 0.9626
vt 0.0183 0.8464
vt 0.0113 0.8503
vt 0.0113 0.8425
vt 0.2444 0.5383
vt 0.238 0.5383
vt 0.238 0.7145
vt 0.2444 0.7145
vt 0.2544 0.713
vt 0.2608 0.713
vt 0.2608 0.5368
vt 0.2544 0.5368
vt 0.2241 0.7145
vt 0.2307 0.7145
vt 0.2307 0.5383
vt 0.2241 0.5383
vt 0.5564 0.7515
vt 0.5564 0.9764
vt 0.7045 0.9764
vt 0.7045 0.7515
vn 0.3867007 0.002600004 0.9222016
vn -0.3867007 0.002600004 0.9222016
vn -0.3808317 0.806167 0.4528376
vn 0.3808317 0.806167 0.4528376
vn 0.9225175 -0.1906036 0.3356064
vn 0.9179771 0.3966333 0
vn -0.3867007 0.002600004 -0.9222016
vn 0.3867007 0.002600004 -0.9222016
vn 0.3808317 0.806167 -0.4528376
vn -0.3808317 0.806167 -0.4528376
vn -0.9225175 -0.1906036 -0.3356064
vn -0.9179771 0.3966333 0
vn -0.3808317 0.806167 0.4528376
vn -0.9179771 0.3966333 0
vn -0.3808317 0.806167 -0.4528376
vn -0.3867007 0.002600004 0.9222016
vn -0.9225175 -0.1906036 0.3356064
vn -0.3867029 -0.7935059 0.4699035
vn -0.9225175 -0.1906036 -0.3356064
vn -0.3867029 -0.7935059 -0.4699035
vn -0.3867007 0.002600004 -0.9222016
vn 0.9225175 -0.1906036 0.3356064
vn 0.3867029 -0.7935059 0.4699035
vn 0.3867007 0.002600004 0.9222016
vn 0.9225175 -0.1906036 -0.3356064
vn 0.3867029 -0.7935059 -0.4699035
vn 0.3867007 0.002600004 -0.9222016
vn 0.9179771 0.3966333 0
vn 0.3808317 0.806167 -0.4528376
vn 0.3808317 0.806167 0.4528376
vn 0.3867029 -0.7935059 -0.4699035
vn 0.3867007 0.002600004 -0.9222016
vn -0.3867007 0.002600004 -0.9222016
vn -0.3867029 -0.7935059 -0.4699035
vn -0.3867029 -0.7935059 0.4699035
vn -0.3867007 0.002600004 0.9222016
vn 0.3867007 0.002600004 0.9222016
vn 0.3867029 -0.7935059 0.4699035
vn -0.3808317 0.806167 0.4528376
vn -0.3808317 0.806167 -0.4528376
vn 0.3808317 0.806167 -0.4528376
vn 0.3808317 0.806167 0.4528376
vn -0.3867029 -0.7935059 -0.4699035
vn -0.3867029 -0.7935059 0.4699035
vn 0.3867029 -0.7935059 0.4699035
vn 0.3867029 -0.7935059 -0.4699035
g default_0
f 3/3/3 2/2/2 1/1/1
f 4/4/4 3/3/3 1/1/1
f 1/1/1 5/5/5 4/4/4
f 5/5/5 6/6/6 4/4/4
f 9/9/9 8/8/8 7/7/7
f 10/10/10 9/9/9 7/7/7
f 7/7/7 11/11/11 10/10/10
f 11/11/11 12/12/12 10/10/10
f 15/15/15 14/14/14 13/13/13
f 13/13/13 14/14/14 16/16/16
f 14/14/14 17/17/17 16/16/16
f 16/16/16 17/17/17 18/18/18
f 14/14/14 19/19/19 17/17/17
f 18/18/18 17/17/17 20/20/20
f 17/17/17 19/19/19 20/20/20
f 21/21/21 20/20/20 19/19/19
f 24/24/24 23/23/23 22/22/22
f 25/25/25 22/22/22 23/23/23
f 26/26/26 25/25/25 23/23/23
f 27/27/27 25/25/25 26/26/26
f 28/28/28 22/22/22 25/25/25
f 25/25/25 27/27/27 28/28/28
f 27/27/27 29/29/29 28/28/28
f 29/29/29 30/30/30 28/28/28
f 33/33/33 32/32/32 31/31/31
f 34/34/34 33/33/33 31/31/31
f 37/37/37 36/36/36 35/35/35
f 38/38/38 37/37/37 35/35/35
f 41/41/41 40/40/40 39/39/39
f 42/42/42 41/41/41 39/39/39
f 45/45/45 44/44/44 43/43/43
f 46/46/46 45/45/45 43/43/43
