g default
v 2.023479 0.233323 2.844141
v -2.023479 0.233323 2.844141
v -2.023479 9.264602 2.844141
v 2.023479 9.264602 2.844141
v 2.221457 0.233323 -2.649974
v 2.221457 0.233323 2.646163
v 2.221457 9.264602 2.646163
v 2.221457 9.264602 -2.649974
v 2.023479 9.46258 -2.649974
v 2.023479 9.46258 2.646163
v -2.023479 9.46258 2.646163
v -2.023479 9.46258 -2.649974
v -2.221457 0.233323 2.646163
v -2.221457 0.233323 -2.649974
v -2.221457 9.264602 -2.649974
v -2.221457 9.264602 2.646163
v -2.023479 0.233323 -2.847952
v 2.023479 0.233323 -2.847952
v 2.023479 9.264602 -2.847952
v -2.023479 9.264602 -2.847952
v -2.023479 0.035345 2.646163
v -2.221457 0.233323 2.646163
v -2.023479 0.233323 2.844141
v -2.023479 0.035345 -2.649974
v -2.221457 0.233323 -2.649974
v -2.023479 9.264602 2.844141
v -2.221457 9.264602 2.646163
v -2.023479 9.46258 2.646163
v -2.221457 9.264602 -2.649974
v -2.023479 9.46258 -2.649974
v -2.023479 0.035345 -2.649974
v -2.023479 0.233323 -2.847952
v -2.221457 0.233323 -2.649974
v -2.023479 9.264602 -2.847952
v -2.221457 9.264602 -2.649974
v -2.023479 9.46258 -2.649974
v 2.023479 0.035345 2.646163
v 2.023479 0.233323 2.844141
v 2.221457 0.233323 2.646163
v 2.221457 0.233323 -2.649974
v 2.023479 0.035345 -2.649974
v 2.023479 9.46258 2.646163
v 2.221457 9.264602 2.646163
v 2.023479 9.264602 2.844141
v 2.023479 9.46258 -2.649974
v 2.221457 9.264602 -2.649974
v 2.023479 0.035345 -2.649974
v 2.221457 0.233323 -2.649974
v 2.023479 0.233323 -2.847952
v 2.221457 9.264602 -2.649974
v 2.023479 9.264602 -2.847952
v 2.023479 9.46258 -2.649974
v -2.023479 0.233323 2.844141
v -2.221457 0.233323 2.646163
v -2.221457 9.264602 2.646163
v -2.023479 9.264602 2.844141
v 2.023479 0.035345 -2.649974
v 2.023479 0.233323 -2.847952
v -2.023479 0.233323 -2.847952
v -2.023479 0.035345 -2.649974
v -2.023479 9.46258 -2.649974
v -2.023479 9.264602 -2.847952
v 2.023479 9.264602 -2.847952
v 2.023479 9.46258 -2.649974
v 2.023479 9.264602 2.844141
v 2.221457 9.264602 2.646163
v 2.221457 0.233323 2.646163
v 2.023479 0.233323 2.844141
v -2.023479 0.035345 2.646163
v -2.023479 0.233323 2.844141
v 2.023479 0.233323 2.844141
v 2.023479 0.035345 2.646163
v 2.023479 9.46258 2.646163
v 2.023479 9.264602 2.844141
v -2.023479 9.264602 2.844141
v -2.023479 9.46258 2.646163
v -2.023479 0.035345 -2.649974
v -2.023479 0.035345 2.646163
v 2.023479 0.035345 2.646163
v 2.023479 0.035345 -2.649974
vt 0.4457 0.3042
vt 0.5959 0.3042
vt 0.5959 0.0118
vt 0.4457 0.0118
vt 0.231 0.3042
vt 0.4275 0.3042
vt 0.4275 0.0118
vt 0.231 0.0118
vt 0.3275 0.5001
vt 0.3275 0.3286
vt 0.1773 0.3286
vt 0.1773 0.5001
vt 0.0137 0.3042
vt 0.2103 0.3042
vt 0.2103 0.0118
vt 0.0137 0.0118
vt 0.1615 0.3349
vt 0.0113 0.3349
vt 0.0113 0.6274
vt 0.1615 0.6274
vt 0.5249 0.3317
vt 0.5352 0.3317
vt 0.5301 0.3253
vt 0.5249 0.5032
vt 0.5352 0.5032
vt 0.5186 0.3253
vt 0.5134 0.3317
vt 0.5238 0.3317
vt 0.5134 0.5032
vt 0.5238 0.5032
vt 0.621 0.0124
vt 0.6158 0.0189
vt 0.6262 0.0189
vt 0.6158 0.3113
vt 0.6262 0.3113
vt 0.621 0.3177
vt 0.5123 0.3317
vt 0.5071 0.3253
vt 0.5019 0.3317
vt 0.5019 0.5032
vt 0.5123 0.5032
vt 0.5363 0.3317
vt 0.5467 0.3317
vt 0.5415 0.3253
vt 0.5363 0.5032
vt 0.5467 0.5032
vt 0.6096 0.0124
vt 0.6044 0.0189
vt 0.6147 0.0189
vt 0.6044 0.3113
vt 0.6147 0.3113
vt 0.6096 0.3177
vt 0.6377 0.0118
vt 0.6273 0.0118
vt 0.6273 0.3042
vt 0.6377 0.3042
vt 0.5593 0.4575
vt 0.5697 0.4575
vt 0.5697 0.3265
vt 0.5593 0.3265
vt 0.5812 0.3265
vt 0.5708 0.3265
vt 0.5708 0.4575
vt 0.5812 0.4575
vt 0.6388 0.3042
vt 0.6492 0.3042
vt 0.6492 0.0118
vt 0.6388 0.0118
vt 0.5478 0.4575
vt 0.5582 0.4575
vt 0.5582 0.3265
vt 0.5478 0.3265
vt 0.5927 0.3265
vt 0.5823 0.3265
vt 0.5823 0.4575
vt 0.5927 0.4575
vt 0.3433 0.3286
vt 0.3433 0.5001
vt 0.4935 0.5001
vt 0.4935 0.3286
vn 0.3415904 -0.3415904 0.8755754
vn -0.3415904 -0.3415904 0.8755754
vn -0.3415904 0.3415904 0.8755754
vn 0.3415904 0.3415904 0.8755754
vn 0.8755754 -0.3415904 -0.3415904
vn 0.8755754 -0.3415904 0.3415904
vn 0.8755754 0.3415904 0.3415904
vn 0.8755754 0.3415904 -0.3415904
vn 0.3415904 0.8755754 -0.3415904
vn 0.3415904 0.8755754 0.3415904
vn -0.3415904 0.8755754 0.3415904
vn -0.3415904 0.8755754 -0.3415904
vn -0.8755754 -0.3415904 0.3415904
vn -0.8755754 -0.3415904 -0.3415904
vn -0.8755754 0.3415904 -0.3415904
vn -0.8755754 0.3415904 0.3415904
vn -0.3415904 -0.3415904 -0.8755754
vn 0.3415904 -0.3415904 -0.8755754
vn 0.3415904 0.3415904 -0.8755754
vn -0.3415904 0.3415904 -0.8755754
vn -0.3415904 -0.8755754 0.3415904
vn -0.8755754 -0.3415904 0.3415904
vn -0.3415904 -0.3415904 0.8755754
vn -0.3415904 -0.8755754 -0.3415904
vn -0.8755754 -0.3415904 -0.3415904
vn -0.3415904 0.3415904 0.8755754
vn -0.8755754 0.3415904 0.3415904
vn -0.3415904 0.8755754 0.3415904
vn -0.8755754 0.3415904 -0.3415904
vn -0.3415904 0.8755754 -0.3415904
vn -0.3415904 -0.8755754 -0.3415904
vn -0.3415904 -0.3415904 -0.8755754
vn -0.8755754 -0.3415904 -0.3415904
vn -0.3415904 0.3415904 -0.8755754
vn -0.8755754 0.3415904 -0.3415904
vn -0.3415904 0.8755754 -0.3415904
vn 0.3415904 -0.8755754 0.3415904
vn 0.3415904 -0.3415904 0.8755754
vn 0.8755754 -0.3415904 0.3415904
vn 0.8755754 -0.3415904 -0.3415904
vn 0.3415904 -0.8755754 -0.3415904
vn 0.3415904 0.8755754 0.3415904
vn 0.8755754 0.3415904 0.3415904
vn 0.3415904 0.3415904 0.8755754
vn 0.3415904 0.8755754 -0.3415904
vn 0.8755754 0.3415904 -0.3415904
vn 0.3415904 -0.8755754 -0.3415904
vn 0.8755754 -0.3415904 -0.3415904
vn 0.3415904 -0.3415904 -0.8755754
vn 0.8755754 0.3415904 -0.3415904
vn 0.3415904 0.3415904 -0.8755754
vn 0.3415904 0.8755754 -0.3415904
vn -0.3415904 -0.3415904 0.8755754
vn -0.8755754 -0.3415904 0.3415904
vn -0.8755754 0.3415904 0.3415904
vn -0.3415904 0.3415904 0.8755754
vn 0.3415904 -0.8755754 -0.3415904
vn 0.3415904 -0.3415904 -0.8755754
vn -0.3415904 -0.3415904 -0.8755754
vn -0.3415904 -0.8755754 -0.3415904
vn -0.3415904 0.8755754 -0.3415904
vn -0.3415904 0.3415904 -0.8755754
vn 0.3415904 0.3415904 -0.8755754
vn 0.3415904 0.8755754 -0.3415904
vn 0.3415904 0.3415904 0.8755754
vn 0.8755754 0.3415904 0.3415904
vn 0.8755754 -0.3415904 0.3415904
vn 0.3415904 -0.3415904 0.8755754
vn -0.3415904 -0.8755754 0.3415904
vn -0.3415904 -0.3415904 0.8755754
vn 0.3415904 -0.3415904 0.8755754
vn 0.3415904 -0.8755754 0.3415904
vn 0.3415904 0.8755754 0.3415904
vn 0.3415904 0.3415904 0.8755754
vn -0.3415904 0.3415904 0.8755754
vn -0.3415904 0.8755754 0.3415904
vn -0.3415904 -0.8755754 -0.3415904
vn -0.3415904 -0.8755754 0.3415904
vn 0.3415904 -0.8755754 0.3415904
vn 0.3415904 -0.8755754 -0.3415904
g default_0
f 3/3/3 2/2/2 1/1/1
f 4/4/4 3/3/3 1/1/1
f 7/7/7 6/6/6 5/5/5
f 8/8/8 7/7/7 5/5/5
f 11/11/11 10/10/10 9/9/9
f 12/12/12 11/11/11 9/9/9
f 15/15/15 14/14/14 13/13/13
f 16/16/16 15/15/15 13/13/13
f 19/19/19 18/18/18 17/17/17
f 20/20/20 19/19/19 17/17/17
f 23/23/23 22/22/22 21/21/21
f 21/21/21 22/22/22 24/24/24
f 22/22/22 25/25/25 24/24/24
f 28/28/28 27/27/27 26/26/26
f 29/29/29 27/27/27 28/28/28
f 30/30/30 29/29/29 28/28/28
f 33/33/33 32/32/32 31/31/31
f 32/32/32 33/33/33 34/34/34
f 33/33/33 35/35/35 34/34/34
f 34/34/34 35/35/35 36/36/36
f 39/39/39 38/38/38 37/37/37
f 40/40/40 39/39/39 37/37/37
f 41/41/41 40/40/40 37/37/37
f 44/44/44 43/43/43 42/42/42
f 42/42/42 43/43/43 45/45/45
f 43/43/43 46/46/46 45/45/45
f 49/49/49 48/48/48 47/47/47
f 48/48/48 49/49/49 50/50/50
f 49/49/49 51/51/51 50/50/50
f 50/50/50 51/51/51 52/52/52
f 55/55/55 54/54/54 53/53/53
f 56/56/56 55/55/55 53/53/53
f 59/59/59 58/58/58 57/57/57
f 60/60/60 59/59/59 57/57/57
f 63/63/63 62/62/62 61/61/61
f 64/64/64 63/63/63 61/61/61
f 67/67/67 66/66/66 65/65/65
f 68/68/68 67/67/67 65/65/65
f 71/71/71 70/70/70 69/69/69
f 72/72/72 71/71/71 69/69/69
f 75/75/75 74/74/74 73/73/73
f 76/76/76 75/75/75 73/73/73
f 79/79/79 78/78/78 77/77/77
f 80/80/80 79/79/79 77/77/77
