g default
v 0.631336 0.210789 2.356174
v 1E-06 0.210789 2.439291
v 1E-06 4.582226 2.439291
v 0.631336 4.582226 2.356174
v 1.219646 0.210789 2.112488
v 1.219646 4.582226 2.112488
v 1.72484 0.210789 1.724838
v 1.72484 4.582226 1.724838
v 2.112489 0.210789 1.219645
v 2.112489 4.582226 1.219645
v 2.356175 0.210789 0.631334
v 2.356175 4.582226 0.631334
v 2.439291 0.210789 0
v 2.439291 4.582226 0
v 2.356175 0.210789 -0.631335
v 2.356175 4.582226 -0.631335
v 2.112488 0.210789 -1.219646
v 2.112488 4.582226 -1.219646
v 1.72484 0.210789 -1.724839
v 1.72484 4.582226 -1.724839
v 1.219646 0.210789 -2.112488
v 1.219646 4.582226 -2.112488
v 0.631335 0.210789 -2.356174
v 0.631335 4.582226 -2.356174
v 0 0.210789 -2.439291
v 0 4.582226 -2.439291
v -0.631336 0.210789 -2.356174
v -0.631336 4.582226 -2.356174
v -1.219646 0.210789 -2.112487
v -1.219646 4.582226 -2.112487
v -1.72484 0.210789 -1.724838
v -1.72484 4.582226 -1.724838
v -2.112488 0.210789 -1.219645
v -2.112488 4.582226 -1.219645
v -2.356174 0.210789 -0.631334
v -2.356174 4.582226 -0.631334
v -2.439291 0.210789 1E-06
v -2.439291 4.582226 1E-06
v -2.356173 0.210789 0.631336
v -2.356173 4.582226 0.631336
v -2.112487 0.210789 1.219646
v -2.112487 4.582226 1.219646
v -1.724838 0.210789 1.72484
v -1.724838 4.582226 1.72484
v -1.219644 0.210789 2.112488
v -1.219644 4.582226 2.112488
v -0.631333 0.210789 2.356174
v -0.631333 4.582226 2.356174
v 1E-06 0.210789 2.439291
v 1E-06 4.582226 2.439291
v 0 0.210789 -2.439291
v 0 0.043013 -2.270068
v 0.587537 0.043013 -2.192717
v 0 0.043013 0
v 0.631335 0.210789 -2.356174
v -0.631336 0.210789 -2.356174
v 1.135034 0.043013 -1.965936
v 1.219646 0.210789 -2.112488
v -0.587538 0.043013 -2.192717
v -1.219646 0.210789 -2.112487
v 1.605181 0.043013 -1.60518
v 1.72484 0.210789 -1.724839
v -1.135035 0.043013 -1.965935
v -1.72484 0.210789 -1.724838
v 1.965937 0.043013 -1.135034
v 2.112488 0.210789 -1.219646
v -1.605181 0.043013 -1.60518
v 2.192717 0.043013 -0.587537
v -1.965936 0.043013 -1.135033
v -2.112488 0.210789 -1.219645
v 2.356175 0.210789 -0.631335
v -2.356174 0.210789 -0.631334
v 2.270068 0.043013 0
v 2.439291 0.210789 0
v -2.192717 0.043013 -0.587535
v -2.439291 0.210789 1E-06
v 2.192717 0.043013 0.587536
v 2.356175 0.210789 0.631334
v -2.270067 0.043013 1E-06
v -2.356173 0.210789 0.631336
v 1.965937 0.043013 1.135033
v 2.112489 0.210789 1.219645
v -2.192716 0.043013 0.587537
v 1.605181 0.043013 1.605179
v -1.965935 0.043013 1.135034
v -2.112487 0.210789 1.219646
v 1.72484 0.210789 1.724838
v -1.724838 0.210789 1.72484
v 1.135035 0.043013 1.965936
v 1.219646 0.210789 2.112488
v -1.605179 0.043013 1.605181
v -1.219644 0.210789 2.112488
v 0.587538 0.043013 2.192716
v 0.631336 0.210789 2.356174
v -1.135032 0.043013 1.965936
v -0.631333 0.210789 2.356174
v 1E-06 0.043013 2.270067
v 1E-06 0.210789 2.439291
v -0.587535 0.043013 2.192717
v 0.631335 4.582226 -2.356174
v 0.587537 4.750002 -2.192717
v 0 4.750002 -2.270068
v 0 4.75 0
v 0 4.582226 -2.439291
v 1.219646 4.582226 -2.112488
v -0.587538 4.750002 -2.192717
v -0.631336 4.582226 -2.356174
v 1.135034 4.750002 -1.965936
v 1.72484 4.582226 -1.724839
v -1.135035 4.750002 -1.965935
v -1.219646 4.582226 -2.112487
v 1.605181 4.750002 -1.60518
v 2.112488 4.582226 -1.219646
v -1.605181 4.750002 -1.60518
v -1.72484 4.582226 -1.724838
v 1.965937 4.750002 -1.135034
v -1.965936 4.750002 -1.135033
v 2.192717 4.750002 -0.587537
v 2.356175 4.582226 -0.631335
v -2.112488 4.582226 -1.219645
v 2.439291 4.582226 0
v -2.192717 4.750002 -0.587535
v -2.356174 4.582226 -0.631334
v 2.270068 4.750002 0
v 2.356175 4.582226 0.631334
v -2.270067 4.750002 1E-06
v -2.439291 4.582226 1E-06
v 2.192717 4.750002 0.587536
v 2.112489 4.582226 1.219645
v -2.192716 4.750002 0.587537
v -2.356173 4.582226 0.631336
v 1.965937 4.750002 1.135033
v -1.965935 4.750002 1.135034
v 1.605181 4.750002 1.605179
v 1.72484 4.582226 1.724838
v -2.112487 4.582226 1.219646
v 1.219646 4.582226 2.112488
v -1.605179 4.750002 1.605181
v -1.724838 4.582226 1.72484
v 1.135035 4.750002 1.965936
v 0.631336 4.582226 2.356174
v -1.135032 4.750002 1.965936
v -1.219644 4.582226 2.112488
v 0.587538 4.750002 2.192716
v 1E-06 4.582226 2.439291
v -0.587535 4.750002 2.192717
v -0.631333 4.582226 2.356174
v 1E-06 4.750002 2.270067
vt 0.9851 0.0401
vt 0.9851 0.018
vt 0.8335 0.018
vt 0.8335 0.0401
vt 0.9851 0.0622
vt 0.8335 0.0622
vt 0.9851 0.0843
vt 0.8335 0.0843
vt 0.9851 0.1063
vt 0.8335 0.1063
vt 0.9851 0.1284
vt 0.8335 0.1284
vt 0.9851 0.1505
vt 0.8335 0.1505
vt 0.9851 0.1726
vt 0.8335 0.1726
vt 0.9851 0.1947
vt 0.8335 0.1947
vt 0.9851 0.2168
vt 0.8335 0.2168
vt 0.9851 0.2389
vt 0.8335 0.2389
vt 0.9851 0.2609
vt 0.8335 0.2609
vt 0.9851 0.283
vt 0.8335 0.283
vt 0.9851 0.3051
vt 0.8335 0.3051
vt 0.9851 0.3272
vt 0.8335 0.3272
vt 0.9851 0.3493
vt 0.8335 0.3493
vt 0.9851 0.3714
vt 0.8335 0.3714
vt 0.9851 0.3935
vt 0.8335 0.3935
vt 0.9851 0.4155
vt 0.8335 0.4155
vt 0.9851 0.4376
vt 0.8335 0.4376
vt 0.9851 0.4597
vt 0.8335 0.4597
vt 0.9851 0.4818
vt 0.8335 0.4818
vt 0.9851 0.5039
vt 0.8335 0.5039
vt 0.9851 0.526
vt 0.8335 0.526
vt 0.9851 0.5481
vt 0.8335 0.5481
vt 0.9106 0.5952
vt 0.9096 0.6035
vt 0.9293 0.6089
vt 0.8993 0.6814
vt 0.9325 0.6011
vt 0.8879 0.5952
vt 0.9471 0.6191
vt 0.9522 0.6124
vt 0.8891 0.6035
vt 0.866 0.6011
vt 0.9616 0.6336
vt 0.9682 0.6285
vt 0.8693 0.6088
vt 0.8464 0.6124
vt 0.9718 0.6514
vt 0.9796 0.6481
vt 0.8515 0.6191
vt 0.9771 0.6712
vt 0.837 0.6336
vt 0.8303 0.6285
vt 0.9854 0.67
vt 0.819 0.6481
vt 0.9771 0.6917
vt 0.9854 0.6927
vt 0.8268 0.6513
vt 0.8131 0.67
vt 0.9718 0.7114
vt 0.9796 0.7146
vt 0.8215 0.6711
vt 0.8131 0.6927
vt 0.9615 0.7292
vt 0.9682 0.7343
vt 0.8214 0.6916
vt 0.947 0.7437
vt 0.8267 0.7114
vt 0.819 0.7146
vt 0.9522 0.7503
vt 0.8303 0.7343
vt 0.9293 0.7539
vt 0.9325 0.7617
vt 0.837 0.7291
vt 0.8464 0.7503
vt 0.9095 0.7592
vt 0.9106 0.7675
vt 0.8515 0.7436
vt 0.866 0.7617
vt 0.889 0.7592
vt 0.8879 0.7675
vt 0.8692 0.7539
vt 0.9686 0.9536
vt 0.9619 0.9485
vt 0.9474 0.963
vt 0.8996 0.9007
vt 0.9525 0.9697
vt 0.9799 0.934
vt 0.9296 0.9733
vt 0.9329 0.981
vt 0.9721 0.9308
vt 0.9858 0.9121
vt 0.9098 0.9786
vt 0.911 0.9869
vt 0.9775 0.911
vt 0.9858 0.8894
vt 0.8893 0.9785
vt 0.8883 0.9869
vt 0.9775 0.8905
vt 0.8696 0.9732
vt 0.9722 0.8707
vt 0.9799 0.8675
vt 0.8664 0.981
vt 0.9686 0.8478
vt 0.8518 0.963
vt 0.8467 0.9697
vt 0.9619 0.853
vt 0.9525 0.8318
vt 0.8373 0.9485
vt 0.8307 0.9536
vt 0.9474 0.8385
vt 0.9329 0.8204
vt 0.8271 0.9307
vt 0.8193 0.934
vt 0.9297 0.8282
vt 0.8218 0.9109
vt 0.9099 0.8229
vt 0.911 0.8145
vt 0.8135 0.9121
vt 0.8883 0.8145
vt 0.8218 0.8904
vt 0.8135 0.8894
vt 0.8894 0.8229
vt 0.8664 0.8204
vt 0.8271 0.8706
vt 0.8193 0.8675
vt 0.8696 0.8282
vt 0.8467 0.8318
vt 0.8374 0.8529
vt 0.8307 0.8478
vt 0.8519 0.8384
vn 0.2401076 -0.3737118 0.8959284
vn 0 -0.3737172 0.9275427
vn 0 0.3737172 0.9275427
vn 0.2401076 0.3737118 0.8959284
vn 0.463825 -0.3737201 0.8032432
vn 0.463825 0.3737201 0.8032432
vn 0.655866 -0.3737376 0.655866
vn 0.655866 0.3737376 0.655866
vn 0.8032432 -0.3737201 0.463825
vn 0.8032432 0.3737201 0.463825
vn 0.8959284 -0.3737118 0.2401076
vn 0.8959284 0.3737118 0.2401076
vn 0.9275427 -0.3737172 0
vn 0.9275427 0.3737172 0
vn 0.8959284 -0.3737118 -0.2401076
vn 0.8959284 0.3737118 -0.2401076
vn 0.8032432 -0.3737201 -0.463825
vn 0.8032432 0.3737201 -0.463825
vn 0.655866 -0.3737376 -0.655866
vn 0.655866 0.3737376 -0.655866
vn 0.463825 -0.3737201 -0.8032432
vn 0.463825 0.3737201 -0.8032432
vn 0.2401076 -0.3737118 -0.8959284
vn 0.2401076 0.3737118 -0.8959284
vn 0 -0.3737172 -0.9275427
vn 0 0.3737172 -0.9275427
vn -0.2401076 -0.3737118 -0.8959284
vn -0.2401076 0.3737118 -0.8959284
vn -0.463825 -0.3737201 -0.8032432
vn -0.463825 0.3737201 -0.8032432
vn -0.655866 -0.3737376 -0.655866
vn -0.655866 0.3737376 -0.655866
vn -0.8032432 -0.3737201 -0.463825
vn -0.8032432 0.3737201 -0.463825
vn -0.8959284 -0.3737118 -0.2401076
vn -0.8959284 0.3737118 -0.2401076
vn -0.9275427 -0.3737172 0
vn -0.9275427 0.3737172 0
vn -0.8959284 -0.3737118 0.2401076
vn -0.8959284 0.3737118 0.2401076
vn -0.8032432 -0.3737201 0.463825
vn -0.8032432 0.3737201 0.463825
vn -0.655866 -0.3737376 0.655866
vn -0.655866 0.3737376 0.655866
vn -0.463825 -0.3737201 0.8032432
vn -0.463825 0.3737201 0.8032432
vn -0.2401076 -0.3737118 0.8959284
vn -0.2401076 0.3737118 0.8959284
vn 0 -0.3737172 0.9275427
vn 0 0.3737172 0.9275427
vn 0 -0.3737172 -0.9275427
vn 0 -0.9133698 -0.4071311
vn 0.1054047 -0.9133406 -0.3933175
vn 0 -1 0
vn 0.2401076 -0.3737118 -0.8959284
vn -0.2401076 -0.3737118 -0.8959284
vn 0.2036105 -0.9133472 -0.3526182
vn 0.463825 -0.3737201 -0.8032432
vn -0.1054047 -0.9133406 -0.3933175
vn -0.463825 -0.3737201 -0.8032432
vn 0.2879159 -0.9133503 -0.2879159
vn 0.655866 -0.3737376 -0.655866
vn -0.2036105 -0.9133472 -0.3526182
vn -0.655866 -0.3737376 -0.655866
vn 0.3526182 -0.9133472 -0.2036105
vn 0.8032432 -0.3737201 -0.463825
vn -0.2879159 -0.9133503 -0.2879159
vn 0.3933175 -0.9133406 -0.1054047
vn -0.3526182 -0.9133472 -0.2036105
vn -0.8032432 -0.3737201 -0.463825
vn 0.8959284 -0.3737118 -0.2401076
vn -0.8959284 -0.3737118 -0.2401076
vn 0.4071311 -0.9133698 0
vn 0.9275427 -0.3737172 0
vn -0.3933175 -0.9133406 -0.1054047
vn -0.9275427 -0.3737172 0
vn 0.3933175 -0.9133406 0.1054047
vn 0.8959284 -0.3737118 0.2401076
vn -0.4071311 -0.9133698 0
vn -0.8959284 -0.3737118 0.2401076
vn 0.3526182 -0.9133472 0.2036105
vn 0.8032432 -0.3737201 0.463825
vn -0.3933175 -0.9133406 0.1054047
vn 0.2879159 -0.9133503 0.2879159
vn -0.3526182 -0.9133472 0.2036105
vn -0.8032432 -0.3737201 0.463825
vn 0.655866 -0.3737376 0.655866
vn -0.655866 -0.3737376 0.655866
vn 0.2036105 -0.9133472 0.3526182
vn 0.463825 -0.3737201 0.8032432
vn -0.2879159 -0.9133503 0.2879159
vn -0.463825 -0.3737201 0.8032432
vn 0.1054047 -0.9133406 0.3933175
vn 0.2401076 -0.3737118 0.8959284
vn -0.2036105 -0.9133472 0.3526182
vn -0.2401076 -0.3737118 0.8959284
vn 0 -0.9133698 0.4071311
vn 0 -0.3737172 0.9275427
vn -0.1054047 -0.9133406 0.3933175
vn 0.2401076 0.3737118 -0.8959284
vn 0.1054047 0.9133406 -0.3933175
vn 0 0.9133698 -0.4071311
vn 0 1 0
vn 0 0.3737172 -0.9275427
vn 0.463825 0.3737201 -0.8032432
vn -0.1054047 0.9133406 -0.3933175
vn -0.2401076 0.3737118 -0.8959284
vn 0.2036105 0.9133472 -0.3526182
vn 0.655866 0.3737376 -0.655866
vn -0.2036105 0.9133472 -0.3526182
vn -0.463825 0.3737201 -0.8032432
vn 0.2879159 0.9133503 -0.2879159
vn 0.8032432 0.3737201 -0.463825
vn -0.2879159 0.9133503 -0.2879159
vn -0.655866 0.3737376 -0.655866
vn 0.3526182 0.9133472 -0.2036105
vn -0.3526182 0.9133472 -0.2036105
vn 0.3933175 0.9133406 -0.1054047
vn 0.8959284 0.3737118 -0.2401076
vn -0.8032432 0.3737201 -0.463825
vn 0.9275427 0.3737172 0
vn -0.3933175 0.9133406 -0.1054047
vn -0.8959284 0.3737118 -0.2401076
vn 0.4071311 0.9133698 0
vn 0.8959284 0.3737118 0.2401076
vn -0.4071311 0.9133698 0
vn -0.9275427 0.3737172 0
vn 0.3933175 0.9133406 0.1054047
vn 0.8032432 0.3737201 0.463825
vn -0.3933175 0.9133406 0.1054047
vn -0.8959284 0.3737118 0.2401076
vn 0.3526182 0.9133472 0.2036105
vn -0.3526182 0.9133472 0.2036105
vn 0.2879159 0.9133503 0.2879159
vn 0.655866 0.3737376 0.655866
vn -0.8032432 0.3737201 0.463825
vn 0.463825 0.3737201 0.8032432
vn -0.2879159 0.9133503 0.2879159
vn -0.655866 0.3737376 0.655866
vn 0.2036105 0.9133472 0.3526182
vn 0.2401076 0.3737118 0.8959284
vn -0.2036105 0.9133472 0.3526182
vn -0.463825 0.3737201 0.8032432
vn 0.1054047 0.9133406 0.3933175
vn 0 0.3737172 0.9275427
vn -0.1054047 0.9133406 0.3933175
vn -0.2401076 0.3737118 0.8959284
vn 0 0.9133698 0.4071311
g default_0
f 3/3/3 2/2/2 1/1/1
f 4/4/4 3/3/3 1/1/1
f 4/4/4 1/1/1 5/5/5
f 6/6/6 4/4/4 5/5/5
f 6/6/6 5/5/5 7/7/7
f 8/8/8 6/6/6 7/7/7
f 8/8/8 7/7/7 9/9/9
f 10/10/10 8/8/8 9/9/9
f 10/10/10 9/9/9 11/11/11
f 12/12/12 10/10/10 11/11/11
f 12/12/12 11/11/11 13/13/13
f 14/14/14 12/12/12 13/13/13
f 14/14/14 13/13/13 15/15/15
f 16/16/16 14/14/14 15/15/15
f 16/16/16 15/15/15 17/17/17
f 18/18/18 16/16/16 17/17/17
f 18/18/18 17/17/17 19/19/19
f 20/20/20 18/18/18 19/19/19
f 20/20/20 19/19/19 21/21/21
f 22/22/22 20/20/20 21/21/21
f 22/22/22 21/21/21 23/23/23
f 24/24/24 22/22/22 23/23/23
f 24/24/24 23/23/23 25/25/25
f 26/26/26 24/24/24 25/25/25
f 26/26/26 25/25/25 27/27/27
f 28/28/28 26/26/26 27/27/27
f 28/28/28 27/27/27 29/29/29
f 30/30/30 28/28/28 29/29/29
f 30/30/30 29/29/29 31/31/31
f 32/32/32 30/30/30 31/31/31
f 32/32/32 31/31/31 33/33/33
f 34/34/34 32/32/32 33/33/33
f 34/34/34 33/33/33 35/35/35
f 36/36/36 34/34/34 35/35/35
f 36/36/36 35/35/35 37/37/37
f 38/38/38 36/36/36 37/37/37
f 38/38/38 37/37/37 39/39/39
f 40/40/40 38/38/38 39/39/39
f 40/40/40 39/39/39 41/41/41
f 42/42/42 40/40/40 41/41/41
f 42/42/42 41/41/41 43/43/43
f 44/44/44 42/42/42 43/43/43
f 44/44/44 43/43/43 45/45/45
f 46/46/46 44/44/44 45/45/45
f 46/46/46 45/45/45 47/47/47
f 48/48/48 46/46/46 47/47/47
f 48/48/48 47/47/47 49/49/49
f 50/50/50 48/48/48 49/49/49
f 53/53/53 52/52/52 51/51/51
f 53/53/53 54/54/54 52/52/52
f 55/55/55 53/53/53 51/51/51
f 51/51/51 52/52/52 56/56/56
f 57/57/57 53/53/53 55/55/55
f 57/57/57 54/54/54 53/53/53
f 58/58/58 57/57/57 55/55/55
f 52/52/52 59/59/59 56/56/56
f 52/52/52 54/54/54 59/59/59
f 56/56/56 59/59/59 60/60/60
f 61/61/61 57/57/57 58/58/58
f 61/61/61 54/54/54 57/57/57
f 62/62/62 61/61/61 58/58/58
f 59/59/59 63/63/63 60/60/60
f 59/59/59 54/54/54 63/63/63
f 60/60/60 63/63/63 64/64/64
f 65/65/65 61/61/61 62/62/62
f 65/65/65 54/54/54 61/61/61
f 66/66/66 65/65/65 62/62/62
f 63/63/63 67/67/67 64/64/64
f 63/63/63 54/54/54 67/67/67
f 68/68/68 54/54/54 65/65/65
f 68/68/68 65/65/65 66/66/66
f 67/67/67 54/54/54 69/69/69
f 64/64/64 67/67/67 70/70/70
f 67/67/67 69/69/69 70/70/70
f 71/71/71 68/68/68 66/66/66
f 70/70/70 69/69/69 72/72/72
f 73/73/73 68/68/68 71/71/71
f 73/73/73 54/54/54 68/68/68
f 74/74/74 73/73/73 71/71/71
f 69/69/69 75/75/75 72/72/72
f 69/69/69 54/54/54 75/75/75
f 72/72/72 75/75/75 76/76/76
f 77/77/77 73/73/73 74/74/74
f 77/77/77 54/54/54 73/73/73
f 78/78/78 77/77/77 74/74/74
f 75/75/75 79/79/79 76/76/76
f 75/75/75 54/54/54 79/79/79
f 76/76/76 79/79/79 80/80/80
f 81/81/81 77/77/77 78/78/78
f 81/81/81 54/54/54 77/77/77
f 82/82/82 81/81/81 78/78/78
f 79/79/79 83/83/83 80/80/80
f 79/79/79 54/54/54 83/83/83
f 84/84/84 54/54/54 81/81/81
f 84/84/84 81/81/81 82/82/82
f 83/83/83 54/54/54 85/85/85
f 80/80/80 83/83/83 86/86/86
f 83/83/83 85/85/85 86/86/86
f 87/87/87 84/84/84 82/82/82
f 86/86/86 85/85/85 88/88/88
f 89/89/89 84/84/84 87/87/87
f 89/89/89 54/54/54 84/84/84
f 90/90/90 89/89/89 87/87/87
f 85/85/85 91/91/91 88/88/88
f 85/85/85 54/54/54 91/91/91
f 88/88/88 91/91/91 92/92/92
f 93/93/93 89/89/89 90/90/90
f 93/93/93 54/54/54 89/89/89
f 94/94/94 93/93/93 90/90/90
f 91/91/91 95/95/95 92/92/92
f 91/91/91 54/54/54 95/95/95
f 92/92/92 95/95/95 96/96/96
f 97/97/97 93/93/93 94/94/94
f 97/97/97 54/54/54 93/93/93
f 98/98/98 97/97/97 94/94/94
f 96/96/96 99/99/99 98/98/98
f 95/95/95 99/99/99 96/96/96
f 95/95/95 54/54/54 99/99/99
f 99/99/99 97/97/97 98/98/98
f 99/99/99 54/54/54 97/97/97
f 102/102/102 101/101/101 100/100/100
f 102/102/102 103/103/103 101/101/101
f 104/104/104 102/102/102 100/100/100
f 100/100/100 101/101/101 105/105/105
f 106/106/106 102/102/102 104/104/104
f 106/106/106 103/103/103 102/102/102
f 107/107/107 106/106/106 104/104/104
f 101/101/101 108/108/108 105/105/105
f 101/101/101 103/103/103 108/108/108
f 105/105/105 108/108/108 109/109/109
f 110/110/110 106/106/106 107/107/107
f 110/110/110 103/103/103 106/106/106
f 111/111/111 110/110/110 107/107/107
f 108/108/108 112/112/112 109/109/109
f 108/108/108 103/103/103 112/112/112
f 109/109/109 112/112/112 113/113/113
f 114/114/114 110/110/110 111/111/111
f 114/114/114 103/103/103 110/110/110
f 115/115/115 114/114/114 111/111/111
f 112/112/112 116/116/116 113/113/113
f 112/112/112 103/103/103 116/116/116
f 117/117/117 103/103/103 114/114/114
f 117/117/117 114/114/114 115/115/115
f 116/116/116 103/103/103 118/118/118
f 113/113/113 116/116/116 119/119/119
f 116/116/116 118/118/118 119/119/119
f 120/120/120 117/117/117 115/115/115
f 119/119/119 118/118/118 121/121/121
f 122/122/122 117/117/117 120/120/120
f 122/122/122 103/103/103 117/117/117
f 123/123/123 122/122/122 120/120/120
f 118/118/118 124/124/124 121/121/121
f 118/118/118 103/103/103 124/124/124
f 121/121/121 124/124/124 125/125/125
f 126/126/126 122/122/122 123/123/123
f 126/126/126 103/103/103 122/122/122
f 127/127/127 126/126/126 123/123/123
f 124/124/124 128/128/128 125/125/125
f 124/124/124 103/103/103 128/128/128
f 125/125/125 128/128/128 129/129/129
f 130/130/130 126/126/126 127/127/127
f 130/130/130 103/103/103 126/126/126
f 131/131/131 130/130/130 127/127/127
f 128/128/128 132/132/132 129/129/129
f 128/128/128 103/103/103 132/132/132
f 133/133/133 103/103/103 130/130/130
f 133/133/133 130/130/130 131/131/131
f 132/132/132 103/103/103 134/134/134
f 129/129/129 132/132/132 135/135/135
f 132/132/132 134/134/134 135/135/135
f 136/136/136 133/133/133 131/131/131
f 135/135/135 134/134/134 137/137/137
f 138/138/138 133/133/133 136/136/136
f 138/138/138 103/103/103 133/133/133
f 139/139/139 138/138/138 136/136/136
f 134/134/134 140/140/140 137/137/137
f 134/134/134 103/103/103 140/140/140
f 137/137/137 140/140/140 141/141/141
f 142/142/142 138/138/138 139/139/139
f 142/142/142 103/103/103 138/138/138
f 143/143/143 142/142/142 139/139/139
f 140/140/140 144/144/144 141/141/141
f 140/140/140 103/103/103 144/144/144
f 141/141/141 144/144/144 145/145/145
f 146/146/146 142/142/142 143/143/143
f 146/146/146 103/103/103 142/142/142
f 147/147/147 146/146/146 143/143/143
f 144/144/144 148/148/148 145/145/145
f 144/144/144 103/103/103 148/148/148
f 148/148/148 103/103/103 146/146/146
f 148/148/148 146/146/146 147/147/147
f 145/145/145 148/148/148 147/147/147
