g Door_L
v -0.6241398 0.02010811 -1.097798
v -0.62219 0.02010811 1.098142
v -0.6241397 0.02010811 1.098142
v -0.62219 0.02010811 1.100602
v -0.6241397 0.02010811 1.100602
v -0.00128994 0.02010813 1.100602
v -0.00128994 0.02010813 1.098142
v 0.0005765915 0.02010813 1.100602
v 0.0005765915 0.02010813 1.098142
v -0.001290245 0.02010813 -1.097798
v -0.6221901 0.02010811 -1.097798
v -0.6241398 0.02010811 -1.097798
v -0.6241398 0.02010811 -1.100602
v -0.6221901 0.02010811 -1.100602
v -0.001290245 0.02010813 -1.100602
v 0.0005761718 0.02010813 -1.097798
v 0.0005761718 0.02010813 -1.100602
v 0.0005765915 0.02010813 1.098142
v -0.6241397 -0.00900835 1.098142
v -0.6221901 -0.00900835 -1.097798
v -0.6241398 -0.00900835 -1.097798
v -0.6221901 -0.00900835 -1.100602
v -0.6241398 -0.00900835 -1.100602
v -0.001290245 -0.009008331 -1.100602
v -0.001290245 -0.009008331 -1.097798
v 0.0005761718 -0.009008331 -1.100602
v 0.0005761718 -0.009008331 -1.097798
v -0.00128994 -0.009008331 1.098142
v -0.62219 -0.00900835 1.098142
v -0.6241397 -0.00900835 1.098142
v -0.6241397 -0.00900835 1.100602
v -0.62219 -0.00900835 1.100602
v -0.00128994 -0.009008331 1.100602
v 0.0005765915 -0.009008331 1.098142
v 0.0005765915 -0.009008331 1.100602
v 0.0005761718 -0.009008331 -1.097798
v 0.0005761718 0.0189192 -1.097798
v 0.0005765915 0.02010813 1.098142
v 0.0005761718 0.02010813 -1.097798
v 0.0005761718 0.0189192 -1.100602
v 0.0005761718 0.02010813 -1.100602
v 0.0005761718 -0.007819423 -1.100602
v 0.0005761718 -0.007819423 -1.097798
v 0.0005761718 -0.009008331 -1.100602
v 0.0005761718 -0.009008331 -1.097798
v 0.0005765915 -0.007819423 1.098142
v 0.0005765915 0.0189192 1.098142
v 0.0005765915 0.02010813 1.098142
v 0.0005765915 0.02010813 1.100602
v 0.0005765915 0.0189192 1.100602
v 0.0005765915 -0.007819423 1.100602
v 0.0005765915 -0.009008331 1.098142
v 0.0005761718 -0.009008331 -1.097798
v 0.0005765915 -0.009008331 1.100602
v -0.6241398 -0.007819443 -1.097798
v -0.6241397 -0.00900835 1.098142
v -0.6241398 -0.00900835 -1.097798
v -0.6241398 -0.007819443 -1.100602
v -0.6241398 -0.00900835 -1.100602
v -0.6241398 0.01891914 -1.100602
v -0.6241398 0.01891914 -1.097798
v -0.6241398 0.02010811 -1.100602
v -0.6241398 0.02010811 -1.097798
v -0.6241397 0.01891914 1.098142
v -0.6241397 -0.007819443 1.098142
v -0.6241397 -0.00900835 1.098142
v -0.6241397 -0.00900835 1.100602
v -0.6241397 -0.007819443 1.100602
v -0.6241397 0.01891914 1.100602
v -0.6241397 0.02010811 1.098142
v -0.6241398 0.02010811 -1.097798
v -0.6241397 0.02010811 1.100602
v -0.6241398 0.01891914 -1.100602
v -0.6221901 0.02010811 -1.100602
v -0.6241398 0.02010811 -1.100602
v -0.6221901 0.01891914 -1.100602
v -0.001290245 0.02010813 -1.100602
v -0.6241398 -0.007819443 -1.100602
v -0.001290245 0.0189192 -1.100602
v 0.0005761718 0.02010813 -1.100602
v 0.0005761718 0.0189192 -1.100602
v -0.6221901 -0.007819443 -1.100602
v -0.6241398 -0.00900835 -1.100602
v -0.6221901 -0.00900835 -1.100602
v -0.001290245 -0.007819423 -1.100602
v 0.0005761718 -0.007819423 -1.100602
v -0.001290245 -0.009008331 -1.100602
v 0.0005761718 -0.009008331 -1.100602
v -0.6241397 -0.007819443 1.100602
v -0.62219 -0.00900835 1.100602
v -0.6241397 -0.00900835 1.100602
v -0.62219 -0.007819443 1.100602
v -0.00128994 -0.009008331 1.100602
v -0.6241397 0.01891914 1.100602
v -0.00128994 -0.007819423 1.100602
v 0.0005765915 -0.009008331 1.100602
v 0.0005765915 -0.007819423 1.100602
v -0.62219 0.01891914 1.100602
v -0.6241397 0.02010811 1.100602
v -0.62219 0.02010811 1.100602
v -0.00128994 0.0189192 1.100602
v 0.0005765915 0.0189192 1.100602
v -0.00128994 0.02010813 1.100602
v 0.0005765915 0.02010813 1.100602
v -0.5981753 -0.008717632 -0.1147948
v -0.5949486 -0.01902307 -0.1069026
v -0.5961986 -0.01902307 -0.1147948
v -0.5968286 -0.008717632 -0.1062918
v -0.5913209 -0.01902307 -0.09978317
v -0.5929201 -0.008717651 -0.09862114
v -0.5856708 -0.01902307 -0.094133
v -0.5868327 -0.008717651 -0.0925338
v -0.5785511 -0.01902307 -0.09050537
v -0.5791621 -0.008717632 -0.08862526
v -0.5791621 -0.008717632 -0.08862526
v -0.570659 -0.01902307 -0.08925537
v -0.5785511 -0.01902307 -0.09050537
v -0.570659 -0.008717651 -0.08727852
v -0.5627668 -0.01902307 -0.09050537
v -0.562156 -0.008717651 -0.08862526
v -0.5556473 -0.01902307 -0.094133
v -0.5544853 -0.008717632 -0.0925338
v -0.549997 -0.01902307 -0.09978317
v -0.5483979 -0.008717632 -0.09862114
v -0.5483979 -0.008717632 -0.09862114
v -0.5463695 -0.01902307 -0.1069028
v -0.549997 -0.01902307 -0.09978317
v -0.5444894 -0.008717632 -0.1062918
v -0.5451195 -0.01902307 -0.1147948
v -0.5431427 -0.008717632 -0.1147948
v -0.5463695 -0.01902307 -0.1226871
v -0.5444894 -0.008717632 -0.1232979
v -0.5499972 -0.01902307 -0.1298067
v -0.5499972 -0.01902307 -0.1298067
v -0.5444894 -0.008717632 -0.1232979
v -0.5483979 -0.008717632 -0.1309686
v -0.5556473 -0.01902307 -0.1354567
v -0.5544854 -0.008717632 -0.1370559
v -0.5627668 -0.01902307 -0.1390843
v -0.5621561 -0.008717632 -0.1409645
v -0.570659 -0.01902307 -0.1403342
v -0.570659 -0.008717632 -0.142311
v -0.5785511 -0.01902307 -0.1390843
v -0.5785511 -0.01902307 -0.1390843
v -0.570659 -0.008717632 -0.142311
v -0.5791621 -0.008717632 -0.1409645
v -0.5856708 -0.01902307 -0.1354567
v -0.5868327 -0.008717632 -0.1370559
v -0.5913209 -0.01902307 -0.1298067
v -0.5929202 -0.008717632 -0.1309686
v -0.5949486 -0.01902307 -0.1226869
v -0.5968286 -0.008717632 -0.1232979
v -0.5961986 -0.01902307 -0.1147948
v -0.5981753 -0.008717632 -0.1147948
v -0.5961986 -0.01902307 -0.1147948
v -0.5949486 -0.01902307 -0.1069026
v -0.570659 -0.02010813 -0.1147948
v -0.5949486 -0.01902307 -0.1226869
v -0.5913209 -0.01902307 -0.09978317
v -0.5913209 -0.01902307 -0.1298067
v -0.5856708 -0.01902307 -0.094133
v -0.5856708 -0.01902307 -0.1354567
v -0.5785511 -0.01902307 -0.09050537
v -0.5785511 -0.01902307 -0.1390843
v -0.570659 -0.01902307 -0.08925537
v -0.570659 -0.01902307 -0.1403342
v -0.5627668 -0.01902307 -0.09050537
v -0.5627668 -0.01902307 -0.1390843
v -0.5556473 -0.01902307 -0.094133
v -0.5556473 -0.01902307 -0.1354567
v -0.549997 -0.01902307 -0.09978317
v -0.5499972 -0.01902307 -0.1298067
v -0.5463695 -0.01902307 -0.1069028
v -0.5463695 -0.01902307 -0.1226871
v -0.5451195 -0.01902307 -0.1147948
vt 0.218611 0.01360433
vt 0.2187425 0.7388458
vt 0.2180994 0.7388461
vt 0.2187425 0.7396585
vt 0.2181002 0.739659
vt 0.4324613 0.7398053
vt 0.4324615 0.7389933
vt 0.4331042 0.7398049
vt 0.4331033 0.7389929
vt 0.4329717 0.01375203
vt 0.2192528 0.01360396
vt 0.218611 0.01360433
vt 0.2186095 0.01267853
vt 0.2192528 0.01267813
vt 0.4329719 0.01282557
vt 0.4336149 0.01375162
vt 0.4336143 0.01282541
vt 0.4331033 0.7389929
vt 0.4336049 0.7389977
vt 0.4329617 0.01376564
vt 0.4336049 0.01376561
vt 0.4329619 0.0128405
vt 0.4336052 0.01284025
vt 0.2187469 0.0128405
vt 0.2187467 0.01376564
vt 0.218103 0.01284019
vt 0.218103 0.01376558
vt 0.2187466 0.7389976
vt 0.4329617 0.7389976
vt 0.4336049 0.7389977
vt 0.4336049 0.7398086
vt 0.4329617 0.739808
vt 0.2187469 0.7398082
vt 0.2181029 0.7389977
vt 0.218103 0.7398086
vt 0.218103 0.01376558
vt 0.2088799 0.01376539
vt 0.2084872 0.7389978
vt 0.2084872 0.01376539
vt 0.2088799 0.01283949
vt 0.2084872 0.01283943
vt 0.2177104 0.01283964
vt 0.2177104 0.01376546
vt 0.218103 0.01284019
vt 0.218103 0.01376558
vt 0.2177104 0.738998
vt 0.2088799 0.738998
vt 0.2084872 0.7389978
vt 0.2084872 0.73981
vt 0.2088799 0.73981
vt 0.2177104 0.7398098
vt 0.2181029 0.7389977
vt 0.218103 0.01376558
vt 0.218103 0.7398086
vt 0.4339967 0.01376548
vt 0.4336049 0.7389977
vt 0.4336049 0.01376561
vt 0.4339967 0.01283967
vt 0.4336052 0.01284025
vt 0.442827 0.01283952
vt 0.442827 0.01376539
vt 0.4432194 0.01283946
vt 0.4432194 0.01376539
vt 0.442827 0.738998
vt 0.4339967 0.7389978
vt 0.4336049 0.7389977
vt 0.4336049 0.7398086
vt 0.4339967 0.7398098
vt 0.442827 0.73981
vt 0.4432194 0.738998
vt 0.4432194 0.01376539
vt 0.4432194 0.73981
vt 0.4336065 0.003618409
vt 0.4329627 0.003225931
vt 0.4336065 0.003225931
vt 0.4329627 0.003618409
vt 0.2187473 0.003225931
vt 0.433606 0.01244861
vt 0.2187473 0.003618409
vt 0.2181032 0.003225931
vt 0.2181032 0.003618409
vt 0.4329623 0.01244863
vt 0.4336052 0.01284025
vt 0.4329619 0.0128405
vt 0.2187471 0.01244863
vt 0.2181032 0.01244863
vt 0.2187469 0.0128405
vt 0.218103 0.01284019
vt 0.4336055 0.7401993
vt 0.4329617 0.739808
vt 0.4336049 0.7398086
vt 0.4329619 0.7401993
vt 0.2187469 0.7398082
vt 0.4336058 0.7490289
vt 0.2187469 0.7401993
vt 0.218103 0.7398086
vt 0.218103 0.7401994
vt 0.4329622 0.7490289
vt 0.433606 0.7494213
vt 0.4329622 0.7494213
vt 0.2187469 0.749029
vt 0.218103 0.749029
vt 0.2187469 0.7494213
vt 0.218103 0.7494213
vt 0.5945767 0.4851429
vt 0.5856809 0.4899838
vt 0.5864453 0.4851429
vt 0.5934134 0.4924977
vt 0.5834595 0.494357
vt 0.5900347 0.4991372
vt 0.5799916 0.4978358
vt 0.5847666 0.5044122
vt 0.5756116 0.5000744
vt 0.5781211 0.5078027
vt 0.5781211 0.5078027
vt 0.5707493 0.5008469
vt 0.5756116 0.5000744
vt 0.5707493 0.5089718
vt 0.5658871 0.5000744
vt 0.5633776 0.5078027
vt 0.5615071 0.4978358
vt 0.556732 0.5044122
vt 0.5580392 0.494357
vt 0.551464 0.4991372
vt 0.551464 0.4991372
vt 0.5558178 0.4899838
vt 0.5580392 0.494357
vt 0.5480855 0.4924977
vt 0.5550535 0.4851429
vt 0.5469221 0.4851429
vt 0.5558178 0.480302
vt 0.5480855 0.4777881
vt 0.5580392 0.4759288
vt 0.5580392 0.4759288
vt 0.5480855 0.4777881
vt 0.551464 0.4711486
vt 0.5615072 0.4724502
vt 0.5567321 0.4658737
vt 0.5658871 0.4702115
vt 0.5633776 0.4624832
vt 0.5707493 0.4694391
vt 0.5707493 0.4613141
vt 0.5756116 0.4702115
vt 0.5756116 0.4702115
vt 0.5707493 0.4613141
vt 0.5781211 0.4624833
vt 0.5799916 0.4724502
vt 0.5847666 0.4658737
vt 0.5834595 0.4759288
vt 0.5900347 0.4711487
vt 0.5856809 0.480302
vt 0.5934134 0.4777881
vt 0.5864453 0.4851429
vt 0.5945767 0.4851429
vt 0.5864453 0.4851429
vt 0.5856809 0.4899838
vt 0.5707493 0.4851429
vt 0.5856809 0.480302
vt 0.5834595 0.494357
vt 0.5834595 0.4759288
vt 0.5799916 0.4978358
vt 0.5799916 0.4724502
vt 0.5756116 0.5000744
vt 0.5756116 0.4702115
vt 0.5707493 0.5008469
vt 0.5707493 0.4694391
vt 0.5658871 0.5000744
vt 0.5658871 0.4702115
vt 0.5615071 0.4978358
vt 0.5615072 0.4724502
vt 0.5580392 0.494357
vt 0.5580392 0.4759288
vt 0.5558178 0.4899838
vt 0.5558178 0.480302
vt 0.5550535 0.4851429
vn -0.7070979 0.7071156 0
vn 0 1 0
vn -0.7071068 0.7071068 0
vn 1.629133E-07 0.7071059 0.7071077
vn -0.5773503 0.5773503 0.5773503
vn 1.629124E-07 0.7071073 0.7071062
vn 0 1 0
vn 0.5773503 0.5773503 0.5773503
vn 0.7071061 0.7071075 0
vn 0 1 0
vn 0 1 0
vn -0.7070979 0.7071156 0
vn -0.5773503 0.5773503 -0.5773503
vn 0 0.7071066 -0.7071069
vn 0 0.7071059 -0.7071076
vn 0.7071066 0.7071068 0
vn 0.5773503 0.5773503 -0.5773503
vn 0.7071061 0.7071075 0
vn -0.7070979 -0.7071156 0
vn 0 -1 0
vn -0.7071068 -0.7071068 0
vn 0 -0.7071059 -0.7071076
vn -0.5773503 -0.5773503 -0.5773503
vn 0 -0.7071066 -0.7071069
vn 0 -1 0
vn 0.5773503 -0.5773503 -0.5773503
vn 0.7071059 -0.7071075 0
vn 0 -1 0
vn 0 -1 0
vn -0.7070979 -0.7071156 0
vn -0.5773502 -0.5773503 0.5773502
vn 1.846341E-07 -0.7071072 0.7071062
vn 1.846349E-07 -0.7071059 0.7071075
vn 0.7071068 -0.7071068 0
vn 0.5773503 -0.5773503 0.5773503
vn 0.7071059 -0.7071075 0
vn 1 0 0
vn 0.7071061 0.7071075 0
vn 0.7071066 0.7071068 0
vn 0.7071066 0 -0.7071068
vn 0.5773503 0.5773503 -0.5773503
vn 0.7071066 0 -0.7071068
vn 1 0 0
vn 0.5773503 -0.5773503 -0.5773503
vn 0.7071059 -0.7071075 0
vn 1 0 0
vn 1 0 0
vn 0.7071061 0.7071075 0
vn 0.5773503 0.5773503 0.5773503
vn 0.7071068 0 0.7071068
vn 0.7071066 0 0.7071068
vn 0.7071068 -0.7071068 0
vn 0.7071059 -0.7071075 0
vn 0.5773503 -0.5773503 0.5773503
vn -1 0 0
vn -0.7070979 -0.7071156 0
vn -0.7071068 -0.7071068 0
vn -0.7071068 0 -0.7071068
vn -0.5773503 -0.5773503 -0.5773503
vn -0.7071068 0 -0.7071068
vn -1 0 0
vn -0.5773503 0.5773503 -0.5773503
vn -0.7070979 0.7071156 0
vn -1 0 0
vn -1 0 0
vn -0.7070979 -0.7071156 0
vn -0.5773502 -0.5773503 0.5773502
vn -0.7071068 0 0.7071068
vn -0.7071068 0 0.7071068
vn -0.7071068 0.7071068 0
vn -0.7070979 0.7071156 0
vn -0.5773503 0.5773503 0.5773503
vn -0.7071068 0 -0.7071068
vn 0 0.7071066 -0.7071069
vn -0.5773503 0.5773503 -0.5773503
vn 0 0 -1
vn 0 0.7071059 -0.7071076
vn -0.7071068 0 -0.7071068
vn 0 0 -1
vn 0.5773503 0.5773503 -0.5773503
vn 0.7071066 0 -0.7071068
vn 0 0 -1
vn -0.5773503 -0.5773503 -0.5773503
vn 0 -0.7071059 -0.7071076
vn 0 0 -1
vn 0.7071066 0 -0.7071068
vn 0 -0.7071066 -0.7071069
vn 0.5773503 -0.5773503 -0.5773503
vn -0.7071068 0 0.7071068
vn 1.846341E-07 -0.7071072 0.7071062
vn -0.5773502 -0.5773503 0.5773502
vn 2.45753E-07 0 1
vn 1.846349E-07 -0.7071059 0.7071075
vn -0.7071068 0 0.7071068
vn 2.457527E-07 0 1
vn 0.5773503 -0.5773503 0.5773503
vn 0.7071066 0 0.7071068
vn 2.457527E-07 0 1
vn -0.5773503 0.5773503 0.5773503
vn 1.629133E-07 0.7071059 0.7071077
vn 2.45753E-07 0 1
vn 0.7071068 0 0.7071068
vn 1.629124E-07 0.7071073 0.7071062
vn 0.5773503 0.5773503 0.5773503
vn -0.9820963 -0.1883795 1.418684E-07
vn -0.652494 -0.7275312 0.2120139
vn -0.6860726 -0.7275331 -4.916084E-07
vn -0.9340278 -0.1883829 0.3034865
vn -0.5550398 -0.727538 0.4032608
vn -0.79453 -0.1883885 0.5772624
vn -0.4032625 -0.7275338 0.5550441
vn -0.5772613 -0.1883847 0.7945316
vn -0.2120089 -0.7275366 0.6524897
vn -0.3034901 -0.1883925 0.9340246
vn -0.3034901 -0.1883925 0.9340246
vn 2.250058E-07 -0.727537 0.6860685
vn -0.2120089 -0.7275366 0.6524897
vn 0 -0.188392 0.9820939
vn 0.2120061 -0.7275376 0.6524894
vn 0.3034873 -0.1883897 0.9340261
vn 0.4032639 -0.7275344 0.5550423
vn 0.5772657 -0.1883827 0.7945288
vn 0.5550431 -0.7275345 0.4032626
vn 0.7945285 -0.1883862 0.5772651
vn 0.7945285 -0.1883862 0.5772651
vn 0.6524923 -0.7275345 0.212008
vn 0.5550431 -0.7275345 0.4032626
vn 0.9340278 -0.1883833 0.3034861
vn 0.6860727 -0.727533 4.088155E-07
vn 0.9820963 -0.1883797 -2.543847E-07
vn 0.6524939 -0.7275321 -0.2120108
vn 0.9340285 -0.1883811 -0.3034852
vn 0.5550404 -0.7275331 -0.4032689
vn 0.5550404 -0.7275331 -0.4032689
vn 0.9340285 -0.1883811 -0.3034852
vn 0.7945278 -0.1883828 -0.5772672
vn 0.4032591 -0.7275349 -0.5550452
vn 0.5772616 -0.1883852 -0.7945313
vn 0.2120055 -0.7275358 -0.6524917
vn 0.3034825 -0.1883956 -0.9340265
vn -1.172557E-06 -0.7275407 -0.6860645
vn -1.159401E-06 -0.1883932 -0.9820936
vn -0.211999 -0.7275376 -0.6524916
vn -0.211999 -0.7275376 -0.6524916
vn -1.159401E-06 -0.1883932 -0.9820936
vn -0.3034767 -0.1883944 -0.9340286
vn -0.4032599 -0.7275362 -0.5550428
vn -0.5772652 -0.188381 -0.7945297
vn -0.5550442 -0.7275321 -0.4032655
vn -0.7945305 -0.1883835 -0.5772635
vn -0.6524926 -0.7275351 -0.2120048
vn -0.934029 -0.1883831 -0.3034824
vn -0.6860726 -0.7275331 -4.916084E-07
vn -0.9820963 -0.1883795 1.418684E-07
vn -0.6860726 -0.7275331 -4.916084E-07
vn -0.652494 -0.7275312 0.2120139
vn 0 -1 0
vn -0.6524926 -0.7275351 -0.2120048
vn -0.5550398 -0.727538 0.4032608
vn -0.5550442 -0.7275321 -0.4032655
vn -0.4032625 -0.7275338 0.5550441
vn -0.4032599 -0.7275362 -0.5550428
vn -0.2120089 -0.7275366 0.6524897
vn -0.211999 -0.7275376 -0.6524916
vn 2.250058E-07 -0.727537 0.6860685
vn -1.172557E-06 -0.7275407 -0.6860645
vn 0.2120061 -0.7275376 0.6524894
vn 0.2120055 -0.7275358 -0.6524917
vn 0.4032639 -0.7275344 0.5550423
vn 0.4032591 -0.7275349 -0.5550452
vn 0.5550431 -0.7275345 0.4032626
vn 0.5550404 -0.7275331 -0.4032689
vn 0.6524923 -0.7275345 0.212008
vn 0.6524939 -0.7275321 -0.2120108
vn 0.6860727 -0.727533 4.088155E-07
g Door_L_0
f 3/3/3 2/2/2 1/1/1
f 2/2/2 3/3/3 4/4/4
f 5/5/5 4/4/4 3/3/3
f 4/4/4 6/6/6 2/2/2
f 7/7/7 2/2/2 6/6/6
f 6/6/6 8/8/8 7/7/7
f 9/9/9 7/7/7 8/8/8
f 7/7/7 9/9/9 10/10/10
f 2/2/2 7/7/7 11/11/11
f 10/10/10 11/11/11 7/7/7
f 11/11/11 12/12/12 2/2/2
f 12/12/12 11/11/11 13/13/13
f 14/14/14 13/13/13 11/11/11
f 11/11/11 10/10/10 14/14/14
f 15/15/15 14/14/14 10/10/10
f 10/10/10 16/16/16 15/15/15
f 17/17/17 15/15/15 16/16/16
f 16/16/16 10/10/10 18/18/18
f 21/21/21 20/20/20 19/19/19
f 20/20/20 21/21/21 22/22/22
f 23/23/23 22/22/22 21/21/21
f 22/22/22 24/24/24 20/20/20
f 25/25/25 20/20/20 24/24/24
f 24/24/24 26/26/26 25/25/25
f 27/27/27 25/25/25 26/26/26
f 25/25/25 27/27/27 28/28/28
f 20/20/20 25/25/25 29/29/29
f 28/28/28 29/29/29 25/25/25
f 29/29/29 30/30/30 20/20/20
f 30/30/30 29/29/29 31/31/31
f 32/32/32 31/31/31 29/29/29
f 29/29/29 28/28/28 32/32/32
f 33/33/33 32/32/32 28/28/28
f 28/28/28 34/34/34 33/33/33
f 35/35/35 33/33/33 34/34/34
f 34/34/34 28/28/28 36/36/36
f 39/39/39 38/38/38 37/37/37
f 37/37/37 40/40/40 39/39/39
f 41/41/41 39/39/39 40/40/40
f 40/40/40 37/37/37 42/42/42
f 43/43/43 42/42/42 37/37/37
f 42/42/42 43/43/43 44/44/44
f 45/45/45 44/44/44 43/43/43
f 43/43/43 46/46/46 45/45/45
f 37/37/37 47/47/47 43/43/43
f 46/46/46 43/43/43 47/47/47
f 47/47/47 37/37/37 48/48/48
f 48/48/48 49/49/49 47/47/47
f 50/50/50 47/47/47 49/49/49
f 47/47/47 50/50/50 46/46/46
f 51/51/51 46/46/46 50/50/50
f 46/46/46 51/51/51 52/52/52
f 52/52/52 53/53/53 46/46/46
f 54/54/54 52/52/52 51/51/51
f 57/57/57 56/56/56 55/55/55
f 55/55/55 58/58/58 57/57/57
f 59/59/59 57/57/57 58/58/58
f 58/58/58 55/55/55 60/60/60
f 61/61/61 60/60/60 55/55/55
f 60/60/60 61/61/61 62/62/62
f 63/63/63 62/62/62 61/61/61
f 61/61/61 64/64/64 63/63/63
f 55/55/55 65/65/65 61/61/61
f 64/64/64 61/61/61 65/65/65
f 65/65/65 55/55/55 66/66/66
f 66/66/66 67/67/67 65/65/65
f 68/68/68 65/65/65 67/67/67
f 65/65/65 68/68/68 64/64/64
f 69/69/69 64/64/64 68/68/68
f 64/64/64 69/69/69 70/70/70
f 70/70/70 71/71/71 64/64/64
f 72/72/72 70/70/70 69/69/69
f 75/75/75 74/74/74 73/73/73
f 76/76/76 73/73/73 74/74/74
f 74/74/74 77/77/77 76/76/76
f 73/73/73 76/76/76 78/78/78
f 79/79/79 76/76/76 77/77/77
f 77/77/77 80/80/80 79/79/79
f 81/81/81 79/79/79 80/80/80
f 82/82/82 78/78/78 76/76/76
f 76/76/76 79/79/79 82/82/82
f 78/78/78 82/82/82 83/83/83
f 84/84/84 83/83/83 82/82/82
f 79/79/79 81/81/81 85/85/85
f 85/85/85 82/82/82 79/79/79
f 82/82/82 85/85/85 84/84/84
f 86/86/86 85/85/85 81/81/81
f 87/87/87 84/84/84 85/85/85
f 85/85/85 86/86/86 87/87/87
f 88/88/88 87/87/87 86/86/86
f 91/91/91 90/90/90 89/89/89
f 92/92/92 89/89/89 90/90/90
f 90/90/90 93/93/93 92/92/92
f 89/89/89 92/92/92 94/94/94
f 95/95/95 92/92/92 93/93/93
f 93/93/93 96/96/96 95/95/95
f 97/97/97 95/95/95 96/96/96
f 98/98/98 94/94/94 92/92/92
f 92/92/92 95/95/95 98/98/98
f 94/94/94 98/98/98 99/99/99
f 100/100/100 99/99/99 98/98/98
f 95/95/95 97/97/97 101/101/101
f 101/101/101 98/98/98 95/95/95
f 98/98/98 101/101/101 100/100/100
f 102/102/102 101/101/101 97/97/97
f 103/103/103 100/100/100 101/101/101
f 101/101/101 102/102/102 103/103/103
f 104/104/104 103/103/103 102/102/102
f 107/107/107 106/106/106 105/105/105
f 108/108/108 105/105/105 106/106/106
f 106/106/106 109/109/109 108/108/108
f 110/110/110 108/108/108 109/109/109
f 109/109/109 111/111/111 110/110/110
f 112/112/112 110/110/110 111/111/111
f 111/111/111 113/113/113 112/112/112
f 114/114/114 112/112/112 113/113/113
f 117/117/117 116/116/116 115/115/115
f 118/118/118 115/115/115 116/116/116
f 116/116/116 119/119/119 118/118/118
f 120/120/120 118/118/118 119/119/119
f 119/119/119 121/121/121 120/120/120
f 122/122/122 120/120/120 121/121/121
f 121/121/121 123/123/123 122/122/122
f 124/124/124 122/122/122 123/123/123
f 127/127/127 126/126/126 125/125/125
f 128/128/128 125/125/125 126/126/126
f 126/126/126 129/129/129 128/128/128
f 130/130/130 128/128/128 129/129/129
f 129/129/129 131/131/131 130/130/130
f 132/132/132 130/130/130 131/131/131
f 131/131/131 133/133/133 132/132/132
f 136/136/136 135/135/135 134/134/134
f 134/134/134 137/137/137 136/136/136
f 138/138/138 136/136/136 137/137/137
f 137/137/137 139/139/139 138/138/138
f 140/140/140 138/138/138 139/139/139
f 139/139/139 141/141/141 140/140/140
f 142/142/142 140/140/140 141/141/141
f 141/141/141 143/143/143 142/142/142
f 146/146/146 145/145/145 144/144/144
f 144/144/144 147/147/147 146/146/146
f 148/148/148 146/146/146 147/147/147
f 147/147/147 149/149/149 148/148/148
f 150/150/150 148/148/148 149/149/149
f 149/149/149 151/151/151 150/150/150
f 152/152/152 150/150/150 151/151/151
f 151/151/151 153/153/153 152/152/152
f 154/154/154 152/152/152 153/153/153
f 157/157/157 156/156/156 155/155/155
f 157/157/157 155/155/155 158/158/158
f 157/157/157 159/159/159 156/156/156
f 157/157/157 158/158/158 160/160/160
f 157/157/157 161/161/161 159/159/159
f 157/157/157 160/160/160 162/162/162
f 157/157/157 163/163/163 161/161/161
f 157/157/157 162/162/162 164/164/164
f 157/157/157 165/165/165 163/163/163
f 157/157/157 164/164/164 166/166/166
f 157/157/157 167/167/167 165/165/165
f 157/157/157 166/166/166 168/168/168
f 157/157/157 169/169/169 167/167/167
f 157/157/157 168/168/168 170/170/170
f 157/157/157 171/171/171 169/169/169
f 157/157/157 170/170/170 172/172/172
f 157/157/157 173/173/173 171/171/171
f 157/157/157 172/172/172 174/174/174
f 157/157/157 175/175/175 173/173/173
f 157/157/157 174/174/174 175/175/175
