g Fan_Blades
v 0.04369697 0.01043446 0.01809988
v 0.03344421 -0.01043446 0.03344421
v 0.03344421 0.01043446 0.03344421
v 0.04369697 -0.01043446 0.01809988
v 0.04729721 0.01043446 0
v 0.04729721 -0.01043446 0
v 0.04369697 0.01043446 -0.01809984
v 0.04369697 -0.01043446 -0.01809984
v 0.0180999 -0.01043446 0.04369694
v 0.03344421 0.01043446 0.03344421
v 0.03344421 -0.01043446 0.03344421
v 0.0180999 0.01043446 0.04369694
v 0 -0.01043446 0.04729725
v 0 0.01043446 0.04729725
v -0.0180999 -0.01043446 0.04369694
v -0.0180999 0.01043446 0.04369694
v -0.03344421 -0.01043446 0.03344421
v -0.03344421 0.01043446 0.03344421
v -0.04369697 -0.01043446 0.01809988
v -0.04369697 0.01043446 0.01809988
v -0.04729721 -0.01043446 1.907349E-08
v -0.04369697 0.01043446 0.01809988
v -0.04369697 -0.01043446 0.01809988
v -0.04729721 0.01043446 1.907349E-08
v -0.04369697 -0.01043446 -0.01809986
v -0.04369697 0.01043446 -0.01809986
v -0.03344421 -0.01043446 -0.03344417
v -0.03344421 0.01043446 -0.03344417
v -0.0180999 -0.01043446 -0.04369694
v -0.0180999 0.01043446 -0.04369694
v 0 -0.01043446 -0.04729723
v -0.0180999 0.01043446 -0.04369694
v -0.0180999 -0.01043446 -0.04369694
v 0 0.01043446 -0.04729723
v 0.0180999 -0.01043446 -0.04369694
v 0.0180999 0.01043446 -0.04369694
v 0.03344421 -0.01043446 -0.03344417
v 0.03344421 0.01043446 -0.03344417
v 0.04369697 -0.01043446 -0.01809984
v 0.04369697 0.01043446 -0.01809984
v -0.02204445 -0.008298301 -0.07098785
v -0.04523895 0.006910476 -0.0002548981
v -0.0006542968 -0.008298301 -0.04255201
v -0.06218971 0.00858902 -0.009082794
v -0.05079437 -0.008298301 -0.0946159
v -0.07543144 0.01082016 -0.01231937
v -0.07855026 -0.008298301 -0.1006789
v -0.08759926 0.01315918 -0.01184393
v -0.1016141 -0.008298301 -0.09270404
v -0.09832305 0.01536533 -0.008962917
v -0.1178458 -0.006177177 -0.07840542
v -0.1290949 -0.001901092 -0.05398834
v -0.133627 0.007467956 -0.02682253
v -0.1120423 0.0177121 -0.001790867
v -0.1235476 0.01584957 -0.004444199
v -0.1324345 0.01293236 -0.01045853
v -0.05265785 -0.008298301 0.05706852
v 0.02019592 0.006910476 0.04178909
v -0.03872681 -0.008298301 0.02432619
v 0.02102615 0.00858902 0.06088283
v -0.05874534 -0.008298301 0.09378074
v 0.02484405 0.01082016 0.07396885
v -0.05011818 -0.008298301 0.1208495
v 0.03133972 0.01315918 0.08426868
v -0.03167976 -0.008298301 0.136836
v 0.03919663 0.01536533 0.09211528
v -0.01118095 -0.006177177 0.1437438
v 0.01558945 -0.001901092 0.1412772
v 0.04138176 0.007467956 0.1316192
v 0.05226745 0.0177121 0.1004105
v 0.0557222 0.01584957 0.111701
v 0.05495712 0.01293236 0.1224045
v 0.07330436 -0.008298301 0.02157984
v 0.0236451 0.006910476 -0.03387369
v 0.03798317 -0.008298301 0.02588631
v 0.0397657 0.00858902 -0.04413954
v 0.1081419 -0.008298301 0.008495655
v 0.04918953 0.01082016 -0.05398895
v 0.1272705 -0.008298301 -0.01251013
v 0.05486164 0.01315918 -0.06476427
v 0.131896 -0.008298301 -0.03647146
v 0.05772854 0.01536533 -0.07549187
v 0.1276289 -0.006177177 -0.05767786
v 0.1121076 -0.001901092 -0.07962839
v 0.0908474 0.007467956 -0.09713619
v 0.05837696 0.0177121 -0.09095911
v 0.06642742 0.01584957 -0.09959627
v 0.07607948 0.01293236 -0.1042854
v -0.04523895 0.007030373 -0.0002548981
v -0.02204445 -0.008178405 -0.07098785
v -0.0006542968 -0.008178405 -0.04255201
v -0.06218971 0.008708916 -0.009082794
v -0.05079437 -0.008178405 -0.0946159
v -0.07543144 0.01094006 -0.01231937
v -0.07855026 -0.008178405 -0.1006789
v -0.08759926 0.01327908 -0.01184393
v -0.1016141 -0.008178405 -0.09270404
v -0.09832305 0.01548523 -0.008962917
v -0.1178458 -0.006057282 -0.07840542
v -0.1290949 -0.001781197 -0.05398834
v -0.133627 0.007587852 -0.02682253
v -0.1120423 0.01783199 -0.001790867
v -0.1235476 0.01596947 -0.004444199
v -0.1324345 0.01305225 -0.01045853
v 0.02019592 0.007030373 0.04178909
v -0.05265785 -0.008178405 0.05706852
v -0.03872681 -0.008178405 0.02432619
v 0.02102615 0.008708916 0.06088283
v -0.05874534 -0.008178405 0.09378074
v 0.02484405 0.01094006 0.07396885
v -0.05011818 -0.008178405 0.1208495
v 0.03133972 0.01327908 0.08426868
v -0.03167976 -0.008178405 0.136836
v 0.03919663 0.01548523 0.09211528
v -0.01118095 -0.006057282 0.1437438
v 0.01558945 -0.001781197 0.1412772
v 0.04138176 0.007587852 0.1316192
v 0.05226745 0.01783199 0.1004105
v 0.0557222 0.01596947 0.111701
v 0.05495712 0.01305225 0.1224045
v 0.02364517 0.007030373 -0.03387369
v 0.07330441 -0.008178405 0.02157984
v 0.03798317 -0.008178405 0.02588631
v 0.0397657 0.008708916 -0.04413954
v 0.1081419 -0.008178405 0.008495655
v 0.04918953 0.01094006 -0.05398895
v 0.1272705 -0.008178405 -0.01251013
v 0.05486168 0.01327908 -0.06476427
v 0.131896 -0.008178405 -0.03647146
v 0.05772857 0.01548523 -0.07549187
v 0.1276289 -0.006057282 -0.05767786
v 0.1121077 -0.001781197 -0.07962839
v 0.09084743 0.007587852 -0.09713619
v 0.058377 0.01783199 -0.09095911
v 0.06642746 0.01596947 -0.09959627
v 0.07607952 0.01305225 -0.1042854
v 0.04369697 0.01043446 0.01809988
v -0.002980347 0.01043446 0.0008832741
v 0.04729721 0.01043446 0
v 0.03344421 0.01043446 0.03344421
v 0.04369697 0.01043446 -0.01809984
v 0.0180999 0.01043446 0.04369694
v 0.03344421 0.01043446 -0.03344417
v 0 0.01043446 0.04729725
v 0.0180999 0.01043446 -0.04369694
v -0.0180999 0.01043446 0.04369694
v 0 0.01043446 -0.04729723
v -0.03344421 0.01043446 0.03344421
v -0.0180999 0.01043446 -0.04369694
v -0.04369697 0.01043446 0.01809988
v -0.03344421 0.01043446 -0.03344417
v -0.04729721 0.01043446 1.907349E-08
v -0.04369697 0.01043446 -0.01809986
v 0.04729721 -0.01043446 0
v 0.000883255 -0.01043446 -0.002980366
v 0.04369697 -0.01043446 0.01809988
v 0.04369697 -0.01043446 -0.01809984
v 0.03344421 -0.01043446 0.03344421
v 0.03344421 -0.01043446 -0.03344417
v 0.0180999 -0.01043446 0.04369694
v 0.0180999 -0.01043446 -0.04369694
v 0 -0.01043446 0.04729725
v 0 -0.01043446 -0.04729723
v -0.0180999 -0.01043446 0.04369694
v -0.0180999 -0.01043446 -0.04369694
v -0.03344421 -0.01043446 0.03344421
v -0.03344421 -0.01043446 -0.03344417
v -0.04369697 -0.01043446 0.01809988
v -0.04369697 -0.01043446 -0.01809986
v -0.04729721 -0.01043446 1.907349E-08
vt 0.2442171 0.160136
vt 0.225868 0.1648106
vt 0.2349953 0.173938
vt 0.2322921 0.1551971
vt 0.2474556 0.143856
vt 0.2345475 0.143856
vt 0.2442171 0.127576
vt 0.2322921 0.1325156
vt 0.2162537 0.1712345
vt 0.2349953 0.173938
vt 0.225868 0.1648106
vt 0.2211934 0.1831599
vt 0.2049128 0.1734906
vt 0.2049128 0.1863981
vt 0.1935728 0.1712345
vt 0.1886331 0.1831596
vt 0.1839588 0.1648106
vt 0.1748316 0.173938
vt 0.1775347 0.1551971
vt 0.1656095 0.160136
vt 0.1752793 0.143856
vt 0.1656095 0.160136
vt 0.1775347 0.1551971
vt 0.1623712 0.143856
vt 0.1775347 0.1325156
vt 0.1656095 0.127576
vt 0.1839588 0.1229015
vt 0.1748316 0.113774
vt 0.1935728 0.1164776
vt 0.1886331 0.1045524
vt 0.2049128 0.1142217
vt 0.1886331 0.1045524
vt 0.1935728 0.1164776
vt 0.2049128 0.101314
vt 0.2162537 0.1164776
vt 0.2211934 0.1045524
vt 0.225868 0.1229015
vt 0.2349953 0.113774
vt 0.2322921 0.1325156
vt 0.2442171 0.127576
vt 0.5303189 0.103679
vt 0.5512665 0.05946217
vt 0.5186662 0.08394505
vt 0.5615695 0.06627287
vt 0.5469141 0.1209634
vt 0.5699638 0.0691907
vt 0.564197 0.1271808
vt 0.5778229 0.06961556
vt 0.5795928 0.1241914
vt 0.5847973 0.06841885
vt 0.5913779 0.1164659
vt 0.6007571 0.101568
vt 0.6058366 0.08365314
vt 0.594274 0.06460367
vt 0.6014165 0.06756325
vt 0.6065345 0.07257216
vt 0.5303189 0.103679
vt 0.5512665 0.05946217
vt 0.5186662 0.08394505
vt 0.5615695 0.06627287
vt 0.5469141 0.1209634
vt 0.5699638 0.0691907
vt 0.564197 0.1271808
vt 0.5778229 0.06961556
vt 0.5795928 0.1241914
vt 0.5847973 0.06841885
vt 0.5913779 0.1164659
vt 0.6007571 0.101568
vt 0.6058366 0.08365314
vt 0.594274 0.06460367
vt 0.6014165 0.06756325
vt 0.6065345 0.07257216
vt 0.5303189 0.103679
vt 0.5512665 0.05946217
vt 0.5186662 0.08394505
vt 0.5615695 0.06627287
vt 0.5469141 0.1209634
vt 0.5699638 0.0691907
vt 0.564197 0.1271808
vt 0.5778229 0.06961556
vt 0.5795928 0.1241914
vt 0.5847973 0.06841885
vt 0.5913779 0.1164659
vt 0.6007571 0.101568
vt 0.6058366 0.08365314
vt 0.594274 0.06460367
vt 0.6014165 0.06756325
vt 0.6065345 0.07257216
vt 0.5512665 0.05946217
vt 0.5303189 0.103679
vt 0.5186662 0.08394505
vt 0.5615695 0.06627287
vt 0.5469141 0.1209634
vt 0.5699638 0.0691907
vt 0.564197 0.1271808
vt 0.5778229 0.06961556
vt 0.5795928 0.1241914
vt 0.5847973 0.06841885
vt 0.5913779 0.1164659
vt 0.6007571 0.101568
vt 0.6058366 0.08365314
vt 0.594274 0.06460367
vt 0.6014165 0.06756325
vt 0.6065345 0.07257216
vt 0.5512665 0.05946217
vt 0.5303189 0.103679
vt 0.5186662 0.08394505
vt 0.5615695 0.06627287
vt 0.5469141 0.1209634
vt 0.5699638 0.0691907
vt 0.564197 0.1271808
vt 0.5778229 0.06961556
vt 0.5795928 0.1241914
vt 0.5847973 0.06841885
vt 0.5913779 0.1164659
vt 0.6007571 0.101568
vt 0.6058366 0.08365314
vt 0.594274 0.06460367
vt 0.6014165 0.06756325
vt 0.6065345 0.07257216
vt 0.5512665 0.05946217
vt 0.5303189 0.103679
vt 0.5186662 0.08394505
vt 0.5615695 0.06627287
vt 0.5469141 0.1209634
vt 0.5699638 0.0691907
vt 0.564197 0.1271808
vt 0.5778229 0.06961556
vt 0.5795928 0.1241914
vt 0.5847973 0.06841885
vt 0.5913779 0.1164659
vt 0.6007571 0.101568
vt 0.6058366 0.08365314
vt 0.594274 0.06460367
vt 0.6014165 0.06756325
vt 0.6065345 0.07257216
vt 0.2324124 0.1573233
vt 0.2045227 0.1433055
vt 0.2359312 0.1443341
vt 0.2239795 0.1672574
vt 0.233447 0.130915
vt 0.212755 0.1725734
vt 0.2254236 0.1199619
vt 0.2010578 0.1730167
vt 0.2137553 0.1136693
vt 0.1907047 0.1693248
vt 0.2010562 0.1128773
vt 0.1827448 0.1626438
vt 0.1897495 0.1170319
vt 0.177619 0.1540404
vt 0.1814229 0.1246978
vt 0.1755255 0.1443325
vt 0.176698 0.1342429
vt 0.2345475 0.143856
vt 0.2054877 0.1419176
vt 0.2322921 0.1551971
vt 0.2322921 0.1325156
vt 0.225868 0.1648106
vt 0.225868 0.1229015
vt 0.2162537 0.1712345
vt 0.2162537 0.1164776
vt 0.2049128 0.1734906
vt 0.2049128 0.1142217
vt 0.1935728 0.1712345
vt 0.1935728 0.1164776
vt 0.1839588 0.1648106
vt 0.1839588 0.1229015
vt 0.1775347 0.1551971
vt 0.1775347 0.1325156
vt 0.1752793 0.143856
vn 0.689402 0.6657186 0.2855586
vn 0.5276447 -0.6657187 0.5276453
vn 0.5276448 0.6657187 0.5276453
vn 0.689402 -0.6657186 0.2855586
vn 0.7462021 0.6657194 -1.587835E-07
vn 0.7462022 -0.6657194 -1.551747E-07
vn 0.6894019 0.6657186 -0.2855587
vn 0.6894019 -0.6657187 -0.2855587
vn 0.2855593 -0.665719 0.6894012
vn 0.5276448 0.6657187 0.5276453
vn 0.5276447 -0.6657187 0.5276453
vn 0.2855594 0.665719 0.6894011
vn 0 -0.6657187 0.7462028
vn 0 0.6657187 0.7462028
vn -0.2855593 -0.665719 0.6894012
vn -0.2855593 0.665719 0.6894012
vn -0.5276447 -0.6657187 0.5276453
vn -0.5276447 0.6657187 0.5276453
vn -0.6894019 -0.6657186 0.2855586
vn -0.6894019 0.6657185 0.2855587
vn -0.7462021 -0.6657194 0
vn -0.6894019 0.6657185 0.2855587
vn -0.6894019 -0.6657186 0.2855586
vn -0.7462021 0.6657195 0
vn -0.6894019 -0.6657185 -0.2855588
vn -0.6894019 0.6657185 -0.2855588
vn -0.5276448 -0.665719 -0.5276448
vn -0.5276448 0.665719 -0.5276448
vn -0.2855597 -0.6657188 -0.6894012
vn -0.2855597 0.6657188 -0.6894013
vn 0 -0.665719 -0.7462026
vn -0.2855597 0.6657188 -0.6894013
vn -0.2855597 -0.6657188 -0.6894012
vn 0 0.6657189 -0.7462026
vn 0.2855597 -0.6657188 -0.6894012
vn 0.2855596 0.6657187 -0.6894013
vn 0.5276451 -0.665719 -0.5276447
vn 0.5276451 0.665719 -0.5276448
vn 0.6894019 -0.6657187 -0.2855587
vn 0.6894019 0.6657186 -0.2855587
vn -0.1624191 -0.9733075 0.1621497
vn -0.1798382 -0.9721826 0.1500638
vn -0.1931611 -0.9703487 0.1453006
vn -0.1832443 -0.9699972 0.1597714
vn -0.09257896 -0.9763926 0.1951576
vn -0.1758995 -0.9654468 0.1922807
vn 0.004093807 -0.974022 0.2264165
vn -0.1288456 -0.9602749 0.2475295
vn 0.08241448 -0.9642898 0.2517
vn -0.009641767 -0.951709 0.3068499
vn 0.1259634 -0.9569607 0.2614564
vn 0.1407173 -0.952751 0.2691917
vn 0.05093778 -0.9420111 0.3316932
vn 0.04144476 -0.9367216 0.3476132
vn 0.08386315 -0.9449902 0.3161653
vn 0.1017446 -0.9457957 0.308413
vn 0.2216353 -0.9733075 0.05958397
vn 0.2198781 -0.9721826 0.08071223
vn 0.2224145 -0.9703487 0.09463184
vn 0.2299882 -0.9699972 0.07880823
vn 0.215301 -0.9763926 -0.01740302
vn 0.2544697 -0.9654468 0.05619305
vn 0.1940355 -0.974022 -0.1167536
vn 0.2787897 -0.9602749 -0.01218091
vn 0.1767715 -0.9642898 -0.197223
vn 0.2705608 -0.951709 -0.1450747
vn 0.1634465 -0.9569607 -0.2398152
vn 0.1627681 -0.9527509 -0.2564607
vn 0.2617859 -0.9420111 -0.2099602
vn 0.2803196 -0.9367216 -0.2096989
vn 0.2318766 -0.9449901 -0.23071
vn 0.216222 -0.9457956 -0.2423197
vn -0.05921626 -0.9733075 -0.2217339
vn -0.04003983 -0.9721826 -0.2307763
vn -0.02925334 -0.9703487 -0.2399328
vn -0.04674406 -0.9699972 -0.2385797
vn -0.1227221 -0.9763926 -0.1777545
vn -0.07857032 -0.9654468 -0.2484738
vn -0.1981293 -0.974022 -0.109663
vn -0.1499439 -0.9602749 -0.2353486
vn -0.2591858 -0.96429 -0.05447726
vn -0.2609188 -0.9517092 -0.161775
vn -0.2894095 -0.9569607 -0.02164069
vn -0.3034855 -0.9527509 -0.01273103
vn -0.3127235 -0.9420111 -0.1217333
vn -0.3217639 -0.9367218 -0.1379137
vn -0.3157382 -0.9449904 -0.08545439
vn -0.317965 -0.9457958 -0.06609491
vn 0.1798382 0.9721826 -0.1500638
vn 0.1624191 0.9733075 -0.1621497
vn 0.1931611 0.9703487 -0.1453006
vn 0.1832443 0.9699972 -0.1597714
vn 0.09257896 0.9763926 -0.1951576
vn 0.1758995 0.9654468 -0.1922807
vn -0.004093801 0.974022 -0.2264165
vn 0.1288456 0.9602749 -0.2475295
vn -0.08241448 0.9642898 -0.2517
vn 0.009641765 0.951709 -0.3068499
vn -0.1259634 0.9569607 -0.2614564
vn -0.1407173 0.9527509 -0.2691917
vn -0.05093778 0.9420111 -0.3316932
vn -0.04144476 0.9367216 -0.3476132
vn -0.08386315 0.9449902 -0.3161653
vn -0.1017446 0.9457957 -0.308413
vn -0.2198781 0.9721826 -0.08071223
vn -0.2216353 0.9733075 -0.05958397
vn -0.2224145 0.9703487 -0.09463184
vn -0.2299882 0.9699972 -0.07880823
vn -0.215301 0.9763926 0.01740302
vn -0.2544697 0.9654468 -0.05619305
vn -0.1940355 0.974022 0.1167535
vn -0.2787897 0.9602749 0.01218091
vn -0.1767714 0.9642898 0.197223
vn -0.2705608 0.951709 0.1450747
vn -0.1634465 0.9569607 0.2398152
vn -0.1627681 0.9527509 0.2564607
vn -0.2617859 0.9420111 0.2099602
vn -0.2803196 0.9367216 0.2096989
vn -0.2318766 0.9449901 0.23071
vn -0.216222 0.9457956 0.2423197
vn 0.04003993 0.9721826 0.2307763
vn 0.05921626 0.9733075 0.2217339
vn 0.02925332 0.9703487 0.2399328
vn 0.04674412 0.9699972 0.2385797
vn 0.1227221 0.9763926 0.1777544
vn 0.07857021 0.9654468 0.2484739
vn 0.1981293 0.974022 0.109663
vn 0.1499437 0.9602749 0.2353487
vn 0.2591858 0.96429 0.05447721
vn 0.2609188 0.9517092 0.161775
vn 0.2894095 0.9569607 0.02164069
vn 0.3034855 0.9527509 0.01273103
vn 0.3127235 0.9420111 0.1217333
vn 0.3217639 0.9367218 0.1379137
vn 0.3157382 0.9449904 0.08545439
vn 0.317965 0.9457958 0.06609491
vn 0.689402 0.6657186 0.2855586
vn 0 1 0
vn 0.7462021 0.6657194 -1.587835E-07
vn 0.5276448 0.6657187 0.5276453
vn 0.6894019 0.6657186 -0.2855587
vn 0.2855594 0.665719 0.6894011
vn 0.5276451 0.665719 -0.5276448
vn 0 0.6657187 0.7462028
vn 0.2855596 0.6657187 -0.6894013
vn -0.2855593 0.665719 0.6894012
vn 0 0.6657189 -0.7462026
vn -0.5276447 0.6657187 0.5276453
vn -0.2855597 0.6657188 -0.6894013
vn -0.6894019 0.6657185 0.2855587
vn -0.5276448 0.665719 -0.5276448
vn -0.7462021 0.6657195 0
vn -0.6894019 0.6657185 -0.2855588
vn 0.7462022 -0.6657194 -1.551747E-07
vn 0 -1 0
vn 0.689402 -0.6657186 0.2855586
vn 0.6894019 -0.6657187 -0.2855587
vn 0.5276447 -0.6657187 0.5276453
vn 0.5276451 -0.665719 -0.5276447
vn 0.2855593 -0.665719 0.6894012
vn 0.2855597 -0.6657188 -0.6894012
vn 0 -0.6657187 0.7462028
vn 0 -0.665719 -0.7462026
vn -0.2855593 -0.665719 0.6894012
vn -0.2855597 -0.6657188 -0.6894012
vn -0.5276447 -0.6657187 0.5276453
vn -0.5276448 -0.665719 -0.5276448
vn -0.6894019 -0.6657186 0.2855586
vn -0.6894019 -0.6657185 -0.2855588
vn -0.7462021 -0.6657194 0
g Fan_Blades_0
f 3/3/3 2/2/2 1/1/1
f 4/4/4 1/1/1 2/2/2
f 1/1/1 4/4/4 5/5/5
f 6/6/6 5/5/5 4/4/4
f 5/5/5 6/6/6 7/7/7
f 8/8/8 7/7/7 6/6/6
f 11/11/11 10/10/10 9/9/9
f 12/12/12 9/9/9 10/10/10
f 9/9/9 12/12/12 13/13/13
f 14/14/14 13/13/13 12/12/12
f 13/13/13 14/14/14 15/15/15
f 16/16/16 15/15/15 14/14/14
f 15/15/15 16/16/16 17/17/17
f 18/18/18 17/17/17 16/16/16
f 17/17/17 18/18/18 19/19/19
f 20/20/20 19/19/19 18/18/18
f 23/23/23 22/22/22 21/21/21
f 24/24/24 21/21/21 22/22/22
f 21/21/21 24/24/24 25/25/25
f 26/26/26 25/25/25 24/24/24
f 25/25/25 26/26/26 27/27/27
f 28/28/28 27/27/27 26/26/26
f 27/27/27 28/28/28 29/29/29
f 30/30/30 29/29/29 28/28/28
f 33/33/33 32/32/32 31/31/31
f 34/34/34 31/31/31 32/32/32
f 31/31/31 34/34/34 35/35/35
f 36/36/36 35/35/35 34/34/34
f 35/35/35 36/36/36 37/37/37
f 38/38/38 37/37/37 36/36/36
f 37/37/37 38/38/38 39/39/39
f 40/40/40 39/39/39 38/38/38
f 43/43/43 42/42/42 41/41/41
f 44/44/44 41/41/41 42/42/42
f 41/41/41 44/44/44 45/45/45
f 46/46/46 45/45/45 44/44/44
f 45/45/45 46/46/46 47/47/47
f 48/48/48 47/47/47 46/46/46
f 47/47/47 48/48/48 49/49/49
f 48/48/48 50/50/50 49/49/49
f 51/51/51 49/49/49 50/50/50
f 52/52/52 51/51/51 50/50/50
f 52/52/52 50/50/50 53/53/53
f 54/54/54 53/53/53 50/50/50
f 54/54/54 55/55/55 53/53/53
f 56/56/56 53/53/53 55/55/55
f 59/59/59 58/58/58 57/57/57
f 60/60/60 57/57/57 58/58/58
f 57/57/57 60/60/60 61/61/61
f 62/62/62 61/61/61 60/60/60
f 61/61/61 62/62/62 63/63/63
f 64/64/64 63/63/63 62/62/62
f 63/63/63 64/64/64 65/65/65
f 64/64/64 66/66/66 65/65/65
f 67/67/67 65/65/65 66/66/66
f 68/68/68 67/67/67 66/66/66
f 68/68/68 66/66/66 69/69/69
f 70/70/70 69/69/69 66/66/66
f 70/70/70 71/71/71 69/69/69
f 72/72/72 69/69/69 71/71/71
f 75/75/75 74/74/74 73/73/73
f 76/76/76 73/73/73 74/74/74
f 73/73/73 76/76/76 77/77/77
f 78/78/78 77/77/77 76/76/76
f 77/77/77 78/78/78 79/79/79
f 80/80/80 79/79/79 78/78/78
f 79/79/79 80/80/80 81/81/81
f 80/80/80 82/82/82 81/81/81
f 83/83/83 81/81/81 82/82/82
f 84/84/84 83/83/83 82/82/82
f 84/84/84 82/82/82 85/85/85
f 86/86/86 85/85/85 82/82/82
f 86/86/86 87/87/87 85/85/85
f 88/88/88 85/85/85 87/87/87
f 91/91/91 90/90/90 89/89/89
f 92/92/92 89/89/89 90/90/90
f 90/90/90 93/93/93 92/92/92
f 94/94/94 92/92/92 93/93/93
f 93/93/93 95/95/95 94/94/94
f 96/96/96 94/94/94 95/95/95
f 96/96/96 95/95/95 97/97/97
f 96/96/96 97/97/97 98/98/98
f 99/99/99 98/98/98 97/97/97
f 99/99/99 100/100/100 98/98/98
f 100/100/100 101/101/101 98/98/98
f 102/102/102 98/98/98 101/101/101
f 102/102/102 101/101/101 103/103/103
f 104/104/104 103/103/103 101/101/101
f 107/107/107 106/106/106 105/105/105
f 108/108/108 105/105/105 106/106/106
f 106/106/106 109/109/109 108/108/108
f 110/110/110 108/108/108 109/109/109
f 109/109/109 111/111/111 110/110/110
f 112/112/112 110/110/110 111/111/111
f 112/112/112 111/111/111 113/113/113
f 112/112/112 113/113/113 114/114/114
f 115/115/115 114/114/114 113/113/113
f 115/115/115 116/116/116 114/114/114
f 116/116/116 117/117/117 114/114/114
f 118/118/118 114/114/114 117/117/117
f 118/118/118 117/117/117 119/119/119
f 120/120/120 119/119/119 117/117/117
f 123/123/123 122/122/122 121/121/121
f 124/124/124 121/121/121 122/122/122
f 122/122/122 125/125/125 124/124/124
f 126/126/126 124/124/124 125/125/125
f 125/125/125 127/127/127 126/126/126
f 128/128/128 126/126/126 127/127/127
f 128/128/128 127/127/127 129/129/129
f 128/128/128 129/129/129 130/130/130
f 131/131/131 130/130/130 129/129/129
f 131/131/131 132/132/132 130/130/130
f 132/132/132 133/133/133 130/130/130
f 134/134/134 130/130/130 133/133/133
f 134/134/134 133/133/133 135/135/135
f 136/136/136 135/135/135 133/133/133
f 139/139/139 138/138/138 137/137/137
f 137/137/137 138/138/138 140/140/140
f 141/141/141 138/138/138 139/139/139
f 140/140/140 138/138/138 142/142/142
f 143/143/143 138/138/138 141/141/141
f 142/142/142 138/138/138 144/144/144
f 145/145/145 138/138/138 143/143/143
f 144/144/144 138/138/138 146/146/146
f 147/147/147 138/138/138 145/145/145
f 146/146/146 138/138/138 148/148/148
f 149/149/149 138/138/138 147/147/147
f 148/148/148 138/138/138 150/150/150
f 151/151/151 138/138/138 149/149/149
f 150/150/150 138/138/138 152/152/152
f 153/153/153 138/138/138 151/151/151
f 152/152/152 138/138/138 153/153/153
f 156/156/156 155/155/155 154/154/154
f 154/154/154 155/155/155 157/157/157
f 158/158/158 155/155/155 156/156/156
f 157/157/157 155/155/155 159/159/159
f 160/160/160 155/155/155 158/158/158
f 159/159/159 155/155/155 161/161/161
f 162/162/162 155/155/155 160/160/160
f 161/161/161 155/155/155 163/163/163
f 164/164/164 155/155/155 162/162/162
f 163/163/163 155/155/155 165/165/165
f 166/166/166 155/155/155 164/164/164
f 165/165/165 155/155/155 167/167/167
f 168/168/168 155/155/155 166/166/166
f 167/167/167 155/155/155 169/169/169
f 170/170/170 155/155/155 168/168/168
f 169/169/169 155/155/155 170/170/170
