g FileFolder
v -0.03442683 -0.09360348 0.0001366806
v 0.03442648 0.09360353 0.0001366806
v -0.03594895 0.0930296 0.0001366806
v 0.03594862 -0.09302958 0.0001366806
v -0.03442683 -0.09360348 0.2333391
v -0.03594895 0.0930296 0.2333391
v 0.03442648 0.09360353 0.2333391
v 0.03594862 -0.09302958 0.2333391
v -0.03442683 -0.09360348 0.2333391
v 0.03594862 -0.09302958 0.2333391
v -0.03442683 -0.09360348 0.0001366806
v 0.03594862 -0.09302958 0.0001366806
v 0.03442648 0.09360353 0.2333391
v 0.03594862 -0.09302958 0.0001366806
v 0.03594862 -0.09302958 0.2333391
v 0.03442648 0.09360353 0.0001366806
v 0.03442648 0.09360353 0.2333391
v -0.03594895 0.0930296 0.2333391
v 0.03442648 0.09360353 0.0001366806
v -0.03594895 0.0930296 0.0001366806
v -0.03442683 -0.09360348 0.2333391
v -0.03594895 0.0930296 0.0001366806
v -0.03594895 0.0930296 0.2333391
v -0.03442683 -0.09360348 0.0001366806
vt 0.4049551 0.2308693
vt 0.4629369 0.2527334
vt 0.462937 0.2308696
vt 0.404955 0.2527333
vt 0.404991 0.2308691
vt 0.4629734 0.2308689
vt 0.4629735 0.2527327
vt 0.4049911 0.252733
vt 0.3325075 0.2308691
vt 0.3325074 0.252733
vt 0.4049551 0.2308693
vt 0.404955 0.2527333
vt 0.5007493 0.8231949
vt 0.5731971 0.7652127
vt 0.5007496 0.7652124
vt 0.5731969 0.8231952
vt 0.4559394 0.2677802
vt 0.4355059 0.2677802
vt 0.4559394 0.3354882
vt 0.4355059 0.3354882
vt 0.4149976 0.8769917
vt 0.4814634 0.823797
vt 0.4149977 0.8237968
vt 0.4814632 0.8769919
vn 0 0 -1
vn 0 0 -1
vn 0 0 -1
vn 0 0 -1
vn 0 0 1
vn 0 0 1
vn 0 0 1
vn 0 0 1
vn 0.008154331 -0.9999667 0
vn 0.008154331 -0.9999667 0
vn 0.008154331 -0.9999667 0
vn 0.008154331 -0.9999667 0
vn 0.9999667 0.008155506 0
vn 0.9999667 0.008155506 0
vn 0.9999667 0.008155506 0
vn 0.9999667 0.008155506 0
vn -0.008155112 0.9999667 0
vn -0.008155112 0.9999667 0
vn -0.008155112 0.9999667 0
vn -0.008155112 0.9999667 0
vn -0.9999667 -0.008155386 0
vn -0.9999667 -0.008155386 0
vn -0.9999667 -0.008155386 0
vn -0.9999667 -0.008155386 0
g FileFolder_0
f 3/3/3 2/2/2 1/1/1
f 2/2/2 4/4/4 1/1/1
f 7/7/7 6/6/6 5/5/5
f 5/5/5 8/8/8 7/7/7
f 11/11/11 10/10/10 9/9/9
f 11/11/11 12/12/12 10/10/10
f 15/15/15 14/14/14 13/13/13
f 14/14/14 16/16/16 13/13/13
f 19/19/19 18/18/18 17/17/17
f 19/19/19 20/20/20 18/18/18
f 23/23/23 22/22/22 21/21/21
f 22/22/22 24/24/24 21/21/21
