g Fountain_Border_Out_COL
v -0.9999987 -1.469571E-17 0.2267684
v 0.9999987 0.1331672 0.2409175
v 0.9999987 -1.469572E-17 0.2267686
v -0.9999987 0.1331672 0.2409172
v 0.9999987 0.298802 0.1365264
v -0.9999987 0.298802 0.1365262
v 0.9999987 0.4176947 0.1438494
v -0.9999987 0.4176947 0.1438492
v 0.9999987 0.5007757 0.2292066
v -0.9999987 0.5007757 0.2292064
v 0.9999987 0.6347792 0.1501294
v -0.9999987 0.6347792 0.1501292
v -0.9999987 1.307541E-17 -0.2267684
v 0.9999987 -1.469572E-17 0.2267686
v 0.9999987 1.307542E-17 -0.2267686
v -0.9999987 -1.469571E-17 0.2267684
v 0.9999987 0.1331672 -0.2409175
v -0.9999987 1.307541E-17 -0.2267684
v 0.9999987 1.307542E-17 -0.2267686
v -0.9999987 0.1331672 -0.2409173
v 0.9999987 0.298802 -0.1365265
v -0.9999987 0.298802 -0.1365262
v 0.9999987 0.4176947 -0.1438495
v -0.9999987 0.4176947 -0.1438493
v 0.9999987 0.5007757 -0.2292066
v -0.9999987 0.4176947 -0.1438493
v 0.9999987 0.4176947 -0.1438495
v -0.9999987 0.5007757 -0.2292064
v -0.9999987 0.5007757 -0.2292064
v 0.9999987 0.6347792 -0.1501294
v -0.9999987 0.6347792 -0.1501292
v 0.9999987 0.5007757 -0.2292066
v 0.9999987 0.6347792 -0.1501294
v -0.9999987 0.6347792 0.1501292
v -0.9999987 0.6347792 -0.1501292
v 0.9999987 0.6347792 0.1501294
v 0.9999987 0.1331672 0.2409175
v 0.9999987 1.307542E-17 -0.2267686
v 0.9999987 -1.469572E-17 0.2267686
v 0.9999987 0.1331672 -0.2409175
v 0.9999987 0.298802 -0.1365265
v 0.9999987 0.298802 0.1365264
v 0.9999987 0.4176947 -0.1438495
v 0.9999987 0.4176947 0.1438494
v 0.9999987 0.5007757 -0.2292066
v 0.9999987 0.5007757 0.2292066
v 0.9999987 0.6347792 -0.1501294
v 0.9999987 0.6347792 0.1501294
v -0.9999987 0.6347792 0.1501292
v -0.9999987 0.5007757 -0.2292064
v -0.9999987 0.6347792 -0.1501292
v -0.9999987 0.5007757 0.2292064
v -0.9999987 0.4176947 -0.1438493
v -0.9999987 0.4176947 0.1438492
v -0.9999987 0.298802 -0.1365262
v -0.9999987 0.298802 0.1365262
v -0.9999987 0.1331672 -0.2409173
v -0.9999987 0.1331672 0.2409172
v -0.9999987 1.307541E-17 -0.2267684
v -0.9999987 -1.469571E-17 0.2267684
vt 0.4604362 0.764206
vt 0.002393174 0.7210444
vt 0.002393174 0.764206
vt 0.4604362 0.7210444
vt 0.002393174 0.6745823
vt 0.4604362 0.6745826
vt 0.002393174 0.6473044
vt 0.4604362 0.6473044
vt 0.002393174 0.618982
vt 0.4604362 0.618982
vt 0.002393174 0.5768965
vt 0.4604362 0.5768965
vt 0.66355 0.5486965
vt 0.6610264 0.548124
vt 0.6610264 0.5486965
vt 0.66355 0.548124
vt 0.002393174 0.3640126
vt 0.4604361 0.3208521
vt 0.002393174 0.320852
vt 0.4604362 0.3640126
vt 0.002393174 0.4104725
vt 0.4604362 0.4104725
vt 0.002393174 0.4377491
vt 0.4604362 0.4377494
vt 0.002393174 0.4660675
vt 0.4604362 0.4377494
vt 0.002393174 0.4377491
vt 0.4604362 0.4660675
vt 0.4604362 0.4660675
vt 0.002393174 0.5081463
vt 0.4604362 0.5081464
vt 0.002393174 0.4660675
vt 0.002393174 0.5081463
vt 0.4604362 0.5768965
vt 0.4604362 0.5081464
vt 0.002393174 0.5768965
vt 0.8042746 0.7448746
vt 0.8208277 0.8030097
vt 0.8208277 0.7466334
vt 0.8042746 0.8047684
vt 0.7836856 0.7917923
vt 0.7836856 0.7578509
vt 0.7689067 0.7927026
vt 0.7689067 0.7569405
vt 0.7585795 0.8033127
vt 0.7585795 0.7463304
vt 0.7419224 0.7934831
vt 0.7419224 0.7561598
vt 0.6342831 0.2877428
vt 0.6176262 0.3348954
vt 0.6342831 0.325066
vt 0.6176262 0.277913
vt 0.6072989 0.3242854
vt 0.6072989 0.2885234
vt 0.5925201 0.323375
vt 0.5925201 0.2894334
vt 0.5719311 0.3363512
vt 0.5719311 0.2764573
vt 0.555378 0.3345925
vt 0.555378 0.2782161
vn 0 -0.7435234 0.6687099
vn -1.114727E-07 0.2262794 0.9740624
vn 0 -0.7435235 0.6687099
vn -1.114727E-07 0.2262794 0.9740624
vn -1.108713E-07 0.2478152 0.9688073
vn -1.012487E-07 0.247815 0.9688073
vn 0 -0.4170645 0.908877
vn 0 -0.4170646 0.9088768
vn -1.052927E-07 -0.1325057 0.9911822
vn -1.084673E-07 -0.1325055 0.9911822
vn 0 0.8683953 0.4958726
vn 0 0.8683953 0.4958726
vn 0 -0.7435234 -0.6687099
vn 0 -0.7435235 0.6687099
vn 0 -0.7435234 -0.6687099
vn 0 -0.7435234 0.6687099
vn -1.114727E-07 0.2262794 -0.9740624
vn 0 -0.7435234 -0.6687099
vn 0 -0.7435234 -0.6687099
vn -1.114727E-07 0.2262794 -0.9740624
vn -1.108713E-07 0.2478152 -0.9688073
vn -1.012487E-07 0.247815 -0.9688073
vn 0 -0.4170645 -0.908877
vn 0 -0.4170646 -0.9088768
vn -1.052927E-07 -0.1325057 -0.9911822
vn 0 -0.4170646 -0.9088768
vn 0 -0.4170645 -0.908877
vn -1.084673E-07 -0.1325055 -0.9911822
vn -1.084673E-07 -0.1325055 -0.9911822
vn 0 0.8683953 -0.4958726
vn 0 0.8683953 -0.4958726
vn -1.052927E-07 -0.1325057 -0.9911822
vn 0 0.8683953 -0.4958726
vn 0 0.8683953 0.4958726
vn 0 0.8683953 -0.4958726
vn 0 0.8683953 0.4958726
vn 1 0 0
vn 1 0 0
vn 1 0 0
vn 1 0 0
vn 1 0 0
vn 1 0 0
vn 1 0 0
vn 1 0 0
vn 1 0 0
vn 1 0 0
vn 1 0 0
vn 1 0 0
vn -1 0 0
vn -1 0 0
vn -1 0 0
vn -1 0 0
vn -1 0 0
vn -1 0 0
vn -1 0 0
vn -1 0 0
vn -1 0 0
vn -1 0 0
vn -1 0 0
vn -1 0 0
g Fountain_Border_Out_COL_0
f 3/3/3 2/2/2 1/1/1
f 4/4/4 1/1/1 2/2/2
f 2/2/2 5/5/5 4/4/4
f 6/6/6 4/4/4 5/5/5
f 5/5/5 7/7/7 6/6/6
f 8/8/8 6/6/6 7/7/7
f 7/7/7 9/9/9 8/8/8
f 10/10/10 8/8/8 9/9/9
f 9/9/9 11/11/11 10/10/10
f 12/12/12 10/10/10 11/11/11
f 15/15/15 14/14/14 13/13/13
f 16/16/16 13/13/13 14/14/14
f 19/19/19 18/18/18 17/17/17
f 20/20/20 17/17/17 18/18/18
f 17/17/17 20/20/20 21/21/21
f 22/22/22 21/21/21 20/20/20
f 21/21/21 22/22/22 23/23/23
f 24/24/24 23/23/23 22/22/22
f 27/27/27 26/26/26 25/25/25
f 28/28/28 25/25/25 26/26/26
f 31/31/31 30/30/30 29/29/29
f 32/32/32 29/29/29 30/30/30
f 35/35/35 34/34/34 33/33/33
f 36/36/36 33/33/33 34/34/34
f 39/39/39 38/38/38 37/37/37
f 40/40/40 37/37/37 38/38/38
f 40/40/40 41/41/41 37/37/37
f 42/42/42 37/37/37 41/41/41
f 41/41/41 43/43/43 42/42/42
f 44/44/44 42/42/42 43/43/43
f 43/43/43 45/45/45 44/44/44
f 46/46/46 44/44/44 45/45/45
f 45/45/45 47/47/47 46/46/46
f 48/48/48 46/46/46 47/47/47
f 51/51/51 50/50/50 49/49/49
f 52/52/52 49/49/49 50/50/50
f 50/50/50 53/53/53 52/52/52
f 54/54/54 52/52/52 53/53/53
f 53/53/53 55/55/55 54/54/54
f 56/56/56 54/54/54 55/55/55
f 55/55/55 57/57/57 56/56/56
f 58/58/58 56/56/56 57/57/57
f 57/57/57 59/59/59 58/58/58
f 60/60/60 58/58/58 59/59/59
