g Fountain_Border_Corner_Out_COL
v 0.4552594 0.6347792 0.06421295
v 0.2237955 0.5007757 -0.01486431
v 0.4552594 0.5007757 -0.01486425
v 0.1869211 0.6347792 0.06421291
v -0.06421264 0.6347792 -0.1869209
v 0.0148645 0.5007757 -0.2237954
v -0.06421264 0.6347792 -0.4552594
v 0.0148645 0.5007757 -0.4552594
v 0.4552594 0.6347792 0.3644712
v 0.1869211 0.6347792 0.06421291
v 0.4552594 0.6347792 0.06421295
v 0.04690826 0.6347793 0.3644712
v 0.01003403 0.5007757 0.4435484
v 0.4552594 0.5007757 0.4435484
v -0.4435486 0.5007757 -0.01003389
v -0.3644711 0.6347793 -0.04690819
v -0.06421264 0.6347792 -0.1869209
v -0.3644711 0.6347792 -0.4552594
v -0.4435483 0.5007757 -0.4552594
v -0.06421264 0.6347792 -0.4552594
v 0.4552594 1.30754E-17 -0.0124263
v 0.2292563 0.1331672 -0.0265752
v 0.2226584 1.30754E-17 -0.0124263
v 0.4552594 0.1331672 -0.02657514
v 0.4552594 0.298802 0.07781561
v 0.1798715 0.298265 0.07933076
v 0.4552594 0.4176947 0.07049271
v 0.1846368 0.4249859 0.06911114
v 0.2237955 0.5007757 -0.01486431
v 0.4552594 0.4176947 0.07049271
v 0.4552594 0.5007757 -0.01486425
v 0.1846368 0.4249859 0.06911114
v -0.06911102 0.4249859 -0.1846367
v 0.0148645 0.5007757 -0.2237954
v -0.07049286 0.4176947 -0.4552594
v 0.0148645 0.5007757 -0.4552594
v 0.4552594 -1.469572E-17 0.4411105
v 0.004573059 0.1331672 0.4552593
v 0.4552594 0.1331672 0.4552593
v 0.01117096 -1.469572E-17 0.4411104
v 0.0491925 0.424986 0.359573
v 0.4552594 0.5007757 0.4435484
v 0.4552594 0.4176947 0.3581911
v 0.01003403 0.5007757 0.4435484
v -0.4435486 0.5007757 -0.01003389
v -0.3595727 0.424986 -0.04919235
v -0.4435483 0.5007757 -0.4552594
v -0.3581912 0.4176947 -0.4552594
v 0.05395782 0.298265 0.3493534
v 0.4552594 0.4176947 0.3581911
v 0.4552594 0.298802 0.350868
v 0.0491925 0.424986 0.359573
v 0.4552594 0.1331672 0.4552593
v 0.05395782 0.298265 0.3493534
v 0.4552594 0.298802 0.350868
v 0.004573059 0.1331672 0.4552593
v -0.4552591 0.1331672 -0.004572849
v -0.4411102 1.299852E-17 -0.01117081
v 0.01117096 -1.469572E-17 0.4411104
v -0.4411105 4.01911E-17 -0.4552593
v -0.4552591 0.1331672 -0.4552594
v -0.3493533 0.298265 -0.05395771
v -0.3508679 0.298802 -0.4552592
v -0.3581912 0.4176947 -0.4552594
v -0.3595727 0.424986 -0.04919235
v 0.0491925 0.424986 0.359573
v 0.4552594 1.30754E-17 -0.0124263
v 0.01117096 -1.469572E-17 0.4411104
v 0.4552594 -1.469572E-17 0.4411105
v 0.2226584 1.30754E-17 -0.0124263
v 0.01242645 2.594839E-17 -0.2226583
v -0.4411102 1.299852E-17 -0.01117081
v 0.01242645 4.01911E-17 -0.4552594
v -0.4411105 4.01911E-17 -0.4552593
v -0.06911102 0.4249859 -0.1846367
v 0.1798715 0.298265 0.07933076
v 0.1846368 0.4249859 0.06911114
v -0.07933075 0.298265 -0.1798714
v -0.07049286 0.4176947 -0.4552594
v 0.2292563 0.1331672 -0.0265752
v -0.07781555 0.298802 -0.4552594
v 0.02657532 0.1331672 -0.2292563
v 0.2226584 1.30754E-17 -0.0124263
v 0.02657532 0.1331672 -0.4552594
v 0.01242645 2.594839E-17 -0.2226583
v 0.01242645 4.01911E-17 -0.4552594
v -0.4435483 0.5007757 -0.4552594
v -0.06421264 0.6347792 -0.4552594
v -0.3644711 0.6347792 -0.4552594
v 0.0148645 0.5007757 -0.4552594
v -0.07049286 0.4176947 -0.4552594
v -0.3581912 0.4176947 -0.4552594
v -0.07781555 0.298802 -0.4552594
v -0.3508679 0.298802 -0.4552592
v 0.02657532 0.1331672 -0.4552594
v -0.4552591 0.1331672 -0.4552594
v 0.01242645 4.01911E-17 -0.4552594
v -0.4411105 4.01911E-17 -0.4552593
v 0.4552594 0.1331672 0.4552593
v 0.4552594 1.30754E-17 -0.0124263
v 0.4552594 -1.469572E-17 0.4411105
v 0.4552594 0.1331672 -0.02657514
v 0.4552594 0.298802 0.07781561
v 0.4552594 0.298802 0.350868
v 0.4552594 0.4176947 0.07049271
v 0.4552594 0.4176947 0.3581911
v 0.4552594 0.5007757 -0.01486425
v 0.4552594 0.5007757 0.4435484
v 0.4552594 0.6347792 0.06421295
v 0.4552594 0.6347792 0.3644712
vt 0.6450535 0.277434
vt 0.6267924 0.2128738
vt 0.6194144 0.2682909
vt 0.6734472 0.2202207
vt 0.6738076 0.1331179
vt 0.6268427 0.1395028
vt 0.6470981 0.07500461
vt 0.6207397 0.08394252
vt 0.7020068 0.3246737
vt 0.6734472 0.2202207
vt 0.6450535 0.277434
vt 0.7473332 0.2435339
vt 0.7868762 0.2505243
vt 0.7623682 0.3480212
vt 0.7869877 0.1066884
vt 0.7479762 0.1117899
vt 0.6738076 0.1331179
vt 0.706442 0.02871831
vt 0.770771 0.007417013
vt 0.6470981 0.07500461
vt 0.4753864 0.2668243
vt 0.5205734 0.2122803
vt 0.4753345 0.2118759
vt 0.5182936 0.2673747
vt 0.5655479 0.2744951
vt 0.5688757 0.2147983
vt 0.5942703 0.2742366
vt 0.5979832 0.214441
vt 0.6267924 0.2128738
vt 0.5942703 0.2742366
vt 0.6194144 0.2682909
vt 0.5979832 0.214441
vt 0.5979702 0.1372399
vt 0.6268427 0.1395028
vt 0.5951732 0.07770806
vt 0.6207397 0.08394252
vt 0.9334364 0.3577166
vt 0.8899254 0.2545232
vt 0.8849028 0.3564659
vt 0.9344932 0.2554901
vt 0.8131993 0.2497667
vt 0.7623682 0.3480212
vt 0.8018282 0.3463642
vt 0.7868762 0.2505243
vt 0.7869877 0.1066884
vt 0.8130996 0.1090698
vt 0.770771 0.007417013
vt 0.8118825 0.01139431
vt 0.8425245 0.2510917
vt 0.8018282 0.3463642
vt 0.8315656 0.3481733
vt 0.8131993 0.2497667
vt 0.8849028 0.3564659
vt 0.8425245 0.2510917
vt 0.8315656 0.3481733
vt 0.8899254 0.2545232
vt 0.8901223 0.1089884
vt 0.934901 0.1088021
vt 0.9344932 0.2554901
vt 0.9346573 0.006427233
vt 0.8899402 0.007118581
vt 0.8424335 0.1097228
vt 0.8415518 0.01223038
vt 0.8118825 0.01139431
vt 0.8130996 0.1090698
vt 0.8131993 0.2497667
vt 0.662116 0.5484381
vt 0.6626811 0.5478608
vt 0.662116 0.5478608
vt 0.6624121 0.5484381
vt 0.6626792 0.5487055
vt 0.6632567 0.5484364
vt 0.6626792 0.5490015
vt 0.6632567 0.5490015
vt 0.5979702 0.1372399
vt 0.5688757 0.2147983
vt 0.5979832 0.214441
vt 0.5688824 0.1377138
vt 0.5951732 0.07770806
vt 0.5205734 0.2122803
vt 0.565824 0.07757403
vt 0.5206158 0.1400542
vt 0.4753345 0.2118759
vt 0.5175129 0.08496629
vt 0.4752879 0.1408336
vt 0.4750689 0.08599326
vt 0.5350076 0.2785141
vt 0.5516647 0.3256667
vt 0.5516647 0.2883436
vt 0.5350076 0.3354964
vt 0.5246804 0.3248861
vt 0.5246804 0.2891244
vt 0.5099015 0.323976
vt 0.5099015 0.2900347
vt 0.4893124 0.336952
vt 0.4893124 0.2770583
vt 0.4727594 0.3351935
vt 0.4727594 0.278817
vt 0.8878313 0.7439442
vt 0.9043841 0.8020791
vt 0.9043841 0.7457031
vt 0.8878313 0.803838
vt 0.8672422 0.7908618
vt 0.8672422 0.7569205
vt 0.8524632 0.791772
vt 0.8524632 0.7560102
vt 0.8421361 0.8023823
vt 0.8421361 0.7454
vt 0.825479 0.7925525
vt 0.825479 0.7552296
vn 0 0.8683954 -0.4958724
vn 0.3628439 -0.1819992 -0.9139041
vn 2.450313E-07 -0.132505 -0.9911823
vn 0.1451319 0.9270833 -0.3456203
vn 0.3456205 0.9270831 -0.1451319
vn 0.913904 -0.1819997 -0.3628437
vn 0.4958727 0.8683953 0
vn 0.9911821 -0.1325063 0
vn 0 0.8683953 0.4958726
vn 0.1451319 0.9270833 -0.3456203
vn 0 0.8683954 -0.4958724
vn -0.2099697 0.8295575 0.5174426
vn -0.3843195 -0.133403 0.9135109
vn -0.005533456 -0.1357239 0.9907313
vn -0.913511 -0.1334032 0.3843193
vn -0.5174422 0.8295579 0.2099697
vn 0.3456205 0.9270831 -0.1451319
vn -0.4958725 0.8683954 -2.984676E-07
vn -0.9907313 -0.1357238 0.005533334
vn 0.4958727 0.8683953 0
vn 1.116511E-07 -0.7435234 -0.6687099
vn 0.3634559 0.2695569 -0.8917617
vn 0.211153 -0.8350387 -0.5080599
vn 2.466174E-07 0.2262788 -0.9740625
vn -0.004183248 0.2491611 -0.9684531
vn 0.3727011 0.2426754 -0.8956576
vn -0.004232268 -0.4181107 -0.9083862
vn 0.3436699 -0.4350234 -0.8322535
vn 0.3628439 -0.1819992 -0.9139041
vn -0.004232268 -0.4181107 -0.9083862
vn 2.450313E-07 -0.132505 -0.9911823
vn 0.3436699 -0.4350234 -0.8322535
vn 0.832253 -0.4350239 -0.3436701
vn 0.913904 -0.1819997 -0.3628437
vn 0.9083861 -0.418111 0.004232147
vn 0.9911821 -0.1325063 0
vn 0 -0.7435234 0.6687099
vn -0.3751451 0.2282804 0.8984177
vn -0.001469744 0.227406 0.9737989
vn -0.2819923 -0.673501 0.6832838
vn -0.3250898 -0.5119817 0.7951046
vn -0.005533456 -0.1357239 0.9907313
vn -0.006964428 -0.4150338 0.9097794
vn -0.3843195 -0.133403 0.9135109
vn -0.913511 -0.1334032 0.3843193
vn -0.7951044 -0.5119818 0.3250901
vn -0.9907313 -0.1357238 0.005533334
vn -0.9097794 -0.4150337 0.006964792
vn -0.3631283 0.2845534 0.8872244
vn -0.006964428 -0.4150338 0.9097794
vn -0.003988013 0.2477446 0.9688172
vn -0.3250898 -0.5119817 0.7951046
vn -0.001469744 0.227406 0.9737989
vn -0.3631283 0.2845534 0.8872244
vn -0.003988013 0.2477446 0.9688172
vn -0.3751451 0.2282804 0.8984177
vn -0.8984175 0.2282803 0.3751454
vn -0.6832838 -0.673501 0.2819924
vn -0.2819923 -0.673501 0.6832838
vn -0.6687108 -0.7435225 0
vn -0.9737988 0.2274066 0.001469744
vn -0.8872244 0.2845537 0.3631282
vn -0.9688174 0.2477437 0.003988014
vn -0.9097794 -0.4150337 0.006964792
vn -0.7951044 -0.5119818 0.3250901
vn -0.3250898 -0.5119817 0.7951046
vn 1.116511E-07 -0.7435234 -0.6687099
vn -0.2819923 -0.673501 0.6832838
vn 0 -0.7435234 0.6687099
vn 0.211153 -0.8350387 -0.5080599
vn 0.50806 -0.8350386 -0.211153
vn -0.6832838 -0.673501 0.2819924
vn 0.6687101 -0.7435234 0
vn -0.6687108 -0.7435225 0
vn 0.832253 -0.4350239 -0.3436701
vn 0.3727011 0.2426754 -0.8956576
vn 0.3436699 -0.4350234 -0.8322535
vn 0.8956575 0.2426754 -0.3727012
vn 0.9083861 -0.418111 0.004232147
vn 0.3634559 0.2695569 -0.8917617
vn 0.9684528 0.2491622 0.00418341
vn 0.8917618 0.2695571 -0.3634556
vn 0.211153 -0.8350387 -0.5080599
vn 0.9740625 0.2262791 0
vn 0.50806 -0.8350386 -0.211153
vn 0.6687101 -0.7435234 0
vn 0 0 -1
vn 0 0 -1
vn 0 0 -1
vn 0 0 -1
vn 0 0 -1
vn -2.39481E-07 -5.647501E-07 -1
vn -5.641456E-07 -5.098271E-07 -1
vn -4.554262E-07 -2.838599E-07 -1
vn -2.016144E-07 1.03967E-07 -1
vn 0 2.797397E-07 -1
vn 0 0 -1
vn -1.682199E-07 -5.907913E-07 -1
vn 1 0 0
vn 1 0 0
vn 1 0 0
vn 1 0 0
vn 1 0 0
vn 1 0 0
vn 1 0 0
vn 1 0 0
vn 1 0 0
vn 1 0 0
vn 1 0 0
vn 1 0 0
g Fountain_Border_Corner_Out_COL_0
f 3/3/3 2/2/2 1/1/1
f 4/4/4 1/1/1 2/2/2
f 4/4/4 2/2/2 5/5/5
f 6/6/6 5/5/5 2/2/2
f 5/5/5 6/6/6 7/7/7
f 8/8/8 7/7/7 6/6/6
f 11/11/11 10/10/10 9/9/9
f 12/12/12 9/9/9 10/10/10
f 12/12/12 13/13/13 9/9/9
f 14/14/14 9/9/9 13/13/13
f 13/13/13 12/12/12 15/15/15
f 12/12/12 10/10/10 16/16/16
f 16/16/16 15/15/15 12/12/12
f 17/17/17 16/16/16 10/10/10
f 16/16/16 18/18/18 15/15/15
f 16/16/16 17/17/17 18/18/18
f 19/19/19 15/15/15 18/18/18
f 20/20/20 18/18/18 17/17/17
f 23/23/23 22/22/22 21/21/21
f 24/24/24 21/21/21 22/22/22
f 24/24/24 22/22/22 25/25/25
f 26/26/26 25/25/25 22/22/22
f 25/25/25 26/26/26 27/27/27
f 28/28/28 27/27/27 26/26/26
f 31/31/31 30/30/30 29/29/29
f 32/32/32 29/29/29 30/30/30
f 32/32/32 33/33/33 29/29/29
f 34/34/34 29/29/29 33/33/33
f 33/33/33 35/35/35 34/34/34
f 36/36/36 34/34/34 35/35/35
f 39/39/39 38/38/38 37/37/37
f 40/40/40 37/37/37 38/38/38
f 43/43/43 42/42/42 41/41/41
f 44/44/44 41/41/41 42/42/42
f 44/44/44 45/45/45 41/41/41
f 46/46/46 41/41/41 45/45/45
f 45/45/45 47/47/47 46/46/46
f 48/48/48 46/46/46 47/47/47
f 51/51/51 50/50/50 49/49/49
f 52/52/52 49/49/49 50/50/50
f 55/55/55 54/54/54 53/53/53
f 56/56/56 53/53/53 54/54/54
f 56/56/56 54/54/54 57/57/57
f 57/57/57 58/58/58 56/56/56
f 59/59/59 56/56/56 58/58/58
f 58/58/58 57/57/57 60/60/60
f 61/61/61 60/60/60 57/57/57
f 57/57/57 62/62/62 61/61/61
f 62/62/62 57/57/57 54/54/54
f 63/63/63 61/61/61 62/62/62
f 63/63/63 62/62/62 64/64/64
f 65/65/65 64/64/64 62/62/62
f 62/62/62 54/54/54 65/65/65
f 66/66/66 65/65/65 54/54/54
f 69/69/69 68/68/68 67/67/67
f 70/70/70 67/67/67 68/68/68
f 70/70/70 68/68/68 71/71/71
f 72/72/72 71/71/71 68/68/68
f 71/71/71 72/72/72 73/73/73
f 74/74/74 73/73/73 72/72/72
f 77/77/77 76/76/76 75/75/75
f 78/78/78 75/75/75 76/76/76
f 75/75/75 78/78/78 79/79/79
f 76/76/76 80/80/80 78/78/78
f 81/81/81 79/79/79 78/78/78
f 82/82/82 78/78/78 80/80/80
f 78/78/78 82/82/82 81/81/81
f 80/80/80 83/83/83 82/82/82
f 84/84/84 81/81/81 82/82/82
f 85/85/85 82/82/82 83/83/83
f 84/84/84 82/82/82 86/86/86
f 85/85/85 86/86/86 82/82/82
f 89/89/89 88/88/88 87/87/87
f 90/90/90 87/87/87 88/88/88
f 90/90/90 91/91/91 87/87/87
f 92/92/92 87/87/87 91/91/91
f 91/91/91 93/93/93 92/92/92
f 94/94/94 92/92/92 93/93/93
f 93/93/93 95/95/95 94/94/94
f 96/96/96 94/94/94 95/95/95
f 95/95/95 97/97/97 96/96/96
f 98/98/98 96/96/96 97/97/97
f 101/101/101 100/100/100 99/99/99
f 102/102/102 99/99/99 100/100/100
f 102/102/102 103/103/103 99/99/99
f 104/104/104 99/99/99 103/103/103
f 103/103/103 105/105/105 104/104/104
f 106/106/106 104/104/104 105/105/105
f 105/105/105 107/107/107 106/106/106
f 108/108/108 106/106/106 107/107/107
f 107/107/107 109/109/109 108/108/108
f 110/110/110 108/108/108 109/109/109
