g FX_Cylinder_02
v 0.03218508 -0.06683303 0
v 0.03218508 -0.06683303 0.1824881
v 0.05799551 -0.0462499 0.1824881
v 0.05799552 -0.0462499 0
v 0.05799552 -0.0462499 0
v 0.05799551 -0.0462499 0.1824881
v 0.07231925 -0.0165064 0.1824881
v 0.07231925 -0.01650641 0
v 0.07231925 -0.01650641 0
v 0.07231925 -0.0165064 0.1824881
v 0.07231925 0.01650639 0.1824881
v 0.07231924 0.01650639 0
v 0.07231924 0.01650639 0
v 0.07231925 0.01650639 0.1824881
v 0.05799554 0.04624989 0.1824881
v 0.05799554 0.04624989 0
v 0.05799554 0.04624989 0
v 0.05799554 0.04624989 0.1824881
v 0.03218511 0.06683303 0.1824881
v 0.0321851 0.06683303 0
v 0.0321851 0.06683303 0
v 0.03218511 0.06683303 0.1824881
v 2.384186E-08 0.07417907 0.1824881
v 1.430511E-08 0.07417907 0
v 1.430511E-08 0.07417907 0
v 2.384186E-08 0.07417907 0.1824881
v -0.03218508 0.06683303 0.1824881
v -0.03218508 0.06683304 0
v -0.03218508 0.06683304 0
v -0.03218508 0.06683303 0.1824881
v -0.05799553 0.0462499 0.1824881
v -0.05799552 0.0462499 0
v -0.05799552 0.0462499 0
v -0.05799553 0.0462499 0.1824881
v -0.07231925 0.0165064 0.1824881
v -0.07231925 0.01650641 0
v -0.07231925 0.01650641 0
v -0.07231925 0.0165064 0.1824881
v -0.07231924 -0.01650639 0.1824881
v -0.07231925 -0.01650639 0
v -0.07231925 -0.01650639 0
v -0.07231924 -0.01650639 0.1824881
v -0.05799553 -0.04624989 0.1824881
v -0.05799554 -0.04624989 0
v -0.05799554 -0.04624989 0
v -0.05799553 -0.04624989 0.1824881
v -0.0321851 -0.06683303 0.1824881
v -0.03218509 -0.06683303 0
v -0.03218509 -0.06683303 0
v -0.0321851 -0.06683303 0.1824881
v -4.768371E-09 -0.07417908 0.1824881
v 0 -0.07417907 0
v 0 -0.07417907 0
v -4.768371E-09 -0.07417908 0.1824881
v 0.03218508 -0.06683303 0.1824881
v 0.03218508 -0.06683303 0
vt 0.7225208 0
vt 0.7225208 1
vt 0.9009688 1
vt 0.9009688 0
vt 0.9009688 0
vt 0.9009688 1
vt 1 1
vt 1 0
vt 1 0
vt 1 1
vt 1 1
vt 1 0
vt 1 0
vt 1 1
vt 0.9009689 1
vt 0.9009689 0
vt 0.9009689 0
vt 0.9009689 1
vt 0.7225211 1
vt 0.7225211 0
vt 0.7225211 0
vt 0.7225211 1
vt 0.5000001 1
vt 0.5000001 0
vt 0.5000001 0
vt 0.5000001 1
vt 0.2774792 1
vt 0.2774792 0
vt 0.2774792 0
vt 0.2774792 1
vt 0.09903121 1
vt 0.09903121 0
vt 0.09903121 0
vt 0.09903121 1
vt 0 1
vt 0 0
vt 0 0
vt 0 1
vt 0 1
vt 0 0
vt 0 0
vt 0 1
vt 0.09903109 1
vt 0.09903109 0
vt 0.09903109 0
vt 0.09903109 1
vt 0.2774791 1
vt 0.2774791 0
vt 0.2774791 0
vt 0.2774791 1
vt 0.5 1
vt 0.5 0
vt 0.5 0
vt 0.5 1
vt 0.7225208 1
vt 0.7225208 0
vn 0.6234897 -0.7818315 0
vn 0.6234897 -0.7818315 0
vn 0.6234897 -0.7818315 0
vn 0.6234897 -0.7818315 0
vn 0.9009687 -0.4338842 0
vn 0.9009687 -0.4338842 0
vn 0.9009687 -0.4338842 0
vn 0.9009687 -0.4338842 0
vn 1 0 0
vn 1 0 0
vn 1 0 0
vn 1 0 0
vn 0.900969 0.4338835 0
vn 0.900969 0.4338835 0
vn 0.900969 0.4338835 0
vn 0.900969 0.4338835 0
vn 0.6234901 0.7818313 0
vn 0.6234901 0.7818313 0
vn 0.6234901 0.7818313 0
vn 0.6234902 0.7818312 0
vn 0.222521 0.9749279 0
vn 0.222521 0.9749279 0
vn 0.222521 0.9749279 0
vn 0.222521 0.9749279 0
vn -0.2225206 0.974928 0
vn -0.2225206 0.974928 0
vn -0.2225206 0.974928 0
vn -0.2225206 0.974928 0
vn -0.6234897 0.7818317 0
vn -0.6234897 0.7818316 0
vn -0.6234897 0.7818317 0
vn -0.6234897 0.7818316 0
vn -0.9009688 0.4338839 0
vn -0.9009688 0.4338839 0
vn -0.9009688 0.4338839 0
vn -0.9009688 0.4338839 0
vn -1 0 0
vn -1 0 0
vn -1 0 0
vn -1 0 0
vn -0.900969 -0.4338835 0
vn -0.900969 -0.4338835 0
vn -0.900969 -0.4338835 0
vn -0.900969 -0.4338835 0
vn -0.62349 -0.7818314 0
vn -0.62349 -0.7818314 0
vn -0.62349 -0.7818314 0
vn -0.62349 -0.7818314 0
vn -0.2225209 -0.9749279 0
vn -0.2225209 -0.9749279 0
vn -0.2225209 -0.9749279 0
vn -0.2225209 -0.9749279 0
vn 0.222521 -0.9749279 0
vn 0.222521 -0.9749279 0
vn 0.222521 -0.9749279 0
vn 0.222521 -0.9749279 0
g FX_Cylinder_02_0
f 3/3/3 2/2/2 1/1/1
f 4/4/4 3/3/3 1/1/1
f 7/7/7 6/6/6 5/5/5
f 8/8/8 7/7/7 5/5/5
f 11/11/11 10/10/10 9/9/9
f 12/12/12 11/11/11 9/9/9
f 15/15/15 14/14/14 13/13/13
f 16/16/16 15/15/15 13/13/13
f 19/19/19 18/18/18 17/17/17
f 20/20/20 19/19/19 17/17/17
f 23/23/23 22/22/22 21/21/21
f 24/24/24 23/23/23 21/21/21
f 27/27/27 26/26/26 25/25/25
f 28/28/28 27/27/27 25/25/25
f 31/31/31 30/30/30 29/29/29
f 32/32/32 31/31/31 29/29/29
f 35/35/35 34/34/34 33/33/33
f 36/36/36 35/35/35 33/33/33
f 39/39/39 38/38/38 37/37/37
f 40/40/40 39/39/39 37/37/37
f 43/43/43 42/42/42 41/41/41
f 44/44/44 43/43/43 41/41/41
f 47/47/47 46/46/46 45/45/45
f 48/48/48 47/47/47 45/45/45
f 51/51/51 50/50/50 49/49/49
f 52/52/52 51/51/51 49/49/49
f 55/55/55 54/54/54 53/53/53
f 56/56/56 55/55/55 53/53/53
