g Garden_Wall_Sign
v 0.2397885 0.2011397 -0.005449829
v -0.2397885 0.2011397 0.005450439
v -0.2397885 0.2011397 -0.005449829
v 0.2397885 0.2011397 0.005450439
v -0.2397885 0.2011397 -0.005449829
v -0.2397885 -0.2011398 0.005450439
v -0.2397885 -0.2011398 -0.005449829
v -0.2397885 0.2011397 0.005450439
v 0.2397885 0.2011397 0.005450439
v -0.2397885 -0.2011398 0.005450439
v -0.2397885 0.2011397 0.005450439
v 0.2397885 -0.2011398 0.005450439
v 0.2397885 -0.2011398 0.005450439
v -0.2397885 -0.2011398 -0.005449829
v -0.2397885 -0.2011398 0.005450439
v 0.2397885 -0.2011398 -0.005449829
v 0.2397885 -0.2011398 -0.005449829
v -0.2397885 0.2011397 -0.005449829
v -0.2397885 -0.2011398 -0.005449829
v 0.2397885 0.2011397 -0.005449829
v 0.2397885 -0.2011398 -0.005449829
v 0.2397885 0.2011397 0.005450439
v 0.2397885 0.2011397 -0.005449829
v 0.2397885 -0.2011398 0.005450439
vt 0.1139122 0.7016006
vt 0.1115582 0.8051699
vt 0.1139122 0.8051699
vt 0.1115582 0.7016006
vt 0.1140936 0.8122989
vt 0.1117399 0.8991751
vt 0.1140937 0.8991751
vt 0.1117399 0.8122989
vt 0.3329346 0.4682731
vt 0.4365039 0.5551493
vt 0.4365039 0.4682731
vt 0.3329346 0.5551493
vt 0.1139978 0.5927988
vt 0.1116439 0.6963681
vt 0.1139979 0.6963681
vt 0.1116438 0.5927988
vt 0.5312544 0.01499439
vt 0.5286546 0.01281369
vt 0.5286546 0.01499439
vt 0.5312544 0.01281369
vt 0.112164 0.586363
vt 0.114518 0.4994867
vt 0.112164 0.4994867
vt 0.114518 0.586363
vn 0 1 0
vn 0 1 0
vn 0 1 0
vn 0 1 0
vn -1 0 0
vn -1 0 0
vn -1 0 0
vn -1 0 0
vn 0 0 1
vn 0 0 1
vn 0 0 1
vn 0 0 1
vn 0 -1 0
vn 0 -1 0
vn 0 -1 0
vn 0 -1 0
vn 0 0 -1
vn 0 0 -1
vn 0 0 -1
vn 0 0 -1
vn 1 0 0
vn 1 0 0
vn 1 0 0
vn 1 0 0
g Garden_Wall_Sign_0
f 3/3/3 2/2/2 1/1/1
f 4/4/4 1/1/1 2/2/2
f 7/7/7 6/6/6 5/5/5
f 8/8/8 5/5/5 6/6/6
f 11/11/11 10/10/10 9/9/9
f 12/12/12 9/9/9 10/10/10
f 15/15/15 14/14/14 13/13/13
f 16/16/16 13/13/13 14/14/14
f 19/19/19 18/18/18 17/17/17
f 20/20/20 17/17/17 18/18/18
f 23/23/23 22/22/22 21/21/21
f 24/24/24 21/21/21 22/22/22
