g Garden_Gate_Flap_Rail_R
v -0.06027969 0.02209987 -0.1061765
v -0.2812108 -1.206693E-07 -0.1220386
v -0.06027969 -1.206693E-07 -0.1061765
v -0.2812108 0.02209987 -0.1220386
v -0.499919 -1.206693E-07 -0.1570959
v -0.499919 0.02209987 -0.1570959
v -0.7147392 -1.206693E-07 -0.2110812
v -0.7147392 0.02209987 -0.2110812
v -0.9240373 -1.206693E-07 -0.2835843
v -0.9240373 0.02209987 -0.2835843
v -1.126219 -1.206693E-07 -0.3740527
v -1.126219 0.02209987 -0.3740527
v -1.319748 -1.206693E-07 -0.4817984
v -1.319748 0.02209987 -0.4817984
v -1.503149 -1.206693E-07 -0.606001
v -1.503149 0.02209987 -0.606001
v -1.675027 -1.206693E-07 -0.7457156
v -1.675027 0.02209987 -0.7457156
v -1.834074 -1.206693E-07 -0.8998785
v -1.834074 0.02209987 -0.8998785
v -1.97908 -1.206693E-07 -1.067317
v -1.97908 0.02209987 -1.067317
v -2.10894 -1.206693E-07 -1.246756
v -2.10894 0.02209987 -1.246756
v -2.222668 -1.206693E-07 -1.436831
v -2.222668 0.02209987 -1.436831
v -2.319396 -1.206693E-07 -1.636094
v -2.319396 0.02209987 -1.636094
v -2.39839 -1.206693E-07 -1.843029
v -2.39839 0.02209987 -1.843029
v -2.459047 -1.206693E-07 -2.056062
v -2.459047 0.02209987 -2.056062
v -2.500907 -1.206693E-07 -2.273571
v -2.500907 0.02209987 -2.273571
v -2.52365 -1.206693E-07 -2.4939
v -2.52365 0.02209987 -2.4939
v -2.527103 -1.206693E-07 -2.715373
v -2.527103 0.02209987 -2.715373
v -0.06264892 -1.206693E-07 -0.02170532
v -0.2909331 0.02209987 -0.0380954
v -0.06264892 0.02209987 -0.02170532
v -0.2909331 -1.206693E-07 -0.0380954
v -0.5169206 0.02209987 -0.07431946
v -0.5169206 -1.206693E-07 -0.07431946
v -0.7388905 0.02209987 -0.1301016
v -0.7388905 -1.206693E-07 -0.1301016
v -0.9551542 0.02209987 -0.2050177
v -0.9551542 -1.206693E-07 -0.2050177
v -1.164066 0.02209995 -0.298497
v -1.164066 -1.206693E-07 -0.298497
v -1.364035 0.02209995 -0.4098288
v -1.364035 -1.206693E-07 -0.4098288
v -1.55354 0.02209995 -0.5381653
v -1.55354 -1.206693E-07 -0.5381653
v -1.731139 0.02209995 -0.6825299
v -1.731139 -1.206693E-07 -0.6825299
v -1.89548 0.02209995 -0.8418237
v -1.89548 -1.206693E-07 -0.8418237
v -2.045311 0.02209987 -1.014835
v -2.045311 -1.206693E-07 -1.014835
v -2.179494 0.02209987 -1.200246
v -2.179494 -1.206693E-07 -1.200246
v -2.297007 0.02209987 -1.396647
v -2.297007 -1.206693E-07 -1.396647
v -2.396955 0.02209987 -1.602542
v -2.396955 -1.206693E-07 -1.602542
v -2.478577 0.02209987 -1.816365
v -2.478577 -1.206693E-07 -1.816365
v -2.541254 0.02209987 -2.036488
v -2.541254 -1.206693E-07 -2.036488
v -2.584506 0.02209987 -2.261236
v -2.584506 -1.206693E-07 -2.261236
v -2.608006 0.02209987 -2.488898
v -2.608006 -1.206693E-07 -2.488898
v -2.611575 0.02209987 -2.717742
v -2.611575 -1.206693E-07 -2.717742
v -0.06027969 -1.206693E-07 -0.1061765
v -0.2909331 -1.206693E-07 -0.0380954
v -0.06264892 -1.206693E-07 -0.02170532
v -0.2812108 -1.206693E-07 -0.1220386
v -0.499919 -1.206693E-07 -0.1570959
v -0.5169206 -1.206693E-07 -0.07431946
v -0.7147392 -1.206693E-07 -0.2110812
v -0.7388905 -1.206693E-07 -0.1301016
v -0.9240373 -1.206693E-07 -0.2835843
v -0.9551542 -1.206693E-07 -0.2050177
v -1.126219 -1.206693E-07 -0.3740527
v -1.164066 -1.206693E-07 -0.298497
v -1.319748 -1.206693E-07 -0.4817984
v -1.364035 -1.206693E-07 -0.4098288
v -1.503149 -1.206693E-07 -0.606001
v -1.55354 -1.206693E-07 -0.5381653
v -1.675027 -1.206693E-07 -0.7457156
v -1.731139 -1.206693E-07 -0.6825299
v -1.834074 -1.206693E-07 -0.8998785
v -1.89548 -1.206693E-07 -0.8418237
v -1.97908 -1.206693E-07 -1.067317
v -2.045311 -1.206693E-07 -1.014835
v -2.10894 -1.206693E-07 -1.246756
v -2.179494 -1.206693E-07 -1.200246
v -2.222668 -1.206693E-07 -1.436831
v -2.297007 -1.206693E-07 -1.396647
v -2.319396 -1.206693E-07 -1.636094
v -2.396955 -1.206693E-07 -1.602542
v -2.39839 -1.206693E-07 -1.843029
v -2.478577 -1.206693E-07 -1.816365
v -2.459047 -1.206693E-07 -2.056062
v -2.541254 -1.206693E-07 -2.036488
v -2.500907 -1.206693E-07 -2.273571
v -2.584506 -1.206693E-07 -2.261236
v -2.52365 -1.206693E-07 -2.4939
v -2.608006 -1.206693E-07 -2.488898
v -2.611575 -1.206693E-07 -2.717742
v -2.527103 -1.206693E-07 -2.715373
v -0.06264892 0.02209987 -0.02170532
v -0.06027969 -1.206693E-07 -0.1061765
v -0.06264892 -1.206693E-07 -0.02170532
v -0.06027969 0.02209987 -0.1061765
v -0.2909331 0.02209987 -0.0380954
v -0.06027969 0.02209987 -0.1061765
v -0.06264892 0.02209987 -0.02170532
v -0.2812108 0.02209987 -0.1220386
v -0.499919 0.02209987 -0.1570959
v -0.5169206 0.02209987 -0.07431946
v -0.7147392 0.02209987 -0.2110812
v -0.7388905 0.02209987 -0.1301016
v -0.9240373 0.02209987 -0.2835843
v -0.9551542 0.02209987 -0.2050177
v -1.126219 0.02209987 -0.3740527
v -1.164066 0.02209995 -0.298497
v -1.319748 0.02209987 -0.4817984
v -1.364035 0.02209995 -0.4098288
v -1.503149 0.02209987 -0.606001
v -1.55354 0.02209995 -0.5381653
v -1.675027 0.02209987 -0.7457156
v -1.731139 0.02209995 -0.6825299
v -1.834074 0.02209987 -0.8998785
v -1.89548 0.02209995 -0.8418237
v -1.97908 0.02209987 -1.067317
v -2.045311 0.02209987 -1.014835
v -2.10894 0.02209987 -1.246756
v -2.179494 0.02209987 -1.200246
v -2.222668 0.02209987 -1.436831
v -2.297007 0.02209987 -1.396647
v -2.319396 0.02209987 -1.636094
v -2.396955 0.02209987 -1.602542
v -2.39839 0.02209987 -1.843029
v -2.478577 0.02209987 -1.816365
v -2.459047 0.02209987 -2.056062
v -2.541254 0.02209987 -2.036488
v -2.500907 0.02209987 -2.273571
v -2.584506 0.02209987 -2.261236
v -2.52365 0.02209987 -2.4939
v -2.608006 0.02209987 -2.488898
v -2.611575 0.02209987 -2.717742
v -2.527103 0.02209987 -2.715373
v -2.527103 -1.206693E-07 -2.715373
v -2.611575 0.02209987 -2.717742
v -2.611575 -1.206693E-07 -2.717742
v -2.527103 0.02209987 -2.715373
vt 0.03870452 0.9974701
vt 0.03439064 0.954331
vt 0.03439064 0.9974701
vt 0.03870452 0.954331
vt 0.03439064 0.9111919
vt 0.03870452 0.9111919
vt 0.03439064 0.8689156
vt 0.03870452 0.8689156
vt 0.03439064 0.8257763
vt 0.03870452 0.8257763
vt 0.03439064 0.7826372
vt 0.03870452 0.7826372
vt 0.03439064 0.7394979
vt 0.03870452 0.7394979
vt 0.03439064 0.6963589
vt 0.03870452 0.6963589
vt 0.03439064 0.6540824
vt 0.03870452 0.6540824
vt 0.03439064 0.6109432
vt 0.03870452 0.6109432
vt 0.03439064 0.5678041
vt 0.03870452 0.5678041
vt 0.03439064 0.5246649
vt 0.03870452 0.5246649
vt 0.03439064 0.4823885
vt 0.03870452 0.4823885
vt 0.03439064 0.4392494
vt 0.03870452 0.4392494
vt 0.03439064 0.3961101
vt 0.03870452 0.3961101
vt 0.03439064 0.352971
vt 0.03870452 0.352971
vt 0.03439064 0.3098318
vt 0.03870452 0.3098318
vt 0.03439064 0.2675554
vt 0.03870452 0.2675554
vt 0.03439064 0.2244162
vt 0.03870452 0.2244162
vt 0.02576275 0.1985327
vt 0.03007664 0.2433975
vt 0.03007664 0.1985327
vt 0.02576275 0.2433975
vt 0.03007664 0.2873994
vt 0.02576275 0.2873994
vt 0.03007664 0.3322641
vt 0.02576275 0.3322641
vt 0.03007664 0.3762662
vt 0.02576275 0.3762662
vt 0.03007664 0.4211309
vt 0.02576275 0.4211309
vt 0.03007664 0.4651328
vt 0.02576275 0.4651328
vt 0.03007664 0.5091348
vt 0.02576275 0.5091348
vt 0.03007664 0.5539995
vt 0.02576275 0.5539995
vt 0.03007664 0.5980014
vt 0.02576275 0.5980014
vt 0.03007664 0.6428663
vt 0.02576275 0.6428663
vt 0.03007664 0.6868682
vt 0.02576275 0.6868682
vt 0.03007664 0.7317329
vt 0.02576275 0.7317329
vt 0.03007664 0.7757349
vt 0.02576275 0.7757349
vt 0.03007664 0.8205997
vt 0.02576275 0.8205997
vt 0.03007664 0.8646017
vt 0.02576275 0.8646017
vt 0.03007664 0.9086035
vt 0.02576275 0.9086035
vt 0.03007664 0.9534684
vt 0.02576275 0.9534684
vt 0.03007664 0.9974701
vt 0.02576275 0.9974701
vt 0.492766 0.02131318
vt 0.4931448 0.02051203
vt 0.4925476 0.02109469
vt 0.4933487 0.02074509
vt 0.493975 0.02023527
vt 0.4937857 0.01998764
vt 0.4946451 0.01978371
vt 0.4944849 0.01952152
vt 0.4953443 0.01939042
vt 0.4952132 0.01911366
vt 0.4960872 0.01905539
vt 0.4959707 0.01877863
vt 0.4968446 0.0187932
vt 0.4967572 0.01850187
vt 0.4976312 0.01858927
vt 0.497573 0.01829794
vt 0.4984323 0.01847274
vt 0.4983887 0.01816684
vt 0.4992335 0.01841447
vt 0.499219 0.01809401
vt 0.5000347 0.01841447
vt 0.5000638 0.01810858
vt 0.5008504 0.01850187
vt 0.5008941 0.01819598
vt 0.501637 0.0186621
vt 0.5017098 0.01835621
vt 0.502409 0.0188806
vt 0.502511 0.01858927
vt 0.5031664 0.01915736
vt 0.5032976 0.0188806
vt 0.5038948 0.01952152
vt 0.5040404 0.01924476
vt 0.504594 0.01992938
vt 0.5047542 0.01966718
vt 0.5052494 0.0203955
vt 0.5054388 0.02016244
vt 0.5060651 0.02070139
vt 0.5058612 0.02093446
vt 0.1137667 0.9232709
vt 0.1094528 0.9068781
vt 0.1094528 0.9232709
vt 0.1137667 0.9068781
vt 0.9312426 0.1506031
vt 0.9554004 0.191154
vt 0.9666167 0.1782123
vt 0.921752 0.1644078
vt 0.8863778 0.1402499
vt 0.8941428 0.1264452
vt 0.8484154 0.1195429
vt 0.8553176 0.1048758
vt 0.8087273 0.1022872
vt 0.8147668 0.08762001
vt 0.7681765 0.0884829
vt 0.7733532 0.07295279
vt 0.7267629 0.07726656
vt 0.730214 0.06173647
vt 0.6844864 0.07036424
vt 0.6862121 0.05397135
vt 0.6413472 0.0651878
vt 0.64221 0.04879491
vt 0.5982081 0.0643249
vt 0.5982081 0.04793202
vt 0.555069 0.06605057
vt 0.554206 0.04965769
vt 0.5127925 0.07122712
vt 0.5102042 0.05483424
vt 0.4705162 0.07985489
vt 0.4662022 0.06346202
vt 0.4291025 0.09107123
vt 0.4239258 0.0755409
vt 0.3885515 0.1057386
vt 0.3825122 0.09107123
vt 0.3488637 0.123857
vt 0.3419614 0.1091896
vt 0.3117639 0.1454265
vt 0.3031361 0.1307593
vt 0.2763897 0.1695844
vt 0.2668993 0.1566428
vt 0.2323881 0.1842516
vt 0.243604 0.1963308
vt 0.1094528 0.9439777
vt 0.1137667 0.9275848
vt 0.1094528 0.9275848
vt 0.1137667 0.9439777
vn 0.07161236 0 -0.9974325
vn 0.1150519 0 -0.9933595
vn 0.07161236 0 -0.9974325
vn 0.1150519 0 -0.9933595
vn 0.2011908 0 -0.9795521
vn 0.2011909 0 -0.9795521
vn 0.2857987 0 -0.9582897
vn 0.2857987 0 -0.9582897
vn 0.368232 0 -0.9297339
vn 0.368232 0 -0.9297339
vn 0.4478622 0 -0.8941027
vn 0.4478622 0 -0.8941026
vn 0.5240839 0 -0.8516666
vn 0.5240839 0 -0.8516666
vn 0.5963175 0 -0.8027487
vn 0.5963175 0 -0.8027486
vn 0.6640124 0 -0.7477216
vn 0.6640124 0 -0.7477216
vn 0.7266542 0 -0.6870034
vn 0.7266541 0 -0.6870034
vn 0.7837654 0 -0.621057
vn 0.7837653 0 -0.6210572
vn 0.8349114 0 -0.5503843
vn 0.8349115 0 -0.5503842
vn 0.8797038 0 -0.4755222
vn 0.8797038 0 -0.4755221
vn 0.9178005 0 -0.3970419
vn 0.9178005 0 -0.3970418
vn 0.9489124 0 -0.3155396
vn 0.9489124 0 -0.3155395
vn 0.9728025 0 -0.231636
vn 0.9728025 0 -0.231636
vn 0.9892892 0 -0.145969
vn 0.9892892 0 -0.1459689
vn 0.9982467 0 -0.05919018
vn 0.9982467 0 -0.05919018
vn 0.9998784 0 -0.01559083
vn 0.9998784 0 -0.01559083
vn -0.07161248 0 0.9974325
vn -0.1150517 0 0.9933595
vn -0.07161248 0 0.9974325
vn -0.1150517 0 0.9933595
vn -0.2011908 0 0.9795521
vn -0.2011908 0 0.9795521
vn -0.285799 0 0.9582896
vn -0.285799 0 0.9582896
vn -0.3682316 0 0.9297341
vn -0.3682316 0 0.9297341
vn -0.4478622 0 0.8941027
vn -0.4478622 0 0.8941026
vn -0.5240845 0 0.8516662
vn -0.5240846 0 0.8516662
vn -0.5963172 0 0.8027488
vn -0.5963173 0 0.8027488
vn -0.6640118 0 0.747722
vn -0.6640118 0 0.7477221
vn -0.7266542 0 0.6870034
vn -0.7266542 0 0.6870034
vn -0.7837657 0 0.6210566
vn -0.7837657 0 0.6210566
vn -0.8349112 0 0.5503848
vn -0.8349112 0 0.5503848
vn -0.8797031 0 0.4755234
vn -0.8797031 0 0.4755234
vn -0.9178007 0 0.3970414
vn -0.9178007 0 0.3970415
vn -0.9489126 0 0.3155392
vn -0.9489126 0 0.3155392
vn -0.9728026 0 0.2316356
vn -0.9728026 0 0.2316356
vn -0.9892892 0 0.1459692
vn -0.9892892 0 0.1459692
vn -0.9982467 0 0.05919086
vn -0.9982467 0 0.05919088
vn -0.9998785 0 0.01559001
vn -0.9998785 0 0.01559001
vn 0 -1 0
vn 0 -1 0
vn 0 -1 0
vn 0 -1 0
vn 0 -1 0
vn 0 -1 0
vn 0 -1 0
vn 0 -1 0
vn 0 -1 0
vn 0 -1 0
vn 0 -1 0
vn 0 -1 0
vn 0 -1 0
vn 0 -1 0
vn 0 -1 0
vn 0 -1 0
vn 0 -1 0
vn 0 -1 0
vn 0 -1 0
vn 0 -1 0
vn 0 -1 0
vn 0 -1 0
vn 0 -1 0
vn 0 -1 0
vn 0 -1 0
vn 0 -1 0
vn 0 -1 0
vn 0 -1 0
vn 0 -1 0
vn 0 -1 0
vn 0 -1 0
vn 0 -1 0
vn 0 -1 0
vn 0 -1 0
vn 0 -1 0
vn 0 -1 0
vn 0 -1 0
vn 0 -1 0
vn 0.9996069 0 0.02803681
vn 0.9996069 0 0.02803681
vn 0.9996069 0 0.02803681
vn 0.9996069 0 0.02803681
vn 0 1 0
vn 0 1 0
vn 0 1 0
vn 0 1 0
vn 0 1 0
vn 0 1 0
vn 0 1 0
vn 0 1 0
vn 0 1 0
vn 0 1 0
vn 4.79368E-07 1 -6.574779E-07
vn 5.535125E-07 1 -7.325127E-07
vn 4.731648E-07 1 -7.689193E-07
vn 4.73165E-07 1 -7.689197E-07
vn 5.383808E-07 1 -7.247552E-07
vn 5.383804E-07 1 -7.24755E-07
vn 5.994966E-07 1 -6.750731E-07
vn 5.994962E-07 1 -6.750728E-07
vn 6.560514E-07 1 -6.202534E-07
vn 5.514907E-07 1 -5.814883E-07
vn 0 1 -1.674276E-07
vn -1.036125E-07 1 -1.307577E-07
vn 0 1 0
vn 0 1 0
vn 0 1 0
vn 0 1 0
vn 0 1 0
vn 0 1 0
vn 0 1 0
vn 0 1 0
vn 0 1 0
vn 0 1 0
vn 0 1 0
vn 0 1 0
vn 0 1 0
vn 0 1 0
vn 0 1 0
vn 0 1 0
vn 0.02803671 0 -0.9996069
vn 0.02803671 0 -0.9996069
vn 0.02803671 0 -0.9996069
vn 0.02803671 0 -0.9996069
g Garden_Gate_Flap_Rail_R_0
f 3/3/3 2/2/2 1/1/1
f 4/4/4 1/1/1 2/2/2
f 2/2/2 5/5/5 4/4/4
f 6/6/6 4/4/4 5/5/5
f 5/5/5 7/7/7 6/6/6
f 8/8/8 6/6/6 7/7/7
f 7/7/7 9/9/9 8/8/8
f 10/10/10 8/8/8 9/9/9
f 9/9/9 11/11/11 10/10/10
f 12/12/12 10/10/10 11/11/11
f 11/11/11 13/13/13 12/12/12
f 14/14/14 12/12/12 13/13/13
f 13/13/13 15/15/15 14/14/14
f 16/16/16 14/14/14 15/15/15
f 15/15/15 17/17/17 16/16/16
f 18/18/18 16/16/16 17/17/17
f 17/17/17 19/19/19 18/18/18
f 20/20/20 18/18/18 19/19/19
f 19/19/19 21/21/21 20/20/20
f 22/22/22 20/20/20 21/21/21
f 21/21/21 23/23/23 22/22/22
f 24/24/24 22/22/22 23/23/23
f 23/23/23 25/25/25 24/24/24
f 26/26/26 24/24/24 25/25/25
f 25/25/25 27/27/27 26/26/26
f 28/28/28 26/26/26 27/27/27
f 27/27/27 29/29/29 28/28/28
f 30/30/30 28/28/28 29/29/29
f 29/29/29 31/31/31 30/30/30
f 32/32/32 30/30/30 31/31/31
f 31/31/31 33/33/33 32/32/32
f 34/34/34 32/32/32 33/33/33
f 33/33/33 35/35/35 34/34/34
f 36/36/36 34/34/34 35/35/35
f 35/35/35 37/37/37 36/36/36
f 38/38/38 36/36/36 37/37/37
f 41/41/41 40/40/40 39/39/39
f 42/42/42 39/39/39 40/40/40
f 40/40/40 43/43/43 42/42/42
f 44/44/44 42/42/42 43/43/43
f 43/43/43 45/45/45 44/44/44
f 46/46/46 44/44/44 45/45/45
f 45/45/45 47/47/47 46/46/46
f 48/48/48 46/46/46 47/47/47
f 47/47/47 49/49/49 48/48/48
f 50/50/50 48/48/48 49/49/49
f 49/49/49 51/51/51 50/50/50
f 52/52/52 50/50/50 51/51/51
f 51/51/51 53/53/53 52/52/52
f 54/54/54 52/52/52 53/53/53
f 53/53/53 55/55/55 54/54/54
f 56/56/56 54/54/54 55/55/55
f 55/55/55 57/57/57 56/56/56
f 58/58/58 56/56/56 57/57/57
f 57/57/57 59/59/59 58/58/58
f 60/60/60 58/58/58 59/59/59
f 59/59/59 61/61/61 60/60/60
f 62/62/62 60/60/60 61/61/61
f 61/61/61 63/63/63 62/62/62
f 64/64/64 62/62/62 63/63/63
f 63/63/63 65/65/65 64/64/64
f 66/66/66 64/64/64 65/65/65
f 65/65/65 67/67/67 66/66/66
f 68/68/68 66/66/66 67/67/67
f 67/67/67 69/69/69 68/68/68
f 70/70/70 68/68/68 69/69/69
f 69/69/69 71/71/71 70/70/70
f 72/72/72 70/70/70 71/71/71
f 71/71/71 73/73/73 72/72/72
f 74/74/74 72/72/72 73/73/73
f 73/73/73 75/75/75 74/74/74
f 76/76/76 74/74/74 75/75/75
f 79/79/79 78/78/78 77/77/77
f 80/80/80 77/77/77 78/78/78
f 80/80/80 78/78/78 81/81/81
f 82/82/82 81/81/81 78/78/78
f 81/81/81 82/82/82 83/83/83
f 84/84/84 83/83/83 82/82/82
f 83/83/83 84/84/84 85/85/85
f 86/86/86 85/85/85 84/84/84
f 85/85/85 86/86/86 87/87/87
f 88/88/88 87/87/87 86/86/86
f 87/87/87 88/88/88 89/89/89
f 90/90/90 89/89/89 88/88/88
f 89/89/89 90/90/90 91/91/91
f 92/92/92 91/91/91 90/90/90
f 91/91/91 92/92/92 93/93/93
f 94/94/94 93/93/93 92/92/92
f 93/93/93 94/94/94 95/95/95
f 96/96/96 95/95/95 94/94/94
f 95/95/95 96/96/96 97/97/97
f 98/98/98 97/97/97 96/96/96
f 97/97/97 98/98/98 99/99/99
f 100/100/100 99/99/99 98/98/98
f 99/99/99 100/100/100 101/101/101
f 102/102/102 101/101/101 100/100/100
f 101/101/101 102/102/102 103/103/103
f 104/104/104 103/103/103 102/102/102
f 103/103/103 104/104/104 105/105/105
f 106/106/106 105/105/105 104/104/104
f 105/105/105 106/106/106 107/107/107
f 108/108/108 107/107/107 106/106/106
f 107/107/107 108/108/108 109/109/109
f 110/110/110 109/109/109 108/108/108
f 109/109/109 110/110/110 111/111/111
f 112/112/112 111/111/111 110/110/110
f 112/112/112 113/113/113 111/111/111
f 114/114/114 111/111/111 113/113/113
f 117/117/117 116/116/116 115/115/115
f 118/118/118 115/115/115 116/116/116
f 121/121/121 120/120/120 119/119/119
f 122/122/122 119/119/119 120/120/120
f 122/122/122 123/123/123 119/119/119
f 124/124/124 119/119/119 123/123/123
f 123/123/123 125/125/125 124/124/124
f 126/126/126 124/124/124 125/125/125
f 125/125/125 127/127/127 126/126/126
f 128/128/128 126/126/126 127/127/127
f 127/127/127 129/129/129 128/128/128
f 130/130/130 128/128/128 129/129/129
f 129/129/129 131/131/131 130/130/130
f 132/132/132 130/130/130 131/131/131
f 131/131/131 133/133/133 132/132/132
f 134/134/134 132/132/132 133/133/133
f 133/133/133 135/135/135 134/134/134
f 136/136/136 134/134/134 135/135/135
f 135/135/135 137/137/137 136/136/136
f 138/138/138 136/136/136 137/137/137
f 137/137/137 139/139/139 138/138/138
f 140/140/140 138/138/138 139/139/139
f 139/139/139 141/141/141 140/140/140
f 142/142/142 140/140/140 141/141/141
f 141/141/141 143/143/143 142/142/142
f 144/144/144 142/142/142 143/143/143
f 143/143/143 145/145/145 144/144/144
f 146/146/146 144/144/144 145/145/145
f 145/145/145 147/147/147 146/146/146
f 148/148/148 146/146/146 147/147/147
f 147/147/147 149/149/149 148/148/148
f 150/150/150 148/148/148 149/149/149
f 149/149/149 151/151/151 150/150/150
f 152/152/152 150/150/150 151/151/151
f 151/151/151 153/153/153 152/152/152
f 154/154/154 152/152/152 153/153/153
f 154/154/154 153/153/153 155/155/155
f 156/156/156 155/155/155 153/153/153
f 159/159/159 158/158/158 157/157/157
f 160/160/160 157/157/157 158/158/158
