g Garden_Gate_Flap_Base_L
v 0.08978691 0.8388634 0.0587327
v 0.1406509 0.8388634 0.02936639
v 0.1191531 0.8388634 0.05086405
v 0.1485195 0.8388634 8.583068E-08
v 0.08978691 0.8388634 -0.05873252
v 0.0109716 0.8388634 -0.05888022
v 0.0109716 0.8388634 0.0588804
v 0.1191531 0.8388634 -0.05086387
v 0.1406509 0.8388634 -0.02936622
v 0.0109716 0.9610623 0.1810792
v -0.009375229 0.9610624 -0.181079
v 0.0109716 0.9610624 -0.181079
v -0.009375229 0.9610623 0.1810792
v 0.1191531 0.7174113 0.05086403
v 0.1406509 0.8388634 0.02936639
v 0.1406509 0.7174113 0.02936636
v 0.1191531 0.8388634 0.05086405
v 0.08978691 0.7174113 0.05873268
v 0.08978691 0.8388634 0.0587327
v 0.0109716 0.8388634 0.0588804
v 0.0109716 0.7174113 0.05888039
v 0.1191531 0.8388634 -0.05086387
v 0.1406509 0.7174113 -0.02936625
v 0.1406509 0.8388634 -0.02936622
v 0.1191531 0.7174113 -0.05086388
v 0.08978691 0.7174113 -0.05873253
v 0.08978691 0.8388634 -0.05873252
v 0.0109716 0.8388634 -0.05888022
v 0.0109716 0.7174113 -0.05888023
v 0.1406509 0.7174113 -0.02936625
v 0.1485195 0.8388634 8.583068E-08
v 0.1406509 0.8388634 -0.02936622
v 0.1485195 0.7174113 5.722046E-08
v 0.1406509 0.7174113 0.02936636
v 0.1406509 0.8388634 0.02936639
v 0.1406509 0.7174113 0.02936636
v 0.08978691 0.7174113 0.05873268
v 0.1191531 0.7174113 0.05086403
v 0.1485195 0.7174113 5.722046E-08
v 0.08978691 0.7174113 -0.05873253
v 0.0109716 0.7174113 0.05888039
v 0.0109716 0.7174113 -0.05888023
v 0.1406509 0.7174113 -0.02936625
v 0.1191531 0.7174113 -0.05086388
v -0.009375229 0.9610623 0.1810792
v 0.0109716 0.5952123 0.1810791
v -0.009375229 0.5952123 0.1810791
v 0.0109716 0.9610623 0.1810792
v 0.0109716 0.5952124 -0.1810791
v -0.009375229 0.9610624 -0.181079
v -0.009375229 0.5952124 -0.1810791
v 0.0109716 0.9610624 -0.181079
v 0.0109716 0.5952124 -0.1810791
v -0.009375229 0.5952123 0.1810791
v 0.0109716 0.5952123 0.1810791
v -0.009375229 0.5952124 -0.1810791
v -0.009375229 0.5952124 -0.1810791
v -0.009375229 0.9610623 0.1810792
v -0.009375229 0.5952123 0.1810791
v -0.009375229 0.9610624 -0.181079
v 0.08978691 2.04923 0.05873282
v 0.1406509 2.04923 0.02936651
v 0.1191531 2.04923 0.05086416
v 0.1485195 2.04923 2.098083E-07
v 0.08978691 2.04923 -0.05873239
v 0.0109716 2.04923 -0.05888009
v 0.0109716 2.04923 0.05888052
v 0.1191531 2.04923 -0.05086374
v 0.1406509 2.04923 -0.02936609
v 0.0109716 2.171429 0.1810793
v -0.009375229 2.171429 -0.1810789
v 0.0109716 2.171429 -0.1810789
v -0.009375229 2.171429 0.1810793
v 0.1191531 1.927778 0.05086414
v 0.1406509 2.04923 0.02936651
v 0.1406509 1.927778 0.02936649
v 0.1191531 2.04923 0.05086416
v 0.08978691 1.927778 0.05873279
v 0.08978691 2.04923 0.05873282
v 0.0109716 2.04923 0.05888052
v 0.0109716 1.927778 0.0588805
v 0.1191531 2.04923 -0.05086374
v 0.1406509 1.927777 -0.02936611
v 0.1406509 2.04923 -0.02936609
v 0.1191531 1.927777 -0.05086376
v 0.08978691 1.927777 -0.0587324
v 0.08978691 2.04923 -0.05873239
v 0.0109716 2.04923 -0.05888009
v 0.0109716 1.927778 -0.05888011
v 0.1406509 1.927777 -0.02936611
v 0.1485195 2.04923 2.098083E-07
v 0.1406509 2.04923 -0.02936609
v 0.1485195 1.927778 1.907349E-07
v 0.1406509 1.927778 0.02936649
v 0.1406509 2.04923 0.02936651
v 0.1406509 1.927778 0.02936649
v 0.08978691 1.927778 0.05873279
v 0.1191531 1.927778 0.05086414
v 0.1485195 1.927778 1.907349E-07
v 0.08978691 1.927777 -0.0587324
v 0.0109716 1.927778 0.0588805
v 0.0109716 1.927778 -0.05888011
v 0.1406509 1.927777 -0.02936611
v 0.1191531 1.927777 -0.05086376
v -0.009375229 2.171429 0.1810793
v 0.0109716 1.805579 0.1810792
v -0.009375229 1.805579 0.1810792
v 0.0109716 2.171429 0.1810793
v 0.0109716 1.805579 -0.1810789
v -0.009375229 2.171429 -0.1810789
v -0.009375229 1.805579 -0.1810789
v 0.0109716 2.171429 -0.1810789
v 0.0109716 1.805579 -0.1810789
v -0.009375229 1.805579 0.1810792
v 0.0109716 1.805579 0.1810792
v -0.009375229 1.805579 -0.1810789
v -0.009375229 1.805579 -0.1810789
v -0.009375229 2.171429 0.1810793
v -0.009375229 1.805579 0.1810792
v -0.009375229 2.171429 -0.1810789
v 0.0109716 0.9610624 -0.181079
v 0.0109716 0.8388634 0.0588804
v 0.0109716 0.9610623 0.1810792
v 0.0109716 0.5952123 0.1810791
v 0.0109716 0.8388634 -0.05888022
v 0.0109716 0.7174113 0.05888039
v 0.0109716 0.7174113 -0.05888023
v 0.0109716 0.5952124 -0.1810791
v 0.0109716 2.171429 -0.1810789
v 0.0109716 2.04923 0.05888052
v 0.0109716 2.171429 0.1810793
v 0.0109716 1.805579 0.1810792
v 0.0109716 2.04923 -0.05888009
v 0.0109716 1.927778 0.0588805
v 0.0109716 1.927778 -0.05888011
v 0.0109716 1.805579 -0.1810789
vt 0.7777709 0.3562438
vt 0.771429 0.3452592
vt 0.7760715 0.3499019
vt 0.7650871 0.34356
vt 0.7524032 0.3562438
vt 0.7523713 0.3732648
vt 0.7778026 0.3732648
vt 0.7541025 0.3499019
vt 0.7587451 0.3452592
vt 0.9892569 0.6784535
vt 0.9936252 0.7562053
vt 0.9892569 0.7562053
vt 0.9936252 0.6784535
vt 0.9634606 0.7853885
vt 0.989535 0.7919148
vt 0.9634606 0.7919147
vt 0.989535 0.7853885
vt 0.9634606 0.7788618
vt 0.989535 0.778862
vt 0.9895352 0.7619412
vt 0.9634606 0.7619412
vt 0.989535 0.8114932
vt 0.9634606 0.8049669
vt 0.989535 0.8049669
vt 0.9634606 0.811493
vt 0.9634603 0.8180196
vt 0.989535 0.8180196
vt 0.989535 0.8349405
vt 0.9634603 0.8349403
vt 0.9634606 0.8049669
vt 0.989535 0.7984409
vt 0.989535 0.8049669
vt 0.9634606 0.7984407
vt 0.9634606 0.7919147
vt 0.989535 0.7919148
vt 0.2892818 0.5385881
vt 0.2829399 0.5495726
vt 0.2846392 0.5432307
vt 0.2956238 0.5368887
vt 0.3083076 0.5495726
vt 0.282908 0.5665936
vt 0.3083396 0.5665936
vt 0.3019657 0.5385881
vt 0.3066083 0.5432307
vt 0.9260516 0.9497451
vt 0.9216833 0.8712006
vt 0.9260516 0.8712006
vt 0.9216833 0.9497451
vt 0.9262863 0.7889293
vt 0.921918 0.8674739
vt 0.921918 0.7889293
vt 0.9262863 0.8674739
vt 0.9938007 0.6731636
vt 0.9894325 0.5954117
vt 0.9938007 0.5954115
vt 0.9894325 0.6731636
vt 0.938099 0.4151116
vt 0.9393245 0.4163247
vt 0.938099 0.4163247
vt 0.9393245 0.4151116
vt 0.7777709 0.3562438
vt 0.771429 0.3452592
vt 0.7760715 0.3499019
vt 0.7650871 0.34356
vt 0.7524032 0.3562438
vt 0.7523713 0.3732648
vt 0.7778026 0.3732648
vt 0.7541025 0.3499019
vt 0.7587451 0.3452592
vt 0.9892569 0.6784535
vt 0.9936252 0.7562053
vt 0.9892569 0.7562053
vt 0.9936252 0.6784535
vt 0.9634606 0.7853885
vt 0.989535 0.7919148
vt 0.9634606 0.7919147
vt 0.989535 0.7853885
vt 0.9634606 0.7788618
vt 0.989535 0.778862
vt 0.9895352 0.7619412
vt 0.9634606 0.7619412
vt 0.989535 0.8114932
vt 0.9634606 0.8049669
vt 0.989535 0.8049669
vt 0.9634606 0.811493
vt 0.9634603 0.8180196
vt 0.989535 0.8180196
vt 0.989535 0.8349405
vt 0.9634603 0.8349403
vt 0.9634606 0.8049669
vt 0.989535 0.7984409
vt 0.989535 0.8049669
vt 0.9634606 0.7984407
vt 0.9634606 0.7919147
vt 0.989535 0.7919148
vt 0.2892818 0.5385881
vt 0.2829399 0.5495726
vt 0.2846392 0.5432307
vt 0.2956238 0.5368887
vt 0.3083076 0.5495726
vt 0.282908 0.5665936
vt 0.3083396 0.5665936
vt 0.3019657 0.5385881
vt 0.3066083 0.5432307
vt 0.9260516 0.9497451
vt 0.9216833 0.8712006
vt 0.9260516 0.8712006
vt 0.9216833 0.9497451
vt 0.9262863 0.7889293
vt 0.921918 0.8674739
vt 0.921918 0.7889293
vt 0.9262863 0.8674739
vt 0.9938007 0.6731636
vt 0.9894325 0.5954117
vt 0.9938007 0.5954115
vt 0.9894325 0.6731636
vt 0.938099 0.4151116
vt 0.9393245 0.4163247
vt 0.938099 0.4163247
vt 0.9393245 0.4151116
vt 0.9863912 0.4628405
vt 0.9601562 0.4113235
vt 0.9863912 0.3850887
vt 0.9078466 0.3850885
vt 0.9601562 0.4366055
vt 0.9340817 0.4113235
vt 0.9340817 0.4366054
vt 0.9078466 0.4628404
vt 0.9863912 0.4628405
vt 0.9601562 0.4113235
vt 0.9863912 0.3850887
vt 0.9078466 0.3850885
vt 0.9601562 0.4366055
vt 0.9340817 0.4113235
vt 0.9340817 0.4366054
vt 0.9078466 0.4628404
vn 0 1 0
vn 0 1 0
vn 0 1 0
vn 0 1 0
vn 0 1 0
vn 0 1 0
vn 0 1 0
vn 0 1 0
vn 0 1 0
vn 0 1 2.106647E-07
vn 0 1 2.106647E-07
vn 0 1 2.106647E-07
vn 0 1 2.106647E-07
vn 0.4999988 -1.602587E-07 0.866026
vn 0.8660248 0 0.5000011
vn 0.8660248 -1.177842E-07 0.500001
vn 0.4999987 -1.360054E-07 0.866026
vn 0.1314554 -1.556825E-07 0.991322
vn 0.1314554 -1.556825E-07 0.991322
vn 0.001874063 -1.570451E-07 0.9999983
vn 0.001874063 -1.570451E-07 0.9999983
vn 0.4999986 1.218187E-07 -0.8660262
vn 0.8660246 0 -0.5000015
vn 0.8660247 1.177842E-07 -0.5000012
vn 0.4999985 1.02004E-07 -0.8660263
vn 0.1314553 1.065208E-07 -0.991322
vn 0.1314554 0 -0.991322
vn 0.001874024 0 -0.9999983
vn 0.001874063 1.177838E-07 -0.9999983
vn 0.8660246 0 -0.5000015
vn 1 0 0
vn 0.8660247 1.177842E-07 -0.5000012
vn 1 0 -2.553462E-07
vn 0.8660248 -1.177842E-07 0.500001
vn 0.8660248 0 0.5000011
vn 0 -1 0
vn 1.776862E-07 -1 5.31488E-07
vn 0 -1 0
vn 0 -1 1.004397E-06
vn -3.139059E-07 -1 5.893166E-07
vn -3.635072E-07 -1 4.050917E-07
vn -9.680092E-07 -1 0
vn -1.597026E-06 -1 2.766133E-06
vn 0 -1 0
vn 0 -2.606736E-07 1
vn 0 -2.606736E-07 1
vn 0 -2.606736E-07 1
vn 0 -2.606736E-07 1
vn 0 2.085389E-07 -1
vn 0 2.085389E-07 -1
vn 0 2.085389E-07 -1
vn 0 2.085389E-07 -1
vn 0 -1 -1.053323E-07
vn 0 -1 -1.053323E-07
vn 0 -1 -1.053323E-07
vn 0 -1 -1.053323E-07
vn -1 0 0
vn -1 0 0
vn -1 0 0
vn -1 0 0
vn 0 1 0
vn 0 1 0
vn 0 1 0
vn 0 1 0
vn 0 1 0
vn 0 1 0
vn 0 1 0
vn 0 1 0
vn 0 1 0
vn 0 1 0
vn 0 1 0
vn 0 1 0
vn 0 1 0
vn 0.4999987 -1.360053E-07 0.8660262
vn 0.8660247 0 0.5000012
vn 0.8660248 0 0.5000011
vn 0.4999987 -1.360053E-07 0.8660262
vn 0.1314554 -1.556824E-07 0.991322
vn 0.1314554 -1.556824E-07 0.991322
vn 0.001874063 -1.57045E-07 0.9999983
vn 0.001874063 -1.57045E-07 0.9999983
vn 0.4999987 0 -0.8660262
vn 0.8660244 0 -0.5000016
vn 0.8660247 0 -0.5000012
vn 0.4999985 1.020038E-07 -0.8660262
vn 0.1314554 1.065207E-07 -0.991322
vn 0.1314554 0 -0.991322
vn 0.001874025 0 -0.9999983
vn 0.001874063 1.177837E-07 -0.9999983
vn 0.8660244 0 -0.5000016
vn 1 0 0
vn 0.8660247 0 -0.5000012
vn 1 0 -4.517659E-07
vn 0.8660248 0 0.5000011
vn 0.8660247 0 0.5000012
vn 0 -1 0
vn 3.553724E-07 -1 1.062976E-06
vn 0 -1 0
vn 0 -1 2.008795E-06
vn -6.278129E-07 -1 1.178635E-06
vn -7.270144E-07 -1 8.101833E-07
vn -1.936018E-06 -1 0
vn -3.194051E-06 -1 5.532263E-06
vn 0 -1 0
vn 0 -2.606735E-07 1
vn 0 -2.606735E-07 1
vn 0 -2.606735E-07 1
vn 0 -2.606735E-07 1
vn 0 2.085388E-07 -1
vn 0 2.085388E-07 -1
vn 0 2.085388E-07 -1
vn 0 2.085388E-07 -1
vn 0 -1 0
vn 0 -1 0
vn 0 -1 0
vn 0 -1 0
vn -1 0 0
vn -1 0 0
vn -1 0 0
vn -1 0 0
vn 1 0 0
vn 1 0 0
vn 1 0 0
vn 1 0 0
vn 1 0 0
vn 1 0 0
vn 1 0 0
vn 1 0 0
vn 1 0 0
vn 1 0 0
vn 1 0 0
vn 1 0 0
vn 1 0 0
vn 1 0 0
vn 1 0 0
vn 1 0 0
g Garden_Gate_Flap_Base_L_0
f 3/3/3 2/2/2 1/1/1
f 4/4/4 1/1/1 2/2/2
f 1/1/1 4/4/4 5/5/5
f 5/5/5 6/6/6 1/1/1
f 7/7/7 1/1/1 6/6/6
f 5/5/5 4/4/4 8/8/8
f 9/9/9 8/8/8 4/4/4
f 12/12/12 11/11/11 10/10/10
f 13/13/13 10/10/10 11/11/11
f 16/16/16 15/15/15 14/14/14
f 17/17/17 14/14/14 15/15/15
f 14/14/14 17/17/17 18/18/18
f 19/19/19 18/18/18 17/17/17
f 19/19/19 20/20/20 18/18/18
f 21/21/21 18/18/18 20/20/20
f 24/24/24 23/23/23 22/22/22
f 25/25/25 22/22/22 23/23/23
f 25/25/25 26/26/26 22/22/22
f 27/27/27 22/22/22 26/26/26
f 27/27/27 26/26/26 28/28/28
f 29/29/29 28/28/28 26/26/26
f 32/32/32 31/31/31 30/30/30
f 33/33/33 30/30/30 31/31/31
f 33/33/33 31/31/31 34/34/34
f 35/35/35 34/34/34 31/31/31
f 38/38/38 37/37/37 36/36/36
f 39/39/39 36/36/36 37/37/37
f 40/40/40 39/39/39 37/37/37
f 37/37/37 41/41/41 40/40/40
f 42/42/42 40/40/40 41/41/41
f 39/39/39 40/40/40 43/43/43
f 44/44/44 43/43/43 40/40/40
f 47/47/47 46/46/46 45/45/45
f 48/48/48 45/45/45 46/46/46
f 51/51/51 50/50/50 49/49/49
f 52/52/52 49/49/49 50/50/50
f 55/55/55 54/54/54 53/53/53
f 56/56/56 53/53/53 54/54/54
f 59/59/59 58/58/58 57/57/57
f 60/60/60 57/57/57 58/58/58
f 63/63/63 62/62/62 61/61/61
f 64/64/64 61/61/61 62/62/62
f 61/61/61 64/64/64 65/65/65
f 65/65/65 66/66/66 61/61/61
f 67/67/67 61/61/61 66/66/66
f 65/65/65 64/64/64 68/68/68
f 69/69/69 68/68/68 64/64/64
f 72/72/72 71/71/71 70/70/70
f 73/73/73 70/70/70 71/71/71
f 76/76/76 75/75/75 74/74/74
f 77/77/77 74/74/74 75/75/75
f 74/74/74 77/77/77 78/78/78
f 79/79/79 78/78/78 77/77/77
f 79/79/79 80/80/80 78/78/78
f 81/81/81 78/78/78 80/80/80
f 84/84/84 83/83/83 82/82/82
f 85/85/85 82/82/82 83/83/83
f 85/85/85 86/86/86 82/82/82
f 87/87/87 82/82/82 86/86/86
f 87/87/87 86/86/86 88/88/88
f 89/89/89 88/88/88 86/86/86
f 92/92/92 91/91/91 90/90/90
f 93/93/93 90/90/90 91/91/91
f 93/93/93 91/91/91 94/94/94
f 95/95/95 94/94/94 91/91/91
f 98/98/98 97/97/97 96/96/96
f 99/99/99 96/96/96 97/97/97
f 100/100/100 99/99/99 97/97/97
f 97/97/97 101/101/101 100/100/100
f 102/102/102 100/100/100 101/101/101
f 99/99/99 100/100/100 103/103/103
f 104/104/104 103/103/103 100/100/100
f 107/107/107 106/106/106 105/105/105
f 108/108/108 105/105/105 106/106/106
f 111/111/111 110/110/110 109/109/109
f 112/112/112 109/109/109 110/110/110
f 115/115/115 114/114/114 113/113/113
f 116/116/116 113/113/113 114/114/114
f 119/119/119 118/118/118 117/117/117
f 120/120/120 117/117/117 118/118/118
f 123/123/123 122/122/122 121/121/121
f 123/123/123 124/124/124 122/122/122
f 125/125/125 121/121/121 122/122/122
f 126/126/126 122/122/122 124/124/124
f 125/125/125 127/127/127 121/121/121
f 126/126/126 124/124/124 127/127/127
f 128/128/128 121/121/121 127/127/127
f 128/128/128 127/127/127 124/124/124
f 131/131/131 130/130/130 129/129/129
f 131/131/131 132/132/132 130/130/130
f 133/133/133 129/129/129 130/130/130
f 134/134/134 130/130/130 132/132/132
f 133/133/133 135/135/135 129/129/129
f 134/134/134 132/132/132 135/135/135
f 136/136/136 129/129/129 135/135/135
f 136/136/136 135/135/135 132/132/132
