g Garden_Wall
v 1 1.2 0.2179138
v -1 1.2 -0.2179138
v 1 1.2 -0.2179138
v -1 1.2 0.2179138
v 1 1.2 0.2179138
v -1 0.9960205 0.2179138
v -1 1.2 0.2179138
v 1 0.9960205 0.2179138
v -1 0.9960205 0.1868242
v 1 0.9960205 0.2179138
v 1 0.9960205 0.1868242
v -1 0.9960205 0.2179138
v 1 1.2 -0.2179138
v -1 0.9960205 -0.2179138
v 1 0.9960205 -0.2179138
v -1 1.2 -0.2179138
v -1 0.9960205 -0.1868242
v 1 0.9960205 -0.2179138
v -1 0.9960205 -0.2179138
v 1 0.9960205 -0.1868242
v 1 0.9960205 0.1868242
v -1 -1.143968E-17 0.1868242
v -1 0.9960205 0.1868242
v 1 -1.143968E-17 0.1868242
v 1 1.143968E-17 -0.1868242
v -1 -1.143968E-17 0.1868242
v 1 -1.143968E-17 0.1868242
v -1 1.143968E-17 -0.1868242
v -1 1.2 0.2179138
v -1 0.9960205 0.2179138
v -1 0.9960205 0.1868242
v -1 1.2 -0.2179138
v -1 0.9960205 -0.1868242
v -1 0.9960205 -0.2179138
v -1 -1.143968E-17 0.1868242
v -1 1.143968E-17 -0.1868242
v 1 -1.143968E-17 0.1868242
v 1 0.9960205 -0.1868242
v 1 1.143968E-17 -0.1868242
v 1 0.9960205 0.1868242
v 1 1.2 -0.2179138
v 1 0.9960205 -0.2179138
v 1 1.2 0.2179138
v 1 0.9960205 0.2179138
v 1 0.9960205 -0.1868242
v -1 1.143968E-17 -0.1868242
v 1 1.143968E-17 -0.1868242
v -1 0.9960205 -0.1868242
vt 0.4564572 0.9957421
vt 0.3873136 0.6786033
vt 0.3873136 0.9957421
vt 0.4564572 0.6786033
vt 0.4606059 0.9957421
vt 0.4928729 0.6786033
vt 0.4606059 0.6786033
vt 0.4928729 0.9957421
vt 0.7712913 0.6786033
vt 0.7657598 0.9957421
vt 0.7712913 0.9957421
vt 0.7657598 0.6786033
vt 0.7228907 0.6786033
vt 0.7551578 0.9957421
vt 0.7551578 0.6786033
vt 0.7228907 0.9957421
vt 0.7579235 0.6786033
vt 0.763455 0.9957421
vt 0.763455 0.6786033
vt 0.7579235 0.9957421
vt 0.4979434 0.9957421
vt 0.6555909 0.6786033
vt 0.4979434 0.6786033
vt 0.6555909 0.9957421
vt 0.7205859 0.9957421
vt 0.6611224 0.6786033
vt 0.6611224 0.9957421
vt 0.7205859 0.6786033
vt 0.9297307 0.6125852
vt 0.9297307 0.6448522
vt 0.9343402 0.6448522
vt 0.9984134 0.6125852
vt 0.9938038 0.6448522
vt 0.9984134 0.6448522
vt 0.9343402 0.8024997
vt 0.9938038 0.8024997
vt 0.9340056 0.8060687
vt 0.9930081 0.9637162
vt 0.9930081 0.8060687
vt 0.9340056 0.9637162
vt 0.9985397 0.9959832
vt 0.9985397 0.9637162
vt 0.9293959 0.9959832
vt 0.9293959 0.9637162
vt 0.4979434 0.9957421
vt 0.6555909 0.6786033
vt 0.6555909 0.9957421
vt 0.4979434 0.6786033
vn 0 1 0
vn 0 1 0
vn 0 1 0
vn 0 1 0
vn 0 0 1
vn 0 0 1
vn 0 0 1
vn 0 0 1
vn 0 -1 0
vn 0 -1 0
vn 0 -1 0
vn 0 -1 0
vn 0 0 -1
vn 0 0 -1
vn 0 0 -1
vn 0 0 -1
vn 0 -1 0
vn 0 -1 0
vn 0 -1 0
vn 0 -1 0
vn 0 0 1
vn 0 0 1
vn 0 0 1
vn 0 0 1
vn 0 -1 0
vn 0 -1 0
vn 0 -1 0
vn 0 -1 0
vn -1 0 0
vn -1 0 0
vn -1 0 0
vn -1 0 0
vn -1 0 0
vn -1 0 0
vn -1 0 0
vn -1 0 0
vn 1 0 0
vn 1 0 0
vn 1 0 0
vn 1 0 0
vn 1 0 0
vn 1 0 0
vn 1 0 0
vn 1 0 0
vn 0 0 -1
vn 0 0 -1
vn 0 0 -1
vn 0 0 -1
g Garden_Wall_0
f 3/3/3 2/2/2 1/1/1
f 4/4/4 1/1/1 2/2/2
f 7/7/7 6/6/6 5/5/5
f 8/8/8 5/5/5 6/6/6
f 11/11/11 10/10/10 9/9/9
f 12/12/12 9/9/9 10/10/10
f 15/15/15 14/14/14 13/13/13
f 16/16/16 13/13/13 14/14/14
f 19/19/19 18/18/18 17/17/17
f 20/20/20 17/17/17 18/18/18
f 23/23/23 22/22/22 21/21/21
f 24/24/24 21/21/21 22/22/22
f 27/27/27 26/26/26 25/25/25
f 28/28/28 25/25/25 26/26/26
f 31/31/31 30/30/30 29/29/29
f 29/29/29 32/32/32 31/31/31
f 33/33/33 31/31/31 32/32/32
f 34/34/34 33/33/33 32/32/32
f 31/31/31 33/33/33 35/35/35
f 36/36/36 35/35/35 33/33/33
f 39/39/39 38/38/38 37/37/37
f 40/40/40 37/37/37 38/38/38
f 38/38/38 41/41/41 40/40/40
f 42/42/42 41/41/41 38/38/38
f 43/43/43 40/40/40 41/41/41
f 44/44/44 40/40/40 43/43/43
f 47/47/47 46/46/46 45/45/45
f 48/48/48 45/45/45 46/46/46
