g Garden_Gate_Wall_COL
v 0.5709427 1.290858 -0.2021553
v 0.2441244 1.504773 -0.2021553
v -1 1.237844E-17 -0.2021553
v 0.8225723 1.218365 -0.2021553
v 0.5709427 1.290858 -0.2021553
v -1 1.237844E-17 -0.2021553
v -1 1.237844E-17 -0.2021553
v -0.6924249 2.928052 -0.2021553
v -0.9999997 2.928221 -0.2021553
v 1 1.2 0.198734
v 0.8225723 1.218365 -0.2021553
v 1 1.2 -0.2021553
v 0.8225723 1.218365 0.198734
v 0.5709427 1.290858 -0.2021553
v 0.5709427 1.290858 0.198734
v 0.2441244 1.504773 -0.2021553
v 0.2441244 1.504773 0.198734
v -0.05514275 1.926551 0.198734
v -0.05514275 1.926551 -0.2021553
v -0.1527945 2.37125 -0.2021553
v -0.1527945 2.37125 0.198734
v -0.198443 2.75557 0.198734
v -0.198443 2.75557 -0.2021553
v -0.3954397 2.966498 -0.2021553
v -0.3954397 2.966498 0.198734
v -0.583253 2.985065 0.198734
v -0.583253 2.985065 -0.2021553
v -0.6924249 2.928052 -0.2021553
v -0.6924249 2.928052 0.198734
v -0.9999997 2.928221 -0.2021553
v -0.9999997 2.928221 0.198734
v -0.198443 2.75557 -0.2021553
v -0.3954397 2.966498 -0.2021553
v -1 1.237844E-17 -0.2021553
v -0.1527945 2.37125 -0.2021553
v -0.05514275 1.926551 -0.2021553
v 0.2441244 1.504773 -0.2021553
v -1 1.237844E-17 -0.2021553
v -0.3954397 2.966498 -0.2021553
v -0.583253 2.985065 -0.2021553
v -0.6924249 2.928052 -0.2021553
v 1 1.237844E-17 -0.2021553
v -1 -1.216895E-17 0.198734
v 1 -1.216895E-17 0.198734
v -1 1.237844E-17 -0.2021553
v -0.9999997 2.928221 -0.2021553
v -1 -1.216895E-17 0.198734
v -1 1.237844E-17 -0.2021553
v -0.9999997 2.928221 0.198734
v 1 1.237844E-17 -0.2021553
v 0.8225723 1.218365 -0.2021553
v -1 1.237844E-17 -0.2021553
v 1 1.2 -0.2021553
v -0.6924249 2.928052 0.198734
v -1 -1.216895E-17 0.198734
v -0.9999997 2.928221 0.198734
v -0.583253 2.985065 0.198734
v -0.3954397 2.966498 0.198734
v -0.198443 2.75557 0.198734
v -0.1527945 2.37125 0.198734
v -0.05514275 1.926551 0.198734
v 0.2441244 1.504773 0.198734
v 0.5709427 1.290858 0.198734
v 0.8225723 1.218365 0.198734
v 0.8225723 1.218365 0.198734
v 1 -1.216895E-17 0.198734
v -1 -1.216895E-17 0.198734
v 1 1.2 0.198734
v 1 1.2 0.198734
v 1 1.237844E-17 -0.2021553
v 1 -1.216895E-17 0.198734
v 1 1.2 -0.2021553
vt 0.994873 0.003417969
vt 0.9954834 0.003051758
vt 0.06602622 0.5334017
vt 0.9943848 0.003417969
vt 0.994873 0.003417969
vt 0.06602622 0.5334017
vt 0.06602622 0.5334017
vt 0.9980469 0.003417969
vt 0.06602622 0.9980469
vt 0.3873136 0.6735328
vt 0.4152015 0.6043891
vt 0.3873136 0.6043891
vt 0.4147406 0.6735328
vt 0.4571487 0.6043891
vt 0.4571487 0.6735328
vt 0.5193779 0.6043891
vt 0.5193779 0.6735328
vt 0.6023503 0.6735328
vt 0.6023503 0.6043891
vt 0.675873 0.6043891
vt 0.675873 0.6735328
vt 0.737987 0.6735328
vt 0.737987 0.6043891
vt 0.7862724 0.6043891
vt 0.7862724 0.6735328
vt 0.8162346 0.6735328
vt 0.8162346 0.6043891
vt 0.8367472 0.6089987
vt 0.8367472 0.6680013
vt 0.8851478 0.6089987
vt 0.8851478 0.6680013
vt 0.9974365 0.00378418
vt 0.9978027 0.003662109
vt 0.06602622 0.5334017
vt 0.996582 0.003417969
vt 0.9963379 0.003173828
vt 0.9954834 0.003051758
vt 0.06602622 0.5334017
vt 0.9978027 0.003662109
vt 0.9980469 0.003417969
vt 0.9980469 0.003417969
vt 0.8349034 0.9957421
vt 0.7759008 0.6786033
vt 0.7759008 0.9957421
vt 0.8349034 0.6786033
vt 0.001953125 0.9980469
vt 0.06095569 0.5343236
vt 0.001953125 0.5343236
vt 0.06095569 0.9980469
vt 0.3817821 0.5334017
vt 0.9943848 0.003417969
vt 0.06602622 0.5334017
vt 0.3873136 0.5997795
vt 0.5007092 0.2199506
vt 0.06602622 0.5334017
vt 0.06602622 0.9980469
vt 0.4979434 0.2005903
vt 0.4783527 0.1777729
vt 0.4337551 0.17155
vt 0.3799383 0.2005903
vt 0.3134452 0.2282478
vt 0.2317405 0.2280173
vt 0.1743512 0.2051999
vt 0.1420842 0.1793863
vt 0.1420842 0.1793863
vt 0.5772281 0.5357065
vt 0.06602622 0.5334017
vt 0.1236459 0.1581822
vt 0.1236459 0.1581822
vt 0.3817821 0.5334017
vt 0.5772281 0.5357065
vt 0.3873136 0.5997795
vn 0.2793835 0.609135 -0.7422259
vn 0.4576943 0.4752068 -0.7514616
vn -0.5773497 -0.5773497 -0.5773514
vn 0.1307841 0.673425 -0.7275949
vn 0.2793835 0.609135 -0.7422259
vn -0.5773497 -0.5773497 -0.5773514
vn -0.5773497 -0.5773497 -0.5773514
vn 0 0 -1
vn -0.5772057 0.5775237 -0.5773214
vn 0.6033715 0.5441418 0.5829686
vn 0.1307841 0.673425 -0.7275949
vn 0.6033715 0.5441418 -0.5829687
vn 0.1307841 0.6734249 0.7275949
vn 0.2793835 0.609135 -0.7422259
vn 0.2793835 0.609135 0.7422259
vn 0.4576943 0.4752068 -0.7514616
vn 0.4576943 0.4752069 0.7514616
vn 0.5998499 0.2654549 0.7547939
vn 0.5998499 0.2654549 -0.7547939
vn 0.6860404 0.1157811 -0.718292
vn 0.6860404 0.1157811 0.718292
vn 0.694397 0.322459 0.6432984
vn 0.694397 0.322459 -0.6432985
vn 0.3420494 0.6920528 -0.6356611
vn 0.3420494 0.6920528 0.6356611
vn -0.1448544 0.7476804 0.6480674
vn -0.1448544 0.7476804 -0.6480674
vn -0.2380559 0.9712514 0
vn -0.2380559 0.9712514 0
vn -0.5772057 0.5775237 -0.5773214
vn -0.5772057 0.5775237 0.5773214
vn 0.694397 0.322459 -0.6432985
vn 0.3420494 0.6920528 -0.6356611
vn -0.5773497 -0.5773497 -0.5773514
vn 0.6860404 0.1157811 -0.718292
vn 0.5998499 0.2654549 -0.7547939
vn 0.4576943 0.4752068 -0.7514616
vn -0.5773497 -0.5773497 -0.5773514
vn 0.3420494 0.6920528 -0.6356611
vn -0.1448544 0.7476804 -0.6480674
vn 0 0 -1
vn 0.5773502 -0.5773503 -0.5773503
vn -0.5773497 -0.5773497 0.5773514
vn 0.5773504 -0.5773503 0.5773501
vn -0.5773497 -0.5773497 -0.5773514
vn -0.5772057 0.5775237 -0.5773214
vn -0.5773497 -0.5773497 0.5773514
vn -0.5773497 -0.5773497 -0.5773514
vn -0.5772057 0.5775237 0.5773214
vn 0.5773502 -0.5773503 -0.5773503
vn 0.1307841 0.673425 -0.7275949
vn -0.5773497 -0.5773497 -0.5773514
vn 0.6033715 0.5441418 -0.5829687
vn 0 0 1
vn -0.5773497 -0.5773497 0.5773514
vn -0.5772057 0.5775237 0.5773214
vn -0.1448544 0.7476804 0.6480674
vn 0.3420494 0.6920528 0.6356611
vn 0.694397 0.322459 0.6432984
vn 0.6860404 0.1157811 0.718292
vn 0.5998499 0.2654549 0.7547939
vn 0.4576943 0.4752069 0.7514616
vn 0.2793835 0.609135 0.7422259
vn 0.1307841 0.6734249 0.7275949
vn 0.1307841 0.6734249 0.7275949
vn 0.5773504 -0.5773503 0.5773501
vn -0.5773497 -0.5773497 0.5773514
vn 0.6033715 0.5441418 0.5829686
vn 0.6033715 0.5441418 0.5829686
vn 0.5773502 -0.5773503 -0.5773503
vn 0.5773504 -0.5773503 0.5773501
vn 0.6033715 0.5441418 -0.5829687
g Garden_Gate_Wall_COL_0
f 3/3/3 2/2/2 1/1/1
f 6/6/6 5/5/5 4/4/4
f 9/9/9 8/8/8 7/7/7
f 12/12/12 11/11/11 10/10/10
f 13/13/13 10/10/10 11/11/11
f 11/11/11 14/14/14 13/13/13
f 15/15/15 13/13/13 14/14/14
f 14/14/14 16/16/16 15/15/15
f 17/17/17 15/15/15 16/16/16
f 17/17/17 16/16/16 18/18/18
f 19/19/19 18/18/18 16/16/16
f 19/19/19 20/20/20 18/18/18
f 21/21/21 18/18/18 20/20/20
f 21/21/21 20/20/20 22/22/22
f 23/23/23 22/22/22 20/20/20
f 23/23/23 24/24/24 22/22/22
f 25/25/25 22/22/22 24/24/24
f 25/25/25 24/24/24 26/26/26
f 27/27/27 26/26/26 24/24/24
f 27/27/27 28/28/28 26/26/26
f 29/29/29 26/26/26 28/28/28
f 28/28/28 30/30/30 29/29/29
f 31/31/31 29/29/29 30/30/30
f 34/34/34 33/33/33 32/32/32
f 35/35/35 34/34/34 32/32/32
f 36/36/36 34/34/34 35/35/35
f 36/36/36 37/37/37 34/34/34
f 40/40/40 39/39/39 38/38/38
f 40/40/40 38/38/38 41/41/41
f 44/44/44 43/43/43 42/42/42
f 45/45/45 42/42/42 43/43/43
f 48/48/48 47/47/47 46/46/46
f 49/49/49 46/46/46 47/47/47
f 52/52/52 51/51/51 50/50/50
f 53/53/53 50/50/50 51/51/51
f 56/56/56 55/55/55 54/54/54
f 54/54/54 55/55/55 57/57/57
f 57/57/57 55/55/55 58/58/58
f 58/58/58 55/55/55 59/59/59
f 59/59/59 55/55/55 60/60/60
f 60/60/60 55/55/55 61/61/61
f 55/55/55 62/62/62 61/61/61
f 62/62/62 55/55/55 63/63/63
f 63/63/63 55/55/55 64/64/64
f 67/67/67 66/66/66 65/65/65
f 68/68/68 65/65/65 66/66/66
f 71/71/71 70/70/70 69/69/69
f 72/72/72 69/69/69 70/70/70
