g GROUND_02
v -15.99249 12.5742 0
v 12.41816 12.57419 0
v 12.41816 4.626579 0
v -15.9925 4.626589 0
v -23.6662 4.626588 0
v -23.6662 12.5742 0
v -15.9925 0.08906433 0
v 12.41815 0.08905701 0
v -15.9925 -12.57419 0
v 12.41815 -12.5742 0
v 12.41816 11.87306 0
v 12.41816 12.57419 0
v 20.93019 12.57419 0
v 20.93019 11.87306 0
v 12.41816 4.626579 0
v 20.93019 4.626579 0
v 23.6662 4.626579 0
v 23.6662 11.87306 0
vt 0.009367719 -0.009260394
vt -3.632332 -0.009259355
vt -3.632332 1.009472
vt 0.009368423 1.00947
vt 0.9929906 1.00947
vt 0.9929899 -0.009260394
vt 0.009368423 1.591094
vt -3.632332 1.591095
vt 0.009369124 3.21428
vt -3.632331 3.214281
vt 2.284595 -2.041269
vt 2.284595 -2.131141
vt 1.193515 -2.131141
vt 1.193516 -2.041269
vt 2.284595 -1.112411
vt 1.193516 -1.112411
vt 0.8428114 -1.112411
vt 0.8428114 -2.041269
vn 0 0 1
vn 0 0 1
vn 0 0 1
vn 0 0 1
vn 0 0 1
vn 0 0 1
vn 0 0 1
vn 0 0 1
vn 0 0 1
vn 0 0 1
vn 0 0 1
vn 0 0 1
vn 0 0 1
vn 0 0 1
vn 0 0 1
vn 0 0 1
vn 0 0 1
vn 0 0 1
g GROUND_02_0
f 3/3/3 2/2/2 1/1/1
f 4/4/4 3/3/3 1/1/1
f 5/5/5 4/4/4 1/1/1
f 6/6/6 5/5/5 1/1/1
f 3/3/3 4/4/4 7/7/7
f 8/8/8 3/3/3 7/7/7
f 8/8/8 7/7/7 9/9/9
f 10/10/10 8/8/8 9/9/9
f 13/13/13 12/12/12 11/11/11
f 14/14/14 13/13/13 11/11/11
f 14/14/14 11/11/11 15/15/15
f 16/16/16 14/14/14 15/15/15
f 14/14/14 16/16/16 17/17/17
f 18/18/18 14/14/14 17/17/17
