g Hall_Stair
v 0.2643773 -8.699997 -6.056351
v 0.2643768 -9.000994 -6.065699
v -1.607943 -9.000994 -6.065699
v -1.607943 -8.699996 -6.05635
v 0.2643772 -8.399997 -5.847034
v 0.2643771 -8.699997 -5.856351
v -1.607943 -8.699996 -5.85635
v -1.607943 -8.399996 -5.847032
v 0.2643774 -8.099997 -5.637715
v 0.2643774 -8.399997 -5.647034
v -1.607943 -8.399996 -5.647032
v -1.607943 -8.099995 -5.637715
v 0.2643777 -7.799996 -5.428398
v 0.2643776 -8.099997 -5.437716
v -1.607943 -8.099995 -5.437716
v -1.607943 -7.799995 -5.428398
v 0.2643779 -7.499996 -5.219081
v 0.2643777 -7.799997 -5.228398
v -1.607942 -7.799995 -5.228398
v -1.607942 -7.499995 -5.21908
v 0.264378 -7.199996 -5.009763
v 0.2643778 -7.499996 -5.01908
v -1.607943 -7.499995 -5.01908
v -1.607942 -7.199995 -5.009762
v 0.2643783 -6.899996 -4.800445
v 0.2643785 -7.199996 -4.809763
v -1.607942 -7.199995 -4.809762
v -1.607942 -6.899994 -4.800444
v 0.2643787 -6.599996 -4.591127
v 0.2643783 -6.899996 -4.600445
v -1.607942 -6.899994 -4.600444
v -1.607942 -6.599994 -4.591126
v 0.264379 -6.299995 -4.38181
v 0.2643789 -6.599996 -4.391127
v -1.607942 -6.599995 -4.391127
v -1.607942 -6.299994 -4.381809
v 0.2643791 -5.999995 -4.172492
v 0.2643789 -6.299995 -4.181809
v -1.607942 -6.299994 -4.181809
v -1.607941 -5.999994 -4.172492
v 0.2643791 -5.999995 -3.972492
v -1.607941 -5.999994 -3.972491
v -1.607941 -5.699994 -3.963174
v 0.2643798 -5.699995 -3.963174
v 0.2643795 -5.399994 -3.753857
v 0.2643796 -5.699995 -3.763174
v -1.607941 -5.699995 -3.763174
v -1.607941 -5.399993 -3.753857
v 0.26438 -5.099994 -3.544539
v 0.2643797 -5.399994 -3.553856
v -1.607941 -5.399994 -3.553856
v -1.607941 -5.099994 -3.544539
v 0.2643802 -4.799994 -3.335221
v 0.26438 -5.099994 -3.344538
v -1.607941 -5.099994 -3.344539
v -1.607941 -4.799994 -3.335221
v 0.26438 -4.499994 -3.125903
v 0.26438 -4.799994 -3.135221
v -1.60794 -4.799994 -3.135221
v -1.60794 -4.499993 -3.125904
v 0.2643805 -4.199993 -2.916585
v 0.2643799 -4.499994 -2.925903
v -1.607941 -4.499993 -2.925903
v -1.60794 -4.199993 -2.916586
v 0.2643806 -4.199995 -2.716586
v -1.60794 -4.199995 -2.716586
v -1.60794 -3.899994 -2.707268
v 0.2643808 -3.899995 -2.707268
v 0.2643806 -3.599994 -2.497951
v 0.2643806 -3.899996 -2.507268
v -1.60794 -3.899995 -2.507268
v -1.60794 -3.599994 -2.497951
v 0.2643811 -3.299994 -2.288632
v 0.2643806 -3.599994 -2.297951
v -1.60794 -3.599994 -2.297951
v -1.607939 -3.299993 -2.288632
v 0.2643794 -3.000992 -2.079346
v 0.2643812 -3.299993 -2.088633
v -1.60794 -3.299993 -2.088633
v -1.607941 -3.000991 -2.079346
v 0.2643773 -8.699997 -6.056351
v -1.607943 -8.699996 -6.05635
v -1.607943 -8.699996 -5.85635
v 0.2643771 -8.699997 -5.856351
v 0.2643772 -8.399997 -5.847034
v -1.607943 -8.399996 -5.847032
v -1.607943 -8.399996 -5.647032
v 0.2643774 -8.399997 -5.647034
v 0.2643774 -8.099997 -5.637715
v -1.607943 -8.099995 -5.637715
v -1.607943 -8.099995 -5.437716
v 0.2643776 -8.099997 -5.437716
v 0.2643777 -7.799996 -5.428398
v -1.607943 -7.799995 -5.428398
v -1.607942 -7.799995 -5.228398
v 0.2643777 -7.799997 -5.228398
v 0.2643779 -7.499996 -5.219081
v -1.607942 -7.499995 -5.21908
v -1.607943 -7.499995 -5.01908
v 0.2643778 -7.499996 -5.01908
v 0.264378 -7.199996 -5.009763
v -1.607942 -7.199995 -5.009762
v -1.607942 -7.199995 -4.809762
v 0.2643785 -7.199996 -4.809763
v 0.2643783 -6.899996 -4.800445
v -1.607942 -6.899994 -4.800444
v -1.607942 -6.899994 -4.600444
v 0.2643783 -6.899996 -4.600445
v 0.2643787 -6.599996 -4.591127
v -1.607942 -6.599994 -4.591126
v -1.607942 -6.599995 -4.391127
v 0.2643789 -6.599996 -4.391127
v 0.264379 -6.299995 -4.38181
v -1.607942 -6.299994 -4.381809
v -1.607942 -6.299994 -4.181809
v 0.2643789 -6.299995 -4.181809
v 0.2643791 -5.999995 -3.972492
v 0.2643791 -5.999995 -4.172492
v -1.607941 -5.999994 -4.172492
v -1.607941 -5.999994 -3.972491
v 0.2643798 -5.699995 -3.963174
v -1.607941 -5.699994 -3.963174
v -1.607941 -5.699995 -3.763174
v 0.2643796 -5.699995 -3.763174
v 0.2643795 -5.399994 -3.753857
v -1.607941 -5.399993 -3.753857
v -1.607941 -5.399994 -3.553856
v 0.2643797 -5.399994 -3.553856
v 0.26438 -5.099994 -3.544539
v -1.607941 -5.099994 -3.544539
v -1.607941 -5.099994 -3.344539
v 0.26438 -5.099994 -3.344538
v 0.2643802 -4.799994 -3.335221
v -1.607941 -4.799994 -3.335221
v -1.60794 -4.799994 -3.135221
v 0.26438 -4.799994 -3.135221
v 0.26438 -4.499994 -3.125903
v -1.60794 -4.499993 -3.125904
v -1.607941 -4.499993 -2.925903
v 0.2643799 -4.499994 -2.925903
v 0.2643806 -4.199995 -2.716586
v 0.2643805 -4.199993 -2.916585
v -1.60794 -4.199993 -2.916586
v -1.60794 -4.199995 -2.716586
v 0.2643808 -3.899995 -2.707268
v -1.60794 -3.899994 -2.707268
v -1.60794 -3.899995 -2.507268
v 0.2643806 -3.899996 -2.507268
v 0.2643806 -3.599994 -2.497951
v -1.60794 -3.599994 -2.497951
v -1.60794 -3.599994 -2.297951
v 0.2643806 -3.599994 -2.297951
v 0.2643811 -3.299994 -2.288632
v -1.607939 -3.299993 -2.288632
v -1.60794 -3.299993 -2.088633
v 0.2643812 -3.299993 -2.088633
v 0.2643772 -2.699996 -1.883857
v 0.2643768 -3.000993 -1.893206
v -1.607944 -3.000992 -1.893205
v -1.607944 -2.699996 -1.883856
v 0.2643794 -3.000992 -2.079346
v -1.607941 -3.000991 -2.079346
v -1.607944 -3.000992 -1.893205
v 0.2643768 -3.000993 -1.893206
v 0.2643772 -2.399996 -1.674539
v 0.2643769 -2.699996 -1.683857
v -1.607944 -2.699996 -1.683856
v -1.607943 -2.399996 -1.674539
v 0.2643774 -2.099996 -1.465222
v 0.2643774 -2.399996 -1.474539
v -1.607943 -2.399996 -1.474539
v -1.607943 -2.099995 -1.465222
v 0.2643777 -1.799996 -1.255904
v 0.2643776 -2.099996 -1.265222
v -1.607943 -2.099995 -1.265221
v -1.607943 -1.799995 -1.255904
v 0.2643779 -1.499996 -1.046586
v 0.2643777 -1.799996 -1.055904
v -1.607942 -1.799995 -1.055903
v -1.607942 -1.499995 -1.046586
v 0.264378 -1.199995 -0.8372687
v 0.264378 -1.499996 -0.8465863
v -1.607942 -1.499995 -0.8465857
v -1.607942 -1.199995 -0.8372687
v 0.2643783 -0.8999951 -0.627951
v 0.2643785 -1.199995 -0.6372687
v -1.607942 -1.199995 -0.6372681
v -1.607942 -0.8999951 -0.6279504
v 0.2643787 -0.5999951 -0.4186334
v 0.2643786 -0.8999951 -0.427951
v -1.607942 -0.8999951 -0.427951
v -1.607942 -0.5999951 -0.4186334
v 0.264379 -0.2999951 -0.2093152
v 0.2643786 -0.5999951 -0.2186334
v -1.607942 -0.5999951 -0.2186334
v -1.607942 -0.2999939 -0.2093146
v 0.2643794 4.882812E-06 1.831055E-06
v 0.264379 -0.2999951 -0.009315185
v -1.607942 -0.2999951 -0.009315795
v -1.607941 6.103515E-06 1.831055E-06
v 0.2643772 -2.699996 -1.883857
v -1.607944 -2.699996 -1.883856
v -1.607944 -2.699996 -1.683856
v 0.2643769 -2.699996 -1.683857
v 0.2643772 -2.399996 -1.674539
v -1.607943 -2.399996 -1.674539
v -1.607943 -2.399996 -1.474539
v 0.2643774 -2.399996 -1.474539
v 0.2643774 -2.099996 -1.465222
v -1.607943 -2.099995 -1.465222
v -1.607943 -2.099995 -1.265221
v 0.2643776 -2.099996 -1.265222
v 0.2643777 -1.799996 -1.255904
v -1.607943 -1.799995 -1.255904
v -1.607942 -1.799995 -1.055903
v 0.2643777 -1.799996 -1.055904
v 0.2643779 -1.499996 -1.046586
v -1.607942 -1.499995 -1.046586
v -1.607942 -1.499995 -0.8465857
v 0.264378 -1.499996 -0.8465863
v 0.264378 -1.199995 -0.8372687
v -1.607942 -1.199995 -0.8372687
v -1.607942 -1.199995 -0.6372681
v 0.2643785 -1.199995 -0.6372687
v 0.2643783 -0.8999951 -0.627951
v -1.607942 -0.8999951 -0.6279504
v -1.607942 -0.8999951 -0.427951
v 0.2643786 -0.8999951 -0.427951
v 0.2643787 -0.5999951 -0.4186334
v -1.607942 -0.5999951 -0.4186334
v -1.607942 -0.5999951 -0.2186334
v 0.2643786 -0.5999951 -0.2186334
v 0.264379 -0.2999951 -0.2093152
v -1.607942 -0.2999939 -0.2093146
v -1.607942 -0.2999951 -0.009315795
v 0.264379 -0.2999951 -0.009315185
v 0.2643768 -9.000994 -6.065699
v 0.264377 -9.000994 -6.265699
v -1.607944 -9.000993 -6.265699
v -1.607943 -9.000994 -6.065699
vt 0.2606512 0.4126828
vt 0.2606512 0.4471181
vt 0.4506302 0.4471179
vt 0.4506302 0.4126826
vt 0.2606512 0.3554786
vt 0.2606512 0.389801
vt 0.4506302 0.3898008
vt 0.4506302 0.3554785
vt 0.2606511 0.298273
vt 0.2606511 0.332596
vt 0.4506302 0.3325959
vt 0.4506302 0.2982729
vt 0.2606512 0.4356711
vt 0.2606512 0.4699948
vt 0.4506302 0.4699948
vt 0.4506302 0.4356711
vt 0.2606513 0.3784621
vt 0.2606513 0.4127868
vt 0.4506303 0.4127868
vt 0.4506303 0.378462
vt 0.2606512 0.3212514
vt 0.2606513 0.355577
vt 0.4506303 0.3555769
vt 0.4506303 0.3212513
vt 0.2606512 0.4585522
vt 0.2606512 0.4928784
vt 0.4506302 0.4928784
vt 0.4506302 0.4585522
vt 0.2606512 0.4013408
vt 0.2606512 0.4356663
vt 0.4506303 0.4356661
vt 0.4506302 0.4013406
vt 0.2606512 0.3441306
vt 0.2606512 0.3784556
vt 0.4506302 0.3784554
vt 0.4506302 0.3441304
vt 0.2606512 0.2869209
vt 0.2606512 0.3212456
vt 0.4506302 0.3212456
vt 0.4506302 0.2869209
vt 0.2606512 0.469994
vt 0.4506303 0.469994
vt 0.4506303 0.43567
vt 0.2606512 0.43567
vt 0.2606512 0.3784632
vt 0.2606512 0.4127865
vt 0.4506304 0.4127863
vt 0.4506303 0.378463
vt 0.2606513 0.3212571
vt 0.2606513 0.3555799
vt 0.4506304 0.3555799
vt 0.4506304 0.3212571
vt 0.2606512 0.4585559
vt 0.2606512 0.4928784
vt 0.4506302 0.4928784
vt 0.4506302 0.4585559
vt 0.2606512 0.4013517
vt 0.2606512 0.4356737
vt 0.4506302 0.4356737
vt 0.4506302 0.4013517
vt 0.2606512 0.3441484
vt 0.2606512 0.37847
vt 0.4506302 0.37847
vt 0.4506302 0.3441484
vt 0.2606512 0.3212671
vt 0.4506302 0.3212671
vt 0.4506302 0.2869459
vt 0.2606512 0.2869459
vt 0.2606512 0.4356768
vt 0.2606512 0.4699975
vt 0.4506303 0.4699975
vt 0.4506303 0.4356768
vt 0.2606512 0.3784761
vt 0.2606512 0.4127963
vt 0.4506303 0.4127963
vt 0.4506303 0.3784761
vt 0.2606512 0.3213901
vt 0.2606512 0.355596
vt 0.4506303 0.3555958
vt 0.4506303 0.3213901
vt 0.2606512 0.4126828
vt 0.4506302 0.4126826
vt 0.4506302 0.3898008
vt 0.2606512 0.389801
vt 0.2606512 0.3554786
vt 0.4506302 0.3554785
vt 0.4506302 0.3325959
vt 0.2606511 0.332596
vt 0.2606512 0.4928784
vt 0.4506303 0.4928784
vt 0.4506302 0.4699948
vt 0.2606512 0.4699948
vt 0.2606512 0.4356711
vt 0.4506302 0.4356711
vt 0.4506303 0.4127868
vt 0.2606513 0.4127868
vt 0.2606513 0.3784621
vt 0.4506303 0.378462
vt 0.4506303 0.3555769
vt 0.2606513 0.355577
vt 0.2606512 0.3212514
vt 0.4506303 0.3212513
vt 0.4506303 0.2983653
vt 0.2606512 0.2983654
vt 0.2606512 0.4585522
vt 0.4506302 0.4585522
vt 0.4506303 0.4356661
vt 0.2606512 0.4356663
vt 0.2606512 0.4013408
vt 0.4506302 0.4013406
vt 0.4506302 0.3784554
vt 0.2606512 0.3784556
vt 0.2606512 0.3441306
vt 0.4506302 0.3441304
vt 0.4506302 0.3212456
vt 0.2606512 0.3212456
vt 0.2606512 0.469994
vt 0.2606512 0.4928784
vt 0.4506303 0.4928784
vt 0.4506303 0.469994
vt 0.2606512 0.43567
vt 0.4506303 0.43567
vt 0.4506304 0.4127863
vt 0.2606512 0.4127865
vt 0.2606512 0.3784632
vt 0.4506303 0.378463
vt 0.4506304 0.3555799
vt 0.2606513 0.3555799
vt 0.2606513 0.3212571
vt 0.4506304 0.3212571
vt 0.4506304 0.2983742
vt 0.2606514 0.2983744
vt 0.2606512 0.4585559
vt 0.4506302 0.4585559
vt 0.4506302 0.4356737
vt 0.2606512 0.4356737
vt 0.2606512 0.4013517
vt 0.4506302 0.4013517
vt 0.4506302 0.37847
vt 0.2606512 0.37847
vt 0.2606512 0.3212671
vt 0.2606512 0.3441484
vt 0.4506302 0.3441484
vt 0.4506302 0.3212671
vt 0.2606512 0.4928784
vt 0.4506303 0.4928782
vt 0.4506303 0.4699975
vt 0.2606512 0.4699975
vt 0.2606512 0.4356768
vt 0.4506303 0.4356768
vt 0.4506303 0.4127963
vt 0.2606512 0.4127963
vt 0.2606512 0.3784761
vt 0.4506303 0.3784761
vt 0.4506303 0.3555958
vt 0.2606512 0.355596
vt 0.2606512 0.4126828
vt 0.2606512 0.4471181
vt 0.4506302 0.4471179
vt 0.4506302 0.4126826
vt 0.2606512 0.4928784
vt 0.4506303 0.4928782
vt 0.4506302 0.4471179
vt 0.2606512 0.4471181
vt 0.2606512 0.3554786
vt 0.2606512 0.389801
vt 0.4506302 0.3898008
vt 0.4506302 0.3554785
vt 0.2606511 0.298273
vt 0.2606511 0.332596
vt 0.4506302 0.3325959
vt 0.4506302 0.2982729
vt 0.2606512 0.4356711
vt 0.2606512 0.4699948
vt 0.4506302 0.4699948
vt 0.4506302 0.4356711
vt 0.2606513 0.3784621
vt 0.2606513 0.4127868
vt 0.4506303 0.4127868
vt 0.4506303 0.378462
vt 0.2606512 0.3212514
vt 0.2606513 0.355577
vt 0.4506303 0.3555769
vt 0.4506303 0.3212513
vt 0.2606512 0.4585522
vt 0.2606512 0.4928784
vt 0.4506302 0.4928784
vt 0.4506302 0.4585522
vt 0.2606512 0.4013408
vt 0.2606512 0.4356663
vt 0.4506303 0.4356661
vt 0.4506302 0.4013406
vt 0.2606512 0.3441306
vt 0.2606512 0.3784556
vt 0.4506302 0.3784554
vt 0.4506302 0.3441304
vt 0.2606512 0.2869209
vt 0.2606512 0.3212456
vt 0.4506302 0.3212456
vt 0.4506302 0.2869209
vt 0.2606512 0.4126828
vt 0.4506302 0.4126826
vt 0.4506302 0.3898008
vt 0.2606512 0.389801
vt 0.2606512 0.3554786
vt 0.4506302 0.3554785
vt 0.4506302 0.3325959
vt 0.2606511 0.332596
vt 0.2606512 0.4928784
vt 0.4506303 0.4928784
vt 0.4506302 0.4699948
vt 0.2606512 0.4699948
vt 0.2606512 0.4356711
vt 0.4506302 0.4356711
vt 0.4506303 0.4127868
vt 0.2606513 0.4127868
vt 0.2606513 0.3784621
vt 0.4506303 0.378462
vt 0.4506303 0.3555769
vt 0.2606513 0.355577
vt 0.2606512 0.3212514
vt 0.4506303 0.3212513
vt 0.4506303 0.2983653
vt 0.2606512 0.2983654
vt 0.2606512 0.4585522
vt 0.4506302 0.4585522
vt 0.4506303 0.4356661
vt 0.2606512 0.4356663
vt 0.2606512 0.4013408
vt 0.4506302 0.4013406
vt 0.4506302 0.3784554
vt 0.2606512 0.3784556
vt 0.2606512 0.3441306
vt 0.4506302 0.3441304
vt 0.4506302 0.3212456
vt 0.2606512 0.3212456
vt 0.2606512 0.4471181
vt 0.2606512 0.4699982
vt 0.4506303 0.469998
vt 0.4506302 0.4471179
vn 3.157009E-07 -0.03104429 0.999518
vn 3.157009E-07 -0.03104429 0.999518
vn 3.15701E-07 -0.03104429 0.999518
vn 3.157009E-07 -0.03104429 0.999518
vn 8.043916E-07 -0.0310448 0.9995179
vn 8.043916E-07 -0.0310448 0.9995179
vn 8.043917E-07 -0.0310448 0.9995179
vn 8.043916E-07 -0.0310448 0.9995179
vn 4.735545E-07 -0.03104268 0.999518
vn 4.735546E-07 -0.03104268 0.999518
vn 4.735546E-07 -0.03104268 0.999518
vn 4.735546E-07 -0.03104268 0.999518
vn 0 -0.03104379 0.999518
vn 0 -0.03104379 0.999518
vn 0 -0.03104379 0.999518
vn 0 -0.03104379 0.999518
vn 3.055495E-07 -0.03104373 0.999518
vn 3.055495E-07 -0.03104373 0.999518
vn 3.055495E-07 -0.03104372 0.999518
vn 3.055495E-07 -0.03104372 0.999518
vn 2.241775E-07 -0.0310443 0.999518
vn 2.241776E-07 -0.0310443 0.999518
vn 2.241776E-07 -0.0310443 0.999518
vn 2.241775E-07 -0.0310443 0.999518
vn 3.870066E-07 -0.03104423 0.999518
vn 3.870067E-07 -0.03104423 0.999518
vn 3.870067E-07 -0.03104423 0.999518
vn 3.870067E-07 -0.03104423 0.999518
vn 3.004586E-07 -0.03104375 0.999518
vn 3.004587E-07 -0.03104375 0.999518
vn 3.004586E-07 -0.03104375 0.999518
vn 3.004587E-07 -0.03104375 0.999518
vn 3.056336E-07 -0.03104366 0.999518
vn 3.056337E-07 -0.03104366 0.999518
vn 3.056337E-07 -0.03104366 0.999518
vn 3.056336E-07 -0.03104366 0.999518
vn 3.10556E-07 -0.03104375 0.999518
vn 3.10556E-07 -0.03104376 0.999518
vn 3.10556E-07 -0.03104376 0.999518
vn 3.10556E-07 -0.03104375 0.999518
vn 3.105559E-07 -0.03104376 0.999518
vn 3.10556E-07 -0.03104376 0.999518
vn 3.105559E-07 -0.03104375 0.999518
vn 3.105559E-07 -0.03104376 0.999518
vn 0 -0.03104169 0.999518
vn 0 -0.03104169 0.999518
vn 0 -0.03104169 0.999518
vn 0 -0.03104169 0.999518
vn 0 -0.03104226 0.999518
vn 0 -0.03104226 0.999518
vn 0 -0.03104226 0.999518
vn 0 -0.03104226 0.999518
vn 0 -0.03104429 0.999518
vn 0 -0.03104429 0.999518
vn 0 -0.03104429 0.999518
vn 0 -0.03104429 0.999518
vn -1.680057E-07 -0.03104274 0.999518
vn -1.680057E-07 -0.03104274 0.999518
vn -1.680057E-07 -0.03104274 0.999518
vn -1.680057E-07 -0.03104274 0.999518
vn -1.680057E-07 -0.03104274 0.999518
vn -1.680057E-07 -0.03104274 0.999518
vn -1.680057E-07 -0.03104274 0.999518
vn -1.680057E-07 -0.03104274 0.999518
vn 0 -0.03104429 0.999518
vn 0 -0.03104429 0.999518
vn 0 -0.03104429 0.999518
vn 0 -0.03104429 0.999518
vn 0 -0.03104262 0.999518
vn 0 -0.03104262 0.999518
vn 0 -0.03104262 0.999518
vn 0 -0.03104262 0.999518
vn 0 -0.03104525 0.9995179
vn 0 -0.03104525 0.9995179
vn 0 -0.03104525 0.9995179
vn 0 -0.03104525 0.9995179
vn 0 -0.03104547 0.9995179
vn 0 -0.03104547 0.9995179
vn 0 -0.03104547 0.9995179
vn 0 -0.03104547 0.9995179
vn -3.259866E-07 -1 0
vn -3.259867E-07 -1 0
vn -3.259867E-07 -1 0
vn -3.259867E-07 -1 0
vn -3.259867E-07 -1 0
vn -3.259867E-07 -1 0
vn -3.259867E-07 -1 0
vn -3.259867E-07 -1 0
vn -6.519733E-07 -1 0
vn -6.519733E-07 -1 0
vn -6.519734E-07 -1 0
vn -6.519734E-07 -1 0
vn -6.519739E-07 -1 -3.051762E-06
vn -6.519739E-07 -1 -3.051762E-06
vn -6.519739E-07 -1 -3.051762E-06
vn -6.51974E-07 -1 -3.051763E-06
vn -6.519734E-07 -1 0
vn -6.519734E-07 -1 0
vn -6.519734E-07 -1 0
vn -6.519734E-07 -1 0
vn -6.519733E-07 -1 0
vn -6.519733E-07 -1 0
vn -6.519734E-07 -1 0
vn -6.519733E-07 -1 0
vn -6.519734E-07 -1 0
vn -6.519734E-07 -1 0
vn -6.519734E-07 -1 0
vn -6.519734E-07 -1 0
vn -8.149682E-07 -1 -4.577636E-06
vn -8.149682E-07 -1 -4.577636E-06
vn -8.149682E-07 -1 -4.577636E-06
vn -8.149682E-07 -1 -4.577636E-06
vn -4.889804E-07 -1 -1.525879E-06
vn -4.889805E-07 -1 -1.525879E-06
vn -4.889804E-07 -1 -1.525879E-06
vn -4.889804E-07 -1 -1.525879E-06
vn -6.519734E-07 -1 0
vn -6.519736E-07 -1 0
vn -6.519734E-07 -1 0
vn -6.519734E-07 -1 0
vn -1.629936E-07 -1 -1.525877E-06
vn -1.629936E-07 -1 -1.525877E-06
vn -1.629936E-07 -1 -1.525877E-06
vn -1.629936E-07 -1 -1.525877E-06
vn -4.889801E-07 -1 -1.525872E-06
vn -4.889801E-07 -1 -1.525872E-06
vn -4.889801E-07 -1 -1.525872E-06
vn -4.8898E-07 -1 -1.525872E-06
vn -3.259866E-07 -1 0
vn -3.259866E-07 -1 0
vn -3.259866E-07 -1 0
vn -3.259866E-07 -1 0
vn -1.629933E-07 -1 1.525877E-06
vn -1.629933E-07 -1 1.525877E-06
vn -1.629933E-07 -1 1.525877E-06
vn -1.629933E-07 -1 1.525877E-06
vn -3.259867E-07 -1 0
vn -3.259867E-07 -1 0
vn -3.259867E-07 -1 0
vn -3.259867E-07 -1 0
vn 1.629952E-07 -1 -7.6294E-06
vn 1.629952E-07 -1 -7.629401E-06
vn 1.629952E-07 -1 -7.6294E-06
vn 1.629952E-07 -1 -7.6294E-06
vn -3.259867E-07 -1 -3.051758E-06
vn -3.259867E-07 -1 -3.051758E-06
vn -3.259867E-07 -1 -3.051759E-06
vn -3.259867E-07 -1 -3.051759E-06
vn 0 -1 0
vn 0 -1 0
vn 0 -1 0
vn 0 -1 0
vn -4.889801E-07 -1 1.525882E-06
vn -4.889801E-07 -1 1.525882E-06
vn -4.889801E-07 -1 1.525882E-06
vn -4.889801E-07 -1 1.525882E-06
vn 5.601103E-07 -0.03104385 0.999518
vn 5.601103E-07 -0.03104385 0.999518
vn 5.601103E-07 -0.03104385 0.999518
vn 5.601103E-07 -0.03104385 0.999518
vn -6.519755E-07 -1 -6.557977E-06
vn -6.519755E-07 -1 -6.557977E-06
vn -6.519755E-07 -1 -6.557977E-06
vn -6.519754E-07 -1 -6.557977E-06
vn 0 -0.03104226 0.999518
vn 0 -0.03104226 0.999518
vn 0 -0.03104226 0.999518
vn 0 -0.03104226 0.999518
vn 0 -0.03104372 0.999518
vn 0 -0.03104372 0.999518
vn 0 -0.03104372 0.999518
vn 0 -0.03104372 0.999518
vn 3.105567E-07 -0.03104382 0.999518
vn 3.105567E-07 -0.03104382 0.999518
vn 3.105566E-07 -0.03104382 0.999518
vn 3.105566E-07 -0.03104382 0.999518
vn 3.054653E-07 -0.03104379 0.999518
vn 3.054653E-07 -0.03104379 0.999518
vn 3.054652E-07 -0.03104378 0.999518
vn 3.054652E-07 -0.03104378 0.999518
vn 1.528172E-07 -0.0310427 0.999518
vn 1.528172E-07 -0.03104271 0.999518
vn 1.528172E-07 -0.03104271 0.999518
vn 1.528172E-07 -0.03104271 0.999518
vn 3.258295E-07 -0.03104379 0.999518
vn 3.258295E-07 -0.03104379 0.999518
vn 3.258295E-07 -0.03104379 0.999518
vn 3.258295E-07 -0.03104379 0.999518
vn 0 -0.03104379 0.999518
vn 0 -0.03104379 0.999518
vn 0 -0.03104379 0.999518
vn 0 -0.03104379 0.999518
vn 1.528171E-07 -0.03104677 0.9995179
vn 1.528171E-07 -0.03104677 0.9995179
vn 1.528171E-07 -0.03104677 0.9995179
vn 1.528171E-07 -0.03104677 0.9995179
vn -1.730118E-07 -0.03104271 0.999518
vn -1.730118E-07 -0.03104271 0.999518
vn -1.730118E-07 -0.03104271 0.999518
vn -1.730118E-07 -0.03104271 0.999518
vn 0 -1 0
vn 0 -1 0
vn 0 -1 0
vn 0 -1 0
vn 0 -1 0
vn 0 -1 0
vn 0 -1 0
vn 0 -1 0
vn -4.889798E-07 -1 1.525877E-06
vn -4.889798E-07 -1 1.525877E-06
vn -4.889798E-07 -1 1.525877E-06
vn -4.889799E-07 -1 1.525877E-06
vn -6.519734E-07 -1 0
vn -6.519734E-07 -1 0
vn -6.519734E-07 -1 0
vn -6.519734E-07 -1 0
vn -6.519734E-07 -1 0
vn -6.519734E-07 -1 0
vn -6.519734E-07 -1 0
vn -6.519734E-07 -1 0
vn 0 -1 0
vn 0 -1 0
vn 0 -1 0
vn 0 -1 0
vn 0 -1 0
vn 0 -1 0
vn 0 -1 0
vn 0 -1 0
vn 0 -1 0
vn 0 -1 0
vn 0 -1 0
vn 0 -1 0
vn -3.259866E-07 -1 -3.051767E-06
vn -3.259866E-07 -1 -3.051767E-06
vn -3.259866E-07 -1 -3.051767E-06
vn -3.259866E-07 -1 -3.051767E-06
vn -4.889806E-07 -1 -1.525879E-06
vn -4.889806E-07 -1 -1.525879E-06
vn -4.889806E-07 -1 -1.525879E-06
vn -4.889806E-07 -1 -1.525879E-06
g Hall_Stair_0
f 3/3/3 2/2/2 1/1/1
f 4/4/4 3/3/3 1/1/1
f 7/7/7 6/6/6 5/5/5
f 8/8/8 7/7/7 5/5/5
f 11/11/11 10/10/10 9/9/9
f 12/12/12 11/11/11 9/9/9
f 15/15/15 14/14/14 13/13/13
f 16/16/16 15/15/15 13/13/13
f 19/19/19 18/18/18 17/17/17
f 20/20/20 19/19/19 17/17/17
f 23/23/23 22/22/22 21/21/21
f 24/24/24 23/23/23 21/21/21
f 27/27/27 26/26/26 25/25/25
f 28/28/28 27/27/27 25/25/25
f 31/31/31 30/30/30 29/29/29
f 32/32/32 31/31/31 29/29/29
f 35/35/35 34/34/34 33/33/33
f 36/36/36 35/35/35 33/33/33
f 39/39/39 38/38/38 37/37/37
f 40/40/40 39/39/39 37/37/37
f 43/43/43 42/42/42 41/41/41
f 44/44/44 43/43/43 41/41/41
f 47/47/47 46/46/46 45/45/45
f 48/48/48 47/47/47 45/45/45
f 51/51/51 50/50/50 49/49/49
f 52/52/52 51/51/51 49/49/49
f 55/55/55 54/54/54 53/53/53
f 56/56/56 55/55/55 53/53/53
f 59/59/59 58/58/58 57/57/57
f 60/60/60 59/59/59 57/57/57
f 63/63/63 62/62/62 61/61/61
f 64/64/64 63/63/63 61/61/61
f 67/67/67 66/66/66 65/65/65
f 68/68/68 67/67/67 65/65/65
f 71/71/71 70/70/70 69/69/69
f 72/72/72 71/71/71 69/69/69
f 75/75/75 74/74/74 73/73/73
f 76/76/76 75/75/75 73/73/73
f 79/79/79 78/78/78 77/77/77
f 80/80/80 79/79/79 77/77/77
f 83/83/83 82/82/82 81/81/81
f 84/84/84 83/83/83 81/81/81
f 87/87/87 86/86/86 85/85/85
f 88/88/88 87/87/87 85/85/85
f 91/91/91 90/90/90 89/89/89
f 92/92/92 91/91/91 89/89/89
f 95/95/95 94/94/94 93/93/93
f 96/96/96 95/95/95 93/93/93
f 99/99/99 98/98/98 97/97/97
f 100/100/100 99/99/99 97/97/97
f 103/103/103 102/102/102 101/101/101
f 104/104/104 103/103/103 101/101/101
f 107/107/107 106/106/106 105/105/105
f 108/108/108 107/107/107 105/105/105
f 111/111/111 110/110/110 109/109/109
f 112/112/112 111/111/111 109/109/109
f 115/115/115 114/114/114 113/113/113
f 116/116/116 115/115/115 113/113/113
f 119/119/119 118/118/118 117/117/117
f 120/120/120 119/119/119 117/117/117
f 123/123/123 122/122/122 121/121/121
f 124/124/124 123/123/123 121/121/121
f 127/127/127 126/126/126 125/125/125
f 128/128/128 127/127/127 125/125/125
f 131/131/131 130/130/130 129/129/129
f 132/132/132 131/131/131 129/129/129
f 135/135/135 134/134/134 133/133/133
f 136/136/136 135/135/135 133/133/133
f 139/139/139 138/138/138 137/137/137
f 140/140/140 139/139/139 137/137/137
f 143/143/143 142/142/142 141/141/141
f 144/144/144 143/143/143 141/141/141
f 147/147/147 146/146/146 145/145/145
f 148/148/148 147/147/147 145/145/145
f 151/151/151 150/150/150 149/149/149
f 152/152/152 151/151/151 149/149/149
f 155/155/155 154/154/154 153/153/153
f 156/156/156 155/155/155 153/153/153
f 159/159/159 158/158/158 157/157/157
f 160/160/160 159/159/159 157/157/157
f 163/163/163 162/162/162 161/161/161
f 164/164/164 163/163/163 161/161/161
f 167/167/167 166/166/166 165/165/165
f 168/168/168 167/167/167 165/165/165
f 171/171/171 170/170/170 169/169/169
f 172/172/172 171/171/171 169/169/169
f 175/175/175 174/174/174 173/173/173
f 176/176/176 175/175/175 173/173/173
f 179/179/179 178/178/178 177/177/177
f 180/180/180 179/179/179 177/177/177
f 183/183/183 182/182/182 181/181/181
f 184/184/184 183/183/183 181/181/181
f 187/187/187 186/186/186 185/185/185
f 188/188/188 187/187/187 185/185/185
f 191/191/191 190/190/190 189/189/189
f 192/192/192 191/191/191 189/189/189
f 195/195/195 194/194/194 193/193/193
f 196/196/196 195/195/195 193/193/193
f 199/199/199 198/198/198 197/197/197
f 200/200/200 199/199/199 197/197/197
f 203/203/203 202/202/202 201/201/201
f 204/204/204 203/203/203 201/201/201
f 207/207/207 206/206/206 205/205/205
f 208/208/208 207/207/207 205/205/205
f 211/211/211 210/210/210 209/209/209
f 212/212/212 211/211/211 209/209/209
f 215/215/215 214/214/214 213/213/213
f 216/216/216 215/215/215 213/213/213
f 219/219/219 218/218/218 217/217/217
f 220/220/220 219/219/219 217/217/217
f 223/223/223 222/222/222 221/221/221
f 224/224/224 223/223/223 221/221/221
f 227/227/227 226/226/226 225/225/225
f 228/228/228 227/227/227 225/225/225
f 231/231/231 230/230/230 229/229/229
f 232/232/232 231/231/231 229/229/229
f 235/235/235 234/234/234 233/233/233
f 236/236/236 235/235/235 233/233/233
f 239/239/239 238/238/238 237/237/237
f 240/240/240 239/239/239 237/237/237
