g Hall_Carpet_Long_LOD1
v 0.9876348 -0.001516614 1.997629
v -0.9740399 -0.001532755 2.000109
v 0.9759643 -0.001543684 2.008714
v 0.9969159 -0.001523061 -1.992424
v -0.9854687 -0.001527557 1.988878
v -0.9886224 -0.001496506 -2.005807
v -1.00013 -0.001485047 -1.994013
v 0.9852173 -0.001539969 -2.004391
v 0.9816388 0.01609466 1.99148
v 0.9969159 -0.001523061 -1.992424
v 0.9876348 -0.001516614 1.997629
v 0.9759643 -0.001543684 2.008714
v 0.9704071 0.01586657 2.0024
v -0.9740399 -0.001532755 2.000109
v -0.9683258 0.01552212 1.993903
v -0.9854687 -0.001527557 1.988878
v 0.9673935 0.01607757 1.987783
v 0.9907776 0.01555688 -1.986625
v 0.9760869 0.01556572 -1.983674
v 0.9793988 0.0155649 -1.998307
v 0.9852173 -0.001539969 -2.004391
v -0.9886224 -0.001496506 -2.005807
v -0.9647896 0.01557228 1.979643
v -0.9793408 0.01561556 1.982882
v -0.9938363 0.01558786 -1.987927
v -1.00013 -0.001485047 -1.994013
v -0.9792764 0.01557584 -1.984904
v -0.9826871 0.01553856 -1.999495
vt 0.5032341 0.006029321
vt 0.5032344 0.006282885
vt 0.5032356 0.00603083
vt 0.5027183 0.006028103
vt 0.503233 0.006284393
vt 0.5027167 0.006284801
vt 0.5027182 0.006286252
vt 0.5027168 0.006029669
vt 0.5102865 0.4916859
vt 0.5060316 0.0195269
vt 0.5079017 0.4933594
vt 0.5099992 0.4953233
vt 0.5113652 0.4927876
vt 0.7419972 0.4935043
vt 0.7404292 0.4911319
vt 0.7439209 0.4915344
vt 0.5117763 0.4912105
vt 0.5084262 0.02103407
vt 0.5099714 0.02141575
vt 0.5095631 0.01987153
vt 0.5080311 0.01748963
vt 0.7430029 0.01691337
vt 0.7399847 0.489615
vt 0.7415107 0.490028
vt 0.7426597 0.02046246
vt 0.7450389 0.01892065
vt 0.7411329 0.02086541
vt 0.7415528 0.01932946
vn 7.228052E-06 -0.9999998 -0.0007910634
vn -0.0001571799 -1 -8.58671E-05
vn 5.147643E-06 -0.999997 -0.002436638
vn -1.283682E-05 -0.9999999 0.0004758703
vn -0.0002481365 -1 -0.0001240762
vn -0.0003401702 -1 -3.791041E-06
vn -0.001002855 -0.9999995 -6.98151E-06
vn -2.304914E-05 -0.999999 0.001435378
vn 0.5882685 0.7777742 0.2213765
vn 0.8278518 0.4221871 -0.36935
vn 0.8212326 0.4159645 0.3905773
vn 0.3608121 0.4188097 0.8333145
vn 0.2074052 0.7765802 0.5949003
vn -0.3713124 0.4248123 0.825628
vn -0.2122167 0.7818235 0.5862731
vn -0.8217465 0.4248818 0.3797472
vn -0.001397808 0.9999762 0.006764468
vn 0.588223 0.7816072 -0.2075669
vn 0.0002577352 1 -4.706068E-05
vn 0.2164694 0.7801985 -0.5868827
vn 0.379768 0.4220189 -0.823211
vn -0.3778661 0.4356507 -0.8169612
vn 0.001419404 0.9999975 0.001759853
vn -0.5840902 0.7832112 0.213117
vn -0.5840657 0.7857139 -0.2037672
vn -0.8221403 0.4342827 -0.3680813
vn 0.0004896882 0.9999992 -0.001251039
vn -0.2151821 0.7834511 -0.5830103
g Hall_Carpet_Long_LOD1_0
f 3/3/3 2/2/2 1/1/1
f 2/2/2 4/4/4 1/1/1
f 5/5/5 4/4/4 2/2/2
f 6/6/6 4/4/4 5/5/5
f 7/7/7 6/6/6 5/5/5
f 8/8/8 4/4/4 6/6/6
f 11/11/11 10/10/10 9/9/9
f 11/11/11 9/9/9 12/12/12
f 13/13/13 12/12/12 9/9/9
f 12/12/12 13/13/13 14/14/14
f 15/15/15 14/14/14 13/13/13
f 14/14/14 15/15/15 16/16/16
f 9/9/9 17/17/17 13/13/13
f 13/13/13 17/17/17 15/15/15
f 18/18/18 9/9/9 10/10/10
f 17/17/17 9/9/9 19/19/19
f 18/18/18 19/19/19 9/9/9
f 18/18/18 10/10/10 20/20/20
f 20/20/20 19/19/19 18/18/18
f 21/21/21 20/20/20 10/10/10
f 21/21/21 22/22/22 20/20/20
f 23/23/23 15/15/15 17/17/17
f 17/17/17 19/19/19 23/23/23
f 24/24/24 16/16/16 15/15/15
f 15/15/15 23/23/23 24/24/24
f 24/24/24 25/25/25 16/16/16
f 24/24/24 23/23/23 25/25/25
f 26/26/26 16/16/16 25/25/25
f 26/26/26 25/25/25 22/22/22
f 27/27/27 23/23/23 19/19/19
f 19/19/19 20/20/20 27/27/27
f 27/27/27 25/25/25 23/23/23
f 28/28/28 20/20/20 22/22/22
f 28/28/28 22/22/22 25/25/25
f 28/28/28 27/27/27 20/20/20
f 25/25/25 27/27/27 28/28/28
