g Hall_Armchai_Soft_LOD1
v 0.2765639 0.4907516 -0.07387237
v 0.2639671 0.4385765 -0.2036887
v 0.2626395 0.3609308 -0.06855316
v 0.2765639 0.4907516 -0.07387237
v 0.2626395 0.3609308 -0.06855316
v 0.2639671 0.3510205 0.009452973
v 0.2798518 0.4777109 0.1759567
v 0.2638292 0.3641306 0.2056573
v 0.2765639 0.4907516 -0.07387237
v 0.2638292 0.3641306 0.2056573
v 0.2630291 0.4895035 0.3759903
v 0.2569951 0.396073 0.3946417
v 0.2849259 0.6208903 -0.1974279
v 0.2639671 0.4385765 -0.2036887
v 0.2639671 0.5714601 -0.3015323
v 0.2639671 0.8995779 -0.4169954
v 0.2793521 0.9344653 -0.3105178
v 0.2571869 0.9222148 -0.4235772
v 0.2639671 0.8995779 -0.4169954
v 0.2746745 0.950058 -0.3317478
v -0.2633366 0.4385765 -0.2036887
v -0.2759335 0.4907516 -0.07387237
v -0.2620091 0.3609308 -0.06855316
v -0.2620091 0.3609308 -0.06855316
v -0.2759335 0.4907516 -0.07387237
v -0.2633368 0.3510205 0.009452973
v -0.2792215 0.4777109 0.1759567
v -0.2631989 0.3641306 0.2056573
v -0.2759335 0.4907516 -0.07387237
v -0.2623987 0.4895035 0.3759903
v -0.2631989 0.3641306 0.2056573
v -0.2563646 0.396073 0.3946417
v -0.2633366 0.5714601 -0.3015323
v -0.2633366 0.4385765 -0.2036887
v -0.2842955 0.6208903 -0.1974279
v -0.2633366 0.8995779 -0.4169954
v -0.2787218 0.9344653 -0.3105178
v 0.2639671 0.3073672 0.3600253
v -0.2633366 0.3865739 0.3450015
v 0.2639671 0.3865739 0.3450015
v -0.2633366 0.3073672 0.3600253
v 0.2639671 0.3045489 0.3451666
v -0.2633366 0.3073672 0.3600253
v 0.2639671 0.3073672 0.3600253
v -0.2633366 0.3045489 0.3451666
v 0.2639671 0.3063521 -0.143826
v -0.2633366 0.3777457 -0.1063779
v 0.2639671 0.3777457 -0.1063779
v -0.2633366 0.3063521 -0.143826
v 0.2639671 0.3063521 -0.143826
v -0.2633366 0.3133772 -0.1572189
v -0.2633366 0.3063521 -0.143826
v 0.2639671 0.3133772 -0.1572189
v -0.2470201 0.6009557 0.3738875
v -0.3113365 0.5513284 -0.08826065
v -0.3113365 0.6009557 0.3738875
v -0.2470201 0.5513284 -0.08826065
v -0.3113365 0.5513284 -0.08826065
v -0.3113365 0.6182687 0.3720284
v -0.3113365 0.6009557 0.3738875
v -0.3113365 0.5686412 -0.09011978
v -0.2470201 0.5513284 -0.08826065
v -0.2470201 0.6182687 0.3720284
v -0.2470201 0.5686412 -0.09011978
v -0.2470201 0.6009557 0.3738875
v -0.2589509 0.5971217 0.3187846
v -0.265126 -9.050969E-17 0.3960017
v -0.2651765 -3.814697E-08 0.4247748
v -0.2589509 0.5921752 0.2777364
v -0.2995306 0.5921752 0.2777364
v -0.265126 -9.050969E-17 0.3960017
v -0.2589509 0.5921752 0.2777364
v -0.2933556 -9.050969E-17 0.3960017
v -0.2995306 0.5971217 0.3187846
v -0.2933556 -9.050969E-17 0.3960017
v -0.2995306 0.5921752 0.2777364
v -0.293305 -9.227153E-17 0.4247748
v -0.2995306 0.5971217 0.3187846
v -0.2651765 -3.814697E-08 0.4247748
v -0.293305 -9.227153E-17 0.4247748
v -0.2589509 0.5971217 0.3187846
v -0.2594627 0.5574881 -0.04310425
v -0.2651682 -4.798658E-17 -0.2984534
v -0.2591696 0.5628549 0.004760284
v -0.2653116 -4.604872E-17 -0.3301012
v -0.2594627 0.5574881 -0.04310425
v -0.29317 -4.604872E-17 -0.3301012
v -0.2653116 -4.604872E-17 -0.3301012
v -0.2990189 0.5574881 -0.04310425
v -0.2990189 0.5574881 -0.04310425
v -0.2933133 -4.798658E-17 -0.2984534
v -0.29317 -4.604872E-17 -0.3301012
v -0.299312 0.5628549 0.004760284
v -0.2591696 0.5628549 0.004760284
v -0.2933133 -4.798658E-17 -0.2984534
v -0.299312 0.5628549 0.004760284
v -0.2651682 -4.798658E-17 -0.2984534
v -0.2933556 -9.050969E-17 0.3960017
v -0.2651765 -3.814697E-08 0.4247748
v -0.265126 -9.050969E-17 0.3960017
v -0.293305 -9.227153E-17 0.4247748
v -0.3113365 0.5686412 -0.09011978
v -0.2470201 0.6182687 0.3720284
v -0.3113365 0.6182687 0.3720284
v -0.2470201 0.5686412 -0.09011978
v -0.3113365 0.6182687 0.3720284
v -0.2470201 0.6009557 0.3738875
v -0.3113365 0.6009557 0.3738875
v -0.2470201 0.6182687 0.3720284
v -0.2933133 -4.798658E-17 -0.2984534
v -0.2653116 -4.604872E-17 -0.3301012
v -0.29317 -4.604872E-17 -0.3301012
v -0.2651682 -4.798658E-17 -0.2984534
v -0.2470201 0.5686412 -0.09011978
v -0.3113365 0.5513284 -0.08826065
v -0.2470201 0.5513284 -0.08826065
v -0.3113365 0.5686412 -0.09011978
v 0.2470201 0.6009557 0.3738875
v 0.3113365 0.5513284 -0.08826065
v 0.2470201 0.5513284 -0.08826065
v 0.3113365 0.6009557 0.3738875
v 0.3113365 0.5513284 -0.08826065
v 0.3113365 0.6182687 0.3720284
v 0.3113365 0.5686412 -0.09011978
v 0.3113365 0.6009557 0.3738875
v 0.2470201 0.5513284 -0.08826065
v 0.2470201 0.6182687 0.3720284
v 0.2470201 0.6009557 0.3738875
v 0.2470201 0.5686412 -0.09011978
v 0.2589509 0.5971217 0.3187846
v 0.265126 -9.050969E-17 0.3960017
v 0.2589509 0.5921752 0.2777364
v 0.2651765 -3.814697E-08 0.4247748
v 0.2995306 0.5921752 0.2777364
v 0.265126 -9.050969E-17 0.3960017
v 0.2933556 -9.050969E-17 0.3960017
v 0.2589509 0.5921752 0.2777364
v 0.2995306 0.5971217 0.3187846
v 0.2933556 -9.050969E-17 0.3960017
v 0.293305 -9.227153E-17 0.4247748
v 0.2995306 0.5921752 0.2777364
v 0.2995306 0.5971217 0.3187846
v 0.2651765 -3.814697E-08 0.4247748
v 0.2589509 0.5971217 0.3187846
v 0.293305 -9.227153E-17 0.4247748
v 0.2594627 0.5574881 -0.04310425
v 0.2651682 -4.798658E-17 -0.2984534
v 0.2653116 -4.604872E-17 -0.3301012
v 0.2591696 0.5628549 0.004760284
v 0.2594627 0.5574881 -0.04310425
v 0.29317 -4.604872E-17 -0.3301012
v 0.2990189 0.5574881 -0.04310425
v 0.2653116 -4.604872E-17 -0.3301012
v 0.2990189 0.5574881 -0.04310425
v 0.2933133 -4.798658E-17 -0.2984534
v 0.299312 0.5628549 0.004760284
v 0.29317 -4.604872E-17 -0.3301012
v 0.2591696 0.5628549 0.004760284
v 0.2933133 -4.798658E-17 -0.2984534
v 0.2651682 -4.798658E-17 -0.2984534
v 0.299312 0.5628549 0.004760284
v 0.2933556 -9.050969E-17 0.3960017
v 0.2651765 -3.814697E-08 0.4247748
v 0.293305 -9.227153E-17 0.4247748
v 0.265126 -9.050969E-17 0.3960017
v 0.3113365 0.5686412 -0.09011978
v 0.2470201 0.6182687 0.3720284
v 0.2470201 0.5686412 -0.09011978
v 0.3113365 0.6182687 0.3720284
v 0.3113365 0.6182687 0.3720284
v 0.2470201 0.6009557 0.3738875
v 0.2470201 0.6182687 0.3720284
v 0.3113365 0.6009557 0.3738875
v 0.2933133 -4.798658E-17 -0.2984534
v 0.2653116 -4.604872E-17 -0.3301012
v 0.2651682 -4.798658E-17 -0.2984534
v 0.29317 -4.604872E-17 -0.3301012
v 0.2470201 0.5686412 -0.09011978
v 0.3113365 0.5513284 -0.08826065
v 0.3113365 0.5686412 -0.09011978
v 0.2470201 0.5513284 -0.08826065
v 0.2569951 0.396073 0.3946417
v -0.2631989 0.3641306 0.2056573
v -0.2563646 0.396073 0.3946417
v 0.2638292 0.3641306 0.2056573
v 0.2639671 0.3510205 0.009452973
v -0.2633368 0.3510205 0.009452973
v 0.2626395 0.3609308 -0.06855316
v -0.2620091 0.3609308 -0.06855316
v 0.2639671 0.4385765 -0.2036887
v -0.2620091 0.3609308 -0.06855316
v 0.2639671 0.4385765 -0.2036887
v -0.2633366 0.4385765 -0.2036887
v 0.2639671 0.5714601 -0.3015323
v -0.2633366 0.5714601 -0.3015323
v 0.2639671 0.8995779 -0.4169954
v -0.2633366 0.8995779 -0.4169954
v 0.2571869 0.9222148 -0.4235772
v -0.2565564 0.9222148 -0.4235772
v 0.2571869 0.9222148 -0.4235772
v -0.274044 0.950058 -0.3317478
v -0.2565564 0.9222148 -0.4235772
v 0.2746745 0.950058 -0.3317478
v -0.2787218 0.9344653 -0.3105178
v 0.2793521 0.9344653 -0.3105178
v -0.2842955 0.6208903 -0.1974279
v 0.2849259 0.6208903 -0.1974279
v 0.2765639 0.4907516 -0.07387237
v -0.2759335 0.4907516 -0.07387237
v 0.2798518 0.4777109 0.1759567
v -0.2792215 0.4777109 0.1759567
v -0.2623987 0.4895035 0.3759903
v 0.2630291 0.4895035 0.3759903
v -0.2563646 0.396073 0.3946417
v 0.2569951 0.396073 0.3946417
v -0.2633366 0.8995779 -0.4169954
v -0.274044 0.950058 -0.3317478
v -0.2787218 0.9344653 -0.3105178
v -0.2565564 0.9222148 -0.4235772
vt 0.265625 0.6907959
vt 0.2787289 0.6379207
vt 0.2405723 0.6403079
vt 0.265625 0.6907959
vt 0.2412779 0.6404161
vt 0.2135277 0.6397973
vt 0.1452637 0.6932373
vt 0.1657092 0.6392244
vt 0.265625 0.6907959
vt 0.09493396 0.6447481
vt 0.05371094 0.6982422
vt 0.04491038 0.6551921
vt 0.3549805 0.6904297
vt 0.297265 0.6366552
vt 0.361595 0.637277
vt 0.5134612 0.6470215
vt 0.5043945 0.6943359
vt 0.5251741 0.6492168
vt 0.5139516 0.6471215
vt 0.5166016 0.6933594
vt 0.2787289 0.996841
vt 0.265625 0.9433594
vt 0.2405723 0.9934492
vt 0.2412779 0.9933485
vt 0.265625 0.9433594
vt 0.2135277 0.9934708
vt 0.1452637 0.9406738
vt 0.1657092 0.99449
vt 0.265625 0.9433594
vt 0.05371094 0.9360352
vt 0.09493396 0.9889952
vt 0.04491039 0.978552
vt 0.3618711 0.9981255
vt 0.2972085 0.9972919
vt 0.3549805 0.9438477
vt 0.5134699 0.9903215
vt 0.5044959 0.9397098
vt 0.4067383 0.1254883
vt 0.1958008 0.1577148
vt 0.4067383 0.1577148
vt 0.1958008 0.1254883
vt 0.4067383 0.1162109
vt 0.1958008 0.1220703
vt 0.4067383 0.1220703
vt 0.1958008 0.1162109
vt 0.621582 0.06738281
vt 0.409668 0.09960938
vt 0.621582 0.09960938
vt 0.409668 0.06738281
vt 0.2163086 0.05322266
vt 0.005371094 0.046875
vt 0.005371094 0.05322266
vt 0.2163086 0.046875
vt 0.005371094 0.05712891
vt 0.1914063 0.08300781
vt 0.005371094 0.08300781
vt 0.1914063 0.05712891
vt 0.1918945 0.08544922
vt 0.005371094 0.09326172
vt 0.005371094 0.0859375
vt 0.1918945 0.09228516
vt 0.1928711 0.1313477
vt 0.006347656 0.125
vt 0.1928711 0.1245117
vt 0.006347656 0.1318359
vt 0.4643555 0.04833984
vt 0.2236328 0.05908203
vt 0.2216797 0.04736328
vt 0.4658203 0.06396484
vt 0.8696289 0.06933594
vt 0.6279297 0.05371094
vt 0.8696289 0.05371094
vt 0.6274414 0.06494141
vt 0.25 0.02392578
vt 0.009277344 0.009765625
vt 0.2509766 0.008789063
vt 0.006835938 0.02001953
vt 0.2504883 0.02734375
vt 0.006835938 0.03808594
vt 0.006835938 0.02685547
vt 0.2504883 0.04345703
vt 0.8764648 0.08935547
vt 0.6308594 0.07421875
vt 0.887207 0.07373047
vt 0.625 0.08544922
vt 0.8779297 0.09375
vt 0.6264648 0.1044922
vt 0.6269531 0.09375
vt 0.8779297 0.109375
vt 0.8774414 0.1123047
vt 0.6313477 0.1235352
vt 0.6264648 0.1123047
vt 0.8876953 0.128418
vt 0.8823242 0.1474609
vt 0.6259766 0.1313477
vt 0.8823242 0.1313477
vt 0.6254883 0.1425781
vt 0.5483398 0.3833008
vt 0.5595703 0.3950195
vt 0.5483398 0.3950195
vt 0.5595703 0.3833008
vt 0.1923828 0.09570313
vt 0.005859375 0.121582
vt 0.005859375 0.09619141
vt 0.1923828 0.1206055
vt 0.5722656 0.4545898
vt 0.546875 0.4477539
vt 0.5722656 0.4477539
vt 0.546875 0.4545898
vt 0.7285156 0.269043
vt 0.7163086 0.2797852
vt 0.7163086 0.269043
vt 0.7285156 0.2797852
vt 0.546875 0.4370117
vt 0.5722656 0.4438477
vt 0.546875 0.4438477
vt 0.5722656 0.4370117
vt 0.005371094 0.05712891
vt 0.1914063 0.08300781
vt 0.1914063 0.05712891
vt 0.005371094 0.08300781
vt 0.1918945 0.08544922
vt 0.005371094 0.09326172
vt 0.1918945 0.09228516
vt 0.005371094 0.0859375
vt 0.1928711 0.1313477
vt 0.006347656 0.125
vt 0.006347656 0.1318359
vt 0.1928711 0.1245117
vt 0.4643555 0.04833984
vt 0.2236328 0.05908203
vt 0.4658203 0.06396484
vt 0.2216797 0.04736328
vt 0.8696289 0.06933594
vt 0.6279297 0.05371094
vt 0.6274414 0.06494141
vt 0.8696289 0.05371094
vt 0.25 0.02392578
vt 0.009277344 0.009765625
vt 0.006835938 0.02001953
vt 0.2509766 0.008789063
vt 0.2504883 0.02734375
vt 0.006835938 0.03808594
vt 0.2504883 0.04345703
vt 0.006835938 0.02685547
vt 0.8764648 0.08935547
vt 0.6308594 0.07421875
vt 0.625 0.08544922
vt 0.887207 0.07373047
vt 0.8779297 0.09375
vt 0.6264648 0.1044922
vt 0.8779297 0.109375
vt 0.6269531 0.09375
vt 0.8774414 0.1123047
vt 0.6313477 0.1235352
vt 0.8876953 0.128418
vt 0.6264648 0.1123047
vt 0.8823242 0.1474609
vt 0.6259766 0.1313477
vt 0.6254883 0.1425781
vt 0.8823242 0.1313477
vt 0.5483398 0.3833008
vt 0.5595703 0.3950195
vt 0.5595703 0.3833008
vt 0.5483398 0.3950195
vt 0.1923828 0.09570313
vt 0.005859375 0.121582
vt 0.1923828 0.1206055
vt 0.005859375 0.09619141
vt 0.5722656 0.4545898
vt 0.546875 0.4477539
vt 0.546875 0.4545898
vt 0.5722656 0.4477539
vt 0.7285156 0.269043
vt 0.7163086 0.2797852
vt 0.7285156 0.2797852
vt 0.7163086 0.269043
vt 0.546875 0.4370117
vt 0.5722656 0.4438477
vt 0.5722656 0.4370117
vt 0.546875 0.4438477
vt 0.5371094 0.394043
vt 0.4511719 0.626709
vt 0.5371094 0.6235352
vt 0.4511719 0.3903809
vt 0.3623047 0.3911133
vt 0.3623047 0.6264648
vt 0.3276367 0.3911133
vt 0.3276367 0.6259766
vt 0.2570801 0.390625
vt 0.3276367 0.6259766
vt 0.2570801 0.390625
vt 0.2570801 0.6264648
vt 0.1826172 0.390625
vt 0.1826172 0.6264648
vt 0.02685547 0.390625
vt 0.02685547 0.6264648
vt 0.01660156 0.394043
vt 0.01660156 0.6235352
vt 0.5604615 0.7014835
vt 0.5166016 0.9404297
vt 0.5604615 0.9327992
vt 0.5166016 0.6933594
vt 0.5043945 0.9399414
vt 0.5043945 0.6943359
vt 0.3549805 0.9438477
vt 0.3549805 0.6904297
vt 0.265625 0.6907959
vt 0.265625 0.9433594
vt 0.1452637 0.6932373
vt 0.1452637 0.9406738
vt 0.05371094 0.9360352
vt 0.05371094 0.6982422
vt 0.01013414 0.9328306
vt 0.01013411 0.7014512
vt 0.5138551 0.9871795
vt 0.5166016 0.9404297
vt 0.5043945 0.9399414
vt 0.5250772 0.9859074
vn 0.8378302 0.4918014 0.2370058
vn 0.6196489 -0.5922948 -0.5149974
vn 0.6234755 -0.7408376 -0.2498762
vn 0.8378302 0.4918014 0.2370058
vn 0.6234755 -0.7408376 -0.2498762
vn 0.6492185 -0.7599713 -0.03096792
vn 0.7708221 0.6364497 0.02765772
vn 0.6562563 -0.7465745 0.1093353
vn 0.8378302 0.4918014 0.2370058
vn 0.6562563 -0.7465745 0.1093353
vn 0.5880332 0.6262729 0.5118587
vn 0.544749 -0.4788121 0.6884675
vn 0.8176367 0.3000496 0.4913659
vn 0.6196489 -0.5922948 -0.5149974
vn 0.612515 -0.3692356 -0.6989208
vn 0.673999 -0.130238 -0.7271613
vn 0.7004486 0.4705695 0.5365967
vn 0.4402896 0.4403337 -0.7824649
vn 0.673999 -0.130238 -0.7271613
vn 0.6142164 0.7872311 0.05482042
vn -0.6312551 -0.5775495 -0.5176423
vn -0.8386196 0.4951699 0.2269888
vn -0.6234749 -0.7408378 -0.2498767
vn -0.6234749 -0.7408378 -0.2498767
vn -0.8386196 0.4951699 0.2269888
vn -0.6492185 -0.7599713 -0.03096811
vn -0.7708222 0.6364497 0.02765785
vn -0.6562564 -0.7465744 0.1093355
vn -0.8386196 0.4951699 0.2269888
vn -0.5880332 0.6262727 0.5118589
vn -0.6562564 -0.7465744 0.1093355
vn -0.5447485 -0.4788122 0.6884678
vn -0.6187754 -0.3763649 -0.6895408
vn -0.6312551 -0.5775495 -0.5176423
vn -0.8242062 0.2764968 0.4941999
vn -0.6693547 -0.1399169 -0.7296488
vn -0.6981289 0.4672301 0.5425053
vn 0 0.1863558 0.9824823
vn 0 0.1863558 0.9824823
vn 0 0.1863558 0.9824823
vn 0 0.1863558 0.9824823
vn 0 -0.9824828 0.1863532
vn 0 -0.9824828 0.1863532
vn 0 -0.9824828 0.1863532
vn 0 -0.9824828 0.1863532
vn 0 -0.4645083 0.8855687
vn 0 -0.4645083 0.8855687
vn 0 -0.4645083 0.8855687
vn 0 -0.4645083 0.8855687
vn 0 -0.8855683 -0.4645092
vn 0 -0.8855683 -0.4645092
vn 0 -0.8855683 -0.4645092
vn 0 -0.8855683 -0.4645092
vn 0 -0.9942837 0.1067703
vn 0 -0.9942837 0.1067703
vn 0 -0.9942837 0.1067703
vn 0 -0.9942837 0.1067703
vn -1 0 0
vn -1 0 0
vn -1 0 0
vn -1 0 0
vn 1 0 0
vn 1 0 0
vn 1 0 0
vn 1 0 0
vn 0.9999474 -0.01018022 0.001242281
vn 0.9999473 -0.01011653 0.001734767
vn 0.9999473 -0.01011388 0.001755238
vn 0.9999474 -0.01018219 0.001226995
vn 0 -0.195846 -0.9806347
vn 0 -0.1958459 -0.9806347
vn 0 -0.195846 -0.9806347
vn 0 -0.195846 -0.9806347
vn -0.9999474 -0.01018022 0.001242281
vn -0.9999473 -0.01011653 0.00173478
vn -0.9999474 -0.01018219 0.001226995
vn -0.9999473 -0.01011388 0.001755252
vn 0 0.1747698 0.9846092
vn 2.269954E-07 0.1747698 0.9846092
vn 2.370172E-07 0.1747699 0.9846092
vn 0 0.1747698 0.9846092
vn 0.9999557 -0.007837944 -0.005230485
vn 0.9999565 -0.008147675 -0.004554287
vn 0.9999557 -0.00783099 -0.005245666
vn 0.9999565 -0.008157905 -0.004531955
vn 0 0.4577122 -0.8891005
vn 0 0.4577122 -0.8891005
vn 0 0.4577121 -0.8891005
vn 0 0.4577121 -0.8891005
vn -0.9999557 -0.007838278 -0.005230351
vn -0.9999565 -0.008150089 -0.004549616
vn -0.9999565 -0.008160387 -0.004527133
vn -0.9999557 -0.007831279 -0.005245634
vn 0 -0.4742671 0.880381
vn 0 -0.4742671 0.880381
vn 0 -0.4742671 0.880381
vn 0 -0.4742671 0.880381
vn -6.683104E-07 -1 -6.712758E-07
vn -6.863216E-07 -1 -6.536364E-07
vn 0 -1 -1.325789E-06
vn -1.356167E-06 -1 0
vn 0 0.9942837 -0.1067704
vn 0 0.9942837 -0.1067704
vn 0 0.9942837 -0.1067704
vn 0 0.9942837 -0.1067704
vn 0 0.1067701 0.9942837
vn 0 0.1067701 0.9942837
vn 0 0.1067701 0.9942837
vn 0 0.1067701 0.9942837
vn 0 -1 0
vn 0 -1 0
vn 0 -1 0
vn 0 -1 0
vn 0 -0.1067704 -0.9942837
vn 0 -0.1067704 -0.9942837
vn 0 -0.1067704 -0.9942837
vn 0 -0.1067704 -0.9942837
vn 0 -0.9942837 0.1067703
vn 0 -0.9942837 0.1067703
vn 0 -0.9942837 0.1067703
vn 0 -0.9942837 0.1067703
vn 1 0 0
vn 1 0 0
vn 1 0 0
vn 1 0 0
vn -1 0 0
vn -1 0 0
vn -1 0 0
vn -1 0 0
vn -0.9999474 -0.01018022 0.001242281
vn -0.9999473 -0.01011653 0.001734767
vn -0.9999474 -0.01018219 0.001226995
vn -0.9999473 -0.01011388 0.001755238
vn 0 -0.195846 -0.9806347
vn 0 -0.1958459 -0.9806347
vn 0 -0.195846 -0.9806347
vn 0 -0.195846 -0.9806347
vn 0.9999474 -0.01018022 0.001242281
vn 0.9999473 -0.01011653 0.00173478
vn 0.9999473 -0.01011388 0.001755252
vn 0.9999474 -0.01018219 0.001226995
vn 0 0.1747698 0.9846092
vn -2.269954E-07 0.1747698 0.9846092
vn 0 0.1747698 0.9846092
vn -2.370172E-07 0.1747699 0.9846092
vn -0.9999557 -0.007837944 -0.005230485
vn -0.9999565 -0.008147675 -0.004554287
vn -0.9999565 -0.008157905 -0.004531955
vn -0.9999557 -0.00783099 -0.005245666
vn 0 0.4577122 -0.8891005
vn 0 0.4577122 -0.8891005
vn 0 0.4577121 -0.8891005
vn 0 0.4577121 -0.8891005
vn 0.9999557 -0.007838278 -0.005230351
vn 0.9999565 -0.008150089 -0.004549616
vn 0.9999557 -0.007831279 -0.005245634
vn 0.9999565 -0.008160387 -0.004527133
vn 0 -0.4742671 0.880381
vn 0 -0.4742671 0.880381
vn 0 -0.4742671 0.880381
vn 0 -0.4742671 0.880381
vn 6.683104E-07 -1 -6.712758E-07
vn 6.863216E-07 -1 -6.536364E-07
vn 1.356167E-06 -1 0
vn 0 -1 -1.325789E-06
vn 0 0.9942837 -0.1067704
vn 0 0.9942837 -0.1067704
vn 0 0.9942837 -0.1067704
vn 0 0.9942837 -0.1067704
vn 0 0.1067701 0.9942837
vn 0 0.1067701 0.9942837
vn 0 0.1067701 0.9942837
vn 0 0.1067701 0.9942837
vn 0 -1 0
vn 0 -1 0
vn 0 -1 0
vn 0 -1 0
vn 0 -0.1067704 -0.9942837
vn 0 -0.1067704 -0.9942837
vn 0 -0.1067704 -0.9942837
vn 0 -0.1067704 -0.9942837
vn 0.544749 -0.4788121 0.6884675
vn -0.6562564 -0.7465744 0.1093355
vn -0.5447485 -0.4788122 0.6884678
vn 0.6562563 -0.7465745 0.1093353
vn 0.6492185 -0.7599713 -0.03096792
vn -0.6492185 -0.7599713 -0.03096811
vn 0.6234755 -0.7408376 -0.2498762
vn -0.6234749 -0.7408378 -0.2498767
vn 0.6196489 -0.5922948 -0.5149974
vn -0.6234749 -0.7408378 -0.2498767
vn 0.6196489 -0.5922948 -0.5149974
vn -0.6312551 -0.5775495 -0.5176423
vn 0.612515 -0.3692356 -0.6989208
vn -0.6187754 -0.3763649 -0.6895408
vn 0.673999 -0.130238 -0.7271613
vn -0.6693547 -0.1399169 -0.7296488
vn 0.4402896 0.4403337 -0.7824649
vn -0.4296914 0.4399814 -0.7885313
vn 0.4402896 0.4403337 -0.7824649
vn -0.5969296 0.7995767 0.06596959
vn -0.4296914 0.4399814 -0.7885313
vn 0.6142164 0.7872311 0.05482042
vn -0.6981289 0.4672301 0.5425053
vn 0.7004486 0.4705695 0.5365967
vn -0.8242062 0.2764968 0.4941999
vn 0.8176367 0.3000496 0.4913659
vn 0.8378302 0.4918014 0.2370058
vn -0.8386196 0.4951699 0.2269888
vn 0.7708221 0.6364497 0.02765772
vn -0.7708222 0.6364497 0.02765785
vn -0.5880332 0.6262727 0.5118589
vn 0.5880332 0.6262729 0.5118587
vn -0.5447485 -0.4788122 0.6884678
vn 0.544749 -0.4788121 0.6884675
vn -0.6693547 -0.1399169 -0.7296488
vn -0.5969296 0.7995767 0.06596959
vn -0.6981289 0.4672301 0.5425053
vn -0.4296914 0.4399814 -0.7885313
g Hall_Armchai_Soft_LOD1_0
f 3/3/3 2/2/2 1/1/1
f 6/6/6 5/5/5 4/4/4
f 8/8/8 6/6/6 7/7/7
f 9/9/9 7/7/7 6/6/6
f 7/7/7 11/11/11 10/10/10
f 12/12/12 10/10/10 11/11/11
f 9/9/9 14/14/14 13/13/13
f 15/15/15 13/13/13 14/14/14
f 15/15/15 16/16/16 13/13/13
f 17/17/17 13/13/13 16/16/16
f 19/19/19 18/18/18 17/17/17
f 20/20/20 17/17/17 18/18/18
f 23/23/23 22/22/22 21/21/21
f 26/26/26 25/25/25 24/24/24
f 28/28/28 27/27/27 26/26/26
f 29/29/29 26/26/26 27/27/27
f 27/27/27 31/31/31 30/30/30
f 32/32/32 30/30/30 31/31/31
f 34/34/34 29/29/29 33/33/33
f 35/35/35 33/33/33 29/29/29
f 33/33/33 35/35/35 36/36/36
f 37/37/37 36/36/36 35/35/35
f 40/40/40 39/39/39 38/38/38
f 41/41/41 38/38/38 39/39/39
f 44/44/44 43/43/43 42/42/42
f 45/45/45 42/42/42 43/43/43
f 48/48/48 47/47/47 46/46/46
f 49/49/49 46/46/46 47/47/47
f 52/52/52 51/51/51 50/50/50
f 53/53/53 50/50/50 51/51/51
f 56/56/56 55/55/55 54/54/54
f 57/57/57 54/54/54 55/55/55
f 60/60/60 59/59/59 58/58/58
f 61/61/61 58/58/58 59/59/59
f 64/64/64 63/63/63 62/62/62
f 65/65/65 62/62/62 63/63/63
f 68/68/68 67/67/67 66/66/66
f 69/69/69 66/66/66 67/67/67
f 72/72/72 71/71/71 70/70/70
f 73/73/73 70/70/70 71/71/71
f 76/76/76 75/75/75 74/74/74
f 77/77/77 74/74/74 75/75/75
f 80/80/80 79/79/79 78/78/78
f 81/81/81 78/78/78 79/79/79
f 84/84/84 83/83/83 82/82/82
f 85/85/85 82/82/82 83/83/83
f 88/88/88 87/87/87 86/86/86
f 89/89/89 86/86/86 87/87/87
f 92/92/92 91/91/91 90/90/90
f 93/93/93 90/90/90 91/91/91
f 96/96/96 95/95/95 94/94/94
f 97/97/97 94/94/94 95/95/95
f 100/100/100 99/99/99 98/98/98
f 101/101/101 98/98/98 99/99/99
f 104/104/104 103/103/103 102/102/102
f 105/105/105 102/102/102 103/103/103
f 108/108/108 107/107/107 106/106/106
f 109/109/109 106/106/106 107/107/107
f 112/112/112 111/111/111 110/110/110
f 113/113/113 110/110/110 111/111/111
f 116/116/116 115/115/115 114/114/114
f 117/117/117 114/114/114 115/115/115
f 120/120/120 119/119/119 118/118/118
f 121/121/121 118/118/118 119/119/119
f 124/124/124 123/123/123 122/122/122
f 125/125/125 122/122/122 123/123/123
f 128/128/128 127/127/127 126/126/126
f 129/129/129 126/126/126 127/127/127
f 132/132/132 131/131/131 130/130/130
f 133/133/133 130/130/130 131/131/131
f 136/136/136 135/135/135 134/134/134
f 137/137/137 134/134/134 135/135/135
f 140/140/140 139/139/139 138/138/138
f 141/141/141 138/138/138 139/139/139
f 144/144/144 143/143/143 142/142/142
f 145/145/145 142/142/142 143/143/143
f 148/148/148 147/147/147 146/146/146
f 149/149/149 146/146/146 147/147/147
f 152/152/152 151/151/151 150/150/150
f 153/153/153 150/150/150 151/151/151
f 156/156/156 155/155/155 154/154/154
f 157/157/157 154/154/154 155/155/155
f 160/160/160 159/159/159 158/158/158
f 161/161/161 158/158/158 159/159/159
f 164/164/164 163/163/163 162/162/162
f 165/165/165 162/162/162 163/163/163
f 168/168/168 167/167/167 166/166/166
f 169/169/169 166/166/166 167/167/167
f 172/172/172 171/171/171 170/170/170
f 173/173/173 170/170/170 171/171/171
f 176/176/176 175/175/175 174/174/174
f 177/177/177 174/174/174 175/175/175
f 180/180/180 179/179/179 178/178/178
f 181/181/181 178/178/178 179/179/179
f 184/184/184 183/183/183 182/182/182
f 185/185/185 182/182/182 183/183/183
f 185/185/185 183/183/183 186/186/186
f 187/187/187 186/186/186 183/183/183
f 186/186/186 187/187/187 188/188/188
f 189/189/189 188/188/188 187/187/187
f 188/188/188 189/189/189 190/190/190
f 193/193/193 192/192/192 191/191/191
f 192/192/192 193/193/193 194/194/194
f 195/195/195 194/194/194 193/193/193
f 194/194/194 195/195/195 196/196/196
f 197/197/197 196/196/196 195/195/195
f 196/196/196 197/197/197 198/198/198
f 199/199/199 198/198/198 197/197/197
f 202/202/202 201/201/201 200/200/200
f 203/203/203 200/200/200 201/201/201
f 201/201/201 204/204/204 203/203/203
f 205/205/205 203/203/203 204/204/204
f 204/204/204 206/206/206 205/205/205
f 207/207/207 205/205/205 206/206/206
f 207/207/207 206/206/206 208/208/208
f 209/209/209 208/208/208 206/206/206
f 208/208/208 209/209/209 210/210/210
f 211/211/211 210/210/210 209/209/209
f 211/211/211 212/212/212 210/210/210
f 213/213/213 210/210/210 212/212/212
f 212/212/212 214/214/214 213/213/213
f 215/215/215 213/213/213 214/214/214
f 218/218/218 217/217/217 216/216/216
f 219/219/219 216/216/216 217/217/217
