g Hall_Shelf_Long_LOD1
v -0.4340387 -0.02686272 0.07539751
v -0.4340387 0.0285659 0.1118192
v -0.4340387 -0.03457626 0.05630663
v -0.4340387 0.05697563 -0.002143879
v -0.4340387 -0.04300453 0.04529089
v -0.4340387 -0.04301292 0.05629935
v -0.4340387 -0.06467693 0.02673892
v -0.4340387 -0.07258964 -0.002143884
v -0.4340387 0.05697563 0.1078343
v -0.4340387 0.03101746 0.1246276
v -0.4340387 0.04048324 0.1246276
v -0.4340387 0.05697563 0.13919
v -0.452283 -0.04300453 0.04529088
v -0.452283 -0.03457626 0.05630663
v -0.452283 -0.04301292 0.05629935
v -0.452283 0.05697563 -0.002143884
v -0.452283 -0.02686272 0.07539751
v -0.452283 -0.07258964 -0.002143889
v -0.452283 -0.06467693 0.02673892
v -0.452283 0.05697563 0.1078343
v -0.452283 0.0285659 0.1118191
v -0.452283 0.03101746 0.1246276
v -0.452283 0.04048324 0.1246276
v -0.452283 0.05697563 0.13919
v -0.452283 0.03101746 0.1246276
v -0.4340387 0.0285659 0.1118192
v -0.452283 0.0285659 0.1118191
v -0.4340387 0.03101746 0.1246276
v -0.452283 0.04048324 0.1246276
v -0.4340387 0.03101746 0.1246276
v -0.452283 0.03101746 0.1246276
v -0.4340387 0.04048324 0.1246276
v -0.452283 0.05697563 0.13919
v -0.4340387 0.05697563 0.13919
v -0.452283 -0.06467693 0.02673892
v -0.4340387 -0.07258964 -0.002143884
v -0.452283 -0.07258964 -0.002143889
v -0.4340387 -0.06467693 0.02673892
v -0.452283 -0.04300453 0.04529088
v -0.4340387 -0.04300453 0.04529089
v -0.4340387 -0.04300453 0.04529089
v -0.452283 -0.04301292 0.05629935
v -0.4340387 -0.04301292 0.05629935
v -0.452283 -0.04300453 0.04529088
v -0.4340387 -0.04301292 0.05629935
v -0.452283 -0.03457626 0.05630663
v -0.4340387 -0.03457626 0.05630663
v -0.452283 -0.04301292 0.05629935
v -0.452283 -0.02686272 0.07539751
v -0.4340387 -0.03457626 0.05630663
v -0.452283 -0.03457626 0.05630663
v -0.4340387 -0.02686272 0.07539751
v -0.452283 0.0285659 0.1118191
v -0.4340387 0.0285659 0.1118192
v -0.4340387 0.05697563 0.13919
v -0.452283 0.05697563 0.1078343
v -0.4340387 0.05697563 0.1078343
v -0.452283 0.05697563 0.13919
v -0.4340387 0.05697563 0.1078343
v -0.452283 0.05697563 -0.002143884
v -0.4340387 0.05697563 -0.002143879
v -0.452283 0.05697563 0.1078343
v -0.452283 -0.07258964 -0.002143889
v -0.4340387 0.05697563 -0.002143879
v -0.452283 0.05697563 -0.002143884
v -0.4340387 -0.07258964 -0.002143884
v -0.4866104 0.07258964 0.1473589
v 0.4866104 0.07258964 0.01211222
v 0.4866104 0.07258964 0.1473589
v -0.4866104 0.07258964 0.01211223
v -0.4866104 0.07258964 0.1473589
v -0.5007091 0.05707084 -0.001986394
v -0.4866104 0.07258964 0.01211223
v -0.5007091 0.05707084 0.1614575
v 0.5007091 0.05707084 -0.001986399
v -0.5007091 0.05707084 0.1614575
v 0.5007091 0.05707084 0.1614575
v -0.5007091 0.05707084 -0.001986394
v -0.5007091 0.05707084 -0.001986394
v 0.4866104 0.07258964 0.01211222
v -0.4866104 0.07258964 0.01211223
v 0.5007091 0.05707084 -0.001986399
v 0.4866104 0.07258964 0.01211222
v 0.5007091 0.05707084 0.1614575
v 0.4866104 0.07258964 0.1473589
v 0.5007091 0.05707084 -0.001986399
v 0.5007091 0.05707084 0.1614575
v -0.4866104 0.07258964 0.1473589
v 0.4866104 0.07258964 0.1473589
v -0.5007091 0.05707084 0.1614575
v 0.4521678 -0.02686272 0.07539751
v 0.4521678 0.0285659 0.1118192
v 0.4521678 -0.03457626 0.05630663
v 0.4521678 0.05697563 -0.002143874
v 0.4521678 -0.04300453 0.04529089
v 0.4521678 -0.04301292 0.05629935
v 0.4521678 -0.06467693 0.02673893
v 0.4521678 -0.07258964 -0.002143884
v 0.4521678 0.05697563 0.1078343
v 0.4521678 0.03101746 0.1246276
v 0.4521678 0.04048324 0.1246276
v 0.4521678 0.05697563 0.13919
v 0.4339235 -0.04300453 0.04529089
v 0.4339235 -0.03457626 0.05630663
v 0.4339235 -0.04301292 0.05629935
v 0.4339235 0.05697563 -0.002143884
v 0.4339235 -0.02686272 0.07539751
v 0.4339235 -0.07258964 -0.002143893
v 0.4339235 -0.06467693 0.02673893
v 0.4339235 0.05697563 0.1078343
v 0.4339235 0.0285659 0.1118192
v 0.4339235 0.03101746 0.1246276
v 0.4339235 0.04048324 0.1246276
v 0.4339235 0.05697563 0.13919
v 0.4339235 0.03101746 0.1246276
v 0.4521678 0.0285659 0.1118192
v 0.4339235 0.0285659 0.1118192
v 0.4521678 0.03101746 0.1246276
v 0.4339235 0.04048324 0.1246276
v 0.4521678 0.03101746 0.1246276
v 0.4339235 0.03101746 0.1246276
v 0.4521678 0.04048324 0.1246276
v 0.4339235 0.05697563 0.13919
v 0.4521678 0.05697563 0.13919
v 0.4339235 -0.06467693 0.02673893
v 0.4521678 -0.07258964 -0.002143884
v 0.4339235 -0.07258964 -0.002143893
v 0.4521678 -0.06467693 0.02673893
v 0.4339235 -0.04300453 0.04529089
v 0.4521678 -0.04300453 0.04529089
v 0.4521678 -0.04300453 0.04529089
v 0.4339235 -0.04301292 0.05629935
v 0.4521678 -0.04301292 0.05629935
v 0.4339235 -0.04300453 0.04529089
v 0.4521678 -0.04301292 0.05629935
v 0.4339235 -0.03457626 0.05630663
v 0.4521678 -0.03457626 0.05630663
v 0.4339235 -0.04301292 0.05629935
v 0.4339235 -0.02686272 0.07539751
v 0.4521678 -0.03457626 0.05630663
v 0.4339235 -0.03457626 0.05630663
v 0.4521678 -0.02686272 0.07539751
v 0.4339235 0.0285659 0.1118192
v 0.4521678 0.0285659 0.1118192
v 0.4521678 0.05697563 0.13919
v 0.4339235 0.05697563 0.1078343
v 0.4521678 0.05697563 0.1078343
v 0.4339235 0.05697563 0.13919
v 0.4521678 0.05697563 0.1078343
v 0.4339235 0.05697563 -0.002143884
v 0.4521678 0.05697563 -0.002143874
v 0.4339235 0.05697563 0.1078343
v 0.4339235 -0.07258964 -0.002143893
v 0.4521678 0.05697563 -0.002143874
v 0.4339235 0.05697563 -0.002143884
v 0.4521678 -0.07258964 -0.002143884
vt 0.9073131 0.08249815
vt 0.8986346 0.0957057
vt 0.9118621 0.08066021
vt 0.9257896 0.1024752
vt 0.9144869 0.07865199
vt 0.9118637 0.07864996
vt 0.9189074 0.07348784
vt 0.9257896 0.07160248
vt 0.8995842 0.1024752
vt 0.8955826 0.09628991
vt 0.8955826 0.09854546
vt 0.8921126 0.1024752
vt 0.90058 0.08114943
vt 0.8985716 0.08377422
vt 0.900582 0.08377267
vt 0.8767567 0.06984668
vt 0.8967336 0.08832328
vt 0.9076295 0.06984668
vt 0.9057441 0.07672888
vt 0.8767567 0.09605224
vt 0.8835261 0.09700183
vt 0.8829421 0.1000538
vt 0.8806866 0.1000538
vt 0.8767567 0.1035237
vt 0.660923 0.03591278
vt 0.6638474 0.04029941
vt 0.6638474 0.03591278
vt 0.660923 0.04029941
vt 0.6584859 0.03591278
vt 0.660923 0.04029941
vt 0.660923 0.03591278
vt 0.6584859 0.04029941
vt 0.653612 0.03591278
vt 0.653612 0.04029941
vt 0.686268 0.03591278
vt 0.6930916 0.04029941
vt 0.6930916 0.03591278
vt 0.686268 0.04029941
vt 0.6818814 0.03591278
vt 0.6818814 0.04029941
vt 0.6818814 0.04029941
vt 0.6789569 0.03591278
vt 0.6789569 0.04029941
vt 0.6818814 0.03591278
vt 0.6789569 0.04029941
vt 0.6770073 0.03591278
vt 0.6770073 0.04029941
vt 0.6789569 0.03591278
vt 0.6726207 0.03591278
vt 0.6770073 0.04029941
vt 0.6770073 0.03591278
vt 0.6726207 0.04029941
vt 0.6638474 0.03591278
vt 0.6638474 0.04029941
vt 0.653612 0.04029941
vt 0.6463009 0.03591278
vt 0.6463009 0.04029941
vt 0.653612 0.03591278
vt 0.7774125 0.3415149
vt 0.7817991 0.3151951
vt 0.7774125 0.3151951
vt 0.7817991 0.3415149
vt 0.5400469 0.3498008
vt 0.5356602 0.3809946
vt 0.5400469 0.3809946
vt 0.5356602 0.3498008
vt 0.7758476 0.3820347
vt 0.5443573 0.3495873
vt 0.5443573 0.3820347
vt 0.7758476 0.3495873
vt 0.9240402 0.4440238
vt 0.9293674 0.4086706
vt 0.9240402 0.4120606
vt 0.9293674 0.4474138
vt 0.5361243 0.3413544
vt 0.7743948 0.3026112
vt 0.5361243 0.3026112
vt 0.7743948 0.3413544
vt 0.7792377 0.3442601
vt 0.5443573 0.3495873
vt 0.7758476 0.3495873
vt 0.5409673 0.3442601
vt 0.5424201 0.4130292
vt 0.5370929 0.4483823
vt 0.5424201 0.4449923
vt 0.5370929 0.4096392
vt 0.5409673 0.3873619
vt 0.7758476 0.3820347
vt 0.5443573 0.3820347
vt 0.7792377 0.3873619
vt 0.9073131 0.08249815
vt 0.8986346 0.0957057
vt 0.9118621 0.08066021
vt 0.9257896 0.1024752
vt 0.9144869 0.07865199
vt 0.9118637 0.07864996
vt 0.9189074 0.07348784
vt 0.9257896 0.07160248
vt 0.8995842 0.1024752
vt 0.8955826 0.09628991
vt 0.8955826 0.09854546
vt 0.8921126 0.1024752
vt 0.90058 0.08114943
vt 0.8985716 0.08377422
vt 0.900582 0.08377267
vt 0.8767567 0.06984668
vt 0.8967336 0.08832328
vt 0.9076295 0.06984668
vt 0.9057441 0.07672888
vt 0.8767567 0.09605224
vt 0.8835261 0.09700183
vt 0.8829421 0.1000538
vt 0.8806866 0.1000538
vt 0.8767567 0.1035237
vt 0.660923 0.03591278
vt 0.6638474 0.04029941
vt 0.6638474 0.03591278
vt 0.660923 0.04029941
vt 0.6584859 0.03591278
vt 0.660923 0.04029941
vt 0.660923 0.03591278
vt 0.6584859 0.04029941
vt 0.653612 0.03591278
vt 0.653612 0.04029941
vt 0.686268 0.03591278
vt 0.6930916 0.04029941
vt 0.6930916 0.03591278
vt 0.686268 0.04029941
vt 0.6818814 0.03591278
vt 0.6818814 0.04029941
vt 0.6818814 0.04029941
vt 0.6789569 0.03591278
vt 0.6789569 0.04029941
vt 0.6818814 0.03591278
vt 0.6789569 0.04029941
vt 0.6770073 0.03591278
vt 0.6770073 0.04029941
vt 0.6789569 0.03591278
vt 0.6726207 0.03591278
vt 0.6770073 0.04029941
vt 0.6770073 0.03591278
vt 0.6726207 0.04029941
vt 0.6638474 0.03591278
vt 0.6638474 0.04029941
vt 0.653612 0.04029941
vt 0.6463009 0.03591278
vt 0.6463009 0.04029941
vt 0.653612 0.03591278
vt 0.7774125 0.3415149
vt 0.7817991 0.3151951
vt 0.7774125 0.3151951
vt 0.7817991 0.3415149
vt 0.5400469 0.3498008
vt 0.5356602 0.3809946
vt 0.5400469 0.3809946
vt 0.5356602 0.3498008
vn 1 0 0
vn 1 0 0
vn 1 0 0
vn 1 0 0
vn 1 0 0
vn 1 0 0
vn 1 0 0
vn 1 0 0
vn 1 0 0
vn 1 0 0
vn 1 0 0
vn 1 0 0
vn -1 0 0
vn -1 0 0
vn -1 0 0
vn -1 0 0
vn -1 0 0
vn -1 0 0
vn -1 0 0
vn -1 0 0
vn -1 0 0
vn -1 0 0
vn -1 0 0
vn -1 0 0
vn 0 -0.9821713 0.1879885
vn 0 -0.9821713 0.1879885
vn 0 -0.9821713 0.1879885
vn 0 -0.9821713 0.1879885
vn 0 -0.3538314 0.9353092
vn 0 0 1
vn 0 0 1
vn 0 -0.3538314 0.9353092
vn -1.095692E-07 -0.6618835 0.7496066
vn -1.959186E-07 -0.6618835 0.7496065
vn -1.399613E-07 -0.8445305 0.5355075
vn 0 -0.9644616 0.2642232
vn 0 -0.9644616 0.2642231
vn -1.211544E-07 -0.8445304 0.5355076
vn -1.352348E-07 -0.6502986 0.7596787
vn 0 -0.6502986 0.7596787
vn 0 -0.9999998 -0.0007623525
vn 0 -0.9999998 -0.0007623525
vn 0 -0.9999998 -0.0007623526
vn 0 -0.9999998 -0.0007623526
vn -1.306809E-07 -0.0008624895 0.9999996
vn -1.306809E-07 -0.0008624895 0.9999996
vn -1.306809E-07 -0.0008624896 0.9999996
vn -1.306809E-07 -0.0008624896 0.9999996
vn 0 -0.7733299 0.634004
vn 0 -0.9271783 0.3746204
vn 0 -0.9271783 0.3746204
vn 0 -0.7733299 0.634004
vn -1.057139E-07 -0.5491476 0.8357253
vn -1.092134E-07 -0.5491476 0.8357253
vn 0 1 0
vn 0 1 0
vn 0 1 0
vn 0 1 0
vn 0 1 0
vn 0 1 0
vn 0 1 0
vn 0 1 0
vn 2.613619E-07 0 -1
vn 2.613619E-07 0 -1
vn 2.613619E-07 0 -1
vn 2.613619E-07 0 -1
vn 0 1 0
vn 0 1 0
vn 0 1 0
vn 0 1 0
vn -0.7401609 0.6724299 -1.61609E-07
vn -0.7401616 0.6724291 0
vn -0.7401617 0.672429 0
vn -0.7401609 0.6724299 -1.727498E-07
vn 0 -1 0
vn 0 -1 0
vn 0 -1 0
vn 0 -1 0
vn 0 0.6724278 -0.7401627
vn 0 0.6724278 -0.7401627
vn 0 0.6724278 -0.7401627
vn 0 0.6724278 -0.7401627
vn 0.7401617 0.672429 0
vn 0.7401617 0.672429 0
vn 0.7401617 0.672429 0
vn 0.7401617 0.672429 0
vn 0 0.6724276 0.7401629
vn 0 0.6724278 0.7401628
vn 0 0.6724276 0.7401629
vn 0 0.6724278 0.7401628
vn 1 0 0
vn 1 0 0
vn 1 0 0
vn 1 0 0
vn 1 0 0
vn 1 0 0
vn 1 0 0
vn 1 0 0
vn 1 0 0
vn 1 0 0
vn 1 0 0
vn 1 0 0
vn -1 0 0
vn -1 0 0
vn -1 0 0
vn -1 0 0
vn -1 0 0
vn -1 0 0
vn -1 0 0
vn -1 0 0
vn -1 0 0
vn -1 0 0
vn -1 0 0
vn -1 0 0
vn 0 -0.9821713 0.1879884
vn 0 -0.9821713 0.1879884
vn 0 -0.9821713 0.1879884
vn 0 -0.9821713 0.1879884
vn 0 -0.3538314 0.9353092
vn 0 0 1
vn 0 0 1
vn 0 -0.3538314 0.9353092
vn -1.095692E-07 -0.6618835 0.7496066
vn -1.959186E-07 -0.6618835 0.7496065
vn -1.525425E-07 -0.8445304 0.5355076
vn -1.140601E-07 -0.9644616 0.264223
vn -1.381157E-07 -0.9644616 0.264223
vn -1.023474E-07 -0.8445304 0.5355077
vn 0 -0.6502984 0.7596788
vn 0 -0.6502984 0.759679
vn 0 -0.9999998 -0.0007623525
vn 0 -0.9999998 -0.0007623526
vn 0 -0.9999998 -0.0007623524
vn 0 -0.9999998 -0.0007623528
vn 0 -0.0008626454 0.9999996
vn -1.892925E-07 -0.000862899 0.9999996
vn 0 -0.0008624896 0.9999996
vn -2.613618E-07 -0.0008630548 0.9999996
vn 0 -0.7733299 0.6340039
vn 0 -0.9271783 0.3746205
vn 0 -0.9271783 0.3746205
vn 0 -0.7733299 0.6340039
vn 0 -0.5491476 0.8357253
vn 0 -0.5491476 0.8357253
vn 0 1 0
vn 0 1 0
vn 0 1 0
vn 0 1 0
vn 0 1 0
vn 0 1 0
vn 0 1 0
vn 0 1 0
vn 5.227238E-07 0 -1
vn 5.227238E-07 0 -1
vn 5.227238E-07 0 -1
vn 5.227238E-07 0 -1
g Hall_Shelf_Long_LOD1_0
f 3/3/3 2/2/2 1/1/1
f 4/4/4 2/2/2 3/3/3
f 3/3/3 5/5/5 4/4/4
f 6/6/6 5/5/5 3/3/3
f 5/5/5 7/7/7 4/4/4
f 8/8/8 4/4/4 7/7/7
f 9/9/9 2/2/2 4/4/4
f 2/2/2 9/9/9 10/10/10
f 10/10/10 9/9/9 11/11/11
f 12/12/12 11/11/11 9/9/9
f 15/15/15 14/14/14 13/13/13
f 14/14/14 16/16/16 13/13/13
f 14/14/14 17/17/17 16/16/16
f 16/16/16 18/18/18 13/13/13
f 19/19/19 13/13/13 18/18/18
f 17/17/17 20/20/20 16/16/16
f 21/21/21 20/20/20 17/17/17
f 20/20/20 21/21/21 22/22/22
f 20/20/20 22/22/22 23/23/23
f 20/20/20 23/23/23 24/24/24
f 27/27/27 26/26/26 25/25/25
f 28/28/28 25/25/25 26/26/26
f 31/31/31 30/30/30 29/29/29
f 32/32/32 29/29/29 30/30/30
f 29/29/29 32/32/32 33/33/33
f 34/34/34 33/33/33 32/32/32
f 37/37/37 36/36/36 35/35/35
f 38/38/38 35/35/35 36/36/36
f 35/35/35 38/38/38 39/39/39
f 40/40/40 39/39/39 38/38/38
f 43/43/43 42/42/42 41/41/41
f 44/44/44 41/41/41 42/42/42
f 47/47/47 46/46/46 45/45/45
f 48/48/48 45/45/45 46/46/46
f 51/51/51 50/50/50 49/49/49
f 52/52/52 49/49/49 50/50/50
f 49/49/49 52/52/52 53/53/53
f 54/54/54 53/53/53 52/52/52
f 57/57/57 56/56/56 55/55/55
f 58/58/58 55/55/55 56/56/56
f 61/61/61 60/60/60 59/59/59
f 62/62/62 59/59/59 60/60/60
f 65/65/65 64/64/64 63/63/63
f 66/66/66 63/63/63 64/64/64
f 69/69/69 68/68/68 67/67/67
f 70/70/70 67/67/67 68/68/68
f 73/73/73 72/72/72 71/71/71
f 74/74/74 71/71/71 72/72/72
f 77/77/77 76/76/76 75/75/75
f 78/78/78 75/75/75 76/76/76
f 81/81/81 80/80/80 79/79/79
f 82/82/82 79/79/79 80/80/80
f 85/85/85 84/84/84 83/83/83
f 86/86/86 83/83/83 84/84/84
f 89/89/89 88/88/88 87/87/87
f 90/90/90 87/87/87 88/88/88
f 93/93/93 92/92/92 91/91/91
f 94/94/94 92/92/92 93/93/93
f 93/93/93 95/95/95 94/94/94
f 96/96/96 95/95/95 93/93/93
f 95/95/95 97/97/97 94/94/94
f 98/98/98 94/94/94 97/97/97
f 99/99/99 92/92/92 94/94/94
f 92/92/92 99/99/99 100/100/100
f 100/100/100 99/99/99 101/101/101
f 102/102/102 101/101/101 99/99/99
f 105/105/105 104/104/104 103/103/103
f 104/104/104 106/106/106 103/103/103
f 104/104/104 107/107/107 106/106/106
f 106/106/106 108/108/108 103/103/103
f 109/109/109 103/103/103 108/108/108
f 107/107/107 110/110/110 106/106/106
f 111/111/111 110/110/110 107/107/107
f 110/110/110 111/111/111 112/112/112
f 110/110/110 112/112/112 113/113/113
f 110/110/110 113/113/113 114/114/114
f 117/117/117 116/116/116 115/115/115
f 118/118/118 115/115/115 116/116/116
f 121/121/121 120/120/120 119/119/119
f 122/122/122 119/119/119 120/120/120
f 119/119/119 122/122/122 123/123/123
f 124/124/124 123/123/123 122/122/122
f 127/127/127 126/126/126 125/125/125
f 128/128/128 125/125/125 126/126/126
f 125/125/125 128/128/128 129/129/129
f 130/130/130 129/129/129 128/128/128
f 133/133/133 132/132/132 131/131/131
f 134/134/134 131/131/131 132/132/132
f 137/137/137 136/136/136 135/135/135
f 138/138/138 135/135/135 136/136/136
f 141/141/141 140/140/140 139/139/139
f 142/142/142 139/139/139 140/140/140
f 139/139/139 142/142/142 143/143/143
f 144/144/144 143/143/143 142/142/142
f 147/147/147 146/146/146 145/145/145
f 148/148/148 145/145/145 146/146/146
f 151/151/151 150/150/150 149/149/149
f 152/152/152 149/149/149 150/150/150
f 155/155/155 154/154/154 153/153/153
f 156/156/156 153/153/153 154/154/154
