g Hall_Carpet_Square_LOD1
v 0.9880432 -0.001548305 0.9883804
v -0.9736249 -0.001534529 0.9908902
v 0.976405 -0.001548467 0.9994897
v -0.9881873 -0.001505485 -0.996596
v 0.9973328 -0.001543741 -0.9831824
v 0.9856506 -0.001545653 -0.9951721
v -0.9850415 -0.001545992 0.9796323
v -0.9996985 -0.001496921 -0.9847974
v -0.9934088 0.01559881 -0.9787195
v -0.9850415 -0.001545992 0.9796323
v -0.9996985 -0.001496921 -0.9847974
v -0.9881873 -0.001505485 -0.996596
v -0.9789184 0.0156157 0.9736697
v -0.9679016 0.01552211 0.9846908
v -0.9736249 -0.001534529 0.9908902
v -0.9643649 0.01557266 0.9704313
v 0.9707324 0.01601253 0.9930197
v 0.976405 -0.001548467 0.9994897
v 0.9678314 0.01619746 0.9784486
v 0.9820862 0.01607444 0.9822814
v 0.9880432 -0.001548305 0.9883804
v -0.9787884 0.01560591 -0.9756479
v -0.9821728 0.01565163 -0.990155
v 0.9798205 0.01556177 -0.989104
v 0.9856506 -0.001545653 -0.9951721
v 0.9973328 -0.001543741 -0.9831824
v 0.9911829 0.01556777 -0.9774212
v 0.976485 0.0155713 -0.9744876
vt 0.5028661 0.005994326
vt 0.5028666 0.006247947
vt 0.5028676 0.005995892
vt 0.5026096 0.006249804
vt 0.5026113 0.005993163
vt 0.5026098 0.005994674
vt 0.5028651 0.006249398
vt 0.5026111 0.006251313
vt 0.9889951 0.2596836
vt 0.9889753 0.4921252
vt 0.9914126 0.2581944
vt 0.989389 0.2560949
vt 0.9865735 0.4906
vt 0.9854808 0.4917033
vt 0.9870358 0.4940832
vt 0.9850473 0.4901871
vt 0.7562477 0.4921249
vt 0.7548674 0.4946777
vt 0.7566563 0.4905668
vt 0.7551537 0.4910268
vt 0.7527634 0.4927061
vt 0.9874587 0.2600905
vt 0.987915 0.2585337
vt 0.7558575 0.2583276
vt 0.7543414 0.2559406
vt 0.7523248 0.2579783
vt 0.7547242 0.2594832
vt 0.7562719 0.2598659
vn -1.115972E-05 -1 -1.287899E-05
vn 0.0003354692 -1 -1.708934E-05
vn -7.050627E-06 -1 -2.197986E-05
vn -0.0002587835 -1 -1.159037E-05
vn -1.966286E-05 -1 5.847525E-05
vn -2.048003E-05 -1 0.0001794339
vn 0.001021441 -0.9999995 -2.21232E-05
vn -0.0007637317 -0.9999998 -1.928157E-05
vn -0.5862309 0.7842956 -0.2030115
vn -0.8218207 0.424293 0.380245
vn -0.8232252 0.4332868 -0.3668279
vn -0.3763517 0.4379339 -0.8164394
vn -0.5834412 0.7832409 0.2147795
vn -0.2125009 0.7816228 0.5864377
vn -0.3724118 0.4248588 0.8251086
vn 0.001353641 0.9999975 0.001792457
vn 0.204793 0.7800606 0.5912405
vn 0.360081 0.421253 0.8323987
vn 0.003384432 0.9999791 0.005515463
vn 0.5922713 0.7741624 0.2233547
vn 0.8228391 0.4132166 0.3901128
vn -0.0003824529 0.9999988 0.001483509
vn -0.21269 0.7870139 -0.5791131
vn 0.2167749 0.7796689 -0.5874734
vn 0.3809387 0.4216877 -0.8228397
vn 0.8289945 0.4214834 -0.3675866
vn 0.5887647 0.7812874 -0.2072342
vn 9.372886E-05 0.9999999 -0.0004521523
g Hall_Carpet_Square_LOD1_0
f 3/3/3 2/2/2 1/1/1
f 2/2/2 4/4/4 1/1/1
f 4/4/4 5/5/5 1/1/1
f 6/6/6 5/5/5 4/4/4
f 7/7/7 4/4/4 2/2/2
f 8/8/8 4/4/4 7/7/7
f 11/11/11 10/10/10 9/9/9
f 11/11/11 9/9/9 12/12/12
f 13/13/13 9/9/9 10/10/10
f 13/13/13 10/10/10 14/14/14
f 15/15/15 14/14/14 10/10/10
f 13/13/13 16/16/16 9/9/9
f 14/14/14 16/16/16 13/13/13
f 14/14/14 15/15/15 17/17/17
f 18/18/18 17/17/17 15/15/15
f 16/16/16 14/14/14 19/19/19
f 17/17/17 19/19/19 14/14/14
f 17/17/17 18/18/18 20/20/20
f 20/20/20 19/19/19 17/17/17
f 21/21/21 20/20/20 18/18/18
f 22/22/22 9/9/9 16/16/16
f 16/16/16 19/19/19 22/22/22
f 23/23/23 12/12/12 9/9/9
f 9/9/9 22/22/22 23/23/23
f 23/23/23 24/24/24 12/12/12
f 23/23/23 22/22/22 24/24/24
f 25/25/25 12/12/12 24/24/24
f 25/25/25 24/24/24 26/26/26
f 26/26/26 27/27/27 21/21/21
f 20/20/20 21/21/21 27/27/27
f 27/27/27 26/26/26 24/24/24
f 19/19/19 20/20/20 28/28/28
f 28/28/28 22/22/22 19/19/19
f 28/28/28 24/24/24 22/22/22
f 27/27/27 28/28/28 20/20/20
f 24/24/24 28/28/28 27/27/27
