g hand_R_10
v -0.1915138 0.285242 2.07308E-08
v -0.1915138 0.285242 0.108438
v -0.1915138 0 0.108438
v -0.1915138 0 2.07308E-08
v -0.1915138 0 -0.108438
v -0.1915138 0.285242 -0.108438
v 0.1915151 0.285242 2.07308E-08
v 0.1915151 0.285242 0.108438
v 0.07801314 0.285242 0.108438
v 0.1080611 0.285242 2.07308E-08
v -0.1080599 0.285242 0.108438
v 0.07801314 0.285242 -0.108438
v 0.1915151 0.285242 -0.108438
v -0.1080599 0.285242 -0.108438
v -0.1080599 0.285242 2.07308E-08
v -0.1915138 0.285242 2.07308E-08
v -0.1915138 0.285242 0.108438
v -0.1915138 0.285242 -0.108438
v 0.1915151 0 2.07308E-08
v 0.1915151 0 0.108438
v 0.1915151 0.285242 0.108438
v 0.1915151 0.285242 2.07308E-08
v 0.1915151 0.285242 -0.108438
v 0.1915151 0 -0.108438
v -0.2468078 0.5728059 0.108438
v -0.2468078 0.5728059 0.191515
v -0.2468078 0 0.191515
v -0.2468078 0 0.108438
v 0.2468092 0.57347 0.108438
v 0.2468092 0.57347 0.191515
v 0.1915151 0.664005 0.191515
v 0.1915151 0.664005 0.108438
v 0.2468092 0 0.108438
v 0.2468092 0 0.191515
v 0.2468092 0.57347 0.191515
v 0.2468092 0.57347 0.108438
v -0.2468078 0.5728059 0.191515
v -0.1915138 0 0.191515
v -0.2468078 0 0.191515
v -0.1915138 0.663644 0.191515
v 1.499022E-07 0 0.191515
v -0.09712684 0.7096719 0.191515
v 0.09720014 0.7098199 0.191515
v 0.1915151 0 0.191515
v 0.1915151 0.664005 0.191515
v 0.2468092 0 0.191515
v 0.2468092 0.57347 0.191515
v -0.2468078 0 0.191515
v -0.1915138 0 0.108438
v -0.2468078 0 0.108438
v -0.1915138 0 0.191515
v 1.499022E-07 0 0.191515
v 1.499022E-07 0 0.108438
v -0.1915138 0 2.07308E-08
v 0.1915151 0 0.108438
v 0.1915151 0 0.191515
v 0.2468092 0 0.108438
v 0.2468092 0 0.191515
v 0.1915151 0 2.07308E-08
v 1.499022E-07 0 2.07308E-08
v 1.499022E-07 0 -0.108438
v -0.1915138 0 -0.108438
v 0.1915151 0 -0.108438
v 1.499022E-07 0 -0.191515
v 0.1915151 0 -0.191515
v 0.2468092 0 -0.108438
v 0.2468092 0 -0.191515
v -0.1915138 0 -0.191515
v -0.2468078 0 -0.191515
v -0.2468078 0 -0.108438
v -0.2468078 0 0.108438
v -0.1915138 0 0.108438
v -0.1915138 0.285242 0.108438
v -0.2468078 0.5728059 0.108438
v -0.1915138 0.663644 0.108438
v -0.09712684 0.7096719 0.108438
v -0.1080599 0.285242 0.108438
v 0.07801314 0.285242 0.108438
v 0.09720014 0.7098199 0.108438
v 0.1915151 0.664005 0.108438
v 0.1915151 0.285242 0.108438
v 0.2468092 0.57347 0.108438
v 0.1915151 0 0.108438
v 0.2468092 0 0.108438
v -0.1915138 0.663644 0.191515
v -0.2468078 0.5728059 0.191515
v -0.2468078 0.5728059 0.108438
v -0.1915138 0.663644 0.108438
v 0.1915151 0.664005 0.191515
v 0.09720014 0.7098199 0.108438
v 0.1915151 0.664005 0.108438
v 0.09720014 0.7098199 0.191515
v -0.09712684 0.7096719 0.191515
v -0.09712684 0.7096719 0.108438
v -0.1915138 0.663644 0.108438
v -0.1915138 0.663644 0.191515
v -0.2468078 0 -0.191515
v -0.2468078 0.5728059 -0.191515
v -0.2468078 0.5728059 -0.108438
v -0.2468078 0 -0.108438
v 0.1915151 0.664005 -0.191515
v 0.2468092 0.57347 -0.191515
v 0.2468092 0.57347 -0.108438
v 0.1915151 0.664005 -0.108438
v 0.2468092 0.57347 -0.191515
v 0.2468092 0 -0.191515
v 0.2468092 0 -0.108438
v 0.2468092 0.57347 -0.108438
v -0.1915138 0 -0.191515
v -0.2468078 0.5728059 -0.191515
v -0.2468078 0 -0.191515
v -0.1915138 0.663644 -0.191515
v 1.499022E-07 0 -0.191515
v -0.09712684 0.7096719 -0.191515
v 0.09720014 0.7098199 -0.191515
v 0.1915151 0 -0.191515
v 0.1915151 0.664005 -0.191515
v 0.2468092 0 -0.191515
v 0.2468092 0.57347 -0.191515
v -0.1915138 0.285242 -0.108438
v -0.1915138 0 -0.108438
v -0.2468078 0 -0.108438
v -0.2468078 0.5728059 -0.108438
v -0.1915138 0.663644 -0.108438
v -0.09712684 0.7096719 -0.108438
v -0.1080599 0.285242 -0.108438
v 0.07801314 0.285242 -0.108438
v 0.09720014 0.7098199 -0.108438
v 0.1915151 0.664005 -0.108438
v 0.1915151 0.285242 -0.108438
v 0.2468092 0.57347 -0.108438
v 0.1915151 0 -0.108438
v 0.2468092 0 -0.108438
v -0.2468078 0.5728059 -0.108438
v -0.2468078 0.5728059 -0.191515
v -0.1915138 0.663644 -0.191515
v -0.1915138 0.663644 -0.108438
v 0.09720014 0.7098199 -0.108438
v 0.1915151 0.664005 -0.191515
v 0.1915151 0.664005 -0.108438
v 0.09720014 0.7098199 -0.191515
v -0.09712684 0.7096719 -0.191515
v -0.09712684 0.7096719 -0.108438
v -0.1915138 0.663644 -0.108438
v -0.1915138 0.663644 -0.191515
v -0.2303618 0.40753 0.229565
v -0.1863658 0.5429339 0.191515
v -0.1863658 0.5429339 0.229565
v -0.2303618 0.40753 0.191515
v -0.1863658 0.272127 0.229565
v -0.1863658 0.272127 0.191515
v -0.1863658 0.5429339 0.229565
v -0.1863658 0.5429339 0.191515
v -0.07118485 0.626618 0.191515
v -0.07118485 0.626618 0.229565
v 0.07118615 0.626618 0.191515
v 0.07118615 0.626618 0.229565
v 0.1863671 0.5429339 0.191515
v 0.1863671 0.5429339 0.229565
v 0.1863671 0.5429339 0.229565
v 0.1863671 0.5429339 0.191515
v 0.2303632 0.40753 0.191515
v 0.2303632 0.40753 0.229565
v 0.1863671 0.272127 0.191515
v 0.1863671 0.272127 0.229565
v 0.1863671 0.272127 0.229565
v 0.1863671 0.272127 0.191515
v 0.07118615 0.188443 0.191515
v 0.07118615 0.188443 0.229565
v -0.07118485 0.188443 0.191515
v -0.07118485 0.188443 0.229565
v -0.1863658 0.272127 0.191515
v -0.1863658 0.272127 0.229565
v -0.1863658 0.5429339 -0.191515
v -0.2303618 0.40753 -0.229565
v -0.1863658 0.5429339 -0.229565
v -0.2303618 0.40753 -0.191515
v -0.1863658 0.272127 -0.229565
v -0.1863658 0.272127 -0.191515
v -0.07118485 0.626618 -0.191515
v -0.1863658 0.5429339 -0.191515
v -0.1863658 0.5429339 -0.229565
v -0.07118485 0.626618 -0.229565
v 0.07118615 0.626618 -0.191515
v 0.07118615 0.626618 -0.229565
v 0.1863671 0.5429339 -0.191515
v 0.1863671 0.5429339 -0.229565
v 0.2303632 0.40753 -0.191515
v 0.1863671 0.5429339 -0.191515
v 0.1863671 0.5429339 -0.229565
v 0.2303632 0.40753 -0.229565
v 0.1863671 0.272127 -0.191515
v 0.1863671 0.272127 -0.229565
v 0.07118615 0.188443 -0.191515
v 0.1863671 0.272127 -0.191515
v 0.1863671 0.272127 -0.229565
v 0.07118615 0.188443 -0.229565
v -0.07118485 0.188443 -0.191515
v -0.07118485 0.188443 -0.229565
v -0.1863658 0.272127 -0.191515
v -0.1863658 0.272127 -0.229565
v 1.499022E-07 0.40753 0.229565
v -0.2303618 0.40753 0.229565
v -0.1863658 0.5429339 0.229565
v -0.07118485 0.626618 0.229565
v -0.1863658 0.272127 0.229565
v 0.07118615 0.626618 0.229565
v -0.07118485 0.188443 0.229565
v 0.1863671 0.5429339 0.229565
v 0.07118615 0.188443 0.229565
v 0.2303632 0.40753 0.229565
v 0.1863671 0.272127 0.229565
v -0.1863658 0.5429339 -0.229565
v -0.2303618 0.40753 -0.229565
v 1.499022E-07 0.40753 -0.229565
v -0.07118485 0.626618 -0.229565
v -0.1863658 0.272127 -0.229565
v 0.07118615 0.626618 -0.229565
v -0.07118485 0.188443 -0.229565
v 0.1863671 0.5429339 -0.229565
v 0.07118615 0.188443 -0.229565
v 0.2303632 0.40753 -0.229565
v 0.1863671 0.272127 -0.229565
vt 0.3484 0.613
vt 0.3591 0.613
vt 0.3591 0.6413
vt 0.3484 0.6413
vt 0.3376 0.6413
vt 0.3376 0.613
vt 0.3699 0.7072
vt 0.3699 0.6965
vt 0.3812 0.6965
vt 0.3782 0.7072
vt 0.3997 0.6965
vt 0.3812 0.718
vt 0.3699 0.718
vt 0.3997 0.718
vt 0.3997 0.7072
vt 0.4079 0.7072
vt 0.4079 0.6965
vt 0.4079 0.718
vt 0.3807 0.613
vt 0.3915 0.613
vt 0.3915 0.6413
vt 0.3807 0.6413
vt 0.3699 0.6413
vt 0.3699 0.613
vt 0.3789 0.7682
vt 0.3789 0.7599
vt 0.4358 0.7599
vt 0.4358 0.7682
vt 0.4269 0.7431
vt 0.4269 0.7348
vt 0.4358 0.7348
vt 0.4358 0.7431
vt 0.3699 0.7431
vt 0.3699 0.7348
vt 0.4269 0.7348
vt 0.4269 0.7431
vt 0.3506 0.7089
vt 0.2937 0.7144
vt 0.2937 0.7089
vt 0.3596 0.7144
vt 0.2937 0.7334
vt 0.3642 0.7237
vt 0.3642 0.743
vt 0.2937 0.7524
vt 0.3597 0.7524
vt 0.2937 0.7579
vt 0.3507 0.7579
vt 0.3699 0.6541
vt 0.3754 0.6624
vt 0.3699 0.6624
vt 0.3754 0.6541
vt 0.3944 0.6541
vt 0.3944 0.6624
vt 0.3754 0.6731
vt 0.4134 0.6624
vt 0.4134 0.6541
vt 0.4189 0.6624
vt 0.4189 0.6541
vt 0.4134 0.6731
vt 0.3944 0.6731
vt 0.3944 0.6839
vt 0.3754 0.6839
vt 0.4134 0.6839
vt 0.3944 0.6922
vt 0.4134 0.6922
vt 0.4189 0.6839
vt 0.4189 0.6922
vt 0.3754 0.6922
vt 0.3699 0.6922
vt 0.3699 0.6839
vt 0.3642 0.5994
vt 0.3642 0.6049
vt 0.3359 0.6049
vt 0.3073 0.5994
vt 0.2983 0.6049
vt 0.2938 0.6143
vt 0.3359 0.6132
vt 0.3359 0.6317
vt 0.2937 0.6336
vt 0.2983 0.6429
vt 0.3359 0.6429
vt 0.3073 0.6484
vt 0.3642 0.6429
vt 0.3642 0.6484
vt 0.3699 0.7599
vt 0.3789 0.7599
vt 0.3789 0.7682
vt 0.3699 0.7682
vt 0.4122 0.6965
vt 0.4216 0.7047
vt 0.4122 0.7047
vt 0.4216 0.6965
vt 0.4409 0.6965
vt 0.4409 0.7047
vt 0.4503 0.7047
vt 0.4503 0.6965
vt 0.4358 0.7556
vt 0.3789 0.7556
vt 0.3789 0.7474
vt 0.4358 0.7474
vt 0.4358 0.7305
vt 0.4269 0.7305
vt 0.4269 0.7223
vt 0.4358 0.7223
vt 0.4269 0.7305
vt 0.3699 0.7305
vt 0.3699 0.7223
vt 0.4269 0.7223
vt 0.3642 0.6596
vt 0.3073 0.6541
vt 0.3642 0.6541
vt 0.2983 0.6596
vt 0.3642 0.6786
vt 0.2938 0.669
vt 0.2937 0.6883
vt 0.3642 0.6976
vt 0.2983 0.6976
vt 0.3642 0.7031
vt 0.3073 0.7031
vt 0.3982 0.6049
vt 0.3699 0.6049
vt 0.3699 0.5994
vt 0.4268 0.5994
vt 0.4358 0.6049
vt 0.4404 0.6143
vt 0.3982 0.6132
vt 0.3982 0.6317
vt 0.4404 0.6336
vt 0.4358 0.6429
vt 0.3982 0.6429
vt 0.4269 0.6484
vt 0.3699 0.6429
vt 0.3699 0.6484
vt 0.3789 0.7474
vt 0.3789 0.7556
vt 0.3699 0.7556
vt 0.3699 0.7474
vt 0.4326 0.6541
vt 0.4232 0.6624
vt 0.4232 0.6541
vt 0.4326 0.6624
vt 0.4519 0.6624
vt 0.4519 0.6541
vt 0.4612 0.6541
vt 0.4612 0.6624
vt 0.163 0.9616
vt 0.1155 0.975
vt 0.1155 0.9616
vt 0.163 0.975
vt 0.2105 0.9616
vt 0.2105 0.975
vt 0.1459 0.9244
vt 0.1459 0.9377
vt 0.1055 0.9377
vt 0.1055 0.9244
vt 0.0556 0.9377
vt 0.0556 0.9244
vt 0.0152 0.9377
vt 0.0152 0.9244
vt 0.1102 0.9616
vt 0.1102 0.975
vt 0.0627 0.975
vt 0.0627 0.9616
vt 0.0152 0.975
vt 0.0152 0.9616
vt 0.1459 0.943
vt 0.1459 0.9564
vt 0.1055 0.9564
vt 0.1055 0.943
vt 0.0556 0.9564
vt 0.0556 0.943
vt 0.0152 0.9564
vt 0.0152 0.943
vt 0.1155 0.975
vt 0.163 0.9616
vt 0.1155 0.9616
vt 0.163 0.975
vt 0.2105 0.9616
vt 0.2105 0.975
vt 0.1055 0.9377
vt 0.1459 0.9377
vt 0.1459 0.9244
vt 0.1055 0.9244
vt 0.0556 0.9377
vt 0.0556 0.9244
vt 0.0152 0.9377
vt 0.0152 0.9244
vt 0.0627 0.975
vt 0.1102 0.975
vt 0.1102 0.9616
vt 0.0627 0.9616
vt 0.0152 0.975
vt 0.0152 0.9616
vt 0.1055 0.9564
vt 0.1459 0.9564
vt 0.1459 0.943
vt 0.1055 0.943
vt 0.0556 0.9564
vt 0.0556 0.943
vt 0.0152 0.9564
vt 0.0152 0.943
vt 0.1447 0.7858
vt 0.2838 0.7858
vt 0.2573 0.8676
vt 0.1877 0.9182
vt 0.2573 0.704
vt 0.1017 0.9182
vt 0.1877 0.6535
vt 0.0321 0.8676
vt 0.1017 0.6535
vt 0.0055 0.7858
vt 0.0321 0.704
vt 0.2573 0.8676
vt 0.2838 0.7858
vt 0.1447 0.7858
vt 0.1877 0.9182
vt 0.2573 0.704
vt 0.1017 0.9182
vt 0.1877 0.6535
vt 0.0321 0.8676
vt 0.1017 0.6535
vt 0.0055 0.7858
vt 0.0321 0.704
vn -1 0 0
vn -1 0 0
vn -1 0 0
vn -1 0 0
vn -1 0 0
vn -1 0 0
vn 0 1 0
vn 0 1 0
vn 0 1 0
vn 0 1 0
vn 0 1 0
vn 0 1 0
vn 0 1 0
vn 0 1 0
vn 0 1 0
vn 0 1 0
vn 0 1 0
vn 0 1 0
vn 1 0 0
vn 1 0 0
vn 1 0 0
vn 1 0 0
vn 1 0 0
vn 1 0 0
vn -1 0 0
vn -1 0 0
vn -1 0 0
vn -1 0 0
vn 0.8534199 0.5212241 0
vn 0.8534199 0.5212241 0
vn 0.8534199 0.5212241 0
vn 0.8534199 0.5212241 0
vn 1 0 0
vn 1 0 0
vn 1 0 0
vn 1 0 0
vn 0 0 1
vn 0 0 1
vn 0 0 1
vn 0 0 1
vn 0 0 1
vn 0 0 1
vn 0 0 1
vn 0 0 1
vn 0 0 1
vn 0 0 1
vn 0 0 1
vn 0 -1 0
vn 0 -1 0
vn 0 -1 0
vn 0 -1 0
vn 0 -1 0
vn 0 -1 0
vn 0 -1 0
vn 0 -1 0
vn 0 -1 0
vn 0 -1 0
vn 0 -1 0
vn 0 -1 0
vn 0 -1 0
vn 0 -1 0
vn 0 -1 0
vn 0 -1 0
vn 0 -1 0
vn 0 -1 0
vn 0 -1 0
vn 0 -1 0
vn 0 -1 0
vn 0 -1 0
vn 0 -1 0
vn 0 0 -1
vn 0 0 -1
vn 0 0 -1
vn 0 0 -1
vn 0 0 -1
vn 0 0 -1
vn 0 0 -1
vn 0 0 -1
vn 0 0 -1
vn 0 0 -1
vn 0 0 -1
vn 0 0 -1
vn 0 0 -1
vn 0 0 -1
vn -0.8541932 0.5199558 0
vn -0.8541932 0.5199558 0
vn -0.8541932 0.5199558 0
vn -0.8541932 0.5199558 0
vn 0.4369412 0.89949 0
vn 0.223805 0.9746339 0
vn 0.4369412 0.89949 0
vn 0.223805 0.9746339 0
vn -0.2252903 0.9742917 0
vn -0.2252903 0.9742917 0
vn -0.4383125 0.8988227 0
vn -0.4383125 0.8988227 0
vn -1 0 0
vn -1 0 0
vn -1 0 0
vn -1 0 0
vn 0.8534199 0.5212241 0
vn 0.8534199 0.5212241 0
vn 0.8534199 0.5212241 0
vn 0.8534199 0.5212241 0
vn 1 0 0
vn 1 0 0
vn 1 0 0
vn 1 0 0
vn 0 0 -1
vn 0 0 -1
vn 0 0 -1
vn 0 0 -1
vn 0 0 -1
vn 0 0 -1
vn 0 0 -1
vn 0 0 -1
vn 0 0 -1
vn 0 0 -1
vn 0 0 -1
vn 0 0 1
vn 0 0 1
vn 0 0 1
vn 0 0 1
vn 0 0 1
vn 0 0 1
vn 0 0 1
vn 0 0 1
vn 0 0 1
vn 0 0 1
vn 0 0 1
vn 0 0 1
vn 0 0 1
vn 0 0 1
vn -0.8541932 0.5199558 0
vn -0.8541932 0.5199558 0
vn -0.8541932 0.5199558 0
vn -0.8541932 0.5199558 0
vn 0.223805 0.9746339 0
vn 0.4369412 0.89949 0
vn 0.4369412 0.89949 0
vn 0.223805 0.9746339 0
vn -0.2252903 0.9742917 0
vn -0.2252903 0.9742917 0
vn -0.4383125 0.8988227 0
vn -0.4383125 0.8988227 0
vn -1 -1.06728E-06 0
vn -0.8090162 0.5877863 0
vn -0.8090162 0.5877863 0
vn -1 -1.06728E-06 0
vn -0.8090154 -0.5877874 0
vn -0.8090154 -0.5877874 0
vn -0.8090162 0.5877863 0
vn -0.8090162 0.5877863 0
vn -0.3090175 0.9510564 0
vn -0.3090175 0.9510564 0
vn 0.3090175 0.9510564 0
vn 0.3090175 0.9510564 0
vn 0.8090161 0.5877864 0
vn 0.8090161 0.5877864 0
vn 0.8090161 0.5877864 0
vn 0.8090161 0.5877864 0
vn 1 -1.06728E-06 0
vn 1 -1.06728E-06 0
vn 0.8090154 -0.5877874 0
vn 0.8090154 -0.5877874 0
vn 0.8090154 -0.5877874 0
vn 0.8090154 -0.5877874 0
vn 0.3090173 -0.9510565 0
vn 0.3090173 -0.9510565 0
vn -0.3090173 -0.9510565 0
vn -0.3090173 -0.9510565 0
vn -0.8090154 -0.5877874 0
vn -0.8090154 -0.5877874 0
vn -0.8090162 0.5877863 0
vn -1 -1.077255E-06 0
vn -0.8090162 0.5877863 0
vn -1 -1.077255E-06 0
vn -0.8090154 -0.5877874 0
vn -0.8090154 -0.5877874 0
vn -0.3090175 0.9510564 0
vn -0.8090162 0.5877863 0
vn -0.8090162 0.5877863 0
vn -0.3090175 0.9510564 0
vn 0.3090175 0.9510564 0
vn 0.3090175 0.9510564 0
vn 0.8090161 0.5877864 0
vn 0.8090161 0.5877864 0
vn 1 -1.107178E-06 0
vn 0.8090161 0.5877864 0
vn 0.8090161 0.5877864 0
vn 1 -1.107178E-06 0
vn 0.8090154 -0.5877874 0
vn 0.8090154 -0.5877874 0
vn 0.3090173 -0.9510565 0
vn 0.8090154 -0.5877874 0
vn 0.8090154 -0.5877874 0
vn 0.3090173 -0.9510565 0
vn -0.3090173 -0.9510565 0
vn -0.3090173 -0.9510565 0
vn -0.8090154 -0.5877874 0
vn -0.8090154 -0.5877874 0
vn 0 0 1
vn 0 0 1
vn 0 0 1
vn 0 0 1
vn 0 0 1
vn 0 0 1
vn 0 0 1
vn 0 0 1
vn 0 0 1
vn 0 0 1
vn 0 0 1
vn 0 0 -1
vn 0 0 -1
vn 0 0 -1
vn 0 0 -1
vn 0 0 -1
vn 0 0 -1
vn 0 0 -1
vn 0 0 -1
vn 0 0 -1
vn 0 0 -1
vn 0 0 -1
g hand_R_10_0
f 3/3/3 2/2/2 1/1/1
f 4/4/4 3/3/3 1/1/1
f 4/4/4 1/1/1 5/5/5
f 1/1/1 6/6/6 5/5/5
f 9/9/9 8/8/8 7/7/7
f 10/10/10 9/9/9 7/7/7
f 11/11/11 9/9/9 10/10/10
f 10/10/10 7/7/7 12/12/12
f 7/7/7 13/13/13 12/12/12
f 10/10/10 12/12/12 14/14/14
f 15/15/15 11/11/11 10/10/10
f 15/15/15 10/10/10 14/14/14
f 15/15/15 16/16/16 11/11/11
f 15/15/15 14/14/14 16/16/16
f 16/16/16 17/17/17 11/11/11
f 14/14/14 18/18/18 16/16/16
f 21/21/21 20/20/20 19/19/19
f 22/22/22 21/21/21 19/19/19
f 22/22/22 19/19/19 23/23/23
f 19/19/19 24/24/24 23/23/23
f 27/27/27 26/26/26 25/25/25
f 28/28/28 27/27/27 25/25/25
f 31/31/31 30/30/30 29/29/29
f 32/32/32 31/31/31 29/29/29
f 35/35/35 34/34/34 33/33/33
f 36/36/36 35/35/35 33/33/33
f 39/39/39 38/38/38 37/37/37
f 38/38/38 40/40/40 37/37/37
f 40/40/40 38/38/38 41/41/41
f 42/42/42 40/40/40 41/41/41
f 42/42/42 41/41/41 43/43/43
f 43/43/43 41/41/41 44/44/44
f 45/45/45 43/43/43 44/44/44
f 45/45/45 44/44/44 46/46/46
f 47/47/47 45/45/45 46/46/46
f 50/50/50 49/49/49 48/48/48
f 49/49/49 51/51/51 48/48/48
f 52/52/52 51/51/51 49/49/49
f 53/53/53 52/52/52 49/49/49
f 53/53/53 49/49/49 54/54/54
f 53/53/53 55/55/55 52/52/52
f 55/55/55 56/56/56 52/52/52
f 56/56/56 55/55/55 57/57/57
f 58/58/58 56/56/56 57/57/57
f 59/59/59 55/55/55 53/53/53
f 60/60/60 53/53/53 54/54/54
f 60/60/60 59/59/59 53/53/53
f 60/60/60 54/54/54 61/61/61
f 60/60/60 61/61/61 59/59/59
f 54/54/54 62/62/62 61/61/61
f 61/61/61 63/63/63 59/59/59
f 61/61/61 64/64/64 63/63/63
f 61/61/61 62/62/62 64/64/64
f 64/64/64 65/65/65 63/63/63
f 66/66/66 63/63/63 65/65/65
f 67/67/67 66/66/66 65/65/65
f 62/62/62 68/68/68 64/64/64
f 69/69/69 68/68/68 62/62/62
f 70/70/70 69/69/69 62/62/62
f 73/73/73 72/72/72 71/71/71
f 74/74/74 73/73/73 71/71/71
f 75/75/75 73/73/73 74/74/74
f 75/75/75 76/76/76 73/73/73
f 76/76/76 77/77/77 73/73/73
f 78/78/78 77/77/77 76/76/76
f 79/79/79 78/78/78 76/76/76
f 79/79/79 80/80/80 78/78/78
f 80/80/80 81/81/81 78/78/78
f 82/82/82 81/81/81 80/80/80
f 83/83/83 81/81/81 82/82/82
f 84/84/84 83/83/83 82/82/82
f 87/87/87 86/86/86 85/85/85
f 88/88/88 87/87/87 85/85/85
f 91/91/91 90/90/90 89/89/89
f 90/90/90 92/92/92 89/89/89
f 93/93/93 92/92/92 90/90/90
f 94/94/94 93/93/93 90/90/90
f 94/94/94 95/95/95 93/93/93
f 95/95/95 96/96/96 93/93/93
f 99/99/99 98/98/98 97/97/97
f 100/100/100 99/99/99 97/97/97
f 103/103/103 102/102/102 101/101/101
f 104/104/104 103/103/103 101/101/101
f 107/107/107 106/106/106 105/105/105
f 108/108/108 107/107/107 105/105/105
f 111/111/111 110/110/110 109/109/109
f 110/110/110 112/112/112 109/109/109
f 113/113/113 109/109/109 112/112/112
f 114/114/114 113/113/113 112/112/112
f 115/115/115 113/113/113 114/114/114
f 116/116/116 113/113/113 115/115/115
f 117/117/117 116/116/116 115/115/115
f 118/118/118 116/116/116 117/117/117
f 119/119/119 118/118/118 117/117/117
f 122/122/122 121/121/121 120/120/120
f 123/123/123 122/122/122 120/120/120
f 123/123/123 120/120/120 124/124/124
f 124/124/124 120/120/120 125/125/125
f 120/120/120 126/126/126 125/125/125
f 125/125/125 126/126/126 127/127/127
f 128/128/128 125/125/125 127/127/127
f 128/128/128 127/127/127 129/129/129
f 127/127/127 130/130/130 129/129/129
f 129/129/129 130/130/130 131/131/131
f 131/131/131 130/130/130 132/132/132
f 133/133/133 131/131/131 132/132/132
f 136/136/136 135/135/135 134/134/134
f 137/137/137 136/136/136 134/134/134
f 140/140/140 139/139/139 138/138/138
f 139/139/139 141/141/141 138/138/138
f 138/138/138 141/141/141 142/142/142
f 143/143/143 138/138/138 142/142/142
f 143/143/143 142/142/142 144/144/144
f 142/142/142 145/145/145 144/144/144
f 148/148/148 147/147/147 146/146/146
f 147/147/147 149/149/149 146/146/146
f 146/146/146 149/149/149 150/150/150
f 149/149/149 151/151/151 150/150/150
f 154/154/154 153/153/153 152/152/152
f 155/155/155 154/154/154 152/152/152
f 156/156/156 154/154/154 155/155/155
f 157/157/157 156/156/156 155/155/155
f 158/158/158 156/156/156 157/157/157
f 159/159/159 158/158/158 157/157/157
f 162/162/162 161/161/161 160/160/160
f 163/163/163 162/162/162 160/160/160
f 164/164/164 162/162/162 163/163/163
f 165/165/165 164/164/164 163/163/163
f 168/168/168 167/167/167 166/166/166
f 169/169/169 168/168/168 166/166/166
f 170/170/170 168/168/168 169/169/169
f 171/171/171 170/170/170 169/169/169
f 172/172/172 170/170/170 171/171/171
f 173/173/173 172/172/172 171/171/171
f 176/176/176 175/175/175 174/174/174
f 175/175/175 177/177/177 174/174/174
f 175/175/175 178/178/178 177/177/177
f 178/178/178 179/179/179 177/177/177
f 182/182/182 181/181/181 180/180/180
f 183/183/183 182/182/182 180/180/180
f 183/183/183 180/180/180 184/184/184
f 185/185/185 183/183/183 184/184/184
f 185/185/185 184/184/184 186/186/186
f 187/187/187 185/185/185 186/186/186
f 190/190/190 189/189/189 188/188/188
f 191/191/191 190/190/190 188/188/188
f 191/191/191 188/188/188 192/192/192
f 193/193/193 191/191/191 192/192/192
f 196/196/196 195/195/195 194/194/194
f 197/197/197 196/196/196 194/194/194
f 197/197/197 194/194/194 198/198/198
f 199/199/199 197/197/197 198/198/198
f 199/199/199 198/198/198 200/200/200
f 201/201/201 199/199/199 200/200/200
f 204/204/204 203/203/203 202/202/202
f 205/205/205 204/204/204 202/202/202
f 203/203/203 206/206/206 202/202/202
f 207/207/207 205/205/205 202/202/202
f 206/206/206 208/208/208 202/202/202
f 209/209/209 207/207/207 202/202/202
f 208/208/208 210/210/210 202/202/202
f 211/211/211 209/209/209 202/202/202
f 210/210/210 212/212/212 202/202/202
f 212/212/212 211/211/211 202/202/202
f 215/215/215 214/214/214 213/213/213
f 215/215/215 213/213/213 216/216/216
f 215/215/215 217/217/217 214/214/214
f 215/215/215 216/216/216 218/218/218
f 215/215/215 219/219/219 217/217/217
f 215/215/215 218/218/218 220/220/220
f 215/215/215 221/221/221 219/219/219
f 215/215/215 220/220/220 222/222/222
f 215/215/215 223/223/223 221/221/221
f 215/215/215 222/222/222 223/223/223
