g hand_R_10_01
v -0.515868 2.173418 0.108438
v -0.515868 2.173418 -0.108439
v -0.25874 2.173418 -0.108439
v -0.25874 2.173418 0.108438
v -0.515868 1.427768 -0.108438
v -0.25874 1.890304 -0.108438
v -0.515868 1.88996 -0.108438
v -0.25874 1.653161 -0.108438
v -0.207 1.55349 -0.108438
v -0.464127 1.272546 -0.108438
v -0.116283 1.501749 -0.108438
v -0.308904 1.220805 -0.108438
v 1E-06 1.220805 -0.108438
v 1E-06 1.501749 -0.108438
v 0.116284 1.501749 -0.108438
v 0.308906 1.220805 -0.108438
v 0.464128 1.272546 -0.108438
v 0.207001 1.55349 -0.108438
v 0.515869 1.427768 -0.108438
v 0.258741 1.653161 -0.108438
v 0.258741 1.890304 -0.108438
v 0.515869 1.88996 -0.108438
v -0.515868 1.88996 0.108438
v -0.515868 1.427768 -0.108438
v -0.515868 1.88996 -0.108438
v -0.515868 1.427768 0.108438
v -0.464127 1.272546 -0.108438
v -0.464127 1.272546 0.108438
v -0.25874 1.890304 0.108438
v -0.515868 1.427768 0.108438
v -0.515868 1.88996 0.108438
v -0.25874 1.653161 0.108438
v -0.464127 1.272546 0.108438
v -0.207 1.55349 0.108438
v -0.308904 1.220805 0.108438
v -0.116283 1.501749 0.108438
v 1E-06 1.501749 0.108438
v 1E-06 1.220805 0.108438
v 0.308906 1.220805 0.108438
v 0.116284 1.501749 0.108438
v 0.207001 1.55349 0.108438
v 0.464128 1.272546 0.108438
v 0.258741 1.653161 0.108438
v 0.515869 1.427768 0.108438
v 0.258741 1.890304 0.108438
v 0.515869 1.88996 0.108438
v -0.25874 1.890304 -0.108438
v -0.25874 1.653161 0.108438
v -0.25874 1.890304 0.108438
v -0.25874 1.653161 -0.108438
v -0.207 1.55349 0.108438
v -0.207 1.55349 -0.108438
v -0.308904 1.220805 -0.108438
v -0.464127 1.272546 -0.108438
v -0.464127 1.272546 0.108438
v -0.308904 1.220805 0.108438
v 1E-06 1.220805 -0.108438
v 1E-06 1.220805 0.108438
v 0.308906 1.220805 0.108438
v 0.308906 1.220805 -0.108438
v 0.464128 1.272546 0.108438
v 0.464128 1.272546 -0.108438
v -0.207 1.55349 -0.108438
v -0.116283 1.501749 0.108438
v -0.207 1.55349 0.108438
v -0.116283 1.501749 -0.108438
v 1E-06 1.501749 -0.108438
v 1E-06 1.501749 0.108438
v 0.116284 1.501749 0.108438
v 0.116284 1.501749 -0.108438
v 0.207001 1.55349 -0.108438
v 0.207001 1.55349 0.108438
v 0.258741 2.173418 -0.108439
v 0.515869 2.173418 -0.108439
v 0.515869 2.173418 0.108438
v 0.258741 2.173418 0.108438
v 0.515869 1.88996 0.108438
v 0.515869 1.88996 -0.108438
v 0.515869 1.427768 -0.108438
v 0.515869 1.427768 0.108438
v 0.464128 1.272546 -0.108438
v 0.464128 1.272546 0.108438
v 0.258741 1.890304 -0.108438
v 0.258741 1.890304 0.108438
v 0.258741 1.653161 0.108438
v 0.258741 1.653161 -0.108438
v 0.207001 1.55349 0.108438
v 0.207001 1.55349 -0.108438
v -0.25874 2.173418 -0.108439
v -0.515868 2.173418 -0.108439
v -0.515868 1.88996 -0.108438
v -0.25874 1.890304 -0.108438
v -0.515868 2.173418 -0.108439
v -0.515868 2.173418 0.108438
v -0.515868 1.88996 0.108438
v -0.515868 1.88996 -0.108438
v -0.25874 2.173418 0.108438
v -0.25874 1.890304 0.108438
v -0.515868 1.88996 0.108438
v -0.515868 2.173418 0.108438
v -0.25874 2.173418 0.108438
v -0.25874 2.173418 -0.108439
v -0.25874 1.890304 -0.108438
v -0.25874 1.890304 0.108438
v 0.258741 2.173418 -0.108439
v 0.258741 1.890304 -0.108438
v 0.515869 1.88996 -0.108438
v 0.515869 2.173418 -0.108439
v 0.515869 2.173418 0.108438
v 0.515869 2.173418 -0.108439
v 0.515869 1.88996 -0.108438
v 0.515869 1.88996 0.108438
v 0.258741 2.173418 0.108438
v 0.515869 2.173418 0.108438
v 0.515869 1.88996 0.108438
v 0.258741 1.890304 0.108438
v 0.258741 2.173418 -0.108439
v 0.258741 2.173418 0.108438
v 0.258741 1.890304 0.108438
v 0.258741 1.890304 -0.108438
vt 0.3191 0.9504
vt 0.3191 0.9657
vt 0.3372 0.9657
vt 0.3372 0.9504
vt 0.3777 0.4035
vt 0.3449 0.4625
vt 0.3777 0.4624
vt 0.3449 0.4322
vt 0.3383 0.4195
vt 0.3711 0.3837
vt 0.3268 0.4129
vt 0.3513 0.3771
vt 0.3119 0.3771
vt 0.3119 0.4129
vt 0.2971 0.4129
vt 0.2726 0.3771
vt 0.2528 0.3837
vt 0.2855 0.4195
vt 0.2462 0.4035
vt 0.2789 0.4322
vt 0.2789 0.4625
vt 0.2462 0.4624
vt 0.462 0.3771
vt 0.403 0.4047
vt 0.462 0.4047
vt 0.403 0.3771
vt 0.3832 0.4047
vt 0.3832 0.3771
vt 0.3449 0.468
vt 0.3777 0.527
vt 0.3777 0.468
vt 0.3449 0.4982
vt 0.3711 0.5468
vt 0.3383 0.5109
vt 0.3513 0.5533
vt 0.3268 0.5175
vt 0.3119 0.5175
vt 0.3119 0.5533
vt 0.2726 0.5533
vt 0.2971 0.5175
vt 0.2855 0.5109
vt 0.2528 0.5468
vt 0.2789 0.4982
vt 0.2462 0.527
vt 0.2789 0.468
vt 0.2462 0.468
vt 0.3832 0.562
vt 0.4135 0.5343
vt 0.3832 0.5343
vt 0.4135 0.562
vt 0.4262 0.5343
vt 0.4262 0.562
vt 0.3447 0.5865
vt 0.3645 0.5865
vt 0.3645 0.5589
vt 0.3447 0.5589
vt 0.3053 0.5865
vt 0.3053 0.5589
vt 0.266 0.5589
vt 0.266 0.5865
vt 0.2462 0.5589
vt 0.2462 0.5865
vt 0.3832 0.4379
vt 0.3948 0.4103
vt 0.3832 0.4103
vt 0.3948 0.4379
vt 0.4096 0.4379
vt 0.4096 0.4103
vt 0.4245 0.4103
vt 0.4245 0.4379
vt 0.436 0.4379
vt 0.436 0.4103
vt 0.3191 0.9428
vt 0.3373 0.9428
vt 0.3373 0.9275
vt 0.3191 0.9275
vt 0.3832 0.468
vt 0.3832 0.4956
vt 0.4422 0.4956
vt 0.4422 0.468
vt 0.462 0.4956
vt 0.462 0.468
vt 0.4262 0.5288
vt 0.4262 0.5012
vt 0.396 0.5012
vt 0.396 0.5288
vt 0.3832 0.5012
vt 0.3832 0.5288
vt 0.2752 0.9246
vt 0.2933 0.9246
vt 0.2933 0.9046
vt 0.2752 0.9046
vt 0.3162 0.9199
vt 0.3162 0.9046
vt 0.2962 0.9046
vt 0.2962 0.9199
vt 0.2752 0.8817
vt 0.2752 0.9016
vt 0.2933 0.9017
vt 0.2933 0.8817
vt 0.2962 0.9504
vt 0.2962 0.9657
vt 0.3162 0.9657
vt 0.3162 0.9504
vt 0.2684 0.9251
vt 0.2684 0.9051
vt 0.2502 0.9051
vt 0.2502 0.9251
vt 0.2962 0.9275
vt 0.2962 0.9428
vt 0.3162 0.9428
vt 0.3162 0.9275
vt 0.2684 0.8822
vt 0.2502 0.8822
vt 0.2502 0.9022
vt 0.2684 0.9022
vt 0.316 0.9891
vt 0.316 0.9738
vt 0.296 0.9738
vt 0.296 0.9891
vn 0 1 0
vn 0 1 0
vn 0 1 0
vn 0 1 0
vn 0 0 -1
vn 0 -1.768903E-06 -1
vn 0 -1.765893E-06 -1
vn 0 0 -1
vn 0 0 -1
vn 0 0 -1
vn 0 0 -1
vn 0 0 -1
vn 0 0 -1
vn 0 0 -1
vn 0 0 -1
vn 0 0 -1
vn 0 0 -1
vn 0 0 -1
vn 0 0 -1
vn 0 0 -1
vn 0 -1.768903E-06 -1
vn 0 -1.765893E-06 -1
vn -1 0 0
vn -0.9870872 -0.1601832 0
vn -1 0 0
vn -0.9870872 -0.1601832 0
vn -0.7071061 -0.7071074 0
vn -0.7071061 -0.7071074 0
vn 0 0 1
vn 0 0 1
vn 0 0 1
vn 0 0 1
vn 0 0 1
vn 0 0 1
vn 0 0 1
vn 0 0 1
vn 0 0 1
vn 0 0 1
vn 0 0 1
vn 0 0 1
vn 0 0 1
vn 0 0 1
vn 0 0 1
vn 0 0 1
vn 0 0 1
vn 0 0 1
vn 1 0 0
vn 0.9714785 0.2371279 0
vn 1 0 0
vn 0.9714785 0.2371279 0
vn 0.7209405 0.6929969 0
vn 0.7209405 0.6929969 0
vn -0.1601823 -0.9870875 0
vn -0.7071061 -0.7071074 0
vn -0.7071061 -0.7071074 0
vn -0.1601823 -0.9870875 0
vn 0 -1 0
vn 0 -1 0
vn 0.1601833 -0.9870872 0
vn 0.1601833 -0.9870872 0
vn 0.7071068 -0.7071066 0
vn 0.7071068 -0.7071066 0
vn 0.7209405 0.6929969 0
vn 0.2562771 0.9666033 0
vn 0.7209405 0.6929969 0
vn 0.2562771 0.9666033 0
vn 0 1 0
vn 0 1 0
vn -0.2562771 0.9666033 0
vn -0.2562771 0.9666033 0
vn -0.7209405 0.692997 0
vn -0.7209405 0.692997 0
vn 0 1 0
vn 0 1 0
vn 0 1 0
vn 0 1 0
vn 1 0 0
vn 1 0 0
vn 0.9870872 -0.1601832 0
vn 0.9870872 -0.1601832 0
vn 0.7071068 -0.7071066 0
vn 0.7071068 -0.7071066 0
vn -1 0 0
vn -1 0 0
vn -0.9714785 0.2371279 0
vn -0.9714785 0.2371279 0
vn -0.7209405 0.692997 0
vn -0.7209405 0.692997 0
vn 0 -3.534795E-06 -1
vn 0 -3.534795E-06 -1
vn 0 -1.765893E-06 -1
vn 0 -1.768903E-06 -1
vn -1 0 0
vn -1 0 0
vn -1 0 0
vn -1 0 0
vn 0 0 1
vn 0 0 1
vn 0 0 1
vn 0 0 1
vn 1 0 0
vn 1 0 0
vn 1 0 0
vn 1 0 0
vn 0 -3.534795E-06 -1
vn 0 -1.768903E-06 -1
vn 0 -1.765893E-06 -1
vn 0 -3.534795E-06 -1
vn 1 0 0
vn 1 0 0
vn 1 0 0
vn 1 0 0
vn 0 0 1
vn 0 0 1
vn 0 0 1
vn 0 0 1
vn -1 0 0
vn -1 0 0
vn -1 0 0
vn -1 0 0
g hand_R_10_01_0
f 3/3/3 2/2/2 1/1/1
f 4/4/4 3/3/3 1/1/1
f 7/7/7 6/6/6 5/5/5
f 6/6/6 8/8/8 5/5/5
f 5/5/5 8/8/8 9/9/9
f 10/10/10 5/5/5 9/9/9
f 10/10/10 9/9/9 11/11/11
f 12/12/12 10/10/10 11/11/11
f 13/13/13 12/12/12 11/11/11
f 14/14/14 13/13/13 11/11/11
f 14/14/14 15/15/15 13/13/13
f 15/15/15 16/16/16 13/13/13
f 16/16/16 15/15/15 17/17/17
f 15/15/15 18/18/18 17/17/17
f 17/17/17 18/18/18 19/19/19
f 18/18/18 20/20/20 19/19/19
f 19/19/19 20/20/20 21/21/21
f 22/22/22 19/19/19 21/21/21
f 25/25/25 24/24/24 23/23/23
f 24/24/24 26/26/26 23/23/23
f 26/26/26 24/24/24 27/27/27
f 28/28/28 26/26/26 27/27/27
f 31/31/31 30/30/30 29/29/29
f 30/30/30 32/32/32 29/29/29
f 30/30/30 33/33/33 32/32/32
f 33/33/33 34/34/34 32/32/32
f 33/33/33 35/35/35 34/34/34
f 35/35/35 36/36/36 34/34/34
f 36/36/36 35/35/35 37/37/37
f 35/35/35 38/38/38 37/37/37
f 37/37/37 38/38/38 39/39/39
f 40/40/40 37/37/37 39/39/39
f 41/41/41 40/40/40 39/39/39
f 42/42/42 41/41/41 39/39/39
f 43/43/43 41/41/41 42/42/42
f 44/44/44 43/43/43 42/42/42
f 43/43/43 44/44/44 45/45/45
f 44/44/44 46/46/46 45/45/45
f 49/49/49 48/48/48 47/47/47
f 48/48/48 50/50/50 47/47/47
f 48/48/48 51/51/51 50/50/50
f 51/51/51 52/52/52 50/50/50
f 55/55/55 54/54/54 53/53/53
f 56/56/56 55/55/55 53/53/53
f 56/56/56 53/53/53 57/57/57
f 58/58/58 56/56/56 57/57/57
f 58/58/58 57/57/57 59/59/59
f 57/57/57 60/60/60 59/59/59
f 59/59/59 60/60/60 61/61/61
f 60/60/60 62/62/62 61/61/61
f 65/65/65 64/64/64 63/63/63
f 64/64/64 66/66/66 63/63/63
f 67/67/67 66/66/66 64/64/64
f 68/68/68 67/67/67 64/64/64
f 68/68/68 69/69/69 67/67/67
f 69/69/69 70/70/70 67/67/67
f 71/71/71 70/70/70 69/69/69
f 72/72/72 71/71/71 69/69/69
f 75/75/75 74/74/74 73/73/73
f 76/76/76 75/75/75 73/73/73
f 79/79/79 78/78/78 77/77/77
f 80/80/80 79/79/79 77/77/77
f 81/81/81 79/79/79 80/80/80
f 82/82/82 81/81/81 80/80/80
f 85/85/85 84/84/84 83/83/83
f 86/86/86 85/85/85 83/83/83
f 85/85/85 86/86/86 87/87/87
f 86/86/86 88/88/88 87/87/87
f 91/91/91 90/90/90 89/89/89
f 92/92/92 91/91/91 89/89/89
f 95/95/95 94/94/94 93/93/93
f 96/96/96 95/95/95 93/93/93
f 99/99/99 98/98/98 97/97/97
f 100/100/100 99/99/99 97/97/97
f 103/103/103 102/102/102 101/101/101
f 104/104/104 103/103/103 101/101/101
f 107/107/107 106/106/106 105/105/105
f 108/108/108 107/107/107 105/105/105
f 111/111/111 110/110/110 109/109/109
f 112/112/112 111/111/111 109/109/109
f 115/115/115 114/114/114 113/113/113
f 116/116/116 115/115/115 113/113/113
f 119/119/119 118/118/118 117/117/117
f 120/120/120 119/119/119 117/117/117
