g hand_R_07_01
v 0.070903 1.606781 0.642037
v 0.070903 1.51221 0.182295
v 0.070903 1.286289 0.182296
v 0.070903 1.719741 0.432295
v 0.055371 1.963203 0.429083
v 0.055371 2.083701 0.549581
v 0.043023 2.095391 0.275933
v 0.043023 2.221961 0.275669
v -0.070873 1.606781 0.642037
v -0.070873 1.286289 0.182296
v -0.070873 1.51221 0.182295
v -0.070873 1.719741 0.432295
v -0.055341 1.963203 0.429083
v -0.055341 2.083701 0.549581
v -0.042994 2.095391 0.275933
v -0.042994 2.221961 0.275669
v 0.070903 1.286289 0.182296
v 0.070903 1.51221 0.182295
v -0.070873 1.51221 0.182295
v -0.070873 1.286289 0.182296
v -0.070873 1.606781 0.642037
v 0.070903 1.606781 0.642037
v 0.070903 1.286289 0.182296
v -0.070873 1.286289 0.182296
v 0.043023 2.095391 0.275933
v 0.043023 2.221961 0.275669
v -0.042994 2.221961 0.275669
v -0.042994 2.095391 0.275933
v -0.055341 1.963203 0.429083
v 0.055371 1.963203 0.429083
v 0.043023 2.095391 0.275933
v -0.042994 2.095391 0.275933
v -0.055341 2.083701 0.549581
v 0.055371 2.083701 0.549581
v 0.070903 1.606781 0.642037
v -0.070873 1.606781 0.642037
v -0.070873 1.51221 0.182295
v 0.070903 1.51221 0.182295
v 0.070903 1.719741 0.432295
v -0.070873 1.719741 0.432295
v -0.070873 1.719741 0.432295
v 0.070903 1.719741 0.432295
v 0.055371 1.963203 0.429083
v -0.055341 1.963203 0.429083
v -0.042994 2.221961 0.275669
v 0.043023 2.221961 0.275669
v 0.055371 2.083701 0.549581
v -0.055341 2.083701 0.549581
vt 0.8046 0.0604
vt 0.8194 0.1055
vt 0.8421 0.1029
vt 0.7957 0.0828
vt 0.7712 0.0859
vt 0.7578 0.0752
vt 0.7597 0.1028
vt 0.747 0.1043
vt 0.8045 0.1565
vt 0.8421 0.1141
vt 0.8194 0.1114
vt 0.7956 0.1341
vt 0.7712 0.1309
vt 0.7577 0.1416
vt 0.7597 0.114
vt 0.747 0.1125
vt 0.9023 0.2391
vt 0.9252 0.2391
vt 0.9252 0.2182
vt 0.9023 0.2182
vt 0.9021 0.0604
vt 0.9021 0.0814
vt 0.9486 0.0814
vt 0.9486 0.0604
vt 0.7808 0.0918
vt 0.7808 0.1046
vt 0.7936 0.1046
vt 0.7936 0.0918
vt 0.7896 0.1132
vt 0.7732 0.1132
vt 0.775 0.1287
vt 0.7878 0.1287
vt 0.848 0.0627
vt 0.848 0.0791
vt 0.8962 0.0814
vt 0.8962 0.0604
vt 0.9529 0.1114
vt 0.9529 0.1324
vt 0.9781 0.1324
vt 0.9781 0.1114
vt 0.8499 0.2182
vt 0.8499 0.2391
vt 0.8745 0.2368
vt 0.8745 0.2205
vt 0.9021 0.0891
vt 0.9021 0.1019
vt 0.9298 0.1037
vt 0.9298 0.0873
vn 0.9998168 0.01913545 -0.0004367826
vn 1 0 0
vn 1 0 0
vn 0.999755 0.0221316 -0.0005051722
vn 0.9992415 0.03410569 -0.01879558
vn 0.9992037 0.0309 -0.02524316
vn 0.9987937 0.02148596 -0.04415138
vn 0.9987937 0.02148596 -0.04415138
vn -0.9998168 0.01913544 -0.0004367825
vn -1 0 0
vn -1 0 0
vn -0.999755 0.02213158 -0.0005051721
vn -0.9992415 0.03410496 -0.01879411
vn -0.9992037 0.03089901 -0.02524116
vn -0.998794 0.02148423 -0.04414782
vn -0.998794 0.02148423 -0.04414782
vn 0 -4.474552E-06 -1
vn 0 -4.474552E-06 -1
vn 0 -4.474552E-06 -1
vn 0 -4.474552E-06 -1
vn 0 -0.3819898 0.9241666
vn 0 -0.3819898 0.9241666
vn 0 -0.8203425 0.5718724
vn 0 -0.8203425 0.5718724
vn 0 -0.002085765 -0.9999979
vn 0 -0.002085765 -0.9999979
vn 0 -0.002085765 -0.9999979
vn 0 -0.002085765 -0.9999979
vn 0 -0.4060493 -0.9138513
vn 0 -0.4060485 -0.9138514
vn 0 -0.7570136 -0.6533992
vn 0 -0.7570136 -0.6533992
vn 0 0.5940789 0.8044068
vn 0 0.5940784 0.8044071
vn 0 -0.3819898 0.9241666
vn 0 -0.3819898 0.9241666
vn 0 0.7694342 -0.6387262
vn 0 0.7694342 -0.6387262
vn 0 0.4279887 -0.9037842
vn 0 0.4279887 -0.9037842
vn 0 0.4279887 -0.9037842
vn 0 0.4279887 -0.9037842
vn 0 -0.4060485 -0.9138514
vn 0 -0.4060493 -0.9138513
vn 0 0.8927207 0.4506104
vn 0 0.8927207 0.4506104
vn 0 0.5940784 0.8044071
vn 0 0.5940789 0.8044068
g hand_R_07_01_0
f 3/3/3 2/2/2 1/1/1
f 2/2/2 4/4/4 1/1/1
f 1/1/1 4/4/4 5/5/5
f 6/6/6 1/1/1 5/5/5
f 6/6/6 5/5/5 7/7/7
f 8/8/8 6/6/6 7/7/7
f 11/11/11 10/10/10 9/9/9
f 12/12/12 11/11/11 9/9/9
f 12/12/12 9/9/9 13/13/13
f 9/9/9 14/14/14 13/13/13
f 13/13/13 14/14/14 15/15/15
f 14/14/14 16/16/16 15/15/15
f 19/19/19 18/18/18 17/17/17
f 20/20/20 19/19/19 17/17/17
f 23/23/23 22/22/22 21/21/21
f 24/24/24 23/23/23 21/21/21
f 27/27/27 26/26/26 25/25/25
f 28/28/28 27/27/27 25/25/25
f 31/31/31 30/30/30 29/29/29
f 32/32/32 31/31/31 29/29/29
f 35/35/35 34/34/34 33/33/33
f 36/36/36 35/35/35 33/33/33
f 39/39/39 38/38/38 37/37/37
f 40/40/40 39/39/39 37/37/37
f 43/43/43 42/42/42 41/41/41
f 44/44/44 43/43/43 41/41/41
f 47/47/47 46/46/46 45/45/45
f 48/48/48 47/47/47 45/45/45
