g hand_L_07_01_01
v 0.070886 0.305425 0.209252
v 0.070886 0.09789383 -0.04074899
v 0.070886 -0.128027 -0.04074899
v 0.070886 0.1924638 0.418993
v 0.055354 0.6693849 0.326539
v 0.055354 0.5488868 0.20604
v 0.043006 0.807645 0.05262701
v 0.043006 0.6810748 0.05289
v -0.07089 -0.128027 -0.04074899
v -0.07089 0.09789383 -0.04074899
v -0.07089 0.305425 0.209252
v -0.07089 0.1924638 0.418993
v -0.055358 0.6693849 0.326539
v -0.055358 0.5488868 0.20604
v -0.043011 0.807645 0.05262701
v -0.043011 0.6810748 0.05289
v 0.070886 0.09789383 -0.04074899
v -0.07089 0.09789383 -0.04074899
v -0.07089 -0.128027 -0.04074899
v 0.070886 -0.128027 -0.04074899
v 0.070886 0.1924638 0.418993
v 0.070886 -0.128027 -0.04074899
v -0.07089 -0.128027 -0.04074899
v -0.07089 0.1924638 0.418993
v 0.043006 0.807645 0.05262701
v -0.043011 0.807645 0.05262701
v -0.043011 0.6810748 0.05289
v 0.043006 0.6810748 0.05289
v 0.055354 0.5488868 0.20604
v 0.043006 0.6810748 0.05289
v -0.043011 0.6810748 0.05289
v -0.055358 0.5488868 0.20604
v 0.055354 0.6693849 0.326539
v 0.070886 0.1924638 0.418993
v -0.07089 0.1924638 0.418993
v -0.055358 0.6693849 0.326539
v 0.070886 0.09789383 -0.04074899
v 0.070886 0.305425 0.209252
v -0.07089 0.305425 0.209252
v -0.07089 0.09789383 -0.04074899
v 0.070886 0.305425 0.209252
v 0.055354 0.5488868 0.20604
v -0.055358 0.5488868 0.20604
v -0.07089 0.305425 0.209252
v 0.043006 0.807645 0.05262701
v 0.055354 0.6693849 0.326539
v -0.055358 0.6693849 0.326539
v -0.043011 0.807645 0.05262701
vt 0.532 0.0357
vt 0.5557 0.0585
vt 0.5784 0.0559
vt 0.541 0.0134
vt 0.4941 0.0281
vt 0.5076 0.0389
vt 0.4834 0.0572
vt 0.4961 0.0558
vt 0.6813 0.118
vt 0.6587 0.1154
vt 0.6349 0.138
vt 0.6438 0.1604
vt 0.597 0.1456
vt 0.6105 0.1349
vt 0.5863 0.1165
vt 0.599 0.118
vt 0.6921 0.2431
vt 0.6921 0.2221
vt 0.6692 0.2221
vt 0.6692 0.2431
vt 0.5863 0.2162
vt 0.6328 0.2162
vt 0.6328 0.1952
vt 0.5863 0.1952
vt 0.5172 0.0575
vt 0.5299 0.0575
vt 0.5299 0.0447
vt 0.5172 0.0447
vt 0.6125 0.1172
vt 0.6143 0.1327
vt 0.6271 0.1327
vt 0.6289 0.1172
vt 0.4834 0.2399
vt 0.5316 0.2422
vt 0.5316 0.2212
vt 0.4834 0.2235
vt 0.6853 0.0344
vt 0.7106 0.0344
vt 0.7106 0.0134
vt 0.6853 0.0134
vt 0.6387 0.2162
vt 0.6633 0.2139
vt 0.6633 0.1975
vt 0.6387 0.1952
vt 0.5843 0.1058
vt 0.612 0.1077
vt 0.612 0.0913
vt 0.5843 0.0931
vn 0.999755 0.02213162 -0.0005051005
vn 1 0 0
vn 1 0 0
vn 0.9998168 0.01913538 -0.0004367184
vn 0.9992037 0.03090014 -0.02524297
vn 0.9992415 0.03410575 -0.01879546
vn 0.9987937 0.02148623 -0.04415119
vn 0.9987937 0.02148623 -0.0441512
vn -1 0 0
vn -1 0 0
vn -0.999755 0.02213162 -0.0005051005
vn -0.9998168 0.01913538 -0.0004367184
vn -0.9992037 0.03089917 -0.02524097
vn -0.9992415 0.03410503 -0.018794
vn -0.998794 0.0214845 -0.04414764
vn -0.998794 0.0214845 -0.04414764
vn 0 0 -1
vn 0 0 -1
vn 0 0 -1
vn 0 0 -1
vn 0 -0.3819931 0.9241652
vn 0 -0.8203441 0.5718703
vn 0 -0.8203441 0.5718703
vn 0 -0.3819931 0.9241652
vn 0 -0.002077778 -0.9999979
vn 0 -0.002077778 -0.9999979
vn 0 -0.002077778 -0.9999979
vn 0 -0.002077778 -0.9999979
vn 0 -0.4060486 -0.9138514
vn 0 -0.7570137 -0.6533991
vn 0 -0.7570136 -0.6533991
vn 0 -0.4060493 -0.9138513
vn 0 0.5940766 0.8044085
vn 0 -0.3819931 0.9241652
vn 0 -0.3819931 0.9241652
vn 0 0.594077 0.8044081
vn 0 0.7694355 -0.6387246
vn 0 0.4279897 -0.9037836
vn 0 0.4279897 -0.9037836
vn 0 0.7694355 -0.6387246
vn 0 0.4279897 -0.9037836
vn 0 -0.4060486 -0.9138514
vn 0 -0.4060493 -0.9138513
vn 0 0.4279897 -0.9037836
vn 0 0.8927207 0.4506104
vn 0 0.5940766 0.8044085
vn 0 0.594077 0.8044081
vn 0 0.8927207 0.4506104
g hand_L_07_01_01_0
f 3/3/3 2/2/2 1/1/1
f 4/4/4 3/3/3 1/1/1
f 5/5/5 4/4/4 1/1/1
f 6/6/6 5/5/5 1/1/1
f 7/7/7 5/5/5 6/6/6
f 8/8/8 7/7/7 6/6/6
f 11/11/11 10/10/10 9/9/9
f 12/12/12 11/11/11 9/9/9
f 11/11/11 12/12/12 13/13/13
f 14/14/14 11/11/11 13/13/13
f 14/14/14 13/13/13 15/15/15
f 16/16/16 14/14/14 15/15/15
f 19/19/19 18/18/18 17/17/17
f 20/20/20 19/19/19 17/17/17
f 23/23/23 22/22/22 21/21/21
f 24/24/24 23/23/23 21/21/21
f 27/27/27 26/26/26 25/25/25
f 28/28/28 27/27/27 25/25/25
f 31/31/31 30/30/30 29/29/29
f 32/32/32 31/31/31 29/29/29
f 35/35/35 34/34/34 33/33/33
f 36/36/36 35/35/35 33/33/33
f 39/39/39 38/38/38 37/37/37
f 40/40/40 39/39/39 37/37/37
f 43/43/43 42/42/42 41/41/41
f 44/44/44 43/43/43 41/41/41
f 47/47/47 46/46/46 45/45/45
f 48/48/48 47/47/47 45/45/45
