g hands_right_02
v -0.2791149 1.184463 -0.3400438
v -0.2791149 0.965776 -0.3400438
v 0.2791149 0.965776 -0.3400438
v 0.2791149 1.184463 -0.3400438
v 0.2791149 0.965776 0.3400436
v -0.2791149 0.965776 0.3400436
v -0.2791149 1.184463 0.3400436
v 0.2791149 1.184463 0.3400436
v -0.229849 0.965776 -0.2982776
v -0.229849 0.965776 0.2982776
v 0.229849 0.965776 0.2982776
v 0.229849 0.965776 -0.2982776
v 0.2791149 1.184463 -0.3400438
v 0.2791149 0.965776 -0.3400438
v 0.2791149 0.965776 0.3400436
v 0.2791149 1.184463 0.3400436
v 0.2786087 1.960246 -0.396625
v 0.2786087 1.960246 0.3966251
v -0.2786087 1.960246 0.3966251
v -0.2786087 1.960246 -0.396625
v -0.3883476 1.876787 -0.5027437
v -0.3883477 2.024487 -0.5027437
v -0.3883477 2.024487 0.5027437
v -0.3883476 1.876786 0.5027435
v -0.3883477 2.024487 -0.5027437
v -0.3883476 1.876787 -0.5027437
v 0.3883476 1.876787 -0.5027437
v 0.3883477 2.024487 -0.5027437
v 0.3883477 2.024487 0.5027437
v 0.3883476 1.876786 0.5027435
v -0.3883476 1.876786 0.5027435
v -0.3883477 2.024487 0.5027437
v 0.3883477 2.024487 -0.5027437
v 0.3883476 1.876787 -0.5027437
v 0.3883476 1.876786 0.5027435
v 0.3883477 2.024487 0.5027437
v -0.229849 1.184463 -0.2982776
v -0.3190417 1.874644 -0.4541852
v -0.3190417 1.874644 0.4541852
v -0.229849 1.184463 0.2982776
v -0.3190417 1.874644 -0.4541852
v -0.229849 1.184463 -0.2982776
v 0.229849 1.184463 -0.2982776
v 0.3190417 1.874644 -0.4541852
v 0.3190417 1.874644 0.4541852
v 0.229849 1.184463 0.2982776
v -0.229849 1.184463 0.2982776
v -0.3190417 1.874644 0.4541852
v 0.3190417 1.874644 -0.4541852
v 0.229849 1.184463 -0.2982776
v 0.229849 1.184463 0.2982776
v 0.3190417 1.874644 0.4541852
v -0.2791149 0.965776 -0.3400438
v -0.2791149 1.184463 -0.3400438
v -0.2791149 1.184463 0.3400436
v -0.2791149 0.965776 0.3400436
v -0.2786087 2.026631 -0.396625
v -0.3883477 2.024487 -0.5027437
v 0.3883477 2.024487 -0.5027437
v 0.2786087 2.026631 -0.396625
v 0.2786087 2.026631 -0.396625
v 0.3883477 2.024487 -0.5027437
v 0.3883477 2.024487 0.5027437
v 0.2786087 2.026631 0.3966251
v -0.3883477 2.024487 0.5027437
v -0.2786087 2.026631 0.3966251
v -0.3883477 2.024487 -0.5027437
v -0.2786087 2.026631 -0.396625
v 0.3190417 1.874644 -0.4541852
v 0.3883476 1.876787 -0.5027437
v -0.3883476 1.876787 -0.5027437
v -0.3190417 1.874644 -0.4541852
v -0.3190417 1.874644 -0.4541852
v -0.3883476 1.876787 -0.5027437
v -0.3883476 1.876786 0.5027435
v -0.3190417 1.874644 0.4541852
v -0.3190417 1.874644 0.4541852
v -0.3883476 1.876786 0.5027435
v 0.3883476 1.876786 0.5027435
v 0.3190417 1.874644 0.4541852
v 0.3190417 1.874644 0.4541852
v 0.3883476 1.876786 0.5027435
v 0.3883476 1.876787 -0.5027437
v 0.3190417 1.874644 -0.4541852
v -0.229849 0.965776 -0.2982776
v -0.2791149 0.965776 0.3400436
v -0.229849 0.965776 0.2982776
v -0.2791149 0.965776 -0.3400438
v 0.229849 0.965776 -0.2982776
v 0.2791149 0.965776 -0.3400438
v 0.229849 0.965776 0.2982776
v 0.2791149 0.965776 0.3400436
v -0.229849 0.965776 0.2982776
v -0.2791149 0.965776 0.3400436
v 0.2791149 0.965776 0.3400436
v 0.229849 0.965776 0.2982776
v -0.229849 1.184463 -0.2982776
v -0.2791149 1.184463 -0.3400438
v 0.2791149 1.184463 -0.3400438
v 0.229849 1.184463 -0.2982776
v 0.229849 1.184463 -0.2982776
v 0.2791149 1.184463 -0.3400438
v 0.2791149 1.184463 0.3400436
v 0.229849 1.184463 0.2982776
v 0.229849 1.184463 0.2982776
v 0.2791149 1.184463 0.3400436
v -0.2791149 1.184463 0.3400436
v -0.229849 1.184463 0.2982776
v -0.229849 1.184463 0.2982776
v -0.2791149 1.184463 0.3400436
v -0.2791149 1.184463 -0.3400438
v -0.229849 1.184463 -0.2982776
v 0.2786087 2.026631 -0.396625
v 0.2786087 1.960246 -0.396625
v -0.2786087 1.960246 -0.396625
v -0.2786087 2.026631 -0.396625
v -0.2786087 2.026631 -0.396625
v -0.2786087 1.960246 -0.396625
v -0.2786087 1.960246 0.3966251
v -0.2786087 2.026631 0.3966251
v -0.2786087 2.026631 0.3966251
v -0.2786087 1.960246 0.3966251
v 0.2786087 1.960246 0.3966251
v 0.2786087 2.026631 0.3966251
v 0.2786087 2.026631 0.3966251
v 0.2786087 1.960246 0.3966251
v 0.2786087 1.960246 -0.396625
v 0.2786087 2.026631 -0.396625
v -0.1626705 2.8112 0.2088794
v -0.1626706 1.941346 0.2088794
v -0.09771208 1.941346 0.2088794
v -0.09771208 2.8112 0.2088794
v -0.1472053 2.880599 0.2088794
v -0.08842248 2.905854 0.2088794
v 0 2.8112 0.2088794
v 0 2.915313 0.2088794
v 0 1.941346 0.2088794
v 0.08842248 2.905854 0.2088794
v 0.09771208 2.8112 0.2088794
v 0.1472053 2.880599 0.2088794
v 0.09771208 1.941346 0.2088794
v 0.1626705 2.8112 0.2088794
v 0.1626706 1.941346 0.2088794
v -0.09771208 1.941346 0.2949714
v -0.1626706 1.941346 0.2949714
v -0.1626705 2.8112 0.2949714
v -0.09771208 2.8112 0.2949714
v -0.1472053 2.880599 0.2949714
v 0 1.941346 0.2949714
v -0.08842248 2.905854 0.2949714
v 0 2.8112 0.2949714
v 0 2.915313 0.2949714
v 0.09771208 1.941346 0.2949714
v 0.08842248 2.905854 0.2949714
v 0.09771208 2.8112 0.2949714
v 0.1626706 1.941346 0.2949714
v 0.1472053 2.880599 0.2949714
v 0.1626705 2.8112 0.2949714
v 0.1626705 2.8112 0.2088794
v 0.1626706 1.941346 0.2088794
v 0.1626706 1.941346 0.2949714
v 0.1626705 2.8112 0.2949714
v 0.1472053 2.880599 0.2088794
v 0.1472053 2.880599 0.2949714
v 0.08842248 2.905854 0.2088794
v 0.1472053 2.880599 0.2088794
v 0.1472053 2.880599 0.2949714
v 0.08842248 2.905854 0.2949714
v 0 2.915313 0.2088794
v 0 2.915313 0.2949714
v -0.08842248 2.905854 0.2088794
v -0.08842248 2.905854 0.2949714
v -0.1472053 2.880599 0.2088794
v -0.1472053 2.880599 0.2949714
v -0.1626705 2.8112 0.2088794
v -0.1472053 2.880599 0.2088794
v -0.1472053 2.880599 0.2949714
v -0.1626705 2.8112 0.2949714
v -0.1626706 1.941346 0.2088794
v -0.1626706 1.941346 0.2949714
v -0.1626706 2.8112 -0.2834513
v -0.1626706 1.941346 -0.2834513
v -0.09771208 1.941346 -0.2834513
v -0.09771208 2.8112 -0.2834513
v -0.1472053 2.880599 -0.2834513
v -0.08842248 2.905854 -0.2834513
v 0 2.8112 -0.2834513
v 0 2.915313 -0.2834513
v 0 1.941346 -0.2834513
v 0.08842248 2.905854 -0.2834513
v 0.09771208 2.8112 -0.2834513
v 0.1472053 2.880599 -0.2834513
v 0.09771208 1.941346 -0.2834513
v 0.1626706 2.8112 -0.2834513
v 0.1626706 1.941346 -0.2834513
v -0.09771208 1.941346 -0.1973592
v -0.1626706 1.941346 -0.1973592
v -0.1626706 2.8112 -0.1973592
v -0.09771208 2.8112 -0.1973592
v -0.1472053 2.880599 -0.1973592
v 0 1.941346 -0.1973592
v -0.08842248 2.905854 -0.1973592
v 0 2.8112 -0.1973592
v 0 2.915313 -0.1973592
v 0.09771208 1.941346 -0.1973592
v 0.08842248 2.905854 -0.1973592
v 0.09771208 2.8112 -0.1973592
v 0.1626706 1.941346 -0.1973592
v 0.1472053 2.880599 -0.1973592
v 0.1626706 2.8112 -0.1973592
v 0.1626706 2.8112 -0.2834513
v 0.1626706 1.941346 -0.2834513
v 0.1626706 1.941346 -0.1973592
v 0.1626706 2.8112 -0.1973592
v 0.1472053 2.880599 -0.2834513
v 0.1472053 2.880599 -0.1973592
v 0.08842248 2.905854 -0.2834513
v 0.1472053 2.880599 -0.2834513
v 0.1472053 2.880599 -0.1973592
v 0.08842248 2.905854 -0.1973592
v 0 2.915313 -0.2834513
v 0 2.915313 -0.1973592
v -0.08842248 2.905854 -0.2834513
v -0.08842248 2.905854 -0.1973592
v -0.1472053 2.880599 -0.2834513
v -0.1472053 2.880599 -0.1973592
v -0.1626706 2.8112 -0.2834513
v -0.1472053 2.880599 -0.2834513
v -0.1472053 2.880599 -0.1973592
v -0.1626706 2.8112 -0.1973592
v -0.1626706 1.941346 -0.2834513
v -0.1626706 1.941346 -0.1973592
vt 0.8002796 0.2145636
vt 0.8002796 0.2050723
vt 0.7623145 0.2050723
vt 0.7623145 0.2145636
vt 0.8002796 0.2050723
vt 0.7623145 0.2050723
vt 0.7623145 0.2145636
vt 0.8002796 0.2145636
vt 0.7623145 0.2050723
vt 0.7623145 0.2430374
vt 0.8002796 0.2430374
vt 0.8002796 0.2050723
vt 0.7718058 0.2050723
vt 0.7623145 0.2050723
vt 0.7623145 0.2430374
vt 0.7718058 0.2430374
vt 0.7623145 0.2050723
vt 0.7623145 0.2430374
vt 0.8002796 0.2430374
vt 0.8002796 0.2050723
vt 0.781297 0.2050723
vt 0.7623145 0.2050723
vt 0.7623145 0.2430374
vt 0.781297 0.2430374
vt 0.8002796 0.2430374
vt 0.8002796 0.2240549
vt 0.7623145 0.2240549
vt 0.7623145 0.2430374
vt 0.8002796 0.2430374
vt 0.8002796 0.2240549
vt 0.7623145 0.2240549
vt 0.7623145 0.2430374
vt 0.8002796 0.2050723
vt 0.781297 0.2050723
vt 0.781297 0.2430374
vt 0.8002796 0.2430374
vt 0.7907883 0.2050723
vt 0.781297 0.2050723
vt 0.781297 0.2430374
vt 0.7907883 0.2430374
vt 0.8002796 0.2240549
vt 0.8002796 0.2145636
vt 0.7623145 0.2145636
vt 0.7623145 0.2240549
vt 0.8002796 0.2240549
vt 0.8002796 0.2145636
vt 0.7623145 0.2145636
vt 0.7623145 0.2240549
vt 0.781297 0.2050723
vt 0.7718058 0.2050723
vt 0.7718058 0.2430374
vt 0.781297 0.2430374
vt 0.8002796 0.2050723
vt 0.7907883 0.2050723
vt 0.7907883 0.2430374
vt 0.8002796 0.2430374
vt 0.8002796 0.2430374
vt 0.8002796 0.2430374
vt 0.7623145 0.2430374
vt 0.7623145 0.2430374
vt 0.8002796 0.2050723
vt 0.8002796 0.2050723
vt 0.8002796 0.2430374
vt 0.8002796 0.2430374
vt 0.7623145 0.2430374
vt 0.7623145 0.2430374
vt 0.7623145 0.2050723
vt 0.7623145 0.2050723
vt 0.7623145 0.2240549
vt 0.7623145 0.2240549
vt 0.8002796 0.2240549
vt 0.8002796 0.2240549
vt 0.781297 0.2050723
vt 0.781297 0.2050723
vt 0.781297 0.2430374
vt 0.781297 0.2430374
vt 0.7623145 0.2240549
vt 0.7623145 0.2240549
vt 0.8002796 0.2240549
vt 0.8002796 0.2240549
vt 0.781297 0.2430374
vt 0.781297 0.2430374
vt 0.781297 0.2050723
vt 0.781297 0.2050723
vt 0.8002796 0.2050723
vt 0.8002796 0.2430374
vt 0.8002796 0.2430374
vt 0.8002796 0.2050723
vt 0.7623145 0.2050723
vt 0.7623145 0.2050723
vt 0.7623145 0.2430374
vt 0.7623145 0.2430374
vt 0.7623145 0.2050723
vt 0.7623145 0.2050723
vt 0.8002796 0.2050723
vt 0.8002796 0.2050723
vt 0.8002796 0.2145636
vt 0.8002796 0.2145636
vt 0.7623145 0.2145636
vt 0.7623145 0.2145636
vt 0.7718058 0.2050723
vt 0.7718058 0.2050723
vt 0.7718058 0.2430374
vt 0.7718058 0.2430374
vt 0.8002796 0.2145636
vt 0.8002796 0.2145636
vt 0.7623145 0.2145636
vt 0.7623145 0.2145636
vt 0.7907883 0.2430374
vt 0.7907883 0.2430374
vt 0.7907883 0.2050723
vt 0.7907883 0.2050723
vt 0.7623145 0.2050723
vt 0.7623145 0.2050723
vt 0.8002796 0.2050723
vt 0.8002796 0.2050723
vt 0.8002796 0.2050723
vt 0.8002796 0.2050723
vt 0.8002796 0.2430374
vt 0.8002796 0.2430374
vt 0.8002796 0.2430374
vt 0.8002796 0.2430374
vt 0.7623145 0.2430374
vt 0.7623145 0.2430374
vt 0.7623145 0.2430374
vt 0.7623145 0.2430374
vt 0.7623145 0.2050723
vt 0.7623145 0.2050723
vt 0.7691092 0.4937101
vt 0.7691092 0.4854679
vt 0.7649881 0.4854679
vt 0.7649881 0.4937101
vt 0.7691092 0.5019525
vt 0.7649881 0.5019525
vt 0.7608669 0.4937101
vt 0.7608669 0.5019525
vt 0.7608669 0.4854679
vt 0.7567458 0.5019525
vt 0.7567458 0.4937101
vt 0.7526247 0.5019525
vt 0.7567458 0.4854679
vt 0.7526247 0.4937101
vt 0.7526247 0.4854679
vt 0.7567458 0.4854679
vt 0.7526247 0.4854679
vt 0.7526247 0.4937101
vt 0.7567458 0.4937101
vt 0.7526247 0.5019525
vt 0.7608669 0.4854679
vt 0.7567458 0.5019525
vt 0.7608669 0.4937101
vt 0.7608669 0.5019525
vt 0.7649881 0.4854679
vt 0.7649881 0.5019525
vt 0.7649881 0.4937101
vt 0.7691092 0.4854679
vt 0.7691092 0.5019525
vt 0.7691092 0.4937101
vt 0.7608669 0.4854679
vt 0.7526247 0.4854679
vt 0.7526247 0.5019525
vt 0.7608669 0.5019525
vt 0.7691092 0.4854679
vt 0.7691092 0.5019525
vt 0.7567458 0.4854679
vt 0.7526247 0.4854679
vt 0.7526247 0.5019525
vt 0.7567458 0.5019525
vt 0.7608669 0.4854679
vt 0.7608669 0.5019525
vt 0.7649881 0.4854679
vt 0.7649881 0.5019525
vt 0.7691092 0.4854679
vt 0.7691092 0.5019525
vt 0.7608669 0.4854679
vt 0.7526247 0.4854679
vt 0.7526247 0.5019525
vt 0.7608669 0.5019525
vt 0.7691092 0.4854679
vt 0.7691092 0.5019525
vt 0.7691092 0.4937101
vt 0.7691092 0.4854679
vt 0.7649881 0.4854679
vt 0.7649881 0.4937101
vt 0.7691092 0.5019525
vt 0.7649881 0.5019525
vt 0.7608669 0.4937101
vt 0.7608669 0.5019525
vt 0.7608669 0.4854679
vt 0.7567458 0.5019525
vt 0.7567458 0.4937101
vt 0.7526247 0.5019525
vt 0.7567458 0.4854679
vt 0.7526247 0.4937101
vt 0.7526247 0.4854679
vt 0.7567458 0.4854679
vt 0.7526247 0.4854679
vt 0.7526247 0.4937101
vt 0.7567458 0.4937101
vt 0.7526247 0.5019525
vt 0.7608669 0.4854679
vt 0.7567458 0.5019525
vt 0.7608669 0.4937101
vt 0.7608669 0.5019525
vt 0.7649881 0.4854679
vt 0.7649881 0.5019525
vt 0.7649881 0.4937101
vt 0.7691092 0.4854679
vt 0.7691092 0.5019525
vt 0.7691092 0.4937101
vt 0.7608669 0.4854679
vt 0.7526247 0.4854679
vt 0.7526247 0.5019525
vt 0.7608669 0.5019525
vt 0.7691092 0.4854679
vt 0.7691092 0.5019525
vt 0.7567458 0.4854679
vt 0.7526247 0.4854679
vt 0.7526247 0.5019525
vt 0.7567458 0.5019525
vt 0.7608669 0.4854679
vt 0.7608669 0.5019525
vt 0.7649881 0.4854679
vt 0.7649881 0.5019525
vt 0.7691092 0.4854679
vt 0.7691092 0.5019525
vt 0.7608669 0.4854679
vt 0.7526247 0.4854679
vt 0.7526247 0.5019525
vt 0.7608669 0.5019525
vt 0.7691092 0.4854679
vt 0.7691092 0.5019525
vn 0 0 -1
vn 0 0 -1
vn 0 0 -1
vn 0 0 -1
vn 0 0 1
vn 0 0 1
vn 0 0 1
vn 0 0 1
vn 0 -1 0
vn 0 -1 0
vn 0 -1 0
vn 0 -1 0
vn 1 0 0
vn 1 0 0
vn 1 0 0
vn 1 0 0
vn 0 1 0
vn 0 1 0
vn 0 1 0
vn 0 1 0
vn -1 -5.165452E-07 0
vn -1 -5.165453E-07 0
vn -1 -5.165452E-07 0
vn -1 -5.165452E-07 0
vn 0 0 -1
vn 0 0 -1
vn 0 0 -1
vn 0 0 -1
vn 0 -1.03309E-06 1
vn 0 -1.03309E-06 1
vn 0 -1.03309E-06 1
vn 0 -1.03309E-06 1
vn 1 -5.165452E-07 0
vn 1 -5.165452E-07 0
vn 1 -5.165452E-07 0
vn 1 -5.165452E-07 0
vn -0.9917529 -0.1281651 0
vn -0.9917529 -0.1281651 0
vn -0.9917529 -0.1281651 0
vn -0.9917529 -0.1281651 0
vn 0 -0.2203419 -0.9754227
vn 0 -0.220342 -0.9754227
vn 0 -0.220342 -0.9754227
vn 0 -0.2203419 -0.9754227
vn 0 -0.220342 0.9754227
vn 0 -0.2203421 0.9754227
vn 0 -0.2203421 0.9754227
vn 0 -0.220342 0.9754227
vn 0.9917529 -0.1281651 0
vn 0.9917529 -0.1281651 0
vn 0.9917529 -0.1281651 0
vn 0.9917529 -0.1281651 0
vn -1 0 0
vn -1 0 0
vn -1 0 0
vn -1 0 0
vn 0 0.9997961 -0.02019547
vn 0 0.9997961 -0.02019547
vn 0 0.9997961 -0.02019547
vn 0 0.9997961 -0.02019547
vn 0.01953087 0.9998093 1.696095E-07
vn 0.01953087 0.9998093 1.696095E-07
vn 0.01953087 0.9998093 1.696095E-07
vn 0.01953087 0.9998093 1.696095E-07
vn 0 0.999796 0.02019836
vn 0 0.999796 0.02019836
vn -0.01953087 0.9998093 1.696095E-07
vn -0.01953087 0.9998093 1.696095E-07
vn 0 -0.9990273 -0.04409767
vn 0 -0.9990273 -0.04409767
vn 0 -0.9990273 -0.04409767
vn 0 -0.9990273 -0.04409767
vn -0.03090862 -0.9995222 -2.390833E-07
vn -0.03090862 -0.9995222 -2.390833E-07
vn -0.03090862 -0.9995222 -2.390833E-07
vn -0.03090862 -0.9995222 -2.390833E-07
vn 0 -0.9990276 0.04408842
vn 0 -0.9990276 0.04408842
vn 0 -0.9990276 0.04408842
vn 0 -0.9990276 0.04408842
vn 0.03090862 -0.9995222 -2.390833E-07
vn 0.03090862 -0.9995222 -2.390833E-07
vn 0.03090862 -0.9995222 -2.390833E-07
vn 0.03090862 -0.9995222 -2.390833E-07
vn 0 -1 0
vn 0 -1 0
vn 0 -1 0
vn 0 -1 0
vn 0 -1 0
vn 0 -1 0
vn 0 -1 0
vn 0 -1 0
vn 0 -1 0
vn 0 -1 0
vn 0 -1 0
vn 0 -1 0
vn 0 1 0
vn 0 1 0
vn 0 1 0
vn 0 1 0
vn 0 1 0
vn 0 1 0
vn 0 1 0
vn 0 1 0
vn 0 1 0
vn 0 1 0
vn 0 1 0
vn 0 1 0
vn 0 1 0
vn 0 1 0
vn 0 1 0
vn 0 1 0
vn 0 0 1
vn 0 0 1
vn 0 0 1
vn 0 0 1
vn 1 0 0
vn 1 0 0
vn 1 0 0
vn 1 0 0
vn 0 0 -1
vn 0 0 -1
vn 0 0 -1
vn 0 0 -1
vn -1 0 0
vn -1 0 0
vn -1 0 0
vn -1 0 0
vn 0 0 -1
vn 0 0 -1
vn 0 0 -1
vn 0 0 -1
vn 0 0 -1
vn 0 0 -1
vn 0 0 -1
vn 0 0 -1
vn 0 0 -1
vn 0 0 -1
vn 0 0 -1
vn 0 0 -1
vn 0 0 -1
vn 0 0 -1
vn 0 0 -1
vn 0 0 1
vn 0 0 1
vn 0 0 1
vn 0 0 1
vn 0 0 1
vn 0 0 1
vn 0 0 1
vn 0 0 1
vn 0 0 1
vn 0 0 1
vn 0 0 1
vn 0 0 1
vn 0 0 1
vn 0 0 1
vn 0 0 1
vn 0.9939965 0.1094123 0
vn 1 0 0
vn 1 0 0
vn 0.9939965 0.1094123 0
vn 0.9760579 0.2175109 0
vn 0.9760579 0.2175109 0
vn 0.2533876 0.9673648 0
vn 0.3947405 0.9187927 0
vn 0.3947405 0.9187927 0
vn 0.2533876 0.9673648 0
vn 0 1 0
vn 0 1 0
vn -0.2533876 0.9673648 0
vn -0.2533876 0.9673648 0
vn -0.3947405 0.9187927 0
vn -0.3947405 0.9187927 0
vn -0.9939965 0.1094123 0
vn -0.9760579 0.2175109 0
vn -0.9760579 0.2175109 0
vn -0.9939965 0.1094123 0
vn -1 0 0
vn -1 0 0
vn 0 0 -1
vn 0 0 -1
vn 0 0 -1
vn 0 0 -1
vn 0 0 -1
vn 0 0 -1
vn 0 0 -1
vn 0 0 -1
vn 0 0 -1
vn 0 0 -1
vn 0 0 -1
vn 0 0 -1
vn 0 0 -1
vn 0 0 -1
vn 0 0 -1
vn 0 0 1
vn 0 0 1
vn 0 2.219167E-07 1
vn 0 2.17627E-07 1
vn 0 4.798358E-07 1
vn 0 0 1
vn 0 4.204505E-07 1
vn 0 1.923752E-07 1
vn 0 3.847503E-07 1
vn 0 0 1
vn 0 4.204505E-07 1
vn 0 2.17627E-07 1
vn 0 0 1
vn 0 4.798358E-07 1
vn 0 2.219167E-07 1
vn 0.9939965 0.1094125 0
vn 1 0 0
vn 1 0 0
vn 0.9939965 0.1094125 0
vn 0.9760578 0.2175112 0
vn 0.9760578 0.2175112 0
vn 0.2533876 0.9673648 0
vn 0.3947405 0.9187927 0
vn 0.3947405 0.9187927 0
vn 0.2533876 0.9673648 0
vn 0 1 0
vn 0 1 0
vn -0.2533876 0.9673648 0
vn -0.2533876 0.9673648 0
vn -0.3947405 0.9187927 0
vn -0.3947405 0.9187927 0
vn -0.9939965 0.1094125 0
vn -0.9760578 0.2175112 0
vn -0.9760578 0.2175112 0
vn -0.9939965 0.1094124 0
vn -1 0 0
vn -1 0 0
g hands_right_02_0
f 3/3/3 2/2/2 1/1/1
f 4/4/4 3/3/3 1/1/1
f 7/7/7 6/6/6 5/5/5
f 8/8/8 7/7/7 5/5/5
f 11/11/11 10/10/10 9/9/9
f 12/12/12 11/11/11 9/9/9
f 15/15/15 14/14/14 13/13/13
f 16/16/16 15/15/15 13/13/13
f 19/19/19 18/18/18 17/17/17
f 20/20/20 19/19/19 17/17/17
f 23/23/23 22/22/22 21/21/21
f 24/24/24 23/23/23 21/21/21
f 27/27/27 26/26/26 25/25/25
f 28/28/28 27/27/27 25/25/25
f 31/31/31 30/30/30 29/29/29
f 32/32/32 31/31/31 29/29/29
f 35/35/35 34/34/34 33/33/33
f 36/36/36 35/35/35 33/33/33
f 39/39/39 38/38/38 37/37/37
f 40/40/40 39/39/39 37/37/37
f 43/43/43 42/42/42 41/41/41
f 44/44/44 43/43/43 41/41/41
f 47/47/47 46/46/46 45/45/45
f 48/48/48 47/47/47 45/45/45
f 51/51/51 50/50/50 49/49/49
f 52/52/52 51/51/51 49/49/49
f 55/55/55 54/54/54 53/53/53
f 56/56/56 55/55/55 53/53/53
f 59/59/59 58/58/58 57/57/57
f 60/60/60 59/59/59 57/57/57
f 63/63/63 62/62/62 61/61/61
f 64/64/64 63/63/63 61/61/61
f 65/65/65 63/63/63 64/64/64
f 66/66/66 65/65/65 64/64/64
f 67/67/67 65/65/65 66/66/66
f 68/68/68 67/67/67 66/66/66
f 71/71/71 70/70/70 69/69/69
f 72/72/72 71/71/71 69/69/69
f 75/75/75 74/74/74 73/73/73
f 76/76/76 75/75/75 73/73/73
f 79/79/79 78/78/78 77/77/77
f 80/80/80 79/79/79 77/77/77
f 83/83/83 82/82/82 81/81/81
f 84/84/84 83/83/83 81/81/81
f 87/87/87 86/86/86 85/85/85
f 86/86/86 88/88/88 85/85/85
f 85/85/85 88/88/88 89/89/89
f 88/88/88 90/90/90 89/89/89
f 89/89/89 90/90/90 91/91/91
f 90/90/90 92/92/92 91/91/91
f 95/95/95 94/94/94 93/93/93
f 96/96/96 95/95/95 93/93/93
f 99/99/99 98/98/98 97/97/97
f 100/100/100 99/99/99 97/97/97
f 103/103/103 102/102/102 101/101/101
f 104/104/104 103/103/103 101/101/101
f 107/107/107 106/106/106 105/105/105
f 108/108/108 107/107/107 105/105/105
f 111/111/111 110/110/110 109/109/109
f 112/112/112 111/111/111 109/109/109
f 115/115/115 114/114/114 113/113/113
f 116/116/116 115/115/115 113/113/113
f 119/119/119 118/118/118 117/117/117
f 120/120/120 119/119/119 117/117/117
f 123/123/123 122/122/122 121/121/121
f 124/124/124 123/123/123 121/121/121
f 127/127/127 126/126/126 125/125/125
f 128/128/128 127/127/127 125/125/125
f 131/131/131 130/130/130 129/129/129
f 132/132/132 131/131/131 129/129/129
f 132/132/132 129/129/129 133/133/133
f 134/134/134 132/132/132 133/133/133
f 131/131/131 132/132/132 135/135/135
f 135/135/135 132/132/132 134/134/134
f 136/136/136 135/135/135 134/134/134
f 137/137/137 131/131/131 135/135/135
f 135/135/135 136/136/136 138/138/138
f 137/137/137 135/135/135 139/139/139
f 139/139/139 135/135/135 138/138/138
f 139/139/139 138/138/138 140/140/140
f 141/141/141 137/137/137 139/139/139
f 142/142/142 139/139/139 140/140/140
f 141/141/141 139/139/139 142/142/142
f 143/143/143 141/141/141 142/142/142
f 146/146/146 145/145/145 144/144/144
f 147/147/147 146/146/146 144/144/144
f 146/146/146 147/147/147 148/148/148
f 147/147/147 144/144/144 149/149/149
f 147/147/147 150/150/150 148/148/148
f 151/151/151 147/147/147 149/149/149
f 147/147/147 151/151/151 150/150/150
f 151/151/151 152/152/152 150/150/150
f 151/151/151 149/149/149 153/153/153
f 152/152/152 151/151/151 154/154/154
f 155/155/155 151/151/151 153/153/153
f 151/151/151 155/155/155 154/154/154
f 155/155/155 153/153/153 156/156/156
f 154/154/154 155/155/155 157/157/157
f 158/158/158 155/155/155 156/156/156
f 155/155/155 158/158/158 157/157/157
f 161/161/161 160/160/160 159/159/159
f 162/162/162 161/161/161 159/159/159
f 162/162/162 159/159/159 163/163/163
f 164/164/164 162/162/162 163/163/163
f 167/167/167 166/166/166 165/165/165
f 168/168/168 167/167/167 165/165/165
f 168/168/168 165/165/165 169/169/169
f 170/170/170 168/168/168 169/169/169
f 170/170/170 169/169/169 171/171/171
f 172/172/172 170/170/170 171/171/171
f 172/172/172 171/171/171 173/173/173
f 174/174/174 172/172/172 173/173/173
f 177/177/177 176/176/176 175/175/175
f 178/178/178 177/177/177 175/175/175
f 178/178/178 175/175/175 179/179/179
f 180/180/180 178/178/178 179/179/179
f 183/183/183 182/182/182 181/181/181
f 184/184/184 183/183/183 181/181/181
f 184/184/184 181/181/181 185/185/185
f 186/186/186 184/184/184 185/185/185
f 183/183/183 184/184/184 187/187/187
f 187/187/187 184/184/184 186/186/186
f 188/188/188 187/187/187 186/186/186
f 189/189/189 183/183/183 187/187/187
f 187/187/187 188/188/188 190/190/190
f 189/189/189 187/187/187 191/191/191
f 191/191/191 187/187/187 190/190/190
f 191/191/191 190/190/190 192/192/192
f 193/193/193 189/189/189 191/191/191
f 194/194/194 191/191/191 192/192/192
f 193/193/193 191/191/191 194/194/194
f 195/195/195 193/193/193 194/194/194
f 198/198/198 197/197/197 196/196/196
f 199/199/199 198/198/198 196/196/196
f 198/198/198 199/199/199 200/200/200
f 199/199/199 196/196/196 201/201/201
f 199/199/199 202/202/202 200/200/200
f 203/203/203 199/199/199 201/201/201
f 199/199/199 203/203/203 202/202/202
f 203/203/203 204/204/204 202/202/202
f 203/203/203 201/201/201 205/205/205
f 204/204/204 203/203/203 206/206/206
f 207/207/207 203/203/203 205/205/205
f 203/203/203 207/207/207 206/206/206
f 207/207/207 205/205/205 208/208/208
f 206/206/206 207/207/207 209/209/209
f 210/210/210 207/207/207 208/208/208
f 207/207/207 210/210/210 209/209/209
f 213/213/213 212/212/212 211/211/211
f 214/214/214 213/213/213 211/211/211
f 214/214/214 211/211/211 215/215/215
f 216/216/216 214/214/214 215/215/215
f 219/219/219 218/218/218 217/217/217
f 220/220/220 219/219/219 217/217/217
f 220/220/220 217/217/217 221/221/221
f 222/222/222 220/220/220 221/221/221
f 222/222/222 221/221/221 223/223/223
f 224/224/224 222/222/222 223/223/223
f 224/224/224 223/223/223 225/225/225
f 226/226/226 224/224/224 225/225/225
f 229/229/229 228/228/228 227/227/227
f 230/230/230 229/229/229 227/227/227
f 230/230/230 227/227/227 231/231/231
f 232/232/232 230/230/230 231/231/231
