g hand_R_07_01_02
v -0.419003 0.192464 0.070889
v 0.04073799 0.09789398 0.070889
v 0.04073799 -0.1280269 0.07089
v -0.209262 0.3054251 0.070889
v -0.20605 0.548887 0.055356
v -0.326549 0.6693851 0.055356
v -0.05290001 0.681075 0.043009
v -0.052637 0.8076451 0.043008
v -0.419003 0.192464 -0.070887
v 0.04073799 -0.1280269 -0.070886
v 0.04073799 0.09789398 -0.070887
v -0.209262 0.3054251 -0.070887
v -0.20605 0.548887 -0.055356
v -0.326549 0.6693851 -0.055356
v -0.05290001 0.681075 -0.043009
v -0.052637 0.8076451 -0.043009
v 0.04073799 -0.1280269 0.07089
v 0.04073799 0.09789398 0.070889
v 0.04073799 0.09789398 -0.070887
v 0.04073799 -0.1280269 -0.070886
v -0.419003 0.192464 -0.070887
v -0.419003 0.192464 0.070889
v 0.04073799 -0.1280269 0.07089
v 0.04073799 -0.1280269 -0.070886
v -0.05290001 0.681075 0.043009
v -0.052637 0.8076451 0.043008
v -0.052637 0.8076451 -0.043009
v -0.05290001 0.681075 -0.043009
v -0.20605 0.548887 -0.055356
v -0.20605 0.548887 0.055356
v -0.05290001 0.681075 0.043009
v -0.05290001 0.681075 -0.043009
v -0.326549 0.6693851 -0.055356
v -0.326549 0.6693851 0.055356
v -0.419003 0.192464 0.070889
v -0.419003 0.192464 -0.070887
v 0.04073799 0.09789398 -0.070887
v 0.04073799 0.09789398 0.070889
v -0.209262 0.3054251 0.070889
v -0.209262 0.3054251 -0.070887
v -0.209262 0.3054251 -0.070887
v -0.209262 0.3054251 0.070889
v -0.20605 0.548887 0.055356
v -0.20605 0.548887 -0.055356
v -0.052637 0.8076451 -0.043009
v -0.052637 0.8076451 0.043008
v -0.326549 0.6693851 0.055356
v -0.326549 0.6693851 -0.055356
vt 0.9055 0.0094
vt 0.9203 0.0545
vt 0.943 0.0519
vt 0.8966 0.0318
vt 0.8722 0.0349
vt 0.8587 0.0242
vt 0.8607 0.0518
vt 0.848 0.0533
vt 0.8045 0.2094
vt 0.8421 0.167
vt 0.8194 0.1644
vt 0.7956 0.187
vt 0.7712 0.1839
vt 0.7577 0.1946
vt 0.7597 0.1669
vt 0.747 0.1654
vt 0.9328 0.2122
vt 0.9557 0.2122
vt 0.9557 0.1913
vt 0.9328 0.1913
vt 0.9041 0.1644
vt 0.9041 0.1853
vt 0.9505 0.1853
vt 0.9505 0.1644
vt 0.8818 0.0408
vt 0.8818 0.0536
vt 0.8945 0.0536
vt 0.8945 0.0408
vt 0.7896 0.1662
vt 0.7732 0.1662
vt 0.775 0.1817
vt 0.7878 0.1817
vt 0.8499 0.1667
vt 0.8499 0.183
vt 0.8981 0.1853
vt 0.8981 0.1644
vt 0.8011 0.2173
vt 0.8011 0.2383
vt 0.8264 0.2383
vt 0.8264 0.2173
vt 0.9545 0.0604
vt 0.9545 0.0814
vt 0.9791 0.0791
vt 0.9791 0.0627
vt 0.9489 0.0382
vt 0.9489 0.0509
vt 0.9766 0.0527
vt 0.9766 0.0363
vn 0.0004370471 0.01913805 0.9998168
vn 5.391831E-07 2.621176E-06 1
vn 5.391831E-07 2.621176E-06 1
vn 0.0005053966 0.02213432 0.9997548
vn 0.01879397 0.03410829 0.9992415
vn 0.0252409 0.0309026 0.9992036
vn 0.04414747 0.02148846 0.9987938
vn 0.04414748 0.02148846 0.9987938
vn 0.0004363935 0.01913268 -0.999817
vn -5.366156E-07 -2.608694E-06 -1
vn -5.366156E-07 -2.608694E-06 -1
vn 0.0005048091 0.02212894 -0.999755
vn 0.01879396 0.03410341 -0.9992416
vn 0.02524094 0.03089795 -0.9992039
vn 0.04414764 0.0214845 -0.998794
vn 0.04414764 0.0214845 -0.998794
vn 1 0 0
vn 1 0 0
vn 1 0 0
vn 1 0 0
vn -0.9241657 -0.3819917 0
vn -0.9241651 -0.3819932 0
vn -0.5718712 -0.8203434 0
vn -0.5718711 -0.8203434 0
vn 0.9999979 -0.002077929 0
vn 0.9999979 -0.002077929 0
vn 0.9999979 -0.002077929 0
vn 0.9999979 -0.002077929 0
vn 0.913851 -0.4060497 0
vn 0.9138514 -0.4060487 0
vn 0.6533992 -0.7570136 0
vn 0.6533992 -0.7570136 0
vn -0.804408 0.5940773 0
vn -0.8044087 0.5940764 0
vn -0.9241651 -0.3819932 0
vn -0.9241657 -0.3819917 0
vn 0.6387262 0.7694342 0
vn 0.6387262 0.7694342 0
vn 0.9037837 0.4279894 0
vn 0.9037843 0.4279882 0
vn 0.9037843 0.4279882 0
vn 0.9037837 0.4279894 0
vn 0.9138514 -0.4060487 0
vn 0.913851 -0.4060497 0
vn -0.4506104 0.8927207 0
vn -0.4506104 0.8927207 0
vn -0.8044087 0.5940764 0
vn -0.804408 0.5940773 0
g hand_R_07_01_02_0
f 3/3/3 2/2/2 1/1/1
f 2/2/2 4/4/4 1/1/1
f 1/1/1 4/4/4 5/5/5
f 6/6/6 1/1/1 5/5/5
f 6/6/6 5/5/5 7/7/7
f 8/8/8 6/6/6 7/7/7
f 11/11/11 10/10/10 9/9/9
f 12/12/12 11/11/11 9/9/9
f 12/12/12 9/9/9 13/13/13
f 9/9/9 14/14/14 13/13/13
f 13/13/13 14/14/14 15/15/15
f 14/14/14 16/16/16 15/15/15
f 19/19/19 18/18/18 17/17/17
f 20/20/20 19/19/19 17/17/17
f 23/23/23 22/22/22 21/21/21
f 24/24/24 23/23/23 21/21/21
f 27/27/27 26/26/26 25/25/25
f 28/28/28 27/27/27 25/25/25
f 31/31/31 30/30/30 29/29/29
f 32/32/32 31/31/31 29/29/29
f 35/35/35 34/34/34 33/33/33
f 36/36/36 35/35/35 33/33/33
f 39/39/39 38/38/38 37/37/37
f 40/40/40 39/39/39 37/37/37
f 43/43/43 42/42/42 41/41/41
f 44/44/44 43/43/43 41/41/41
f 47/47/47 46/46/46 45/45/45
f 48/48/48 47/47/47 45/45/45
