g Head_Strap
v 0.1979502 0.03818466 -0.02693542
v 0.2083016 -0.01095016 0.02693497
v 0.2083016 -0.01095016 -0.02693542
v 0.1979502 0.03818466 0.02693497
v 0.1854676 0.06134735 -0.02693542
v 0.1854676 0.06134735 0.02693497
v 0.166786 0.07467774 -0.02693504
v 0.166786 0.07467774 0.02693497
v 0.0624927 0.07467774 0.02693497
v 0.04381112 0.06134735 -0.02693542
v 0.04381112 0.06134735 0.02693497
v 0.0624927 0.07467774 -0.02693542
v 0.08809967 0.08395096 0.02693497
v 0.08809967 0.08395096 -0.02693542
v 0.1137074 0.0864299 -0.02693542
v 0.1137074 0.0864299 0.02693497
v 0.1402463 0.08395096 0.02693497
v 0.1402463 0.08395096 -0.02693542
v 0.166786 0.07467774 -0.02693504
v 0.166786 0.07467774 0.02693497
v 0.03132771 0.03818466 -0.02693542
v 0.04381112 0.06134735 0.02693497
v 0.04381112 0.06134735 -0.02693542
v 0.03132771 0.03818466 0.02693497
v 0.02100455 -0.01095016 -0.02693542
v 0.02100455 -0.01095016 0.02693497
v 0.2083016 -0.01095016 -0.02693542
v 0.2447573 -0.01095001 0.02693497
v 0.2447573 -0.01095001 -0.02693542
v 0.2083016 -0.01095016 0.02693497
v -0.003032627 -0.01095016 0.02693497
v -0.008861074 -0.007271423 0.02693497
v -0.01144224 -0.0001698303 0.02693497
v -0.008861074 0.006931763 0.02693497
v -0.003032627 0.0106105 0.02693497
v 0.01566041 0.0106105 0.02693497
v 0.02100455 -0.01095016 0.02693497
v 0.03132771 0.03818466 0.02693497
v 0.0232076 0.04177688 0.02693497
v 0.03759538 0.06798477 0.02693497
v 0.04381112 0.06134735 0.02693497
v 0.05912855 0.08334976 0.02693497
v 0.0624927 0.07467774 0.02693497
v 0.08809967 0.08395096 0.02693497
v 0.08641836 0.09298035 0.02693497
v 0.1137074 0.0864299 0.02693497
v 0.1137074 0.09581649 0.02693497
v 0.1419284 0.09298035 0.02693497
v 0.1402463 0.08395096 0.02693497
v 0.1701494 0.08334976 0.02693497
v 0.166786 0.07467774 0.02693497
v 0.1916825 0.06798477 0.02693497
v 0.1854676 0.06134735 0.02693497
v 0.2060711 0.04177673 0.02693497
v 0.1979502 0.03818466 0.02693497
v 0.2169694 -0.002628784 0.02693497
v 0.2083016 -0.01095016 0.02693497
v 0.2447573 -0.01095001 0.02693497
v 0.2374362 -0.002628784 0.02693497
v 0.2447573 0.02265503 0.02693497
v 0.2374362 0.02265503 0.02693497
v -0.01144224 -0.0001698303 -0.02693542
v -0.008861074 0.006931763 0.02693497
v -0.01144224 -0.0001698303 0.02693497
v -0.008861074 0.006931763 -0.02693542
v -0.003032627 0.0106105 -0.02693542
v -0.003032627 0.0106105 0.02693497
v 0.01566041 0.0106105 0.02693497
v 0.01566041 0.0106105 -0.02693542
v 0.2447573 0.02265503 -0.02693542
v 0.2374362 0.02265503 0.02693497
v 0.2374362 0.02265503 -0.02693542
v 0.2447573 0.02265503 0.02693497
v 0.2447573 0.02265503 0.02693497
v 0.2447573 -0.01095001 -0.02693542
v 0.2447573 -0.01095001 0.02693497
v 0.2447573 0.02265503 -0.02693542
v 0.0232076 0.04177688 -0.02693542
v 0.01566041 0.0106105 0.02693497
v 0.01566041 0.0106105 -0.02693542
v 0.0232076 0.04177688 0.02693497
v 0.03759538 0.06798477 -0.02693542
v 0.03759538 0.06798477 0.02693497
v 0.05912855 0.08334976 -0.02693542
v 0.05912855 0.08334976 0.02693497
v 0.08641836 0.09298035 0.02693497
v 0.08641836 0.09298035 -0.02693542
v 0.2374362 -0.002628784 -0.02693542
v 0.2169694 -0.002628784 0.02693497
v 0.2169694 -0.002628784 -0.02693542
v 0.2374362 -0.002628784 0.02693497
v -0.008861074 -0.007271423 0.02693497
v -0.01144224 -0.0001698303 -0.02693542
v -0.01144224 -0.0001698303 0.02693497
v -0.008861074 -0.007271423 -0.02693542
v -0.003032627 -0.01095016 0.02693497
v -0.003032627 -0.01095016 -0.02693542
v 0.2374362 -0.002628784 -0.02693542
v 0.2374362 0.02265503 0.02693497
v 0.2374362 -0.002628784 0.02693497
v 0.2374362 0.02265503 -0.02693542
v -0.01144224 -0.0001698303 -0.02693542
v -0.003032627 0.0106105 -0.02693542
v -0.008861074 0.006931763 -0.02693542
v -0.003032627 -0.01095016 -0.02693542
v -0.008861074 -0.007271423 -0.02693542
v 0.01566041 0.0106105 -0.02693542
v 0.02100455 -0.01095016 -0.02693542
v 0.0232076 0.04177688 -0.02693542
v 0.03132771 0.03818466 -0.02693542
v 0.03759538 0.06798477 -0.02693542
v 0.04381112 0.06134735 -0.02693542
v 0.05912855 0.08334976 -0.02693542
v 0.0624927 0.07467774 -0.02693542
v 0.08809967 0.08395096 -0.02693542
v 0.08641836 0.09298035 -0.02693542
v 0.1137074 0.0864299 -0.02693542
v 0.1137074 0.09581649 -0.02693542
v 0.1419284 0.09298035 -0.02693542
v 0.1402463 0.08395096 -0.02693542
v 0.1701494 0.08334976 -0.02693542
v 0.166786 0.07467774 -0.02693504
v 0.1916825 0.06798477 -0.02693542
v 0.1854676 0.06134735 -0.02693542
v 0.2060711 0.04177673 -0.02693542
v 0.1979502 0.03818466 -0.02693542
v 0.2169694 -0.002628784 -0.02693542
v 0.2083016 -0.01095016 -0.02693542
v 0.2374362 -0.002628784 -0.02693542
v 0.2447573 -0.01095001 -0.02693542
v 0.2447573 0.02265503 -0.02693542
v 0.2374362 0.02265503 -0.02693542
v 0.2060711 0.04177673 0.02693497
v 0.2169694 -0.002628784 -0.02693542
v 0.2169694 -0.002628784 0.02693497
v 0.2060711 0.04177673 -0.02693542
v 0.1916825 0.06798477 0.02693497
v 0.1916825 0.06798477 -0.02693542
v 0.1701494 0.08334976 0.02693497
v 0.1701494 0.08334976 -0.02693542
v 0.1419284 0.09298035 0.02693497
v 0.1419284 0.09298035 -0.02693542
v 0.1137074 0.09581649 -0.02693542
v 0.1137074 0.09581649 0.02693497
v 0.08641836 0.09298035 0.02693497
v 0.08641836 0.09298035 -0.02693542
v 0.02100455 -0.01095016 -0.02693542
v -0.003032627 -0.01095016 0.02693497
v 0.02100455 -0.01095016 0.02693497
v -0.003032627 -0.01095016 -0.02693542
vt 0.3224835 0.2219124
vt 0.3270669 0.2268296
vt 0.3270669 0.2219124
vt 0.3224835 0.2268296
vt 0.3200817 0.2219124
vt 0.3200817 0.2268296
vt 0.3179873 0.2219124
vt 0.3179873 0.2268296
vt 0.3081543 0.2268296
vt 0.3060594 0.2219124
vt 0.3060594 0.2268296
vt 0.3081543 0.2219124
vt 0.3106398 0.2268296
vt 0.3106398 0.2219124
vt 0.3129883 0.2219124
vt 0.3129883 0.2268296
vt 0.3154213 0.2268296
vt 0.3154213 0.2219124
vt 0.3179873 0.2219124
vt 0.3179873 0.2268296
vt 0.3036577 0.2219124
vt 0.3060594 0.2268296
vt 0.3060594 0.2219124
vt 0.3036577 0.2268296
vt 0.2990748 0.2219124
vt 0.2990748 0.2268296
vt 0.3270669 0.2219124
vt 0.3303948 0.2268296
vt 0.3303948 0.2219124
vt 0.3270669 0.2268296
vt 0.2260711 0.1252746
vt 0.2257173 0.1247143
vt 0.2250345 0.1244659
vt 0.2243518 0.1247143
vt 0.2239983 0.1252746
vt 0.2239983 0.1270719
vt 0.2260711 0.1275859
vt 0.221347 0.1285784
vt 0.2210016 0.1277976
vt 0.2184818 0.129181
vt 0.21912 0.1297786
vt 0.2170047 0.1312512
vt 0.2178383 0.1315747
vt 0.2169469 0.1340369
vt 0.2160787 0.1338751
vt 0.2167085 0.1364988
vt 0.2158058 0.1364988
vt 0.2160787 0.139212
vt 0.2169469 0.1390505
vt 0.2170047 0.1419256
vt 0.2178383 0.1416021
vt 0.2184818 0.1439961
vt 0.21912 0.1433985
vt 0.2210016 0.1453795
vt 0.221347 0.1445985
vt 0.2252711 0.1464271
vt 0.2260711 0.1455939
vt 0.2260711 0.1490989
vt 0.2252711 0.1483951
vt 0.2228401 0.1490989
vt 0.2228401 0.1483951
vt 0.3387935 0.2156429
vt 0.3381039 0.22056
vt 0.3387935 0.22056
vt 0.3381039 0.2156429
vt 0.3374749 0.2156429
vt 0.3374749 0.22056
vt 0.3357688 0.22056
vt 0.3357688 0.2156429
vt 0.3006926 0.2156134
vt 0.3013607 0.2205305
vt 0.3013607 0.2156134
vt 0.3006926 0.2205305
vt 0.2997514 0.2206189
vt 0.2966837 0.2157019
vt 0.2966837 0.2206189
vt 0.2997514 0.2157019
vt 0.3328417 0.2156429
vt 0.3357688 0.22056
vt 0.3357688 0.2156429
vt 0.3328417 0.22056
vt 0.3301128 0.2156429
vt 0.3301128 0.22056
vt 0.3276983 0.2156429
vt 0.3276983 0.22056
vt 0.325057 0.22056
vt 0.325057 0.2156429
vt 0.3054089 0.2155838
vt 0.3072772 0.220501
vt 0.3072772 0.2155838
vt 0.3054089 0.220501
vt 0.3394834 0.22056
vt 0.3387935 0.2156429
vt 0.3387935 0.22056
vt 0.3394834 0.2156429
vt 0.3401124 0.22056
vt 0.3401124 0.2156429
vt 0.3044354 0.2156134
vt 0.3021276 0.2205305
vt 0.3044354 0.2205305
vt 0.3021276 0.2156134
vt 0.2319597 0.1490266
vt 0.2309235 0.1482182
vt 0.231277 0.1487784
vt 0.2329965 0.1482182
vt 0.2326426 0.1487784
vt 0.2309235 0.1464207
vt 0.2329965 0.1459067
vt 0.2279269 0.1456952
vt 0.2282722 0.1449144
vt 0.225407 0.1443117
vt 0.2260452 0.1437142
vt 0.2239296 0.1422413
vt 0.2247633 0.1419179
vt 0.2238719 0.1394559
vt 0.2230038 0.1396175
vt 0.2236338 0.1369939
vt 0.222731 0.1369939
vt 0.2230038 0.1342805
vt 0.2238719 0.1344422
vt 0.2239296 0.1315672
vt 0.2247633 0.1318905
vt 0.225407 0.1294969
vt 0.2260452 0.1300943
vt 0.2279267 0.1281135
vt 0.2282722 0.1288941
vt 0.2321962 0.1270656
vt 0.2329965 0.127899
vt 0.2321962 0.1250979
vt 0.2329965 0.1243938
vt 0.2297653 0.1243941
vt 0.2297653 0.1250979
vt 0.312099 0.22056
vt 0.3079251 0.2156429
vt 0.3079253 0.2205601
vt 0.312099 0.2156429
vt 0.3148278 0.22056
vt 0.3148278 0.2156429
vt 0.3172421 0.22056
vt 0.3172421 0.2156429
vt 0.3199641 0.22056
vt 0.3199641 0.2156429
vt 0.3225526 0.2156429
vt 0.3225526 0.22056
vt 0.325057 0.22056
vt 0.325057 0.2156429
vt 0.2990748 0.2219124
vt 0.2968807 0.2268296
vt 0.2990748 0.2268296
vt 0.2968807 0.2219124
vn -0.9390418 -0.3438029 0
vn -0.9785206 -0.2061484 0
vn -0.9785206 -0.2061484 0
vn -0.9390418 -0.3438029 0
vn -0.7500501 -0.6613811 0
vn -0.7500492 -0.661382 0
vn -0.4599672 -0.8879359 0
vn -0.459967 -0.8879359 0
vn 0.4649751 -0.8853238 0
vn 0.7500407 -0.6613917 0
vn 0.7500408 -0.6613916 0
vn 0.4649751 -0.8853238 0
vn 0.2201564 -0.9754646 0
vn 0.2201564 -0.9754646 0
vn 0.00168306 -0.9999986 0
vn 0.001683058 -0.9999986 0
vn -0.212999 -0.9770525 0
vn -0.2129985 -0.9770526 0
vn -0.4599672 -0.8879359 0
vn -0.459967 -0.8879359 0
vn 0.939132 -0.3435565 0
vn 0.7500408 -0.6613916 0
vn 0.7500407 -0.6613917 0
vn 0.939132 -0.3435565 0
vn 0.9786341 -0.2056095 0
vn 0.9786341 -0.2056095 0
vn 4.185571E-06 -1 0
vn 4.185571E-06 -1 0
vn 4.185571E-06 -1 0
vn 4.185571E-06 -1 0
vn 0 0 1
vn 0 0 1
vn 0 0 1
vn 0 0 1
vn 0 0 1
vn 0 0 1
vn 0 0 1
vn 0 0 1
vn 0 0 1
vn 0 0 1
vn 0 0 1
vn 0 0 1
vn 0 0 1
vn 0 0 1
vn 0 0 1
vn 0 0 1
vn 0 0 1
vn 0 0 1
vn 0 0 1
vn 0 0 1
vn 0 0 1
vn 0 0 1
vn 0 0 1
vn 0 0 1
vn 0 0 1
vn 0 0 1
vn 0 0 1
vn 0 0 1
vn 0 0 1
vn 0 0 1
vn 0 0 1
vn -1 0 0
vn -0.7787064 0.6273887 0
vn -1 0 0
vn -0.7787063 0.6273887 0
vn -0.2778085 0.9606366 0
vn -0.2778084 0.9606366 0
vn 0 1 0
vn 0 1 0
vn 0 1 0
vn 0 1 0
vn 0 1 0
vn 0 1 0
vn 1 0 0
vn 1 0 0
vn 1 0 0
vn 1 0 0
vn -0.9323907 0.361452 0
vn -0.9719093 0.2353556 0
vn -0.9719093 0.2353556 0
vn -0.9323907 0.361452 0
vn -0.747471 0.6642945 0
vn -0.7474709 0.6642945 0
vn -0.4613437 0.8872215 0
vn -0.4613437 0.8872215 0
vn -0.2196027 0.9755893 0
vn -0.2196027 0.9755893 0
vn 0 1 0
vn 0 1 0
vn 0 1 0
vn 0 1 0
vn -0.7787064 -0.6273887 0
vn -1 0 0
vn -1 0 0
vn -0.7787063 -0.6273887 0
vn -0.2778084 -0.9606366 0
vn -0.2778084 -0.9606366 0
vn -1 0 0
vn -1 0 0
vn -1 0 0
vn -1 0 0
vn 0 0 -1
vn 0 0 -1
vn 0 0 -1
vn 0 0 -1
vn 0 0 -1
vn 0 0 -1
vn 0 0 -1
vn 0 0 -1
vn 0 0 -1
vn 0 0 -1
vn 0 0 -1
vn 0 0 -1
vn 0 0 -1
vn 0 0 -1
vn 0 0 -1
vn 0 0 -1
vn 0 0 -1
vn 0 0 -1
vn 0 -4.07577E-06 -1
vn -1.176829E-05 -3.465981E-05 -1
vn -1.219123E-05 -3.397347E-05 -1
vn -8.174483E-06 0 -1
vn -5.795248E-06 5.426409E-06 -1
vn 0 0 -1
vn 0 0 -1
vn 0 0 -1
vn 0 0 -1
vn 0 0 -1
vn 0 0 -1
vn 0 0 -1
vn 0 0 -1
vn 0.9318282 0.3628997 0
vn 0.9711783 0.2383544 0
vn 0.9711783 0.2383544 0
vn 0.9318282 0.3628997 0
vn 0.7474644 0.6643019 0
vn 0.7474644 0.6643018 0
vn 0.4567274 0.8896067 0
vn 0.4567274 0.8896067 0
vn 0.2128714 0.9770802 0
vn 0.2128714 0.9770802 0
vn -0.001698277 0.9999986 0
vn -0.001698273 0.9999986 0
vn -0.2196027 0.9755893 0
vn -0.2196027 0.9755893 0
vn 0 -1 0
vn -0.2778084 -0.9606366 0
vn 0 -1 0
vn -0.2778084 -0.9606366 0
g Head_Strap_0
f 3/3/3 2/2/2 1/1/1
f 4/4/4 1/1/1 2/2/2
f 1/1/1 4/4/4 5/5/5
f 6/6/6 5/5/5 4/4/4
f 5/5/5 6/6/6 7/7/7
f 8/8/8 7/7/7 6/6/6
f 11/11/11 10/10/10 9/9/9
f 12/12/12 9/9/9 10/10/10
f 9/9/9 12/12/12 13/13/13
f 14/14/14 13/13/13 12/12/12
f 14/14/14 15/15/15 13/13/13
f 16/16/16 13/13/13 15/15/15
f 16/16/16 15/15/15 17/17/17
f 18/18/18 17/17/17 15/15/15
f 18/18/18 19/19/19 17/17/17
f 20/20/20 17/17/17 19/19/19
f 23/23/23 22/22/22 21/21/21
f 24/24/24 21/21/21 22/22/22
f 21/21/21 24/24/24 25/25/25
f 26/26/26 25/25/25 24/24/24
f 29/29/29 28/28/28 27/27/27
f 30/30/30 27/27/27 28/28/28
f 33/33/33 32/32/32 31/31/31
f 34/34/34 33/33/33 31/31/31
f 35/35/35 34/34/34 31/31/31
f 35/35/35 31/31/31 36/36/36
f 37/37/37 36/36/36 31/31/31
f 37/37/37 38/38/38 36/36/36
f 39/39/39 36/36/36 38/38/38
f 39/39/39 38/38/38 40/40/40
f 41/41/41 40/40/40 38/38/38
f 40/40/40 41/41/41 42/42/42
f 43/43/43 42/42/42 41/41/41
f 43/43/43 44/44/44 42/42/42
f 45/45/45 42/42/42 44/44/44
f 44/44/44 46/46/46 45/45/45
f 47/47/47 45/45/45 46/46/46
f 47/47/47 46/46/46 48/48/48
f 49/49/49 48/48/48 46/46/46
f 48/48/48 49/49/49 50/50/50
f 51/51/51 50/50/50 49/49/49
f 50/50/50 51/51/51 52/52/52
f 53/53/53 52/52/52 51/51/51
f 52/52/52 53/53/53 54/54/54
f 55/55/55 54/54/54 53/53/53
f 54/54/54 55/55/55 56/56/56
f 57/57/57 56/56/56 55/55/55
f 57/57/57 58/58/58 56/56/56
f 59/59/59 56/56/56 58/58/58
f 58/58/58 60/60/60 59/59/59
f 61/61/61 59/59/59 60/60/60
f 64/64/64 63/63/63 62/62/62
f 65/65/65 62/62/62 63/63/63
f 65/65/65 63/63/63 66/66/66
f 67/67/67 66/66/66 63/63/63
f 67/67/67 68/68/68 66/66/66
f 69/69/69 66/66/66 68/68/68
f 72/72/72 71/71/71 70/70/70
f 73/73/73 70/70/70 71/71/71
f 76/76/76 75/75/75 74/74/74
f 77/77/77 74/74/74 75/75/75
f 80/80/80 79/79/79 78/78/78
f 81/81/81 78/78/78 79/79/79
f 78/78/78 81/81/81 82/82/82
f 83/83/83 82/82/82 81/81/81
f 82/82/82 83/83/83 84/84/84
f 85/85/85 84/84/84 83/83/83
f 85/85/85 86/86/86 84/84/84
f 87/87/87 84/84/84 86/86/86
f 90/90/90 89/89/89 88/88/88
f 91/91/91 88/88/88 89/89/89
f 94/94/94 93/93/93 92/92/92
f 95/95/95 92/92/92 93/93/93
f 92/92/92 95/95/95 96/96/96
f 97/97/97 96/96/96 95/95/95
f 100/100/100 99/99/99 98/98/98
f 101/101/101 98/98/98 99/99/99
f 104/104/104 103/103/103 102/102/102
f 103/103/103 105/105/105 102/102/102
f 105/105/105 106/106/106 102/102/102
f 103/103/103 107/107/107 105/105/105
f 108/108/108 105/105/105 107/107/107
f 107/107/107 109/109/109 108/108/108
f 110/110/110 108/108/108 109/109/109
f 109/109/109 111/111/111 110/110/110
f 112/112/112 110/110/110 111/111/111
f 111/111/111 113/113/113 112/112/112
f 114/114/114 112/112/112 113/113/113
f 114/114/114 113/113/113 115/115/115
f 116/116/116 115/115/115 113/113/113
f 115/115/115 116/116/116 117/117/117
f 118/118/118 117/117/117 116/116/116
f 118/118/118 119/119/119 117/117/117
f 120/120/120 117/117/117 119/119/119
f 119/119/119 121/121/121 120/120/120
f 122/122/122 120/120/120 121/121/121
f 121/121/121 123/123/123 122/122/122
f 124/124/124 122/122/122 123/123/123
f 123/123/123 125/125/125 124/124/124
f 126/126/126 124/124/124 125/125/125
f 125/125/125 127/127/127 126/126/126
f 128/128/128 126/126/126 127/127/127
f 127/127/127 129/129/129 128/128/128
f 130/130/130 128/128/128 129/129/129
f 130/130/130 129/129/129 131/131/131
f 132/132/132 131/131/131 129/129/129
f 135/135/135 134/134/134 133/133/133
f 136/136/136 133/133/133 134/134/134
f 133/133/133 136/136/136 137/137/137
f 138/138/138 137/137/137 136/136/136
f 137/137/137 138/138/138 139/139/139
f 140/140/140 139/139/139 138/138/138
f 139/139/139 140/140/140 141/141/141
f 142/142/142 141/141/141 140/140/140
f 142/142/142 143/143/143 141/141/141
f 144/144/144 141/141/141 143/143/143
f 144/144/144 143/143/143 145/145/145
f 146/146/146 145/145/145 143/143/143
f 149/149/149 148/148/148 147/147/147
f 150/150/150 147/147/147 148/148/148
