g Keyboard
v 0.20898 -0.0725614 -0.0001810753
v -0.2289938 -0.06991997 1.117349E-05
v -0.2210485 -0.0725614 -0.0001810765
v 0.2169252 -0.06991997 1.117468E-05
v -0.2289938 0.09130657 0.01174571
v -0.2316421 0.0833823 0.01116895
v -0.2316421 -0.0619957 0.0005879247
v 0.2169252 0.09130657 0.01174571
v -0.2210485 0.093948 0.01193796
v 0.20898 0.093948 0.01193796
v 0.2195736 -0.0619957 0.0005879259
v 0.2195736 0.0833823 0.01116896
v 0.20898 -0.0725614 -0.0001810753
v 0.2169252 -0.07094625 0.01411156
v 0.2169252 -0.06991997 1.117468E-05
v 0.20898 -0.07358766 0.01391931
v -0.2210485 -0.0725614 -0.0001810765
v -0.2210485 -0.07358766 0.01391931
v -0.2289938 -0.06991997 1.117349E-05
v -0.2289938 -0.07094625 0.01411156
v 0.2195736 0.0833823 0.01116896
v 0.2169252 0.0902803 0.0258461
v 0.2169252 0.09130657 0.01174571
v 0.2195736 0.08235603 0.02526935
v 0.2195736 -0.06302197 0.01468831
v 0.2195736 -0.0619957 0.0005879259
v 0.2169252 -0.06991997 1.117468E-05
v 0.2169252 -0.07094625 0.01411156
v -0.2210485 0.093948 0.01193796
v -0.2289938 0.0902803 0.0258461
v -0.2289938 0.09130657 0.01174571
v -0.2210485 0.09292173 0.02603835
v 0.20898 0.093948 0.01193796
v 0.20898 0.09292173 0.02603835
v 0.2169252 0.09130657 0.01174571
v 0.2169252 0.0902803 0.0258461
v -0.2316421 -0.0619957 0.0005879247
v -0.2289938 -0.07094625 0.01411156
v -0.2289938 -0.06991997 1.117349E-05
v -0.2316421 -0.06302197 0.01468831
v -0.2316421 0.08235603 0.02526935
v -0.2316421 0.0833823 0.01116895
v -0.2289938 0.09130657 0.01174571
v -0.2289938 0.0902803 0.0258461
v -0.2210485 -0.07358766 0.01391931
v 0.2169252 -0.07094625 0.01411156
v 0.20898 -0.07358766 0.01391931
v -0.2289938 -0.07094625 0.01411156
v 0.2169252 -0.068943 0.01425736
v 0.2195736 -0.06302197 0.01468831
v 0.2195736 0.08235603 0.02526935
v -0.2289938 -0.068943 0.01425736
v -0.2316421 -0.06302197 0.01468831
v 0.2169252 0.08827707 0.0257003
v 0.2169252 0.0902803 0.0258461
v -0.2289938 0.08827707 0.0257003
v -0.2316421 0.08235603 0.02526935
v -0.2289938 0.0902803 0.0258461
v 0.20898 0.09292173 0.02603835
v -0.2210485 0.09292173 0.02603835
v 0.206651 0.08559106 0.003092292
v 0.206651 0.06359993 0.01480981
v 0.206651 0.08156126 0.01760948
v 0.206651 0.06695893 0.003092292
v 0.1982666 0.08559106 0.003092291
v 0.1982666 0.06359995 0.01480981
v 0.1982666 0.06695893 0.003092292
v 0.1982666 0.08156127 0.01760948
v 0.206651 0.08559106 0.003092292
v 0.1982666 0.06695893 0.003092292
v 0.206651 0.06695893 0.003092292
v 0.1982666 0.08559106 0.003092291
v 0.206651 0.06695893 0.003092292
v 0.1982666 0.06359995 0.01480981
v 0.206651 0.06359993 0.01480981
v 0.1982666 0.06695893 0.003092292
v 0.206651 0.08156126 0.01760948
v 0.1982666 0.08559106 0.003092291
v 0.206651 0.08559106 0.003092292
v 0.1982666 0.08156127 0.01760948
v -0.2066476 0.08559106 0.003092292
v -0.2066476 0.06359993 0.01480981
v -0.2066476 0.08156126 0.01760948
v -0.2066476 0.06695893 0.003092292
v -0.215032 0.08559106 0.003092291
v -0.215032 0.06359995 0.01480981
v -0.215032 0.06695893 0.003092292
v -0.215032 0.08156127 0.01760948
v -0.2066476 0.08559106 0.003092292
v -0.215032 0.06695893 0.003092292
v -0.2066476 0.06695893 0.003092292
v -0.215032 0.08559106 0.003092291
v -0.2066476 0.06695893 0.003092292
v -0.215032 0.06359995 0.01480981
v -0.2066476 0.06359993 0.01480981
v -0.215032 0.06695893 0.003092292
v -0.2066476 0.08156126 0.01760948
v -0.215032 0.08559106 0.003092291
v -0.2066476 0.08559106 0.003092292
v -0.215032 0.08156127 0.01760948
v 0.07685814 0.09044288 0.004910943
v 0.069403 0.2613535 0.002034404
v 0.072644 0.2609561 0.0001573386
v 0.0736116 0.09026936 0.006788008
v 0.0736116 0.09026936 0.006788008
v 0.069403 0.2613535 -0.001719727
v 0.069403 0.2613535 0.002034404
v 0.0736116 0.09026936 0.003033877
v 0.0736116 0.09026936 0.003033877
v 0.072644 0.2609561 0.0001573386
v 0.069403 0.2613535 -0.001719727
v 0.07685814 0.09044288 0.004910943
v 0.1115972 0.4545587 0.002034404
v 0.072644 0.2609561 0.0001573386
v 0.069403 0.2613535 0.002034404
v 0.1147735 0.4538649 0.0001573386
v 0.1115972 0.4545587 -0.001719727
v 0.069403 0.2613535 0.002034404
v 0.069403 0.2613535 -0.001719727
v 0.1115972 0.4545587 0.002034404
v 0.1147735 0.4538649 0.0001573386
v 0.069403 0.2613535 -0.001719727
v 0.072644 0.2609561 0.0001573386
v 0.1115972 0.4545587 -0.001719727
vt 0.7378139 0.1930088
vt 0.738714 0.04425813
vt 0.7378145 0.04695667
vt 0.7393956 0.1957071
vt 0.7929347 0.04425831
vt 0.7903033 0.043359
vt 0.7414126 0.04335882
vt 0.7936163 0.1957073
vt 0.7945164 0.04695685
vt 0.7945157 0.193009
vt 0.7420272 0.1966065
vt 0.7909178 0.1966067
vt 0.9760693 0.8021436
vt 0.9802086 0.8173668
vt 0.9888831 0.8086923
vt 0.9730512 0.8155803
vt 0.5330221 0.8021438
vt 0.5360395 0.8155804
vt 0.5202073 0.808692
vt 0.5288821 0.8173668
vt 0.9954304 0.9753625
vt 0.9802086 0.9795032
vt 0.9888831 0.9881775
vt 0.9819935 0.9705088
vt 0.9819935 0.8245241
vt 0.9954304 0.8234184
vt 0.9888831 0.8086923
vt 0.9802086 0.8173668
vt 0.533022 0.9947265
vt 0.5288821 0.9795032
vt 0.5202073 0.9881776
vt 0.5360397 0.9812898
vt 0.9760693 0.9947265
vt 0.9730512 0.9812899
vt 0.9888831 0.9881775
vt 0.9802086 0.9795032
vt 0.5136593 0.8215067
vt 0.5288821 0.8173668
vt 0.5202073 0.808692
vt 0.5270959 0.8263609
vt 0.5270959 0.9723455
vt 0.5136593 0.9734511
vt 0.5202073 0.9881776
vt 0.5288821 0.9795032
vt 0.5360395 0.8155804
vt 0.9802086 0.8173668
vt 0.9730512 0.8155803
vt 0.5288821 0.8173668
vt 0.9802086 0.8193813
vt 0.9819935 0.8245241
vt 0.9819935 0.9705088
vt 0.5288821 0.8193814
vt 0.5270959 0.8263609
vt 0.9802086 0.9774886
vt 0.9802086 0.9795032
vt 0.5288821 0.9774886
vt 0.5270959 0.9723455
vt 0.5288821 0.9795032
vt 0.9730512 0.9812899
vt 0.5360397 0.9812898
vt 0.105581 0.7368069
vt 0.1190341 0.7782603
vt 0.1184267 0.7247202
vt 0.1079566 0.7666852
vt 0.09869323 0.7368069
vt 0.08524007 0.7782603
vt 0.09631763 0.7666852
vt 0.0858475 0.7247202
vt 0.105581 0.7368069
vt 0.09631763 0.7666852
vt 0.1079566 0.7666852
vt 0.09869323 0.7368069
vt 0.1079566 0.7666852
vt 0.08524007 0.7782603
vt 0.1190341 0.7782603
vt 0.09631763 0.7666852
vt 0.1184267 0.7247202
vt 0.09869323 0.7368069
vt 0.105581 0.7368069
vt 0.0858475 0.7247202
vt 0.105581 0.7368069
vt 0.1190341 0.7782603
vt 0.1184267 0.7247202
vt 0.1079566 0.7666852
vt 0.09869323 0.7368069
vt 0.08524007 0.7782603
vt 0.09631763 0.7666852
vt 0.0858475 0.7247202
vt 0.105581 0.7368069
vt 0.09631763 0.7666852
vt 0.1079566 0.7666852
vt 0.09869323 0.7368069
vt 0.1079566 0.7666852
vt 0.08524007 0.7782603
vt 0.1190341 0.7782603
vt 0.09631763 0.7666852
vt 0.1184267 0.7247202
vt 0.09869323 0.7368069
vt 0.105581 0.7368069
vt 0.0858475 0.7247202
vt 0.06363437 0.9871101
vt 0.06756053 0.7800485
vt 0.06363437 0.7800485
vt 0.06756053 0.9871101
vt 0.06756053 0.9871101
vt 0.07148711 0.7800485
vt 0.06756053 0.7800485
vt 0.07148711 0.9871101
vt 0.05970993 0.9871101
vt 0.06363437 0.7800485
vt 0.05970993 0.7800485
vt 0.06363437 0.9871101
vt 0.06756053 0.78012
vt 0.06363437 0.9870003
vt 0.06756053 0.9870003
vt 0.06363437 0.78012
vt 0.07148711 0.78012
vt 0.06756053 0.9870003
vt 0.07148711 0.9870003
vt 0.06756053 0.78012
vt 0.06363437 0.78012
vt 0.05970993 0.9870003
vt 0.06363437 0.9870003
vt 0.05970993 0.78012
vn 0 0.07259079 -0.9973618
vn 0 0.07259087 -0.9973618
vn 0 0.07259081 -0.9973618
vn 0 0.07259087 -0.9973618
vn 0 0.07259084 -0.9973618
vn 4.013766E-07 0.07259088 -0.9973618
vn 0 0.07259087 -0.9973618
vn 0 0.07259088 -0.9973618
vn 0 0.07259055 -0.9973618
vn 0 0.07259099 -0.9973617
vn 0 0.07259088 -0.9973618
vn 4.940817E-07 0.07259087 -0.9973618
vn 0.160182 -0.9844833 -0.0716536
vn 0.5553862 -0.5988508 0.5769956
vn 0.7071066 -0.7052414 -0.05132955
vn 0.1185113 -0.7772104 0.6179798
vn -0.1601818 -0.9844834 -0.0716536
vn -0.118511 -0.7772102 0.6179802
vn -0.7071071 -0.7052409 -0.05132951
vn -0.5553859 -0.5988499 0.5769967
vn 0.9870875 0.1597597 0.01162778
vn 0.5553856 0.50899 0.6576291
vn 0.7071069 0.7052411 0.05132953
vn 0.7302999 0.06936193 0.6795962
vn 0.7303004 -0.1670356 0.6623899
vn 0.9870875 -0.1597597 -0.01162778
vn 0.7071066 -0.7052414 -0.05132955
vn 0.5553862 -0.5988508 0.5769956
vn -0.1601822 0.9844833 0.07165359
vn -0.5553869 0.5089909 0.6576273
vn -0.7071074 0.7052405 0.05132948
vn -0.1185114 0.6795367 0.7240062
vn 0.1601826 0.9844832 0.07165359
vn 0.1185116 0.6795368 0.724006
vn 0.7071069 0.7052411 0.05132953
vn 0.5553856 0.50899 0.6576291
vn -0.9870876 -0.1597586 -0.0116277
vn -0.5553859 -0.5988499 0.5769967
vn -0.7071071 -0.7052409 -0.05132951
vn -0.7302999 -0.1670348 0.6623907
vn -0.7303004 0.06936116 0.6795957
vn -0.9870876 0.1597586 0.0116277
vn -0.7071074 0.7052405 0.05132948
vn -0.5553869 0.5089909 0.6576273
vn -0.118511 -0.7772102 0.6179802
vn 0.5553862 -0.5988508 0.5769956
vn 0.1185113 -0.7772104 0.6179798
vn -0.5553859 -0.5988499 0.5769967
vn -2.118186E-07 -0.07259076 0.9973618
vn 0.7303004 -0.1670356 0.6623899
vn 0.7302999 0.06936193 0.6795962
vn 4.279228E-07 -0.07259076 0.9973618
vn -0.7302999 -0.1670348 0.6623907
vn -1.058832E-06 -0.07259139 0.9973617
vn 0.5553856 0.50899 0.6576291
vn -5.420289E-07 -0.0725906 0.9973618
vn -0.7303004 0.06936116 0.6795957
vn -0.5553869 0.5089909 0.6576273
vn 0.1185116 0.6795368 0.724006
vn -0.1185114 0.6795367 0.7240062
vn 0.5644321 0.6571444 -0.4995774
vn 0.6773378 -0.7071885 -0.2027262
vn 0.7318519 0.6566347 0.1822732
vn 0.5934688 -0.4843992 -0.642769
vn -0.564432 0.6571444 -0.4995776
vn -0.6773399 -0.7071869 -0.2027252
vn -0.5934688 -0.4843994 -0.6427689
vn -0.7318498 0.656637 0.1822735
vn 0.5644321 0.6571444 -0.4995774
vn -0.5934688 -0.4843994 -0.6427689
vn 0.5934688 -0.4843992 -0.642769
vn -0.564432 0.6571444 -0.4995776
vn 0.5934688 -0.4843992 -0.642769
vn -0.6773399 -0.7071869 -0.2027252
vn 0.6773378 -0.7071885 -0.2027262
vn -0.5934688 -0.4843994 -0.6427689
vn 0.7318519 0.6566347 0.1822732
vn -0.564432 0.6571444 -0.4995776
vn 0.5644321 0.6571444 -0.4995774
vn -0.7318498 0.656637 0.1822735
vn 0.5644321 0.6571444 -0.4995774
vn 0.6773378 -0.7071885 -0.2027262
vn 0.731852 0.6566348 0.1822732
vn 0.5934689 -0.4843992 -0.642769
vn -0.564432 0.6571444 -0.4995776
vn -0.6773399 -0.7071869 -0.2027252
vn -0.5934688 -0.4843994 -0.6427689
vn -0.7318498 0.656637 0.1822735
vn 0.5644321 0.6571444 -0.4995774
vn -0.5934688 -0.4843994 -0.6427689
vn 0.5934689 -0.4843992 -0.642769
vn -0.564432 0.6571444 -0.4995776
vn 0.5934689 -0.4843992 -0.642769
vn -0.6773399 -0.7071869 -0.2027252
vn 0.6773378 -0.7071885 -0.2027262
vn -0.5934688 -0.4843994 -0.6427689
vn 0.731852 0.6566348 0.1822732
vn -0.564432 0.6571444 -0.4995776
vn 0.5644321 0.6571444 -0.4995774
vn -0.7318498 0.656637 0.1822735
vn 0.9995645 0.02500342 0.01567139
vn -0.5470146 0.06226768 0.8348041
vn 0.9955986 -0.09330346 -0.008829831
vn -0.506068 0.01151333 0.8624167
vn -0.506068 0.01151333 0.8624167
vn -0.5423391 0.04029278 -0.8391929
vn -0.5470146 0.06226768 0.8348041
vn -0.5173364 -0.03650509 -0.8550032
vn -0.5173364 -0.03650509 -0.8550032
vn 0.9955986 -0.09330346 -0.008829831
vn -0.5423391 0.04029278 -0.8391929
vn 0.9995645 0.02500342 0.01567139
vn -0.4885011 0.106684 0.8660169
vn 0.9955986 -0.09330346 -0.008829831
vn -0.5470146 0.06226768 0.8348041
vn 0.9769732 -0.2133618 2.049034E-06
vn -0.4885001 0.1066838 -0.8660175
vn -0.5470146 0.06226768 0.8348041
vn -0.5423391 0.04029278 -0.8391929
vn -0.4885011 0.106684 0.8660169
vn 0.9769732 -0.2133618 2.049034E-06
vn -0.5423391 0.04029278 -0.8391929
vn 0.9955986 -0.09330346 -0.008829831
vn -0.4885001 0.1066838 -0.8660175
g Keyboard_0
f 3/3/3 2/2/2 1/1/1
f 4/4/4 1/1/1 2/2/2
f 2/2/2 5/5/5 4/4/4
f 5/5/5 2/2/2 6/6/6
f 7/7/7 6/6/6 2/2/2
f 8/8/8 4/4/4 5/5/5
f 5/5/5 9/9/9 8/8/8
f 10/10/10 8/8/8 9/9/9
f 4/4/4 8/8/8 11/11/11
f 12/12/12 11/11/11 8/8/8
f 15/15/15 14/14/14 13/13/13
f 16/16/16 13/13/13 14/14/14
f 13/13/13 16/16/16 17/17/17
f 18/18/18 17/17/17 16/16/16
f 17/17/17 18/18/18 19/19/19
f 20/20/20 19/19/19 18/18/18
f 23/23/23 22/22/22 21/21/21
f 24/24/24 21/21/21 22/22/22
f 24/24/24 25/25/25 21/21/21
f 26/26/26 21/21/21 25/25/25
f 26/26/26 25/25/25 27/27/27
f 28/28/28 27/27/27 25/25/25
f 31/31/31 30/30/30 29/29/29
f 32/32/32 29/29/29 30/30/30
f 29/29/29 32/32/32 33/33/33
f 34/34/34 33/33/33 32/32/32
f 33/33/33 34/34/34 35/35/35
f 36/36/36 35/35/35 34/34/34
f 39/39/39 38/38/38 37/37/37
f 40/40/40 37/37/37 38/38/38
f 40/40/40 41/41/41 37/37/37
f 42/42/42 37/37/37 41/41/41
f 42/42/42 41/41/41 43/43/43
f 44/44/44 43/43/43 41/41/41
f 47/47/47 46/46/46 45/45/45
f 48/48/48 45/45/45 46/46/46
f 46/46/46 49/49/49 48/48/48
f 46/46/46 50/50/50 49/49/49
f 50/50/50 51/51/51 49/49/49
f 52/52/52 48/48/48 49/49/49
f 48/48/48 52/52/52 53/53/53
f 54/54/54 49/49/49 51/51/51
f 49/49/49 54/54/54 52/52/52
f 55/55/55 54/54/54 51/51/51
f 52/52/52 56/56/56 53/53/53
f 56/56/56 52/52/52 54/54/54
f 54/54/54 55/55/55 56/56/56
f 57/57/57 53/53/53 56/56/56
f 58/58/58 57/57/57 56/56/56
f 58/58/58 56/56/56 55/55/55
f 55/55/55 59/59/59 58/58/58
f 60/60/60 58/58/58 59/59/59
f 63/63/63 62/62/62 61/61/61
f 64/64/64 61/61/61 62/62/62
f 67/67/67 66/66/66 65/65/65
f 68/68/68 65/65/65 66/66/66
f 71/71/71 70/70/70 69/69/69
f 72/72/72 69/69/69 70/70/70
f 75/75/75 74/74/74 73/73/73
f 76/76/76 73/73/73 74/74/74
f 79/79/79 78/78/78 77/77/77
f 80/80/80 77/77/77 78/78/78
f 83/83/83 82/82/82 81/81/81
f 84/84/84 81/81/81 82/82/82
f 87/87/87 86/86/86 85/85/85
f 88/88/88 85/85/85 86/86/86
f 91/91/91 90/90/90 89/89/89
f 92/92/92 89/89/89 90/90/90
f 95/95/95 94/94/94 93/93/93
f 96/96/96 93/93/93 94/94/94
f 99/99/99 98/98/98 97/97/97
f 100/100/100 97/97/97 98/98/98
f 103/103/103 102/102/102 101/101/101
f 104/104/104 101/101/101 102/102/102
f 107/107/107 106/106/106 105/105/105
f 108/108/108 105/105/105 106/106/106
f 111/111/111 110/110/110 109/109/109
f 112/112/112 109/109/109 110/110/110
f 115/115/115 114/114/114 113/113/113
f 116/116/116 113/113/113 114/114/114
f 119/119/119 118/118/118 117/117/117
f 120/120/120 117/117/117 118/118/118
f 123/123/123 122/122/122 121/121/121
f 124/124/124 121/121/121 122/122/122
