g mask
v 1.220703E-06 -21.54906 -2.423607E-07
v 1.831055E-06 2.288818E-06 -1.007586E-06
v 15.52442 2.441406E-06 -1.201458E-06
v 15.52442 -21.54907 -2.423607E-07
v 1.831055E-06 -47.85186 -1.007586E-06
v 15.52442 -47.85186 -1.201458E-06
v 15.52442 -21.54907 -2.423607E-07
v 15.52442 2.441406E-06 -1.201458E-06
v 17.85993 -5.238484 -5.721702
v 17.85993 -21.54907 -5.721701
v 17.85993 -43.27544 -5.721702
v 15.52442 -47.85186 -1.201458E-06
v 17.85993 -21.54907 -5.721701
v 17.85993 -5.238484 -5.721702
v 17.85993 -5.238484 -15.48133
v 17.85993 -21.54907 -15.48133
v 17.85993 -43.27544 -5.721702
v 17.85993 -43.27544 -15.48133
v 17.85993 -21.54907 -51.37825
v 17.85993 -43.27544 -51.37825
v 17.85993 -43.27544 -61.5583
v 17.85993 -21.54907 -61.5583
v 17.85993 -4.697563 -61.5583
v 17.85993 -4.697563 -51.37825
v -3.051758E-06 -43.27544 -61.5583
v -3.051758E-06 -47.6449 -61.5583
v 13.8106 -47.6449 -61.5583
v 17.85993 -43.27544 -61.5583
v 17.85993 -21.54907 -61.5583
v -1.831055E-06 -21.54907 -61.5583
v 17.85993 -4.697563 -61.5583
v -1.831055E-06 -4.697563 -61.5583
v -1.831055E-06 -0.3467798 -61.5583
v 13.8106 -0.3467798 -61.5583
v -3.051758E-06 -43.27544 -61.5583
v -3.662109E-06 -47.6449 -73.06949
v -3.051758E-06 -47.6449 -61.5583
v -3.662109E-06 -43.27544 -73.06949
v -1.831055E-06 -21.54907 -61.5583
v -2.441406E-06 -21.54907 -73.06949
v -1.831055E-06 -4.697563 -61.5583
v -2.441406E-06 -4.697563 -73.06949
v -1.831055E-06 -0.3467798 -61.5583
v -2.441406E-06 -0.3467798 -73.06949
v -2.441406E-06 10.34043 -61.5583
v -2.441406E-06 10.34043 -73.06949
v -2.441406E-06 22.37881 -73.06949
v -1.831055E-06 22.37881 -61.5583
v 1.220703E-06 -21.54906 -2.423607E-07
v -9.515576 2.441406E-06 -5.916465E-07
v 1.831055E-06 2.288818E-06 -1.007586E-06
v -9.515577 -21.54906 1.735784E-07
v 1.831055E-06 -47.85186 -1.007586E-06
v -9.515576 -47.85186 -5.916465E-07
v 1.831055E-06 -47.85186 -1.007586E-06
v -1.220703E-06 -47.85186 -67.30318
v -9.51558 -47.85186 -67.30318
v -9.515576 -47.85186 -5.916465E-07
v -3.662109E-06 -43.27544 -73.06949
v -7.741017 -47.6449 -73.06949
v -3.662109E-06 -47.6449 -73.06949
v -7.741017 -43.27544 -73.06949
v -2.441406E-06 -21.54907 -73.06949
v -7.741015 -21.54907 -73.06949
v -2.441406E-06 -4.697563 -73.06949
v -7.741015 -4.697563 -73.06949
v -2.441406E-06 -0.3467798 -73.06949
v -7.741015 -0.3467798 -73.06949
v -2.441406E-06 10.34043 -73.06949
v -7.741015 10.34043 -73.06949
v -7.741015 22.37881 -73.06949
v -2.441406E-06 22.37881 -73.06949
v -1.831055E-06 22.37881 -61.5583
v -7.741011 22.37881 -73.06949
v -2.441406E-06 22.37881 -73.06949
v -7.741013 22.37881 -61.5583
v -2.441406E-06 22.37881 -55.38445
v -7.741015 22.37881 -55.38445
v 4.356278 22.37881 -61.5583
v 4.356279 22.37881 -55.38445
v -2.441406E-06 10.34043 -61.5583
v -1.831055E-06 -0.3467798 -61.5583
v 4.356278 -0.3467798 -61.5583
v 4.356278 10.34043 -61.5583
v -1.831055E-06 22.37881 -61.5583
v 4.356278 22.37881 -61.5583
v 4.356278 10.34043 -61.5583
v 4.356279 10.34043 -55.38445
v 4.356279 22.37881 -55.38445
v 4.356278 22.37881 -61.5583
v 4.356279 22.37881 -55.38445
v 4.356279 10.34043 -55.38445
v -3.051758E-06 10.34043 -55.38445
v -2.441406E-06 22.37881 -55.38445
v -7.741015 22.37881 -55.38445
v -7.741015 10.34043 -55.38445
v -2.050406 -100.3901 14.75924
v 4.938916 -84.57591 14.75924
v 4.938913 -100.3901 14.75924
v -2.050407 -84.57591 14.75924
v 4.938916 -84.36225 14.75924
v -2.050407 -84.36225 14.75924
v 4.938912 -100.3901 4.808796
v 4.938915 -84.57591 10.03541
v 4.938915 -84.57591 4.808796
v 4.938913 -100.3901 10.03541
v 4.938913 -100.3901 14.75924
v 4.938913 -100.518 14.75924
v 4.938913 -100.518 10.03541
v 4.938916 -84.57591 14.75924
v 4.938915 -84.36225 10.03541
v 4.938916 -84.36225 14.75924
v 4.938913 -100.3901 14.75924
v 4.938913 -100.518 14.75924
v -2.050406 -100.518 14.75924
v -2.050406 -100.3901 14.75924
v -2.050407 -84.36225 14.75924
v -2.050408 -84.36225 4.229851
v 4.938915 -84.36225 4.229851
v 4.938916 -84.36225 14.75924
v 4.938913 -100.518 14.75924
v 4.938912 -100.518 4.229851
v -2.050406 -100.518 4.229851
v -2.050406 -100.518 14.75924
vt 0 0.5
vt 0 1
vt 1 1
vt 1 0.5
vt 0 0
vt 1 0
vt 1 0.5
vt 1 1
vt 1 1
vt 1 0.5
vt 1 0
vt 1 0
vt 1 0.5
vt 1 1
vt 1 1
vt 1 0.5
vt 1 0
vt 1 0
vt 1 0.5
vt 1 0
vt 1 0
vt 1 0.5
vt 1 0.5
vt 1 0.5
vt 1 0
vt 1 0
vt 1 0
vt 1 0
vt 1 0.5
vt 1 0.5
vt 1 0.5
vt 1 0.5
vt 1 0.5
vt 1 0.5
vt 1 0
vt 1 0
vt 1 0
vt 1 0
vt 1 0.5
vt 1 0.5
vt 1 0.5
vt 1 0.5
vt 1 0.5
vt 1 0.5
vt 1 0.5
vt 1 0.5
vt 1 0.5
vt 1 0.5
vt 0 0.5
vt 0 1
vt 0 1
vt 0 0.5
vt 0 0
vt 0 0
vt 0 0
vt 0 0
vt 0 0
vt 0 0
vt 1 0
vt 1 0
vt 1 0
vt 1 0
vt 1 0.5
vt 1 0.5
vt 1 0.5
vt 1 0.5
vt 1 0.5
vt 1 0.5
vt 1 0.5
vt 1 0.5
vt 1 0.5
vt 1 0.5
vt 1 0.5
vt 1 0.5
vt 1 0.5
vt 1 0.5
vt 1 0.5
vt 1 0.5
vt 1 0.5
vt 1 0.5
vt 1 0.5
vt 1 0.5
vt 1 0.5
vt 1 0.5
vt 1 0.5
vt 1 0.5
vt 1 0.5
vt 1 0.5
vt 1 0.5
vt 1 0.5
vt 1 0.5
vt 1 0.5
vt 1 0.5
vt 1 0.5
vt 1 0.5
vt 1 0.5
vt 0 0
vt 1 0.5
vt 1 0
vt 0 0.5
vt 1 0.5
vt 0 0.5
vt 1 0
vt 1 0.5
vt 1 0.5
vt 1 0
vt 1 0
vt 1 0
vt 1 0
vt 1 0.5
vt 1 0.5
vt 1 0.5
vt 1 0
vt 1 0
vt 0 0
vt 0 0
vt 0 0.5
vt 0 0.5
vt 1 0.5
vt 1 0.5
vt 1 0
vt 1 0
vt 0 0
vt 0 0
vn 0 0 1
vn 0 0 1
vn 0 0 1
vn 0 0 1
vn 0 0 1
vn 0 0 1
vn 0.9258404 0 0.3779147
vn 0.9258404 0 0.3779146
vn 0.9258404 0 0.3779146
vn 0.9258404 0 0.3779146
vn 0.9258404 0 0.3779147
vn 0.9258404 0 0.3779147
vn 1 0 0
vn 1 0 0
vn 1 0 0
vn 1 0 0
vn 1 0 0
vn 1 0 0
vn 1 0 0
vn 1 0 0
vn 1 0 -1.199113E-07
vn 1 0 -1.199113E-07
vn 1 0 -1.199113E-07
vn 1 0 -1.199113E-07
vn 0 0 -1
vn 0 0 -1
vn 0 0 -1
vn 0 0 -1
vn 0 0 -1
vn 0 0 -1
vn 0 0 -1
vn 0 0 -1
vn 0 0 -1
vn 0 0 -1
vn 1 0 0
vn 1 0 0
vn 1 0 0
vn 1 0 0
vn 1 0 0
vn 1 0 0
vn 1 0 0
vn 1 0 0
vn 1 0 0
vn 1 0 0
vn 1 0 0
vn 1 0 0
vn 1 0 0
vn 1 0 0
vn 0 0 1
vn 0 0 1
vn 0 0 1
vn 0 0 1
vn 0 0 1
vn 0 0 1
vn 0 -1 0
vn 0 -1 0
vn 0 -1 0
vn 0 -1 0
vn 0 0 -1
vn 0 0 -1
vn 0 0 -1
vn 0 0 -1
vn 0 0 -1
vn 0 0 -1
vn 0 0 -1
vn 0 0 -1
vn 0 0 -1
vn 0 0 -1
vn 0 0 -1
vn 0 0 -1
vn 0 0 -1
vn 0 0 -1
vn 0 1 0
vn 0 1 0
vn 0 1 0
vn 0 1 0
vn 0 1 0
vn 0 1 0
vn 0 1 0
vn 0 1 0
vn 0 0 -1
vn 0 0 -1
vn 0 0 -1
vn 0 0 -1
vn 0 0 -1
vn 0 0 -1
vn 1 0 0
vn 1 0 0
vn 1 0 0
vn 1 0 0
vn 0 0 1
vn 0 0 1
vn 0 0 1
vn 0 0 1
vn 0 0 1
vn 0 0 1
vn 0 0 1
vn 0 0 1
vn 0 0 1
vn 0 0 1
vn 0 0 1
vn 0 0 1
vn 1 -1.519689E-07 0
vn 1 -1.543811E-07 0
vn 1 -1.519689E-07 0
vn 1 -1.543811E-07 0
vn 1 -1.543811E-07 0
vn 1 2.982326E-07 0
vn 1 2.982326E-07 0
vn 1 -1.543811E-07 0
vn 1 -1.785388E-07 0
vn 1 -1.785388E-07 0
vn 0 0 1
vn 0 0 1
vn 0 0 1
vn 0 0 1
vn 0 1 0
vn 0 1 0
vn 0 1 0
vn 0 1 0
vn 0 -1 0
vn 0 -1 0
vn 0 -1 0
vn 0 -1 0
g mask_0
f 3/3/3 2/2/2 1/1/1
f 4/4/4 3/3/3 1/1/1
f 4/4/4 1/1/1 5/5/5
f 6/6/6 4/4/4 5/5/5
f 9/9/9 8/8/8 7/7/7
f 10/10/10 9/9/9 7/7/7
f 11/11/11 10/10/10 7/7/7
f 12/12/12 11/11/11 7/7/7
f 15/15/15 14/14/14 13/13/13
f 16/16/16 15/15/15 13/13/13
f 16/16/16 13/13/13 17/17/17
f 18/18/18 16/16/16 17/17/17
f 19/19/19 16/16/16 18/18/18
f 20/20/20 19/19/19 18/18/18
f 19/19/19 20/20/20 21/21/21
f 22/22/22 19/19/19 21/21/21
f 22/22/22 23/23/23 19/19/19
f 23/23/23 24/24/24 19/19/19
f 27/27/27 26/26/26 25/25/25
f 28/28/28 27/27/27 25/25/25
f 28/28/28 25/25/25 29/29/29
f 25/25/25 30/30/30 29/29/29
f 29/29/29 30/30/30 31/31/31
f 30/30/30 32/32/32 31/31/31
f 32/32/32 33/33/33 31/31/31
f 33/33/33 34/34/34 31/31/31
f 37/37/37 36/36/36 35/35/35
f 36/36/36 38/38/38 35/35/35
f 35/35/35 38/38/38 39/39/39
f 38/38/38 40/40/40 39/39/39
f 39/39/39 40/40/40 41/41/41
f 40/40/40 42/42/42 41/41/41
f 41/41/41 42/42/42 43/43/43
f 42/42/42 44/44/44 43/43/43
f 45/45/45 43/43/43 44/44/44
f 46/46/46 45/45/45 44/44/44
f 45/45/45 46/46/46 47/47/47
f 48/48/48 45/45/45 47/47/47
f 51/51/51 50/50/50 49/49/49
f 50/50/50 52/52/52 49/49/49
f 49/49/49 52/52/52 53/53/53
f 52/52/52 54/54/54 53/53/53
f 57/57/57 56/56/56 55/55/55
f 58/58/58 57/57/57 55/55/55
f 61/61/61 60/60/60 59/59/59
f 60/60/60 62/62/62 59/59/59
f 59/59/59 62/62/62 63/63/63
f 62/62/62 64/64/64 63/63/63
f 63/63/63 64/64/64 65/65/65
f 64/64/64 66/66/66 65/65/65
f 65/65/65 66/66/66 67/67/67
f 66/66/66 68/68/68 67/67/67
f 69/69/69 67/67/67 68/68/68
f 70/70/70 69/69/69 68/68/68
f 69/69/69 70/70/70 71/71/71
f 72/72/72 69/69/69 71/71/71
f 75/75/75 74/74/74 73/73/73
f 74/74/74 76/76/76 73/73/73
f 73/73/73 76/76/76 77/77/77
f 76/76/76 78/78/78 77/77/77
f 79/79/79 73/73/73 77/77/77
f 80/80/80 79/79/79 77/77/77
f 83/83/83 82/82/82 81/81/81
f 84/84/84 83/83/83 81/81/81
f 84/84/84 81/81/81 85/85/85
f 86/86/86 84/84/84 85/85/85
f 89/89/89 88/88/88 87/87/87
f 90/90/90 89/89/89 87/87/87
f 93/93/93 92/92/92 91/91/91
f 94/94/94 93/93/93 91/91/91
f 93/93/93 94/94/94 95/95/95
f 96/96/96 93/93/93 95/95/95
f 99/99/99 98/98/98 97/97/97
f 98/98/98 100/100/100 97/97/97
f 98/98/98 101/101/101 100/100/100
f 101/101/101 102/102/102 100/100/100
f 105/105/105 104/104/104 103/103/103
f 104/104/104 106/106/106 103/103/103
f 106/106/106 104/104/104 107/107/107
f 107/107/107 108/108/108 106/106/106
f 108/108/108 109/109/109 106/106/106
f 104/104/104 110/110/110 107/107/107
f 104/104/104 111/111/111 110/110/110
f 111/111/111 112/112/112 110/110/110
f 115/115/115 114/114/114 113/113/113
f 116/116/116 115/115/115 113/113/113
f 119/119/119 118/118/118 117/117/117
f 120/120/120 119/119/119 117/117/117
f 123/123/123 122/122/122 121/121/121
f 124/124/124 123/123/123 121/121/121
