g Mouse
v 0.02378493 0.04393701 0.008151101
v 0.01344443 0.04758435 0.001816695
v 0.02164787 0.04192725 0.001816695
v -0.009827499 -0.05122427 0.007656171
v -0.0003437781 -0.04943316 0.001816695
v -0.009827496 -0.04735337 0.001816695
v -0.0003437805 -0.05277988 0.005912068
v 0.009139939 -0.04735337 0.001816695
v 0.009139937 -0.05122427 0.007656171
v 0.01808639 -0.04531993 0.01307007
v 0.01701537 -0.04102185 0.001816695
v 0.02164787 0.04192725 0.001816695
v 0.02810738 0.01593844 0.01838933
v 0.02378493 0.04393701 0.008151101
v 0.02501252 0.01593844 0.001816695
v 0.02560639 0.0001281309 0.001816695
v 0.02908914 0.0002007544 0.02264191
v 0.02501252 -0.01570746 0.001816695
v 0.02810738 -0.01775649 0.02391057
v 0.0236735 -0.03638727 0.01859126
v 0.0236735 -0.03120597 0.001816695
v 0.01808639 -0.04531993 0.01307007
v 0.01701537 -0.04102185 0.001816695
v -0.02447249 0.04393701 0.008151101
v -0.02570008 0.01593844 0.001816695
v -0.02233542 0.04192725 0.001816695
v -0.02879494 0.01593844 0.01838933
v -0.02629395 0.0001281309 0.001816695
v -0.0297767 0.0002007544 0.02264191
v -0.02570008 -0.01570746 0.001816695
v -0.02879494 -0.01775649 0.02391057
v -0.02436106 -0.03120597 0.001816695
v -0.02436106 -0.03638727 0.01859126
v -0.01877395 -0.04531993 0.01307007
v -0.01770292 -0.04102185 0.001816695
v -0.009827496 -0.04735337 0.001816695
v -0.009827499 -0.05122427 0.007656171
v -0.02233542 0.04192725 0.001816695
v -0.02043446 0.04895859 0.007997102
v -0.02447249 0.04393701 0.008151101
v -0.01413199 0.04758435 0.001816695
v -0.0003437758 0.05443682 0.007829101
v -0.0003437829 0.05032402 0.001816695
v 0.01344443 0.04758435 0.001816695
v 0.01974691 0.04895859 0.007997102
v 0.02378493 0.04393701 0.008151101
v 0.02810738 0.01593844 0.01838933
v 0.01974691 0.04895859 0.007997102
v 0.02378493 0.04393701 0.008151101
v 0.02294081 0.01593844 0.02312603
v 0.02908914 0.0002007544 0.02264191
v -0.0003437758 0.01544834 0.02719747
v -0.0003437805 -0.0001046455 0.03186509
v -0.0003437758 0.05443682 0.007829101
v -0.02043446 0.04895859 0.007997102
v 0.02427734 6.36226E-05 0.02775545
v 0.02810738 -0.01775649 0.02391057
v -0.02362836 0.01593844 0.02312603
v -0.02447249 0.04393701 0.008151101
v -0.02879494 0.01593844 0.01838933
v -0.0297767 0.0002007544 0.02264191
v 0.0229408 -0.01775649 0.02864726
v 0.0236735 -0.03638727 0.01859126
v -0.0249649 6.36226E-05 0.02775545
v -0.02879494 -0.01775649 0.02391057
v -0.02362837 -0.01775649 0.02864726
v -0.02436106 -0.03638727 0.01859126
v 0.01931545 -0.03682773 0.02248525
v 0.01808639 -0.04531993 0.01307007
v -0.0003437853 -0.01775649 0.03198966
v -0.02000301 -0.03682773 0.02248525
v -0.01877395 -0.04531993 0.01307007
v 0.01282732 -0.04537616 0.01761018
v 0.009139937 -0.05122427 0.007656171
v -0.0003437829 -0.03514805 0.02602279
v -0.01351489 -0.04537616 0.01761018
v -0.009827499 -0.05122427 0.007656171
v -0.0003437829 -0.04540531 0.01933875
v -0.0003437805 -0.05277988 0.005912068
v 0.001481292 0.04624096 0.004910943
v -0.005973859 0.2171516 0.002034404
v -0.002732839 0.2167542 0.0001573386
v -0.001765249 0.04606743 0.006788008
v -0.001765249 0.04606743 0.006788008
v -0.005973859 0.2171516 -0.001719727
v -0.005973859 0.2171516 0.002034404
v -0.001765246 0.04606743 0.003033877
v -0.001765246 0.04606743 0.003033877
v -0.002732839 0.2167542 0.0001573386
v -0.005973859 0.2171516 -0.001719727
v 0.001481292 0.04624096 0.004910943
v 0.03622034 0.4103567 0.002034404
v -0.002732839 0.2167542 0.0001573386
v -0.005973859 0.2171516 0.002034404
v 0.03939663 0.409663 0.0001573386
v 0.03622034 0.4103567 -0.001719727
v -0.005973859 0.2171516 0.002034404
v -0.005973859 0.2171516 -0.001719727
v 0.03622034 0.4103567 0.002034404
v 0.03939663 0.409663 0.0001573386
v -0.005973859 0.2171516 -0.001719727
v -0.002732839 0.2167542 0.0001573386
v 0.03622034 0.4103567 -0.001719727
v -0.01413199 0.04758435 0.001816695
v -0.0003437805 -4.195452E-05 0.001816695
v -0.0003437829 0.05032402 0.001816695
v -0.02233542 0.04192725 0.001816695
v 0.01344443 0.04758435 0.001816695
v -0.02570008 0.01593844 0.001816695
v 0.02164787 0.04192725 0.001816695
v -0.02629395 0.0001281309 0.001816695
v 0.02501252 0.01593844 0.001816695
v -0.02570008 -0.01570746 0.001816695
v 0.02560639 0.0001281309 0.001816695
v -0.02436106 -0.03120597 0.001816695
v 0.02501252 -0.01570746 0.001816695
v -0.01770292 -0.04102185 0.001816695
v 0.0236735 -0.03120597 0.001816695
v -0.009827496 -0.04735337 0.001816695
v 0.01701537 -0.04102185 0.001816695
v -0.0003437781 -0.04943316 0.001816695
v 0.009139939 -0.04735337 0.001816695
vt 0.2275209 0.6542327
vt 0.2182916 0.6424333
vt 0.2212504 0.6576878
vt 0.3417897 0.6806164
vt 0.3431488 0.6946272
vt 0.3489854 0.6807643
vt 0.3386819 0.6918898
vt 0.3334466 0.7061212
vt 0.3300481 0.6997769
vt 0.3168187 0.7026744
vt 0.3197328 0.715006
vt 0.2212504 0.6576878
vt 0.2513868 0.6773598
vt 0.2275209 0.6542327
vt 0.2368651 0.6882462
vt 0.2538934 0.7053424
vt 0.2664528 0.686607
vt 0.2762789 0.7165347
vt 0.2840895 0.6942421
vt 0.3040834 0.7013966
vt 0.3007754 0.7194603
vt 0.3168187 0.7026744
vt 0.3197328 0.715006
vt 0.2546639 0.6099399
vt 0.2892123 0.6028244
vt 0.2548958 0.6027843
vt 0.2861048 0.6207058
vt 0.3121753 0.6102357
vt 0.3011838 0.6299318
vt 0.3323106 0.6251
vt 0.3159934 0.6421801
vt 0.3460383 0.6455984
vt 0.3314452 0.6567465
vt 0.3383656 0.6675134
vt 0.350676 0.6645117
vt 0.3489854 0.6807643
vt 0.3417897 0.6806164
vt 0.2548958 0.6027843
vt 0.2475417 0.611028
vt 0.2546639 0.6099399
vt 0.2399606 0.607073
vt 0.2310315 0.6259208
vt 0.2249526 0.6221957
vt 0.2182916 0.6424333
vt 0.2252572 0.6473927
vt 0.2275209 0.6542327
vt 0.2513868 0.6773598
vt 0.2252572 0.6473927
vt 0.2275209 0.6542327
vt 0.2561611 0.6716582
vt 0.2664528 0.686607
vt 0.2710762 0.6504606
vt 0.2844788 0.6586741
vt 0.2310315 0.6259208
vt 0.2475417 0.611028
vt 0.2701638 0.6810702
vt 0.2840895 0.6942421
vt 0.2831921 0.627548
vt 0.2546639 0.6099399
vt 0.2861048 0.6207058
vt 0.3011838 0.6299318
vt 0.2865671 0.6886684
vt 0.3040834 0.7013966
vt 0.2979351 0.6357518
vt 0.3159934 0.6421801
vt 0.3121521 0.6469178
vt 0.3314452 0.6567465
vt 0.3059977 0.6964768
vt 0.3168187 0.7026744
vt 0.2991708 0.6676774
vt 0.3279307 0.6606856
vt 0.3383656 0.6675134
vt 0.3180492 0.695761
vt 0.3300481 0.6997769
vt 0.3148203 0.6772676
vt 0.3327642 0.6717485
vt 0.3417897 0.6806164
vt 0.3251001 0.6835668
vt 0.3386819 0.6918898
vt 0.06363437 0.9871101
vt 0.06756053 0.7800485
vt 0.06363437 0.7800485
vt 0.06756053 0.9871101
vt 0.06756053 0.9871101
vt 0.07148711 0.7800485
vt 0.06756053 0.7800485
vt 0.07148711 0.9871101
vt 0.05970993 0.9871101
vt 0.06363437 0.7800485
vt 0.05970993 0.7800485
vt 0.06363437 0.9871101
vt 0.06756053 0.78012
vt 0.06363437 0.9870003
vt 0.06756053 0.9870003
vt 0.06363437 0.78012
vt 0.07148711 0.78012
vt 0.06756053 0.9870003
vt 0.07148711 0.9870003
vt 0.06756053 0.78012
vt 0.06363437 0.78012
vt 0.05970993 0.9870003
vt 0.06363437 0.9870003
vt 0.05970993 0.78012
vt 0.2351522 0.9899185
vt 0.2643503 0.9814654
vt 0.2334725 0.9814653
vt 0.2386202 0.9949477
vt 0.2351522 0.9730121
vt 0.2545532 0.9970106
vt 0.2386204 0.9679828
vt 0.264246 0.9973747
vt 0.2545533 0.9659202
vt 0.2739543 0.9970106
vt 0.2642461 0.9655561
vt 0.283456 0.9961898
vt 0.2739544 0.9659203
vt 0.2894737 0.9921079
vt 0.2834561 0.9667412
vt 0.2933555 0.9872797
vt 0.2894738 0.970823
vt 0.2946306 0.9814655
vt 0.2933556 0.9756513
vn 0.8605466 0.4812483 0.1669125
vn 0.2116096 0.5029816 -0.8379921
vn 0.5696663 0.2953143 -0.7669874
vn -0.3516893 -0.9340786 -0.06173906
vn -0.01484899 -0.4827484 -0.8756332
vn -0.2884327 -0.4906788 -0.822217
vn -0.01423951 -0.9907501 -0.1349496
vn 0.296064 -0.4818666 -0.8247125
vn 0.3596449 -0.9316272 -0.05221457
vn 0.6631086 -0.7408528 0.1068827
vn 0.4657106 -0.4124702 -0.7829317
vn 0.5696663 0.2953143 -0.7669874
vn 0.9277384 0.2142837 0.3055877
vn 0.8605466 0.4812483 0.1669125
vn 0.6476109 0.05426213 -0.7600366
vn 0.6531373 -0.003233173 -0.7572327
vn 0.9463405 0.06980497 0.3155422
vn 0.6630323 -0.06250666 -0.7459766
vn 0.9184219 -0.17217 0.356172
vn 0.8482364 -0.4453828 0.2865816
vn 0.6948333 -0.193003 -0.692789
vn 0.6631086 -0.7408528 0.1068827
vn 0.4657106 -0.4124702 -0.7829317
vn -0.8695629 0.4595393 0.1807873
vn -0.6434807 0.0418645 -0.7643167
vn -0.549051 0.2605977 -0.7941234
vn -0.9297907 0.200271 0.3088376
vn -0.6531373 -0.003233176 -0.7572327
vn -0.9463406 0.06980503 0.3155421
vn -0.6557767 -0.04399678 -0.7536717
vn -0.9159916 -0.1627452 0.3667063
vn -0.6715909 -0.2126691 -0.7097447
vn -0.8376521 -0.4595173 0.2952672
vn -0.6631088 -0.7408528 0.1068825
vn -0.4657103 -0.4124702 -0.7829318
vn -0.2884327 -0.4906788 -0.822217
vn -0.3516893 -0.9340786 -0.06173906
vn -0.549051 0.2605977 -0.7941234
vn -0.5070518 0.8323516 0.2238063
vn -0.8695629 0.4595393 0.1807873
vn -0.1885765 0.5053495 -0.8420575
vn 0 0.9712276 0.2381537
vn 0 0.5096815 -0.8603632
vn 0.2116096 0.5029816 -0.8379921
vn 0.5659176 0.80788 0.1645209
vn 0.8605466 0.4812483 0.1669125
vn 0.9277384 0.2142837 0.3055877
vn 0.5659176 0.80788 0.1645209
vn 0.8605466 0.4812483 0.1669125
vn 0.4138783 0.3415321 0.8438367
vn 0.9463405 0.06980497 0.3155422
vn 0 0.3580033 0.9337204
vn 0 0.1531195 0.9882076
vn 0 0.9712276 0.2381537
vn -0.5070518 0.8323516 0.2238063
vn 0.4639274 0.149742 0.8731259
vn 0.9184219 -0.17217 0.356172
vn -0.4115993 0.3371021 0.8467279
vn -0.8695629 0.4595393 0.1807873
vn -0.9297907 0.200271 0.3088376
vn -0.9463406 0.06980503 0.3155421
vn 0.420103 -0.1694623 0.8915133
vn 0.8482364 -0.4453828 0.2865816
vn -0.4639274 0.1497421 0.8731257
vn -0.9159916 -0.1627452 0.3667063
vn -0.4201034 -0.1694623 0.8915132
vn -0.8376521 -0.4595173 0.2952672
vn 0.391835 -0.4967827 0.774385
vn 0.6631086 -0.7408528 0.1068827
vn 0 -0.1602238 0.9870808
vn -0.391835 -0.4967827 0.774385
vn -0.6631088 -0.7408528 0.1068825
vn 0.2411333 -0.7452229 0.6216893
vn 0.3596449 -0.9316272 -0.05221457
vn 0 -0.429394 0.9031173
vn -0.2411334 -0.7452229 0.6216892
vn -0.3516893 -0.9340786 -0.06173906
vn 0 -0.7220147 0.6918777
vn -0.01423951 -0.9907501 -0.1349496
vn 0.9995645 0.02500344 0.01567156
vn -0.5470147 0.06226759 0.834804
vn 0.9955986 -0.09330349 -0.008829857
vn -0.5060685 0.01151327 0.8624164
vn -0.5060685 0.01151327 0.8624164
vn -0.5423408 0.04029308 -0.839192
vn -0.5470147 0.06226759 0.834804
vn -0.5173364 -0.03650516 -0.8550032
vn -0.5173364 -0.03650516 -0.8550032
vn 0.9955986 -0.09330349 -0.008829857
vn -0.5423408 0.04029308 -0.839192
vn 0.9995645 0.02500344 0.01567156
vn -0.4885021 0.1066843 0.8660163
vn 0.9955986 -0.09330349 -0.008829857
vn -0.5470147 0.06226759 0.834804
vn 0.9769732 -0.2133618 2.049025E-06
vn -0.4884981 0.1066834 -0.8660187
vn -0.5470147 0.06226759 0.834804
vn -0.5423408 0.04029308 -0.839192
vn -0.4885021 0.1066843 0.8660163
vn 0.9769732 -0.2133618 2.049025E-06
vn -0.5423408 0.04029308 -0.839192
vn 0.9955986 -0.09330349 -0.008829857
vn -0.4884981 0.1066834 -0.8660187
vn -0.1885765 0.5053495 -0.8420575
vn 0 0 -1
vn 0 0.5096815 -0.8603632
vn -0.549051 0.2605977 -0.7941234
vn 0.2116096 0.5029816 -0.8379921
vn -0.6434807 0.0418645 -0.7643167
vn 0.5696663 0.2953143 -0.7669874
vn -0.6531373 -0.003233176 -0.7572327
vn 0.6476109 0.05426213 -0.7600366
vn -0.6557767 -0.04399678 -0.7536717
vn 0.6531373 -0.003233173 -0.7572327
vn -0.6715909 -0.2126691 -0.7097447
vn 0.6630323 -0.06250666 -0.7459766
vn -0.4657103 -0.4124702 -0.7829318
vn 0.6948333 -0.193003 -0.692789
vn -0.2884327 -0.4906788 -0.822217
vn 0.4657106 -0.4124702 -0.7829317
vn -0.01484899 -0.4827484 -0.8756332
vn 0.296064 -0.4818666 -0.8247125
g Mouse_0
f 3/3/3 2/2/2 1/1/1
f 6/6/6 5/5/5 4/4/4
f 7/7/7 4/4/4 5/5/5
f 5/5/5 8/8/8 7/7/7
f 9/9/9 7/7/7 8/8/8
f 9/9/9 8/8/8 10/10/10
f 11/11/11 10/10/10 8/8/8
f 14/14/14 13/13/13 12/12/12
f 15/15/15 12/12/12 13/13/13
f 15/15/15 13/13/13 16/16/16
f 17/17/17 16/16/16 13/13/13
f 16/16/16 17/17/17 18/18/18
f 19/19/19 18/18/18 17/17/17
f 19/19/19 20/20/20 18/18/18
f 21/21/21 18/18/18 20/20/20
f 20/20/20 22/22/22 21/21/21
f 23/23/23 21/21/21 22/22/22
f 26/26/26 25/25/25 24/24/24
f 27/27/27 24/24/24 25/25/25
f 25/25/25 28/28/28 27/27/27
f 29/29/29 27/27/27 28/28/28
f 28/28/28 30/30/30 29/29/29
f 31/31/31 29/29/29 30/30/30
f 30/30/30 32/32/32 31/31/31
f 33/33/33 31/31/31 32/32/32
f 33/33/33 32/32/32 34/34/34
f 35/35/35 34/34/34 32/32/32
f 35/35/35 36/36/36 34/34/34
f 37/37/37 34/34/34 36/36/36
f 40/40/40 39/39/39 38/38/38
f 41/41/41 38/38/38 39/39/39
f 39/39/39 42/42/42 41/41/41
f 43/43/43 41/41/41 42/42/42
f 43/43/43 42/42/42 44/44/44
f 45/45/45 44/44/44 42/42/42
f 45/45/45 46/46/46 44/44/44
f 49/49/49 48/48/48 47/47/47
f 50/50/50 47/47/47 48/48/48
f 47/47/47 50/50/50 51/51/51
f 50/50/50 48/48/48 52/52/52
f 52/52/52 53/53/53 50/50/50
f 54/54/54 52/52/52 48/48/48
f 54/54/54 55/55/55 52/52/52
f 56/56/56 51/51/51 50/50/50
f 56/56/56 50/50/50 53/53/53
f 51/51/51 56/56/56 57/57/57
f 58/58/58 52/52/52 55/55/55
f 52/52/52 58/58/58 53/53/53
f 55/55/55 59/59/59 58/58/58
f 60/60/60 58/58/58 59/59/59
f 60/60/60 61/61/61 58/58/58
f 62/62/62 57/57/57 56/56/56
f 56/56/56 53/53/53 62/62/62
f 57/57/57 62/62/62 63/63/63
f 64/64/64 58/58/58 61/61/61
f 64/64/64 53/53/53 58/58/58
f 61/61/61 65/65/65 64/64/64
f 66/66/66 64/64/64 65/65/65
f 64/64/64 66/66/66 53/53/53
f 65/65/65 67/67/67 66/66/66
f 68/68/68 63/63/63 62/62/62
f 63/63/63 68/68/68 69/69/69
f 70/70/70 62/62/62 53/53/53
f 70/70/70 53/53/53 66/66/66
f 62/62/62 70/70/70 68/68/68
f 71/71/71 66/66/66 67/67/67
f 66/66/66 71/71/71 70/70/70
f 67/67/67 72/72/72 71/71/71
f 73/73/73 69/69/69 68/68/68
f 69/69/69 73/73/73 74/74/74
f 75/75/75 68/68/68 70/70/70
f 75/75/75 70/70/70 71/71/71
f 68/68/68 75/75/75 73/73/73
f 76/76/76 71/71/71 72/72/72
f 71/71/71 76/76/76 75/75/75
f 77/77/77 76/76/76 72/72/72
f 73/73/73 78/78/78 74/74/74
f 78/78/78 73/73/73 75/75/75
f 78/78/78 75/75/75 76/76/76
f 76/76/76 77/77/77 78/78/78
f 79/79/79 74/74/74 78/78/78
f 79/79/79 78/78/78 77/77/77
f 82/82/82 81/81/81 80/80/80
f 83/83/83 80/80/80 81/81/81
f 86/86/86 85/85/85 84/84/84
f 87/87/87 84/84/84 85/85/85
f 90/90/90 89/89/89 88/88/88
f 91/91/91 88/88/88 89/89/89
f 94/94/94 93/93/93 92/92/92
f 95/95/95 92/92/92 93/93/93
f 98/98/98 97/97/97 96/96/96
f 99/99/99 96/96/96 97/97/97
f 102/102/102 101/101/101 100/100/100
f 103/103/103 100/100/100 101/101/101
f 106/106/106 105/105/105 104/104/104
f 107/107/107 104/104/104 105/105/105
f 108/108/108 105/105/105 106/106/106
f 109/109/109 107/107/107 105/105/105
f 110/110/110 105/105/105 108/108/108
f 109/109/109 105/105/105 111/111/111
f 112/112/112 105/105/105 110/110/110
f 113/113/113 111/111/111 105/105/105
f 112/112/112 114/114/114 105/105/105
f 113/113/113 105/105/105 115/115/115
f 116/116/116 105/105/105 114/114/114
f 115/115/115 105/105/105 117/117/117
f 116/116/116 118/118/118 105/105/105
f 117/117/117 105/105/105 119/119/119
f 118/118/118 120/120/120 105/105/105
f 119/119/119 105/105/105 121/121/121
f 120/120/120 122/122/122 105/105/105
f 121/121/121 105/105/105 122/122/122
