g Painting_C
v 0.2263954 -0.01111965 0.1669361
v 0.2263954 -0.01111963 -0.1553223
v -0.2338417 -0.01111965 0.1669361
v -0.2338417 -0.01111963 -0.1553223
v 0.3645405 -2.74801E-08 0.2841987
v -0.3645403 -2.74801E-08 0.2841987
v -0.3645403 -2.634669E-09 -0.2841987
v 0.3645405 -2.634669E-09 -0.2841987
v 0.3482729 -0.007010261 0.2679312
v -0.3482726 -0.007010237 -0.2679311
v -0.3482726 -0.007010261 0.2679312
v 0.3482729 -0.007010236 -0.2679311
v 0.3645405 -0.01894658 -0.2841987
v -0.3645403 -2.634669E-09 -0.2841987
v -0.3645403 -0.01894658 -0.2841987
v 0.3645405 -2.634669E-09 -0.2841987
v 0.3645405 -2.74801E-08 0.2841987
v 0.3645405 -2.634669E-09 -0.2841987
v 0.3645405 -0.01894658 -0.2841987
v 0.3645405 -0.0189466 0.2841987
v 0.3645405 -2.74801E-08 0.2841987
v -0.3645403 -0.0189466 0.2841987
v -0.3645403 -2.74801E-08 0.2841987
v 0.3645405 -0.0189466 0.2841987
v -0.3645403 -0.01894658 -0.2841987
v -0.3645403 -2.74801E-08 0.2841987
v -0.3645403 -0.0189466 0.2841987
v -0.3645403 -2.634669E-09 -0.2841987
v 0.3645405 -0.01894658 -0.2841987
v -0.3645403 -0.01894658 -0.2841987
v -0.3482726 -0.01894658 -0.2679311
v 0.3482729 -0.01894658 -0.2679311
v 0.3645405 -0.0189466 0.2841987
v 0.3645405 -0.01894658 -0.2841987
v 0.3482729 -0.01894658 -0.2679311
v 0.3482729 -0.0189466 0.2679312
v 0.3645405 -0.0189466 0.2841987
v -0.3482726 -0.0189466 0.2679312
v -0.3645403 -0.0189466 0.2841987
v 0.3482729 -0.0189466 0.2679312
v -0.3645403 -0.0189466 0.2841987
v -0.3482726 -0.01894658 -0.2679311
v -0.3645403 -0.01894658 -0.2841987
v -0.3482726 -0.0189466 0.2679312
v -0.3482726 -0.007010237 -0.2679311
v 0.3482729 -0.007010236 -0.2679311
v 0.3482729 -0.01894658 -0.2679311
v -0.3482726 -0.01894658 -0.2679311
v 0.3482729 -0.007010261 0.2679312
v 0.3482729 -0.0189466 0.2679312
v 0.3482729 -0.01894658 -0.2679311
v 0.3482729 -0.007010236 -0.2679311
v -0.3482726 -0.0189466 0.2679312
v 0.3482729 -0.0189466 0.2679312
v 0.3482729 -0.007010261 0.2679312
v -0.3482726 -0.007010261 0.2679312
v -0.3482726 -0.007010261 0.2679312
v -0.3482726 -0.007010237 -0.2679311
v -0.3482726 -0.01894658 -0.2679311
v -0.3482726 -0.0189466 0.2679312
vt 0.7849163 0.2126601
vt 0.7849163 0.006146195
vt 0.4899815 0.2126601
vt 0.4899815 0.006146195
vt 0.78202 0.7192695
vt 0.7820188 0.988103
vt 0.9924995 0.9881036
vt 0.9925002 0.7192703
vt 0.4698652 0.4092911
vt 0.02197293 0.06580969
vt 0.02197281 0.4092911
vt 0.4698652 0.06580972
vt 0.4814663 0.05420853
vt 0.005382127 0.04921895
vt 0.01037167 0.05420855
vt 0.486456 0.04921895
vt 0.486456 0.4258819
vt 0.486456 0.04921895
vt 0.4814663 0.05420853
vt 0.4814663 0.4208924
vt 0.486456 0.4258819
vt 0.01037167 0.4208924
vt 0.005382127 0.4258819
vt 0.4814663 0.4208924
vt 0.01037167 0.05420855
vt 0.005382127 0.4258819
vt 0.01037167 0.4208924
vt 0.005382127 0.04921895
vt 0.4814663 0.05420853
vt 0.01037167 0.05420855
vt 0.01893551 0.06277233
vt 0.4729025 0.06277233
vt 0.4814663 0.4208924
vt 0.4814663 0.05420853
vt 0.4729025 0.06277233
vt 0.4729025 0.4123285
vt 0.4814663 0.4208924
vt 0.01893551 0.4123285
vt 0.01037167 0.4208924
vt 0.4729025 0.4123285
vt 0.01037167 0.4208924
vt 0.01893551 0.06277233
vt 0.01037167 0.05420855
vt 0.01893551 0.4123285
vt 0.02197293 0.06580969
vt 0.4698652 0.06580972
vt 0.4729025 0.06277233
vt 0.01893551 0.06277233
vt 0.4698652 0.4092911
vt 0.4729025 0.4123285
vt 0.4729025 0.06277233
vt 0.4698652 0.06580972
vt 0.01893551 0.4123285
vt 0.4729025 0.4123285
vt 0.4698652 0.4092911
vt 0.02197281 0.4092911
vt 0.02197281 0.4092911
vt 0.02197293 0.06580969
vt 0.01893551 0.06277233
vt 0.01893551 0.4123285
vn 0 -1 0
vn 0 -1 0
vn 0 -1 0
vn 0 -1 0
vn 0 1 0
vn 0 1 0
vn 0 1 0
vn 0 1 0
vn 0 -1 0
vn 0 -1 0
vn 0 -1 0
vn 0 -1 0
vn 0 0 -1
vn 0 0 -1
vn 0 0 -1
vn 0 0 -1
vn 1 0 0
vn 1 0 0
vn 1 0 0
vn 1 0 0
vn 0 0 1
vn 0 0 1
vn 0 0 1
vn 0 0 1
vn -1 0 0
vn -1 0 0
vn -1 0 0
vn -1 0 0
vn 0 -1 0
vn 0 -1 0
vn 0 -1 0
vn 0 -1 0
vn 0 -1 0
vn 0 -1 0
vn 0 -1 0
vn 0 -1 0
vn 0 -1 0
vn 0 -1 0
vn 0 -1 0
vn 0 -1 0
vn 0 -1 0
vn 0 -1 0
vn 0 -1 0
vn 0 -1 0
vn 0 0 1
vn 0 0 1
vn 0 0 1
vn 0 0 1
vn -1 0 0
vn -1 0 0
vn -1 0 0
vn -1 0 0
vn 0 0 -1
vn 0 0 -1
vn 0 0 -1
vn 0 0 -1
vn 1 0 0
vn 1 0 0
vn 1 0 0
vn 1 0 0
g Painting_C_0
f 3/3/3 2/2/2 1/1/1
f 4/4/4 2/2/2 3/3/3
f 7/7/7 6/6/6 5/5/5
f 5/5/5 8/8/8 7/7/7
f 11/11/11 10/10/10 9/9/9
f 10/10/10 12/12/12 9/9/9
f 15/15/15 14/14/14 13/13/13
f 14/14/14 16/16/16 13/13/13
f 19/19/19 18/18/18 17/17/17
f 17/17/17 20/20/20 19/19/19
f 23/23/23 22/22/22 21/21/21
f 22/22/22 24/24/24 21/21/21
f 27/27/27 26/26/26 25/25/25
f 28/28/28 25/25/25 26/26/26
f 31/31/31 30/30/30 29/29/29
f 29/29/29 32/32/32 31/31/31
f 35/35/35 34/34/34 33/33/33
f 33/33/33 36/36/36 35/35/35
f 39/39/39 38/38/38 37/37/37
f 38/38/38 40/40/40 37/37/37
f 43/43/43 42/42/42 41/41/41
f 42/42/42 44/44/44 41/41/41
f 47/47/47 46/46/46 45/45/45
f 45/45/45 48/48/48 47/47/47
f 51/51/51 50/50/50 49/49/49
f 49/49/49 52/52/52 51/51/51
f 55/55/55 54/54/54 53/53/53
f 53/53/53 56/56/56 55/55/55
f 59/59/59 58/58/58 57/57/57
f 57/57/57 60/60/60 59/59/59
