g Painting_F
v 0.3144445 -3.08347E-08 0.4767357
v -0.3144445 -3.08347E-08 0.4767357
v -0.3144445 9.176872E-09 -0.4767357
v 0.3144445 9.176872E-09 -0.4767357
v 0.3144445 -0.03004695 0.4767357
v -0.3144445 -0.03004691 -0.4767357
v -0.3144445 -0.03004695 0.4767357
v 0.3144445 -0.03004691 -0.4767357
v 0.3144445 -0.03004691 -0.4767357
v -0.3144445 9.176872E-09 -0.4767357
v -0.3144445 -0.03004691 -0.4767357
v 0.3144445 9.176872E-09 -0.4767357
v 0.3144445 -3.08347E-08 0.4767357
v 0.3144445 9.176872E-09 -0.4767357
v 0.3144445 -0.03004691 -0.4767357
v 0.3144445 -0.03004695 0.4767357
v 0.3144445 -3.08347E-08 0.4767357
v -0.3144445 -0.03004695 0.4767357
v -0.3144445 -3.08347E-08 0.4767357
v 0.3144445 -0.03004695 0.4767357
v -0.3144445 -0.03004691 -0.4767357
v -0.3144445 -3.08347E-08 0.4767357
v -0.3144445 -0.03004695 0.4767357
v -0.3144445 9.176872E-09 -0.4767357
vt 0.7820826 0.988216
vt 0.9918842 0.988216
vt 0.9918842 0.7196797
vt 0.7820826 0.7196797
vt 0.3695015 0.9817249
vt 0.01847786 0.4495315
vt 0.01847786 0.9817249
vt 0.3695015 0.4495315
vt 0.3695015 0.4495315
vt 0.01847778 0.4327605
vt 0.01847786 0.4495315
vt 0.3695012 0.4327604
vt 0.3862728 0.9817255
vt 0.3862728 0.4495315
vt 0.3695015 0.4495315
vt 0.3695015 0.9817249
vt 0.3695012 0.9984956
vt 0.01847786 0.9817249
vt 0.01847786 0.9984956
vt 0.3695015 0.9817249
vt 0.01847786 0.4495315
vt 0.001706728 0.9817255
vt 0.01847786 0.9817249
vt 0.001706728 0.4495315
vn 0 1 0
vn 0 1 0
vn 0 1 0
vn 0 1 0
vn 0 -1 0
vn 0 -1 0
vn 0 -1 0
vn 0 -1 0
vn 0 0 -1
vn 0 0 -1
vn 0 0 -1
vn 0 0 -1
vn 1 0 0
vn 1 0 0
vn 1 0 0
vn 1 0 0
vn 0 0 1
vn 0 0 1
vn 0 0 1
vn 0 0 1
vn -1 0 0
vn -1 0 0
vn -1 0 0
vn -1 0 0
g Painting_F_0
f 3/3/3 2/2/2 1/1/1
f 1/1/1 4/4/4 3/3/3
f 7/7/7 6/6/6 5/5/5
f 6/6/6 8/8/8 5/5/5
f 11/11/11 10/10/10 9/9/9
f 10/10/10 12/12/12 9/9/9
f 15/15/15 14/14/14 13/13/13
f 13/13/13 16/16/16 15/15/15
f 19/19/19 18/18/18 17/17/17
f 18/18/18 20/20/20 17/17/17
f 23/23/23 22/22/22 21/21/21
f 24/24/24 21/21/21 22/22/22
