g PaintingSet_A
v 0.3144445 0.4767357 -0.0005029632
v -0.3144445 -0.4767357 -0.0005030032
v 0.3144445 -0.4767357 -0.0005030032
v -0.3144445 0.4767357 -0.0005029632
v -0.3144445 -0.4767357 0.02954392
v 0.3144445 0.4767357 0.02954396
v 0.3144445 -0.4767357 0.02954392
v -0.3144445 0.4767357 0.02954396
v -0.3144445 -0.4767357 -0.0005030032
v 0.3144445 -0.4767357 0.02954392
v 0.3144445 -0.4767357 -0.0005030032
v -0.3144445 -0.4767357 0.02954392
v 0.3144445 0.4767357 -0.0005029632
v 0.3144445 -0.4767357 0.02954392
v 0.3144445 0.4767357 0.02954396
v 0.3144445 -0.4767357 -0.0005030032
v -0.3144445 0.4767357 0.02954396
v 0.3144445 0.4767357 -0.0005029632
v 0.3144445 0.4767357 0.02954396
v -0.3144445 0.4767357 -0.0005029632
v -0.3144445 0.4767357 -0.0005029632
v -0.3144445 -0.4767357 0.02954392
v -0.3144445 -0.4767357 -0.0005030032
v -0.3144445 0.4767357 0.02954396
vt 0.3951385 0.1736826
vt 0.5209537 0.01264493
vt 0.3951385 0.01264493
vt 0.5209537 0.1736826
vt 0.3515121 0.5311882
vt 0.6496974 0.9832723
vt 0.6496974 0.5311882
vt 0.3515121 0.9832723
vt 0.3515121 0.5169417
vt 0.6496974 0.5311882
vt 0.6496971 0.5169415
vt 0.3515121 0.5311882
vt 0.6639441 0.9832727
vt 0.6496974 0.5311882
vt 0.6496974 0.9832723
vt 0.6639441 0.5311882
vt 0.3515121 0.9832723
vt 0.6496971 0.9975185
vt 0.6496974 0.9832723
vt 0.3515121 0.9975185
vt 0.3372655 0.9832727
vt 0.3515121 0.5311882
vt 0.3372655 0.5311882
vt 0.3515121 0.9832723
vn 0 0 -1
vn 0 0 -1
vn 0 0 -1
vn 0 0 -1
vn 0 0 1
vn 0 0 1
vn 0 0 1
vn 0 0 1
vn 0 -1 0
vn 0 -1 0
vn 0 -1 0
vn 0 -1 0
vn 1 0 0
vn 1 0 0
vn 1 0 0
vn 1 0 0
vn 0 1 0
vn 0 1 0
vn 0 1 0
vn 0 1 0
vn -1 0 0
vn -1 0 0
vn -1 0 0
vn -1 0 0
g PaintingSet_A_0
f 3/3/3 2/2/2 1/1/1
f 4/4/4 1/1/1 2/2/2
f 7/7/7 6/6/6 5/5/5
f 8/8/8 5/5/5 6/6/6
f 11/11/11 10/10/10 9/9/9
f 12/12/12 9/9/9 10/10/10
f 15/15/15 14/14/14 13/13/13
f 16/16/16 13/13/13 14/14/14
f 19/19/19 18/18/18 17/17/17
f 20/20/20 17/17/17 18/18/18
f 23/23/23 22/22/22 21/21/21
f 24/24/24 21/21/21 22/22/22
