g PaintingSet_D
v -0.3500001 -0.4814174 -0.0005032527
v 0.35 -0.4814174 -0.0005032527
v 0.35 0.4814174 -0.0005032098
v -0.3500001 0.4814174 -0.0005032098
v -0.2990001 -0.4304174 0.02198919
v -0.2990001 0.4304174 0.02198924
v 0.2989996 0.4304174 0.02198924
v 0.2989996 -0.4304174 0.02198919
v -0.3500001 -0.4814174 -0.0005032527
v -0.3500001 -0.4814174 0.04949674
v 0.35 -0.4814174 0.04949674
v 0.35 -0.4814174 -0.0005032527
v 0.35 -0.4814174 -0.0005032527
v 0.35 -0.4814174 0.04949674
v 0.35 0.4814174 0.04949679
v 0.35 0.4814174 -0.0005032098
v 0.35 0.4814174 -0.0005032098
v 0.35 0.4814174 0.04949679
v -0.3500001 0.4814174 0.04949679
v -0.3500001 0.4814174 -0.0005032098
v -0.3500001 0.4814174 -0.0005032098
v -0.3500001 0.4814174 0.04949679
v -0.3500001 -0.4814174 0.04949674
v -0.3500001 -0.4814174 -0.0005032527
v -0.3500001 -0.4814174 0.04949674
v -0.2990001 -0.4304174 0.04239886
v 0.2989996 -0.4304174 0.04239886
v 0.35 -0.4814174 0.04949674
v 0.35 -0.4814174 0.04949674
v 0.2989996 -0.4304174 0.04239886
v 0.2989996 0.4304174 0.0423989
v 0.35 0.4814174 0.04949679
v 0.35 0.4814174 0.04949679
v 0.2989996 0.4304174 0.0423989
v -0.2990001 0.4304174 0.0423989
v -0.3500001 0.4814174 0.04949679
v -0.3500001 0.4814174 0.04949679
v -0.2990001 0.4304174 0.0423989
v -0.2990001 -0.4304174 0.04239886
v -0.3500001 -0.4814174 0.04949674
v -0.2990001 -0.4304174 0.04239886
v -0.2990001 -0.4304174 0.02198919
v 0.2989996 -0.4304174 0.02198919
v 0.2989996 -0.4304174 0.04239886
v 0.2989996 -0.4304174 0.04239886
v 0.2989996 -0.4304174 0.02198919
v 0.2989996 0.4304174 0.02198924
v 0.2989996 0.4304174 0.0423989
v 0.2989996 0.4304174 0.0423989
v 0.2989996 0.4304174 0.02198924
v -0.2990001 0.4304174 0.02198924
v -0.2990001 0.4304174 0.0423989
v -0.2990001 0.4304174 0.0423989
v -0.2990001 0.4304174 0.02198924
v -0.2990001 -0.4304174 0.02198919
v -0.2990001 -0.4304174 0.04239886
vt 0.5215862 0.0125413
vt 0.3945905 0.0125413
vt 0.3945905 0.1730364
vt 0.5215862 0.1730364
vt 0.3970608 0.2387436
vt 0.3970608 0.5095598
vt 0.5851899 0.5095598
vt 0.5851899 0.2387436
vt 0.03462173 0.009072663
vt 0.03434586 0.0325448
vt 0.363507 0.0325448
vt 0.3632314 0.009072714
vt 0.3869789 0.03282073
vt 0.363507 0.0325448
vt 0.363507 0.485092
vt 0.3869789 0.4848163
vt 0.3632314 0.5085635
vt 0.363507 0.485092
vt 0.03434586 0.485092
vt 0.03462173 0.5085635
vt 0.01087378 0.4848163
vt 0.03434586 0.485092
vt 0.03434586 0.0325448
vt 0.01087372 0.03282073
vt 0.03434586 0.0325448
vt 0.0575792 0.05577819
vt 0.3402736 0.05577819
vt 0.363507 0.0325448
vt 0.363507 0.0325448
vt 0.3402736 0.05577819
vt 0.3402737 0.4618586
vt 0.363507 0.485092
vt 0.363507 0.485092
vt 0.3402737 0.4618586
vt 0.05757926 0.4618586
vt 0.03434586 0.485092
vt 0.03434586 0.485092
vt 0.05757926 0.4618586
vt 0.0575792 0.05577819
vt 0.03434586 0.0325448
vt 0.0575792 0.05577819
vt 0.06108319 0.05928219
vt 0.3367697 0.05928219
vt 0.3402736 0.05577819
vt 0.3402736 0.05577819
vt 0.3367697 0.05928219
vt 0.3367697 0.4583547
vt 0.3402737 0.4618586
vt 0.3402737 0.4618586
vt 0.3367697 0.4583547
vt 0.06108323 0.4583547
vt 0.05757926 0.4618586
vt 0.05757926 0.4618586
vt 0.06108323 0.4583547
vt 0.06108319 0.05928219
vt 0.0575792 0.05577819
vn 0 0 -1
vn 0 0 -1
vn 0 0 -1
vn 0 0 -1
vn 0 0 1
vn 0 0 1
vn 0 0 1
vn 0 0 1
vn 0 -1 0
vn 0 -1 0
vn 0 -1 0
vn 0 -1 0
vn 1 0 0
vn 1 0 0
vn 1 0 0
vn 1 0 0
vn 0 1 0
vn 0 1 0
vn 0 1 0
vn 0 1 0
vn -1 0 0
vn -1 0 0
vn -1 0 0
vn -1 0 0
vn 0 0.1378457 0.9904537
vn 0 0.1378457 0.9904537
vn 0 0.1378457 0.9904537
vn 0 0.1378457 0.9904537
vn -0.1378448 0 0.9904538
vn -0.1378448 0 0.9904538
vn -0.1378448 0 0.9904538
vn -0.1378448 0 0.9904538
vn 0 -0.1378458 0.9904537
vn 0 -0.1378458 0.9904537
vn 0 -0.1378458 0.9904537
vn 0 -0.1378458 0.9904537
vn 0.1378456 0 0.9904537
vn 0.1378456 0 0.9904537
vn 0.1378456 0 0.9904537
vn 0.1378456 0 0.9904537
vn 0 1 0
vn 0 1 0
vn 0 1 0
vn 0 1 0
vn -1 0 0
vn -1 0 0
vn -1 0 0
vn -1 0 0
vn 0 -1 0
vn 0 -1 0
vn 0 -1 0
vn 0 -1 0
vn 1 0 0
vn 1 0 0
vn 1 0 0
vn 1 0 0
g PaintingSet_D_0
f 3/3/3 2/2/2 1/1/1
f 4/4/4 3/3/3 1/1/1
f 7/7/7 6/6/6 5/5/5
f 8/8/8 7/7/7 5/5/5
f 11/11/11 10/10/10 9/9/9
f 12/12/12 11/11/11 9/9/9
f 15/15/15 14/14/14 13/13/13
f 16/16/16 15/15/15 13/13/13
f 19/19/19 18/18/18 17/17/17
f 20/20/20 19/19/19 17/17/17
f 23/23/23 22/22/22 21/21/21
f 24/24/24 23/23/23 21/21/21
f 27/27/27 26/26/26 25/25/25
f 28/28/28 27/27/27 25/25/25
f 31/31/31 30/30/30 29/29/29
f 32/32/32 31/31/31 29/29/29
f 35/35/35 34/34/34 33/33/33
f 36/36/36 35/35/35 33/33/33
f 39/39/39 38/38/38 37/37/37
f 40/40/40 39/39/39 37/37/37
f 43/43/43 42/42/42 41/41/41
f 44/44/44 43/43/43 41/41/41
f 47/47/47 46/46/46 45/45/45
f 48/48/48 47/47/47 45/45/45
f 51/51/51 50/50/50 49/49/49
f 52/52/52 51/51/51 49/49/49
f 55/55/55 54/54/54 53/53/53
f 56/56/56 55/55/55 53/53/53
