g PC
v -0.1016473 0.2770426 0.3412879
v 0.09610412 0.2770426 0.02304169
v 0.09610412 0.2770426 0.3412879
v -0.1016473 0.2770426 0.02304169
v 0.1163715 -0.2939426 0
v 0.122419 -0.2939426 0.003950805
v 0.122419 -0.2939426 0
v 0.1163715 -0.2939426 0.003950805
v 0.122419 -0.2939426 0.4720492
v -0.1163715 -0.2939426 0
v 0.1163715 -0.2939426 0.4720492
v 0.122419 -0.2939426 0.476
v 0.1163715 -0.2939426 0.476
v -0.1163715 -0.2939426 0.003950805
v -0.122419 -0.2939426 0
v -0.122419 -0.2939426 0.003950805
v -0.1163715 -0.2939426 0.4720492
v -0.1163715 -0.2939426 0.476
v -0.122419 -0.2939426 0.4720492
v -0.122419 -0.2939426 0.476
v -0.1163715 0.2939426 0
v -0.122419 0.2939426 0.003950805
v -0.122419 0.2939426 0
v -0.1163715 0.2939426 0.003950805
v -0.122419 0.2939426 0.4720492
v 0.1163715 0.2939426 0
v -0.1163715 0.2939426 0.4720492
v -0.122419 0.2939426 0.476
v -0.1163715 0.2939426 0.476
v 0.1163715 0.2939426 0.4720492
v 0.1163715 0.2939426 0.476
v 0.122419 0.2939426 0.4720492
v 0.122419 0.2939426 0.476
v 0.122419 0.2939426 0.003950805
v 0.1163715 0.2939426 0.003950805
v 0.122419 0.2939426 0
v -0.1016473 0.2939426 0.3412879
v -0.1016473 0.2939426 0.02304169
v 0.09610412 0.2939426 0.3412879
v 0.09610412 0.2939426 0.02304169
v 0.1163715 0.2939426 0
v 0.122419 0.2890631 0
v 0.122419 0.2939426 0
v 0.1163715 0.2890631 0
v 0.122419 -0.2890631 0
v -0.1163715 0.2939426 0
v 0.1163715 -0.2890631 0
v 0.122419 -0.2939426 0
v 0.1163715 -0.2939426 0
v -0.1163715 0.2890631 0
v -0.122419 0.2939426 0
v -0.122419 0.2890631 0
v -0.1163715 -0.2890631 0
v -0.1163715 -0.2939426 0
v -0.122419 -0.2890631 0
v -0.122419 -0.2939426 0
v 0.1163715 -0.2939426 0.476
v 0.122419 -0.2890631 0.476
v 0.122419 -0.2939426 0.476
v 0.1163715 -0.2890631 0.476
v 0.122419 0.2890631 0.476
v -0.1163715 -0.2939426 0.476
v 0.1163715 0.2890631 0.476
v 0.122419 0.2939426 0.476
v 0.1163715 0.2939426 0.476
v -0.1163715 -0.2890631 0.476
v -0.122419 -0.2939426 0.476
v -0.122419 -0.2890631 0.476
v -0.1163715 0.2890631 0.476
v -0.1163715 0.2939426 0.476
v -0.122419 0.2890631 0.476
v -0.122419 0.2939426 0.476
v 0.122419 0.2939426 0.4720492
v 0.122419 0.2890631 0.476
v 0.122419 0.2939426 0.476
v 0.122419 0.2890631 0.4720492
v 0.122419 -0.2890631 0.476
v 0.122419 0.2939426 0.003950805
v 0.122419 -0.2890631 0.4720492
v 0.122419 -0.2939426 0.476
v 0.122419 -0.2939426 0.4720492
v 0.122419 0.2890631 0.003950805
v 0.122419 0.2939426 0
v 0.122419 0.2890631 0
v 0.122419 -0.2890631 0.003950805
v 0.122419 -0.2939426 0.003950805
v 0.122419 -0.2890631 0
v 0.122419 -0.2939426 0
v -0.122419 -0.2939426 0.4720492
v -0.122419 -0.2890631 0.476
v -0.122419 -0.2939426 0.476
v -0.122419 -0.2890631 0.4720492
v -0.122419 0.2890631 0.476
v -0.122419 -0.2939426 0.003950805
v -0.122419 0.2890631 0.4720492
v -0.122419 0.2939426 0.476
v -0.122419 0.2939426 0.4720492
v -0.122419 -0.2890631 0.003950805
v -0.122419 -0.2939426 0
v -0.122419 -0.2890631 0
v -0.122419 0.2890631 0.003950805
v -0.122419 0.2939426 0.003950805
v -0.122419 0.2890631 0
v -0.122419 0.2939426 0
v -0.1016473 0.2939426 0.02304169
v -0.1016473 0.2770426 0.3412879
v -0.1016473 0.2939426 0.3412879
v -0.1016473 0.2770426 0.02304169
v -0.1016473 0.2939426 0.3412879
v 0.09610412 0.2770426 0.3412879
v 0.09610412 0.2939426 0.3412879
v -0.1016473 0.2770426 0.3412879
v 0.09610412 0.2939426 0.3412879
v 0.09610412 0.2770426 0.02304169
v 0.09610412 0.2939426 0.02304169
v 0.09610412 0.2770426 0.3412879
v 0.09610412 0.2939426 0.02304169
v -0.1016473 0.2770426 0.02304169
v -0.1016473 0.2939426 0.02304169
v 0.09610412 0.2770426 0.02304169
vt 0.7626989 0.6954896
vt 0.62403 0.4686458
vt 0.6240457 0.6954757
vt 0.7628252 0.4686431
vt 0.9899353 0.3896572
vt 0.9950864 0.3930222
vt 0.9950864 0.3896572
vt 0.9899353 0.3930225
vt 0.9950864 0.7917378
vt 0.7916896 0.3896572
vt 0.9899353 0.7917378
vt 0.9950864 0.7951027
vt 0.9899353 0.7951027
vt 0.7916896 0.3930225
vt 0.7865389 0.3896574
vt 0.7865389 0.3930225
vt 0.7916902 0.7917378
vt 0.7916902 0.7951028
vt 0.7865389 0.7917378
vt 0.7865389 0.7951028
vt 0.776252 0.4494743
vt 0.7806906 0.4525855
vt 0.7807565 0.4496417
vt 0.7763594 0.4523027
vt 0.7808794 0.7925929
vt 0.6070601 0.4495528
vt 0.7765669 0.7928334
vt 0.7808829 0.7955617
vt 0.7763398 0.7956514
vt 0.606831 0.7927804
vt 0.6070745 0.7956014
vt 0.6025134 0.7926011
vt 0.6025393 0.7955627
vt 0.6025999 0.4526075
vt 0.606936 0.4523854
vt 0.6025631 0.4496689
vt 0.7659047 0.6993061
vt 0.7662527 0.4651939
vt 0.6201783 0.699304
vt 0.6202144 0.4648123
vt 0.7210891 0.2303181
vt 0.7187637 0.2284399
vt 0.7187637 0.2303181
vt 0.7210891 0.2284399
vt 0.7187637 0.005889073
vt 0.8105699 0.2303181
vt 0.7210891 0.005889073
vt 0.7187637 0.004010811
vt 0.7210891 0.004010811
vt 0.8105699 0.2284399
vt 0.8128952 0.2303181
vt 0.8128952 0.2284399
vt 0.8105699 0.005889073
vt 0.8105699 0.004010811
vt 0.8128952 0.005889073
vt 0.8128952 0.004010811
vt 0.8104416 0.00413157
vt 0.8127689 0.006009832
vt 0.8127689 0.00413157
vt 0.8104416 0.006009832
vt 0.8127689 0.2285489
vt 0.7208518 0.00413157
vt 0.8104416 0.2285489
vt 0.8127689 0.2304271
vt 0.8104416 0.2304271
vt 0.7208518 0.006009832
vt 0.7185241 0.00413157
vt 0.7185241 0.006009832
vt 0.7208518 0.2285489
vt 0.7208518 0.2304271
vt 0.7185241 0.2285489
vt 0.7185241 0.2304271
vt 0.8142897 0.2304271
vt 0.8127689 0.2285489
vt 0.8127689 0.2304271
vt 0.8142897 0.2285489
vt 0.8127689 0.006009832
vt 0.9944751 0.2304271
vt 0.8142897 0.006009832
vt 0.8127689 0.00413157
vt 0.8142897 0.00413157
vt 0.9944751 0.2285489
vt 0.9959953 0.2304271
vt 0.9959953 0.2285489
vt 0.9944751 0.006009832
vt 0.9944751 0.00413157
vt 0.9959953 0.006009832
vt 0.9959953 0.00413157
vt 0.8144835 0.00413157
vt 0.8129624 0.006009832
vt 0.8129624 0.00413157
vt 0.8144835 0.006009832
vt 0.8129624 0.2285489
vt 0.9946685 0.00413157
vt 0.8144835 0.2285489
vt 0.8129624 0.2304271
vt 0.8144835 0.2304271
vt 0.9946685 0.006009832
vt 0.9961896 0.00413157
vt 0.9961896 0.006009832
vt 0.9946685 0.2285489
vt 0.9946685 0.2304271
vt 0.9961896 0.2285489
vt 0.9961896 0.2304271
vt 0.7662527 0.4651939
vt 0.7626989 0.6954896
vt 0.7659047 0.6993061
vt 0.7628252 0.4686431
vt 0.7659047 0.6993061
vt 0.6240457 0.6954757
vt 0.6201783 0.699304
vt 0.7626989 0.6954896
vt 0.6201783 0.699304
vt 0.62403 0.4686458
vt 0.6202144 0.4648123
vt 0.6240457 0.6954757
vt 0.6202144 0.4648123
vt 0.7628252 0.4686431
vt 0.7662527 0.4651939
vt 0.62403 0.4686458
vn 0 1 0
vn 0 1 0
vn 0 1 0
vn 0 1 0
vn 0 -0.7071064 -0.7071071
vn 0.7071068 -0.7071068 0
vn 0.5773503 -0.5773503 -0.5773503
vn 0 -1 0
vn 0.7071071 -0.7071064 0
vn 0 -0.7071069 -0.7071066
vn 0 -1 0
vn 0.5773503 -0.5773503 0.5773503
vn 0 -0.7071069 0.7071066
vn 0 -1 0
vn -0.5773503 -0.5773503 -0.5773503
vn -0.7071071 -0.7071064 0
vn 0 -1 0
vn 0 -0.7071064 0.7071071
vn -0.7071068 -0.7071068 0
vn -0.5773503 -0.5773503 0.5773503
vn 0 0.7071064 -0.7071071
vn -0.7071068 0.7071068 0
vn -0.5773503 0.5773503 -0.5773503
vn 0 1 0
vn -0.7071071 0.7071064 0
vn 0 0.7071069 -0.7071066
vn 0 1 0
vn -0.5773503 0.5773503 0.5773503
vn 0 0.7071069 0.7071066
vn 0 1 0
vn 0 0.7071064 0.7071071
vn 0.7071068 0.7071068 0
vn 0.5773503 0.5773503 0.5773503
vn 0.7071071 0.7071064 0
vn 0 1 0
vn 0.5773503 0.5773503 -0.5773503
vn 0 1 0
vn 0 1 0
vn 0 1 0
vn 0 1 0
vn 0 0.7071069 -0.7071066
vn 0.707107 0 -0.7071065
vn 0.5773503 0.5773503 -0.5773503
vn 0 0 -1
vn 0.7071066 0 -0.7071069
vn 0 0.7071064 -0.7071071
vn 0 0 -1
vn 0.5773503 -0.5773503 -0.5773503
vn 0 -0.7071064 -0.7071071
vn 0 0 -1
vn -0.5773503 0.5773503 -0.5773503
vn -0.7071066 0 -0.7071069
vn 0 0 -1
vn 0 -0.7071069 -0.7071066
vn -0.707107 0 -0.7071065
vn -0.5773503 -0.5773503 -0.5773503
vn 0 -0.7071069 0.7071066
vn 0.707107 0 0.7071065
vn 0.5773503 -0.5773503 0.5773503
vn 0 0 1
vn 0.7071066 0 0.7071069
vn 0 -0.7071064 0.7071071
vn 0 0 1
vn 0.5773503 0.5773503 0.5773503
vn 0 0.7071064 0.7071071
vn 0 0 1
vn -0.5773503 -0.5773503 0.5773503
vn -0.7071066 0 0.7071069
vn 0 0 1
vn 0 0.7071069 0.7071066
vn -0.707107 0 0.7071065
vn -0.5773503 0.5773503 0.5773503
vn 0.7071068 0.7071068 0
vn 0.7071066 0 0.7071069
vn 0.5773503 0.5773503 0.5773503
vn 1 0 0
vn 0.707107 0 0.7071065
vn 0.7071071 0.7071064 0
vn 1 0 0
vn 0.5773503 -0.5773503 0.5773503
vn 0.7071071 -0.7071064 0
vn 1 0 0
vn 0.5773503 0.5773503 -0.5773503
vn 0.707107 0 -0.7071065
vn 1 0 0
vn 0.7071068 -0.7071068 0
vn 0.7071066 0 -0.7071069
vn 0.5773503 -0.5773503 -0.5773503
vn -0.7071068 -0.7071068 0
vn -0.7071066 0 0.7071069
vn -0.5773503 -0.5773503 0.5773503
vn -1 0 0
vn -0.707107 0 0.7071065
vn -0.7071071 -0.7071064 0
vn -1 0 0
vn -0.5773503 0.5773503 0.5773503
vn -0.7071071 0.7071064 0
vn -1 0 0
vn -0.5773503 -0.5773503 -0.5773503
vn -0.707107 0 -0.7071065
vn -1 0 0
vn -0.7071068 0.7071068 0
vn -0.7071066 0 -0.7071069
vn -0.5773503 0.5773503 -0.5773503
vn 1 0 0
vn 1 0 0
vn 1 0 0
vn 1 0 0
vn 0 0 -1
vn 0 0 -1
vn 0 0 -1
vn 0 0 -1
vn -1 0 0
vn -1 0 0
vn -1 0 0
vn -1 0 0
vn 0 0 1
vn 0 0 1
vn 0 0 1
vn 0 0 1
g PC_0
f 3/3/3 2/2/2 1/1/1
f 4/4/4 1/1/1 2/2/2
f 7/7/7 6/6/6 5/5/5
f 8/8/8 5/5/5 6/6/6
f 6/6/6 9/9/9 8/8/8
f 5/5/5 8/8/8 10/10/10
f 11/11/11 8/8/8 9/9/9
f 9/9/9 12/12/12 11/11/11
f 13/13/13 11/11/11 12/12/12
f 14/14/14 10/10/10 8/8/8
f 8/8/8 11/11/11 14/14/14
f 10/10/10 14/14/14 15/15/15
f 16/16/16 15/15/15 14/14/14
f 11/11/11 13/13/13 17/17/17
f 17/17/17 14/14/14 11/11/11
f 14/14/14 17/17/17 16/16/16
f 18/18/18 17/17/17 13/13/13
f 19/19/19 16/16/16 17/17/17
f 17/17/17 18/18/18 19/19/19
f 20/20/20 19/19/19 18/18/18
f 23/23/23 22/22/22 21/21/21
f 24/24/24 21/21/21 22/22/22
f 22/22/22 25/25/25 24/24/24
f 21/21/21 24/24/24 26/26/26
f 27/27/27 24/24/24 25/25/25
f 25/25/25 28/28/28 27/27/27
f 29/29/29 27/27/27 28/28/28
f 27/27/27 29/29/29 30/30/30
f 31/31/31 30/30/30 29/29/29
f 30/30/30 31/31/31 32/32/32
f 33/33/33 32/32/32 31/31/31
f 32/32/32 34/34/34 30/30/30
f 35/35/35 26/26/26 24/24/24
f 35/35/35 30/30/30 34/34/34
f 26/26/26 35/35/35 36/36/36
f 34/34/34 36/36/36 35/35/35
f 27/27/27 37/37/37 24/24/24
f 38/38/38 24/24/24 37/37/37
f 24/24/24 38/38/38 35/35/35
f 37/37/37 27/27/27 39/39/39
f 30/30/30 39/39/39 27/27/27
f 40/40/40 35/35/35 38/38/38
f 39/39/39 30/30/30 40/40/40
f 35/35/35 40/40/40 30/30/30
f 43/43/43 42/42/42 41/41/41
f 44/44/44 41/41/41 42/42/42
f 42/42/42 45/45/45 44/44/44
f 41/41/41 44/44/44 46/46/46
f 47/47/47 44/44/44 45/45/45
f 45/45/45 48/48/48 47/47/47
f 49/49/49 47/47/47 48/48/48
f 50/50/50 46/46/46 44/44/44
f 44/44/44 47/47/47 50/50/50
f 46/46/46 50/50/50 51/51/51
f 52/52/52 51/51/51 50/50/50
f 47/47/47 49/49/49 53/53/53
f 53/53/53 50/50/50 47/47/47
f 50/50/50 53/53/53 52/52/52
f 54/54/54 53/53/53 49/49/49
f 55/55/55 52/52/52 53/53/53
f 53/53/53 54/54/54 55/55/55
f 56/56/56 55/55/55 54/54/54
f 59/59/59 58/58/58 57/57/57
f 60/60/60 57/57/57 58/58/58
f 58/58/58 61/61/61 60/60/60
f 57/57/57 60/60/60 62/62/62
f 63/63/63 60/60/60 61/61/61
f 61/61/61 64/64/64 63/63/63
f 65/65/65 63/63/63 64/64/64
f 66/66/66 62/62/62 60/60/60
f 60/60/60 63/63/63 66/66/66
f 62/62/62 66/66/66 67/67/67
f 68/68/68 67/67/67 66/66/66
f 63/63/63 65/65/65 69/69/69
f 69/69/69 66/66/66 63/63/63
f 66/66/66 69/69/69 68/68/68
f 70/70/70 69/69/69 65/65/65
f 71/71/71 68/68/68 69/69/69
f 69/69/69 70/70/70 71/71/71
f 72/72/72 71/71/71 70/70/70
f 75/75/75 74/74/74 73/73/73
f 76/76/76 73/73/73 74/74/74
f 74/74/74 77/77/77 76/76/76
f 73/73/73 76/76/76 78/78/78
f 79/79/79 76/76/76 77/77/77
f 77/77/77 80/80/80 79/79/79
f 81/81/81 79/79/79 80/80/80
f 82/82/82 78/78/78 76/76/76
f 76/76/76 79/79/79 82/82/82
f 78/78/78 82/82/82 83/83/83
f 84/84/84 83/83/83 82/82/82
f 79/79/79 81/81/81 85/85/85
f 85/85/85 82/82/82 79/79/79
f 82/82/82 85/85/85 84/84/84
f 86/86/86 85/85/85 81/81/81
f 87/87/87 84/84/84 85/85/85
f 85/85/85 86/86/86 87/87/87
f 88/88/88 87/87/87 86/86/86
f 91/91/91 90/90/90 89/89/89
f 92/92/92 89/89/89 90/90/90
f 90/90/90 93/93/93 92/92/92
f 89/89/89 92/92/92 94/94/94
f 95/95/95 92/92/92 93/93/93
f 93/93/93 96/96/96 95/95/95
f 97/97/97 95/95/95 96/96/96
f 98/98/98 94/94/94 92/92/92
f 92/92/92 95/95/95 98/98/98
f 94/94/94 98/98/98 99/99/99
f 100/100/100 99/99/99 98/98/98
f 95/95/95 97/97/97 101/101/101
f 101/101/101 98/98/98 95/95/95
f 98/98/98 101/101/101 100/100/100
f 102/102/102 101/101/101 97/97/97
f 103/103/103 100/100/100 101/101/101
f 101/101/101 102/102/102 103/103/103
f 104/104/104 103/103/103 102/102/102
f 107/107/107 106/106/106 105/105/105
f 108/108/108 105/105/105 106/106/106
f 111/111/111 110/110/110 109/109/109
f 112/112/112 109/109/109 110/110/110
f 115/115/115 114/114/114 113/113/113
f 116/116/116 113/113/113 114/114/114
f 119/119/119 118/118/118 117/117/117
f 120/120/120 117/117/117 118/118/118
