g Pencil
v 0.004117017 -0.07805116 0.004582558
v -8.37183E-05 -0.09291805 0.00350239
v 0.0007010746 -0.09291805 0.004582559
v 0.0009718704 -0.07805116 0.000253633
v 0.0009718704 0.09291805 0.0002536255
v 0.004117017 0.09291805 0.004582551
v 0.0009718704 -0.07805116 0.000253633
v -0.001353531 -0.09291805 0.003914978
v -8.37183E-05 -0.09291805 0.00350239
v -0.004117088 -0.07805116 0.001907136
v -0.004117088 0.09291805 0.001907128
v 0.0009718704 0.09291805 0.0002536255
v -0.004117088 -0.07805116 0.001907136
v -0.001353531 -0.09291805 0.00525014
v -0.001353531 -0.09291805 0.003914978
v -0.004117088 -0.07805116 0.007257981
v -0.004117088 0.09291805 0.007257974
v -0.004117088 0.09291805 0.001907128
v -0.004117088 -0.07805116 0.007257981
v -8.37183E-05 -0.09291805 0.005662728
v -0.001353531 -0.09291805 0.00525014
v 0.0009718704 -0.07805116 0.008911483
v 0.0009718704 0.09291805 0.008911476
v -0.004117088 0.09291805 0.007257974
v 0.0009718704 -0.07805116 0.008911483
v 0.0007010746 -0.09291805 0.004582559
v -8.37183E-05 -0.09291805 0.005662728
v 0.004117017 -0.07805116 0.004582558
v 0.004117017 0.09291805 0.004582551
v 0.0009718704 0.09291805 0.008911476
v -8.37183E-05 -0.09291805 0.005662728
v 0.0007010746 -0.09291805 0.004582559
v -8.37183E-05 -0.09291805 0.00350239
v -0.001353531 -0.09291805 0.00525014
v -0.001353531 -0.09291805 0.003914978
v 0.004117017 0.09291805 0.004582551
v 0.0009718704 0.09291805 0.008911476
v 0.0009718704 0.09291805 0.0002536255
v -0.004117088 0.09291805 0.001907128
v -0.004117088 0.09291805 0.007257974
vt 0.589263 0.4936241
vt 0.5936275 0.4783072
vt 0.589263 0.4783072
vt 0.5936275 0.4936241
vt 0.5936275 0.675449
vt 0.589263 0.675449
vt 0.5936275 0.4936241
vt 0.5978305 0.4783072
vt 0.5936275 0.4783072
vt 0.5978305 0.4936241
vt 0.5978305 0.675449
vt 0.5936275 0.675449
vt 0.5765867 0.4936241
vt 0.5813731 0.4783072
vt 0.5765867 0.4783072
vt 0.5813731 0.4936241
vt 0.5813731 0.675449
vt 0.5765867 0.675449
vt 0.5813731 0.4936241
vt 0.584851 0.4783072
vt 0.5813731 0.4783072
vt 0.584851 0.4936241
vt 0.584851 0.675449
vt 0.5813731 0.675449
vt 0.584851 0.4936241
vt 0.589263 0.4783072
vt 0.584851 0.4783072
vt 0.589263 0.4936241
vt 0.589263 0.675449
vt 0.584851 0.675449
vt 0.5813731 0.4770076
vt 0.5798812 0.4746672
vt 0.5765867 0.4770076
vt 0.5813731 0.4783072
vt 0.5765867 0.4783072
vt 0.5785358 0.6844684
vt 0.5813731 0.6807473
vt 0.5765867 0.6807473
vt 0.5765867 0.675449
vt 0.5813731 0.675449
vn 0.9941256 -0.1082323 0
vn 0.2267765 -0.6792928 -0.6979497
vn 0.7338676 -0.6792924 -1.937777E-07
vn 0.3072018 -0.1082324 -0.9454696
vn 0.2482062 0.5956942 -0.7638993
vn 0.8032113 0.5956942 1.012466E-07
vn 0.3072018 -0.1082324 -0.9454696
vn -0.5937113 -0.6792927 -0.4313562
vn 0.2267765 -0.6792928 -0.6979497
vn -0.8042645 -0.1082323 -0.5843324
vn -0.6498116 0.5956942 -0.4721159
vn 0.2482062 0.5956942 -0.7638993
vn -0.8042645 -0.1082323 -0.5843324
vn -0.5937112 -0.6792928 0.4313563
vn -0.5937113 -0.6792927 -0.4313562
vn -0.8042645 -0.1082322 0.5843324
vn -0.6498117 0.5956942 0.4721158
vn -0.6498116 0.5956942 -0.4721159
vn -0.8042645 -0.1082322 0.5843324
vn 0.2267763 -0.6792929 0.6979495
vn -0.5937112 -0.6792928 0.4313563
vn 0.307202 -0.1082322 0.9454696
vn 0.2482061 0.5956942 0.7638994
vn -0.6498117 0.5956942 0.4721158
vn 0.307202 -0.1082322 0.9454696
vn 0.7338676 -0.6792924 -1.937777E-07
vn 0.2267763 -0.6792929 0.6979495
vn 0.9941256 -0.1082323 0
vn 0.8032113 0.5956942 1.012466E-07
vn 0.2482061 0.5956942 0.7638994
vn 0.2267763 -0.6792929 0.6979495
vn 0.7338676 -0.6792924 -1.937777E-07
vn 0.2267765 -0.6792928 -0.6979497
vn -0.5937112 -0.6792928 0.4313563
vn -0.5937113 -0.6792927 -0.4313562
vn 0.8032113 0.5956942 1.012466E-07
vn 0.2482061 0.5956942 0.7638994
vn 0.2482062 0.5956942 -0.7638993
vn -0.6498116 0.5956942 -0.4721159
vn -0.6498117 0.5956942 0.4721158
g Pencil_0
f 3/3/3 2/2/2 1/1/1
f 4/4/4 1/1/1 2/2/2
f 4/4/4 5/5/5 1/1/1
f 6/6/6 1/1/1 5/5/5
f 9/9/9 8/8/8 7/7/7
f 10/10/10 7/7/7 8/8/8
f 10/10/10 11/11/11 7/7/7
f 12/12/12 7/7/7 11/11/11
f 15/15/15 14/14/14 13/13/13
f 16/16/16 13/13/13 14/14/14
f 16/16/16 17/17/17 13/13/13
f 18/18/18 13/13/13 17/17/17
f 21/21/21 20/20/20 19/19/19
f 22/22/22 19/19/19 20/20/20
f 22/22/22 23/23/23 19/19/19
f 24/24/24 19/19/19 23/23/23
f 27/27/27 26/26/26 25/25/25
f 28/28/28 25/25/25 26/26/26
f 28/28/28 29/29/29 25/25/25
f 30/30/30 25/25/25 29/29/29
f 33/33/33 32/32/32 31/31/31
f 31/31/31 34/34/34 33/33/33
f 35/35/35 33/33/33 34/34/34
f 38/38/38 37/37/37 36/36/36
f 38/38/38 39/39/39 37/37/37
f 40/40/40 37/37/37 39/39/39
