g Picture_10_Medium_Framed
v -0.4762799 0.3529427 -0.02242954
v -0.4762798 -0.3529429 -0.004681016
v -0.4762798 -0.3529429 -0.02242957
v -0.4762799 0.3529427 -0.004680985
v -0.4751384 -0.3518015 0.00755701
v -0.4751385 0.3518012 0.007557039
v -0.4102674 -0.2923437 0.01686599
v -0.4180561 0.2992265 0.01807871
v -0.4102674 0.2923436 0.01686601
v -0.418056 -0.2992267 0.01807869
v -0.4471269 -0.3246013 0.02242958
v -0.447127 0.3246012 0.02242961
v -0.458334 0.3350065 0.02235503
v -0.4583338 -0.3350066 0.022355
v -0.4646882 0.341351 0.01232675
v -0.464688 -0.3413511 0.01232672
v -0.4751384 -0.3518015 0.00755701
v -0.4751385 0.3518012 0.007557039
v -0.4102674 0.2923436 0.01686601
v -0.398769 -0.2809566 0.008351901
v -0.4102674 -0.2923437 0.01686599
v -0.398769 0.2809564 0.008351905
v -0.3970123 0.2792006 -0.004287207
v -0.3970122 -0.2792007 -0.004287231
v -0.464688 -0.3413511 0.01232672
v 0.4751383 -0.3518013 0.007556991
v -0.4751384 -0.3518015 0.00755701
v 0.4646879 -0.341351 0.01232669
v -0.4583338 -0.3350066 0.022355
v 0.4583337 -0.3350064 0.02235497
v 0.4471267 -0.3246011 0.02242955
v -0.4471269 -0.3246013 0.02242958
v -0.418056 -0.2992267 0.01807869
v 0.4180557 -0.2992265 0.01807864
v -0.4102674 -0.2923437 0.01686599
v 0.4102672 -0.2923436 0.01686595
v -0.398769 -0.2809566 0.008351901
v 0.3987688 -0.2809564 0.008351881
v -0.4762798 -0.3529429 -0.02242957
v 0.4762797 -0.3529427 -0.004681045
v 0.4762797 -0.3529427 -0.02242961
v -0.4762798 -0.3529429 -0.004681016
v 0.4751383 -0.3518013 0.007556991
v -0.4751384 -0.3518015 0.00755701
v 0.3987688 -0.2809564 0.008351881
v -0.3970122 -0.2792007 -0.004287231
v 0.3970121 -0.2792005 -0.00428726
v -0.398769 -0.2809566 0.008351901
v 0.4762797 -0.3529427 -0.02242961
v 0.4762796 0.3529429 -0.004681014
v 0.4762796 0.3529429 -0.02242958
v 0.4762797 -0.3529427 -0.004681045
v 0.4751382 0.3518014 0.00755702
v 0.4751383 -0.3518013 0.007556991
v 0.4102671 0.2923437 0.01686598
v 0.3987688 -0.2809564 0.008351881
v 0.3987687 0.2809566 0.008351896
v 0.3970121 -0.2792005 -0.00428726
v 0.397012 0.2792007 -0.004287235
v 0.3987688 -0.2809564 0.008351881
v 0.4102671 0.2923437 0.01686598
v 0.4102672 -0.2923436 0.01686595
v 0.4180557 -0.2992265 0.01807864
v 0.4180557 0.2992266 0.01807867
v 0.4471267 0.3246013 0.02242958
v 0.4471267 -0.3246011 0.02242955
v 0.4583337 -0.3350064 0.02235497
v 0.4583336 0.3350067 0.022355
v 0.4646878 0.3413512 0.01232672
v 0.4646879 -0.341351 0.01232669
v 0.4751382 0.3518014 0.00755702
v 0.4751383 -0.3518013 0.007556991
v 0.4762796 0.3529429 -0.004681014
v -0.4762799 0.3529427 -0.02242954
v 0.4762796 0.3529429 -0.02242958
v -0.4762799 0.3529427 -0.004680985
v -0.4751385 0.3518012 0.007557039
v 0.4751382 0.3518014 0.00755702
v -0.398769 0.2809564 0.008351905
v 0.4102671 0.2923437 0.01686598
v 0.3987687 0.2809566 0.008351896
v -0.4102674 0.2923436 0.01686601
v 0.4180557 0.2992266 0.01807867
v -0.4180561 0.2992265 0.01807871
v -0.447127 0.3246012 0.02242961
v 0.4471267 0.3246013 0.02242958
v -0.458334 0.3350065 0.02235503
v 0.4583336 0.3350067 0.022355
v 0.4646878 0.3413512 0.01232672
v -0.4646882 0.341351 0.01232675
v -0.4751385 0.3518012 0.007557039
v 0.4751382 0.3518014 0.00755702
v 0.3987687 0.2809566 0.008351896
v -0.3970123 0.2792006 -0.004287207
v -0.398769 0.2809564 0.008351905
v 0.397012 0.2792007 -0.004287235
v -0.3970123 0.2792006 -0.004287207
v -0.4762798 -0.3529429 -0.02242957
v -0.3970122 -0.2792007 -0.004287231
v -0.4762799 0.3529427 -0.02242954
v 0.397012 0.2792007 -0.004287235
v -0.4762799 0.3529427 -0.02242954
v -0.3970123 0.2792006 -0.004287207
v 0.4762796 0.3529429 -0.02242958
v 0.3970121 -0.2792005 -0.00428726
v 0.4762796 0.3529429 -0.02242958
v 0.397012 0.2792007 -0.004287235
v 0.4762797 -0.3529427 -0.02242961
v -0.3970122 -0.2792007 -0.004287231
v 0.4762797 -0.3529427 -0.02242961
v 0.3970121 -0.2792005 -0.00428726
v -0.4762798 -0.3529429 -0.02242957
v -0.4033493 0.2857032 -0.003340523
v 0.403349 -0.2857034 -0.003340652
v -0.4033491 -0.2857035 -0.003340547
v 0.4033489 0.2857034 -0.003340628
vt 0.9779328 0.08662114
vt 0.970659 0.3703093
vt 0.9779328 0.3703093
vt 0.970659 0.08662114
vt 0.9678335 0.3703096
vt 0.9678335 0.08662114
vt 0.9416183 0.3488599
vt 0.9445946 0.105502
vt 0.9416183 0.1080713
vt 0.9445946 0.3514292
vt 0.9566407 0.3618278
vt 0.956641 0.095103
vt 0.9596169 0.09253369
vt 0.9596169 0.3643973
vt 0.9651288 0.08930633
vt 0.9651288 0.3676245
vt 0.9678335 0.3703096
vt 0.9678335 0.08662114
vt 0.9416183 0.1080713
vt 0.9377161 0.3456827
vt 0.9416183 0.3488599
vt 0.9377161 0.1112485
vt 0.935185 0.1112485
vt 0.935185 0.3456825
vt 0.2299945 0.6415702
vt 0.2272895 0.2594762
vt 0.2272895 0.6442554
vt 0.2299945 0.2621614
vt 0.2355064 0.6383428
vt 0.2355064 0.2653888
vt 0.2381129 0.2683323
vt 0.2381129 0.6353993
vt 0.2486634 0.6234855
vt 0.2486634 0.2802463
vt 0.2512701 0.620542
vt 0.2512698 0.2831896
vt 0.2551715 0.6173639
vt 0.2551715 0.286368
vt 0.2171905 0.6442554
vt 0.224464 0.2594762
vt 0.2171903 0.2594762
vt 0.2244642 0.6442554
vt 0.2272895 0.2594762
vt 0.2272895 0.6442554
vt 0.2551715 0.286368
vt 0.2577024 0.6173639
vt 0.2577024 0.286368
vt 0.2551715 0.6173639
vt 0.8872568 0.2913924
vt 0.8945302 0.007703975
vt 0.8872568 0.007703975
vt 0.8945302 0.2913924
vt 0.8973555 0.007703975
vt 0.8973555 0.2913924
vt 0.92357 0.0291539
vt 0.9274722 0.2667652
vt 0.9274722 0.03233095
vt 0.9300031 0.2667652
vt 0.9300031 0.03233095
vt 0.9274722 0.2667652
vt 0.92357 0.0291539
vt 0.9235697 0.2699425
vt 0.9205937 0.2725117
vt 0.9205937 0.02658446
vt 0.9085476 0.01618584
vt 0.9085476 0.2829106
vt 0.9055716 0.28548
vt 0.9055716 0.01361641
vt 0.9000599 0.01038916
vt 0.9000599 0.2887072
vt 0.8973555 0.007703975
vt 0.8973555 0.2913924
vt 0.2947292 0.2593325
vt 0.3020027 0.6441117
vt 0.3020027 0.2593325
vt 0.2947292 0.6441117
vt 0.2919037 0.6441117
vt 0.2919037 0.2593325
vt 0.2640228 0.6172202
vt 0.2679243 0.2830459
vt 0.2640228 0.2862243
vt 0.2679243 0.6203983
vt 0.2705306 0.2801026
vt 0.2705306 0.6233419
vt 0.2810811 0.6352558
vt 0.2810811 0.2681887
vt 0.2836873 0.6381994
vt 0.2836873 0.2652451
vt 0.289199 0.2620177
vt 0.289199 0.6414265
vt 0.2919037 0.6441117
vt 0.2919037 0.2593325
vt 0.2640228 0.2862243
vt 0.2614921 0.6172202
vt 0.2640228 0.6172202
vt 0.2614921 0.2862243
vt 0.935185 0.1112485
vt 0.9779328 0.3703093
vt 0.935185 0.3456825
vt 0.9779328 0.08662114
vt 0.2614921 0.2862243
vt 0.3020027 0.6441117
vt 0.2614921 0.6172202
vt 0.3020027 0.2593325
vt 0.9300031 0.2667652
vt 0.8872568 0.007703975
vt 0.9300031 0.03233095
vt 0.8872568 0.2913924
vt 0.2577024 0.6173639
vt 0.2171903 0.2594762
vt 0.2577024 0.286368
vt 0.2171905 0.6442554
vt 0.2481606 0.9970335
vt 0.002662025 0.6504446
vt 0.002662025 0.9970336
vt 0.2481604 0.6504446
vn -1 -1.621239E-07 0
vn -0.9989837 -1.639382E-07 0.04507172
vn -1 -1.621239E-07 0
vn -0.9989837 -1.640448E-07 0.04507164
vn -0.9100275 -1.658932E-07 0.414548
vn -0.9100273 -1.648724E-07 0.4145484
vn 0.2849199 0 0.9585513
vn 0.1496031 0 0.9887461
vn 0.2849206 0 0.9585512
vn 0.149603 0 0.9887461
vn 0.03522284 0 0.9993795
vn 0.03522273 0 0.9993795
vn -0.6718531 -1.466974E-07 0.7406845
vn -0.6718529 -1.439411E-07 0.7406846
vn -0.5726404 -1.291122E-07 0.8198067
vn -0.5726395 -1.303471E-07 0.8198072
vn -0.9100275 -1.658932E-07 0.414548
vn -0.9100273 -1.648724E-07 0.4145484
vn 0.2849206 0 0.9585512
vn 0.8092532 0 0.58746
vn 0.2849199 0 0.9585513
vn 0.8092536 1.048915E-07 0.5874595
vn 0.9904788 1.332628E-07 0.1376663
vn 0.9904788 1.294505E-07 0.1376662
vn 1.113611E-07 -0.5727328 0.8197422
vn 1.590463E-07 -0.9100295 0.4145436
vn 1.544458E-07 -0.9100295 0.4145436
vn 1.199707E-07 -0.5727324 0.8197424
vn 1.354916E-07 -0.6866446 0.7269933
vn 1.369887E-07 -0.6866444 0.7269934
vn 0 0.03387798 0.999426
vn 0 0.03387772 0.999426
vn 0 0.1700494 0.9854355
vn 0 0.1700497 0.9854354
vn 0 0.2945805 0.9556266
vn 0 0.29458 0.9556268
vn -1.271539E-07 0.8105767 0.5856324
vn -1.407328E-07 0.8105766 0.5856327
vn 1.601873E-07 -1 0
vn 1.613781E-07 -0.9989838 0.04507018
vn 1.601872E-07 -1 0
vn 1.611173E-07 -0.9989838 0.04507007
vn 1.590463E-07 -0.9100295 0.4145436
vn 1.544458E-07 -0.9100295 0.4145436
vn -1.407328E-07 0.8105766 0.5856327
vn -1.862051E-07 0.9904873 0.1376045
vn -1.853841E-07 0.9904873 0.1376044
vn -1.271539E-07 0.8105767 0.5856324
vn 1 1.621239E-07 0
vn 0.9989838 1.599802E-07 0.04507016
vn 1 1.621239E-07 0
vn 0.9989838 1.60376E-07 0.04507015
vn 0.9100272 1.308887E-07 0.4145487
vn 0.9100279 1.311595E-07 0.414547
vn -0.2849197 0 0.9585513
vn -0.8092527 -1.308026E-07 0.5874607
vn -0.809253 -1.261664E-07 0.5874601
vn -0.9904788 -1.380302E-07 0.137666
vn -0.9904788 -1.412063E-07 0.1376662
vn -0.8092527 -1.308026E-07 0.5874607
vn -0.2849197 0 0.9585513
vn -0.2849192 0 0.9585515
vn -0.1496031 0 0.9887461
vn -0.1496032 0 0.9887461
vn -0.03522278 0 0.9993795
vn -0.03522293 0 0.9993795
vn 0.6718526 0 0.7406849
vn 0.6718535 0 0.7406841
vn 0.5726379 0 0.8198084
vn 0.5726377 0 0.8198086
vn 0.9100272 1.308887E-07 0.4145487
vn 0.9100279 1.311595E-07 0.414547
vn -1.593002E-07 0.9989837 0.04507162
vn -1.601873E-07 1 0
vn -1.601873E-07 1 0
vn -1.586707E-07 0.9989837 0.04507165
vn -1.337477E-07 0.9100293 0.414544
vn -1.378049E-07 0.9100298 0.414543
vn 1.780716E-07 -0.8105776 0.5856313
vn 0 -0.2945804 0.9556267
vn 1.638091E-07 -0.8105774 0.5856315
vn 1.064789E-07 -0.2945816 0.9556263
vn 0 -0.1700496 0.9854354
vn 0 -0.1700492 0.9854355
vn 0 -0.0338777 0.999426
vn 0 -0.03387799 0.999426
vn 0 0.6866456 0.7269922
vn 0 0.6866452 0.7269927
vn 0 0.5727351 0.8197404
vn 0 0.5727355 0.8197403
vn -1.337477E-07 0.9100293 0.414544
vn -1.378049E-07 0.9100298 0.414543
vn 1.638091E-07 -0.8105774 0.5856315
vn 1.911881E-07 -0.9904873 0.1376047
vn 1.780716E-07 -0.8105776 0.5856313
vn 1.953004E-07 -0.9904873 0.1376045
vn 0.1113778 -0.1228933 -0.9861502
vn 0.1180401 0.1157537 -0.9862391
vn 0.1113778 0.1228934 -0.9861502
vn 0.1180401 -0.1157536 -0.9862391
vn -0.1113778 -0.1228934 -0.9861502
vn 0.1180401 -0.1157536 -0.9862391
vn 0.1113778 -0.1228933 -0.9861502
vn -0.1180402 -0.1157537 -0.9862391
vn -0.1113778 0.1228934 -0.9861502
vn -0.1180402 -0.1157537 -0.9862391
vn -0.1113778 -0.1228934 -0.9861502
vn -0.1180402 0.1157537 -0.9862391
vn 0.1113778 0.1228934 -0.9861502
vn -0.1180402 0.1157537 -0.9862391
vn -0.1113778 0.1228934 -0.9861502
vn 0.1180401 0.1157537 -0.9862391
vn 1.300414E-07 0 1
vn 1.300414E-07 0 1
vn 1.300414E-07 0 1
vn 1.300414E-07 0 1
g Picture_10_Medium_Framed_0
f 3/3/3 2/2/2 1/1/1
f 4/4/4 1/1/1 2/2/2
f 2/2/2 5/5/5 4/4/4
f 6/6/6 4/4/4 5/5/5
f 9/9/9 8/8/8 7/7/7
f 10/10/10 7/7/7 8/8/8
f 10/10/10 8/8/8 11/11/11
f 12/12/12 11/11/11 8/8/8
f 12/12/12 13/13/13 11/11/11
f 14/14/14 11/11/11 13/13/13
f 13/13/13 15/15/15 14/14/14
f 16/16/16 14/14/14 15/15/15
f 16/16/16 15/15/15 17/17/17
f 18/18/18 17/17/17 15/15/15
f 21/21/21 20/20/20 19/19/19
f 22/22/22 19/19/19 20/20/20
f 22/22/22 20/20/20 23/23/23
f 24/24/24 23/23/23 20/20/20
f 27/27/27 26/26/26 25/25/25
f 28/28/28 25/25/25 26/26/26
f 25/25/25 28/28/28 29/29/29
f 30/30/30 29/29/29 28/28/28
f 30/30/30 31/31/31 29/29/29
f 32/32/32 29/29/29 31/31/31
f 32/32/32 31/31/31 33/33/33
f 34/34/34 33/33/33 31/31/31
f 33/33/33 34/34/34 35/35/35
f 36/36/36 35/35/35 34/34/34
f 35/35/35 36/36/36 37/37/37
f 38/38/38 37/37/37 36/36/36
f 41/41/41 40/40/40 39/39/39
f 42/42/42 39/39/39 40/40/40
f 40/40/40 43/43/43 42/42/42
f 44/44/44 42/42/42 43/43/43
f 47/47/47 46/46/46 45/45/45
f 48/48/48 45/45/45 46/46/46
f 51/51/51 50/50/50 49/49/49
f 52/52/52 49/49/49 50/50/50
f 50/50/50 53/53/53 52/52/52
f 54/54/54 52/52/52 53/53/53
f 57/57/57 56/56/56 55/55/55
f 56/56/56 57/57/57 58/58/58
f 59/59/59 58/58/58 57/57/57
f 62/62/62 61/61/61 60/60/60
f 62/62/62 63/63/63 61/61/61
f 64/64/64 61/61/61 63/63/63
f 64/64/64 63/63/63 65/65/65
f 66/66/66 65/65/65 63/63/63
f 66/66/66 67/67/67 65/65/65
f 68/68/68 65/65/65 67/67/67
f 68/68/68 67/67/67 69/69/69
f 70/70/70 69/69/69 67/67/67
f 69/69/69 70/70/70 71/71/71
f 72/72/72 71/71/71 70/70/70
f 75/75/75 74/74/74 73/73/73
f 76/76/76 73/73/73 74/74/74
f 76/76/76 77/77/77 73/73/73
f 78/78/78 73/73/73 77/77/77
f 81/81/81 80/80/80 79/79/79
f 82/82/82 79/79/79 80/80/80
f 80/80/80 83/83/83 82/82/82
f 84/84/84 82/82/82 83/83/83
f 84/84/84 83/83/83 85/85/85
f 86/86/86 85/85/85 83/83/83
f 85/85/85 86/86/86 87/87/87
f 88/88/88 87/87/87 86/86/86
f 88/88/88 89/89/89 87/87/87
f 90/90/90 87/87/87 89/89/89
f 90/90/90 89/89/89 91/91/91
f 92/92/92 91/91/91 89/89/89
f 95/95/95 94/94/94 93/93/93
f 96/96/96 93/93/93 94/94/94
f 99/99/99 98/98/98 97/97/97
f 100/100/100 97/97/97 98/98/98
f 103/103/103 102/102/102 101/101/101
f 104/104/104 101/101/101 102/102/102
f 107/107/107 106/106/106 105/105/105
f 108/108/108 105/105/105 106/106/106
f 111/111/111 110/110/110 109/109/109
f 112/112/112 109/109/109 110/110/110
f 115/115/115 114/114/114 113/113/113
f 116/116/116 113/113/113 114/114/114
