g Picture_4_Largest_Framed
v -0.4404034 0.5634476 0.0006504297
v 0.4391376 0.5621818 0.01181193
v -0.4391377 0.5621818 0.01181193
v 0.4404034 0.5634476 0.0006504297
v 0.4404309 0.5634751 -0.01580694
v -0.4404309 0.5634751 -0.01580694
v 0.4391376 -0.5621817 0.01181173
v 0.4092267 0.5322711 0.01587779
v 0.4391376 0.5621818 0.01181193
v 0.4092267 -0.532271 0.01587774
v 0.3991101 0.5221543 0.01412241
v 0.3991101 -0.5221543 0.01412237
v 0.3490214 -0.4720654 0.005220239
v 0.3490214 0.4720655 0.005220435
v 0.3368454 0.4598894 0.00220438
v 0.3368454 -0.4598894 0.002204189
v 0.3336034 0.4566473 -0.01587774
v -0.3368454 0.4598894 0.00220438
v 0.3368454 0.4598894 0.00220438
v -0.3336034 0.4566473 -0.01587774
v 0.4391376 0.5621818 0.01181193
v -0.4092268 0.5322711 0.01587779
v -0.4391377 0.5621818 0.01181193
v 0.4092267 0.5322711 0.01587779
v 0.3991101 0.5221543 0.01412241
v -0.3991101 0.5221543 0.01412241
v 0.3490214 0.4720655 0.005220435
v -0.3490216 0.4720655 0.005220435
v -0.3368454 0.4598894 0.00220438
v 0.3368454 0.4598894 0.00220438
v -0.3368454 0.4598894 0.00220438
v -0.3336034 -0.4566472 -0.01587778
v -0.3368454 -0.4598894 0.002204189
v -0.3336034 0.4566473 -0.01587774
v -0.4391377 0.5621818 0.01181193
v -0.4092268 -0.532271 0.01587774
v -0.4391377 -0.5621817 0.01181173
v -0.4092268 0.5322711 0.01587779
v -0.3991101 0.5221543 0.01412241
v -0.3991101 -0.5221543 0.01412237
v -0.3490216 0.4720655 0.005220435
v -0.3490216 -0.4720654 0.005220239
v -0.3368454 -0.4598894 0.002204189
v -0.3368454 0.4598894 0.00220438
v -0.3336034 -0.4566472 -0.01587778
v 0.3368454 -0.4598894 0.002204189
v -0.3368454 -0.4598894 0.002204189
v 0.3336034 -0.4566472 -0.01587778
v -0.4404034 -0.5634475 0.000650382
v -0.4391377 0.5621818 0.01181193
v -0.4391377 -0.5621817 0.01181173
v -0.4404034 0.5634476 0.0006504297
v -0.4404309 0.5634751 -0.01580694
v -0.4404309 -0.563475 -0.01580699
v 0.4404034 -0.5634475 0.000650382
v -0.4391377 -0.5621817 0.01181173
v 0.4391376 -0.5621817 0.01181173
v -0.4404034 -0.5634475 0.000650382
v -0.4404309 -0.563475 -0.01580699
v 0.4404309 -0.563475 -0.01580699
v 0.4404034 -0.5634475 0.000650382
v 0.4404309 0.5634751 -0.01580694
v 0.4404309 -0.563475 -0.01580699
v 0.4404034 0.5634476 0.0006504297
v 0.4391376 0.5621818 0.01181193
v 0.4391376 -0.5621817 0.01181173
v -0.4391377 -0.5621817 0.01181173
v 0.4092267 -0.532271 0.01587774
v 0.4391376 -0.5621817 0.01181173
v -0.4092268 -0.532271 0.01587774
v -0.3991101 -0.5221543 0.01412237
v 0.3991101 -0.5221543 0.01412237
v -0.3490216 -0.4720654 0.005220239
v 0.3490214 -0.4720654 0.005220239
v 0.3368454 -0.4598894 0.002204189
v -0.3368454 -0.4598894 0.002204189
v 0.3368454 0.4598894 0.00220438
v 0.3336034 -0.4566472 -0.01587778
v 0.3336034 0.4566473 -0.01587774
v 0.3368454 -0.4598894 0.002204189
v -0.4404309 0.5634751 -0.01580694
v 0.3336034 0.4566473 -0.01587774
v 0.4404309 0.5634751 -0.01580694
v -0.3336034 0.4566473 -0.01587774
v -0.4404309 -0.563475 -0.01580699
v -0.3336034 0.4566473 -0.01587774
v -0.4404309 0.5634751 -0.01580694
v -0.3336034 -0.4566472 -0.01587778
v 0.4404309 -0.563475 -0.01580699
v -0.3336034 -0.4566472 -0.01587778
v -0.4404309 -0.563475 -0.01580699
v 0.3336034 -0.4566472 -0.01587778
v 0.4404309 0.5634751 -0.01580694
v 0.3336034 -0.4566472 -0.01587778
v 0.4404309 -0.563475 -0.01580699
v 0.3336034 0.4566473 -0.01587774
v 0.3386139 0.4615757 -0.01296896
v -0.3386137 -0.4613293 -0.012969
v -0.3386136 0.4615757 -0.01296896
v 0.3386139 -0.4613293 -0.012969
vt 0.521118 0.6440216
vt 0.5188212 0.2886518
vt 0.5188212 0.6440178
vt 0.521118 0.2886479
vt 0.5278624 0.2886366
vt 0.5278624 0.6440327
vt 0.104383 0.1894915
vt 0.09449406 0.6358195
vt 0.104383 0.6457079
vt 0.09449406 0.1993801
vt 0.09054859 0.6319348
vt 0.09054859 0.2032648
vt 0.06969992 0.223792
vt 0.06969992 0.6114077
vt 0.06575432 0.607523
vt 0.06575432 0.2276767
vt 0.4761809 0.3268231
vt 0.4801928 0.6058332
vt 0.4801928 0.3268373
vt 0.4761806 0.6058471
vt 0.5188212 0.2886518
vt 0.5089327 0.6341293
vt 0.5188212 0.6440178
vt 0.5089327 0.2985405
vt 0.5049872 0.3024252
vt 0.504987 0.6302446
vt 0.4841383 0.3229522
vt 0.4841383 0.6097178
vt 0.4801928 0.6058332
vt 0.4801928 0.3268373
vt 0.05095969 0.6075798
vt 0.0549714 0.2277195
vt 0.05095969 0.2277336
vt 0.0549714 0.607594
vt 0.01233176 0.6457649
vt 0.02222021 0.1994371
vt 0.01233176 0.1895485
vt 0.02222046 0.6358762
vt 0.02616555 0.6319916
vt 0.02616555 0.2033218
vt 0.0470141 0.6114645
vt 0.0470141 0.2238488
vt 0.05095969 0.2277336
vt 0.05095969 0.6075798
vt 0.4714166 0.6053052
vt 0.4674047 0.3262954
vt 0.4674047 0.6052911
vt 0.4714166 0.3262812
vt 0.01003543 0.1895448
vt 0.01233176 0.6457649
vt 0.01233176 0.1895485
vt 0.01003543 0.6457688
vt 0.003290977 0.6457801
vt 0.003290977 0.1895334
vt 0.4264804 0.2881069
vt 0.4287767 0.6434767
vt 0.428777 0.2881106
vt 0.4264804 0.6434807
vt 0.419736 0.6434919
vt 0.419736 0.2880957
vt 0.1066796 0.1894877
vt 0.113424 0.6457231
vt 0.113424 0.1894764
vt 0.1066793 0.6457118
vt 0.104383 0.6457079
vt 0.104383 0.1894915
vt 0.4287767 0.6434767
vt 0.4386652 0.2979993
vt 0.428777 0.2881106
vt 0.4386652 0.6335879
vt 0.4426105 0.6297031
vt 0.4426105 0.3018838
vt 0.4634591 0.6091759
vt 0.4634591 0.3224105
vt 0.4674047 0.3262954
vt 0.4674047 0.6052911
vt 0.06575432 0.607523
vt 0.06174249 0.2276626
vt 0.06174249 0.6075371
vt 0.06575432 0.2276767
vt 0.5278624 0.6440327
vt 0.4761809 0.3268231
vt 0.5278624 0.2886366
vt 0.4761806 0.6058471
vt 0.003290977 0.1895334
vt 0.0549714 0.607594
vt 0.003290977 0.6457801
vt 0.0549714 0.2277195
vt 0.419736 0.2880957
vt 0.4714166 0.6053052
vt 0.419736 0.6434919
vt 0.4714166 0.3262812
vt 0.113424 0.6457231
vt 0.06174249 0.2276626
vt 0.113424 0.1894764
vt 0.06174249 0.6075371
vt 0.4966439 0.9971914
vt 0.2511455 0.6506026
vt 0.2511455 0.9971918
vt 0.4966439 0.6506026
vn 0 0.9984766 0.05517828
vn 0 0.8774326 0.4797
vn 0 0.8774318 0.4797015
vn 0 0.9984766 0.05517805
vn 0 0.9999987 0.001668905
vn 0 0.9999987 0.001668905
vn 0.87743 0 0.4797047
vn 0.05814375 -1.432331E-07 0.9983082
vn 0.8774297 0 0.4797052
vn 0.05814734 0 0.9983081
vn -0.1719756 0 0.9851012
vn -0.1719764 0 0.985101
vn -0.1917021 0 0.9814532
vn -0.1916998 -2.032317E-07 0.9814537
vn -0.6095982 -1.517164E-07 0.7927106
vn -0.6095977 -1.643847E-07 0.7927109
vn 0 -0.9843034 0.1764849
vn 0 -0.6095972 0.7927114
vn 0 -0.6095979 0.7927108
vn 0 -0.9843034 0.1764849
vn 0 0.8774326 0.4797
vn 0 0.05814503 0.9983082
vn 0 0.8774318 0.4797015
vn 0 0.05814397 0.9983082
vn 0 -0.1719731 0.9851016
vn 0 -0.1719731 0.9851016
vn 0 -0.1916995 0.9814537
vn 0 -0.1916994 0.9814537
vn 0 -0.6095972 0.7927114
vn 0 -0.6095979 0.7927108
vn 0.6095973 -1.519286E-07 0.7927113
vn 0.9843038 0 0.1764822
vn 0.609597 -1.641728E-07 0.7927114
vn 0.9843041 0 0.1764808
vn -0.877435 0 0.4796957
vn -0.05814727 -1.434477E-07 0.9983081
vn -0.8774347 0 0.479696
vn -0.05814373 0 0.9983082
vn 0.1719738 0 0.9851015
vn 0.1719746 0 0.9851013
vn 0.1916997 0 0.9814537
vn 0.191702 -2.032316E-07 0.9814532
vn 0.609597 -1.641728E-07 0.7927114
vn 0.6095973 -1.519286E-07 0.7927113
vn 0 0.9843028 0.1764883
vn 0 0.609597 0.7927114
vn 0 0.6095965 0.7927119
vn 0 0.9843028 0.1764883
vn -0.9984768 0 0.05517392
vn -0.877435 0 0.4796957
vn -0.8774347 0 0.479696
vn -0.9984768 0 0.05517325
vn -0.9999987 0 0.001668905
vn -0.9999987 0 0.001668905
vn 0 -0.9984766 0.05517831
vn 0 -0.8774326 0.4797
vn 0 -0.8774341 0.4796972
vn 0 -0.9984764 0.05517859
vn 0 -0.9999987 0.001671223
vn 0 -0.9999987 0.001671223
vn 0.9984764 0 0.05518041
vn 0.9999987 0 0.001668905
vn 0.9999987 0 0.001668905
vn 0.9984764 0 0.05517973
vn 0.8774297 0 0.4797052
vn 0.87743 0 0.4797047
vn 0 -0.8774326 0.4797
vn 0 -0.05814807 0.9983079
vn 0 -0.8774341 0.4796972
vn 0 -0.05814809 0.9983079
vn 0 0.1719743 0.9851015
vn 0 0.1719743 0.9851015
vn 0 0.1917015 0.9814533
vn 0 0.1917016 0.9814533
vn 0 0.609597 0.7927114
vn 0 0.6095965 0.7927119
vn -0.6095982 -1.517164E-07 0.7927106
vn -0.9843038 0 0.1764822
vn -0.9843041 0 0.1764808
vn -0.6095977 -1.643847E-07 0.7927109
vn -0.0003313785 0.0003314232 -0.9999999
vn 0.0003313791 0.0003314226 -0.9999999
vn 0.0003313786 0.0003314231 -0.9999999
vn -0.0003313791 0.0003314227 -0.9999999
vn -0.0003313783 -0.000331334 -0.9999999
vn -0.0003313791 0.0003314227 -0.9999999
vn -0.0003313785 0.0003314232 -0.9999999
vn -0.0003313788 -0.0003313335 -0.9999999
vn 0.0003313783 -0.0003313341 -0.9999999
vn -0.0003313788 -0.0003313335 -0.9999999
vn -0.0003313783 -0.000331334 -0.9999999
vn 0.0003313789 -0.0003313335 -0.9999999
vn 0.0003313786 0.0003314231 -0.9999999
vn 0.0003313789 -0.0003313335 -0.9999999
vn 0.0003313783 -0.0003313341 -0.9999999
vn 0.0003313791 0.0003314226 -0.9999999
vn 0 0 1
vn 0 0 1
vn 0 0 1
vn 0 0 1
g Picture_4_Largest_Framed_0
f 3/3/3 2/2/2 1/1/1
f 4/4/4 1/1/1 2/2/2
f 4/4/4 5/5/5 1/1/1
f 6/6/6 1/1/1 5/5/5
f 9/9/9 8/8/8 7/7/7
f 10/10/10 7/7/7 8/8/8
f 8/8/8 11/11/11 10/10/10
f 12/12/12 10/10/10 11/11/11
f 12/12/12 11/11/11 13/13/13
f 14/14/14 13/13/13 11/11/11
f 14/14/14 15/15/15 13/13/13
f 16/16/16 13/13/13 15/15/15
f 19/19/19 18/18/18 17/17/17
f 20/20/20 17/17/17 18/18/18
f 23/23/23 22/22/22 21/21/21
f 24/24/24 21/21/21 22/22/22
f 24/24/24 22/22/22 25/25/25
f 26/26/26 25/25/25 22/22/22
f 25/25/25 26/26/26 27/27/27
f 28/28/28 27/27/27 26/26/26
f 28/28/28 29/29/29 27/27/27
f 30/30/30 27/27/27 29/29/29
f 33/33/33 32/32/32 31/31/31
f 34/34/34 31/31/31 32/32/32
f 37/37/37 36/36/36 35/35/35
f 38/38/38 35/35/35 36/36/36
f 38/38/38 36/36/36 39/39/39
f 40/40/40 39/39/39 36/36/36
f 39/39/39 40/40/40 41/41/41
f 42/42/42 41/41/41 40/40/40
f 42/42/42 43/43/43 41/41/41
f 44/44/44 41/41/41 43/43/43
f 47/47/47 46/46/46 45/45/45
f 48/48/48 45/45/45 46/46/46
f 51/51/51 50/50/50 49/49/49
f 52/52/52 49/49/49 50/50/50
f 52/52/52 53/53/53 49/49/49
f 54/54/54 49/49/49 53/53/53
f 57/57/57 56/56/56 55/55/55
f 58/58/58 55/55/55 56/56/56
f 58/58/58 59/59/59 55/55/55
f 60/60/60 55/55/55 59/59/59
f 63/63/63 62/62/62 61/61/61
f 64/64/64 61/61/61 62/62/62
f 64/64/64 65/65/65 61/61/61
f 66/66/66 61/61/61 65/65/65
f 69/69/69 68/68/68 67/67/67
f 70/70/70 67/67/67 68/68/68
f 70/70/70 68/68/68 71/71/71
f 72/72/72 71/71/71 68/68/68
f 71/71/71 72/72/72 73/73/73
f 74/74/74 73/73/73 72/72/72
f 74/74/74 75/75/75 73/73/73
f 76/76/76 73/73/73 75/75/75
f 79/79/79 78/78/78 77/77/77
f 80/80/80 77/77/77 78/78/78
f 83/83/83 82/82/82 81/81/81
f 84/84/84 81/81/81 82/82/82
f 87/87/87 86/86/86 85/85/85
f 88/88/88 85/85/85 86/86/86
f 91/91/91 90/90/90 89/89/89
f 92/92/92 89/89/89 90/90/90
f 95/95/95 94/94/94 93/93/93
f 96/96/96 93/93/93 94/94/94
f 99/99/99 98/98/98 97/97/97
f 100/100/100 97/97/97 98/98/98
