g Picture_12_Large_Framed
v -0.3569166 0.4655504 0.01167872
v -0.3663937 -0.4750274 0.007766626
v -0.3663937 0.4750274 0.007766669
v -0.3663937 -0.4750274 0.007766626
v -0.3569166 0.4655504 0.01167872
v -0.3569166 -0.4655503 0.01167867
v -0.3676459 0.4762798 -0.004700068
v -0.3676459 -0.4762797 -0.02244868
v -0.3676459 0.4762798 -0.02244863
v -0.3676459 -0.4762797 -0.004700108
v -0.3663937 -0.4750274 0.007766626
v -0.3663937 0.4750274 0.007766669
v 0.356916 0.4655504 0.01167872
v -0.3663937 0.4750274 0.007766669
v 0.366393 0.4750274 0.007766669
v -0.3569166 0.4655504 0.01167872
v 0.3495579 0.458189 0.02244867
v -0.3495586 0.458189 0.02244867
v -0.3377388 0.4459808 0.02231592
v 0.3377381 0.4459808 0.02231592
v 0.3099056 0.4166503 0.01817728
v -0.3099063 0.4166503 0.01817728
v -0.3013274 0.4076438 0.0168609
v 0.3013267 0.4076438 0.0168609
v -0.2899728 0.3961803 0.008300569
v 0.289972 0.3961803 0.008300874
v -0.3377388 0.4459808 0.02231592
v -0.3495586 -0.4581889 0.02244863
v -0.3495586 0.458189 0.02244867
v -0.3377389 -0.4459808 0.02231588
v -0.3099063 0.4166503 0.01817728
v -0.3099062 -0.4166502 0.01817724
v -0.3013273 -0.4076437 0.01686072
v -0.3013274 0.4076438 0.0168609
v -0.2899728 0.3961803 0.008300569
v -0.2899728 -0.3961803 0.008300841
v -0.2899728 -0.3961803 0.008300841
v -0.2882532 0.3944279 -0.004306242
v -0.2882532 -0.3944279 -0.004306276
v -0.2899728 0.3961803 0.008300569
v 0.3676453 0.4762798 -0.02244863
v -0.3676459 0.4762798 -0.004700068
v -0.3676459 0.4762798 -0.02244863
v 0.3676453 0.4762798 -0.004700068
v -0.3663937 0.4750274 0.007766669
v 0.366393 0.4750274 0.007766669
v -0.2899728 0.3961803 0.008300569
v 0.2882523 0.3944279 -0.004306242
v -0.2882532 0.3944279 -0.004306242
v 0.289972 0.3961803 0.008300874
v 0.289972 0.3961803 0.008300874
v 0.3013265 -0.4076437 0.01686072
v 0.289972 -0.3961803 0.008300841
v 0.2882523 0.3944279 -0.004306242
v 0.2882523 -0.3944279 -0.004306276
v 0.3013265 -0.4076437 0.01686072
v 0.289972 0.3961803 0.008300874
v 0.3013267 0.4076438 0.0168609
v 0.3099056 0.4166503 0.01817728
v 0.3099055 -0.4166501 0.01817724
v 0.3377381 0.4459808 0.02231592
v 0.3377379 -0.4459807 0.02231588
v 0.3495579 -0.4581889 0.02244863
v 0.3495579 0.458189 0.02244867
v 0.356916 0.4655504 0.01167872
v 0.356916 -0.4655503 0.01167867
v 0.366393 -0.4750274 0.007766626
v 0.366393 0.4750274 0.007766669
v 0.3676453 -0.4762797 -0.02244868
v 0.3676453 0.4762798 -0.004700068
v 0.3676453 0.4762798 -0.02244863
v 0.3676453 -0.4762797 -0.004700108
v 0.366393 0.4750274 0.007766669
v 0.366393 -0.4750274 0.007766626
v -0.3676459 -0.4762797 -0.02244868
v 0.3676453 -0.4762797 -0.004700108
v 0.3676453 -0.4762797 -0.02244868
v -0.3676459 -0.4762797 -0.004700108
v 0.366393 -0.4750274 0.007766626
v -0.3663937 -0.4750274 0.007766626
v 0.3013265 -0.4076437 0.01686072
v -0.2899728 -0.3961803 0.008300841
v 0.289972 -0.3961803 0.008300841
v -0.3013273 -0.4076437 0.01686072
v -0.3099062 -0.4166502 0.01817724
v 0.3099055 -0.4166501 0.01817724
v 0.3377379 -0.4459807 0.02231588
v -0.3377389 -0.4459808 0.02231588
v -0.3495586 -0.4581889 0.02244863
v 0.3495579 -0.4581889 0.02244863
v 0.289972 -0.3961803 0.008300841
v -0.2882532 -0.3944279 -0.004306276
v 0.2882523 -0.3944279 -0.004306276
v -0.2899728 -0.3961803 0.008300841
v -0.3569166 -0.4655503 0.01167867
v 0.366393 -0.4750274 0.007766626
v -0.3663937 -0.4750274 0.007766626
v 0.356916 -0.4655503 0.01167867
v -0.3569166 -0.4655503 0.01167867
v -0.3495586 0.458189 0.02244867
v -0.3495586 -0.4581889 0.02244863
v -0.3569166 0.4655504 0.01167872
v 0.3495579 -0.4581889 0.02244863
v -0.3569166 -0.4655503 0.01167867
v -0.3495586 -0.4581889 0.02244863
v 0.356916 -0.4655503 0.01167867
v 0.2882523 0.3944279 -0.004306242
v -0.3676459 0.4762798 -0.02244863
v -0.2882532 0.3944279 -0.004306242
v 0.3676453 0.4762798 -0.02244863
v 0.2882523 -0.3944279 -0.004306276
v 0.3676453 0.4762798 -0.02244863
v 0.2882523 0.3944279 -0.004306242
v 0.3676453 -0.4762797 -0.02244868
v -0.2882532 -0.3944279 -0.004306276
v 0.3676453 -0.4762797 -0.02244868
v 0.2882523 -0.3944279 -0.004306276
v -0.3676459 -0.4762797 -0.02244868
v -0.2882532 0.3944279 -0.004306242
v -0.3676459 -0.4762797 -0.02244868
v -0.2882532 -0.3944279 -0.004306276
v -0.3676459 0.4762798 -0.02244863
v 0.2926211 0.3975642 -0.002094632
v -0.2906885 -0.3973521 -0.002094668
v -0.2906884 0.3975644 -0.002094632
v 0.2926211 -0.3973521 -0.002094668
vt 0.132625 0.6426726
vt 0.1305074 0.2600124
vt 0.1305074 0.6447912
vt 0.1305074 0.2600124
vt 0.132625 0.6426726
vt 0.132625 0.2621309
vt 0.1276819 0.6447912
vt 0.1204084 0.2600124
vt 0.1204084 0.6447912
vt 0.1276819 0.2600124
vt 0.1305074 0.2600124
vt 0.1305074 0.6447912
vt 0.8696586 0.008519283
vt 0.871777 0.290089
vt 0.871777 0.006400576
vt 0.8696584 0.2879705
vt 0.8635439 0.01231324
vt 0.8635439 0.2841768
vt 0.8600797 0.2809223
vt 0.8600802 0.01556837
vt 0.8479406 0.02697485
vt 0.8479406 0.2695163
vt 0.8444766 0.2662617
vt 0.8444766 0.03022992
vt 0.8405907 0.2631474
vt 0.8405907 0.03334462
vt 0.1420293 0.6354487
vt 0.1387394 0.2659248
vt 0.1387391 0.6388788
vt 0.1420295 0.2693548
vt 0.1535605 0.6234287
vt 0.1535605 0.2813748
vt 0.1568508 0.2848049
vt 0.1568508 0.6199986
vt 0.1607013 0.6168407
vt 0.1607013 0.2879629
vt 0.1607013 0.2879629
vt 0.1632322 0.6168407
vt 0.1632322 0.2879629
vt 0.1607013 0.6168407
vt 0.8818759 0.006400576
vt 0.8746025 0.290089
vt 0.8818759 0.290089
vt 0.8746025 0.006400576
vt 0.871777 0.290089
vt 0.871777 0.006400576
vt 0.8405907 0.2631474
vt 0.8380598 0.03334468
vt 0.8380598 0.2631475
vt 0.8405907 0.03334462
vt 0.1721467 0.6162938
vt 0.1759974 0.2842582
vt 0.1721467 0.287416
vt 0.1696159 0.6162938
vt 0.1696159 0.287416
vt 0.1759974 0.2842582
vt 0.1721467 0.6162938
vt 0.1759974 0.6194519
vt 0.1792877 0.6228822
vt 0.1792877 0.2808283
vt 0.1908192 0.6349024
vt 0.190819 0.2688085
vt 0.1941096 0.2653786
vt 0.1941096 0.6383327
vt 0.2002241 0.6421267
vt 0.200224 0.261585
vt 0.2023426 0.2594667
vt 0.2023426 0.6442454
vt 0.2124418 0.2594667
vt 0.2051679 0.6442456
vt 0.2124418 0.6442456
vt 0.2051679 0.2594667
vt 0.2023426 0.6442454
vt 0.2023426 0.2594667
vt 0.9343629 0.6428639
vt 0.9416367 0.3591754
vt 0.9343629 0.3591754
vt 0.9416365 0.6428639
vt 0.9444625 0.3591754
vt 0.9444622 0.6428639
vt 0.971764 0.3830048
vt 0.9756503 0.6159223
vt 0.9756503 0.3861195
vt 0.971764 0.6190366
vt 0.9682999 0.6222913
vt 0.9682999 0.3797497
vt 0.9561606 0.3683433
vt 0.9561602 0.6336972
vt 0.9526961 0.6369518
vt 0.9526961 0.3650881
vt 0.9756503 0.3861195
vt 0.9781811 0.6159224
vt 0.9781811 0.3861197
vt 0.9756503 0.6159223
vt 0.9465812 0.6407454
vt 0.9444625 0.3591754
vt 0.9444622 0.6428639
vt 0.9465812 0.361294
vt 0.132625 0.2621309
vt 0.1387391 0.6388788
vt 0.1387394 0.2659248
vt 0.132625 0.6426726
vt 0.9526961 0.3650881
vt 0.9465812 0.6407454
vt 0.9526961 0.6369518
vt 0.9465812 0.361294
vt 0.8380598 0.03334468
vt 0.8818759 0.290089
vt 0.8380598 0.2631475
vt 0.8818759 0.006400576
vt 0.1696159 0.287416
vt 0.2124418 0.6442456
vt 0.1696159 0.6162938
vt 0.2124418 0.2594667
vt 0.9781811 0.6159224
vt 0.9343629 0.3591754
vt 0.9781811 0.3861197
vt 0.9343629 0.6428639
vt 0.1632322 0.6168407
vt 0.1204084 0.2600124
vt 0.1632322 0.2879629
vt 0.1204084 0.6447912
vt 0.4966439 0.9971914
vt 0.2511455 0.6506026
vt 0.2511455 0.9971918
vt 0.4966439 0.6506026
vn -0.5400454 0 0.8416359
vn -0.904991 0 0.4254307
vn -0.90499 0 0.4254331
vn -0.904991 0 0.4254307
vn -0.5400454 0 0.8416359
vn -0.5400449 0 0.8416362
vn -0.9988281 0 0.04839782
vn -1 0 0
vn -1 0 0
vn -0.9988281 0 0.04839777
vn -0.904991 0 0.4254307
vn -0.90499 0 0.4254331
vn 0 0.5400169 0.8416542
vn 0 0.9049882 0.4254368
vn 0 0.9049887 0.4254357
vn 0 0.5400171 0.8416541
vn 0 0.6545019 0.7560603
vn 0 0.6545016 0.7560606
vn 0 -0.04427383 0.9990195
vn 0 -0.04427385 0.9990195
vn 0 -0.1409924 0.9900107
vn 0 -0.1409924 0.9900107
vn 0 -0.2779993 0.9605814
vn -1.173218E-07 -0.2779933 0.960583
vn 0 -0.8110114 0.5850304
vn -3.078565E-07 -0.811005 0.5850392
vn 0.04442102 0 0.9990129
vn -0.6608121 0 0.7505513
vn -0.6608124 0 0.7505511
vn 0.04442109 0 0.9990129
vn 0.1482005 0 0.9889573
vn 0.148204 0 0.9889567
vn 0.2814253 0 0.9595832
vn 0.2814196 -1.925456E-07 0.9595848
vn 0.8126489 0 0.5827537
vn 0.8126405 1.782772E-07 0.5827652
vn 0.8126405 1.782772E-07 0.5827652
vn 0.9908251 0 0.1351501
vn 0.9908256 0 0.1351469
vn 0.8126489 0 0.5827537
vn 0 1 0
vn 0 0.9988281 0.04839925
vn 0 1 0
vn 0 0.9988281 0.0483992
vn 0 0.9049882 0.4254368
vn 0 0.9049887 0.4254357
vn 0 -0.8110114 0.5850304
vn 0 -0.990478 0.137671
vn 0 -0.9904776 0.1376742
vn -3.078565E-07 -0.811005 0.5850392
vn -0.812641 0 0.5827647
vn -0.2814246 0 0.9595833
vn -0.8126394 0 0.5827668
vn -0.9908248 0 0.1351528
vn -0.9908248 0 0.1351528
vn -0.2814246 0 0.9595833
vn -0.812641 0 0.5827647
vn -0.2814132 -1.662122E-07 0.9595867
vn -0.1482002 0 0.9889573
vn -0.1482043 0 0.9889567
vn -0.04442107 0 0.9990129
vn -0.04442106 0 0.9990129
vn 0.6608106 0 0.7505527
vn 0.6608124 0 0.750551
vn 0.5400437 0 0.841637
vn 0.5400435 0 0.841637
vn 0.90499 0 0.425433
vn 0.9049895 0 0.425434
vn 1 0 0
vn 0.9988281 0 0.04839773
vn 1 0 0
vn 0.9988281 0 0.04839784
vn 0.9049895 0 0.425434
vn 0.90499 0 0.425433
vn 0 -1 0
vn 0 -0.9988281 0.04839779
vn 0 -1 0
vn 0 -0.9988281 0.04839774
vn 0 -0.9049888 0.4254354
vn 0 -0.9049883 0.4254365
vn 0 0.2780048 0.9605797
vn 0 0.811003 0.5850419
vn 0 0.8110024 0.5850427
vn 0 0.2780042 0.9605798
vn 0 0.1409964 0.9900101
vn 0 0.1409966 0.9900101
vn 0 0.04427371 0.9990195
vn 0 0.04427376 0.9990195
vn 0 -0.6545019 0.7560603
vn 0 -0.6545034 0.7560591
vn 0 0.8110024 0.5850427
vn 0 0.9904772 0.1376768
vn 0 0.9904772 0.1376768
vn 0 0.811003 0.5850419
vn 0 -0.5400157 0.8416549
vn 0 -0.9049888 0.4254354
vn 0 -0.9049883 0.4254365
vn 0 -0.5400153 0.8416552
vn -0.5400449 0 0.8416362
vn -0.6608124 0 0.7505511
vn -0.6608121 0 0.7505513
vn -0.5400454 0 0.8416359
vn 0 -0.6545034 0.7560591
vn 0 -0.5400157 0.8416549
vn 0 -0.6545019 0.7560603
vn 0 -0.5400153 0.8416552
vn -0.113469 -0.108832 -0.9875629
vn 0.1106506 -0.1115694 -0.9875772
vn 0.1134695 -0.108832 -0.9875628
vn -0.1106504 -0.1115692 -0.9875773
vn -0.113469 0.1088322 -0.9875629
vn -0.1106504 -0.1115692 -0.9875773
vn -0.113469 -0.108832 -0.9875629
vn -0.1106505 0.1115692 -0.9875772
vn 0.1134696 0.1088321 -0.9875628
vn -0.1106505 0.1115692 -0.9875772
vn -0.113469 0.1088322 -0.9875629
vn 0.1106506 0.1115696 -0.9875772
vn 0.1134695 -0.108832 -0.9875628
vn 0.1106506 0.1115696 -0.9875772
vn 0.1134696 0.1088321 -0.9875628
vn 0.1106506 -0.1115694 -0.9875772
vn 0 0 1
vn 0 0 1
vn 0 0 1
vn 0 0 1
g Picture_12_Large_Framed_0
f 3/3/3 2/2/2 1/1/1
f 6/6/6 5/5/5 4/4/4
f 9/9/9 8/8/8 7/7/7
f 10/10/10 7/7/7 8/8/8
f 10/10/10 11/11/11 7/7/7
f 12/12/12 7/7/7 11/11/11
f 15/15/15 14/14/14 13/13/13
f 16/16/16 13/13/13 14/14/14
f 13/13/13 16/16/16 17/17/17
f 18/18/18 17/17/17 16/16/16
f 18/18/18 19/19/19 17/17/17
f 20/20/20 17/17/17 19/19/19
f 20/20/20 19/19/19 21/21/21
f 22/22/22 21/21/21 19/19/19
f 22/22/22 23/23/23 21/21/21
f 24/24/24 21/21/21 23/23/23
f 23/23/23 25/25/25 24/24/24
f 26/26/26 24/24/24 25/25/25
f 29/29/29 28/28/28 27/27/27
f 30/30/30 27/27/27 28/28/28
f 27/27/27 30/30/30 31/31/31
f 32/32/32 31/31/31 30/30/30
f 32/32/32 33/33/33 31/31/31
f 34/34/34 31/31/31 33/33/33
f 34/34/34 33/33/33 35/35/35
f 36/36/36 35/35/35 33/33/33
f 39/39/39 38/38/38 37/37/37
f 40/40/40 37/37/37 38/38/38
f 43/43/43 42/42/42 41/41/41
f 44/44/44 41/41/41 42/42/42
f 42/42/42 45/45/45 44/44/44
f 46/46/46 44/44/44 45/45/45
f 49/49/49 48/48/48 47/47/47
f 50/50/50 47/47/47 48/48/48
f 53/53/53 52/52/52 51/51/51
f 51/51/51 54/54/54 53/53/53
f 55/55/55 53/53/53 54/54/54
f 58/58/58 57/57/57 56/56/56
f 58/58/58 56/56/56 59/59/59
f 60/60/60 59/59/59 56/56/56
f 59/59/59 60/60/60 61/61/61
f 62/62/62 61/61/61 60/60/60
f 62/62/62 63/63/63 61/61/61
f 64/64/64 61/61/61 63/63/63
f 64/64/64 63/63/63 65/65/65
f 66/66/66 65/65/65 63/63/63
f 66/66/66 67/67/67 65/65/65
f 68/68/68 65/65/65 67/67/67
f 71/71/71 70/70/70 69/69/69
f 72/72/72 69/69/69 70/70/70
f 70/70/70 73/73/73 72/72/72
f 74/74/74 72/72/72 73/73/73
f 77/77/77 76/76/76 75/75/75
f 78/78/78 75/75/75 76/76/76
f 76/76/76 79/79/79 78/78/78
f 80/80/80 78/78/78 79/79/79
f 83/83/83 82/82/82 81/81/81
f 84/84/84 81/81/81 82/82/82
f 84/84/84 85/85/85 81/81/81
f 86/86/86 81/81/81 85/85/85
f 86/86/86 85/85/85 87/87/87
f 88/88/88 87/87/87 85/85/85
f 88/88/88 89/89/89 87/87/87
f 90/90/90 87/87/87 89/89/89
f 93/93/93 92/92/92 91/91/91
f 94/94/94 91/91/91 92/92/92
f 97/97/97 96/96/96 95/95/95
f 98/98/98 95/95/95 96/96/96
f 101/101/101 100/100/100 99/99/99
f 102/102/102 99/99/99 100/100/100
f 105/105/105 104/104/104 103/103/103
f 106/106/106 103/103/103 104/104/104
f 109/109/109 108/108/108 107/107/107
f 110/110/110 107/107/107 108/108/108
f 113/113/113 112/112/112 111/111/111
f 114/114/114 111/111/111 112/112/112
f 117/117/117 116/116/116 115/115/115
f 118/118/118 115/115/115 116/116/116
f 121/121/121 120/120/120 119/119/119
f 122/122/122 119/119/119 120/120/120
f 125/125/125 124/124/124 123/123/123
f 126/126/126 123/123/123 124/124/124
