g Picture_15_Small_Framed
v 0.1476634 -0.1795947 -0.004754723
v 0.1476634 0.1795948 -0.02250327
v 0.1476634 -0.1795947 -0.02250329
v 0.1476634 0.1795948 -0.004754706
v 0.1467601 0.1786914 0.007712028
v 0.1467601 -0.1786914 0.007712014
v 0.1399241 -0.1718553 0.01162391
v 0.1399241 0.1718553 0.01162392
v 0.1345053 0.1664366 0.02250329
v 0.1345053 -0.1664366 0.02250327
v 0.1270171 -0.1589484 0.02165535
v 0.1345053 0.1664366 0.02250329
v 0.1345053 -0.1664366 0.02250327
v 0.1270171 0.1589484 0.02165535
v 0.1186381 -0.1505694 0.018478
v 0.1186381 0.1505693 0.01847802
v 0.1139363 0.1458675 0.01667321
v 0.1139363 -0.1458676 0.01667319
v 0.1057252 -0.1376565 0.008389351
v 0.1139363 0.1458675 0.01667321
v 0.1139363 -0.1458676 0.01667319
v 0.1057252 0.1376565 0.008389366
v 0.1044064 -0.1363377 -0.004360891
v 0.1044064 0.1363377 -0.00436088
v -0.1476631 -0.1795947 -0.02250329
v 0.1476634 -0.1795947 -0.004754723
v 0.1476634 -0.1795947 -0.02250329
v -0.1476631 -0.1795947 -0.004754723
v 0.1467601 -0.1786914 0.007712014
v -0.1467598 -0.1786914 0.007712014
v -0.1399237 -0.1718553 0.01162391
v 0.1399241 -0.1718553 0.01162391
v -0.134505 -0.1664366 0.02250327
v 0.1345053 -0.1664366 0.02250327
v 0.1139363 -0.1458676 0.01667319
v -0.1186377 -0.1505694 0.018478
v -0.1139359 -0.1458675 0.01667319
v 0.1186381 -0.1505694 0.018478
v 0.1270171 -0.1589484 0.02165535
v -0.1270168 -0.1589484 0.02165535
v -0.134505 -0.1664366 0.02250327
v 0.1345053 -0.1664366 0.02250327
v -0.1057249 -0.1376565 0.008389351
v 0.1139363 -0.1458676 0.01667319
v -0.1139359 -0.1458675 0.01667319
v 0.1057252 -0.1376565 0.008389351
v -0.104406 -0.1363377 -0.004360891
v 0.1044064 -0.1363377 -0.004360891
v 0.1476634 0.1795948 -0.02250327
v -0.1476631 0.1795947 -0.004754706
v -0.1476631 0.1795947 -0.02250327
v 0.1476634 0.1795948 -0.004754706
v -0.1467598 0.1786914 0.007712028
v 0.1467601 0.1786914 0.007712028
v -0.1399237 0.1718554 0.01162392
v 0.1399241 0.1718553 0.01162392
v -0.134505 0.1664366 0.02250329
v 0.1345053 0.1664366 0.02250329
v -0.1139359 0.1458675 0.01667321
v 0.1186381 0.1505693 0.01847802
v 0.1139363 0.1458675 0.01667321
v -0.1186377 0.1505693 0.01847802
v -0.1270168 0.1589484 0.02165535
v 0.1270171 0.1589484 0.02165535
v 0.1345053 0.1664366 0.02250329
v -0.134505 0.1664366 0.02250329
v 0.1139363 0.1458675 0.01667321
v -0.1057249 0.1376565 0.008389366
v -0.1139359 0.1458675 0.01667321
v 0.1057252 0.1376565 0.008389366
v 0.1044064 0.1363377 -0.00436088
v -0.104406 0.1363377 -0.00436088
v -0.1476631 0.1795947 -0.004754706
v -0.1476631 -0.1795947 -0.02250329
v -0.1476631 0.1795947 -0.02250327
v -0.1476631 -0.1795947 -0.004754723
v -0.1467598 -0.1786914 0.007712014
v -0.1467598 0.1786914 0.007712028
v -0.1399237 -0.1718553 0.01162391
v -0.1399237 0.1718554 0.01162392
v -0.134505 0.1664366 0.02250329
v -0.134505 -0.1664366 0.02250327
v -0.1270168 0.1589484 0.02165535
v -0.134505 -0.1664366 0.02250327
v -0.134505 0.1664366 0.02250329
v -0.1270168 -0.1589484 0.02165535
v -0.1186377 0.1505693 0.01847802
v -0.1186377 -0.1505694 0.018478
v -0.1139359 -0.1458675 0.01667319
v -0.1139359 0.1458675 0.01667321
v -0.1139359 0.1458675 0.01667321
v -0.1057249 -0.1376565 0.008389351
v -0.1139359 -0.1458675 0.01667319
v -0.1057249 0.1376565 0.008389366
v -0.104406 0.1363377 -0.00436088
v -0.104406 -0.1363377 -0.004360891
v -0.104406 -0.1363377 -0.004360891
v 0.1476634 -0.1795947 -0.02250329
v 0.1044064 -0.1363377 -0.004360891
v -0.1476631 -0.1795947 -0.02250329
v -0.104406 0.1363377 -0.00436088
v -0.1476631 -0.1795947 -0.02250329
v -0.104406 -0.1363377 -0.004360891
v -0.1476631 0.1795947 -0.02250327
v 0.1044064 0.1363377 -0.00436088
v -0.1476631 0.1795947 -0.02250327
v -0.104406 0.1363377 -0.00436088
v 0.1476634 0.1795948 -0.02250327
v 0.1044064 -0.1363377 -0.004360891
v 0.1476634 0.1795948 -0.02250327
v 0.1044064 0.1363377 -0.00436088
v 0.1476634 -0.1795947 -0.02250329
v 0.105638 0.1378132 -0.0006230855
v -0.1056368 -0.1378134 -0.0006229472
v -0.1056368 0.1378131 -0.0006230855
v 0.105638 -0.1378134 -0.0006229472
vt 0.273511 0.2656956
vt 0.2662377 0.06722063
vt 0.2662377 0.2656956
vt 0.273511 0.06722063
vt 0.2763366 0.06722063
vt 0.2763366 0.2656958
vt 0.2784551 0.2635772
vt 0.2784551 0.06933922
vt 0.2845698 0.07313311
vt 0.2845698 0.2597833
vt 0.2871504 0.2572936
vt 0.2845698 0.07313311
vt 0.2845698 0.2597833
vt 0.2871504 0.0756228
vt 0.2920858 0.2525331
vt 0.2920858 0.08038318
vt 0.2946666 0.08287287
vt 0.2946666 0.2500433
vt 0.2986936 0.2467132
vt 0.2946666 0.08287287
vt 0.2946666 0.2500433
vt 0.2986936 0.08620304
vt 0.3012248 0.2467132
vt 0.3012248 0.0862031
vt 0.1874331 0.2559945
vt 0.1947064 0.09380223
vt 0.187433 0.09380223
vt 0.1947064 0.2559944
vt 0.197532 0.09380223
vt 0.197532 0.2559943
vt 0.1996505 0.2538758
vt 0.1996504 0.09592076
vt 0.2057651 0.2500819
vt 0.205765 0.09971453
vt 0.2158624 0.1094544
vt 0.2132812 0.2428318
vt 0.2158625 0.240342
vt 0.2132812 0.1069648
vt 0.2083462 0.1022042
vt 0.2083462 0.2475922
vt 0.2057651 0.2500819
vt 0.205765 0.09971453
vt 0.2198897 0.2370118
vt 0.2158624 0.1094544
vt 0.2158625 0.240342
vt 0.2198897 0.1127846
vt 0.2224207 0.2370118
vt 0.2224206 0.1127846
vt 0.1806412 0.1125404
vt 0.1733675 0.2747326
vt 0.1806412 0.2747326
vt 0.1733674 0.1125403
vt 0.170542 0.2747325
vt 0.1705419 0.1125403
vt 0.1684234 0.2726139
vt 0.1684234 0.1146589
vt 0.1623088 0.26882
vt 0.1623088 0.1184528
vt 0.1522112 0.2590802
vt 0.1547924 0.1257029
vt 0.1522112 0.1281926
vt 0.1547924 0.26157
vt 0.1597276 0.2663304
vt 0.1597276 0.1209424
vt 0.1623088 0.1184528
vt 0.1623088 0.26882
vt 0.1522112 0.1281926
vt 0.148184 0.25575
vt 0.1522112 0.2590802
vt 0.148184 0.1315227
vt 0.1456531 0.1315227
vt 0.1456531 0.25575
vt 0.2546718 0.07463726
vt 0.2619454 0.2731122
vt 0.2619456 0.07463726
vt 0.2546719 0.2731122
vt 0.2518464 0.2731122
vt 0.2518463 0.07463726
vt 0.2497279 0.2709936
vt 0.2497278 0.07675578
vt 0.2436131 0.08054962
vt 0.2436132 0.2671998
vt 0.2410322 0.08303937
vt 0.2436132 0.2671998
vt 0.2436131 0.08054962
vt 0.2410323 0.2647101
vt 0.236097 0.08779987
vt 0.236097 0.2599497
vt 0.2335158 0.25746
vt 0.2335157 0.09028956
vt 0.2335157 0.09028956
vt 0.2294888 0.2541297
vt 0.2335158 0.25746
vt 0.2294887 0.09361979
vt 0.2269577 0.09361979
vt 0.2269577 0.2541297
vt 0.2224207 0.2370118
vt 0.187433 0.09380223
vt 0.2224206 0.1127846
vt 0.1874331 0.2559945
vt 0.2269577 0.09361979
vt 0.2619454 0.2731122
vt 0.2269577 0.2541297
vt 0.2619456 0.07463726
vt 0.1456531 0.1315227
vt 0.1806412 0.2747326
vt 0.1456531 0.25575
vt 0.1806412 0.1125404
vt 0.3012248 0.2467132
vt 0.2662377 0.06722063
vt 0.3012248 0.0862031
vt 0.2662377 0.2656956
vt 0.9273853 0.4671919
vt 0.7943655 0.2961465
vt 0.7943655 0.4671916
vt 0.9273853 0.2961465
vn 0.9993766 0 0.03530755
vn 1 0 0
vn 1 0 0
vn 0.9993766 0 0.03530752
vn 0.9227979 0 0.3852841
vn 0.9227976 0 0.3852849
vn 0.6552221 0 0.7554363
vn 0.655222 0 0.7554364
vn 0.7116847 0 0.702499
vn 0.7116836 0 0.7025001
vn -0.1760582 0 0.9843798
vn 0.7116847 0 0.702499
vn 0.7116836 0 0.7025001
vn -0.1760588 0 0.9843797
vn -0.355555 0 0.9346554
vn -0.3555546 0 0.9346555
vn -0.4697384 0 0.8828057
vn -0.4697384 0 0.8828056
vn -0.8722448 0 0.4890697
vn -0.4697384 0 0.8828057
vn -0.4697384 0 0.8828056
vn -0.8722443 0 0.4890705
vn -0.9946933 0 0.1028844
vn -0.994693 -1.436545E-07 0.1028872
vn 0 -1 0
vn 0 -0.9993765 0.03530831
vn 0 -1 0
vn 0 -0.9993765 0.03530896
vn 0 -0.9227969 0.3852866
vn 0 -0.9227973 0.3852859
vn 0 -0.6552218 0.7554366
vn 0 -0.655222 0.7554364
vn 0 -0.7116842 0.7024994
vn 0 -0.7116851 0.7024987
vn 0 0.4697384 0.8828057
vn 0 0.3555548 0.9346554
vn 0 0.469738 0.8828058
vn 0 0.3555547 0.9346555
vn 0 0.1760584 0.9843797
vn 0 0.1760585 0.9843797
vn 0 -0.7116842 0.7024994
vn 0 -0.7116851 0.7024987
vn 0 0.8722441 0.4890709
vn 0 0.4697384 0.8828057
vn 0 0.469738 0.8828058
vn 0 0.8722447 0.4890698
vn 0 0.9946932 0.1028857
vn 0 0.9946932 0.102885
vn 0 1 0
vn 0 0.9993765 0.03530901
vn 0 1 0
vn 0 0.9993765 0.03530904
vn 0 0.9227977 0.3852849
vn 0 0.9227963 0.3852882
vn 0 0.6552225 0.7554359
vn 0 0.6552215 0.7554368
vn 0 0.7116839 0.7024998
vn 0 0.711684 0.7024996
vn 0 -0.4697375 0.8828061
vn 0 -0.3555542 0.9346556
vn 0 -0.469738 0.8828058
vn 0 -0.355554 0.9346557
vn 0 -0.1760589 0.9843797
vn 0 -0.1760588 0.9843797
vn 0 0.711684 0.7024996
vn 0 0.7116839 0.7024998
vn 0 -0.469738 0.8828058
vn 0 -0.8722447 0.4890697
vn 0 -0.4697375 0.8828061
vn 0 -0.8722445 0.4890698
vn 0 -0.9946933 0.1028842
vn 0 -0.9946933 0.1028835
vn -0.9993765 0 0.03530831
vn -1 0 0
vn -1 0 0
vn -0.9993765 0 0.03530973
vn -0.9227961 0 0.3852887
vn -0.9227962 0 0.3852883
vn -0.6552205 -1.037679E-07 0.7554377
vn -0.6552204 0 0.7554377
vn -0.7116858 0 0.702498
vn -0.7116845 -1.12886E-07 0.7024992
vn 0.176059 0 0.9843797
vn -0.7116845 -1.12886E-07 0.7024992
vn -0.7116858 0 0.702498
vn 0.1760585 0 0.9843797
vn 0.3555546 0 0.9346555
vn 0.3555561 0 0.9346549
vn 0.4697384 0 0.8828057
vn 0.4697384 0 0.8828057
vn 0.4697384 0 0.8828057
vn 0.8722432 0 0.4890723
vn 0.4697384 0 0.8828057
vn 0.872244 0 0.489071
vn 0.9946929 0 0.1028888
vn 0.9946925 1.346581E-07 0.1028917
vn 0.2010488 0.2010495 -0.9587275
vn -0.2010495 0.2010495 -0.9587274
vn -0.2010494 0.2010495 -0.9587274
vn 0.2010493 0.2010491 -0.9587275
vn 0.201049 -0.2010494 -0.9587275
vn 0.2010493 0.2010491 -0.9587275
vn 0.2010488 0.2010495 -0.9587275
vn 0.2010493 -0.2010491 -0.9587275
vn -0.2010493 -0.2010492 -0.9587275
vn 0.2010493 -0.2010491 -0.9587275
vn 0.201049 -0.2010494 -0.9587275
vn -0.2010493 -0.2010492 -0.9587275
vn -0.2010494 0.2010495 -0.9587274
vn -0.2010493 -0.2010492 -0.9587275
vn -0.2010493 -0.2010492 -0.9587275
vn -0.2010495 0.2010495 -0.9587274
vn 0 5.017033E-07 1
vn 0 5.017033E-07 1
vn 0 5.017034E-07 1
vn 0 5.017032E-07 1
g Picture_15_Small_Framed_0
f 3/3/3 2/2/2 1/1/1
f 4/4/4 1/1/1 2/2/2
f 4/4/4 5/5/5 1/1/1
f 6/6/6 1/1/1 5/5/5
f 6/6/6 5/5/5 7/7/7
f 8/8/8 7/7/7 5/5/5
f 8/8/8 9/9/9 7/7/7
f 10/10/10 7/7/7 9/9/9
f 13/13/13 12/12/12 11/11/11
f 14/14/14 11/11/11 12/12/12
f 11/11/11 14/14/14 15/15/15
f 16/16/16 15/15/15 14/14/14
f 16/16/16 17/17/17 15/15/15
f 18/18/18 15/15/15 17/17/17
f 21/21/21 20/20/20 19/19/19
f 22/22/22 19/19/19 20/20/20
f 19/19/19 22/22/22 23/23/23
f 24/24/24 23/23/23 22/22/22
f 27/27/27 26/26/26 25/25/25
f 28/28/28 25/25/25 26/26/26
f 26/26/26 29/29/29 28/28/28
f 30/30/30 28/28/28 29/29/29
f 30/30/30 29/29/29 31/31/31
f 32/32/32 31/31/31 29/29/29
f 31/31/31 32/32/32 33/33/33
f 34/34/34 33/33/33 32/32/32
f 37/37/37 36/36/36 35/35/35
f 38/38/38 35/35/35 36/36/36
f 38/38/38 36/36/36 39/39/39
f 40/40/40 39/39/39 36/36/36
f 40/40/40 41/41/41 39/39/39
f 42/42/42 39/39/39 41/41/41
f 45/45/45 44/44/44 43/43/43
f 46/46/46 43/43/43 44/44/44
f 43/43/43 46/46/46 47/47/47
f 48/48/48 47/47/47 46/46/46
f 51/51/51 50/50/50 49/49/49
f 52/52/52 49/49/49 50/50/50
f 50/50/50 53/53/53 52/52/52
f 54/54/54 52/52/52 53/53/53
f 53/53/53 55/55/55 54/54/54
f 56/56/56 54/54/54 55/55/55
f 55/55/55 57/57/57 56/56/56
f 58/58/58 56/56/56 57/57/57
f 61/61/61 60/60/60 59/59/59
f 62/62/62 59/59/59 60/60/60
f 62/62/62 60/60/60 63/63/63
f 64/64/64 63/63/63 60/60/60
f 64/64/64 65/65/65 63/63/63
f 66/66/66 63/63/63 65/65/65
f 69/69/69 68/68/68 67/67/67
f 70/70/70 67/67/67 68/68/68
f 70/70/70 68/68/68 71/71/71
f 72/72/72 71/71/71 68/68/68
f 75/75/75 74/74/74 73/73/73
f 76/76/76 73/73/73 74/74/74
f 76/76/76 77/77/77 73/73/73
f 78/78/78 73/73/73 77/77/77
f 77/77/77 79/79/79 78/78/78
f 80/80/80 78/78/78 79/79/79
f 80/80/80 79/79/79 81/81/81
f 82/82/82 81/81/81 79/79/79
f 85/85/85 84/84/84 83/83/83
f 86/86/86 83/83/83 84/84/84
f 83/83/83 86/86/86 87/87/87
f 88/88/88 87/87/87 86/86/86
f 88/88/88 89/89/89 87/87/87
f 90/90/90 87/87/87 89/89/89
f 93/93/93 92/92/92 91/91/91
f 94/94/94 91/91/91 92/92/92
f 94/94/94 92/92/92 95/95/95
f 96/96/96 95/95/95 92/92/92
f 99/99/99 98/98/98 97/97/97
f 100/100/100 97/97/97 98/98/98
f 103/103/103 102/102/102 101/101/101
f 104/104/104 101/101/101 102/102/102
f 107/107/107 106/106/106 105/105/105
f 108/108/108 105/105/105 106/106/106
f 111/111/111 110/110/110 109/109/109
f 112/112/112 109/109/109 110/110/110
f 115/115/115 114/114/114 113/113/113
f 116/116/116 113/113/113 114/114/114
