g Picture_8_Large
v 0.2122589 0.0005259901 -0.1210737
v 0.1820392 0.0005260151 -0.1503277
v 0.2123065 0.003438114 -0.1503839
v -0.1593558 0.0005260629 -0.1503278
v 0.2122632 0.0005261773 -0.04455222
v -0.2123563 0.0005264026 0.1504356
v -0.2123395 0.0005258864 -0.09790929
v 0.01747772 0.0005262572 0.1504279
v -0.1848105 0.002961766 -0.1503414
v -0.212186 0.002958999 -0.1174346
v -0.2068811 0.01046965 -0.1461621
v 0.2107788 0.005536286 0.03010788
v 0.1025275 0.005536771 0.1486922
v 0.2057101 0.01916538 0.1429651
v 0.1820514 -6.020069E-08 -0.1503405
v 0.212272 -6.139278E-08 -0.121087
v 0.2123566 0.002916674 -0.1504356
v -0.1593683 -1.728535E-08 -0.1503405
v 0.212272 -5.304813E-08 -0.0445434
v -0.2123563 2.44379E-08 0.1504356
v -0.2123563 -5.364418E-09 -0.09792428
v 0.01748596 -4.172325E-09 0.1504355
v -0.1848978 0.002448708 -0.1504202
v -0.2122851 0.002448716 -0.1175173
v -0.2070688 0.01000341 -0.1463184
v 0.2108224 0.005013407 0.03014987
v 0.102569 0.005013435 0.1487303
v 0.2057822 0.0186481 0.1430308
v 0.212272 -6.139278E-08 -0.121087
v 0.2123065 0.003438114 -0.1503839
v 0.2123566 0.002916674 -0.1504356
v 0.2122589 0.0005259901 -0.1210737
v 0.212272 -5.304813E-08 -0.0445434
v 0.2122632 0.0005261773 -0.04455222
v 0.2108224 0.005013407 0.03014987
v 0.2107788 0.005536286 0.03010788
v 0.2057822 0.0186481 0.1430308
v 0.2057101 0.01916538 0.1429651
v 0.1820392 0.0005260151 -0.1503277
v 0.2123566 0.002916674 -0.1504356
v 0.2123065 0.003438114 -0.1503839
v 0.1820514 -6.020069E-08 -0.1503405
v -0.1593558 0.0005260629 -0.1503278
v -0.1593683 -1.728535E-08 -0.1503405
v -0.1848105 0.002961766 -0.1503414
v -0.1848978 0.002448708 -0.1504202
v -0.2068811 0.01046965 -0.1461621
v -0.2070688 0.01000341 -0.1463184
v -0.212186 0.002958999 -0.1174346
v -0.2070688 0.01000341 -0.1463184
v -0.2068811 0.01046965 -0.1461621
v -0.2122851 0.002448716 -0.1175173
v -0.2123395 0.0005258864 -0.09790929
v -0.2123563 -5.364418E-09 -0.09792428
v -0.2123563 0.0005264026 0.1504356
v -0.2123563 2.44379E-08 0.1504356
v 0.01747772 0.0005262572 0.1504279
v -0.2123563 2.44379E-08 0.1504356
v -0.2123563 0.0005264026 0.1504356
v 0.01748596 -4.172325E-09 0.1504355
v 0.1025275 0.005536771 0.1486922
v 0.102569 0.005013435 0.1487303
v 0.2057101 0.01916538 0.1429651
v 0.2057822 0.0186481 0.1430308
vt 0.2242832 0.6504446
vt 0.2481604 0.6751109
vt 0.2481604 0.6504446
vt 0.2481606 0.9537838
vt 0.161807 0.6504446
vt 0.002662025 0.9970336
vt 0.2053776 0.9970335
vt 0.002662025 0.8094324
vt 0.2481606 0.9746794
vt 0.2213046 0.9970335
vt 0.2481606 0.9970335
vt 0.09944931 0.6504446
vt 0.002662025 0.738803
vt 0.002662025 0.6504446
vt 0.5777602 0.01421598
vt 0.5865015 0.005341449
vt 0.5777679 0.00519901
vt 0.576881 0.1153285
vt 0.6091701 0.005538671
vt 0.6658201 0.1317957
vt 0.5922675 0.1311561
vt 0.6664121 0.0637271
vt 0.5767565 0.1229221
vt 0.5864208 0.1311285
vt 0.5775501 0.1299196
vt 0.6313377 0.006109936
vt 0.666171 0.03848109
vt 0.665011 0.007622939
vt 0.2242832 0.6504446
vt 0.2481604 0.6504446
vt 0.2481604 0.6504446
vt 0.2242832 0.6504446
vt 0.161807 0.6504446
vt 0.161807 0.6504446
vt 0.09944931 0.6504446
vt 0.09944931 0.6504446
vt 0.002662025 0.6504446
vt 0.002662025 0.6504446
vt 0.2481604 0.6751109
vt 0.2481604 0.6504446
vt 0.2481604 0.6504446
vt 0.2481604 0.6751109
vt 0.2481606 0.9537838
vt 0.2481606 0.9537838
vt 0.2481606 0.9746794
vt 0.2481606 0.9746794
vt 0.2481606 0.9970335
vt 0.2481606 0.9970335
vt 0.2213046 0.9970335
vt 0.2481606 0.9970335
vt 0.2481606 0.9970335
vt 0.2213046 0.9970335
vt 0.2053776 0.9970335
vt 0.2053776 0.9970335
vt 0.002662025 0.9970336
vt 0.002662025 0.9970336
vt 0.002662025 0.8094324
vt 0.002662025 0.9970336
vt 0.002662025 0.9970336
vt 0.002662025 0.8094324
vt 0.002662025 0.738803
vt 0.002662025 0.738803
vt 0.002662025 0.6504446
vt 0.002662025 0.6504446
vn -0.02445914 0.9993815 0.0252659
vn -0.02348085 0.9994299 0.02425683
vn -0.09512627 0.9906031 0.09826734
vn 0.02368449 0.9994327 0.02394066
vn -0.01677051 0.999719 -0.01675535
vn -4.16589E-07 1 -8.630298E-07
vn 0.03213751 0.9990791 0.02842724
vn -0.01532871 0.9997784 -0.0144274
vn 0.1658691 0.9747243 0.1496658
vn 0.1887249 0.9693852 0.1570837
vn 0.3574793 0.8852813 0.2974651
vn -0.08297644 0.9933525 -0.07978533
vn -0.07928249 0.9942212 -0.07237821
vn -0.1367271 0.9827138 -0.1248173
vn 0.02348651 -0.9994296 -0.02426305
vn 0.02446491 -0.9993812 -0.02527379
vn 0.09503487 -0.9906209 -0.0981769
vn -0.02373729 -0.9994301 -0.02399601
vn 0.01677381 -0.9997188 0.01675746
vn -1.253839E-07 -1 1.192408E-07
vn -0.03222616 -0.9990741 -0.02850384
vn 0.01533207 -0.9997783 0.01443048
vn -0.1659735 -0.974694 -0.149748
vn -0.1886169 -0.9694201 -0.1569985
vn -0.3567539 -0.8857467 -0.2969503
vn 0.08296638 -0.9933542 0.07977493
vn 0.07927859 -0.9942217 0.07237463
vn 0.1367107 -0.9827176 0.1248051
vn 0.9996779 0.02529485 0.002060953
vn 0.9955406 0.09354846 0.01215036
vn 0.9954655 0.09433352 0.0122424
vn 0.9996886 0.02486785 0.00207599
vn 0.9998153 0.0169838 0.008997955
vn 0.9998114 0.01711607 0.009186012
vn 0.9960988 0.08491118 0.02402901
vn 0.996073 0.08516022 0.02421393
vn 0.9896164 0.141097 0.02740563
vn 0.9895937 0.1412593 0.02738578
vn -0.002802351 0.02461269 -0.9996932
vn -0.01116658 0.09673087 -0.995248
vn -0.01122967 0.09753445 -0.9951687
vn -0.00268536 0.02422197 -0.999703
vn 0.001432552 0.02396053 -0.9997118
vn 0.001487577 0.02480411 -0.9996912
vn -0.05717929 0.1603512 -0.9854025
vn -0.05152002 0.161602 -0.9855102
vn -0.05941011 0.3361615 -0.9399287
vn -0.05845154 0.3383949 -0.939187
vn -0.9782749 0.2000341 -0.05444624
vn -0.9183721 0.3898991 -0.06761146
vn -0.9175915 0.3918377 -0.06700034
vn -0.9790653 0.1970849 -0.05087955
vn -0.9994494 0.03317833 0.0002755834
vn -0.9994919 0.03187414 0.0001406334
vn -1 4.265434E-05 0
vn -1 0 0
vn 0.009851638 0.01460265 0.9998448
vn 3.322941E-05 2.132016E-05 1
vn 3.327823E-05 0 1
vn 0.009670912 0.01472862 0.9998448
vn 0.03061838 0.07485823 0.9967241
vn 0.0302475 0.07503476 0.996722
vn 0.03742411 0.1308366 0.9906974
vn 0.03739884 0.1310117 0.9906752
g Picture_8_Large_0
f 3/3/3 2/2/2 1/1/1
f 2/2/2 4/4/4 1/1/1
f 4/4/4 5/5/5 1/1/1
f 6/6/6 5/5/5 4/4/4
f 7/7/7 6/6/6 4/4/4
f 8/8/8 5/5/5 6/6/6
f 4/4/4 9/9/9 7/7/7
f 10/10/10 7/7/7 9/9/9
f 11/11/11 10/10/10 9/9/9
f 5/5/5 8/8/8 12/12/12
f 13/13/13 12/12/12 8/8/8
f 14/14/14 12/12/12 13/13/13
f 17/17/17 16/16/16 15/15/15
f 15/15/15 16/16/16 18/18/18
f 16/16/16 19/19/19 18/18/18
f 19/19/19 20/20/20 18/18/18
f 20/20/20 21/21/21 18/18/18
f 22/22/22 20/20/20 19/19/19
f 18/18/18 21/21/21 23/23/23
f 24/24/24 23/23/23 21/21/21
f 25/25/25 23/23/23 24/24/24
f 19/19/19 26/26/26 22/22/22
f 27/27/27 22/22/22 26/26/26
f 28/28/28 27/27/27 26/26/26
f 31/31/31 30/30/30 29/29/29
f 32/32/32 29/29/29 30/30/30
f 29/29/29 32/32/32 33/33/33
f 34/34/34 33/33/33 32/32/32
f 33/33/33 34/34/34 35/35/35
f 36/36/36 35/35/35 34/34/34
f 35/35/35 36/36/36 37/37/37
f 38/38/38 37/37/37 36/36/36
f 41/41/41 40/40/40 39/39/39
f 42/42/42 39/39/39 40/40/40
f 39/39/39 42/42/42 43/43/43
f 44/44/44 43/43/43 42/42/42
f 43/43/43 44/44/44 45/45/45
f 46/46/46 45/45/45 44/44/44
f 45/45/45 46/46/46 47/47/47
f 48/48/48 47/47/47 46/46/46
f 51/51/51 50/50/50 49/49/49
f 52/52/52 49/49/49 50/50/50
f 49/49/49 52/52/52 53/53/53
f 54/54/54 53/53/53 52/52/52
f 53/53/53 54/54/54 55/55/55
f 56/56/56 55/55/55 54/54/54
f 59/59/59 58/58/58 57/57/57
f 60/60/60 57/57/57 58/58/58
f 57/57/57 60/60/60 61/61/61
f 62/62/62 61/61/61 60/60/60
f 61/61/61 62/62/62 63/63/63
f 64/64/64 63/63/63 62/62/62
