g Picture_3_Medium
v 0.1198777 0.00808676 -0.1522567
v -0.11961 0.01282097 -0.1576469
v 0.1209066 0.01638873 -0.1627417
v -0.1204932 0.005528973 -0.1313322
v 0.1192385 0.001004113 -0.1356263
v -0.1209022 0.001012552 -0.1022526
v -0.1209064 0.00101361 0.1630053
v 0.1192226 0.001013346 0.04191818
v -0.02089668 0.001013463 0.1629968
v 0.0498838 0.006430433 0.1603672
v 0.1171447 0.006428564 0.09667125
v 0.1053403 0.02327929 0.1474649
v -0.1196153 0.0124133 -0.1577659
v 0.1198724 0.007721197 -0.1524729
v 0.1209059 0.0160557 -0.1630053
v -0.1205007 0.005114039 -0.1314225
v 0.1192327 0.0005888951 -0.1357154
v -0.1209063 0.0005888939 -0.1022824
v -0.1209064 0.0005888939 0.1630053
v 0.1192327 0.0005888915 0.04192921
v -0.02088928 0.0005888939 0.1630053
v 0.04994148 0.006014452 0.1604306
v 0.1172095 0.00601445 0.09673974
v 0.1054878 0.02291269 0.1476206
v -0.02089668 0.001013463 0.1629968
v -0.1209064 0.0005888939 0.1630053
v -0.1209064 0.00101361 0.1630053
v -0.02088928 0.0005888939 0.1630053
v 0.0498838 0.006430433 0.1603672
v 0.04994148 0.006014452 0.1604306
v 0.1053403 0.02327929 0.1474649
v 0.1054878 0.02291269 0.1476206
v -0.1209063 0.0005888939 -0.1022824
v -0.1209064 0.00101361 0.1630053
v -0.1209064 0.0005888939 0.1630053
v -0.1209022 0.001012552 -0.1022526
v -0.1205007 0.005114039 -0.1314225
v -0.1204932 0.005528973 -0.1313322
v -0.1196153 0.0124133 -0.1577659
v -0.11961 0.01282097 -0.1576469
v 0.1198724 0.007721197 -0.1524729
v 0.1209066 0.01638873 -0.1627417
v 0.1209059 0.0160557 -0.1630053
v 0.1198777 0.00808676 -0.1522567
v 0.1192327 0.0005888951 -0.1357154
v 0.1192385 0.001004113 -0.1356263
v 0.1192327 0.0005888915 0.04192921
v 0.1192226 0.001013346 0.04191818
v 0.1172095 0.00601445 0.09673974
v 0.1171447 0.006428564 0.09667125
v 0.1054878 0.02291269 0.1476206
v 0.1053403 0.02327929 0.1474649
v -0.11961 0.01282097 -0.1576469
v 0.1209059 0.0160557 -0.1630053
v 0.1209066 0.01638873 -0.1627417
v -0.1196153 0.0124133 -0.1577659
vt 0.7447667 0.9770082
vt 0.4992681 0.9972547
vt 0.7447667 0.9972547
vt 0.4992681 0.9536486
vt 0.7447667 0.9546642
vt 0.4992681 0.9206404
vt 0.4992681 0.650666
vt 0.7447667 0.7738811
vt 0.6015173 0.650666
vt 0.6759973 0.650666
vt 0.7447667 0.7154821
vt 0.7447667 0.650666
vt 0.6652052 0.1271965
vt 0.5774925 0.1253212
vt 0.5771603 0.1301449
vt 0.6654735 0.1171061
vt 0.577673 0.1186206
vt 0.6656017 0.1061777
vt 0.6656054 0.00742577
vt 0.577673 0.05249362
vt 0.6289821 0.007424898
vt 0.6029673 0.008289656
vt 0.5783269 0.03198849
vt 0.5814738 0.01181185
vt 0.6015173 0.650666
vt 0.4992681 0.650666
vt 0.4992681 0.650666
vt 0.6015173 0.650666
vt 0.6759973 0.650666
vt 0.6759973 0.650666
vt 0.7447667 0.650666
vt 0.7447667 0.650666
vt 0.4992681 0.9206404
vt 0.4992681 0.650666
vt 0.4992681 0.650666
vt 0.4992681 0.9206404
vt 0.4992681 0.9536486
vt 0.4992681 0.9536486
vt 0.4992681 0.9972547
vt 0.4992681 0.9972547
vt 0.7447667 0.9770082
vt 0.7447667 0.9972547
vt 0.7447667 0.9972547
vt 0.7447667 0.9770082
vt 0.7447667 0.9546642
vt 0.7447667 0.9546642
vt 0.7447667 0.7738811
vt 0.7447667 0.7738811
vt 0.7447667 0.7154821
vt 0.7447667 0.7154821
vt 0.7447667 0.650666
vt 0.7447667 0.650666
vt 0.4992681 0.9972547
vt 0.7447667 0.9972547
vt 0.7447667 0.9972547
vt 0.4992681 0.9972547
vn 0.01248223 0.8605989 0.5091305
vn 0.01266747 0.9598517 0.2802217
vn 0.001523032 0.7839225 0.6208568
vn 0.01761984 0.9769578 0.2127039
vn 0.01351537 0.9776027 0.2100251
vn 0.009761839 0.9975 0.06998926
vn 8.531321E-06 1 -1.561932E-05
vn -0.02378872 0.9993789 -0.02599891
vn -0.01736467 0.9996473 -0.02009639
vn -0.1357832 0.9794468 -0.1491538
vn -0.1526261 0.9750491 -0.1611969
vn -0.3475418 0.8628513 -0.3670183
vn -0.01261192 -0.9598476 -0.2802386
vn -0.01253866 -0.8607141 -0.5089343
vn -0.001645417 -0.7840986 -0.620634
vn -0.01759362 -0.9769593 -0.2126993
vn -0.01351092 -0.9776268 -0.2099126
vn -0.009741722 -0.9975014 -0.06997169
vn 0 -1 0
vn 0.02379344 -0.999379 0.02598679
vn 0.01738021 -0.9996467 0.02011423
vn 0.1358409 -0.9794291 0.1492183
vn 0.1526814 -0.9750305 0.1612568
vn 0.3471474 -0.8631687 0.3666449
vn 0.01800431 0.02036122 0.9996306
vn 8.502077E-05 5.404904E-05 1
vn 8.525022E-05 0 1
vn 0.01750426 0.0206397 0.9996338
vn 0.1019419 0.1634062 0.9812779
vn 0.09550258 0.1635128 0.9819077
vn 0.08219226 0.4162936 0.9055076
vn 0.081768 0.4173266 0.9050705
vn -0.9999298 0.01014767 -0.006115478
vn -1 1.002627E-05 -3.036412E-07
vn -1 0 -2.875895E-07
vn -0.999929 0.01019963 -0.006164624
vn -0.9995764 0.02208925 -0.01894871
vn -0.9995762 0.02211888 -0.01892715
vn -0.9993923 0.02119922 -0.02767066
vn -0.9993926 0.02117224 -0.02767769
vn 0.9983315 -0.0394887 0.0421308
vn 0.997051 -0.04889105 0.05915247
vn 0.997051 -0.04888223 0.0591599
vn 0.9983291 -0.03946337 0.04221061
vn 0.9997393 -0.01725731 0.01494898
vn 0.9997441 -0.01711153 0.01479101
vn 0.9995642 0.02412937 0.01700028
vn 0.9995471 0.02448889 0.01749094
vn 0.9816161 0.1682562 0.09010876
vn 0.9807993 0.1699668 0.09562388
vn 0.9131498 0.3997809 0.07957781
vn 0.9127406 0.4007978 0.07915519
vn -0.02515202 0.280844 -0.9594238
vn -0.02580854 0.6201298 -0.7840747
vn -0.02580716 0.62046 -0.7838134
vn -0.02514925 0.2804452 -0.9595405
g Picture_3_Medium_0
f 3/3/3 2/2/2 1/1/1
f 4/4/4 1/1/1 2/2/2
f 1/1/1 4/4/4 5/5/5
f 6/6/6 5/5/5 4/4/4
f 5/5/5 6/6/6 7/7/7
f 8/8/8 5/5/5 7/7/7
f 9/9/9 8/8/8 7/7/7
f 9/9/9 10/10/10 8/8/8
f 11/11/11 8/8/8 10/10/10
f 12/12/12 11/11/11 10/10/10
f 15/15/15 14/14/14 13/13/13
f 16/16/16 13/13/13 14/14/14
f 14/14/14 17/17/17 16/16/16
f 18/18/18 16/16/16 17/17/17
f 18/18/18 17/17/17 19/19/19
f 17/17/17 20/20/20 19/19/19
f 20/20/20 21/21/21 19/19/19
f 21/21/21 20/20/20 22/22/22
f 23/23/23 22/22/22 20/20/20
f 24/24/24 22/22/22 23/23/23
f 27/27/27 26/26/26 25/25/25
f 28/28/28 25/25/25 26/26/26
f 25/25/25 28/28/28 29/29/29
f 30/30/30 29/29/29 28/28/28
f 29/29/29 30/30/30 31/31/31
f 32/32/32 31/31/31 30/30/30
f 35/35/35 34/34/34 33/33/33
f 36/36/36 33/33/33 34/34/34
f 33/33/33 36/36/36 37/37/37
f 38/38/38 37/37/37 36/36/36
f 37/37/37 38/38/38 39/39/39
f 40/40/40 39/39/39 38/38/38
f 43/43/43 42/42/42 41/41/41
f 44/44/44 41/41/41 42/42/42
f 41/41/41 44/44/44 45/45/45
f 46/46/46 45/45/45 44/44/44
f 45/45/45 46/46/46 47/47/47
f 48/48/48 47/47/47 46/46/46
f 47/47/47 48/48/48 49/49/49
f 50/50/50 49/49/49 48/48/48
f 49/49/49 50/50/50 51/51/51
f 52/52/52 51/51/51 50/50/50
f 55/55/55 54/54/54 53/53/53
f 56/56/56 53/53/53 54/54/54
