g Picture_13_Small_Framed
v -0.26764 -0.2239313 0.0005117321
v -0.2666441 0.2229349 0.009294052
v -0.266644 -0.2229352 0.009294033
v -0.2676401 0.2239307 0.0005118155
v -0.2676616 0.2239529 -0.01243754
v -0.2676616 -0.2239529 -0.01243769
v 0.2666434 0.2229349 0.00929403
v -0.243109 0.1993997 0.01249329
v -0.2666441 0.2229349 0.009294052
v 0.2431083 0.1993997 0.01249327
v -0.2341998 0.1904907 0.01094351
v 0.2341992 0.1904907 0.01094348
v 0.1966847 0.1529761 0.004276176
v -0.1966853 0.1529764 0.004276192
v -0.1861559 0.1424469 0.001734402
v 0.1861553 0.1424469 0.001734385
v -0.1836049 0.1398959 -0.01249326
v -0.1861559 -0.1424472 0.001734385
v -0.1861559 0.1424469 0.001734402
v -0.1836049 -0.1398962 -0.01249327
v -0.2666441 0.2229349 0.009294052
v -0.2431089 -0.1994002 0.01249327
v -0.266644 -0.2229352 0.009294033
v -0.243109 0.1993997 0.01249329
v -0.2341998 0.1904907 0.01094351
v -0.2341998 -0.190491 0.0109435
v -0.1966853 0.1529764 0.004276192
v -0.1966853 -0.1529767 0.004276187
v -0.1861559 -0.1424472 0.001734385
v -0.1861559 0.1424469 0.001734402
v -0.1861559 -0.1424472 0.001734385
v 0.1836043 -0.1398962 -0.01249329
v 0.1861553 -0.1424474 0.001734369
v -0.1836049 -0.1398962 -0.01249327
v -0.266644 -0.2229352 0.009294033
v 0.2431084 -0.1994002 0.01249325
v 0.2666435 -0.2229352 0.009294009
v -0.2431089 -0.1994002 0.01249327
v 0.2341993 -0.190491 0.01094348
v -0.2341998 -0.190491 0.0109435
v -0.1966853 -0.1529767 0.004276187
v 0.1966848 -0.1529767 0.004276171
v 0.1861553 -0.1424474 0.001734369
v -0.1861559 -0.1424472 0.001734385
v 0.1836043 -0.1398962 -0.01249329
v 0.1861553 0.1424469 0.001734385
v 0.1861553 -0.1424474 0.001734369
v 0.1836043 0.1398959 -0.01249328
v 0.2676395 -0.2239313 0.0005117106
v -0.266644 -0.2229352 0.009294033
v 0.2666435 -0.2229352 0.009294009
v -0.26764 -0.2239313 0.0005117321
v -0.2676616 -0.2239529 -0.01243769
v 0.2676611 -0.2239529 -0.01243772
v 0.2676395 0.2239307 0.0005117941
v 0.2666435 -0.2229352 0.009294009
v 0.2666434 0.2229349 0.00929403
v 0.2676395 -0.2239313 0.0005117106
v 0.2676611 -0.2239529 -0.01243772
v 0.2676609 0.2239529 -0.01243757
v 0.2676395 0.2239307 0.0005117941
v -0.2676616 0.2239529 -0.01243754
v 0.2676609 0.2239529 -0.01243757
v -0.2676401 0.2239307 0.0005118155
v -0.2666441 0.2229349 0.009294052
v 0.2666434 0.2229349 0.00929403
v 0.2666435 -0.2229352 0.009294009
v 0.2431083 0.1993997 0.01249327
v 0.2666434 0.2229349 0.00929403
v 0.2431084 -0.1994002 0.01249325
v 0.2341993 -0.190491 0.01094348
v 0.2341992 0.1904907 0.01094348
v 0.1966848 -0.1529767 0.004276171
v 0.1966847 0.1529761 0.004276176
v 0.1861553 0.1424469 0.001734385
v 0.1861553 -0.1424474 0.001734369
v -0.1861559 0.1424469 0.001734402
v 0.1836043 0.1398959 -0.01249328
v -0.1836049 0.1398959 -0.01249326
v 0.1861553 0.1424469 0.001734385
v -0.2676616 -0.2239529 -0.01243769
v -0.1836049 0.1398959 -0.01249326
v -0.2676616 0.2239529 -0.01243754
v -0.1836049 -0.1398962 -0.01249327
v 0.2676611 -0.2239529 -0.01243772
v -0.1836049 -0.1398962 -0.01249327
v -0.2676616 -0.2239529 -0.01243769
v 0.1836043 -0.1398962 -0.01249329
v 0.2676609 0.2239529 -0.01243757
v 0.1836043 -0.1398962 -0.01249329
v 0.2676611 -0.2239529 -0.01243772
v 0.1836043 0.1398959 -0.01249328
v -0.2676616 0.2239529 -0.01243754
v 0.1836043 0.1398959 -0.01249328
v 0.2676609 0.2239529 -0.01243757
v -0.1836049 0.1398959 -0.01249326
v -0.1870144 0.1446265 -0.008463054
v 0.1870136 -0.1447349 -0.008463065
v -0.1870143 -0.1447349 -0.008463065
v 0.1870135 0.1446262 -0.008463054
vt 0.4659318 0.3121909
vt 0.4636352 0.07518244
vt 0.4636352 0.312187
vt 0.4659318 0.07517859
vt 0.4726762 0.07516712
vt 0.4726762 0.3122019
vt 0.4055361 0.3704752
vt 0.3956474 0.6337767
vt 0.4055361 0.6436653
vt 0.3956474 0.3803639
vt 0.3911997 0.6293977
vt 0.3911997 0.3847428
vt 0.3713554 0.4042816
vt 0.3713554 0.609859
vt 0.3669079 0.6054802
vt 0.3669079 0.4086605
vt 0.4209953 0.1133536
vt 0.425007 0.2740022
vt 0.425007 0.1133677
vt 0.4209953 0.2740162
vt 0.4636352 0.07518244
vt 0.4537467 0.3022986
vt 0.4636352 0.312187
vt 0.4537467 0.08507115
vt 0.4492993 0.08945015
vt 0.4492993 0.2979198
vt 0.4294547 0.1089889
vt 0.4294547 0.278381
vt 0.425007 0.2740022
vt 0.425007 0.1133677
vt 0.3538373 0.6058628
vt 0.3578491 0.409029
vt 0.3538373 0.409043
vt 0.3578491 0.6058769
vt 0.3152087 0.6440479
vt 0.3250974 0.3807465
vt 0.3152087 0.3708579
vt 0.3250974 0.6341593
vt 0.3295449 0.3851253
vt 0.3295449 0.6297804
vt 0.3493898 0.6102416
vt 0.3493898 0.4046641
vt 0.3538373 0.409043
vt 0.3538373 0.6058628
vt 0.5292348 0.2734871
vt 0.5252232 0.1128386
vt 0.5252232 0.2734731
vt 0.5292348 0.1128244
vt 0.3129123 0.370854
vt 0.3152087 0.6440479
vt 0.3152087 0.3708579
vt 0.3129125 0.6440517
vt 0.3061678 0.6440629
vt 0.3061678 0.3708428
vt 0.484299 0.07464997
vt 0.4865954 0.3116587
vt 0.4865954 0.07465382
vt 0.484299 0.3116624
vt 0.4775544 0.3116736
vt 0.4775544 0.07463877
vt 0.4078323 0.3704714
vt 0.414577 0.6436804
vt 0.414577 0.3704602
vt 0.4078323 0.6436692
vt 0.4055361 0.6436653
vt 0.4055361 0.3704752
vt 0.4865954 0.3116587
vt 0.4964838 0.08454253
vt 0.4865954 0.07465382
vt 0.4964838 0.3017699
vt 0.5009311 0.297391
vt 0.5009311 0.08892129
vt 0.5207757 0.277852
vt 0.5207757 0.1084597
vt 0.5252232 0.1128386
vt 0.5252232 0.2734731
vt 0.3669079 0.6054802
vt 0.362896 0.4086463
vt 0.362896 0.6054943
vt 0.3669079 0.4086605
vt 0.4726762 0.3122019
vt 0.4209953 0.1133536
vt 0.4726762 0.07516712
vt 0.4209953 0.2740162
vt 0.3061678 0.3708428
vt 0.3578491 0.6058769
vt 0.3061678 0.6440629
vt 0.3578491 0.409029
vt 0.4775544 0.07463877
vt 0.5292348 0.2734871
vt 0.4775544 0.3116736
vt 0.5292348 0.1128244
vt 0.414577 0.6436804
vt 0.362896 0.4086463
vt 0.414577 0.3704602
vt 0.362896 0.6054943
vt 0.6609272 0.4763976
vt 0.5369249 0.3161125
vt 0.5369251 0.4763977
vt 0.6609271 0.3161125
vn -0.9984766 -1.295811E-07 0.05517667
vn -0.8774298 -2.561209E-07 0.4797051
vn -0.8774331 -2.081953E-07 0.4796991
vn -0.9984768 -2.654182E-07 0.05517409
vn -0.9999987 -2.519185E-07 0.001660124
vn -0.9999987 0 0.001667345
vn 0 0.8774409 0.4796848
vn 0 0.05803623 0.9983145
vn 0 0.8774408 0.4796849
vn 0 0.05803613 0.9983145
vn 0 -0.1722929 0.9850459
vn 0 -0.1722926 0.9850459
vn 0 -0.1902085 0.9817437
vn -1.059113E-07 -0.1902083 0.9817438
vn 0 -0.606335 0.7952093
vn 0 -0.6063372 0.7952076
vn 0.984303 1.87545E-07 0.1764869
vn 0.6063352 0 0.7952092
vn 0.6063348 0 0.7952095
vn 0.984303 1.937809E-07 0.176487
vn -0.8774298 -2.561209E-07 0.4797051
vn -0.05803693 0 0.9983144
vn -0.8774331 -2.081953E-07 0.4796991
vn -0.05803616 0 0.9983145
vn 0.1722903 0 0.9850462
vn 0.17229 0 0.9850463
vn 0.190208 0 0.9817438
vn 0.1902081 0 0.9817438
vn 0.6063352 0 0.7952092
vn 0.6063348 0 0.7952095
vn 1.114067E-07 0.6063352 0.7952092
vn 4.022771E-07 0.984302 0.1764918
vn 2.123105E-07 0.6063339 0.7952102
vn 0 0.9843039 0.1764819
vn 0 -0.8774282 0.4797079
vn 0 -0.05803713 0.9983144
vn 0 -0.8774288 0.479707
vn 0 -0.05803724 0.9983144
vn 0 0.1722896 0.9850463
vn 0 0.1722896 0.9850464
vn 0 0.1902083 0.9817437
vn 0 0.1902091 0.9817436
vn 2.123105E-07 0.6063339 0.7952102
vn 1.114067E-07 0.6063352 0.7952092
vn -0.984303 -2.080571E-07 0.176487
vn -0.6063364 -1.678614E-07 0.7952083
vn -0.6063341 -1.68365E-07 0.7952101
vn -0.984303 -2.088198E-07 0.176487
vn 0 -0.9984761 0.05518522
vn 0 -0.8774282 0.4797079
vn 0 -0.8774288 0.479707
vn 0 -0.9984761 0.05518519
vn 0 -0.9999987 0.001673237
vn 0 -0.9999987 0.001673236
vn 0.9984766 2.514406E-07 0.05517652
vn 0.8774324 0 0.4797002
vn 0.8774272 1.645872E-07 0.4797098
vn 0.9984766 0 0.05517694
vn 0.9999987 0 0.001665736
vn 0.9999987 2.975292E-07 0.001658516
vn 0 0.9984756 0.05519358
vn 0 0.9999986 0.001720379
vn 0 0.9999986 0.001720379
vn 0 0.9984756 0.05519359
vn 0 0.8774408 0.4796849
vn 0 0.8774409 0.4796848
vn 0.8774324 0 0.4797002
vn 0.0580361 0 0.9983145
vn 0.8774272 1.645872E-07 0.4797098
vn 0.05803701 0 0.9983144
vn -0.1722903 0 0.9850462
vn -0.1722902 0 0.9850463
vn -0.190208 0 0.9817438
vn -0.1902081 0 0.9817438
vn -0.6063364 -1.678614E-07 0.7952083
vn -0.6063341 -1.68365E-07 0.7952101
vn 0 -0.606335 0.7952093
vn 0 -0.9843039 0.1764818
vn 0 -0.9843039 0.1764818
vn 0 -0.6063372 0.7952076
vn -0.0003308388 -0.0003305264 -0.9999999
vn -0.0003312367 0.0003315811 -0.9999999
vn -0.000331298 0.0003315951 -0.9999999
vn -0.0003306522 -0.0003305702 -0.9999999
vn 0.0003307222 -0.0003304275 -0.9999999
vn -0.0003306522 -0.0003305702 -0.9999999
vn -0.0003308388 -0.0003305264 -0.9999999
vn 0.000330783 -0.000330443 -0.9999999
vn 0.0003311705 0.0003314835 -0.9999999
vn 0.000330783 -0.000330443 -0.9999999
vn 0.0003307222 -0.0003304275 -0.9999999
vn 0.0003313549 0.0003314407 -0.9999999
vn -0.000331298 0.0003315951 -0.9999999
vn 0.0003313549 0.0003314407 -0.9999999
vn 0.0003311705 0.0003314835 -0.9999999
vn -0.0003312367 0.0003315811 -0.9999999
vn 0 0 1
vn 0 0 1
vn 0 0 1
vn 0 0 1
g Picture_13_Small_Framed_0
f 3/3/3 2/2/2 1/1/1
f 4/4/4 1/1/1 2/2/2
f 4/4/4 5/5/5 1/1/1
f 6/6/6 1/1/1 5/5/5
f 9/9/9 8/8/8 7/7/7
f 10/10/10 7/7/7 8/8/8
f 8/8/8 11/11/11 10/10/10
f 12/12/12 10/10/10 11/11/11
f 12/12/12 11/11/11 13/13/13
f 14/14/14 13/13/13 11/11/11
f 14/14/14 15/15/15 13/13/13
f 16/16/16 13/13/13 15/15/15
f 19/19/19 18/18/18 17/17/17
f 20/20/20 17/17/17 18/18/18
f 23/23/23 22/22/22 21/21/21
f 24/24/24 21/21/21 22/22/22
f 24/24/24 22/22/22 25/25/25
f 26/26/26 25/25/25 22/22/22
f 25/25/25 26/26/26 27/27/27
f 28/28/28 27/27/27 26/26/26
f 28/28/28 29/29/29 27/27/27
f 30/30/30 27/27/27 29/29/29
f 33/33/33 32/32/32 31/31/31
f 34/34/34 31/31/31 32/32/32
f 37/37/37 36/36/36 35/35/35
f 38/38/38 35/35/35 36/36/36
f 36/36/36 39/39/39 38/38/38
f 40/40/40 38/38/38 39/39/39
f 40/40/40 39/39/39 41/41/41
f 42/42/42 41/41/41 39/39/39
f 42/42/42 43/43/43 41/41/41
f 44/44/44 41/41/41 43/43/43
f 47/47/47 46/46/46 45/45/45
f 48/48/48 45/45/45 46/46/46
f 51/51/51 50/50/50 49/49/49
f 52/52/52 49/49/49 50/50/50
f 52/52/52 53/53/53 49/49/49
f 54/54/54 49/49/49 53/53/53
f 57/57/57 56/56/56 55/55/55
f 58/58/58 55/55/55 56/56/56
f 58/58/58 59/59/59 55/55/55
f 60/60/60 55/55/55 59/59/59
f 63/63/63 62/62/62 61/61/61
f 64/64/64 61/61/61 62/62/62
f 64/64/64 65/65/65 61/61/61
f 66/66/66 61/61/61 65/65/65
f 69/69/69 68/68/68 67/67/67
f 70/70/70 67/67/67 68/68/68
f 70/70/70 68/68/68 71/71/71
f 72/72/72 71/71/71 68/68/68
f 71/71/71 72/72/72 73/73/73
f 74/74/74 73/73/73 72/72/72
f 74/74/74 75/75/75 73/73/73
f 76/76/76 73/73/73 75/75/75
f 79/79/79 78/78/78 77/77/77
f 80/80/80 77/77/77 78/78/78
f 83/83/83 82/82/82 81/81/81
f 84/84/84 81/81/81 82/82/82
f 87/87/87 86/86/86 85/85/85
f 88/88/88 85/85/85 86/86/86
f 91/91/91 90/90/90 89/89/89
f 92/92/92 89/89/89 90/90/90
f 95/95/95 94/94/94 93/93/93
f 96/96/96 93/93/93 94/94/94
f 99/99/99 98/98/98 97/97/97
f 100/100/100 97/97/97 98/98/98
