g Picture_1_Small_Framed
v -0.1422106 0.1706618 0.0116652
v 0.15169 0.1801389 0.00775315
v 0.142213 0.1706618 0.0116652
v -0.1516876 0.1801389 0.00775315
v 0.1529423 0.1813911 -0.02246215
v -0.15294 0.1813911 -0.004713431
v -0.15294 0.1813911 -0.02246215
v 0.1529423 0.1813911 -0.004713431
v -0.1516876 0.1801389 0.00775315
v 0.15169 0.1801389 0.00775315
v -0.08305115 0.109857 0.00814774
v 0.09393226 0.1208391 0.01680283
v 0.08305336 0.109857 0.00814774
v -0.09393016 0.1208392 0.01680283
v 0.1005113 0.1276767 0.01802445
v -0.1005091 0.1276766 0.01802414
v -0.1248916 0.1531193 0.02239579
v 0.1248939 0.1531193 0.02239579
v 0.1348182 0.1632639 0.02246216
v -0.1348159 0.1632639 0.02246216
v -0.08305115 0.109857 0.00814774
v 0.08142063 0.1081908 -0.004319758
v -0.08141834 0.1081908 -0.004319758
v 0.08305336 0.109857 0.00814774
v -0.1516876 0.1801389 0.00775315
v -0.1422106 -0.1706618 0.01166518
v -0.1516876 -0.1801389 0.007753136
v -0.1422106 0.1706618 0.0116652
v -0.1348159 0.1632639 0.02246216
v -0.1348159 -0.1632639 0.02246215
v -0.1248916 -0.1531193 0.02239578
v -0.1248916 0.1531193 0.02239579
v -0.1005091 0.1276766 0.01802414
v -0.1005091 -0.1276766 0.01802413
v -0.09393016 0.1208392 0.01680283
v -0.09393016 -0.1208392 0.01680282
v -0.08305115 -0.109857 0.00814773
v -0.08305115 0.109857 0.00814774
v -0.15294 0.1813911 -0.02246215
v -0.15294 -0.1813911 -0.004713448
v -0.15294 -0.1813911 -0.02246216
v -0.15294 0.1813911 -0.004713431
v -0.1516876 -0.1801389 0.007753136
v -0.1516876 0.1801389 0.00775315
v -0.08141834 -0.1081908 -0.004319768
v -0.08305115 0.109857 0.00814774
v -0.08141834 0.1081908 -0.004319758
v -0.08305115 -0.109857 0.00814773
v -0.15294 -0.1813911 -0.02246216
v 0.1529423 -0.1813911 -0.004713448
v 0.1529423 -0.1813911 -0.02246216
v -0.15294 -0.1813911 -0.004713448
v 0.15169 -0.1801389 0.007753136
v -0.1516876 -0.1801389 0.007753136
v 0.08305336 -0.109857 0.00814773
v -0.09393016 -0.1208392 0.01680282
v -0.08305115 -0.109857 0.00814773
v 0.09393238 -0.1208392 0.01680282
v -0.1005091 -0.1276766 0.01802413
v 0.1005113 -0.1276767 0.01802413
v 0.1248939 -0.1531193 0.02239578
v -0.1248916 -0.1531193 0.02239578
v -0.1348159 -0.1632639 0.02246215
v 0.1348182 -0.1632639 0.02246215
v -0.1422106 -0.1706618 0.01166518
v 0.142213 -0.1706618 0.01166518
v -0.1516876 -0.1801389 0.007753136
v 0.15169 -0.1801389 0.007753136
v 0.08305336 -0.109857 0.00814773
v -0.08141834 -0.1081908 -0.004319768
v 0.08142063 -0.1081908 -0.004319768
v -0.08305115 -0.109857 0.00814773
v 0.1529423 -0.1813911 -0.004713448
v 0.1529423 0.1813911 -0.02246215
v 0.1529423 -0.1813911 -0.02246216
v 0.1529423 0.1813911 -0.004713431
v 0.15169 0.1801389 0.00775315
v 0.15169 -0.1801389 0.007753136
v 0.09393238 -0.1208392 0.01680282
v 0.08305336 0.109857 0.00814774
v 0.09393226 0.1208391 0.01680283
v 0.1005113 -0.1276767 0.01802413
v 0.1005113 0.1276767 0.01802445
v 0.1248939 0.1531193 0.02239579
v 0.1248939 -0.1531193 0.02239578
v 0.1348182 0.1632639 0.02246216
v 0.1348182 -0.1632639 0.02246215
v 0.142213 0.1706618 0.0116652
v 0.142213 -0.1706618 0.01166518
v 0.15169 -0.1801389 0.007753136
v 0.15169 0.1801389 0.00775315
v 0.08305336 0.109857 0.00814774
v 0.09393238 -0.1208392 0.01680282
v 0.08305336 -0.109857 0.00814773
v 0.08142063 0.1081908 -0.004319758
v 0.08142063 -0.1081908 -0.004319768
v -0.1422106 0.1706618 0.0116652
v 0.1348182 0.1632639 0.02246216
v -0.1348159 0.1632639 0.02246216
v 0.142213 0.1706618 0.0116652
v 0.08142063 0.1081908 -0.004319758
v -0.15294 0.1813911 -0.02246215
v -0.08141834 0.1081908 -0.004319758
v 0.1529423 0.1813911 -0.02246215
v 0.08142063 -0.1081908 -0.004319768
v 0.1529423 0.1813911 -0.02246215
v 0.08142063 0.1081908 -0.004319758
v 0.1529423 -0.1813911 -0.02246216
v -0.08141834 -0.1081908 -0.004319768
v 0.1529423 -0.1813911 -0.02246216
v 0.08142063 -0.1081908 -0.004319768
v -0.15294 -0.1813911 -0.02246216
v -0.08141834 0.1081908 -0.004319758
v -0.15294 -0.1813911 -0.02246216
v -0.08141834 -0.1081908 -0.004319768
v -0.15294 0.1813911 -0.02246215
v 0.08476231 0.1104116 -0.0002824354
v -0.08476032 -0.1104116 -0.000282445
v -0.08476032 0.1104115 -0.0002824354
v 0.08476231 -0.1104116 -0.000282445
vt 0.553188 0.1269682
vt 0.5553066 0.0093254
vt 0.553188 0.01144375
vt 0.5553066 0.1290869
vt 0.5654057 0.009325162
vt 0.5581323 0.1290869
vt 0.5654057 0.1290866
vt 0.5581323 0.009325162
vt 0.5553066 0.1290869
vt 0.5553066 0.0093254
vt 0.5275921 0.1053697
vt 0.53134 0.03009785
vt 0.5275921 0.03304256
vt 0.53134 0.1083142
vt 0.5339171 0.02766384
vt 0.5339171 0.1107482
vt 0.5444964 0.1207405
vt 0.5444964 0.01767148
vt 0.5470732 0.0152377
vt 0.5470732 0.1231743
vt 0.5275921 0.1053697
vt 0.525061 0.03304256
vt 0.525061 0.1053697
vt 0.5275921 0.03304256
vt 0.3173137 0.1974381
vt 0.3194318 0.05647681
vt 0.3173137 0.05435822
vt 0.3194318 0.1953195
vt 0.3255466 0.1915256
vt 0.3255466 0.06027064
vt 0.3280194 0.0628103
vt 0.3280194 0.188986
vt 0.3381706 0.1785593
vt 0.3381706 0.073237
vt 0.3406432 0.1760196
vt 0.3406432 0.07577676
vt 0.3443578 0.07876334
vt 0.3443578 0.1730329
vt 0.3072146 0.1974381
vt 0.3144882 0.05435822
vt 0.3072146 0.05435822
vt 0.3144882 0.1974381
vt 0.3173137 0.05435822
vt 0.3173137 0.1974381
vt 0.3468888 0.07876334
vt 0.3443578 0.1730329
vt 0.3468888 0.1730329
vt 0.3443578 0.07876334
vt 0.1215993 0.1333269
vt 0.128873 0.01356543
vt 0.1215993 0.01356543
vt 0.128873 0.1333269
vt 0.1316985 0.01356543
vt 0.1316985 0.1333269
vt 0.1594125 0.03728259
vt 0.1556646 0.1125542
vt 0.1594125 0.1096097
vt 0.1556646 0.03433789
vt 0.1530877 0.1149882
vt 0.1530877 0.03190411
vt 0.1425084 0.02191151
vt 0.1425084 0.1249806
vt 0.1399316 0.1274144
vt 0.1399316 0.01947773
vt 0.1338168 0.1312082
vt 0.1338168 0.01568378
vt 0.1316985 0.1333269
vt 0.1316985 0.01356543
vt 0.1594125 0.03728259
vt 0.1619436 0.1096097
vt 0.1619436 0.03728259
vt 0.1594125 0.1096097
vt 0.4093041 0.05758401
vt 0.4165775 0.2006638
vt 0.416578 0.05758401
vt 0.4093041 0.2006638
vt 0.4064786 0.2006638
vt 0.4064786 0.05758401
vt 0.3831488 0.07900251
vt 0.379434 0.1762587
vt 0.3831488 0.1792454
vt 0.3856215 0.07646291
vt 0.3856215 0.1817851
vt 0.3957728 0.1922118
vt 0.3957728 0.06603618
vt 0.3982455 0.1947514
vt 0.3982455 0.06349643
vt 0.40436 0.1985453
vt 0.40436 0.0597025
vt 0.4064786 0.05758401
vt 0.4064786 0.2006638
vt 0.379434 0.1762587
vt 0.3831488 0.07900251
vt 0.379434 0.08198912
vt 0.3769032 0.1762587
vt 0.3769032 0.08198912
vt 0.553188 0.1269682
vt 0.5470732 0.0152377
vt 0.5470732 0.1231743
vt 0.553188 0.01144375
vt 0.525061 0.03304256
vt 0.5654057 0.1290866
vt 0.525061 0.1053697
vt 0.5654057 0.009325162
vt 0.3769032 0.08198912
vt 0.4165775 0.2006638
vt 0.3769032 0.1762587
vt 0.416578 0.05758401
vt 0.1619436 0.1096097
vt 0.1215993 0.01356543
vt 0.1619436 0.03728259
vt 0.1215993 0.1333269
vt 0.3468888 0.1730329
vt 0.3072146 0.05435822
vt 0.3468888 0.07876334
vt 0.3072146 0.1974381
vt 0.9275276 0.6436753
vt 0.7945083 0.4726298
vt 0.7945079 0.6436752
vt 0.9275276 0.4726298
vn 0 0.5396585 0.8418841
vn 0 0.9049894 0.4254341
vn 0 0.5396579 0.8418843
vn 0 0.9049892 0.4254344
vn 0 1 0
vn 0 0.9988281 0.04839819
vn 0 1 0
vn 0 0.9988281 0.0483983
vn 0 0.9049892 0.4254344
vn 0 0.9049894 0.4254341
vn -2.375753E-07 -0.822435 0.5688589
vn 0 -0.3077486 0.9514677
vn 0 -0.8224372 0.5688558
vn -1.169946E-06 -0.3077209 0.9514766
vn 0 -0.1710252 0.9852667
vn -1.463312E-06 -0.1710248 0.9852667
vn -3.251945E-07 -0.04861135 0.9988177
vn 0 -0.04860837 0.9988179
vn 0 0.655636 0.7550771
vn 0 0.6556363 0.7550769
vn -2.375753E-07 -0.822435 0.5688589
vn 0 -0.9911874 0.1324675
vn 0 -0.9911874 0.1324675
vn 0 -0.8224372 0.5688558
vn -0.9049869 0 0.4254396
vn -0.5396861 0 0.8418664
vn -0.9049871 0 0.425439
vn -0.5396862 0 0.8418663
vn -0.6599523 0 0.7513075
vn -0.659952 0 0.7513077
vn 0.04857668 0 0.9988194
vn 0.04857656 0 0.9988194
vn 0.1779692 0 0.984036
vn 0.1779693 0 0.984036
vn 0.3113277 0 0.9503026
vn 0.3113279 0 0.9503026
vn 0.824065 0 0.5664953
vn 0.824065 0 0.5664954
vn -1 0 0
vn -0.9988279 0 0.04840271
vn -1 0 0
vn -0.9988279 0 0.04840275
vn -0.9049871 0 0.425439
vn -0.9049869 0 0.4254396
vn 0.9915329 0 0.129856
vn 0.824065 0 0.5664954
vn 0.9915329 0 0.129856
vn 0.824065 0 0.5664953
vn 0 -1 0
vn 0 -0.9988281 0.0483983
vn 0 -1 0
vn 0 -0.9988281 0.04839816
vn 0 -0.9049891 0.4254349
vn 0 -0.9049892 0.4254346
vn 0 0.8224351 0.5688589
vn 0 0.3077196 0.9514771
vn 0 0.8224347 0.5688596
vn 0 0.3077189 0.9514773
vn 0 0.1710235 0.9852669
vn 0 0.1710235 0.9852669
vn 0 0.04861142 0.9988177
vn 0 0.04861141 0.9988177
vn 0 -0.6556368 0.7550765
vn 0 -0.6556365 0.7550766
vn 0 -0.5396581 0.8418843
vn 0 -0.5396577 0.8418846
vn 0 -0.9049892 0.4254346
vn 0 -0.9049891 0.4254349
vn 0 0.8224351 0.5688589
vn 0 0.9911874 0.1324675
vn 0 0.9911874 0.1324675
vn 0 0.8224347 0.5688596
vn 0.9988281 0 0.04839908
vn 1 0 0
vn 1 0 0
vn 0.9988281 0 0.04839908
vn 0.9049886 0 0.425436
vn 0.9049886 0 0.4254359
vn -0.3113273 -1.079656E-07 0.9503027
vn -0.824068 -2.102909E-07 0.5664908
vn -0.3113573 -1.001477E-06 0.9502929
vn -0.1779686 0 0.9840361
vn -0.1779684 -1.239371E-06 0.9840361
vn -0.04857355 -2.946015E-07 0.9988195
vn -0.04857661 0 0.9988194
vn 0.6599509 0 0.7513089
vn 0.6599502 0 0.7513094
vn 0.5396838 0 0.8418677
vn 0.5396838 0 0.8418677
vn 0.9049886 0 0.4254359
vn 0.9049886 0 0.425436
vn -0.824068 -2.102909E-07 0.5664908
vn -0.3113273 -1.079656E-07 0.9503027
vn -0.8240663 0 0.5664935
vn -0.9915337 0 0.12985
vn -0.9915337 0 0.12985
vn 0 0.5396585 0.8418841
vn 0 0.655636 0.7550771
vn 0 0.6556363 0.7550769
vn 0 0.5396579 0.8418843
vn -0.1253974 -0.1215162 -0.9846367
vn 0.1230436 -0.1238186 -0.9846467
vn 0.1253975 -0.1215162 -0.9846367
vn -0.1230436 -0.1238185 -0.9846467
vn -0.1253974 0.1215163 -0.9846367
vn -0.1230436 -0.1238185 -0.9846467
vn -0.1253974 -0.1215162 -0.9846367
vn -0.1230436 0.1238186 -0.9846467
vn 0.1253974 0.1215163 -0.9846367
vn -0.1230436 0.1238186 -0.9846467
vn -0.1253974 0.1215163 -0.9846367
vn 0.1230436 0.1238186 -0.9846467
vn 0.1253975 -0.1215162 -0.9846367
vn 0.1230436 0.1238186 -0.9846467
vn 0.1253974 0.1215163 -0.9846367
vn 0.1230436 -0.1238186 -0.9846467
vn 0 0 1
vn 0 0 1
vn 0 0 1
vn 0 0 1
g Picture_1_Small_Framed_0
f 3/3/3 2/2/2 1/1/1
f 4/4/4 1/1/1 2/2/2
f 7/7/7 6/6/6 5/5/5
f 8/8/8 5/5/5 6/6/6
f 6/6/6 9/9/9 8/8/8
f 10/10/10 8/8/8 9/9/9
f 13/13/13 12/12/12 11/11/11
f 14/14/14 11/11/11 12/12/12
f 12/12/12 15/15/15 14/14/14
f 16/16/16 14/14/14 15/15/15
f 16/16/16 15/15/15 17/17/17
f 18/18/18 17/17/17 15/15/15
f 18/18/18 19/19/19 17/17/17
f 20/20/20 17/17/17 19/19/19
f 23/23/23 22/22/22 21/21/21
f 24/24/24 21/21/21 22/22/22
f 27/27/27 26/26/26 25/25/25
f 28/28/28 25/25/25 26/26/26
f 28/28/28 26/26/26 29/29/29
f 30/30/30 29/29/29 26/26/26
f 30/30/30 31/31/31 29/29/29
f 32/32/32 29/29/29 31/31/31
f 32/32/32 31/31/31 33/33/33
f 34/34/34 33/33/33 31/31/31
f 33/33/33 34/34/34 35/35/35
f 36/36/36 35/35/35 34/34/34
f 36/36/36 37/37/37 35/35/35
f 38/38/38 35/35/35 37/37/37
f 41/41/41 40/40/40 39/39/39
f 42/42/42 39/39/39 40/40/40
f 40/40/40 43/43/43 42/42/42
f 44/44/44 42/42/42 43/43/43
f 47/47/47 46/46/46 45/45/45
f 48/48/48 45/45/45 46/46/46
f 51/51/51 50/50/50 49/49/49
f 52/52/52 49/49/49 50/50/50
f 50/50/50 53/53/53 52/52/52
f 54/54/54 52/52/52 53/53/53
f 57/57/57 56/56/56 55/55/55
f 58/58/58 55/55/55 56/56/56
f 56/56/56 59/59/59 58/58/58
f 60/60/60 58/58/58 59/59/59
f 60/60/60 59/59/59 61/61/61
f 62/62/62 61/61/61 59/59/59
f 62/62/62 63/63/63 61/61/61
f 64/64/64 61/61/61 63/63/63
f 63/63/63 65/65/65 64/64/64
f 66/66/66 64/64/64 65/65/65
f 65/65/65 67/67/67 66/66/66
f 68/68/68 66/66/66 67/67/67
f 71/71/71 70/70/70 69/69/69
f 72/72/72 69/69/69 70/70/70
f 75/75/75 74/74/74 73/73/73
f 76/76/76 73/73/73 74/74/74
f 76/76/76 77/77/77 73/73/73
f 78/78/78 73/73/73 77/77/77
f 81/81/81 80/80/80 79/79/79
f 79/79/79 82/82/82 81/81/81
f 83/83/83 81/81/81 82/82/82
f 83/83/83 82/82/82 84/84/84
f 85/85/85 84/84/84 82/82/82
f 84/84/84 85/85/85 86/86/86
f 87/87/87 86/86/86 85/85/85
f 86/86/86 87/87/87 88/88/88
f 89/89/89 88/88/88 87/87/87
f 89/89/89 90/90/90 88/88/88
f 91/91/91 88/88/88 90/90/90
f 94/94/94 93/93/93 92/92/92
f 92/92/92 95/95/95 94/94/94
f 96/96/96 94/94/94 95/95/95
f 99/99/99 98/98/98 97/97/97
f 100/100/100 97/97/97 98/98/98
f 103/103/103 102/102/102 101/101/101
f 104/104/104 101/101/101 102/102/102
f 107/107/107 106/106/106 105/105/105
f 108/108/108 105/105/105 106/106/106
f 111/111/111 110/110/110 109/109/109
f 112/112/112 109/109/109 110/110/110
f 115/115/115 114/114/114 113/113/113
f 116/116/116 113/113/113 114/114/114
f 119/119/119 118/118/118 117/117/117
f 120/120/120 117/117/117 118/118/118
