g Picture_6_Small
v 0.08397461 0.004607248 -0.09795969
v -0.08188415 0.01174801 -0.1023393
v 0.08436462 0.008437819 -0.103855
v -0.08369034 0.004663086 -0.06422288
v 0.08332229 0.0009963089 -0.07361732
v -0.08435348 0.0009990728 -0.02819946
v 0.0833078 0.0009992796 0.04391272
v -0.08436203 0.0009994257 0.03040121
v -0.08416428 0.00393902 0.07067124
v 0.08349075 0.003915139 0.08380046
v -0.08366592 0.01052273 0.1041864
v 0.08414078 0.01265287 0.1019685
v -0.08192123 0.01076777 -0.1025336
v 0.08394745 0.003673326 -0.09831613
v 0.08434249 0.007598464 -0.1043981
v -0.08372223 0.003673329 -0.06436204
v 0.08330475 1.490116E-08 -0.07370155
v -0.08436477 2.026558E-08 -0.02824146
v 0.08330475 2.920627E-08 0.04395131
v -0.08436477 2.741814E-08 0.03043574
v -0.0841745 0.002947533 0.07080103
v 0.08349502 0.002947532 0.08405288
v -0.08367874 0.009545481 0.1043981
v 0.08415787 0.01175118 0.1024005
v 0.08394745 0.003673326 -0.09831613
v 0.08436462 0.008437819 -0.103855
v 0.08434249 0.007598464 -0.1043981
v 0.08397461 0.004607248 -0.09795969
v 0.08330475 1.490116E-08 -0.07370155
v 0.08332229 0.0009963089 -0.07361732
v 0.08330475 2.920627E-08 0.04395131
v 0.0833078 0.0009992796 0.04391272
v 0.08349502 0.002947532 0.08405288
v 0.08349075 0.003915139 0.08380046
v 0.08415787 0.01175118 0.1024005
v 0.08414078 0.01265287 0.1019685
v -0.08188415 0.01174801 -0.1023393
v 0.08434249 0.007598464 -0.1043981
v 0.08436462 0.008437819 -0.103855
v -0.08192123 0.01076777 -0.1025336
v -0.08369034 0.004663086 -0.06422288
v -0.08192123 0.01076777 -0.1025336
v -0.08188415 0.01174801 -0.1023393
v -0.08372223 0.003673329 -0.06436204
v -0.08435348 0.0009990728 -0.02819946
v -0.08436477 2.026558E-08 -0.02824146
v -0.08436203 0.0009994257 0.03040121
v -0.08436477 2.741814E-08 0.03043574
v -0.08416428 0.00393902 0.07067124
v -0.0841745 0.002947533 0.07080103
v -0.08366592 0.01052273 0.1041864
v -0.08367874 0.009545481 0.1043981
v 0.08414078 0.01265287 0.1019685
v -0.08367874 0.009545481 0.1043981
v -0.08366592 0.01052273 0.1041864
v 0.08415787 0.01175118 0.1024005
vt 0.8089132 0.2822927
vt 0.6758934 0.2897469
vt 0.8089132 0.2897468
vt 0.6758934 0.2560891
vt 0.8089132 0.2620214
vt 0.6758933 0.2269382
vt 0.8089129 0.171224
vt 0.6758933 0.1816546
vt 0.6758932 0.1491605
vt 0.8089128 0.1389334
vt 0.6758932 0.1187016
vt 0.8089128 0.1187014
vt 0.6042324 0.03047121
vt 0.653384 0.03208849
vt 0.6534712 0.03005882
vt 0.6036978 0.04194728
vt 0.6531825 0.03945465
vt 0.6034741 0.0526961
vt 0.6530284 0.07429312
vt 0.6033971 0.07007135
vt 0.6034001 0.08205644
vt 0.6530273 0.08619987
vt 0.6034749 0.09215102
vt 0.6531726 0.09215102
vt 0.8089132 0.2822927
vt 0.8089132 0.2897468
vt 0.8089132 0.2897468
vt 0.8089132 0.2822927
vt 0.8089132 0.2620214
vt 0.8089132 0.2620214
vt 0.8089129 0.171224
vt 0.8089129 0.171224
vt 0.8089128 0.1389334
vt 0.8089128 0.1389334
vt 0.8089128 0.1187014
vt 0.8089128 0.1187014
vt 0.6758934 0.2897469
vt 0.8089132 0.2897468
vt 0.8089132 0.2897468
vt 0.6758934 0.2897469
vt 0.6758934 0.2560891
vt 0.6758934 0.2897469
vt 0.6758934 0.2897469
vt 0.6758934 0.2560891
vt 0.6758933 0.2269382
vt 0.6758933 0.2269382
vt 0.6758933 0.1816546
vt 0.6758933 0.1816546
vt 0.6758932 0.1491605
vt 0.6758932 0.1491605
vt 0.6758932 0.1187016
vt 0.6758932 0.1187016
vt 0.8089128 0.1187014
vt 0.6758932 0.1187016
vt 0.6758932 0.1187016
vt 0.8089128 0.1187014
vn 0.02696425 0.9335166 0.357519
vn 0.03707825 0.9802767 0.1941206
vn 0.02165448 0.8376803 0.5457314
vn 0.03189958 0.9897568 0.1391545
vn 0.01750823 0.9963298 0.08378683
vn 0.011386 0.9990531 0.04199317
vn 0.003087306 0.9992574 -0.03840734
vn 0.002782784 0.9994001 -0.03452189
vn 0.01031713 0.9914863 -0.1298014
vn -0.004343147 0.9675668 -0.2525778
vn 0.0128169 0.9772592 -0.2116606
vn -0.01716222 0.9012992 -0.4328571
vn -0.03698639 -0.9802464 -0.1942914
vn -0.02718332 -0.9339231 -0.3564392
vn -0.02209051 -0.8393564 -0.5431325
vn -0.0318596 -0.9897568 -0.1391641
vn -0.01751993 -0.9962928 -0.08422387
vn -0.01138554 -0.9990531 -0.04199292
vn -0.003058075 -0.9992507 0.03858177
vn -0.002783367 -0.9993998 0.03452963
vn -0.01031017 -0.9914874 0.1297935
vn 0.004292111 -0.9676079 0.2524213
vn -0.01280496 -0.9772497 0.2117053
vn 0.01699212 -0.9016939 0.4320408
vn 0.9987611 -0.04043292 0.02900848
vn 0.9982765 -0.04775892 0.0341063
vn 0.998269 -0.04816023 0.03376054
vn 0.9987727 -0.03998971 0.02922217
vn 0.9997506 -0.01885306 0.01197442
vn 0.9997571 -0.01857375 0.01186196
vn 0.9999926 -0.003178942 -0.002195285
vn 0.9999928 -0.003089921 -0.002191426
vn 0.9998128 -0.0006887406 -0.01934028
vn 0.9998102 -0.0005733659 -0.01947556
vn 0.999337 0.001286736 -0.03638454
vn 0.9993339 0.001469971 -0.03646163
vn -0.007250585 0.1960574 -0.9805657
vn 0.003122405 0.5420242 -0.8403571
vn 0.003161404 0.5432071 -0.8395928
vn -0.007288222 0.1946852 -0.9808387
vn -0.9989685 0.03611945 -0.02751821
vn -0.9982153 0.04533291 -0.03887172
vn -0.9982104 0.04545901 -0.0388514
vn -0.9989793 0.03584903 -0.02748079
vn -0.9998947 0.0118436 -0.008386204
vn -0.9998982 0.01160231 -0.008307723
vn -0.9999931 0.002874836 0.002351101
vn -0.9999931 0.002892979 0.002339922
vn -0.9999019 0.01132763 0.008236375
vn -0.9999012 0.01142093 0.008204098
vn -0.9998103 0.01557604 0.01169636
vn -0.9998094 0.01564378 0.01168098
vn 0.00507329 0.4313873 0.9021526
vn 0.01021239 0.2124559 0.9771174
vn 0.01023126 0.2115843 0.9773062
vn 0.005053189 0.4321772 0.9017745
g Picture_6_Small_0
f 3/3/3 2/2/2 1/1/1
f 4/4/4 1/1/1 2/2/2
f 1/1/1 4/4/4 5/5/5
f 6/6/6 5/5/5 4/4/4
f 5/5/5 6/6/6 7/7/7
f 8/8/8 7/7/7 6/6/6
f 8/8/8 9/9/9 7/7/7
f 10/10/10 7/7/7 9/9/9
f 9/9/9 11/11/11 10/10/10
f 12/12/12 10/10/10 11/11/11
f 15/15/15 14/14/14 13/13/13
f 16/16/16 13/13/13 14/14/14
f 14/14/14 17/17/17 16/16/16
f 18/18/18 16/16/16 17/17/17
f 17/17/17 19/19/19 18/18/18
f 20/20/20 18/18/18 19/19/19
f 20/20/20 19/19/19 21/21/21
f 22/22/22 21/21/21 19/19/19
f 21/21/21 22/22/22 23/23/23
f 24/24/24 23/23/23 22/22/22
f 27/27/27 26/26/26 25/25/25
f 28/28/28 25/25/25 26/26/26
f 25/25/25 28/28/28 29/29/29
f 30/30/30 29/29/29 28/28/28
f 29/29/29 30/30/30 31/31/31
f 32/32/32 31/31/31 30/30/30
f 31/31/31 32/32/32 33/33/33
f 34/34/34 33/33/33 32/32/32
f 33/33/33 34/34/34 35/35/35
f 36/36/36 35/35/35 34/34/34
f 39/39/39 38/38/38 37/37/37
f 40/40/40 37/37/37 38/38/38
f 43/43/43 42/42/42 41/41/41
f 44/44/44 41/41/41 42/42/42
f 41/41/41 44/44/44 45/45/45
f 46/46/46 45/45/45 44/44/44
f 45/45/45 46/46/46 47/47/47
f 48/48/48 47/47/47 46/46/46
f 47/47/47 48/48/48 49/49/49
f 50/50/50 49/49/49 48/48/48
f 49/49/49 50/50/50 51/51/51
f 52/52/52 51/51/51 50/50/50
f 55/55/55 54/54/54 53/53/53
f 56/56/56 53/53/53 54/54/54
