g Picture_3_Large_Framed
v 0.3529428 0.4762798 -0.02242954
v -0.3529427 0.4762798 -0.00468098
v -0.3529427 0.4762798 -0.02242954
v 0.3529428 0.4762798 -0.00468098
v -0.3518013 0.4751383 0.007557046
v 0.3518014 0.4751383 0.007557046
v -0.2923436 0.4102673 0.01686602
v 0.2992266 0.4180559 0.01807872
v 0.2923437 0.4102673 0.01686602
v -0.2992266 0.4180559 0.01807872
v -0.3246012 0.4471268 0.02242961
v 0.3246013 0.4471268 0.02242961
v 0.3350066 0.4583338 0.02235504
v -0.3350064 0.4583338 0.02235504
v 0.3413512 0.464688 0.01232675
v -0.341351 0.464688 0.01232675
v -0.3518013 0.4751383 0.007557046
v 0.3518014 0.4751383 0.007557046
v 0.2923437 0.4102673 0.01686602
v -0.2809564 0.3987689 0.008351929
v -0.2923436 0.4102673 0.01686602
v 0.2809566 0.3987689 0.00835191
v 0.2792007 0.3970122 -0.004287201
v -0.2792006 0.3970122 -0.004287201
v -0.341351 0.464688 0.01232675
v -0.3518013 -0.4751383 0.007556984
v -0.3518013 0.4751383 0.007557046
v -0.341351 -0.4646879 0.01232668
v -0.3350064 0.4583338 0.02235504
v -0.3350064 -0.4583337 0.02235497
v -0.3246012 -0.4471268 0.02242955
v -0.3246012 0.4471268 0.02242961
v -0.2992266 0.4180559 0.01807872
v -0.2992265 -0.4180558 0.01807864
v -0.2923436 0.4102673 0.01686602
v -0.2923436 -0.4102672 0.01686594
v -0.2809564 0.3987689 0.008351929
v -0.2809564 -0.3987688 0.008351876
v -0.3529427 0.4762798 -0.02242954
v -0.3529427 -0.4762797 -0.004681049
v -0.3529427 -0.4762797 -0.02242962
v -0.3529427 0.4762798 -0.00468098
v -0.3518013 -0.4751383 0.007556984
v -0.3518013 0.4751383 0.007557046
v -0.2809564 -0.3987688 0.008351876
v -0.2792006 0.3970122 -0.004287201
v -0.2792006 -0.3970121 -0.004287265
v -0.2809564 0.3987689 0.008351929
v -0.3529427 -0.4762797 -0.02242962
v 0.3529428 -0.4762797 -0.004681049
v 0.3529428 -0.4762797 -0.02242962
v -0.3529427 -0.4762797 -0.004681049
v 0.3518014 -0.4751383 0.007556984
v -0.3518013 -0.4751383 0.007556984
v 0.2923437 -0.4102672 0.01686594
v -0.2809564 -0.3987688 0.008351876
v 0.2809566 -0.3987688 0.008351867
v -0.2792006 -0.3970121 -0.004287265
v 0.2792007 -0.3970121 -0.004287265
v -0.2809564 -0.3987688 0.008351876
v 0.2923437 -0.4102672 0.01686594
v -0.2923436 -0.4102672 0.01686594
v -0.2992265 -0.4180558 0.01807864
v 0.2992266 -0.4180558 0.01807864
v 0.3246013 -0.4471268 0.02242955
v -0.3246012 -0.4471268 0.02242955
v -0.3350064 -0.4583337 0.02235497
v 0.3350066 -0.4583337 0.02235497
v 0.3413512 -0.4646879 0.01232668
v -0.341351 -0.4646879 0.01232668
v 0.3518014 -0.4751383 0.007556984
v -0.3518013 -0.4751383 0.007556984
v 0.3529428 -0.4762797 -0.004681049
v 0.3529428 0.4762798 -0.02242954
v 0.3529428 -0.4762797 -0.02242962
v 0.3529428 0.4762798 -0.00468098
v 0.3518014 0.4751383 0.007557046
v 0.3518014 -0.4751383 0.007556984
v 0.2809566 0.3987689 0.00835191
v 0.2923437 -0.4102672 0.01686594
v 0.2809566 -0.3987688 0.008351867
v 0.2923437 0.4102673 0.01686602
v 0.2992266 -0.4180558 0.01807864
v 0.2992266 0.4180559 0.01807872
v 0.3246013 0.4471268 0.02242961
v 0.3246013 -0.4471268 0.02242955
v 0.3350066 0.4583338 0.02235504
v 0.3350066 -0.4583337 0.02235497
v 0.3413512 -0.4646879 0.01232668
v 0.3413512 0.464688 0.01232675
v 0.3518014 0.4751383 0.007557046
v 0.3518014 -0.4751383 0.007556984
v 0.2809566 -0.3987688 0.008351867
v 0.2792007 0.3970122 -0.004287201
v 0.2809566 0.3987689 0.00835191
v 0.2792007 -0.3970121 -0.004287265
v 0.2792007 0.3970122 -0.004287201
v -0.3529427 0.4762798 -0.02242954
v -0.2792006 0.3970122 -0.004287201
v 0.3529428 0.4762798 -0.02242954
v 0.2792007 -0.3970121 -0.004287265
v 0.3529428 0.4762798 -0.02242954
v 0.2792007 0.3970122 -0.004287201
v 0.3529428 -0.4762797 -0.02242962
v -0.2792006 -0.3970121 -0.004287265
v 0.3529428 -0.4762797 -0.02242962
v 0.2792007 -0.3970121 -0.004287265
v -0.3529427 -0.4762797 -0.02242962
v -0.2792006 0.3970122 -0.004287201
v -0.3529427 -0.4762797 -0.02242962
v -0.2792006 -0.3970121 -0.004287265
v -0.3529427 0.4762798 -0.02242954
v 0.2827037 0.4015272 -0.001026245
v -0.2827038 -0.4003494 -0.001026386
v -0.2827036 0.4015272 -0.001026245
v 0.2827037 -0.4003494 -0.001026386
vt 0.9779328 0.08662114
vt 0.970659 0.3703093
vt 0.9779328 0.3703093
vt 0.970659 0.08662114
vt 0.9678335 0.3703096
vt 0.9678335 0.08662114
vt 0.9416183 0.3488599
vt 0.9445946 0.105502
vt 0.9416183 0.1080713
vt 0.9445946 0.3514292
vt 0.9566407 0.3618278
vt 0.956641 0.095103
vt 0.9596169 0.09253369
vt 0.9596169 0.3643973
vt 0.9651288 0.08930633
vt 0.9651288 0.3676245
vt 0.9678335 0.3703096
vt 0.9678335 0.08662114
vt 0.9416183 0.1080713
vt 0.9377161 0.3456827
vt 0.9416183 0.3488599
vt 0.9377161 0.1112485
vt 0.935185 0.1112485
vt 0.935185 0.3456825
vt 0.2299945 0.6415702
vt 0.2272895 0.2594762
vt 0.2272895 0.6442554
vt 0.2299945 0.2621614
vt 0.2355064 0.6383428
vt 0.2355064 0.2653888
vt 0.2381129 0.2683323
vt 0.2381129 0.6353993
vt 0.2486634 0.6234855
vt 0.2486634 0.2802463
vt 0.2512701 0.620542
vt 0.2512698 0.2831896
vt 0.2551715 0.6173639
vt 0.2551715 0.286368
vt 0.2171905 0.6442554
vt 0.224464 0.2594762
vt 0.2171903 0.2594762
vt 0.2244642 0.6442554
vt 0.2272895 0.2594762
vt 0.2272895 0.6442554
vt 0.2551715 0.286368
vt 0.2577024 0.6173639
vt 0.2577024 0.286368
vt 0.2551715 0.6173639
vt 0.8872568 0.2913924
vt 0.8945302 0.007703975
vt 0.8872568 0.007703975
vt 0.8945302 0.2913924
vt 0.8973555 0.007703975
vt 0.8973555 0.2913924
vt 0.92357 0.0291539
vt 0.9274722 0.2667652
vt 0.9274722 0.03233095
vt 0.9300031 0.2667652
vt 0.9300031 0.03233095
vt 0.9274722 0.2667652
vt 0.92357 0.0291539
vt 0.9235697 0.2699425
vt 0.9205937 0.2725117
vt 0.9205937 0.02658446
vt 0.9085476 0.01618584
vt 0.9085476 0.2829106
vt 0.9055716 0.28548
vt 0.9055716 0.01361641
vt 0.9000599 0.01038916
vt 0.9000599 0.2887072
vt 0.8973555 0.007703975
vt 0.8973555 0.2913924
vt 0.2947292 0.2593325
vt 0.3020027 0.6441117
vt 0.3020027 0.2593325
vt 0.2947292 0.6441117
vt 0.2919037 0.6441117
vt 0.2919037 0.2593325
vt 0.2640228 0.6172202
vt 0.2679243 0.2830459
vt 0.2640228 0.2862243
vt 0.2679243 0.6203983
vt 0.2705306 0.2801026
vt 0.2705306 0.6233419
vt 0.2810811 0.6352558
vt 0.2810811 0.2681887
vt 0.2836873 0.6381994
vt 0.2836873 0.2652451
vt 0.289199 0.2620177
vt 0.289199 0.6414265
vt 0.2919037 0.6441117
vt 0.2919037 0.2593325
vt 0.2640228 0.2862243
vt 0.2614921 0.6172202
vt 0.2640228 0.6172202
vt 0.2614921 0.2862243
vt 0.935185 0.1112485
vt 0.9779328 0.3703093
vt 0.935185 0.3456825
vt 0.9779328 0.08662114
vt 0.2614921 0.2862243
vt 0.3020027 0.6441117
vt 0.2614921 0.6172202
vt 0.3020027 0.2593325
vt 0.9300031 0.2667652
vt 0.8872568 0.007703975
vt 0.9300031 0.03233095
vt 0.8872568 0.2913924
vt 0.2577024 0.6173639
vt 0.2171903 0.2594762
vt 0.2577024 0.286368
vt 0.2171905 0.6442554
vt 0.7447667 0.9972547
vt 0.4992681 0.650666
vt 0.4992681 0.9972547
vt 0.7447667 0.650666
vn 0 1 0
vn 0 0.9989837 0.04507171
vn 0 1 0
vn 0 0.9989837 0.04507164
vn 0 0.9100275 0.4145479
vn 0 0.9100272 0.4145484
vn 0 -0.2849199 0.9585513
vn 0 -0.1496031 0.9887461
vn 0 -0.2849204 0.9585512
vn 0 -0.1496031 0.9887461
vn 0 -0.03522286 0.9993795
vn 0 -0.03522275 0.9993795
vn 0 0.671853 0.7406846
vn 0 0.6718526 0.7406848
vn 0 0.5726403 0.8198068
vn 0 0.5726396 0.8198072
vn 0 0.9100275 0.4145479
vn 0 0.9100272 0.4145484
vn 0 -0.2849204 0.9585512
vn 0 -0.809253 0.5874601
vn 0 -0.2849199 0.9585513
vn 0 -0.8092536 0.5874594
vn 0 -0.9904788 0.1376663
vn 0 -0.9904788 0.1376662
vn -0.5727328 0 0.8197422
vn -0.9100295 0 0.4145436
vn -0.9100294 0 0.4145437
vn -0.5727323 0 0.8197424
vn -0.6866448 0 0.7269931
vn -0.6866442 0 0.7269936
vn 0.03387806 0 0.999426
vn 0.03387767 0 0.999426
vn 0.1700494 0 0.9854355
vn 0.1700498 0 0.9854354
vn 0.2945805 0 0.9556266
vn 0.2945796 0 0.955627
vn 0.8105769 0 0.5856321
vn 0.8105766 0 0.5856327
vn -1 0 0
vn -0.9989838 0 0.04507018
vn -1 0 0
vn -0.9989838 0 0.04507007
vn -0.9100295 0 0.4145436
vn -0.9100294 0 0.4145437
vn 0.8105766 0 0.5856327
vn 0.9904873 0 0.1376045
vn 0.9904873 0 0.1376044
vn 0.8105769 0 0.5856321
vn 0 -1 0
vn 0 -0.9989838 0.04507015
vn 0 -1 0
vn 0 -0.9989838 0.04507016
vn 0 -0.9100272 0.4145485
vn 0 -0.9100279 0.4145471
vn 0 0.2849194 0.9585515
vn 0 0.8092527 0.5874606
vn 0 0.8092529 0.5874606
vn 0 0.9904788 0.137666
vn 0 0.9904788 0.1376661
vn 0 0.8092527 0.5874606
vn 0 0.2849194 0.9585515
vn 0 0.2849192 0.9585515
vn 0 0.1496031 0.9887461
vn 0 0.1496031 0.9887461
vn 0 0.03522279 0.9993795
vn 0 0.03522287 0.9993795
vn 0 -0.6718534 0.7406842
vn 0 -0.6718537 0.7406839
vn 0 -0.5726386 0.8198079
vn 0 -0.5726377 0.8198085
vn 0 -0.9100272 0.4145485
vn 0 -0.9100279 0.4145471
vn 0.9989837 0 0.04507162
vn 1 0 0
vn 1 0 0
vn 0.9989837 0 0.04507164
vn 0.9100294 0 0.4145438
vn 0.9100298 0 0.4145429
vn -0.8105778 0 0.585631
vn -0.2945801 0 0.9556268
vn -0.8105773 0 0.5856315
vn -0.2945816 0 0.9556263
vn -0.1700496 0 0.9854354
vn -0.1700491 -1.011595E-07 0.9854355
vn -0.03387763 0 0.999426
vn -0.03387801 0 0.999426
vn 0.6866456 0 0.7269922
vn 0.6866451 0 0.7269928
vn 0.5727352 0 0.8197405
vn 0.5727355 0 0.8197402
vn 0.9100294 0 0.4145438
vn 0.9100298 0 0.4145429
vn -0.8105773 0 0.5856315
vn -0.9904873 0 0.1376047
vn -0.8105778 0 0.585631
vn -0.9904873 0 0.1376045
vn -0.1228934 -0.1113777 -0.9861502
vn 0.1157537 -0.11804 -0.9862391
vn 0.1228933 -0.1113777 -0.9861502
vn -0.1157537 -0.1180401 -0.9862391
vn -0.1228934 0.1113779 -0.9861502
vn -0.1157537 -0.1180401 -0.9862391
vn -0.1228934 -0.1113777 -0.9861502
vn -0.1157537 0.1180402 -0.9862391
vn 0.1228934 0.1113779 -0.9861502
vn -0.1157537 0.1180402 -0.9862391
vn -0.1228934 0.1113779 -0.9861502
vn 0.1157537 0.1180402 -0.9862391
vn 0.1228933 -0.1113777 -0.9861502
vn 0.1157537 0.1180402 -0.9862391
vn 0.1228934 0.1113779 -0.9861502
vn 0.1157537 -0.11804 -0.9862391
vn 0 -1.754222E-07 1
vn 0 -1.754222E-07 1
vn 0 -1.754222E-07 1
vn 0 -1.754222E-07 1
g Picture_3_Large_Framed_0
f 3/3/3 2/2/2 1/1/1
f 4/4/4 1/1/1 2/2/2
f 2/2/2 5/5/5 4/4/4
f 6/6/6 4/4/4 5/5/5
f 9/9/9 8/8/8 7/7/7
f 10/10/10 7/7/7 8/8/8
f 10/10/10 8/8/8 11/11/11
f 12/12/12 11/11/11 8/8/8
f 12/12/12 13/13/13 11/11/11
f 14/14/14 11/11/11 13/13/13
f 13/13/13 15/15/15 14/14/14
f 16/16/16 14/14/14 15/15/15
f 16/16/16 15/15/15 17/17/17
f 18/18/18 17/17/17 15/15/15
f 21/21/21 20/20/20 19/19/19
f 22/22/22 19/19/19 20/20/20
f 22/22/22 20/20/20 23/23/23
f 24/24/24 23/23/23 20/20/20
f 27/27/27 26/26/26 25/25/25
f 28/28/28 25/25/25 26/26/26
f 25/25/25 28/28/28 29/29/29
f 30/30/30 29/29/29 28/28/28
f 30/30/30 31/31/31 29/29/29
f 32/32/32 29/29/29 31/31/31
f 32/32/32 31/31/31 33/33/33
f 34/34/34 33/33/33 31/31/31
f 33/33/33 34/34/34 35/35/35
f 36/36/36 35/35/35 34/34/34
f 35/35/35 36/36/36 37/37/37
f 38/38/38 37/37/37 36/36/36
f 41/41/41 40/40/40 39/39/39
f 42/42/42 39/39/39 40/40/40
f 40/40/40 43/43/43 42/42/42
f 44/44/44 42/42/42 43/43/43
f 47/47/47 46/46/46 45/45/45
f 48/48/48 45/45/45 46/46/46
f 51/51/51 50/50/50 49/49/49
f 52/52/52 49/49/49 50/50/50
f 50/50/50 53/53/53 52/52/52
f 54/54/54 52/52/52 53/53/53
f 57/57/57 56/56/56 55/55/55
f 56/56/56 57/57/57 58/58/58
f 59/59/59 58/58/58 57/57/57
f 62/62/62 61/61/61 60/60/60
f 62/62/62 63/63/63 61/61/61
f 64/64/64 61/61/61 63/63/63
f 64/64/64 63/63/63 65/65/65
f 66/66/66 65/65/65 63/63/63
f 66/66/66 67/67/67 65/65/65
f 68/68/68 65/65/65 67/67/67
f 68/68/68 67/67/67 69/69/69
f 70/70/70 69/69/69 67/67/67
f 69/69/69 70/70/70 71/71/71
f 72/72/72 71/71/71 70/70/70
f 75/75/75 74/74/74 73/73/73
f 76/76/76 73/73/73 74/74/74
f 76/76/76 77/77/77 73/73/73
f 78/78/78 73/73/73 77/77/77
f 81/81/81 80/80/80 79/79/79
f 82/82/82 79/79/79 80/80/80
f 80/80/80 83/83/83 82/82/82
f 84/84/84 82/82/82 83/83/83
f 84/84/84 83/83/83 85/85/85
f 86/86/86 85/85/85 83/83/83
f 85/85/85 86/86/86 87/87/87
f 88/88/88 87/87/87 86/86/86
f 88/88/88 89/89/89 87/87/87
f 90/90/90 87/87/87 89/89/89
f 90/90/90 89/89/89 91/91/91
f 92/92/92 91/91/91 89/89/89
f 95/95/95 94/94/94 93/93/93
f 96/96/96 93/93/93 94/94/94
f 99/99/99 98/98/98 97/97/97
f 100/100/100 97/97/97 98/98/98
f 103/103/103 102/102/102 101/101/101
f 104/104/104 101/101/101 102/102/102
f 107/107/107 106/106/106 105/105/105
f 108/108/108 105/105/105 106/106/106
f 111/111/111 110/110/110 109/109/109
f 112/112/112 109/109/109 110/110/110
f 115/115/115 114/114/114 113/113/113
f 116/116/116 113/113/113 114/114/114
