g Plane038
v 8.559531 -1.752313 4.153972
v 1.754581 -1.752316 0
v 1.754584 1.752319 0
v 8.561805 1.752321 4.153972
v 12.0687 -1.752319 4.153972
v 12.0687 1.752316 4.153972
v 12.06871 8.580936 8.307947
v 8.561049 8.579767 8.307947
v 8.55954 12.08467 8.307947
v 12.0687 12.08729 8.307947
v 1.75459 12.08205 12.49309
v 1.754587 8.577423 12.49309
v -1.754576 12.08206 12.49309
v -1.754578 8.577429 12.49309
v 1.754584 -1.752322 12.49309
v -1.75458 -1.752315 12.49309
v 1.910883 1.752292 -0.2560678
v 1.91089 -1.752316 -0.2560617
v 8.640731 -1.752351 3.86517
v 8.617468 1.80785 3.864459
v 12.0687 -1.752319 3.853972
v 12.0687 1.833276 3.865103
v 12.06869 8.661889 8.019075
v 8.505009 8.635345 8.018516
v 8.477882 12.08464 8.019274
v 12.0687 12.08729 8.007947
v 1.672928 12.08204 12.20442
v 1.700401 8.577423 12.19802
v -1.754576 12.08206 12.19309
v -1.754578 8.577429 12.19309
v 1.754584 -1.752322 12.19309
v -1.75458 -1.752315 12.19309
v 1.754584 1.752319 0
v 1.910883 1.752292 -0.2560678
v 8.617468 1.80785 3.864459
v 8.561805 1.752321 4.153972
v 1.754581 -1.752316 0
v 1.91089 -1.752316 -0.2560617
v 1.910883 1.752292 -0.2560678
v 1.754584 1.752319 0
v 8.559531 -1.752313 4.153972
v 1.91089 -1.752316 -0.2560617
v 1.754581 -1.752316 0
v 8.640731 -1.752351 3.86517
v 12.0687 -1.752319 4.153972
v 12.0687 -1.752319 3.853972
v 12.0687 1.752316 4.153972
v 12.0687 -1.752319 3.853972
v 12.0687 -1.752319 4.153972
v 12.0687 1.833276 3.865103
v 12.06871 8.580936 8.307947
v 12.06869 8.661889 8.019075
v 12.0687 12.08729 8.307947
v 12.0687 12.08729 8.007947
v 8.561805 1.752321 4.153972
v 8.617468 1.80785 3.864459
v 8.505009 8.635345 8.018516
v 8.561049 8.579767 8.307947
v 8.55954 12.08467 8.307947
v 12.0687 12.08729 8.007947
v 12.0687 12.08729 8.307947
v 8.477882 12.08464 8.019274
v 1.75459 12.08205 12.49309
v 1.672928 12.08204 12.20442
v -1.754576 12.08206 12.49309
v -1.754576 12.08206 12.19309
v 8.561049 8.579767 8.307947
v 8.505009 8.635345 8.018516
v 1.700401 8.577423 12.19802
v 1.754587 8.577423 12.49309
v -1.754578 8.577429 12.49309
v -1.754576 12.08206 12.19309
v -1.754576 12.08206 12.49309
v -1.754578 8.577429 12.19309
v -1.75458 -1.752315 12.49309
v -1.75458 -1.752315 12.19309
v 1.754584 -1.752322 12.49309
v 1.754584 -1.752322 12.19309
v -1.75458 -1.752315 12.19309
v -1.75458 -1.752315 12.49309
v 1.754587 8.577423 12.49309
v 1.700401 8.577423 12.19802
v 1.754584 -1.752322 12.19309
v 1.754584 -1.752322 12.49309
vt -2.980289 0.9796772
vt -2.980289 2.957799
vt -1.961532 2.957797
vt -1.961532 0.9790162
vt -2.98029 -0.04039764
vt -1.961533 -0.04039928
vt 0.02347001 -0.04040036
vt 0.02313001 0.9792353
vt 1.041967 0.9796745
vt 1.042727 -0.04039928
vt 1.041205 2.957796
vt 0.0224484 2.957797
vt 1.041207 3.977871
vt 0.02245003 3.977871
vt -2.980291 2.957797
vt -2.980289 3.977871
vt 0.02397606 -1.357599
vt 1.042726 -1.357601
vt 1.042736 -3.313889
vt 0.007825918 -3.307127
vt 1.042727 -4.31036
vt 0.0004346445 -4.310362
vt -1.984565 -4.310357
vt -1.97685 -3.274437
vt -2.97952 -3.266551
vt -2.980291 -4.310362
vt -2.978765 -1.288428
vt -1.960012 -1.296414
vt -2.978771 -0.2920916
vt -1.960014 -0.2920911
vt 1.042727 -1.312165
vt 1.042725 -0.2920902
vt 1.296794 0.9545611
vt 1.294418 1.041736
vt 3.581832 1.097393
vt 3.614043 1.017977
vt -0.8174703 2.685009
vt -0.81747 2.597802
vt -1.83622 2.597802
vt -1.836228 2.685008
vt 3.580442 -3.115481
vt 1.308764 -3.582531
vt 1.294426 -3.496511
vt 3.570971 -3.202172
vt 4.52665 -3.496589
vt 4.494069 -3.577481
vt 2.271984 0.046283
vt 1.294418 0.3460064
vt 1.326998 0.4268984
vt 2.262442 -0.04040036
vt 4.564383 0.4247433
vt 4.554838 0.3380607
vt 5.509833 0.04394081
vt 5.477252 -0.03695095
vt 1.326669 -2.863792
vt 1.294426 -2.784397
vt 3.616633 -2.717795
vt 3.648851 -2.797178
vt 2.273213 -4.223656
vt 1.294426 -3.92344
vt 1.327007 -3.842548
vt 2.26388 -4.310362
vt 4.562614 -3.834221
vt 4.553282 -3.920926
vt 5.508822 -4.215328
vt 5.476242 -4.296221
vt 1.326439 -2.529028
vt 1.294426 -2.448315
vt 3.615263 -2.397576
vt 3.64852 -2.477784
vt 4.297157 0.6785878
vt 5.315913 0.7657943
vt 5.315913 0.6785878
vt 4.297157 0.7657943
vt 1.294418 0.6785878
vt 1.294418 0.7657943
vt -0.8161532 2.835138
vt -0.8161532 2.747931
vt -1.836228 2.747931
vt -1.836228 2.835138
vt 1.294418 1.28616
vt 1.294418 1.371932
vt 4.297157 1.373366
vt 4.297157 1.28616
vn -0.2706791 8.790984E-05 0.9626697
vn -0.5209657 0.0001691967 0.8535776
vn -0.5209658 0.0001691967 0.8535776
vn -0.1855523 -0.1851643 0.9650307
vn 0 0 1
vn 4.48063E-05 -0.2698871 0.962892
vn 4.479751E-05 -0.2698341 0.9629069
vn 0.1867643 -0.1852694 0.9647768
vn 0.2721663 5.852122E-05 0.9622502
vn 0 0 1
vn 0.2722185 5.853246E-05 0.9622355
vn 0.1806358 3.884034E-05 0.9835501
vn 0 0 1
vn 0 0 1
vn 0 0 1
vn 0 0 1
vn 0.5228576 0.001635572 -0.8524185
vn 0.5228575 0.001635571 -0.8524185
vn 0.2698437 0.001604672 -0.9629028
vn 0.1840893 0.187014 -0.9649544
vn -0.00153946 0.001453133 -0.9999977
vn -0.002726939 0.2717523 -0.9623634
vn -0.002696953 0.2679479 -0.9634296
vn -0.1888275 0.1829398 -0.9648197
vn -0.273964 -0.002471103 -0.9617368
vn -0.001498774 -0.001514408 -0.9999977
vn -0.2696129 -0.00119205 -0.9629681
vn -0.1796872 -0.0007168945 -0.9837235
vn 0.002362835 0.0009214866 -0.9999968
vn 0.001535668 0.0005810873 -0.9999987
vn 0.0007084984 0.0002406869 -0.9999998
vn 0.0007084984 0.0002406869 -0.9999998
vn -0.05339018 0.9953226 0.08051288
vn -0.05339018 0.9953226 0.08051289
vn -0.05339018 0.9953226 0.08051289
vn -0.05339019 0.9953226 0.0805129
vn -0.8535491 -8.983559E-07 -0.5210124
vn -0.8535492 -8.983559E-07 -0.5210124
vn -0.8535492 -8.983559E-07 -0.5210124
vn -0.8535492 -8.983559E-07 -0.5210124
vn -1.629347E-05 -1 6.094932E-05
vn -3.638769E-05 -1 5.555069E-05
vn -3.638769E-05 -1 5.555068E-05
vn -1.628201E-05 -1 6.09524E-05
vn 3.802396E-06 -1 6.634839E-05
vn 3.802396E-06 -1 6.63484E-05
vn 1 8.478122E-06 -1.442882E-05
vn 1 -1.377038E-06 -1.893218E-07
vn 1 -1.377038E-06 -1.893218E-07
vn 1 8.466345E-06 -1.441181E-05
vn 1 8.25909E-06 -3.104257E-05
vn 1 8.250586E-06 -3.104458E-05
vn 1 -1.814678E-06 -3.341672E-05
vn 1 -1.814678E-06 -3.341672E-05
vn -0.9999694 -0.00777951 -0.0008404483
vn -0.9999694 -0.00777951 -0.0008404483
vn -0.9999694 -0.00777951 -0.0008404482
vn -0.9999694 -0.00777951 -0.0008404484
vn -0.0005547963 0.9999999 3.426117E-05
vn -0.0007421553 0.9999998 4.281136E-05
vn -0.0007421553 0.9999998 4.281135E-05
vn -0.0005550302 0.9999999 3.427184E-05
vn -0.0001819464 1 4.314798E-06
vn -0.0001817823 1 4.295874E-06
vn 3.54746E-06 1 -1.708136E-05
vn 3.54746E-06 1 -1.708137E-05
vn -0.04816524 -0.9951693 -0.08554533
vn -0.04816524 -0.9951693 -0.08554533
vn -0.04816525 -0.9951693 -0.08554534
vn -0.04816525 -0.9951693 -0.08554534
vn -1 3.362562E-07 0
vn -1 3.918502E-07 0
vn -1 3.918502E-07 0
vn -1 3.362562E-07 0
vn -1 2.806623E-07 0
vn -1 2.806623E-07 0
vn -1.913238E-06 -1 0
vn -1.913238E-06 -1 0
vn -1.913238E-06 -1 0
vn -1.913238E-06 -1 0
vn 0.9958762 0.002633366 -0.09068347
vn 0.9958762 0.002633366 -0.09068348
vn 0.9958762 0.002633366 -0.09068348
vn 0.9958762 0.002633366 -0.09068347
g Plane038_0
f 3/3/3 2/2/2 1/1/1
f 4/4/4 3/3/3 1/1/1
f 4/4/4 1/1/1 5/5/5
f 6/6/6 4/4/4 5/5/5
f 4/4/4 6/6/6 7/7/7
f 8/8/8 4/4/4 7/7/7
f 9/9/9 8/8/8 7/7/7
f 10/10/10 9/9/9 7/7/7
f 8/8/8 9/9/9 11/11/11
f 12/12/12 8/8/8 11/11/11
f 12/12/12 11/11/11 13/13/13
f 14/14/14 12/12/12 13/13/13
f 15/15/15 12/12/12 14/14/14
f 16/16/16 15/15/15 14/14/14
f 19/19/19 18/18/18 17/17/17
f 20/20/20 19/19/19 17/17/17
f 21/21/21 19/19/19 20/20/20
f 22/22/22 21/21/21 20/20/20
f 23/23/23 22/22/22 20/20/20
f 24/24/24 23/23/23 20/20/20
f 23/23/23 24/24/24 25/25/25
f 26/26/26 23/23/23 25/25/25
f 27/27/27 25/25/25 24/24/24
f 28/28/28 27/27/27 24/24/24
f 29/29/29 27/27/27 28/28/28
f 30/30/30 29/29/29 28/28/28
f 30/30/30 28/28/28 31/31/31
f 32/32/32 30/30/30 31/31/31
f 35/35/35 34/34/34 33/33/33
f 36/36/36 35/35/35 33/33/33
f 39/39/39 38/38/38 37/37/37
f 40/40/40 39/39/39 37/37/37
f 43/43/43 42/42/42 41/41/41
f 42/42/42 44/44/44 41/41/41
f 41/41/41 44/44/44 45/45/45
f 44/44/44 46/46/46 45/45/45
f 49/49/49 48/48/48 47/47/47
f 48/48/48 50/50/50 47/47/47
f 47/47/47 50/50/50 51/51/51
f 50/50/50 52/52/52 51/51/51
f 51/51/51 52/52/52 53/53/53
f 52/52/52 54/54/54 53/53/53
f 57/57/57 56/56/56 55/55/55
f 58/58/58 57/57/57 55/55/55
f 61/61/61 60/60/60 59/59/59
f 60/60/60 62/62/62 59/59/59
f 59/59/59 62/62/62 63/63/63
f 62/62/62 64/64/64 63/63/63
f 63/63/63 64/64/64 65/65/65
f 64/64/64 66/66/66 65/65/65
f 69/69/69 68/68/68 67/67/67
f 70/70/70 69/69/69 67/67/67
f 73/73/73 72/72/72 71/71/71
f 72/72/72 74/74/74 71/71/71
f 71/71/71 74/74/74 75/75/75
f 74/74/74 76/76/76 75/75/75
f 79/79/79 78/78/78 77/77/77
f 80/80/80 79/79/79 77/77/77
f 83/83/83 82/82/82 81/81/81
f 84/84/84 83/83/83 81/81/81
