g Plane013
v -6.903598 5.003878 0
v 1.330528 5.003877 3.406899
v 1.330528 5.003878 0
v -6.903598 5.003877 3.406899
v -8.973992 5.003877 3.406899
v -8.973993 5.003878 0
v -11.38447 5.003878 3.406899
v -11.38447 5.003879 0
v -25.06252 5.003879 0
v -25.06252 5.003878 3.406899
v 1.330528 -0.7801669 0
v 1.330528 -2.891125 3.406899
v 1.330528 -2.891126 0
v 1.330528 -0.7801667 3.406899
v 1.330528 5.003878 0
v 1.330528 5.003877 3.406899
v 1.330528 -2.891126 0
v 1.330528 -2.891125 3.406899
v -6.80626 -2.891125 3.406899
v -6.80626 -2.891126 0
v -25.06252 -0.7801697 0
v -25.06252 5.003878 3.406899
v -25.06252 5.003879 0
v -25.06252 -0.7801697 3.406899
v -25.06252 -5.046834 0
v -25.06252 -5.046834 3.406899
v -6.80626 -2.891126 0
v -6.80626 -2.891125 3.406899
v -6.80626 -0.7801667 3.406899
v -6.806283 -0.7801666 0
v -6.80626 -0.7801667 3.406899
v -8.97399 -0.7801667 3.406899
v -8.97399 -0.7801669 0
v -6.806283 -0.7801666 0
v -8.97399 -0.7801667 3.406899
v -8.97399 -7.92211 3.406899
v -8.97399 -7.922109 0
v -8.97399 -0.7801669 0
v -11.77061 -0.7801697 0
v -11.77061 -0.7801697 3.406899
v -11.77061 -5.046834 3.406899
v -11.77061 -5.046834 0
v -11.77061 -5.046834 0
v -11.77061 -5.046834 3.406899
v -25.06252 -5.046834 3.406899
v -25.06252 -5.046834 0
v -11.77061 -0.7801697 0
v -11.38495 -0.7801697 0
v -11.38495 -0.7801697 3.406899
v -11.77061 -0.7801697 3.406899
v -11.38495 -0.7801697 0
v -11.38495 -7.922108 3.406899
v -11.38495 -0.7801697 3.406899
v -11.38495 -7.922108 0
v -11.38495 -7.922107 -0.08603393
v -11.38495 -0.7801697 -0.08603515
v -8.97399 -7.922107 -0.08603271
v -8.97399 -7.922107 3.406899
v -11.38496 -7.922107 3.406899
v -11.38495 -7.922107 -0.08603393
v -6.903604 -0.7801666 0
v 1.330528 5.003878 0
v 1.330528 -0.7801669 0
v -6.903598 5.003878 0
v -8.97399 -0.780166 0
v -8.973993 5.003878 0
v -11.76988 5.003879 0
v -11.77097 -0.7801678 0
v -25.06252 -0.7801697 0
v -25.06252 5.003879 0
v -25.06252 -5.046834 0
v -11.77061 -5.046834 0
v -6.806267 -2.891119 0
v -6.806273 -0.7801666 0
v 1.330528 -0.7801669 0
v 1.330528 -2.891119 0
v 1.330528 5.003878 -0.08603271
v -6.903604 -0.7801666 -0.08603271
v 1.330528 -0.7801669 -0.08603271
v -6.903598 5.003878 -0.08603271
v -8.97399 -0.780166 -0.08603271
v -8.973993 5.003878 -0.08603271
v -11.76988 5.003879 -0.08603271
v -11.77097 -0.7801678 -0.08603271
v -8.97399 -7.922109 -0.08603271
v -6.903602 -7.922109 -0.08603271
v 1.330528 -0.7801669 -0.08603271
v -6.806273 -0.7801666 -0.08603271
v -6.806267 -2.891119 -0.08603271
v 1.330528 -2.891119 -0.08603271
v -8.97399 -0.780166 0
v -8.97399 -0.780166 -0.08603271
v -11.77097 -0.7801678 -0.08603271
v -11.77097 -0.7801678 0
v -8.97399 -7.922109 0
v -8.97399 -7.922109 -0.08603271
v -8.97399 -0.780166 -0.08603271
v -8.97399 -0.780166 0
vt 2.392918 0.994289
vt 0.004904691 0.006239483
vt 0.004904691 0.994289
vt 2.392918 0.006239483
vt 2.993362 0.006239483
vt 2.993362 0.994289
vt 3.692435 0.006239483
vt 3.692436 0.994289
vt 7.659265 0.994289
vt 7.659265 0.006239483
vt 0.6173313 0.9944965
vt 0.005123225 0.006447154
vt 0.005123046 0.9944965
vt 0.6173313 0.006447154
vt 2.294786 0.9944965
vt 2.294786 0.006447154
vt 6.373542 0.9944447
vt 6.373542 0.006394741
vt 4.013758 0.006394741
vt 4.013758 0.9944447
vt 1.682479 0.9943353
vt 0.005022323 0.006286139
vt 0.005022144 0.9943353
vt 1.682479 0.006286139
vt 2.919872 0.9943353
vt 2.919872 0.006286139
vt 2.229117 0.6187145
vt 3.217166 0.6187145
vt 3.217166 0.006507085
vt 2.229117 0.006507085
vt 0.6325143 0.005838484
vt 0.003842175 0.005838364
vt 0.003842115 0.993888
vt 0.6325067 0.993888
vt 5.144863 0.006286139
vt 3.073598 0.006286139
vt 3.073599 0.9943353
vt 5.144863 0.9943353
vt 3.685906 0.9944965
vt 3.685906 0.006447154
vt 2.448513 0.006447154
vt 2.448513 0.9944965
vt 3.860031 0.9944447
vt 3.860031 0.006394741
vt 0.005186739 0.006394741
vt 0.005186739 0.9944447
vt 5.29859 0.006286139
vt 5.29859 0.1181309
vt 6.28664 0.1181309
vt 6.28664 0.006286139
vt 0.004126471 0.9945561
vt 2.07539 0.006507085
vt 0.004126471 0.006507085
vt 2.07539 0.9945561
vt 2.07539 1.019506
vt 0.004126471 1.019507
vt 6.52727 0.7056094
vt 7.540267 0.7056094
vt 7.540267 0.006395217
vt 6.52727 0.006395694
vt 0.1846577 0.9851145
vt -1.189245 0.02002011
vt -1.189245 0.9851148
vt 0.1846567 0.02002011
vt 0.5301114 0.9851145
vt 0.5301117 0.02001999
vt 0.9966192 0.02001986
vt 0.9967999 0.9851149
vt 3.214557 0.9851151
vt 3.214557 0.02001986
vt 3.214557 1.697028
vt 0.9967399 1.697028
vt 0.1684167 4.423011
vt 0.1684175 4.070788
vt -1.189245 4.070788
vt -1.189245 4.423011
vt -1.189245 3.962288
vt 0.1846577 2.997194
vt -1.189245 2.997194
vt 0.1846567 3.962288
vt 0.5301114 2.997194
vt 0.5301117 3.962288
vt 0.9966192 3.962288
vt 0.9967999 2.997194
vt 0.5301114 1.805527
vt 0.1846576 1.805527
vt -0.4074897 1.697028
vt 0.950173 1.697028
vt 0.9501719 1.344806
vt -0.4074897 1.344806
vt 0.9967999 2.486853
vt 0.9824452 2.486853
vt 0.9824452 2.953542
vt 0.9967999 2.953542
vt -1.061529 2.939187
vt -1.061529 2.953542
vt 0.1301375 2.953542
vt 0.1301375 2.939187
vn 0 -1 -1.791516E-07
vn 0 -1 -1.791516E-07
vn 0 -1 -1.791516E-07
vn 0 -1 -1.791516E-07
vn -3.798114E-07 -1 -2.687273E-07
vn -3.798114E-07 -1 -2.687273E-07
vn -3.798114E-07 -1 -2.687273E-07
vn -3.798114E-07 -1 -2.687273E-07
vn 0 -1 -1.791516E-07
vn 0 -1 -1.791516E-07
vn -1 0 0
vn -1 0 0
vn -1 0 0
vn -1 0 0
vn -1 0 0
vn -1 0 0
vn 0 1 -1.791516E-07
vn 0 1 -1.791516E-07
vn 0 1 -1.791516E-07
vn 0 1 -1.791516E-07
vn 1 0 0
vn 1 0 0
vn 1 0 0
vn 1 0 0
vn 1 0 0
vn 1 0 0
vn 1 5.49356E-06 -3.403881E-06
vn 1 5.49356E-06 -3.403881E-06
vn 1 5.49356E-06 -3.403881E-06
vn 1 5.49356E-06 -3.403881E-06
vn 0 1 0
vn 0 1 0
vn 0 1 0
vn 0 1 0
vn -1 0 0
vn -1 0 0
vn -1 0 0
vn -1 0 0
vn -1 1.430513E-07 1.791516E-07
vn -1 1.430513E-07 1.791516E-07
vn -1 1.430513E-07 1.791516E-07
vn -1 1.430513E-07 1.791516E-07
vn 0 1 0
vn 0 1 0
vn 0 1 0
vn 0 1 0
vn 0 1 0
vn 0 1 0
vn 0 1 0
vn 0 1 0
vn 1 0 0
vn 1 0 0
vn 1 0 0
vn 1 0 0
vn 1 0 -7.094262E-06
vn 1 0 -7.094261E-06
vn -1.265783E-07 1 0
vn -1.265783E-07 1 0
vn -1.265783E-07 1 0
vn -1.265783E-07 1 0
vn 0 0 1
vn 0 0 1
vn 0 0 1
vn 0 0 1
vn 0 0 1
vn 0 0 1
vn 0 0 1
vn 0 0 1
vn 0 0 1
vn 0 0 1
vn 0 0 1
vn 0 0 1
vn 0 0 1
vn 0 0 1
vn 0 0 1
vn 0 0 1
vn 0 0 -1
vn 0 0 -1
vn 0 0 -1
vn 0 0 -1
vn 0 0 -1
vn 0 0 -1
vn 0 0 -1
vn 0 0 -1
vn 0 0 -1
vn 0 0 -1
vn 0 0 -1
vn 0 0 -1
vn 0 0 -1
vn 0 0 -1
vn 6.546549E-07 -1 0
vn 6.546549E-07 -1 0
vn 6.546549E-07 -1 0
vn 6.546549E-07 -1 0
vn -1 0 0
vn -1 0 0
vn -1 0 0
vn -1 0 0
g Plane013_0
f 3/3/3 2/2/2 1/1/1
f 2/2/2 4/4/4 1/1/1
f 4/4/4 5/5/5 1/1/1
f 5/5/5 6/6/6 1/1/1
f 5/5/5 7/7/7 6/6/6
f 7/7/7 8/8/8 6/6/6
f 8/8/8 7/7/7 9/9/9
f 7/7/7 10/10/10 9/9/9
f 13/13/13 12/12/12 11/11/11
f 12/12/12 14/14/14 11/11/11
f 11/11/11 14/14/14 15/15/15
f 14/14/14 16/16/16 15/15/15
f 19/19/19 18/18/18 17/17/17
f 20/20/20 19/19/19 17/17/17
f 23/23/23 22/22/22 21/21/21
f 22/22/22 24/24/24 21/21/21
f 21/21/21 24/24/24 25/25/25
f 24/24/24 26/26/26 25/25/25
f 29/29/29 28/28/28 27/27/27
f 30/30/30 29/29/29 27/27/27
f 33/33/33 32/32/32 31/31/31
f 34/34/34 33/33/33 31/31/31
f 37/37/37 36/36/36 35/35/35
f 38/38/38 37/37/37 35/35/35
f 41/41/41 40/40/40 39/39/39
f 42/42/42 41/41/41 39/39/39
f 45/45/45 44/44/44 43/43/43
f 46/46/46 45/45/45 43/43/43
f 49/49/49 48/48/48 47/47/47
f 50/50/50 49/49/49 47/47/47
f 53/53/53 52/52/52 51/51/51
f 52/52/52 54/54/54 51/51/51
f 54/54/54 55/55/55 51/51/51
f 55/55/55 56/56/56 51/51/51
f 59/59/59 58/58/58 57/57/57
f 60/60/60 59/59/59 57/57/57
g Plane013_1
f 63/63/63 62/62/62 61/61/61
f 62/62/62 64/64/64 61/61/61
f 65/65/65 61/61/61 64/64/64
f 66/66/66 65/65/65 64/64/64
f 65/65/65 66/66/66 67/67/67
f 68/68/68 65/65/65 67/67/67
f 68/68/68 67/67/67 69/69/69
f 67/67/67 70/70/70 69/69/69
f 68/68/68 69/69/69 71/71/71
f 72/72/72 68/68/68 71/71/71
f 75/75/75 74/74/74 73/73/73
f 76/76/76 75/75/75 73/73/73
f 79/79/79 78/78/78 77/77/77
f 78/78/78 80/80/80 77/77/77
f 80/80/80 78/78/78 81/81/81
f 82/82/82 80/80/80 81/81/81
f 83/83/83 82/82/82 81/81/81
f 84/84/84 83/83/83 81/81/81
f 81/81/81 78/78/78 85/85/85
f 78/78/78 86/86/86 85/85/85
f 89/89/89 88/88/88 87/87/87
f 90/90/90 89/89/89 87/87/87
f 93/93/93 92/92/92 91/91/91
f 94/94/94 93/93/93 91/91/91
f 97/97/97 96/96/96 95/95/95
f 98/98/98 97/97/97 95/95/95
