g props_08
v 0.1589749 0.1589765 0.007154
v 0.1589749 -0.1589765 0.007155
v -0.1589749 -0.1589755 0.007155
v -0.1589749 0.1589765 0.007154
v -0.1589749 0.1589765 0.007154
v -0.1589749 0.1589765 -0.031001
v 0.1589749 0.1589765 -0.031001
v 0.1589749 0.1589765 0.007154
v -0.1589749 -0.1589755 0.007155
v -0.1589749 -0.1589755 -0.031
v -0.1589749 0.1589765 -0.031001
v -0.1589749 0.1589765 0.007154
v 0.1589749 -0.1589765 0.007155
v 0.1589749 -0.1589765 -0.031
v -0.1589749 -0.1589755 -0.031
v -0.1589749 -0.1589755 0.007155
v 0.1589749 0.1589765 0.007154
v 0.1589749 0.1589765 -0.031001
v 0.1589749 -0.1589765 -0.031
v 0.1589749 -0.1589765 0.007155
v 0.1541211 -0.0705475 0.031
v 0.1541211 -0.08152149 0.031
v 0.1310638 -0.0654255 0.031
v 0.1541211 0.0171885 0.031
v 0.086875 -0.0538925 0.031
v 0.116123 0.0251725 0.031
v 0.01701202 0.0202165 0.031
v 0.03552704 -0.0566325 0.031001
v -0.01495117 -0.0761195 0.031001
v -0.08973602 -0.002772499 0.031001
v -0.153584 -0.1338195 0.031001
v -0.1243161 -0.1553815 0.031001
v -0.154072 0.1045075 0.031
v -0.09402313 0.1223655 0.031
v -0.05459991 0.0305745 0.031
v 0.004306945 0.1379955 0.031
v 0.03236298 0.0449945 0.031
v 0.104014 0.1396915 0.031
v 0.1318851 0.0463545 0.031
v 0.1541211 0.1362375 0.031
v 0.1541211 0.0391245 0.031
v 0.1541211 -0.1553815 0.031001
v 0.04447296 -0.0711915 0.031001
v 0.09939484 -0.0721325 0.031
v 0.1541211 -0.0836305 0.031
v 0.1541211 -0.08152149 0.031
v 0.1541211 -0.0774115 -0.016693
v 0.1310638 -0.0654255 -0.016693
v 0.1310638 -0.0654255 0.031
v 0.086875 -0.0538925 -0.016693
v 0.086875 -0.0538925 0.031
v 0.03552704 -0.0566325 -0.016692
v 0.03552704 -0.0566325 0.031001
v -0.01495117 -0.0761195 -0.016692
v -0.01495117 -0.0761195 0.031001
v 0.1541211 -0.0705475 0.031
v 0.1541211 -0.0774115 -0.016693
v 0.1541211 -0.08152149 0.031
v 0.1541211 -0.0705475 -0.016693
v 0.1541211 0.0171885 0.031
v 0.1541211 0.0171885 -0.016693
v -0.153584 -0.1338195 0.031001
v -0.153584 -0.1338195 -0.016692
v -0.154072 0.1045075 -0.016693
v -0.154072 0.1045075 0.031
v -0.154072 0.1045075 0.031
v -0.154072 0.1045075 -0.016693
v -0.09402313 0.1223655 -0.016693
v -0.09402313 0.1223655 0.031
v 0.004306945 0.1379955 -0.016693
v 0.004306945 0.1379955 0.031
v 0.104014 0.1396915 -0.016693
v 0.104014 0.1396915 0.031
v 0.1541211 0.1362375 -0.016693
v 0.1541211 0.1362375 0.031
v -0.05459991 0.0305745 0.031
v -0.08973602 -0.002772499 -0.016692
v -0.08973602 -0.002772499 0.031001
v -0.05459991 0.0305745 -0.016693
v 0.03236298 0.0449945 0.031
v 0.03236298 0.0449945 -0.016693
v 0.1318851 0.0463545 0.031
v 0.1318851 0.0463545 -0.016693
v 0.1541211 0.0391245 0.031
v 0.1541211 0.0391245 -0.016693
v 0.1541211 0.1362375 0.031
v 0.1541211 0.1362375 -0.016693
v 0.1541211 0.0391245 -0.016693
v 0.1541211 0.0391245 0.031
v 0.1541211 -0.0836305 0.031
v 0.1541211 -0.1553815 -0.016692
v 0.1541211 -0.1553815 0.031001
v 0.1541211 -0.08363149 -0.016693
v 0.09939484 -0.0721325 0.031
v 0.09939484 -0.0721325 -0.016693
v 0.04447296 -0.0711915 0.031001
v 0.04447296 -0.0711915 -0.016692
v -0.01495117 -0.0761195 0.031001
v -0.01495117 -0.0761195 -0.016692
v -0.1243161 -0.1553815 0.031001
v -0.153584 -0.1338195 -0.016692
v -0.153584 -0.1338195 0.031001
v -0.1243161 -0.1553815 -0.016692
v 0.1541211 -0.1553815 0.031001
v 0.1541211 -0.1553815 -0.016692
v -0.08973602 -0.002772499 0.031001
v -0.08973602 -0.002772499 -0.016692
v 0.01701202 0.0202165 -0.016693
v 0.01701202 0.0202165 0.031
v 0.116123 0.0251725 -0.016693
v 0.116123 0.0251725 0.031
v 0.1541211 0.0171885 -0.016693
v 0.1541211 0.0171885 0.031
vt 0.5300971 0.3048506
vt 0.5300971 0.1798381
vt 0.4050857 0.1798385
vt 0.4050857 0.3048506
vt 0.4050857 0.3048506
vt 0.4050857 0.3198524
vt 0.5300971 0.3198524
vt 0.5300971 0.3048506
vt 0.4050857 0.1798385
vt 0.3900839 0.1798385
vt 0.3900839 0.3048507
vt 0.4050857 0.3048506
vt 0.5300971 0.1798381
vt 0.530097 0.1648363
vt 0.4050857 0.1648367
vt 0.4050857 0.1798385
vt 0.5300971 0.3048506
vt 0.5450989 0.3048507
vt 0.5450989 0.1798381
vt 0.5300971 0.1798381
vt 0.7720272 0.7596514
vt 0.7763419 0.7596514
vt 0.7700133 0.7505858
vt 0.7375312 0.7596514
vt 0.7654788 0.7332116
vt 0.734392 0.7447114
vt 0.7363406 0.7057429
vt 0.7665561 0.7130227
vt 0.774218 0.6931758
vt 0.7453794 0.6637718
vt 0.7969044 0.6386681
vt 0.8053822 0.6501757
vt 0.7031992 0.6384762
vt 0.6961778 0.6620863
vt 0.7322681 0.6775866
vt 0.6900324 0.7007476
vt 0.7265984 0.7117786
vt 0.6893655 0.7399503
vt 0.7260637 0.7509086
vt 0.6907236 0.7596514
vt 0.7289064 0.7596514
vt 0.8053822 0.7596514
vt 0.7722804 0.71654
vt 0.7726504 0.7381342
vt 0.7771711 0.7596514
vt 0.04397822 0.2772076
vt 0.02515683 0.2771818
vt 0.0246876 0.2873883
vt 0.04341972 0.2882495
vt 0.02386295 0.3053256
vt 0.04259507 0.3061868
vt 0.02293484 0.325522
vt 0.04166696 0.3263831
vt 0.0219578 0.346774
vt 0.04068992 0.3476352
vt 0.04361366 0.2729083
vt 0.02515683 0.2771818
vt 0.04397822 0.2772076
vt 0.0249288 0.2744927
vt 0.04069902 0.2385357
vt 0.02201417 0.24012
vt 0.03062933 0.5664127
vt 0.01189722 0.5655512
vt 0.007591813 0.6591577
vt 0.02632392 0.6600192
vt 0.02632392 0.6600192
vt 0.007591813 0.6591577
vt 0.006460171 0.6837637
vt 0.02519228 0.6846252
vt 0.004661692 0.722869
vt 0.0233938 0.7237305
vt 0.002860379 0.7620361
vt 0.02159248 0.7628976
vt 0.001953125 0.781763
vt 0.02068523 0.7826245
vt 0.03087575 0.1226885
vt 0.01380054 0.1432509
vt 0.03248539 0.1416665
vt 0.0121909 0.1242729
vt 0.02794735 0.08815354
vt 0.009262501 0.08973793
vt 0.02464087 0.04915982
vt 0.005956023 0.05074421
vt 0.02386412 0.03999942
vt 0.005179266 0.04158381
vt 0.02063798 0.001953125
vt 0.001953125 0.003537509
vt 0.005179266 0.04158381
vt 0.02386412 0.03999942
vt 0.0376112 0.4145932
vt 0.01758342 0.441913
vt 0.03631553 0.4427745
vt 0.01887908 0.4137321
vt 0.03862096 0.3926295
vt 0.01988884 0.3917683
vt 0.03961322 0.371055
vt 0.0208811 0.3701938
vt 0.04068992 0.3476352
vt 0.0219578 0.346774
vt 0.03128599 0.5521346
vt 0.01189722 0.5655512
vt 0.03062933 0.5664127
vt 0.01255388 0.5512731
vt 0.03631553 0.4427745
vt 0.01758342 0.441913
vt 0.03248539 0.1416665
vt 0.01380054 0.1432509
vt 0.01742767 0.1860308
vt 0.03611252 0.1844464
vt 0.0207243 0.2249084
vt 0.03940915 0.223324
vt 0.02201417 0.24012
vt 0.04069902 0.2385357
vn 0 3.145646E-06 1
vn 0 3.145646E-06 1
vn 0 3.145646E-06 1
vn 0 3.145646E-06 1
vn 0 1 0
vn 0 1 0
vn 0 1 0
vn 0 1 0
vn -1 0 0
vn -1 0 0
vn -1 0 0
vn -1 0 0
vn -3.149421E-06 -1 0
vn -3.149421E-06 -1 0
vn -3.149421E-06 -1 0
vn -3.149421E-06 -1 0
vn 1 0 0
vn 1 0 0
vn 1 0 0
vn 1 0 0
vn 0 0 1
vn 0 0 1
vn 0 0 1
vn 0 0 1
vn 3.640768E-06 3.432172E-06 1
vn 2.567656E-06 2.420544E-06 1
vn 5.04405E-06 7.651102E-06 1
vn 5.148298E-06 7.518057E-06 1
vn 1.302682E-06 3.02967E-06 1
vn -1.104145E-06 5.068373E-06 1
vn -1.771432E-06 8.63067E-07 1
vn 0 0 1
vn 1.847513E-06 7.044587E-06 1
vn 3.42111E-06 4.602881E-06 1
vn 3.143155E-06 4.228912E-06 1
vn 0 0 1
vn 0 0 1
vn 0 0 1
vn 0 0 1
vn 0 0 1
vn 0 0 1
vn 5.056056E-06 1.033798E-05 1
vn 3.909545E-06 5.091747E-06 1
vn 1.448382E-05 2.154985E-05 1
vn 2.932159E-06 1.395602E-05 1
vn -0.5197613 -0.8535197 -0.03677651
vn -0.5197613 -0.8535197 -0.03677651
vn -0.3903557 -0.9204764 -0.01858864
vn -0.3903557 -0.9204764 -0.01858864
vn -0.1008232 -0.9949044 0
vn -0.1008212 -0.9949046 0
vn 0.2093058 -0.9778503 0
vn 0.2093077 -0.9778498 0
vn 0.3601429 -0.9328972 0
vn 0.3601429 -0.9328972 0
vn 1 0 0
vn 1 0 0
vn 1 0 0
vn 1 0 0
vn 1 0 0
vn 1 0 0
vn -0.999998 -0.002047502 0
vn -0.999998 -0.002047502 0
vn -0.999998 -0.002047502 0
vn -0.999998 -0.002047502 0
vn -0.2850531 0.9585117 0
vn -0.2850531 0.9585117 0
vn -0.2214964 0.9751613 0
vn -0.2214964 0.9751613 0
vn -0.08721098 0.9961898 0
vn -0.08721098 0.9961898 0
vn 0.02590474 0.9996644 0
vn 0.02590474 0.9996644 0
vn 0.0687691 0.9976326 0
vn 0.0687691 0.9976326 0
vn 0.4455629 -0.8952506 0
vn 0.6883988 -0.7253323 0
vn 0.6883988 -0.7253323 0
vn 0.4455594 -0.8952524 0
vn 0.08887614 -0.9960427 0
vn 0.08887614 -0.9960427 0
vn -0.1497848 -0.9887186 0
vn -0.1497848 -0.9887186 0
vn -0.3092134 -0.9509928 0
vn -0.3092134 -0.9509928 0
vn 1 0 0
vn 1 0 0
vn 1 0 0
vn 1 0 0
vn 0.7764037 0.6302359 -1.322948E-05
vn 1 0 0
vn 1 0 0
vn 0.7764099 0.6302283 -7.282074E-06
vn 0.1118795 0.9937218 -4.638393E-06
vn 0.1118845 0.9937212 0
vn -0.03279848 0.9994619 0
vn -0.03279791 0.9994621 0
vn -0.08264553 0.996579 0
vn -0.08264553 0.996579 0
vn -0.3121652 -0.9500278 0
vn -0.5931312 -0.8051057 0
vn -0.5931312 -0.8051057 0
vn -0.3121652 -0.9500278 0
vn 0 -1 0
vn 0 -1 0
vn -0.2105308 0.9775873 0
vn -0.2105308 0.9775873 0
vn -0.1306655 0.9914266 0
vn -0.1306659 0.9914265 0
vn 0.07848944 0.996915 0
vn 0.07848944 0.996915 0
vn 0.205626 0.9786306 0
vn 0.205626 0.9786306 0
g props_08_0
f 3/3/3 2/2/2 1/1/1
f 4/4/4 3/3/3 1/1/1
f 7/7/7 6/6/6 5/5/5
f 8/8/8 7/7/7 5/5/5
f 11/11/11 10/10/10 9/9/9
f 12/12/12 11/11/11 9/9/9
f 15/15/15 14/14/14 13/13/13
f 16/16/16 15/15/15 13/13/13
f 19/19/19 18/18/18 17/17/17
f 20/20/20 19/19/19 17/17/17
f 23/23/23 22/22/22 21/21/21
f 21/21/21 24/24/24 23/23/23
f 23/23/23 24/24/24 25/25/25
f 24/24/24 26/26/26 25/25/25
f 26/26/26 27/27/27 25/25/25
f 27/27/27 28/28/28 25/25/25
f 29/29/29 28/28/28 27/27/27
f 30/30/30 29/29/29 27/27/27
f 30/30/30 31/31/31 29/29/29
f 31/31/31 32/32/32 29/29/29
f 33/33/33 31/31/31 30/30/30
f 33/33/33 30/30/30 34/34/34
f 30/30/30 35/35/35 34/34/34
f 36/36/36 34/34/34 35/35/35
f 37/37/37 36/36/36 35/35/35
f 38/38/38 36/36/36 37/37/37
f 39/39/39 38/38/38 37/37/37
f 40/40/40 38/38/38 39/39/39
f 41/41/41 40/40/40 39/39/39
f 29/29/29 32/32/32 42/42/42
f 43/43/43 29/29/29 42/42/42
f 44/44/44 43/43/43 42/42/42
f 45/45/45 44/44/44 42/42/42
f 48/48/48 47/47/47 46/46/46
f 49/49/49 48/48/48 46/46/46
f 50/50/50 48/48/48 49/49/49
f 51/51/51 50/50/50 49/49/49
f 52/52/52 50/50/50 51/51/51
f 53/53/53 52/52/52 51/51/51
f 54/54/54 52/52/52 53/53/53
f 55/55/55 54/54/54 53/53/53
f 58/58/58 57/57/57 56/56/56
f 57/57/57 59/59/59 56/56/56
f 56/56/56 59/59/59 60/60/60
f 59/59/59 61/61/61 60/60/60
f 64/64/64 63/63/63 62/62/62
f 65/65/65 64/64/64 62/62/62
f 68/68/68 67/67/67 66/66/66
f 69/69/69 68/68/68 66/66/66
f 70/70/70 68/68/68 69/69/69
f 71/71/71 70/70/70 69/69/69
f 72/72/72 70/70/70 71/71/71
f 73/73/73 72/72/72 71/71/71
f 74/74/74 72/72/72 73/73/73
f 75/75/75 74/74/74 73/73/73
f 78/78/78 77/77/77 76/76/76
f 77/77/77 79/79/79 76/76/76
f 76/76/76 79/79/79 80/80/80
f 79/79/79 81/81/81 80/80/80
f 80/80/80 81/81/81 82/82/82
f 81/81/81 83/83/83 82/82/82
f 82/82/82 83/83/83 84/84/84
f 83/83/83 85/85/85 84/84/84
f 88/88/88 87/87/87 86/86/86
f 89/89/89 88/88/88 86/86/86
f 92/92/92 91/91/91 90/90/90
f 93/93/93 90/90/90 91/91/91
f 90/90/90 93/93/93 94/94/94
f 95/95/95 94/94/94 93/93/93
f 94/94/94 95/95/95 96/96/96
f 95/95/95 97/97/97 96/96/96
f 96/96/96 97/97/97 98/98/98
f 97/97/97 99/99/99 98/98/98
f 102/102/102 101/101/101 100/100/100
f 101/101/101 103/103/103 100/100/100
f 100/100/100 103/103/103 104/104/104
f 103/103/103 105/105/105 104/104/104
f 108/108/108 107/107/107 106/106/106
f 109/109/109 108/108/108 106/106/106
f 110/110/110 108/108/108 109/109/109
f 111/111/111 110/110/110 109/109/109
f 112/112/112 110/110/110 111/111/111
f 113/113/113 112/112/112 111/111/111
