g props_18
v 0.004076538 0.02632249 -0.0159095
v 0.004076538 0.1966355 -0.0159095
v -0.007173462 0.1966355 -0.0112495
v -0.007173462 0.02632249 -0.0112495
v -0.01183166 0.1966355 4.994869E-07
v -0.01183166 0.02632249 4.994869E-07
v -0.007173462 0.1966355 0.0112505
v -0.007173462 0.02632249 0.0112505
v 0.004076538 0.1966355 0.0159105
v 0.004076538 0.02632249 0.0159105
v 0.01532654 0.1966355 0.0112505
v 0.01532654 0.02632249 0.0112505
v 0.01998413 0.1966355 4.994869E-07
v 0.01998413 0.02632249 4.994869E-07
v 0.01532654 0.1966355 -0.0112495
v 0.01532654 0.02632249 -0.0112495
v 0.004076538 0.1966355 -0.0159095
v 0.004076538 0.02632249 -0.0159095
v 0.004076538 0.01413649 -0.0198825
v 0.004076538 0.02632249 -0.0198825
v -0.009976806 0.02632249 -0.0140595
v -0.009976806 0.01413649 -0.0140595
v -0.01580688 0.02632249 4.994869E-07
v -0.01580688 0.01413649 4.994869E-07
v -0.009976806 0.02632249 0.0140595
v -0.009976806 0.01413649 0.0140595
v 0.004076538 0.02632249 0.0198835
v 0.004076538 0.01413649 0.0198835
v 0.01813965 0.02632249 0.0140595
v 0.01813965 0.01413649 0.0140595
v 0.02395935 0.02632249 4.994869E-07
v 0.02395935 0.01413649 4.994869E-07
v 0.01813965 0.02632249 -0.0140595
v 0.01813965 0.01413649 -0.0140595
v 0.004076538 0.02632249 -0.0198825
v 0.004076538 0.01413649 -0.0198825
v -0.01043579 0.1988315 -0.0145155
v 0.004076538 0.1966355 -0.0159095
v 0.004076538 0.1988315 -0.0205275
v -0.007173462 0.1966355 -0.0112495
v -0.01645081 0.1988315 4.994869E-07
v -0.01183166 0.1966355 4.994869E-07
v -0.01043579 0.1988315 0.0145155
v -0.007173462 0.1966355 0.0112505
v 0.004076538 0.1988315 0.0205275
v 0.004076538 0.1966355 0.0159105
v 0.01859863 0.1988315 0.0145155
v 0.01532654 0.1966355 0.0112505
v 0.02460449 0.1988315 4.994869E-07
v 0.01998413 0.1966355 4.994869E-07
v 0.01859863 0.1988315 -0.0145155
v 0.01532654 0.1966355 -0.0112495
v 0.004076538 0.1988315 -0.0205275
v 0.004076538 0.1966355 -0.0159095
v -0.001401367 -0.1774815 1.499487E-06
v -0.001401367 0.02132849 4.994869E-07
v 0.004076538 0.02132849 0.005480499
v 0.004076538 -0.1774815 0.005481499
v 0.009555054 0.02132849 4.994869E-07
v -0.003882446 -0.1912225 1.499487E-06
v 0.009555054 -0.1774815 1.499487E-06
v 0.004076538 0.02132849 -0.0054795
v -0.0007476807 -0.1957115 0.005481499
v 0.004076538 -0.1774815 -0.0054785
v -0.001401367 0.02132849 4.994869E-07
v -0.001401367 -0.1774815 1.499487E-06
v -0.01168579 -0.2100185 0.005481499
v -0.01356079 -0.2048695 1.499487E-06
v -0.02460449 -0.2142815 1.499487E-06
v -0.02460449 -0.2197615 0.005481499
v 0.00239624 -0.2002005 1.499487E-06
v -0.0007476807 -0.1957115 -0.0054785
v -0.003882446 -0.1912225 1.499487E-06
v -0.00981079 -0.2151685 1.499487E-06
v -0.02460449 -0.2252415 1.499487E-06
v -0.01168579 -0.2100185 -0.0054785
v -0.01356079 -0.2048695 1.499487E-06
v -0.02460449 -0.2197615 -0.0054785
v -0.02460449 -0.2142815 1.499487E-06
v 0.004076538 0.02132849 0.005480499
v -0.001401367 0.02132849 4.994869E-07
v 0.004076538 0.02132849 -0.0054795
v 0.009555054 0.02132849 4.994869E-07
v -0.02460449 -0.2197615 0.005481499
v -0.02460449 -0.2252415 1.499487E-06
v -0.02460449 -0.2197615 -0.0054785
v -0.02460449 -0.2142815 1.499487E-06
v 0.004076538 0.01413649 0.0198835
v 0.004076538 0.01413649 4.994869E-07
v -0.009976806 0.01413649 0.0140595
v 0.01813965 0.01413649 0.0140595
v -0.01580688 0.01413649 4.994869E-07
v 0.02395935 0.01413649 4.994869E-07
v -0.009976806 0.01413649 -0.0140595
v 0.01813965 0.01413649 -0.0140595
v 0.004076538 0.01413649 -0.0198825
v -0.009976806 0.02632249 0.0140595
v -0.007173462 0.02632249 0.0112505
v 0.004076538 0.02632249 0.0159105
v 0.004076538 0.02632249 0.0198835
v -0.01580688 0.02632249 4.994869E-07
v 0.01532654 0.02632249 0.0112505
v -0.01183166 0.02632249 4.994869E-07
v 0.01813965 0.02632249 0.0140595
v -0.009976806 0.02632249 -0.0140595
v 0.01998413 0.02632249 4.994869E-07
v -0.007173462 0.02632249 -0.0112495
v 0.02395935 0.02632249 4.994869E-07
v 0.004076538 0.02632249 -0.0198825
v 0.01532654 0.02632249 -0.0112495
v 0.004076538 0.02632249 -0.0159095
v 0.01813965 0.02632249 -0.0140595
v 0.004076538 0.2102855 0.0187175
v 0.004076538 0.1988315 0.0205275
v -0.01043579 0.1988315 0.0145155
v -0.009155883 0.2102855 0.0132355
v -0.01645081 0.1988315 4.994869E-07
v 0.01731811 0.2102855 0.0132355
v 0.01859863 0.1988315 0.0145155
v -0.0146344 0.2102855 4.994869E-07
v -0.01043579 0.1988315 -0.0145155
v 0.02279724 0.2102855 4.994869E-07
v 0.02460449 0.1988315 4.994869E-07
v -0.009155883 0.2102855 -0.0132345
v 0.004076538 0.1988315 -0.0205275
v 0.01731811 0.2102855 -0.0132345
v 0.01859863 0.1988315 -0.0145155
v 0.004076538 0.2102855 -0.0187165
v 0.004076538 0.2201225 0.0121395
v 0.01266052 0.2201225 0.008584499
v 0.004076538 0.2252415 4.994869E-07
v -0.004507446 0.2201225 0.008584499
v 0.01621521 0.2201225 4.994869E-07
v -0.008061524 0.2201225 4.994869E-07
v 0.01266052 0.2201225 -0.0085835
v -0.004507446 0.2201225 -0.0085835
v 0.004076538 0.2201225 -0.0121395
vt 0.7651119 0.4573985
vt 0.7659991 0.3903965
vt 0.7612011 0.3902736
vt 0.7603178 0.4573345
vt 0.7563952 0.3902083
vt 0.7555262 0.457271
vt 0.7515888 0.3901472
vt 0.7507347 0.4572088
vt 0.7467822 0.390087
vt 0.7459428 0.4571478
vt 0.7419755 0.3900276
vt 0.7411509 0.457088
vt 0.7371691 0.3899693
vt 0.7363593 0.4570294
vt 0.7323628 0.3899135
vt 0.7315677 0.456972
vt 0.7275635 0.3899184
vt 0.7267757 0.4569158
vt 0.006744409 0.3136312
vt 0.001953125 0.3136312
vt 0.001953125 0.3196121
vt 0.006744409 0.3196121
vt 0.001953125 0.3255966
vt 0.006744409 0.3255966
vt 0.001953125 0.3315808
vt 0.006744409 0.3315808
vt 0.001953125 0.3375618
vt 0.006744409 0.3375618
vt 0.001953125 0.3435465
vt 0.006744409 0.3435465
vt 0.001953125 0.3495292
vt 0.006744409 0.3495292
vt 0.001953125 0.3555122
vt 0.006744409 0.3555122
vt 0.001953125 0.3614967
vt 0.006744409 0.3614967
vt 0.7613157 0.3884067
vt 0.7659991 0.3903965
vt 0.7667929 0.3886622
vt 0.7612011 0.3902736
vt 0.7564605 0.3883473
vt 0.7563952 0.3902083
vt 0.7516526 0.3882876
vt 0.7515888 0.3901472
vt 0.7468466 0.3882269
vt 0.7467822 0.390087
vt 0.7420382 0.3881657
vt 0.7419755 0.3900276
vt 0.7372323 0.3881057
vt 0.7371691 0.3899693
vt 0.7323892 0.3879752
vt 0.7323628 0.3899135
vt 0.7267757 0.3880656
vt 0.7275635 0.3899184
vt 0.7903708 0.3691849
vt 0.7904258 0.2908278
vt 0.7873732 0.2908255
vt 0.7873232 0.3691108
vt 0.7843188 0.2908237
vt 0.7899388 0.375087
vt 0.7842819 0.3690347
vt 0.781266 0.2908233
vt 0.7871701 0.3762927
vt 0.7812523 0.3691118
vt 0.7782148 0.2908234
vt 0.7782148 0.3691797
vt 0.7873413 0.3832632
vt 0.7902351 0.3821901
vt 0.7903445 0.3880802
vt 0.7876493 0.3896373
vt 0.7843206 0.3772946
vt 0.7814465 0.3763618
vt 0.7785818 0.3752718
vt 0.7845121 0.38428
vt 0.7848822 0.3911087
vt 0.7815966 0.3834859
vt 0.7786838 0.3825272
vt 0.7818729 0.3899434
vt 0.7789796 0.3886125
vt 0.03773359 0.001953125
vt 0.03468705 0.001954237
vt 0.03468705 0.005000778
vt 0.03773387 0.004999944
vt 0.1967275 0.001953125
vt 0.1936804 0.001953125
vt 0.1936804 0.005000222
vt 0.1967275 0.005000222
vt 0.8020127 0.153661
vt 0.79479 0.1506698
vt 0.797783 0.1578897
vt 0.8020127 0.1476763
vt 0.7917988 0.1578925
vt 0.7977812 0.1434471
vt 0.7875684 0.1536595
vt 0.7917982 0.1434461
vt 0.7875673 0.1476786
vt 0.7917971 0.4938282
vt 0.7923958 0.4923874
vt 0.7890105 0.4890017
vt 0.7875673 0.4895994
vt 0.7977812 0.4938309
vt 0.7890109 0.484214
vt 0.7971832 0.492387
vt 0.7875673 0.4836147
vt 0.8020116 0.489598
vt 0.7923968 0.4808295
vt 0.8005691 0.4890025
vt 0.7917988 0.4793855
vt 0.8020127 0.4836171
vt 0.7971842 0.4808291
vt 0.8005695 0.4842148
vt 0.7977818 0.4793845
vt 0.7822169 0.01028611
vt 0.7782148 0.008817549
vt 0.7782157 0.01851988
vt 0.7820842 0.01672867
vt 0.7850775 0.02538182
vt 0.7868693 0.005821588
vt 0.7850779 0.001953125
vt 0.7865465 0.0213791
vt 0.7947821 0.02538118
vt 0.793312 0.005955516
vt 0.7947807 0.001953751
vt 0.7929904 0.02151271
vt 0.8016428 0.01852069
vt 0.7977743 0.01060506
vt 0.8016428 0.008813711
vt 0.7976406 0.01705179
vt 0.7859805 0.01178962
vt 0.7884656 0.009547736
vt 0.7899289 0.01366834
vt 0.7858084 0.01513179
vt 0.7918079 0.009719939
vt 0.7880501 0.01761656
vt 0.7940496 0.01220496
vt 0.7913921 0.01778902
vt 0.7938774 0.0155475
vn 0 0 -1
vn 0 0 -1
vn -0.7071549 0 -0.7070586
vn -0.7071549 0 -0.7070586
vn -1 0 0
vn -1 0 0
vn -0.7071549 0 0.7070586
vn -0.7071549 0 0.7070586
vn 0 0 1
vn 0 0 1
vn 0.7071714 0 0.7070422
vn 0.7071714 0 0.7070422
vn 1 0 0
vn 1 0 0
vn 0.7071714 0 -0.7070422
vn 0.7071714 0 -0.7070422
vn 0 0 -1
vn 0 0 -1
vn -0.0001228047 0 -1
vn -0.0001228047 0 -1
vn -0.7070141 0 -0.7071995
vn -0.7070141 0 -0.7071995
vn -1 0 1.259058E-05
vn -1 0 1.259058E-05
vn -0.7070267 0 0.7071869
vn -0.7070267 0 0.7071869
vn -0.0001228283 0 1
vn -0.0001228283 0 1
vn 0.7071625 0 0.707051
vn 0.7071625 0 0.707051
vn 1 0 1.256676E-05
vn 1 0 1.256676E-05
vn 0.7071499 0 -0.7070636
vn 0.7071499 0 -0.7070636
vn -0.0001228047 0 -1
vn -0.0001228047 0 -1
vn -0.3036582 -0.9030692 -0.3037395
vn -5.95508E-05 -0.9031139 -0.429401
vn -4.412564E-05 -0.9031139 -0.429401
vn -0.3037424 -0.9030693 -0.3036553
vn -0.4295146 -0.90306 4.51779E-06
vn -0.4295146 -0.90306 6.0979E-06
vn -0.3036958 -0.903047 0.3037679
vn -0.303756 -0.903047 0.3037078
vn -4.410671E-05 -0.9030778 0.4294768
vn -5.954372E-05 -0.903078 0.4294768
vn 0.3035856 -0.9031983 0.3034281
vn 0.3034369 -0.9031982 0.3035771
vn 0.4291451 -0.9032356 4.503413E-06
vn 0.429145 -0.9032356 6.074039E-06
vn 0.3035481 -0.9032205 -0.3033996
vn 0.3034234 -0.9032204 -0.3035245
vn -4.412564E-05 -0.9031139 -0.429401
vn -5.95508E-05 -0.9031139 -0.429401
vn -0.9927303 0.1203601 1.025057E-06
vn -0.8164824 0.5773704 -1.796069E-06
vn -2.27443E-05 0.577335 0.8165073
vn 0.05624444 -0.03184847 0.9979089
vn 0.8164865 0.5773645 -1.796177E-06
vn -0.927895 0.3728417 0
vn 0.9907017 -0.1360523 1.15665E-06
vn -2.274448E-05 0.5773312 -0.8165101
vn 0.09175669 -0.0188645 0.9956027
vn 0.05624426 -0.03185359 -0.9979088
vn -0.8164824 0.5773704 -1.796069E-06
vn -0.9927303 0.1203601 1.025057E-06
vn 0.0439523 -0.03734491 0.9983354
vn -0.7381799 0.6746039 0
vn -0.8229467 0.5681187 0
vn -0.4972081 -0.223922 0.8382381
vn 0.8687022 -0.4953347 0
vn 0.09175663 -0.01886448 -0.9956027
vn -0.927895 0.3728417 0
vn 0.6702564 -0.7421296 0
vn -0.3689244 -0.9294594 0
vn 0.04395229 -0.03734487 -0.9983354
vn -0.7381799 0.6746039 0
vn -0.4972081 -0.223922 -0.8382381
vn -0.8229467 0.5681187 0
vn -2.27443E-05 0.577335 0.8165073
vn -0.8164824 0.5773704 -1.796069E-06
vn -2.274448E-05 0.5773312 -0.8165101
vn 0.8164865 0.5773645 -1.796177E-06
vn -0.4972081 -0.223922 0.8382381
vn -0.3689244 -0.9294594 0
vn -0.4972081 -0.223922 -0.8382381
vn -0.8229467 0.5681187 0
vn 0 -1 0
vn 0 -1 0
vn 0 -1 0
vn 0 -1 0
vn 0 -1 0
vn 0 -1 0
vn 0 -1 0
vn 0 -1 0
vn 0 -1 0
vn 0 1 0
vn 0 1 0
vn 0 1 0
vn 0 1 0
vn 0 1 0
vn 0 1 0
vn 0 1 0
vn 0 1 0
vn 0 1 0
vn 0 1 0
vn 0 1 0
vn 0 1 0
vn 0 1 0
vn 0 1 0
vn 0 1 0
vn 0 1 0
vn -9.624945E-05 0.3478125 0.9375642
vn -0.0001146658 0.1560941 0.9877422
vn -0.6984481 0.1562257 0.6984009
vn -0.6629936 0.3478071 0.6629251
vn -0.987699 0.1563667 6.287305E-06
vn 0.6629798 0.3478912 0.6628947
vn 0.6984832 0.1560672 0.6984012
vn -0.9375613 0.3478198 3.75852E-06
vn -0.698437 0.1562768 -0.6984005
vn 0.9375316 0.3479 3.748414E-06
vn 0.9877585 0.1559907 6.285138E-06
vn -0.6630023 0.3478235 -0.6629079
vn -0.0001146041 0.1561781 -0.987729
vn 0.6629885 0.3479076 -0.6628775
vn 0.6984721 0.1561183 -0.6984007
vn -9.622515E-05 0.347842 -0.9375532
vn -4.600813E-05 0.7375191 0.6753262
vn 0.477423 0.7376059 0.4774986
vn -4.430349E-06 1 7.238557E-06
vn -0.4776465 0.7374526 0.4775116
vn 0.6751937 0.7376405 0
vn -0.6754609 0.7373958 0
vn 0.4774382 0.7376024 -0.4774887
vn -0.4776618 0.7374492 -0.4775018
vn -4.598845E-05 0.7375076 -0.6753387
g props_18_0
f 3/3/3 2/2/2 1/1/1
f 4/4/4 3/3/3 1/1/1
f 5/5/5 3/3/3 4/4/4
f 6/6/6 5/5/5 4/4/4
f 7/7/7 5/5/5 6/6/6
f 8/8/8 7/7/7 6/6/6
f 9/9/9 7/7/7 8/8/8
f 10/10/10 9/9/9 8/8/8
f 11/11/11 9/9/9 10/10/10
f 12/12/12 11/11/11 10/10/10
f 13/13/13 11/11/11 12/12/12
f 14/14/14 13/13/13 12/12/12
f 15/15/15 13/13/13 14/14/14
f 16/16/16 15/15/15 14/14/14
f 17/17/17 15/15/15 16/16/16
f 18/18/18 17/17/17 16/16/16
f 21/21/21 20/20/20 19/19/19
f 22/22/22 21/21/21 19/19/19
f 23/23/23 21/21/21 22/22/22
f 24/24/24 23/23/23 22/22/22
f 25/25/25 23/23/23 24/24/24
f 26/26/26 25/25/25 24/24/24
f 27/27/27 25/25/25 26/26/26
f 28/28/28 27/27/27 26/26/26
f 29/29/29 27/27/27 28/28/28
f 30/30/30 29/29/29 28/28/28
f 31/31/31 29/29/29 30/30/30
f 32/32/32 31/31/31 30/30/30
f 33/33/33 31/31/31 32/32/32
f 34/34/34 33/33/33 32/32/32
f 35/35/35 33/33/33 34/34/34
f 36/36/36 35/35/35 34/34/34
f 39/39/39 38/38/38 37/37/37
f 38/38/38 40/40/40 37/37/37
f 37/37/37 40/40/40 41/41/41
f 40/40/40 42/42/42 41/41/41
f 41/41/41 42/42/42 43/43/43
f 42/42/42 44/44/44 43/43/43
f 43/43/43 44/44/44 45/45/45
f 44/44/44 46/46/46 45/45/45
f 45/45/45 46/46/46 47/47/47
f 46/46/46 48/48/48 47/47/47
f 47/47/47 48/48/48 49/49/49
f 48/48/48 50/50/50 49/49/49
f 49/49/49 50/50/50 51/51/51
f 50/50/50 52/52/52 51/51/51
f 51/51/51 52/52/52 53/53/53
f 52/52/52 54/54/54 53/53/53
f 57/57/57 56/56/56 55/55/55
f 58/58/58 57/57/57 55/55/55
f 59/59/59 57/57/57 58/58/58
f 55/55/55 60/60/60 58/58/58
f 61/61/61 59/59/59 58/58/58
f 62/62/62 59/59/59 61/61/61
f 60/60/60 63/63/63 58/58/58
f 58/58/58 63/63/63 61/61/61
f 64/64/64 62/62/62 61/61/61
f 65/65/65 62/62/62 64/64/64
f 66/66/66 65/65/65 64/64/64
f 67/67/67 63/63/63 60/60/60
f 68/68/68 67/67/67 60/60/60
f 67/67/67 68/68/68 69/69/69
f 70/70/70 67/67/67 69/69/69
f 63/63/63 71/71/71 61/61/61
f 61/61/61 71/71/71 64/64/64
f 63/63/63 67/67/67 71/71/71
f 64/64/64 72/72/72 66/66/66
f 71/71/71 72/72/72 64/64/64
f 72/72/72 73/73/73 66/66/66
f 74/74/74 67/67/67 70/70/70
f 67/67/67 74/74/74 71/71/71
f 71/71/71 74/74/74 72/72/72
f 75/75/75 74/74/74 70/70/70
f 73/73/73 72/72/72 76/76/76
f 74/74/74 76/76/76 72/72/72
f 76/76/76 74/74/74 75/75/75
f 77/77/77 73/73/73 76/76/76
f 78/78/78 76/76/76 75/75/75
f 77/77/77 76/76/76 78/78/78
f 79/79/79 77/77/77 78/78/78
f 82/82/82 81/81/81 80/80/80
f 83/83/83 82/82/82 80/80/80
f 86/86/86 85/85/85 84/84/84
f 87/87/87 86/86/86 84/84/84
f 90/90/90 89/89/89 88/88/88
f 88/88/88 89/89/89 91/91/91
f 92/92/92 89/89/89 90/90/90
f 91/91/91 89/89/89 93/93/93
f 94/94/94 89/89/89 92/92/92
f 93/93/93 89/89/89 95/95/95
f 96/96/96 89/89/89 94/94/94
f 95/95/95 89/89/89 96/96/96
f 99/99/99 98/98/98 97/97/97
f 100/100/100 99/99/99 97/97/97
f 97/97/97 98/98/98 101/101/101
f 102/102/102 99/99/99 100/100/100
f 98/98/98 103/103/103 101/101/101
f 104/104/104 102/102/102 100/100/100
f 101/101/101 103/103/103 105/105/105
f 106/106/106 102/102/102 104/104/104
f 103/103/103 107/107/107 105/105/105
f 108/108/108 106/106/106 104/104/104
f 105/105/105 107/107/107 109/109/109
f 110/110/110 106/106/106 108/108/108
f 107/107/107 111/111/111 109/109/109
f 112/112/112 110/110/110 108/108/108
f 109/109/109 111/111/111 112/112/112
f 111/111/111 110/110/110 112/112/112
f 115/115/115 114/114/114 113/113/113
f 116/116/116 115/115/115 113/113/113
f 117/117/117 115/115/115 116/116/116
f 113/113/113 114/114/114 118/118/118
f 114/114/114 119/119/119 118/118/118
f 120/120/120 117/117/117 116/116/116
f 121/121/121 117/117/117 120/120/120
f 118/118/118 119/119/119 122/122/122
f 119/119/119 123/123/123 122/122/122
f 124/124/124 121/121/121 120/120/120
f 125/125/125 121/121/121 124/124/124
f 122/122/122 123/123/123 126/126/126
f 123/123/123 127/127/127 126/126/126
f 127/127/127 125/125/125 128/128/128
f 128/128/128 125/125/125 124/124/124
f 126/126/126 127/127/127 128/128/128
f 116/116/116 113/113/113 129/129/129
f 113/113/113 118/118/118 130/130/130
f 129/129/129 113/113/113 130/130/130
f 130/130/130 131/131/131 129/129/129
f 132/132/132 116/116/116 129/129/129
f 120/120/120 116/116/116 132/132/132
f 129/129/129 131/131/131 132/132/132
f 130/130/130 118/118/118 133/133/133
f 118/118/118 122/122/122 133/133/133
f 133/133/133 131/131/131 130/130/130
f 134/134/134 120/120/120 132/132/132
f 124/124/124 120/120/120 134/134/134
f 132/132/132 131/131/131 134/134/134
f 133/133/133 122/122/122 135/135/135
f 122/122/122 126/126/126 135/135/135
f 135/135/135 131/131/131 133/133/133
f 136/136/136 124/124/124 134/134/134
f 134/134/134 131/131/131 136/136/136
f 128/128/128 124/124/124 136/136/136
f 126/126/126 128/128/128 137/137/137
f 135/135/135 126/126/126 137/137/137
f 137/137/137 131/131/131 135/135/135
f 137/137/137 128/128/128 136/136/136
f 136/136/136 131/131/131 137/137/137
