g props_31
v -0.07119995 0.059323 0.17155
v 0.07119019 0.059323 0.17155
v 0.07119019 -0.083073 0.17155
v -0.07119995 -0.083073 0.17155
v -0.07119995 -0.083073 0.17155
v -0.07119995 0.059323 0.065435
v -0.07119995 0.059323 0.17155
v -0.07119995 -0.083073 0.036745
v -0.07119995 0.059323 0.036745
v -0.07119995 0.097747 0.065435
v -0.07119995 0.097747 0.036745
v -0.07119995 -0.083073 0.17155
v 0.07119019 -0.083073 0.17155
v 0.07119019 -0.083073 0.036745
v -0.07119995 -0.083073 0.036745
v -0.03674927 0.019684 0.065435
v 0.03676025 0.019684 0.065435
v 0.03676025 0.019684 0.113602
v -0.03674927 0.019684 0.113602
v 0.07119019 0.097747 0.065435
v -0.07119995 0.097747 0.065435
v -0.07119995 0.097747 0.036745
v 0.07119019 0.097747 0.036745
v 0.07119019 0.097747 0.036745
v 0.07119019 0.059323 0.065435
v 0.07119019 0.097747 0.065435
v 0.07119019 0.059323 0.036745
v 0.07119019 -0.083073 0.036745
v 0.07119019 -0.083073 0.17155
v 0.07119019 0.059323 0.17155
v 0.03676025 0.059323 0.065435
v 0.07119019 0.059323 0.065435
v 0.07119019 0.059323 0.17155
v 0.03676025 0.059323 0.113602
v -0.03674927 0.059323 0.113602
v -0.07119995 0.059323 0.17155
v -0.07119995 0.059323 0.065435
v -0.03674927 0.059323 0.065435
v 0.03676025 0.059323 0.065435
v 0.07119019 0.097747 0.065435
v 0.07119019 0.059323 0.065435
v -0.07119995 0.097747 0.065435
v -0.03674927 0.059323 0.065435
v -0.07119995 0.059323 0.065435
v -0.03674927 0.019684 0.065435
v -0.03674927 0.059323 0.065435
v 0.03676025 0.059323 0.065435
v 0.03676025 0.019684 0.065435
v -0.03674927 0.019684 0.113602
v -0.03674927 0.059323 0.113602
v -0.03674927 0.059323 0.065435
v -0.03674927 0.019684 0.065435
v 0.02447021 0.031978 0.124626
v 0.02447021 0.047029 0.124626
v -0.02445923 0.047029 0.124626
v -0.02445923 0.031978 0.124626
v 0.03676025 0.019684 0.065435
v 0.03676025 0.059323 0.065435
v 0.03676025 0.059323 0.113602
v 0.03676025 0.019684 0.113602
v 0.02447021 0.047029 0.124626
v 0.02447021 0.047029 0.113602
v -0.02445923 0.047029 0.113602
v -0.02445923 0.047029 0.124626
v 0.02447021 0.031978 0.124626
v 0.02447021 0.031978 0.113602
v 0.02447021 0.047029 0.113602
v 0.02447021 0.047029 0.124626
v -0.02445923 0.031978 0.124626
v -0.02445923 0.031978 0.113602
v 0.02447021 0.031978 0.113602
v 0.02447021 0.031978 0.124626
v -0.02445923 0.047029 0.124626
v -0.02445923 0.047029 0.113602
v -0.02445923 0.031978 0.113602
v -0.02445923 0.031978 0.124626
v -0.07755005 0.059063 -0.057557
v -0.01083008 0.059063 -0.057557
v -0.01083008 0.059063 -0.048625
v -0.07755005 0.059063 -0.048625
v -0.1118396 0.11184 -0.013467
v -0.1118396 0.11184 0.040205
v -0.1118396 -0.111839 0.040205
v -0.1118396 -0.111839 -0.013467
v -0.1118396 0.11184 -0.040326
v -0.1118396 -0.111839 -0.040326
v -0.1118396 0.11184 -0.17155
v -0.1118396 -0.111839 -0.17155
v 0.1118408 -0.11184 -0.013467
v 0.1118408 -0.111839 0.040205
v 0.1118408 0.11184 0.040205
v 0.1118408 0.111839 -0.013467
v 0.1118408 -0.11184 -0.040326
v 0.1118408 0.111839 -0.040326
v 0.1118408 -0.11184 -0.17155
v 0.1118408 0.11184 -0.17155
v -0.07755005 0.11184 -0.17155
v -0.1118396 0.11184 -0.17155
v -0.1118396 -0.111839 -0.17155
v -0.07755005 -0.111839 -0.17155
v -0.01083008 0.11184 -0.17155
v -0.01083008 -0.111839 -0.17155
v 0.1118408 0.11184 -0.17155
v 0.1118408 -0.11184 -0.17155
v -0.07755005 -0.111839 0.040205
v -0.1118396 -0.111839 0.040205
v -0.1118396 0.11184 0.040205
v -0.07755005 0.11184 0.040205
v -0.01083008 -0.111839 0.040205
v -0.01083008 0.11184 0.040205
v 0.1118408 -0.111839 0.040205
v 0.1118408 0.11184 0.040205
v -0.07755005 0.11184 0.040205
v -0.1118396 0.11184 0.040205
v -0.1118396 0.11184 -0.013467
v -0.07755005 0.11184 -0.013467
v -0.01083008 0.11184 0.040205
v -0.1118396 0.11184 -0.040326
v -0.01083008 0.11184 -0.013467
v 0.1118408 0.11184 0.040205
v 0.1118408 0.111839 -0.013467
v -0.07755005 0.11184 -0.040326
v -0.1118396 0.11184 -0.17155
v -0.07755005 0.11184 -0.17155
v -0.01083008 0.11184 -0.040326
v 0.1118408 0.111839 -0.040326
v -0.01083008 0.11184 -0.17155
v 0.1118408 0.11184 -0.17155
v -0.01083008 -0.111839 0.040205
v 0.1118408 -0.111839 0.040205
v 0.1118408 -0.11184 -0.013467
v -0.01083008 -0.111839 -0.013467
v -0.07755005 -0.111839 0.040205
v 0.1118408 -0.11184 -0.040326
v -0.07755005 -0.111839 -0.013467
v -0.1118396 -0.111839 0.040205
v -0.1118396 -0.111839 -0.013467
v -0.01083008 -0.111839 -0.040326
v 0.1118408 -0.11184 -0.17155
v -0.01083008 -0.111839 -0.17155
v -0.07755005 -0.111839 -0.040326
v -0.1118396 -0.111839 -0.040326
v -0.07755005 -0.111839 -0.17155
v -0.1118396 -0.111839 -0.17155
v -0.01083008 0.059063 -0.048625
v -0.01083008 0.11184 -0.013467
v -0.07755005 0.11184 -0.013467
v -0.07755005 0.059063 -0.048625
v -0.01083008 0.059063 -0.057557
v -0.01083008 0.11184 -0.040326
v -0.01083008 0.11184 -0.013467
v -0.01083008 0.059063 -0.048625
v -0.07755005 0.059063 -0.057557
v -0.07755005 0.11184 -0.040326
v -0.01083008 0.11184 -0.040326
v -0.01083008 0.059063 -0.057557
v -0.07755005 0.059063 -0.048625
v -0.07755005 0.11184 -0.013467
v -0.07755005 0.11184 -0.040326
v -0.07755005 0.059063 -0.057557
v 0.02447021 0.047029 0.113602
v 0.03676025 0.059323 0.113602
v -0.03674927 0.059323 0.113602
v -0.02445923 0.047029 0.113602
v 0.02447021 0.031978 0.113602
v -0.03674927 0.019684 0.113602
v 0.03676025 0.019684 0.113602
v -0.02445923 0.031978 0.113602
vt 0.7475699 0.9257393
vt 0.7830638 0.9257393
vt 0.7830638 0.8902446
vt 0.7475699 0.8902446
vt 0.3321538 0.9802982
vt 0.3586048 0.9448035
vt 0.3321538 0.9448035
vt 0.3657563 0.9802982
vt 0.3657563 0.9448035
vt 0.3586048 0.9352255
vt 0.3657563 0.9352255
vt 0.7475699 0.8902446
vt 0.7830638 0.8902446
vt 0.7830638 0.8566421
vt 0.7475699 0.8566421
vt 0.3145402 0.9726712
vt 0.3145402 0.9543463
vt 0.3025338 0.9543463
vt 0.3025338 0.9726712
vt 0.677979 0.8922989
vt 0.7134729 0.8922989
vt 0.7134729 0.8851475
vt 0.677979 0.8851475
vt 0.8166664 0.9353172
vt 0.8095149 0.9257393
vt 0.8095149 0.9353172
vt 0.8166664 0.9257393
vt 0.8166664 0.8902446
vt 0.7830638 0.8902446
vt 0.7830638 0.9257393
vt 0.6865623 0.9018768
vt 0.677979 0.9018768
vt 0.677979 0.9283278
vt 0.6865623 0.9138833
vt 0.7048872 0.9138833
vt 0.7134729 0.9283278
vt 0.7134729 0.9018768
vt 0.7048872 0.9018768
vt 0.6865623 0.9018768
vt 0.677979 0.8922989
vt 0.677979 0.9018768
vt 0.7134729 0.8922989
vt 0.7048872 0.9018768
vt 0.7134729 0.9018768
vt 0.3145402 0.9726712
vt 0.324421 0.9726712
vt 0.324421 0.9543463
vt 0.3145402 0.9543463
vt 0.3025338 0.9726712
vt 0.3025338 0.9825519
vt 0.3145402 0.9825519
vt 0.3145402 0.9726712
vt 0.3526555 0.3804713
vt 0.3564073 0.3804713
vt 0.3564073 0.3682756
vt 0.3526555 0.3682756
vt 0.3145402 0.9543463
vt 0.3145402 0.9444656
vt 0.3025338 0.9444656
vt 0.3025338 0.9543463
vt 0.3564073 0.3804713
vt 0.3591552 0.3804713
vt 0.3591552 0.3682756
vt 0.3564073 0.3682756
vt 0.3526555 0.3804713
vt 0.3526555 0.3832192
vt 0.3564073 0.3832192
vt 0.3564073 0.3804713
vt 0.3526555 0.3682756
vt 0.3499076 0.3682756
vt 0.3499076 0.3804713
vt 0.3526555 0.3804713
vt 0.3564073 0.3682756
vt 0.3564073 0.3655277
vt 0.3526555 0.3655277
vt 0.3526555 0.3682756
vt 0.6255269 0.01858375
vt 0.6255269 0.001953125
vt 0.6233004 0.001953125
vt 0.6233004 0.01858375
vt 0.5653574 0.02981664
vt 0.5558973 0.0392768
vt 0.5953226 0.07870217
vt 0.6047828 0.06924202
vt 0.5700916 0.0250825
vt 0.6095169 0.06450788
vt 0.5932209 0.001953125
vt 0.6326463 0.0413785
vt 0.5464369 0.1275882
vt 0.5558969 0.1181279
vt 0.5164715 0.07870253
vt 0.5070115 0.08816286
vt 0.5417028 0.1323224
vt 0.5022774 0.092897
vt 0.5185734 0.1554518
vt 0.4791479 0.1160262
vt 0.4205759 0.8665259
vt 0.4205759 0.8579768
vt 0.36482 0.857977
vt 0.36482 0.8665262
vt 0.420576 0.8831565
vt 0.3648201 0.8831568
vt 0.4205761 0.9137332
vt 0.36482 0.9137334
vt 0.5892775 0.08474732
vt 0.5953226 0.07870217
vt 0.5558973 0.0392768
vt 0.5498521 0.04532194
vt 0.5775179 0.09650695
vt 0.5380925 0.05708157
vt 0.5558969 0.1181279
vt 0.5164715 0.07870253
vt 0.5498521 0.04532194
vt 0.5558973 0.0392768
vt 0.5464371 0.02981664
vt 0.540392 0.03586178
vt 0.5380925 0.05708157
vt 0.541703 0.0250825
vt 0.5286323 0.04762141
vt 0.5164715 0.07870253
vt 0.5070114 0.06924237
vt 0.5356578 0.03112765
vt 0.5185736 0.001953125
vt 0.5125284 0.007998271
vt 0.5238982 0.04288728
vt 0.5022772 0.06450823
vt 0.5007688 0.0197579
vt 0.4791479 0.04137886
vt 0.5775179 0.09650695
vt 0.5558969 0.1181279
vt 0.5653571 0.1275881
vt 0.586978 0.1059671
vt 0.5892775 0.08474732
vt 0.5700912 0.1323222
vt 0.5987377 0.09420748
vt 0.5953226 0.07870217
vt 0.6047828 0.08816233
vt 0.5917122 0.1107012
vt 0.5932206 0.1554516
vt 0.6148415 0.1338306
vt 0.6034718 0.09894161
vt 0.6095169 0.09289647
vt 0.6266012 0.122071
vt 0.6326463 0.1160258
vt 0.7261964 0.9086518
vt 0.7418856 0.9067231
vt 0.7398565 0.8902168
vt 0.7241672 0.8921454
vt 0.7251973 0.9106415
vt 0.7388814 0.9127063
vt 0.7418856 0.9067231
vt 0.7261964 0.9086518
vt 0.722716 0.927086
vt 0.7364001 0.9291508
vt 0.7388814 0.9127063
vt 0.7251973 0.9106415
vt 0.7241672 0.8921454
vt 0.7398565 0.8902168
vt 0.7354926 0.8851393
vt 0.722716 0.8904569
vt 0.2957175 0.9574111
vt 0.2926531 0.9543463
vt 0.2926531 0.9726712
vt 0.2957175 0.9696067
vt 0.2994693 0.9574111
vt 0.3025338 0.9726712
vt 0.3025338 0.9543463
vt 0.2994693 0.9696067
vn 0 0 1
vn 0 0 1
vn 0 0 1
vn 0 0 1
vn -1 0 0
vn -1 0 0
vn -1 0 0
vn -1 0 0
vn -1 0 0
vn -1 0 0
vn -1 0 0
vn 0 -1 0
vn 0 -1 0
vn 0 -1 0
vn 0 -1 0
vn 0 1 0
vn 0 1 0
vn 0 1 0
vn 0 1 0
vn 0 1 0
vn 0 1 0
vn 0 1 0
vn 0 1 0
vn 1 0 0
vn 1 0 0
vn 1 0 0
vn 1 0 0
vn 1 0 0
vn 1 0 0
vn 1 0 0
vn 0 1 0
vn 0 1 0
vn 0 1 0
vn 0 1 0
vn 0 1 0
vn 0 1 0
vn 0 1 0
vn 0 1 0
vn 0 0 1
vn 0 0 1
vn 0 0 1
vn 0 0 1
vn 0 0 1
vn 0 0 1
vn 0 0 1
vn 0 0 1
vn 0 0 1
vn 0 0 1
vn 1 0 0
vn 1 0 0
vn 1 0 0
vn 1 0 0
vn 0 0 -1
vn 0 0 -1
vn 0 0 -1
vn 0 0 -1
vn -1 0 0
vn -1 0 0
vn -1 0 0
vn -1 0 0
vn 0 -1 0
vn 0 -1 0
vn 0 -1 0
vn 0 -1 0
vn -1 0 0
vn -1 0 0
vn -1 0 0
vn -1 0 0
vn 0 1 0
vn 0 1 0
vn 0 1 0
vn 0 1 0
vn 1 0 0
vn 1 0 0
vn 1 0 0
vn 1 0 0
vn 0 1 0
vn 0 1 0
vn 0 1 0
vn 0 1 0
vn -1 0 0
vn -1 0 0
vn -1 0 0
vn -1 0 0
vn -1 0 0
vn -1 0 0
vn -1 0 0
vn -1 0 0
vn 1 0 0
vn 1 0 0
vn 1 0 0
vn 1 0 0
vn 1 0 0
vn 1 0 0
vn 1 0 0
vn 1 0 0
vn 0 0 -1
vn 0 0 -1
vn 0 0 -1
vn 0 0 -1
vn 0 0 -1
vn 0 0 -1
vn 0 0 -1
vn 0 0 -1
vn 0 0 1
vn 0 0 1
vn 0 0 1
vn 0 0 1
vn 0 0 1
vn 0 0 1
vn 0 0 1
vn 0 0 1
vn 0 1 0
vn 0 1 0
vn 0 1 0
vn 0 1 0
vn 2.040741E-06 1 -4.664248E-06
vn 0 1 0
vn 4.081482E-06 1 -3.109499E-06
vn 4.081482E-06 1 -9.328496E-06
vn 6.122222E-06 1 -4.664248E-06
vn 0 1 0
vn 0 1 0
vn 0 1 0
vn 4.081482E-06 1 1.271818E-06
vn 6.122222E-06 1 1.907727E-06
vn 2.040741E-06 1 1.907727E-06
vn 4.081482E-06 1 3.815453E-06
vn -2.040741E-06 -1 4.664248E-06
vn -4.081482E-06 -1 9.328496E-06
vn -6.122222E-06 -1 4.664248E-06
vn -3.061111E-06 -1 2.332124E-06
vn 0 -1 0
vn -8.162963E-06 -1 0
vn 0 -1 0
vn 0 -1 0
vn 0 -1 0
vn -4.081482E-06 -1 0
vn -8.162964E-06 -1 0
vn -4.081482E-06 -1 0
vn 0 -1 0
vn 0 -1 0
vn 0 -1 0
vn 0 -1 0
vn 0 0.554409 -0.8322443
vn 0 0.554409 -0.8322443
vn 0 0.554409 -0.8322443
vn 0 0.554409 -0.8322443
vn -1 0 0
vn -1 0 0
vn -1 0 0
vn -1 0 0
vn 0 -0.3103642 0.9506177
vn 0 -0.3103642 0.9506177
vn 0 -0.3103642 0.9506177
vn 0 -0.3103642 0.9506177
vn 1 0 0
vn 1 0 0
vn 1 0 0
vn 1 0 0
vn 0 0 -1
vn 0 0 -1
vn 0 0 -1
vn 0 0 -1
vn 0 0 -1
vn 0 0 -1
vn 0 0 -1
vn 0 0 -1
g props_31_0
f 3/3/3 2/2/2 1/1/1
f 4/4/4 3/3/3 1/1/1
f 7/7/7 6/6/6 5/5/5
f 6/6/6 8/8/8 5/5/5
f 9/9/9 8/8/8 6/6/6
f 9/9/9 6/6/6 10/10/10
f 11/11/11 9/9/9 10/10/10
f 14/14/14 13/13/13 12/12/12
f 15/15/15 14/14/14 12/12/12
f 18/18/18 17/17/17 16/16/16
f 19/19/19 18/18/18 16/16/16
f 22/22/22 21/21/21 20/20/20
f 23/23/23 22/22/22 20/20/20
f 26/26/26 25/25/25 24/24/24
f 25/25/25 27/27/27 24/24/24
f 27/27/27 25/25/25 28/28/28
f 28/28/28 25/25/25 29/29/29
f 25/25/25 30/30/30 29/29/29
f 33/33/33 32/32/32 31/31/31
f 34/34/34 33/33/33 31/31/31
f 33/33/33 34/34/34 35/35/35
f 36/36/36 33/33/33 35/35/35
f 37/37/37 36/36/36 35/35/35
f 38/38/38 37/37/37 35/35/35
f 41/41/41 40/40/40 39/39/39
f 39/39/39 40/40/40 42/42/42
f 43/43/43 39/39/39 42/42/42
f 44/44/44 43/43/43 42/42/42
f 47/47/47 46/46/46 45/45/45
f 48/48/48 47/47/47 45/45/45
f 51/51/51 50/50/50 49/49/49
f 52/52/52 51/51/51 49/49/49
f 55/55/55 54/54/54 53/53/53
f 56/56/56 55/55/55 53/53/53
f 59/59/59 58/58/58 57/57/57
f 60/60/60 59/59/59 57/57/57
f 63/63/63 62/62/62 61/61/61
f 64/64/64 63/63/63 61/61/61
f 67/67/67 66/66/66 65/65/65
f 68/68/68 67/67/67 65/65/65
f 71/71/71 70/70/70 69/69/69
f 72/72/72 71/71/71 69/69/69
f 75/75/75 74/74/74 73/73/73
f 76/76/76 75/75/75 73/73/73
f 79/79/79 78/78/78 77/77/77
f 80/80/80 79/79/79 77/77/77
f 83/83/83 82/82/82 81/81/81
f 84/84/84 83/83/83 81/81/81
f 84/84/84 81/81/81 85/85/85
f 86/86/86 84/84/84 85/85/85
f 85/85/85 87/87/87 86/86/86
f 87/87/87 88/88/88 86/86/86
f 91/91/91 90/90/90 89/89/89
f 92/92/92 91/91/91 89/89/89
f 92/92/92 89/89/89 93/93/93
f 94/94/94 92/92/92 93/93/93
f 93/93/93 95/95/95 94/94/94
f 95/95/95 96/96/96 94/94/94
f 99/99/99 98/98/98 97/97/97
f 100/100/100 99/99/99 97/97/97
f 100/100/100 97/97/97 101/101/101
f 102/102/102 100/100/100 101/101/101
f 101/101/101 103/103/103 102/102/102
f 103/103/103 104/104/104 102/102/102
f 107/107/107 106/106/106 105/105/105
f 108/108/108 107/107/107 105/105/105
f 108/108/108 105/105/105 109/109/109
f 110/110/110 108/108/108 109/109/109
f 109/109/109 111/111/111 110/110/110
f 111/111/111 112/112/112 110/110/110
f 115/115/115 114/114/114 113/113/113
f 116/116/116 115/115/115 113/113/113
f 113/113/113 117/117/117 116/116/116
f 118/118/118 115/115/115 116/116/116
f 117/117/117 119/119/119 116/116/116
f 117/117/117 120/120/120 119/119/119
f 120/120/120 121/121/121 119/119/119
f 122/122/122 118/118/118 116/116/116
f 123/123/123 118/118/118 122/122/122
f 124/124/124 123/123/123 122/122/122
f 119/119/119 121/121/121 125/125/125
f 124/124/124 122/122/122 125/125/125
f 121/121/121 126/126/126 125/125/125
f 127/127/127 124/124/124 125/125/125
f 125/125/125 126/126/126 127/127/127
f 126/126/126 128/128/128 127/127/127
f 131/131/131 130/130/130 129/129/129
f 132/132/132 131/131/131 129/129/129
f 129/129/129 133/133/133 132/132/132
f 134/134/134 131/131/131 132/132/132
f 133/133/133 135/135/135 132/132/132
f 133/133/133 136/136/136 135/135/135
f 136/136/136 137/137/137 135/135/135
f 138/138/138 134/134/134 132/132/132
f 132/132/132 135/135/135 138/138/138
f 139/139/139 134/134/134 138/138/138
f 140/140/140 139/139/139 138/138/138
f 135/135/135 137/137/137 141/141/141
f 135/135/135 141/141/141 138/138/138
f 140/140/140 138/138/138 141/141/141
f 137/137/137 142/142/142 141/141/141
f 143/143/143 140/140/140 141/141/141
f 141/141/141 142/142/142 143/143/143
f 142/142/142 144/144/144 143/143/143
f 147/147/147 146/146/146 145/145/145
f 148/148/148 147/147/147 145/145/145
f 151/151/151 150/150/150 149/149/149
f 152/152/152 151/151/151 149/149/149
f 155/155/155 154/154/154 153/153/153
f 156/156/156 155/155/155 153/153/153
f 159/159/159 158/158/158 157/157/157
f 160/160/160 159/159/159 157/157/157
f 163/163/163 162/162/162 161/161/161
f 164/164/164 163/163/163 161/161/161
f 161/161/161 162/162/162 165/165/165
f 166/166/166 163/163/163 164/164/164
f 162/162/162 167/167/167 165/165/165
f 168/168/168 166/166/166 164/164/164
f 165/165/165 167/167/167 168/168/168
f 167/167/167 166/166/166 168/168/168
