g props_29
v -0.07261962 0.1853555 0.026038
v 0.03157105 0.1853545 0.026038
v 0.03157105 0.2230795 0.026038
v -0.07261962 0.2230805 0.026038
v -0.07261962 0.2230805 0.115893
v -0.07261962 0.2230805 0.026038
v 0.03157105 0.2230795 0.026038
v 0.03157105 0.2230805 0.115893
v -0.07261962 0.1853555 0.115893
v -0.07261962 0.1853555 0.026038
v -0.07261962 0.2230805 0.026038
v -0.07261962 0.2230805 0.115893
v 0.03157105 0.2230805 0.115893
v 0.03157105 0.2230795 0.026038
v 0.03157105 0.1853545 0.026038
v 0.03157105 0.1853555 0.115893
v 0.03157105 0.2230805 0.115893
v 0.03157105 0.1853555 0.115893
v -0.07261962 0.1853555 0.115893
v -0.07261962 0.2230805 0.115893
v -0.1969897 0.1968365 0.171936
v -0.1969897 0.1968365 -0.363477
v 0.1724902 0.1968355 -0.363477
v 0.1724902 0.1968365 0.171936
v -0.1969897 0.1529275 0.171936
v -0.1969897 0.1529275 -0.363477
v -0.1969897 0.1968365 -0.363477
v -0.1969897 0.1968365 0.171936
v 0.1724902 0.1529275 0.171936
v 0.1724902 0.1529265 -0.363477
v -0.1969897 0.1529275 -0.363477
v -0.1969897 0.1529275 0.171936
v 0.1724902 0.1968365 0.171936
v 0.1724902 0.1968355 -0.363477
v 0.1724902 0.1529265 -0.363477
v 0.1724902 0.1529275 0.171936
v 0.1724902 0.1968365 0.171936
v 0.1724902 0.1529275 0.171936
v -0.1969897 0.1529275 0.171936
v -0.1969897 0.1968365 0.171936
v -0.07261962 -0.3822255 0.026038
v 0.03157105 -0.3822255 0.026038
v 0.03157105 -0.3445005 0.026038
v -0.07261962 -0.3445005 0.026038
v -0.07261962 -0.3445005 0.115893
v -0.07261962 -0.3445005 0.026038
v 0.03157105 -0.3445005 0.026038
v 0.03157105 -0.3445005 0.115893
v -0.07261962 -0.3822255 0.115893
v -0.07261962 -0.3822255 0.026038
v -0.07261962 -0.3445005 0.026038
v -0.07261962 -0.3445005 0.115893
v 0.03157105 -0.3445005 0.115893
v 0.03157105 -0.3445005 0.026038
v 0.03157105 -0.3822255 0.026038
v 0.03157105 -0.3822255 0.115893
v 0.03157105 -0.3445005 0.115893
v 0.03157105 -0.3822255 0.115893
v -0.07261962 -0.3822255 0.115893
v -0.07261962 -0.3445005 0.115893
v -0.1969897 -0.3707445 0.171936
v -0.1969897 -0.3707445 -0.363477
v 0.1724902 -0.3707445 -0.363477
v 0.1724902 -0.3707445 0.171936
v -0.1969897 -0.4146535 0.171936
v -0.1969897 -0.4146535 -0.363477
v -0.1969897 -0.3707445 -0.363477
v -0.1969897 -0.3707445 0.171936
v 0.1724902 -0.4146535 0.171936
v 0.1724902 -0.4146535 -0.363477
v -0.1969897 -0.4146535 -0.363477
v -0.1969897 -0.4146535 0.171936
v 0.1724902 -0.3707445 0.171936
v 0.1724902 -0.3707445 -0.363477
v 0.1724902 -0.4146535 -0.363477
v 0.1724902 -0.4146535 0.171936
v 0.1724902 -0.3707445 0.171936
v 0.1724902 -0.4146535 0.171936
v -0.1969897 -0.4146535 0.171936
v -0.1969897 -0.3707445 0.171936
vt 0.9309508 0.3510908
vt 0.930951 0.3251198
vt 0.9215474 0.3251198
vt 0.9215471 0.3510908
vt 0.1212518 0.7644452
vt 0.1436497 0.7644452
vt 0.1436497 0.7384743
vt 0.1212518 0.7384743
vt 0.9309508 0.276751
vt 0.9309508 0.254353
vt 0.9215471 0.254353
vt 0.9215471 0.276751
vt 0.9215471 0.3027219
vt 0.9215474 0.3251198
vt 0.930951 0.3251198
vt 0.9309508 0.3027219
vt 0.9215471 0.3027219
vt 0.9309508 0.3027219
vt 0.9309508 0.276751
vt 0.9215471 0.276751
vt 0.5722512 0.6678878
vt 0.5722512 0.5344268
vt 0.4801514 0.5344268
vt 0.4801514 0.6678878
vt 0.5831963 0.6678878
vt 0.5831963 0.5344268
vt 0.5722512 0.5344268
vt 0.5722512 0.6678878
vt 0.6060432 0.49072
vt 0.6060432 0.3572589
vt 0.5139433 0.3572589
vt 0.5139433 0.49072
vt 0.4801514 0.6678878
vt 0.4801514 0.5344268
vt 0.4692063 0.5344268
vt 0.4692063 0.6678878
vt 0.4801514 0.6678878
vt 0.4801514 0.6788329
vt 0.5722512 0.6788329
vt 0.5722512 0.6678878
vt 0.6943303 0.7760956
vt 0.6943303 0.7501247
vt 0.6849267 0.7501247
vt 0.6849267 0.7760956
vt 0.6625287 0.7760956
vt 0.6849267 0.7760956
vt 0.6849267 0.7501247
vt 0.6625287 0.7501247
vt 0.6625287 0.7854992
vt 0.6849267 0.7854992
vt 0.6849267 0.7760956
vt 0.6625287 0.7760956
vt 0.6625287 0.7501247
vt 0.6849267 0.7501247
vt 0.6849266 0.740721
vt 0.6625287 0.7407211
vt 0.6625287 0.7501247
vt 0.6531251 0.7501247
vt 0.6531251 0.7760956
vt 0.6625287 0.7760956
vt 0.09405298 0.7771772
vt 0.09405298 0.6437161
vt 0.001953125 0.6437161
vt 0.001953125 0.7771772
vt 0.5994501 0.7247725
vt 0.5994501 0.5913114
vt 0.588505 0.5913114
vt 0.588505 0.7247725
vt 0.6915499 0.7247725
vt 0.6915499 0.5913114
vt 0.5994501 0.5913114
vt 0.5994501 0.7247725
vt 0.702495 0.7247725
vt 0.702495 0.5913114
vt 0.6915499 0.5913114
vt 0.6915499 0.7247725
vt 0.6915499 0.7357176
vt 0.6915499 0.7247725
vt 0.5994501 0.7247725
vt 0.5994501 0.7357176
vn 0 0 -1
vn 0 0 -1
vn 0 0 -1
vn 0 0 -1
vn 4.851177E-06 1 -5.625144E-06
vn 4.851177E-06 1 -5.625144E-06
vn 4.851177E-06 1 -5.625144E-06
vn 4.851177E-06 1 -5.625144E-06
vn -1 0 0
vn -1 0 0
vn -1 0 0
vn -1 0 0
vn 1 0 0
vn 1 0 0
vn 1 0 0
vn 1 0 0
vn 0 0 1
vn 0 0 1
vn 0 0 1
vn 0 0 1
vn 1.342185E-06 1 -9.262208E-07
vn 1.342185E-06 1 -9.262208E-07
vn 1.342185E-06 1 -9.262208E-07
vn 1.342185E-06 1 -9.262208E-07
vn -1 0 0
vn -1 0 0
vn -1 0 0
vn -1 0 0
vn -1.355091E-06 -1 9.351268E-07
vn -1.355091E-06 -1 9.351268E-07
vn -1.355091E-06 -1 9.351268E-07
vn -1.355091E-06 -1 9.351268E-07
vn 1 0 0
vn 1 0 0
vn 1 0 0
vn 1 0 0
vn 0 0 1
vn 0 0 1
vn 0 0 1
vn 0 0 1
vn 0 0 -1
vn 0 0 -1
vn 0 0 -1
vn 0 0 -1
vn 0 1 0
vn 0 1 0
vn 0 1 0
vn 0 1 0
vn -1 0 0
vn -1 0 0
vn -1 0 0
vn -1 0 0
vn 1 0 0
vn 1 0 0
vn 1 0 0
vn 1 0 0
vn 0 0 1
vn 0 0 1
vn 0 0 1
vn 0 0 1
vn 0 1 0
vn 0 1 0
vn 0 1 0
vn 0 1 0
vn -1 0 0
vn -1 0 0
vn -1 0 0
vn -1 0 0
vn 0 -1 0
vn 0 -1 0
vn 0 -1 0
vn 0 -1 0
vn 1 0 0
vn 1 0 0
vn 1 0 0
vn 1 0 0
vn 0 0 1
vn 0 0 1
vn 0 0 1
vn 0 0 1
g props_29_0
f 3/3/3 2/2/2 1/1/1
f 4/4/4 3/3/3 1/1/1
f 7/7/7 6/6/6 5/5/5
f 8/8/8 7/7/7 5/5/5
f 11/11/11 10/10/10 9/9/9
f 12/12/12 11/11/11 9/9/9
f 15/15/15 14/14/14 13/13/13
f 16/16/16 15/15/15 13/13/13
f 19/19/19 18/18/18 17/17/17
f 20/20/20 19/19/19 17/17/17
f 23/23/23 22/22/22 21/21/21
f 24/24/24 23/23/23 21/21/21
f 27/27/27 26/26/26 25/25/25
f 28/28/28 27/27/27 25/25/25
f 31/31/31 30/30/30 29/29/29
f 32/32/32 31/31/31 29/29/29
f 35/35/35 34/34/34 33/33/33
f 36/36/36 35/35/35 33/33/33
f 39/39/39 38/38/38 37/37/37
f 40/40/40 39/39/39 37/37/37
f 43/43/43 42/42/42 41/41/41
f 44/44/44 43/43/43 41/41/41
f 47/47/47 46/46/46 45/45/45
f 48/48/48 47/47/47 45/45/45
f 51/51/51 50/50/50 49/49/49
f 52/52/52 51/51/51 49/49/49
f 55/55/55 54/54/54 53/53/53
f 56/56/56 55/55/55 53/53/53
f 59/59/59 58/58/58 57/57/57
f 60/60/60 59/59/59 57/57/57
f 63/63/63 62/62/62 61/61/61
f 64/64/64 63/63/63 61/61/61
f 67/67/67 66/66/66 65/65/65
f 68/68/68 67/67/67 65/65/65
f 71/71/71 70/70/70 69/69/69
f 72/72/72 71/71/71 69/69/69
f 75/75/75 74/74/74 73/73/73
f 76/76/76 75/75/75 73/73/73
f 79/79/79 78/78/78 77/77/77
f 80/80/80 79/79/79 77/77/77
