g props_13
v 0.1589752 0.158976 0.007154
v 0.1589752 -0.158976 0.007155
v -0.1589749 -0.158976 0.007155
v -0.1589749 0.158976 0.007154
v -0.1589749 0.158976 0.007154
v -0.1589749 0.158976 -0.031001
v 0.1589752 0.158976 -0.031001
v 0.1589752 0.158976 0.007154
v -0.1589749 -0.158976 0.007155
v -0.1589749 -0.158976 -0.031
v -0.1589749 0.158976 -0.031001
v -0.1589749 0.158976 0.007154
v 0.1589752 -0.158976 0.007155
v 0.1589752 -0.158976 -0.031
v -0.1589749 -0.158976 -0.031
v -0.1589749 -0.158976 0.007155
v 0.1589752 0.158976 0.007154
v 0.1589752 0.158976 -0.031001
v 0.1589752 -0.158976 -0.031
v 0.1589752 -0.158976 0.007155
v 0.09767608 0.0282 0.031
v 0.1562601 0.156874 0.031
v 0.1562601 0.076621 0.031
v -0.008329772 0.156874 0.031
v 0.03764618 -0.030969 0.031
v -0.07104492 0.133106 0.031
v -0.1570508 0.079414 0.031
v -0.02334991 -0.092765 0.031001
v -0.1570508 -0.156913 0.031001
v -0.09686492 -0.156913 0.031001
v -0.1255569 0.129044 0.031
v -0.0856839 0.143725 0.031
v -0.12332 0.156877 0.031
v -0.08544891 0.156871 0.031
v 0.1562601 0.076621 0.031
v 0.1562601 0.076621 -0.016693
v 0.09767608 0.0282 -0.016693
v 0.09767608 0.0282 0.031
v 0.03764618 -0.030969 -0.016693
v 0.03764618 -0.030969 0.031
v -0.02334991 -0.092765 -0.016692
v -0.02334991 -0.092765 0.031001
v -0.09686492 -0.156913 -0.016692
v -0.09686492 -0.156913 0.031001
v -0.1570508 -0.156913 -0.016692
v -0.1570508 -0.156913 0.031001
v 0.1562601 0.156874 0.031
v 0.1562601 0.156874 -0.016693
v 0.1562601 0.076621 -0.016693
v 0.1562601 0.076621 0.031
v -0.008329772 0.156874 0.031
v 0.1562601 0.156874 -0.016693
v 0.1562601 0.156874 0.031
v -0.008329772 0.156874 -0.016693
v -0.07104492 0.133106 0.031
v -0.07104492 0.133106 -0.016693
v -0.08544891 0.156871 0.031
v -0.08544891 0.156871 -0.016693
v -0.0856839 0.143725 -0.016693
v -0.0856839 0.143725 0.031
v -0.12332 0.156877 0.031
v -0.12332 0.156877 -0.016693
v -0.08544891 0.156871 -0.016693
v -0.08544891 0.156871 0.031
v -0.1255569 0.129044 0.031
v -0.12332 0.156877 -0.016693
v -0.12332 0.156877 0.031
v -0.1255569 0.129044 -0.016693
v -0.1570508 0.079414 0.031
v -0.1570508 0.079414 -0.016693
v -0.1570508 -0.156913 0.031001
v -0.1570508 -0.156913 -0.016692
v -0.0856839 0.143725 0.031
v -0.0856839 0.143725 -0.016693
v -0.07104492 0.133106 -0.016693
v -0.07104492 0.133106 0.031
vt 0.5300971 0.4677311
vt 0.5300971 0.3427189
vt 0.4050857 0.3427189
vt 0.4050857 0.4677311
vt 0.4050857 0.4677311
vt 0.4050857 0.4827328
vt 0.5300971 0.4827328
vt 0.5300971 0.4677311
vt 0.4050857 0.3427189
vt 0.3900839 0.342719
vt 0.3900839 0.4677311
vt 0.4050857 0.4677311
vt 0.5300971 0.3427189
vt 0.5300971 0.3277171
vt 0.4050857 0.3277171
vt 0.4050857 0.3427189
vt 0.5300971 0.4677311
vt 0.5450989 0.4677311
vt 0.5450989 0.342719
vt 0.5300971 0.3427189
vt 0.7193763 0.05342162
vt 0.7403789 0.001953125
vt 0.7174232 0.02360212
vt 0.7847786 0.04903275
vt 0.7186452 0.0865541
vt 0.7948979 0.0733835
vt 0.8027407 0.1124687
vt 0.7174232 0.1206716
vt 0.7351413 0.1762202
vt 0.7189055 0.1590044
vt 0.8084411 0.09007198
vt 0.8018844 0.07470629
vt 0.8157991 0.08192389
vt 0.8055813 0.07109282
vt 0.946561 0.4064036
vt 0.965313 0.4064036
vt 0.965313 0.3765202
vt 0.946561 0.3765202
vt 0.965313 0.3433796
vt 0.946561 0.3433796
vt 0.9653126 0.3092403
vt 0.9465607 0.3092403
vt 0.9653126 0.2708787
vt 0.9465607 0.2708787
vt 0.9653126 0.2472148
vt 0.9465607 0.2472148
vt 0.946561 0.4379574
vt 0.965313 0.4379574
vt 0.965313 0.4064036
vt 0.946561 0.4064036
vt 0.946561 0.06666652
vt 0.965313 0.001953125
vt 0.946561 0.001953125
vt 0.965313 0.06666652
vt 0.946561 0.0930362
vt 0.965313 0.0930362
vt 0.946561 0.1053164
vt 0.965313 0.1053164
vt 0.965313 0.1001468
vt 0.946561 0.1001468
vt 0.946561 0.1202065
vt 0.965313 0.1202065
vt 0.965313 0.1053164
vt 0.946561 0.1053164
vt 0.946561 0.1311851
vt 0.965313 0.1202065
vt 0.946561 0.1202065
vt 0.965313 0.1311851
vt 0.946561 0.1542959
vt 0.965313 0.1542959
vt 0.9465607 0.2472148
vt 0.9653126 0.2472148
vt 0.946561 0.1001468
vt 0.965313 0.1001468
vt 0.965313 0.0930362
vt 0.946561 0.0930362
vn 0 3.14565E-06 1
vn 0 3.14565E-06 1
vn 0 3.14565E-06 1
vn 0 3.14565E-06 1
vn 0 1 0
vn 0 1 0
vn 0 1 0
vn 0 1 0
vn -1 0 0
vn -1 0 0
vn -1 0 0
vn -1 0 0
vn 0 -1 0
vn 0 -1 0
vn 0 -1 0
vn 0 -1 0
vn 1 0 0
vn 1 0 0
vn 1 0 0
vn 1 0 0
vn 0 0 1
vn 0 0 1
vn 0 0 1
vn 0 0 1
vn 1.608596E-06 2.837292E-06 1
vn 1.104257E-06 1.947722E-06 1
vn 1.16345E-06 3.838823E-06 1
vn 3.781742E-07 4.367223E-06 1
vn -1.811587E-06 3.775811E-06 1
vn -1.811587E-06 3.775811E-06 1
vn 0 0 1
vn 0 0 1
vn 0 0 1
vn 0 0 1
vn 0.6370811 -0.7707968 0
vn 0.6370811 -0.7707968 0
vn 0.6701722 -0.7422057 0
vn 0.6701722 -0.7422057 0
vn 0.7068564 -0.7073571 0
vn 0.7068564 -0.7073571 0
vn 0.6850601 -0.7284865 0
vn 0.68506 -0.7284866 0
vn 0.3510853 -0.9363434 0
vn 0.3510853 -0.9363434 0
vn 0 -1 0
vn 0 -1 0
vn 1 0 0
vn 1 0 0
vn 1 0 0
vn 1 0 0
vn -0.1801404 0.983641 0
vn 0 1 0
vn 0 1 0
vn -0.1801404 0.983641 0
vn -0.3543869 0.9350989 0
vn -0.3543869 0.9350989 0
vn 0.9998403 -0.01787219 0
vn 0.9998403 -0.01787219 0
vn 0.9998403 -0.01787219 0
vn 0.9998403 -0.01787219 0
vn 0.0001583955 1 0
vn 0.0001583955 1 0
vn 0.0001583955 1 0
vn 0.0001583955 1 0
vn -0.9483428 0.3172473 0
vn -0.9967859 0.08011169 0
vn -0.9967859 0.08011169 0
vn -0.9483428 0.3172473 0
vn -0.9602984 0.2789747 0
vn -0.9602982 0.2789755 0
vn -1 0 0
vn -1 0 0
vn 0.5871757 0.8094595 0
vn 0.5871757 0.8094595 0
vn 0.5871757 0.8094595 0
vn 0.5871757 0.8094595 0
g props_13_0
f 3/3/3 2/2/2 1/1/1
f 4/4/4 3/3/3 1/1/1
f 7/7/7 6/6/6 5/5/5
f 8/8/8 7/7/7 5/5/5
f 11/11/11 10/10/10 9/9/9
f 12/12/12 11/11/11 9/9/9
f 15/15/15 14/14/14 13/13/13
f 16/16/16 15/15/15 13/13/13
f 19/19/19 18/18/18 17/17/17
f 20/20/20 19/19/19 17/17/17
f 23/23/23 22/22/22 21/21/21
f 22/22/22 24/24/24 21/21/21
f 21/21/21 24/24/24 25/25/25
f 24/24/24 26/26/26 25/25/25
f 26/26/26 27/27/27 25/25/25
f 27/27/27 28/28/28 25/25/25
f 28/28/28 27/27/27 29/29/29
f 30/30/30 28/28/28 29/29/29
f 31/31/31 27/27/27 26/26/26
f 32/32/32 31/31/31 26/26/26
f 33/33/33 31/31/31 32/32/32
f 34/34/34 33/33/33 32/32/32
f 37/37/37 36/36/36 35/35/35
f 38/38/38 37/37/37 35/35/35
f 39/39/39 37/37/37 38/38/38
f 40/40/40 39/39/39 38/38/38
f 41/41/41 39/39/39 40/40/40
f 42/42/42 41/41/41 40/40/40
f 43/43/43 41/41/41 42/42/42
f 44/44/44 43/43/43 42/42/42
f 45/45/45 43/43/43 44/44/44
f 46/46/46 45/45/45 44/44/44
f 49/49/49 48/48/48 47/47/47
f 50/50/50 49/49/49 47/47/47
f 53/53/53 52/52/52 51/51/51
f 52/52/52 54/54/54 51/51/51
f 51/51/51 54/54/54 55/55/55
f 54/54/54 56/56/56 55/55/55
f 59/59/59 58/58/58 57/57/57
f 60/60/60 59/59/59 57/57/57
f 63/63/63 62/62/62 61/61/61
f 64/64/64 63/63/63 61/61/61
f 67/67/67 66/66/66 65/65/65
f 66/66/66 68/68/68 65/65/65
f 65/65/65 68/68/68 69/69/69
f 68/68/68 70/70/70 69/69/69
f 69/69/69 70/70/70 71/71/71
f 70/70/70 72/72/72 71/71/71
f 75/75/75 74/74/74 73/73/73
f 76/76/76 75/75/75 73/73/73
