g props_16
v 0.1589752 0.158976 0.0071545
v 0.1589752 -0.158977 0.0071555
v -0.1589752 -0.158977 0.0071555
v -0.1589752 0.158977 0.0071545
v -0.1589752 0.158977 0.0071545
v -0.1589752 0.158977 -0.0310005
v 0.1589752 0.158976 -0.0310005
v 0.1589752 0.158976 0.0071545
v -0.1589752 -0.158977 0.0071555
v -0.1589752 -0.158977 -0.0309995
v -0.1589752 0.158977 -0.0310005
v -0.1589752 0.158977 0.0071545
v 0.1589752 -0.158977 0.0071555
v 0.1589752 -0.158977 -0.0309995
v -0.1589752 -0.158977 -0.0309995
v -0.1589752 -0.158977 0.0071555
v 0.1589752 0.158976 0.0071545
v 0.1589752 0.158976 -0.0310005
v 0.1589752 -0.158977 -0.0309995
v 0.1589752 -0.158977 0.0071555
v 0.1579687 0.005013 0.0310005
v 0.1579687 -0.065961 0.0310005
v 0.1438477 -0.046582 0.0310005
v 0.1445508 -0.003677 0.0310005
v 0.02729492 0.007054 0.0310005
v 0.02085022 -0.040155 0.0310005
v -0.01205078 -0.035143 0.0310005
v -0.004893188 -0.010831 0.0310005
v -0.03634826 -0.007981 0.0310005
v -0.02707031 0.00847 0.0310005
v -0.004893188 -0.010831 0.0310005
v -0.004893188 -0.010831 -0.0166925
v 0.02729492 0.007054 -0.0166925
v 0.02729492 0.007054 0.0310005
v 0.1445508 -0.003677 -0.0166925
v 0.1445508 -0.003677 0.0310005
v 0.1579687 0.005013 -0.0166925
v 0.1579687 0.005013 0.0310005
v -0.02707031 0.00847 0.0310005
v -0.02707031 0.00847 -0.0166925
v -0.004893188 -0.010831 -0.0166925
v -0.004893188 -0.010831 0.0310005
v -0.03634826 -0.007981 0.0310005
v -0.03634826 -0.007981 -0.0166925
v -0.02707031 0.00847 -0.0166925
v -0.02707031 0.00847 0.0310005
v -0.01205078 -0.035143 0.0310005
v -0.03634826 -0.007981 -0.0166925
v -0.03634826 -0.007981 0.0310005
v -0.01205078 -0.035143 -0.0166925
v 0.02085022 -0.040155 0.0310005
v 0.02085022 -0.040155 -0.0166925
v 0.1438477 -0.046582 0.0310005
v 0.1438477 -0.046582 -0.0166925
v 0.1579687 -0.065961 0.0310005
v 0.1579687 -0.065961 -0.0166925
v 0.1438477 -0.046582 -0.0166925
v 0.1438477 -0.046582 0.0310005
v 0.1579687 0.005013 0.0310005
v 0.1579687 0.005013 -0.0166925
v 0.1579687 -0.065961 -0.0166925
v 0.1579687 -0.065961 0.0310005
vt 0.3617512 0.3048506
vt 0.3617512 0.1798381
vt 0.2367398 0.1798381
vt 0.2367398 0.304851
vt 0.2367398 0.304851
vt 0.2367399 0.3198528
vt 0.3617512 0.3198524
vt 0.3617512 0.3048506
vt 0.2367398 0.1798381
vt 0.221738 0.1798381
vt 0.221738 0.3048511
vt 0.2367398 0.304851
vt 0.3617512 0.1798381
vt 0.3617512 0.1648363
vt 0.2367398 0.1648363
vt 0.2367398 0.1798381
vt 0.3617512 0.3048506
vt 0.376753 0.3048507
vt 0.376753 0.1798381
vt 0.3617512 0.1798381
vt 0.875817 0.5862073
vt 0.8483589 0.5812303
vt 0.8548659 0.5880523
vt 0.8715141 0.590789
vt 0.867443 0.636905
vt 0.8487271 0.6360879
vt 0.8483589 0.6491679
vt 0.8582665 0.6481035
vt 0.8571633 0.6604726
vt 0.8641785 0.6580368
vt 0.3994833 0.9185142
vt 0.3807314 0.9185142
vt 0.3807314 0.9329922
vt 0.3994833 0.9329922
vt 0.3807314 0.9792875
vt 0.3994833 0.9792875
vt 0.3807314 0.985573
vt 0.3994833 0.985573
vt 0.3994833 0.9069548
vt 0.3807314 0.9069548
vt 0.3807314 0.9185142
vt 0.3994833 0.9185142
vt 0.3994833 0.8995288
vt 0.3807314 0.8995288
vt 0.3807314 0.9069548
vt 0.3994833 0.9069548
vt 0.3994833 0.8852
vt 0.3807314 0.8995288
vt 0.3994833 0.8995288
vt 0.3807314 0.8852
vt 0.3994833 0.8721148
vt 0.3807314 0.8721148
vt 0.3994833 0.8236885
vt 0.3807314 0.8236885
vt 0.3994833 0.8142608
vt 0.3807314 0.8142608
vt 0.3807314 0.8236885
vt 0.3994833 0.8236885
vt 0.3994833 0.7863553
vt 0.3807314 0.7863553
vt 0.3807314 0.8142608
vt 0.3994833 0.8142608
vn 0 3.145636E-06 1
vn 0 3.145636E-06 1
vn 0 3.145636E-06 1
vn 0 3.145636E-06 1
vn 3.149416E-06 1 0
vn 3.149416E-06 1 0
vn 3.149416E-06 1 0
vn 3.149416E-06 1 0
vn -1 0 0
vn -1 0 0
vn -1 0 0
vn -1 0 0
vn 0 -1 0
vn 0 -1 0
vn 0 -1 0
vn 0 -1 0
vn 1 0 0
vn 1 0 0
vn 1 0 0
vn 1 0 0
vn 0 0 1
vn 0 0 1
vn 0 0 1
vn 0 0 1
vn 0 0 1
vn 0 0 1
vn 0 0 1
vn 0 0 1
vn 0 0 1
vn 0 0 1
vn -0.4856992 0.8741259 0
vn -0.4856992 0.8741259 0
vn -0.2064542 0.9784563 0
vn -0.2064542 0.9784563 0
vn -0.2393779 0.9709265 0
vn -0.2393779 0.9709265 0
vn -0.5435945 0.839348 0
vn -0.5435945 0.839348 0
vn 0.6564992 0.7543268 0
vn 0.6564992 0.7543268 0
vn 0.6564992 0.7543268 0
vn 0.6564992 0.7543268 0
vn -0.871026 0.491237 0
vn -0.871026 0.491237 0
vn -0.871026 0.491237 0
vn -0.871026 0.491237 0
vn -0.4759904 -0.8794505 0
vn -0.7453143 -0.6667132 0
vn -0.7453143 -0.6667132 0
vn -0.4759904 -0.8794505 0
vn -0.1015144 -0.9948341 0
vn -0.1015144 -0.9948341 0
vn -0.05218191 -0.9986376 0
vn -0.05218191 -0.9986376 0
vn -0.8081946 -0.5889154 0
vn -0.8081946 -0.5889154 0
vn -0.8081946 -0.5889154 0
vn -0.8081946 -0.5889154 0
vn 1 0 0
vn 1 0 0
vn 1 0 0
vn 1 0 0
g props_16_0
f 3/3/3 2/2/2 1/1/1
f 4/4/4 3/3/3 1/1/1
f 7/7/7 6/6/6 5/5/5
f 8/8/8 7/7/7 5/5/5
f 11/11/11 10/10/10 9/9/9
f 12/12/12 11/11/11 9/9/9
f 15/15/15 14/14/14 13/13/13
f 16/16/16 15/15/15 13/13/13
f 19/19/19 18/18/18 17/17/17
f 20/20/20 19/19/19 17/17/17
f 23/23/23 22/22/22 21/21/21
f 24/24/24 23/23/23 21/21/21
f 24/24/24 25/25/25 23/23/23
f 25/25/25 26/26/26 23/23/23
f 26/26/26 25/25/25 27/27/27
f 25/25/25 28/28/28 27/27/27
f 27/27/27 28/28/28 29/29/29
f 28/28/28 30/30/30 29/29/29
f 33/33/33 32/32/32 31/31/31
f 34/34/34 33/33/33 31/31/31
f 35/35/35 33/33/33 34/34/34
f 36/36/36 35/35/35 34/34/34
f 37/37/37 35/35/35 36/36/36
f 38/38/38 37/37/37 36/36/36
f 41/41/41 40/40/40 39/39/39
f 42/42/42 41/41/41 39/39/39
f 45/45/45 44/44/44 43/43/43
f 46/46/46 45/45/45 43/43/43
f 49/49/49 48/48/48 47/47/47
f 48/48/48 50/50/50 47/47/47
f 47/47/47 50/50/50 51/51/51
f 50/50/50 52/52/52 51/51/51
f 51/51/51 52/52/52 53/53/53
f 52/52/52 54/54/54 53/53/53
f 57/57/57 56/56/56 55/55/55
f 58/58/58 57/57/57 55/55/55
f 61/61/61 60/60/60 59/59/59
f 62/62/62 61/61/61 59/59/59
