g props_02
v 0.158975 0.158976 0.007154
v 0.158975 -0.158976 0.007155
v -0.158975 -0.158976 0.007155
v -0.158975 0.158976 0.007154
v -0.158975 0.158976 0.007154
v -0.158975 0.158976 -0.031001
v 0.158975 0.158976 -0.031001
v 0.158975 0.158976 0.007154
v -0.158975 -0.158976 0.007155
v -0.158975 -0.158976 -0.031
v -0.158975 0.158976 -0.031001
v -0.158975 0.158976 0.007154
v 0.158975 -0.158976 0.007155
v 0.158975 -0.158976 -0.031
v -0.158975 -0.158976 -0.031
v -0.158975 -0.158976 0.007155
v 0.158975 0.158976 0.007154
v 0.158975 0.158976 -0.031001
v 0.158975 -0.158976 -0.031
v 0.158975 -0.158976 0.007155
v 0.154922 0.091679 0.031
v 0.154961 -0.125539 0.031001
v 0.09714798 -0.128013 0.031001
v 0.112646 0.056033 0.031
v 0.06100597 0.037049 0.031
v -0.011982 -0.123169 0.031001
v -0.09391601 -0.102378 0.031001
v 0.01297798 0.038129 0.031
v -0.155479 -0.072531 0.031001
v -0.02587902 0.049475 0.031
v -0.04514702 0.078519 0.031
v -0.155479 0.156028 0.031
v -0.03169903 0.110414 0.031
v 0.003485985 0.132598 0.031
v 0.05501899 0.156029 0.031
v 0.112646 0.056033 0.031
v 0.154922 0.091679 -0.016693
v 0.154922 0.091679 0.031
v 0.112646 0.056033 -0.016693
v 0.06100597 0.037049 0.031
v 0.06100597 0.037049 -0.016693
v 0.01297798 0.038129 0.031
v 0.01297798 0.038129 -0.016693
v -0.02587902 0.049475 0.031
v -0.02587902 0.049475 -0.016693
v -0.04514702 0.078519 0.031
v -0.04514702 0.078519 -0.016693
v 0.154961 -0.125539 0.031001
v 0.154961 -0.125539 -0.016692
v 0.09714798 -0.128013 -0.016692
v 0.09714798 -0.128013 0.031001
v -0.011982 -0.123169 -0.016692
v -0.011982 -0.123169 0.031001
v -0.09391601 -0.102378 -0.016692
v -0.09391601 -0.102378 0.031001
v -0.155479 -0.072531 -0.016692
v -0.155479 -0.072531 0.031001
v 0.154922 0.091679 0.031
v 0.154922 0.091679 -0.016693
v 0.154961 -0.125539 -0.016692
v 0.154961 -0.125539 0.031001
v 0.05501899 0.156029 0.031
v 0.05501899 0.156029 -0.016693
v 0.003485985 0.132598 -0.016693
v 0.003485985 0.132598 0.031
v -0.03169903 0.110414 -0.016693
v -0.03169903 0.110414 0.031
v -0.04514702 0.078519 -0.016693
v -0.04514702 0.078519 0.031
v -0.155479 0.156028 0.031
v -0.155479 0.156028 -0.016693
v 0.05501899 0.156029 -0.016693
v 0.05501899 0.156029 0.031
v -0.155479 -0.072531 0.031001
v -0.155479 -0.072531 -0.016692
v -0.155479 0.156028 -0.016693
v -0.155479 0.156028 0.031
vt 0.1934053 0.4677338
vt 0.1934053 0.3427217
vt 0.06839391 0.3427217
vt 0.06839391 0.4677338
vt 0.06839391 0.4677338
vt 0.06839391 0.4827356
vt 0.1934053 0.4827356
vt 0.1934053 0.4677338
vt 0.06839391 0.3427217
vt 0.05339215 0.3427217
vt 0.05339215 0.4677339
vt 0.06839391 0.4677338
vt 0.1934053 0.3427217
vt 0.1934053 0.3277199
vt 0.06839391 0.3277199
vt 0.06839391 0.3427217
vt 0.1934053 0.4677338
vt 0.2084071 0.4677339
vt 0.2084071 0.3427217
vt 0.1934053 0.3427217
vt 0.5241474 0.65728
vt 0.4388264 0.6534775
vt 0.4368467 0.6761429
vt 0.5094088 0.6732643
vt 0.5010517 0.6932171
vt 0.4368467 0.7190928
vt 0.4435847 0.7516384
vt 0.5006385 0.712101
vt 0.454235 0.7763403
vt 0.5044177 0.7275615
vt 0.51549 0.7356362
vt 0.5440113 0.7803252
vt 0.5282526 0.73091
vt 0.5375798 0.7174764
vt 0.5476818 0.6976432
vt 0.8483593 0.02369526
vt 0.8671112 0.001953125
vt 0.8483593 0.001953125
vt 0.8671112 0.02369526
vt 0.8483593 0.04532757
vt 0.8671112 0.04532757
vt 0.8483593 0.06421596
vt 0.8671112 0.06421596
vt 0.8483593 0.08013171
vt 0.8671112 0.08013171
vt 0.8483593 0.09383563
vt 0.8671112 0.09383563
vt 0.8483589 0.4445227
vt 0.8671108 0.4445227
vt 0.8671108 0.421771
vt 0.8483589 0.421771
vt 0.8671108 0.3788211
vt 0.8483589 0.3788211
vt 0.8671108 0.3455854
vt 0.8483589 0.3455854
vt 0.8671108 0.3186853
vt 0.8483589 0.3186853
vt 0.8483593 0.5299283
vt 0.8671112 0.5299283
vt 0.8671108 0.4445227
vt 0.8483589 0.4445227
vt 0.8483593 0.1460571
vt 0.8671112 0.1460571
vt 0.8671112 0.1237994
vt 0.8483593 0.1237994
vt 0.8671112 0.1074452
vt 0.8483593 0.1074452
vt 0.8671112 0.09383563
vt 0.8483593 0.09383563
vt 0.8483593 0.2288206
vt 0.8671112 0.2288206
vt 0.8671112 0.1460571
vt 0.8483593 0.1460571
vt 0.8483589 0.3186853
vt 0.8671108 0.3186853
vt 0.8671112 0.2288206
vt 0.8483593 0.2288206
vn 0 3.14565E-06 1
vn 0 3.14565E-06 1
vn 0 3.14565E-06 1
vn 0 3.14565E-06 1
vn 0 1 0
vn 0 1 0
vn 0 1 0
vn 0 1 0
vn -1 0 0
vn -1 0 0
vn -1 0 0
vn -1 0 0
vn 0 -1 0
vn 0 -1 0
vn 0 -1 0
vn 0 -1 0
vn 1 0 0
vn 1 0 0
vn 1 0 0
vn 1 0 0
vn -1.929191E-06 5.065342E-06 1
vn -1.929191E-06 5.065342E-06 1
vn -1.188041E-06 5.532792E-06 1
vn -1.472212E-06 5.353563E-06 1
vn 0 5.984632E-06 1
vn 3.948745E-07 6.010682E-06 1
vn 1.781131E-06 5.761431E-06 1
vn 1.466609E-06 5.880631E-06 1
vn 2.610993E-06 4.769487E-06 1
vn 3.404198E-06 4.476624E-06 1
vn 3.240202E-06 3.546506E-06 1
vn 2.020526E-06 2.876164E-06 1
vn 1.059581E-06 1.508285E-06 1
vn 0 0 1
vn 0 0 1
vn -0.5024257 0.8646203 0
vn -0.6446134 0.7645088 0
vn -0.6446134 0.7645088 0
vn -0.5024257 0.8646203 0
vn -0.1641554 0.9864345 0
vn -0.1641554 0.9864345 0
vn 0.1526897 0.9882741 0
vn 0.1526897 0.9882741 0
vn 0.592835 0.805324 0
vn 0.592835 0.805324 0
vn 0.8333018 0.5528185 0
vn 0.8333018 0.5528185 0
vn 0.04275405 -0.9990857 0
vn 0.04275405 -0.9990857 0
vn -0.0007956063 -0.9999998 0
vn -0.0007956063 -0.9999998 0
vn -0.1459103 -0.9892977 0
vn -0.1459103 -0.9892977 0
vn -0.3428688 -0.9393834 0
vn -0.3428688 -0.9393834 0
vn -0.4362531 -0.8998241 0
vn -0.4362531 -0.8998241 0
vn 1 0.0001795675 0
vn 1 0.0001795674 0
vn 1 0.0001795675 0
vn 1 0.0001795674 0
vn 0.413904 -0.9103205 0
vn 0.413904 -0.9103205 0
vn 0.4747149 -0.8801397 0
vn 0.4747149 -0.8801397 0
vn 0.7624953 -0.6469937 0
vn 0.7624953 -0.6469937 0
vn 0.9214439 -0.3885113 0
vn 0.9214439 -0.3885113 0
vn -4.711784E-06 1 0
vn -4.711784E-06 1 0
vn -4.711784E-06 1 0
vn -4.711784E-06 1 0
vn -1 0 0
vn -1 0 0
vn -1 0 0
vn -1 0 0
g props_02_0
f 3/3/3 2/2/2 1/1/1
f 4/4/4 3/3/3 1/1/1
f 7/7/7 6/6/6 5/5/5
f 8/8/8 7/7/7 5/5/5
f 11/11/11 10/10/10 9/9/9
f 12/12/12 11/11/11 9/9/9
f 15/15/15 14/14/14 13/13/13
f 16/16/16 15/15/15 13/13/13
f 19/19/19 18/18/18 17/17/17
f 20/20/20 19/19/19 17/17/17
f 23/23/23 22/22/22 21/21/21
f 24/24/24 23/23/23 21/21/21
f 23/23/23 24/24/24 25/25/25
f 26/26/26 23/23/23 25/25/25
f 27/27/27 26/26/26 25/25/25
f 28/28/28 27/27/27 25/25/25
f 27/27/27 28/28/28 29/29/29
f 28/28/28 30/30/30 29/29/29
f 30/30/30 31/31/31 29/29/29
f 32/32/32 29/29/29 31/31/31
f 33/33/33 32/32/32 31/31/31
f 34/34/34 32/32/32 33/33/33
f 35/35/35 32/32/32 34/34/34
f 38/38/38 37/37/37 36/36/36
f 37/37/37 39/39/39 36/36/36
f 36/36/36 39/39/39 40/40/40
f 39/39/39 41/41/41 40/40/40
f 40/40/40 41/41/41 42/42/42
f 41/41/41 43/43/43 42/42/42
f 42/42/42 43/43/43 44/44/44
f 43/43/43 45/45/45 44/44/44
f 44/44/44 45/45/45 46/46/46
f 45/45/45 47/47/47 46/46/46
f 50/50/50 49/49/49 48/48/48
f 51/51/51 50/50/50 48/48/48
f 52/52/52 50/50/50 51/51/51
f 53/53/53 52/52/52 51/51/51
f 54/54/54 52/52/52 53/53/53
f 55/55/55 54/54/54 53/53/53
f 56/56/56 54/54/54 55/55/55
f 57/57/57 56/56/56 55/55/55
f 60/60/60 59/59/59 58/58/58
f 61/61/61 60/60/60 58/58/58
f 64/64/64 63/63/63 62/62/62
f 65/65/65 64/64/64 62/62/62
f 66/66/66 64/64/64 65/65/65
f 67/67/67 66/66/66 65/65/65
f 68/68/68 66/66/66 67/67/67
f 69/69/69 68/68/68 67/67/67
f 72/72/72 71/71/71 70/70/70
f 73/73/73 72/72/72 70/70/70
f 76/76/76 75/75/75 74/74/74
f 77/77/77 76/76/76 74/74/74
