g props_36
v 0.1248047 0.1248065 -0.002034
v 0.1248047 -0.1248085 -0.002033
v -0.1248047 -0.1248075 -0.002033
v -0.1248047 0.1248075 -0.002034
v -0.1473853 0.1473865 0.004566
v -0.1473853 0.1473855 -0.013122
v 0.1473853 0.1473855 -0.013121
v 0.1473853 0.1473855 0.004566
v -0.1473853 -0.1473865 0.004566
v -0.1473853 -0.1473865 -0.013121
v -0.1473853 0.1473855 -0.013122
v -0.1473853 0.1473865 0.004566
v 0.1473853 -0.1473865 0.004566
v 0.1473853 -0.1473865 -0.013121
v -0.1473853 -0.1473865 -0.013121
v -0.1473853 -0.1473865 0.004566
v 0.1473853 0.1473855 0.004566
v 0.1473853 0.1473855 -0.013121
v 0.1473853 -0.1473865 -0.013121
v 0.1473853 -0.1473865 0.004566
v -0.1248047 0.1248075 -0.002034
v -0.1248047 0.1248075 0.003925
v 0.1248047 0.1248065 0.003925
v 0.1248047 0.1248065 -0.002034
v -0.1248047 -0.1248075 -0.002033
v -0.1248047 -0.1248075 0.003925
v -0.1248047 0.1248075 0.003925
v -0.1248047 0.1248075 -0.002034
v 0.1248047 -0.1248085 -0.002033
v 0.1248047 -0.1248085 0.003925
v -0.1248047 -0.1248075 0.003925
v -0.1248047 -0.1248075 -0.002033
v 0.1248047 0.1248065 -0.002034
v 0.1248047 0.1248065 0.003925
v 0.1248047 -0.1248085 0.003925
v 0.1248047 -0.1248085 -0.002033
v -0.0560144 -0.0424015 0.013122
v -0.06081543 -0.0325565 0.013122
v -0.05325439 -0.0206515 0.013122
v -0.04387451 -0.0520185 0.013122
v -0.04181518 -0.0133255 0.013122
v -0.0312854 -0.0540805 0.013122
v -0.009305419 -0.0417155 0.013122
v -0.02945434 -0.0620935 0.013122
v -0.02716431 -0.08132549 0.013122
v -0.004945068 -0.0288945 0.013122
v -0.005405273 -0.0229425 0.013122
v 0.0007751465 -0.0142415 0.013122
v -0.04455444 0.009114499 0.013122
v -0.04433472 0.0242235 0.013122
v -0.03723511 0.0388775 0.013122
v 0.01176514 -0.0096615 0.013122
v -0.03059448 0.0537615 0.013122
v -0.01388428 0.0718485 0.013122
v 0.02137573 -0.006915501 0.013122
v 0.02870483 -0.0002755004 0.013122
v 0.03854492 0.005449499 0.013122
v 0.05342529 0.0223915 0.013122
v -0.02921509 0.0656665 0.013122
v 0.0612146 0.0407105 0.013122
v 0.06076538 0.0604015 0.013122
v -0.006104736 0.0851275 0.013122
v -0.0205249 0.0903955 0.013122
v -0.03609497 0.0862735 0.013122
v -0.02532471 0.0945165 0.013122
v -0.03563476 0.0924555 0.013122
v -0.03196533 0.09657749 0.013122
v 0.003754883 0.0883345 0.013121
v 0.006955566 0.08970751 0.013121
v 0.06854492 0.0576535 0.013122
v 0.07175537 0.0487245 0.013122
v 0.06854492 0.0402525 0.013122
v 0.03602539 0.09726351 0.013122
v 0.01473511 0.1013845 0.013122
v 0.006035156 0.09840851 0.013121
v 0.04770508 0.0906245 0.013122
v 0.05480469 0.0778025 0.013122
v 0.06030517 0.0672695 0.013122
v -0.01594482 -0.1017035 0.013122
v -0.006784668 -0.0957505 0.013122
v -0.01044434 -0.1010165 0.013122
v -0.02143433 -0.09781049 0.013122
v -0.008165283 -0.08132549 0.013122
v 0.004895019 -0.0614065 0.013122
v 0.0003149414 -0.08911051 0.013122
v 0.01908569 -0.08155451 0.013122
v 0.01199463 -0.09231649 0.013122
v 0.01908569 -0.0897985 0.013122
v -0.01044434 -0.1010165 0.013122
v -0.01044434 -0.1010165 0.005348
v -0.01594482 -0.1017035 0.005348
v -0.01594482 -0.1017035 0.013122
v -0.02143433 -0.09781049 0.005348
v -0.02143433 -0.09781049 0.013122
v -0.02716431 -0.08132549 0.005348
v -0.02716431 -0.08132549 0.013122
v -0.02945434 -0.0620935 0.005348
v -0.02945434 -0.0620935 0.013122
v -0.0312854 -0.0540805 0.005348
v -0.0312854 -0.0540805 0.013122
v -0.006784668 -0.0957505 0.013122
v -0.01044434 -0.1010165 0.005348
v -0.01044434 -0.1010165 0.013122
v -0.006784668 -0.0957505 0.005348
v -0.008165283 -0.08132549 0.013122
v -0.008165283 -0.08132549 0.005348
v 0.01908569 -0.0897985 0.013122
v 0.01908569 -0.0897985 0.005348
v 0.01199463 -0.09231649 0.005348
v 0.01199463 -0.09231649 0.013122
v 0.0003149414 -0.08911051 0.005348
v 0.0003149414 -0.08911051 0.013122
v -0.008165283 -0.08132549 0.005348
v -0.008165283 -0.08132549 0.013122
v 0.01908569 -0.08155451 0.013122
v 0.01908569 -0.0897985 0.005348
v 0.01908569 -0.0897985 0.013122
v 0.01908569 -0.08155451 0.005348
v 0.004895019 -0.0614065 0.013122
v 0.004895019 -0.0614065 0.005348
v -0.009305419 -0.0417155 0.013122
v -0.009305419 -0.0417155 0.005348
v 0.06854492 0.0402525 0.013122
v 0.06854492 0.0402525 0.005348
v 0.0612146 0.0407105 0.005347
v 0.0612146 0.0407105 0.013122
v 0.07175537 0.0487245 0.013122
v 0.06854492 0.0402525 0.005348
v 0.06854492 0.0402525 0.013122
v 0.07175537 0.0487245 0.005348
v 0.06854492 0.0576535 0.013122
v 0.06854492 0.0576535 0.005347
v 0.06076538 0.0604015 0.013122
v 0.06076538 0.0604015 0.005347
v 0.06854492 0.0576535 0.005347
v 0.06854492 0.0576535 0.013122
v 0.06030517 0.0672695 0.013122
v 0.06076538 0.0604015 0.005347
v 0.06076538 0.0604015 0.013122
v 0.06030517 0.0672695 0.005347
v 0.05480469 0.0778025 0.013122
v 0.05480469 0.0778025 0.005347
v 0.04770508 0.0906245 0.013122
v 0.04770508 0.0906245 0.005347
v 0.03602539 0.09726351 0.013122
v 0.03602539 0.09726351 0.005347
v 0.01473511 0.1013845 0.013122
v 0.01473511 0.1013845 0.005347
v 0.006035156 0.09840851 0.013121
v 0.006035156 0.09840851 0.005347
v 0.006955566 0.08970751 0.013121
v 0.006955566 0.08970751 0.005347
v 0.006035156 0.09840851 0.005347
v 0.006035156 0.09840851 0.013121
v 0.003754883 0.0883345 0.013121
v 0.006955566 0.08970751 0.005347
v 0.006955566 0.08970751 0.013121
v 0.003754883 0.0883345 0.005347
v -0.006104736 0.0851275 0.013122
v -0.006104736 0.0851275 0.005348
v -0.01388428 0.0718485 0.013122
v -0.01388428 0.0718485 0.005348
v 0.0612146 0.0407105 0.013122
v 0.0612146 0.0407105 0.005347
v 0.05342529 0.0223915 0.005348
v 0.05342529 0.0223915 0.013122
v 0.03854492 0.005449499 0.005348
v 0.03854492 0.005449499 0.013122
v 0.02870483 -0.0002755004 0.005348
v 0.02870483 -0.0002755004 0.013122
v 0.02137573 -0.006915501 0.005348
v 0.02137573 -0.006915501 0.013122
v 0.01176514 -0.0096615 0.005348
v 0.01176514 -0.0096615 0.013122
v 0.0007751465 -0.0142415 0.005348
v 0.0007751465 -0.0142415 0.013122
v -0.005405273 -0.0229425 0.005348
v -0.005405273 -0.0229425 0.013122
v -0.004945068 -0.0288945 0.005348
v -0.004945068 -0.0288945 0.013122
v -0.009305419 -0.0417155 0.005348
v -0.009305419 -0.0417155 0.013122
v -0.03196533 0.09657749 0.013122
v -0.03196533 0.09657749 0.005348
v -0.02532471 0.0945165 0.005348
v -0.02532471 0.0945165 0.013122
v -0.0205249 0.0903955 0.005348
v -0.0205249 0.0903955 0.013122
v -0.01388428 0.0718485 0.005348
v -0.01388428 0.0718485 0.013122
v -0.03563476 0.0924555 0.013122
v -0.03196533 0.09657749 0.005348
v -0.03196533 0.09657749 0.013122
v -0.03563476 0.0924555 0.005348
v -0.03609497 0.0862735 0.013122
v -0.03609497 0.0862735 0.005348
v -0.02921509 0.0656665 0.013122
v -0.02921509 0.0656665 0.005348
v -0.03059448 0.0537615 0.013122
v -0.03059448 0.0537615 0.005348
v -0.03723511 0.0388775 0.013122
v -0.03723511 0.0388775 0.005348
v -0.04433472 0.0242235 0.013122
v -0.04433472 0.0242235 0.005348
v -0.04455444 0.009114499 0.013122
v -0.04455444 0.009114499 0.005348
v -0.04181518 -0.0133255 0.013122
v -0.04181518 -0.0133255 0.005348
v -0.06081543 -0.0325565 0.013122
v -0.06081543 -0.0325565 0.005348
v -0.05325439 -0.0206515 0.005348
v -0.05325439 -0.0206515 0.013122
v -0.04181518 -0.0133255 0.005348
v -0.04181518 -0.0133255 0.013122
v -0.0560144 -0.0424015 0.013122
v -0.06081543 -0.0325565 0.005348
v -0.06081543 -0.0325565 0.013122
v -0.0560144 -0.0424015 0.005348
v -0.04387451 -0.0520185 0.013122
v -0.04387451 -0.0520185 0.005348
v -0.0312854 -0.0540805 0.013122
v -0.0312854 -0.0540805 0.005348
v 0.1473853 0.1473855 0.004566
v 0.1248047 0.1248065 0.003925
v -0.1248047 0.1248075 0.003925
v -0.1473853 0.1473865 0.004566
v 0.1473853 -0.1473865 0.004566
v -0.1248047 -0.1248075 0.003925
v 0.1248047 -0.1248085 0.003925
v -0.1473853 -0.1473865 0.004566
vt 0.07533662 0.8555734
vt 0.07534472 0.7933216
vt 0.0130944 0.7933139
vt 0.0130865 0.8555656
vt 0.006412409 0.8622485
vt 0.006421613 0.8667073
vt 0.0820102 0.8667065
vt 0.08201931 0.8622475
vt 0.006411613 0.78664
vt 0.001953125 0.7866492
vt 0.001953125 0.8622392
vt 0.006412409 0.8622485
vt 0.08201839 0.7866391
vt 0.0820092 0.7821806
vt 0.006420733 0.782181
vt 0.006411613 0.78664
vt 0.08201931 0.8622475
vt 0.0864778 0.8622383
vt 0.08647742 0.7866482
vt 0.08201839 0.7866391
vt 0.0130865 0.8555656
vt 0.01212725 0.8565379
vt 0.07630894 0.8565326
vt 0.07533662 0.8555734
vt 0.0130944 0.7933139
vt 0.01212223 0.7923548
vt 0.01212725 0.8565379
vt 0.0130865 0.8555656
vt 0.07534472 0.7933216
vt 0.07630381 0.7923495
vt 0.01212223 0.7923548
vt 0.0130944 0.7933139
vt 0.07533662 0.8555734
vt 0.07630894 0.8565326
vt 0.07630381 0.7923495
vt 0.07534472 0.7933216
vt 0.165575 0.9709352
vt 0.1672338 0.968766
vt 0.1659728 0.9654847
vt 0.1621356 0.9726875
vt 0.1635367 0.9631311
vt 0.1589581 0.9725717
vt 0.1541951 0.9684681
vt 0.158115 0.9744394
vt 0.1566098 0.9790264
vt 0.153762 0.9651207
vt 0.1541672 0.963689
vt 0.1530849 0.9612585
vt 0.165312 0.9577829
vt 0.166001 0.9540799
vt 0.1649875 0.9501495
vt 0.1506259 0.9595985
vt 0.1640974 0.9461855
vt 0.1609048 0.9409432
vt 0.1484106 0.958454
vt 0.1469478 0.9564708
vt 0.1448242 0.9545873
vt 0.1420214 0.9497148
vt 0.164347 0.9432086
vt 0.1410214 0.9448552
vt 0.1421005 0.9400657
vt 0.1596567 0.9373153
vt 0.1634406 0.9367381
vt 0.1670414 0.9385117
vt 0.1648176 0.9359677
vt 0.1672338 0.9369785
vt 0.1665416 0.9357908
vt 0.1574069 0.9360465
vt 0.1566918 0.9355534
vt 0.1400633 0.9403539
vt 0.1388411 0.9423782
vt 0.1392067 0.9446061
vt 0.1499596 0.9322758
vt 0.1553646 0.9323168
vt 0.1573445 0.9334725
vt 0.1467789 0.9333231
vt 0.1444127 0.9361069
vt 0.1425507 0.93841
vt 0.1528647 0.9834536
vt 0.1509195 0.981548
vt 0.1515551 0.9830151
vt 0.1543974 0.9827725
vt 0.1519661 0.9780909
vt 0.1497561 0.9725807
vt 0.1495114 0.9795759
vt 0.145297 0.9768056
vt 0.1464997 0.9797844
vt 0.1448912 0.9788201
vt 0.9961088 0.4684154
vt 0.9980466 0.4684154
vt 0.9980466 0.4670343
vt 0.9961088 0.4670343
vt 0.9980466 0.465357
vt 0.9961088 0.465357
vt 0.9980466 0.4610065
vt 0.9961088 0.4610065
vt 0.9980466 0.4561788
vt 0.9961088 0.4561788
vt 0.9980466 0.4541297
vt 0.9961088 0.4541297
vt 0.9961088 0.4700142
vt 0.9980466 0.4684154
vt 0.9961088 0.4684154
vt 0.9980466 0.4700142
vt 0.9961088 0.4736262
vt 0.9980466 0.4736262
vt 0.9961088 0.4813895
vt 0.9980466 0.4813895
vt 0.9980466 0.479514
vt 0.9961088 0.479514
vt 0.9980466 0.4764952
vt 0.9961088 0.4764952
vt 0.9980466 0.4736262
vt 0.9961088 0.4736262
vt 0.9961088 0.4834445
vt 0.9980466 0.4813895
vt 0.9961088 0.4813895
vt 0.9980466 0.4834445
vt 0.9961088 0.4895871
vt 0.9980466 0.4895871
vt 0.9961088 0.4956385
vt 0.9980466 0.4956385
vt 0.9961088 0.5263397
vt 0.9980466 0.5263397
vt 0.9980469 0.524508
vt 0.9961088 0.524508
vt 0.9961088 0.5285974
vt 0.9980466 0.5263397
vt 0.9961088 0.5263397
vt 0.9980466 0.5285974
vt 0.9961088 0.530962
vt 0.9980469 0.530962
vt 0.9961088 0.5330194
vt 0.9980469 0.5330194
vt 0.9980469 0.530962
vt 0.9961088 0.530962
vt 0.9961088 0.5347352
vt 0.9980469 0.5330194
vt 0.9961088 0.5330194
vt 0.9980469 0.5347352
vt 0.9961088 0.5376969
vt 0.9980469 0.5376969
vt 0.9961088 0.5413503
vt 0.9980469 0.5413503
vt 0.9961088 0.5446989
vt 0.9980469 0.5446989
vt 0.9961088 0.5501041
vt 0.9980469 0.5501041
vt 0.9961091 0.5523966
vt 0.9980469 0.5523966
vt 0.9961091 0.5545775
vt 0.9980469 0.5545775
vt 0.9980469 0.5523966
vt 0.9961091 0.5523966
vt 0.9961091 0.5554462
vt 0.9980469 0.5545775
vt 0.9961091 0.5545775
vt 0.9980469 0.5554462
vt 0.9961088 0.558029
vt 0.9980466 0.558029
vt 0.9961088 0.5618657
vt 0.9980466 0.5618657
vt 0.9961088 0.524508
vt 0.9980469 0.524508
vt 0.9980466 0.5195466
vt 0.9961088 0.5195466
vt 0.9980466 0.5139255
vt 0.9961088 0.5139255
vt 0.9980466 0.5110869
vt 0.9961088 0.5110869
vt 0.9980466 0.5086227
vt 0.9961088 0.5086227
vt 0.9980466 0.5061292
vt 0.9961088 0.5061292
vt 0.9980466 0.5031623
vt 0.9961088 0.5031623
vt 0.9980466 0.5005017
vt 0.9961088 0.5005017
vt 0.9980466 0.4990137
vt 0.9961088 0.4990137
vt 0.9980466 0.4956385
vt 0.9961088 0.4956385
vt 0.9961088 0.5700872
vt 0.9980466 0.5700872
vt 0.9980466 0.5683542
vt 0.9961088 0.5683542
vt 0.9980466 0.5667763
vt 0.9961088 0.5667763
vt 0.9980466 0.5618657
vt 0.9961088 0.5618657
vt 0.9961088 0.5714618
vt 0.9980466 0.5700872
vt 0.9961088 0.5700872
vt 0.9980466 0.5714618
vt 0.9961088 0.573007
vt 0.9980466 0.573007
vt 0.9961088 0.5784219
vt 0.9980466 0.5784219
vt 0.9961088 0.5814093
vt 0.9980466 0.5814093
vt 0.9961088 0.5854719
vt 0.9980466 0.5854719
vt 0.9961088 0.5895308
vt 0.9980466 0.5895308
vt 0.9961088 0.5932974
vt 0.9980466 0.5932974
vt 0.9961088 0.5989327
vt 0.9980466 0.5989327
vt 0.9961088 0.6058351
vt 0.9980466 0.6058351
vt 0.9980466 0.6023199
vt 0.9961088 0.6023199
vt 0.9980466 0.5989327
vt 0.9961088 0.5989327
vt 0.9961088 0.4470899
vt 0.9980466 0.4443592
vt 0.9961088 0.4443592
vt 0.9980466 0.4470899
vt 0.9961088 0.4509501
vt 0.9980466 0.4509501
vt 0.9961088 0.4541297
vt 0.9980466 0.4541297
vt 0.08201931 0.8622475
vt 0.07630894 0.8565326
vt 0.01212725 0.8565379
vt 0.006412409 0.8622485
vt 0.08201839 0.7866391
vt 0.01212223 0.7923548
vt 0.07630381 0.7923495
vt 0.006411613 0.78664
vn 0 4.006237E-06 1
vn 0 4.006237E-06 1
vn 0 4.006237E-06 1
vn 0 4.006237E-06 1
vn 1.682409E-06 1 -2.803735E-05
vn 1.682409E-06 1 -2.803736E-05
vn 1.682409E-06 1 -2.803735E-05
vn 1.682409E-06 1 -2.803735E-05
vn -1 0 0
vn -1 0 0
vn -1 0 0
vn -1 0 0
vn 0 -1 0
vn 0 -1 0
vn 0 -1 0
vn 0 -1 0
vn 1 0 0
vn 1 0 0
vn 1 0 0
vn 1 0 0
vn -3.973494E-06 -1 0
vn -3.973494E-06 -1 0
vn -3.973494E-06 -1 0
vn -3.973494E-06 -1 0
vn 1 0 0
vn 1 0 0
vn 1 0 0
vn 1 0 0
vn 4.049907E-06 1 0
vn 4.049907E-06 1 0
vn 4.049907E-06 1 0
vn 4.049907E-06 1 0
vn -1 0 0
vn -1 0 0
vn -1 0 0
vn -1 0 0
vn 0 0 1
vn 0 0 1
vn 0 0 1
vn 0 0 1
vn 0 0 1
vn 0 0 1
vn 0 0 1
vn 0 0 1
vn 0 0 1
vn 0 0 1
vn 0 0 1
vn 0 0 1
vn 0 0 1
vn 0 0 1
vn 0 0 1
vn 0 0 1
vn 0 0 1
vn 3.540648E-06 9.575489E-06 1
vn 0 0 1
vn 0 0 1
vn 0 0 1
vn 0 0 1
vn 0 0 1
vn 0 0 1
vn -2.128517E-06 1.223165E-06 1
vn 1.605431E-05 4.3418E-05 1
vn 0 0 1
vn 0 0 1
vn 0 0 1
vn 0 0 1
vn 0 0 1
vn 4.646533E-06 2.783732E-05 1
vn -2.964552E-05 -3.013561E-05 1
vn 0 0 1
vn 0 0 1
vn 0 0 1
vn -2.378596E-05 -1.999573E-05 1
vn -3.566894E-05 -6.178693E-05 1
vn -3.566894E-05 -6.178694E-05 1
vn 0 0 1
vn 0 0 1
vn 0 0 1
vn 0 0 1
vn 0 0 1
vn 0 0 1
vn 0 0 1
vn 0 0 1
vn 0 0 1
vn 0 0 1
vn 0 0 1
vn 0 0 1
vn 0 0 1
vn 0.1239331 -0.9922906 0
vn 0.1239331 -0.9922906 0
vn -0.2438182 -0.969821 0
vn -0.2438182 -0.969821 0
vn -0.7995607 -0.6005853 0
vn -0.7995607 -0.6005853 0
vn -0.9744538 -0.224588 0
vn -0.9744538 -0.224588 0
vn -0.9853154 -0.1707441 0
vn -0.9853154 -0.1707441 0
vn -0.9748715 -0.2227684 0
vn -0.9748715 -0.2227684 0
vn 0.967421 -0.253173 0
vn 0.8211709 -0.5706823 0
vn 0.8211709 -0.5706823 0
vn 0.967421 -0.253173 0
vn 0.995451 0.09527442 0
vn 0.995451 0.09527442 0
vn 0.3346226 -0.9423523 0
vn 0.3346226 -0.9423523 0
vn 0.036647 -0.9993283 0
vn 0.036647 -0.9993283 0
vn -0.4840596 -0.875035 0
vn -0.4840596 -0.875035 0
vn -0.6762661 -0.7366574 0
vn -0.6762661 -0.7366574 0
vn 0.9533018 0.3020194 0
vn 1 0 0
vn 1 0 0
vn 0.9533018 0.3020194 0
vn 0.8143402 0.5803878 0
vn 0.8143402 0.5803878 0
vn 0.8110864 0.5849263 0
vn 0.8110864 0.5849263 0
vn -0.06235888 -0.9980538 0
vn -0.06235888 -0.9980538 0
vn -0.06235888 -0.9980538 0
vn -0.06235888 -0.9980538 0
vn 0.9999636 -0.008533796 0
vn 0.9351098 -0.3543582 0
vn 0.9351098 -0.3543582 0
vn 0.9999638 -0.008521414 0
vn 0.9410214 0.3383471 0
vn 0.9410214 0.3383471 0
vn 0.3330661 0.9429035 0
vn 0.3330661 0.9429035 0
vn 0.3330661 0.9429035 0
vn 0.3330661 0.9429035 0
vn 0.9626735 0.2706653 0
vn 0.9977626 0.06685723 0
vn 0.9977626 0.06685723 0
vn 0.9626735 0.2706653 0
vn 0.8806935 0.4736867 0
vn 0.8806935 0.4736867 0
vn 0.7110534 0.703138 0
vn 0.7110534 0.703138 0
vn 0.346688 0.9379806 0
vn 0.346688 0.9379806 0
vn -0.06913331 0.9976075 0
vn -0.0691425 0.9976068 0
vn -0.3236583 0.9461741 0
vn -0.3236583 0.9461741 0
vn -0.9944516 -0.1051952 0
vn -0.9944516 -0.1051952 0
vn -0.9944516 -0.1051952 0
vn -0.9944516 -0.1051952 0
vn -0.3521339 0.9359497 0
vn -0.3942306 0.9190116 0
vn -0.3942306 0.9190116 0
vn -0.3521365 0.9359486 0
vn -0.6269795 0.7790357 0
vn -0.6269614 0.7790503 0
vn -0.8628313 0.505492 0
vn -0.8628313 0.505492 0
vn 0.9202634 -0.3912995 0
vn 0.9202634 -0.3912994 0
vn 0.8465263 -0.5323469 0
vn 0.8465249 -0.5323491 0
vn 0.6353895 -0.7721918 0
vn 0.6353895 -0.7721918 0
vn 0.5903724 -0.8071309 0
vn 0.5903724 -0.8071309 0
vn 0.4857398 -0.8741034 0
vn 0.4857398 -0.8741034 0
vn 0.3302641 -0.9438885 0
vn 0.3302641 -0.9438885 0
vn 0.6241317 -0.7813191 0
vn 0.6241317 -0.7813191 0
vn 0.9637112 -0.2669469 0
vn 0.9637112 -0.2669469 0
vn 0.9921566 -0.1250008 0
vn 0.9921566 -0.1250008 0
vn 0.9467455 -0.3219829 0
vn 0.9467455 -0.3219829 0
vn 0.2964126 0.95506 0
vn 0.2964126 0.95506 0
vn 0.4839764 0.875081 0
vn 0.4839764 0.875081 0
vn 0.8238744 0.5667725 0
vn 0.8238744 0.5667725 0
vn 0.9414732 0.3370877 0
vn 0.9414732 0.3370877 0
vn -0.9207325 0.3901942 0
vn -0.7469195 0.6649145 0
vn -0.7469195 0.6649145 0
vn -0.9207325 0.3901942 0
vn -0.9923268 -0.1236428 0
vn -0.9923268 -0.1236428 0
vn -0.9946553 -0.1032523 0
vn -0.9946553 -0.1032523 0
vn -0.9644337 0.2643247 0
vn -0.9644337 0.2643247 0
vn -0.9066989 0.4217784 0
vn -0.9066989 0.4217784 0
vn -0.9730129 0.2307508 0
vn -0.9730129 0.2307508 0
vn -0.9985712 -0.05343832 0
vn -0.9985712 -0.05343832 0
vn -0.9926317 -0.1211708 0
vn -0.9926317 -0.1211708 0
vn -0.8441389 0.5361245 0
vn -0.8441389 0.5361245 0
vn -0.7084413 0.7057699 0
vn -0.7084413 0.7057699 0
vn -0.5393097 0.8421075 0
vn -0.5393097 0.8421075 0
vn -0.7792774 -0.6266792 0
vn -0.8988193 -0.4383194 0
vn -0.8988193 -0.4383194 0
vn -0.7792774 -0.6266792 0
vn -0.4042449 -0.9146508 0
vn -0.4042449 -0.9146508 0
vn -0.1616386 -0.98685 0
vn -0.1616386 -0.98685 0
vn -1.033683E-07 -0.02837777 0.9995973
vn -1.033683E-07 -0.02837777 0.9995973
vn -1.033683E-07 -0.02837777 0.9995973
vn -1.033683E-07 -0.02837777 0.9995973
vn 0 0.02837841 0.9995973
vn 0.02837581 0 0.9995974
vn 0 0.02837841 0.9995973
vn 0.02837581 0 0.9995974
g props_36_0
f 3/3/3 2/2/2 1/1/1
f 4/4/4 3/3/3 1/1/1
f 7/7/7 6/6/6 5/5/5
f 8/8/8 7/7/7 5/5/5
f 11/11/11 10/10/10 9/9/9
f 12/12/12 11/11/11 9/9/9
f 15/15/15 14/14/14 13/13/13
f 16/16/16 15/15/15 13/13/13
f 19/19/19 18/18/18 17/17/17
f 20/20/20 19/19/19 17/17/17
f 23/23/23 22/22/22 21/21/21
f 24/24/24 23/23/23 21/21/21
f 27/27/27 26/26/26 25/25/25
f 28/28/28 27/27/27 25/25/25
f 31/31/31 30/30/30 29/29/29
f 32/32/32 31/31/31 29/29/29
f 35/35/35 34/34/34 33/33/33
f 36/36/36 35/35/35 33/33/33
f 39/39/39 38/38/38 37/37/37
f 40/40/40 39/39/39 37/37/37
f 41/41/41 39/39/39 40/40/40
f 42/42/42 41/41/41 40/40/40
f 43/43/43 41/41/41 42/42/42
f 44/44/44 43/43/43 42/42/42
f 43/43/43 44/44/44 45/45/45
f 41/41/41 43/43/43 46/46/46
f 47/47/47 41/41/41 46/46/46
f 41/41/41 47/47/47 48/48/48
f 49/49/49 41/41/41 48/48/48
f 50/50/50 49/49/49 48/48/48
f 51/51/51 50/50/50 48/48/48
f 51/51/51 48/48/48 52/52/52
f 53/53/53 51/51/51 52/52/52
f 54/54/54 53/53/53 52/52/52
f 55/55/55 54/54/54 52/52/52
f 54/54/54 55/55/55 56/56/56
f 57/57/57 54/54/54 56/56/56
f 54/54/54 57/57/57 58/58/58
f 59/59/59 53/53/53 54/54/54
f 60/60/60 54/54/54 58/58/58
f 61/61/61 54/54/54 60/60/60
f 62/62/62 54/54/54 61/61/61
f 63/63/63 59/59/59 54/54/54
f 64/64/64 59/59/59 63/63/63
f 65/65/65 64/64/64 63/63/63
f 66/66/66 64/64/64 65/65/65
f 67/67/67 66/66/66 65/65/65
f 68/68/68 62/62/62 61/61/61
f 69/69/69 68/68/68 61/61/61
f 70/70/70 61/61/61 60/60/60
f 71/71/71 70/70/70 60/60/60
f 72/72/72 71/71/71 60/60/60
f 73/73/73 69/69/69 61/61/61
f 69/69/69 73/73/73 74/74/74
f 75/75/75 69/69/69 74/74/74
f 76/76/76 73/73/73 61/61/61
f 77/77/77 76/76/76 61/61/61
f 78/78/78 77/77/77 61/61/61
f 81/81/81 80/80/80 79/79/79
f 80/80/80 82/82/82 79/79/79
f 80/80/80 83/83/83 82/82/82
f 83/83/83 45/45/45 82/82/82
f 83/83/83 43/43/43 45/45/45
f 84/84/84 43/43/43 83/83/83
f 85/85/85 84/84/84 83/83/83
f 86/86/86 84/84/84 85/85/85
f 87/87/87 86/86/86 85/85/85
f 88/88/88 86/86/86 87/87/87
f 91/91/91 90/90/90 89/89/89
f 92/92/92 91/91/91 89/89/89
f 93/93/93 91/91/91 92/92/92
f 94/94/94 93/93/93 92/92/92
f 95/95/95 93/93/93 94/94/94
f 96/96/96 95/95/95 94/94/94
f 97/97/97 95/95/95 96/96/96
f 98/98/98 97/97/97 96/96/96
f 99/99/99 97/97/97 98/98/98
f 100/100/100 99/99/99 98/98/98
f 103/103/103 102/102/102 101/101/101
f 102/102/102 104/104/104 101/101/101
f 101/101/101 104/104/104 105/105/105
f 104/104/104 106/106/106 105/105/105
f 109/109/109 108/108/108 107/107/107
f 110/110/110 109/109/109 107/107/107
f 111/111/111 109/109/109 110/110/110
f 112/112/112 111/111/111 110/110/110
f 113/113/113 111/111/111 112/112/112
f 114/114/114 113/113/113 112/112/112
f 117/117/117 116/116/116 115/115/115
f 116/116/116 118/118/118 115/115/115
f 115/115/115 118/118/118 119/119/119
f 118/118/118 120/120/120 119/119/119
f 119/119/119 120/120/120 121/121/121
f 120/120/120 122/122/122 121/121/121
f 125/125/125 124/124/124 123/123/123
f 126/126/126 125/125/125 123/123/123
f 129/129/129 128/128/128 127/127/127
f 128/128/128 130/130/130 127/127/127
f 127/127/127 130/130/130 131/131/131
f 130/130/130 132/132/132 131/131/131
f 135/135/135 134/134/134 133/133/133
f 136/136/136 135/135/135 133/133/133
f 139/139/139 138/138/138 137/137/137
f 138/138/138 140/140/140 137/137/137
f 137/137/137 140/140/140 141/141/141
f 140/140/140 142/142/142 141/141/141
f 141/141/141 142/142/142 143/143/143
f 142/142/142 144/144/144 143/143/143
f 143/143/143 144/144/144 145/145/145
f 144/144/144 146/146/146 145/145/145
f 145/145/145 146/146/146 147/147/147
f 146/146/146 148/148/148 147/147/147
f 147/147/147 148/148/148 149/149/149
f 148/148/148 150/150/150 149/149/149
f 153/153/153 152/152/152 151/151/151
f 154/154/154 153/153/153 151/151/151
f 157/157/157 156/156/156 155/155/155
f 156/156/156 158/158/158 155/155/155
f 155/155/155 158/158/158 159/159/159
f 158/158/158 160/160/160 159/159/159
f 159/159/159 160/160/160 161/161/161
f 160/160/160 162/162/162 161/161/161
f 165/165/165 164/164/164 163/163/163
f 166/166/166 165/165/165 163/163/163
f 167/167/167 165/165/165 166/166/166
f 168/168/168 167/167/167 166/166/166
f 169/169/169 167/167/167 168/168/168
f 170/170/170 169/169/169 168/168/168
f 171/171/171 169/169/169 170/170/170
f 172/172/172 171/171/171 170/170/170
f 173/173/173 171/171/171 172/172/172
f 174/174/174 173/173/173 172/172/172
f 175/175/175 173/173/173 174/174/174
f 176/176/176 175/175/175 174/174/174
f 177/177/177 175/175/175 176/176/176
f 178/178/178 177/177/177 176/176/176
f 179/179/179 177/177/177 178/178/178
f 180/180/180 179/179/179 178/178/178
f 181/181/181 179/179/179 180/180/180
f 182/182/182 181/181/181 180/180/180
f 185/185/185 184/184/184 183/183/183
f 186/186/186 185/185/185 183/183/183
f 187/187/187 185/185/185 186/186/186
f 188/188/188 187/187/187 186/186/186
f 189/189/189 187/187/187 188/188/188
f 190/190/190 189/189/189 188/188/188
f 193/193/193 192/192/192 191/191/191
f 192/192/192 194/194/194 191/191/191
f 191/191/191 194/194/194 195/195/195
f 194/194/194 196/196/196 195/195/195
f 195/195/195 196/196/196 197/197/197
f 196/196/196 198/198/198 197/197/197
f 197/197/197 198/198/198 199/199/199
f 198/198/198 200/200/200 199/199/199
f 199/199/199 200/200/200 201/201/201
f 200/200/200 202/202/202 201/201/201
f 201/201/201 202/202/202 203/203/203
f 202/202/202 204/204/204 203/203/203
f 203/203/203 204/204/204 205/205/205
f 204/204/204 206/206/206 205/205/205
f 205/205/205 206/206/206 207/207/207
f 206/206/206 208/208/208 207/207/207
f 211/211/211 210/210/210 209/209/209
f 212/212/212 211/211/211 209/209/209
f 213/213/213 211/211/211 212/212/212
f 214/214/214 213/213/213 212/212/212
f 217/217/217 216/216/216 215/215/215
f 216/216/216 218/218/218 215/215/215
f 215/215/215 218/218/218 219/219/219
f 218/218/218 220/220/220 219/219/219
f 219/219/219 220/220/220 221/221/221
f 220/220/220 222/222/222 221/221/221
f 225/225/225 224/224/224 223/223/223
f 226/226/226 225/225/225 223/223/223
f 223/223/223 224/224/224 227/227/227
f 228/228/228 225/225/225 226/226/226
f 224/224/224 229/229/229 227/227/227
f 230/230/230 228/228/228 226/226/226
f 227/227/227 229/229/229 230/230/230
f 229/229/229 228/228/228 230/230/230
