g props_06
v 0.1561525 -0.156008 0.031001
v 0.09685562 -0.156008 0.031001
v 0.1561626 -0.111287 0.031001
v 0.1589746 0.158976 0.007154
v 0.1589746 -0.158976 0.007155
v -0.1589745 -0.158976 0.007155
v -0.1589745 0.158976 0.007154
v -0.1589745 -0.158976 -0.031
v 0.1589746 -0.158976 -0.031
v 0.1589746 0.158976 -0.031001
v -0.1589745 0.158976 -0.031001
v -0.1589745 0.158976 0.007154
v -0.1589745 0.158976 -0.031001
v 0.1589746 0.158976 -0.031001
v 0.1589746 0.158976 0.007154
v -0.1589745 -0.158976 0.007155
v -0.1589745 -0.158976 -0.031
v -0.1589745 0.158976 -0.031001
v -0.1589745 0.158976 0.007154
v 0.1589746 -0.158976 0.007155
v 0.1589746 -0.158976 -0.031
v -0.1589745 -0.158976 -0.031
v -0.1589745 -0.158976 0.007155
v 0.1589746 0.158976 0.007154
v 0.1589746 0.158976 -0.031001
v 0.1589746 -0.158976 -0.031
v 0.1589746 -0.158976 0.007155
v 0.1561626 -0.111287 0.031001
v 0.1561626 -0.111287 -0.016692
v 0.1561525 -0.156008 -0.016692
v 0.1561525 -0.156008 0.031001
v 0.09685562 -0.156008 0.031001
v 0.09685562 -0.156008 -0.016692
v 0.1561626 -0.111287 -0.016692
v 0.1561626 -0.111287 0.031001
v 0.1561525 -0.156008 0.031001
v 0.1561525 -0.156008 -0.016692
v 0.09685562 -0.156008 -0.016692
v 0.09685562 -0.156008 0.031001
vt 0.8296619 0.02056828
vt 0.815625 0.001953125
vt 0.815625 0.03115788
vt 0.5207441 0.6306115
vt 0.5207441 0.5055993
vt 0.3957332 0.5055993
vt 0.3957332 0.6306115
vt 0.3012347 0.7784906
vt 0.4262457 0.7784906
vt 0.4262457 0.6534784
vt 0.3012347 0.6534784
vt 0.3957332 0.6306115
vt 0.3957332 0.6456133
vt 0.5207441 0.6456133
vt 0.5207441 0.6306115
vt 0.3957332 0.5055993
vt 0.3807314 0.5055994
vt 0.3807314 0.6306116
vt 0.3957332 0.6306115
vt 0.5207441 0.5055993
vt 0.5207441 0.4905976
vt 0.3957332 0.4905976
vt 0.3957332 0.5055993
vt 0.5207441 0.6306115
vt 0.5357459 0.6306116
vt 0.5357459 0.5055994
vt 0.5207441 0.5055993
vt 0.5117139 0.7873762
vt 0.492962 0.7873762
vt 0.492962 0.8049595
vt 0.5117139 0.8049595
vt 0.5117139 0.8282739
vt 0.492962 0.8282739
vt 0.492962 0.8574786
vt 0.5117139 0.8574786
vt 0.5117139 0.8049595
vt 0.492962 0.8049595
vt 0.492962 0.8282739
vt 0.5117139 0.8282739
vn 0 0 1
vn 0 0 1
vn 0 0 1
vn 0 3.14565E-06 1
vn 0 3.14565E-06 1
vn 0 3.14565E-06 1
vn 0 3.14565E-06 1
vn 0 -3.1494E-06 -1
vn 0 -3.1494E-06 -1
vn 0 -3.1494E-06 -1
vn 0 -3.1494E-06 -1
vn 0 1 0
vn 0 1 0
vn 0 1 0
vn 0 1 0
vn -1 0 0
vn -1 0 0
vn -1 0 0
vn -1 0 0
vn 0 -1 0
vn 0 -1 0
vn 0 -1 0
vn 0 -1 0
vn 1 0 0
vn 1 0 0
vn 1 0 0
vn 1 0 0
vn 1 -0.0002251918 0
vn 1 -0.0002251918 0
vn 1 -0.0002251918 0
vn 1 -0.0002251918 0
vn -0.6020726 0.7984413 0
vn -0.6020726 0.7984413 0
vn -0.6020726 0.7984413 0
vn -0.6020726 0.7984413 0
vn 0 -1 0
vn 0 -1 0
vn 0 -1 0
vn 0 -1 0
g props_06_0
f 3/3/3 2/2/2 1/1/1
f 6/6/6 5/5/5 4/4/4
f 7/7/7 6/6/6 4/4/4
f 10/10/10 9/9/9 8/8/8
f 11/11/11 10/10/10 8/8/8
f 14/14/14 13/13/13 12/12/12
f 15/15/15 14/14/14 12/12/12
f 18/18/18 17/17/17 16/16/16
f 19/19/19 18/18/18 16/16/16
f 22/22/22 21/21/21 20/20/20
f 23/23/23 22/22/22 20/20/20
f 26/26/26 25/25/25 24/24/24
f 27/27/27 26/26/26 24/24/24
f 30/30/30 29/29/29 28/28/28
f 31/31/31 30/30/30 28/28/28
f 34/34/34 33/33/33 32/32/32
f 35/35/35 34/34/34 32/32/32
f 38/38/38 37/37/37 36/36/36
f 39/39/39 38/38/38 36/36/36
