g props_09
v 0.1589795 0.158976 0.007154
v 0.1589795 -0.158976 0.007155
v -0.1589795 -0.158976 0.007155
v -0.1589795 0.158976 0.007154
v -0.1589795 0.158976 0.007154
v -0.1589795 0.158976 -0.031001
v 0.1589795 0.158976 -0.031001
v 0.1589795 0.158976 0.007154
v -0.1589795 -0.158976 0.007155
v -0.1589795 -0.158976 -0.031
v -0.1589795 0.158976 -0.031001
v -0.1589795 0.158976 0.007154
v 0.1589795 -0.158976 0.007155
v 0.1589795 -0.158976 -0.031
v -0.1589795 -0.158976 -0.031
v -0.1589795 -0.158976 0.007155
v 0.1589795 0.158976 0.007154
v 0.1589795 0.158976 -0.031001
v 0.1589795 -0.158976 -0.031
v 0.1589795 -0.158976 0.007155
v 0.1545166 -0.133819 0.031001
v 0.1400055 0.098352 0.031
v 0.1540286 0.104508 0.031
v 0.1454156 -0.00076 0.031
v 0.1210794 -0.06741799 0.031
v 0.1307275 -0.102424 0.031
v 0.1301025 -0.03055 0.031
v 0.06884338 0.036183 0.031
v 0.09135254 0.112771 0.031
v 0.008442382 0.118174 0.031
v -0.003256531 0.048796 0.031
v -0.05280761 0.099264 0.031
v -0.07174255 0.03799 0.031
v -0.1014694 0.060514 0.031
v -0.1303076 0.014572 0.031
v 0.1454156 -0.00076 0.031
v 0.1454156 -0.00076 -0.016693
v 0.06884338 0.036183 -0.016693
v 0.06884338 0.036183 0.031
v -0.003256531 0.048796 -0.016693
v -0.003256531 0.048796 0.031
v -0.07174255 0.03799 -0.016693
v -0.07174255 0.03799 0.031
v -0.1303076 0.014572 -0.016693
v -0.1303076 0.014572 0.031
v 0.1540286 0.104508 0.031
v 0.1540286 0.104508 -0.016693
v 0.1545166 -0.133819 -0.016692
v 0.1545166 -0.133819 0.031001
v 0.1400055 0.098352 0.031
v 0.1540286 0.104508 -0.016693
v 0.1540286 0.104508 0.031
v 0.1400055 0.098352 -0.016693
v 0.09135254 0.112771 0.031
v 0.09135254 0.112771 -0.016693
v 0.008442382 0.118174 0.031
v 0.008442382 0.118174 -0.016693
v -0.05280761 0.099264 0.031
v -0.05280761 0.099264 -0.016693
v -0.1014694 0.060514 0.031
v -0.1014694 0.060514 -0.016693
v -0.1303076 0.014572 0.031
v -0.1303076 0.014572 -0.016693
v 0.1545166 -0.133819 0.031001
v 0.1545166 -0.133819 -0.016692
v 0.1307275 -0.102424 -0.016693
v 0.1307275 -0.102424 0.031
v 0.1210794 -0.06741799 -0.016693
v 0.1210794 -0.06741799 0.031
v 0.1301025 -0.03055 -0.016693
v 0.1301025 -0.03055 0.031
v 0.1454156 -0.00076 -0.016693
v 0.1454156 -0.00076 0.031
vt 0.6890912 0.01695489
vt 0.564079 0.01695489
vt 0.564079 0.1419698
vt 0.6890912 0.1419698
vt 0.6890912 0.1419698
vt 0.704093 0.1419698
vt 0.704093 0.01695489
vt 0.6890912 0.01695489
vt 0.564079 0.1419698
vt 0.5640791 0.1569716
vt 0.6890913 0.1569716
vt 0.6890912 0.1419698
vt 0.564079 0.01695489
vt 0.5490773 0.01695489
vt 0.5490773 0.1419698
vt 0.564079 0.1419698
vt 0.6890912 0.01695489
vt 0.6890913 0.001953125
vt 0.5640791 0.001953125
vt 0.564079 0.01695489
vt 0.7174232 0.4755863
vt 0.7957436 0.5228239
vt 0.8004377 0.5190525
vt 0.7621667 0.5029321
vt 0.7345024 0.4993084
vt 0.7240488 0.4895848
vt 0.7489972 0.5028598
vt 0.7611379 0.5363436
vt 0.7919328 0.5424084
vt 0.7787548 0.5723001
vt 0.7524378 0.5637758
vt 0.7610339 0.5902223
vt 0.7362282 0.5856933
vt 0.7386818 0.6001508
vt 0.7174232 0.6018603
vt 0.946561 0.6897177
vt 0.965313 0.6897177
vt 0.965313 0.6562904
vt 0.946561 0.6562904
vt 0.965313 0.6275116
vt 0.946561 0.6275116
vt 0.965313 0.6002512
vt 0.946561 0.6002512
vt 0.965313 0.575452
vt 0.946561 0.575452
vt 0.946561 0.8412805
vt 0.965313 0.8412805
vt 0.9653126 0.747575
vt 0.9465607 0.747575
vt 0.946561 0.4518436
vt 0.965313 0.4458221
vt 0.946561 0.4458221
vt 0.965313 0.4518436
vt 0.946561 0.4717953
vt 0.965313 0.4717953
vt 0.946561 0.504463
vt 0.965313 0.504463
vt 0.946561 0.5296668
vt 0.965313 0.5296668
vt 0.946561 0.5541248
vt 0.965313 0.5541248
vt 0.946561 0.575452
vt 0.965313 0.575452
vt 0.9465607 0.747575
vt 0.9653126 0.747575
vt 0.965313 0.7320877
vt 0.946561 0.7320877
vt 0.965313 0.7178109
vt 0.946561 0.7178109
vt 0.965313 0.7028873
vt 0.946561 0.7028873
vt 0.965313 0.6897177
vt 0.946561 0.6897177
vn 0 3.14565E-06 1
vn 0 3.14565E-06 1
vn 0 3.14565E-06 1
vn 0 3.14565E-06 1
vn 0 1 0
vn 0 1 0
vn 0 1 0
vn 0 1 0
vn -1 0 0
vn -1 0 0
vn -1 0 0
vn -1 0 0
vn 0 -1 0
vn 0 -1 0
vn 0 -1 0
vn 0 -1 0
vn 1 0 0
vn 1 0 0
vn 1 0 0
vn 1 0 0
vn -3.161481E-05 -1.255897E-06 1
vn -1.500648E-05 1.227823E-06 1
vn -2.988484E-05 2.445163E-06 1
vn -2.157805E-05 2.288986E-06 1
vn -1.987541E-05 4.075537E-06 1
vn -6.615663E-05 -1.823367E-05 1
vn -1.61206E-05 5.88549E-06 1
vn 0 0 1
vn 0 0 1
vn 0 0 1
vn 0 0 1
vn 0 0 1
vn 0 0 1
vn 0 0 1
vn 0 0 1
vn -0.4345304 -0.9006571 0
vn -0.4345304 -0.9006571 0
vn -0.306345 -0.9519205 0
vn -0.306345 -0.9519205 0
vn -0.008345631 -0.9999652 0
vn -0.008345631 -0.9999652 0
vn 0.2652286 -0.9641855 0
vn 0.2652286 -0.9641855 0
vn 0.3712809 -0.9285205 0
vn 0.3712809 -0.9285205 0
vn 0.999998 0.002047502 0
vn 0.999998 0.002047502 0
vn 0.999998 0.002047502 0
vn 0.999998 0.002047502 0
vn -0.0627295 0.9980305 0
vn -0.4019626 0.915656 0
vn -0.4019626 0.915656 0
vn -0.0627295 0.9980305 0
vn 0.1756799 0.9844474 0
vn 0.1756799 0.9844474 0
vn -0.1169199 0.9931414 0
vn -0.1169199 0.9931414 0
vn -0.4670659 0.8842224 0
vn -0.4670659 0.8842224 0
vn -0.7455568 0.6664421 0
vn -0.7455568 0.6664421 0
vn -0.8469656 0.5316477 0
vn -0.8469656 0.5316477 0
vn -0.7970314 -0.6039379 0
vn -0.7970313 -0.6039379 0
vn -0.8966364 -0.4427677 0
vn -0.8966351 -0.4427705 0
vn -0.9998956 -0.01445609 0
vn -0.9998956 -0.01445609 0
vn -0.9368033 0.3498566 0
vn -0.9368033 0.3498566 0
vn -0.8893784 0.4571718 0
vn -0.8893784 0.4571718 0
g props_09_0
f 3/3/3 2/2/2 1/1/1
f 4/4/4 3/3/3 1/1/1
f 7/7/7 6/6/6 5/5/5
f 8/8/8 7/7/7 5/5/5
f 11/11/11 10/10/10 9/9/9
f 12/12/12 11/11/11 9/9/9
f 15/15/15 14/14/14 13/13/13
f 16/16/16 15/15/15 13/13/13
f 19/19/19 18/18/18 17/17/17
f 20/20/20 19/19/19 17/17/17
f 23/23/23 22/22/22 21/21/21
f 22/22/22 24/24/24 21/21/21
f 25/25/25 21/21/21 24/24/24
f 26/26/26 21/21/21 25/25/25
f 27/27/27 25/25/25 24/24/24
f 28/28/28 24/24/24 22/22/22
f 29/29/29 28/28/28 22/22/22
f 29/29/29 30/30/30 28/28/28
f 30/30/30 31/31/31 28/28/28
f 31/31/31 30/30/30 32/32/32
f 33/33/33 31/31/31 32/32/32
f 32/32/32 34/34/34 33/33/33
f 35/35/35 33/33/33 34/34/34
f 38/38/38 37/37/37 36/36/36
f 39/39/39 38/38/38 36/36/36
f 40/40/40 38/38/38 39/39/39
f 41/41/41 40/40/40 39/39/39
f 42/42/42 40/40/40 41/41/41
f 43/43/43 42/42/42 41/41/41
f 44/44/44 42/42/42 43/43/43
f 45/45/45 44/44/44 43/43/43
f 48/48/48 47/47/47 46/46/46
f 49/49/49 48/48/48 46/46/46
f 52/52/52 51/51/51 50/50/50
f 51/51/51 53/53/53 50/50/50
f 50/50/50 53/53/53 54/54/54
f 53/53/53 55/55/55 54/54/54
f 54/54/54 55/55/55 56/56/56
f 55/55/55 57/57/57 56/56/56
f 56/56/56 57/57/57 58/58/58
f 57/57/57 59/59/59 58/58/58
f 58/58/58 59/59/59 60/60/60
f 59/59/59 61/61/61 60/60/60
f 60/60/60 61/61/61 62/62/62
f 61/61/61 63/63/63 62/62/62
f 66/66/66 65/65/65 64/64/64
f 67/67/67 66/66/66 64/64/64
f 68/68/68 66/66/66 67/67/67
f 69/69/69 68/68/68 67/67/67
f 70/70/70 68/68/68 69/69/69
f 71/71/71 70/70/70 69/69/69
f 72/72/72 70/70/70 71/71/71
f 73/73/73 72/72/72 71/71/71
