g props_30
v 50.6045 -34.9036 -28.9727
v 50.6045 -34.9036 28.8389
v 53.9346 35.4302 34.4648
v 53.9346 35.4302 -34.4873
v -44.6455 35.416 -43.4043
v -38.4053 -31.3193 -37.8906
v 39.1143 -32.4895 -37.8906
v 45.1846 35.416 -43.4043
v -53.4355 33.2134 -34.5859
v -53.4355 35.6819 34.4678
v -47.1855 -29.7959 28.8369
v -47.1855 -34.7002 -28.9707
v 41.8545 -34.9111 37.7578
v -38.4053 -34.9111 37.7578
v -42.5459 31.7781 43.3838
v 44.3545 32.4109 43.3838
v 38.9346 -40.707 -28.4736
v -37.7158 -43.1335 -28.4736
v -37.7158 -43.1335 28.3193
v 41.6748 -43.1335 28.3193
v 40.7744 43.1335 35.0371
v -45.3857 43.1335 35.0127
v -45.3857 43.1335 -35.0127
v 45.3848 43.1335 -35.0127
v -58.7959 47.9968 51.8096
v -44.2754 -40.4072 44.7373
v -50.2852 -47.9968 44.1299
v -49.3457 36.7639 51.2021
v 50.9443 37.397 51.2021
v 58.7949 47.9968 51.8096
v 54.2441 -47.9968 44.1299
v -50.2852 -47.9968 44.1299
v -44.2754 -40.4072 44.7373
v 47.9443 -40.4072 44.7373
v 58.7949 47.9968 51.8096
v 54.2441 -47.9968 44.1299
v 47.9443 -40.4072 44.7373
v 50.9443 37.397 51.2021
v 58.7949 47.9968 -51.8096
v -51.4453 40.4067 -51.2148
v 51.7744 40.4067 -51.2148
v -58.7959 47.9968 -51.8096
v -50.2852 -47.9968 -44.2842
v -42.3555 -40.4067 -44.8789
v 47.9443 -40.4067 -44.8789
v 54.2441 -47.9968 -44.2842
v 58.7949 47.9968 -51.8096
v 51.7744 40.4067 -51.2148
v 50.6045 -34.9036 -28.9727
v 53.9346 35.4302 -34.4873
v 58.4346 40.408 -39.6201
v 54.6045 -40.408 -33.2852
v 53.9346 35.4302 -34.4873
v 53.9346 35.4302 34.4648
v 58.4346 40.408 39.6074
v 58.4346 40.408 -39.6201
v 54.6045 -40.408 33.1426
v 58.4346 40.408 39.6074
v 53.9346 35.4302 34.4648
v 50.6045 -34.9036 28.8389
v 50.6045 -34.9036 -28.9727
v 54.6045 -40.408 -33.2852
v 54.6045 -40.408 33.1426
v 50.6045 -34.9036 28.8389
v -42.3555 -40.4067 -44.8789
v -38.4053 -31.3193 -37.8906
v -44.6455 35.416 -43.4043
v -51.4453 40.4067 -51.2148
v -44.6455 35.416 -43.4043
v 45.1846 35.416 -43.4043
v 51.7744 40.4067 -51.2148
v -51.4453 40.4067 -51.2148
v 51.7744 40.4067 -51.2148
v 45.1846 35.416 -43.4043
v 39.1143 -32.4895 -37.8906
v 47.9443 -40.4067 -44.8789
v 47.9443 -40.4067 -44.8789
v 39.1143 -32.4895 -37.8906
v -38.4053 -31.3193 -37.8906
v -42.3555 -40.4067 -44.8789
v -58.125 37.967 -39.7207
v -53.4355 33.2134 -34.5859
v -47.1855 -34.7002 -28.9707
v -50.9551 -40.4355 -33.2822
v -47.1855 -29.7959 28.8369
v -50.9551 -35.5315 33.1406
v -50.9551 -40.4355 -33.2822
v -47.1855 -34.7002 -28.9707
v -58.125 40.4355 39.6094
v -50.9551 -35.5315 33.1406
v -47.1855 -29.7959 28.8369
v -53.4355 35.6819 34.4678
v -58.125 40.4355 39.6094
v -53.4355 35.6819 34.4678
v -53.4355 33.2134 -34.5859
v -58.125 37.967 -39.7207
v -42.5459 31.7781 43.3838
v -38.4053 -34.9111 37.7578
v -44.2754 -40.4072 44.7373
v -49.3457 36.7639 51.2021
v -38.4053 -34.9111 37.7578
v 41.8545 -34.9111 37.7578
v 47.9443 -40.4072 44.7373
v -44.2754 -40.4072 44.7373
v 47.9443 -40.4072 44.7373
v 41.8545 -34.9111 37.7578
v 44.3545 32.4109 43.3838
v 50.9443 37.397 51.2021
v 50.9443 37.397 51.2021
v 44.3545 32.4109 43.3838
v -42.5459 31.7781 43.3838
v -49.3457 36.7639 51.2021
v 41.6748 -43.1335 28.3193
v 47.5947 -47.9968 32.5518
v 47.5947 -47.9968 -32.7051
v 38.9346 -40.707 -28.4736
v -43.6357 -47.9968 32.5518
v 47.5947 -47.9968 32.5518
v 41.6748 -43.1335 28.3193
v -37.7158 -43.1335 28.3193
v -43.6357 -47.9968 32.5518
v -37.7158 -43.1335 28.3193
v -37.7158 -43.1335 -28.4736
v -43.6357 -47.9968 -32.7051
v -37.7158 -43.1335 -28.4736
v 38.9346 -40.707 -28.4736
v 47.5947 -47.9968 -32.7051
v -43.6357 -47.9968 -32.7051
v 40.7744 43.1335 35.0371
v 45.3848 43.1335 -35.0127
v 52.1445 47.9968 -40.2305
v 47.5342 47.9968 40.2549
v -52.1553 47.9968 -40.2305
v 52.1445 47.9968 -40.2305
v 45.3848 43.1335 -35.0127
v -45.3857 43.1335 -35.0127
v -45.3857 43.1335 35.0127
v -52.1553 47.9968 40.2305
v -52.1553 47.9968 -40.2305
v -45.3857 43.1335 -35.0127
v -52.1553 47.9968 40.2305
v -45.3857 43.1335 35.0127
v 40.7744 43.1335 35.0371
v 47.5342 47.9968 40.2549
v 54.6045 -40.408 -33.2852
v 58.4346 40.408 -39.6201
v 58.7949 47.9968 -51.8096
v 58.4346 40.408 39.6074
v 54.2441 -47.9968 -44.2842
v 58.7949 47.9968 51.8096
v 54.6045 -40.408 33.1426
v 54.2441 -47.9968 44.1299
v 58.7949 47.9968 -51.8096
v 47.5342 47.9968 40.2549
v 52.1445 47.9968 -40.2305
v -52.1553 47.9968 -40.2305
v 58.7949 47.9968 51.8096
v -58.7959 47.9968 -51.8096
v -58.7959 47.9968 51.8096
v -52.1553 47.9968 40.2305
v -58.7959 47.9968 -51.8096
v -50.9551 -40.4355 -33.2822
v -50.2852 -47.9968 -44.2842
v -50.2852 -47.9968 44.1299
v -58.125 37.967 -39.7207
v -50.9551 -35.5315 33.1406
v -58.7959 47.9968 51.8096
v -58.125 40.4355 39.6094
v -43.6357 -47.9968 32.5518
v -43.6357 -47.9968 -32.7051
v -50.2852 -47.9968 -44.2842
v 47.5947 -47.9968 -32.7051
v -50.2852 -47.9968 44.1299
v 54.2441 -47.9968 -44.2842
v 47.5947 -47.9968 32.5518
v 54.2441 -47.9968 44.1299
vt 0.5308 0.8352
vt 0.5697 0.8359
vt 0.5746 0.7888
vt 0.5284 0.7871
vt 0.6603 0.8365
vt 0.6557 0.7921
vt 0.6043 0.7917
vt 0.6006 0.8368
vt 0.7342 0.7841
vt 0.688 0.7823
vt 0.6913 0.8265
vt 0.7298 0.8304
vt 0.6034 0.7563
vt 0.6568 0.7565
vt 0.6601 0.7121
vt 0.6019 0.7112
vt 0.7373 0.7156
vt 0.6852 0.7149
vt 0.6852 0.7528
vt 0.7392 0.753
vt 0.5201 0.7549
vt 0.5781 0.7545
vt 0.5781 0.7075
vt 0.5166 0.7079
vt 0.6725 0.6988
vt 0.6622 0.7619
vt 0.6662 0.767
vt 0.666 0.7066
vt 0.596 0.7057
vt 0.5909 0.6985
vt 0.5936 0.7666
vt 0.6662 0.767
vt 0.6622 0.7619
vt 0.598 0.7615
vt 0.5909 0.6985
vt 0.5936 0.7666
vt 0.598 0.7615
vt 0.596 0.7057
vt 0.5903 0.8475
vt 0.6664 0.8418
vt 0.5951 0.8424
vt 0.6714 0.847
vt 0.6657 0.7799
vt 0.6603 0.7851
vt 0.5973 0.7854
vt 0.5929 0.7803
vt 0.5903 0.8475
vt 0.5951 0.8424
vt 0.5308 0.8352
vt 0.5284 0.7871
vt 0.5243 0.7829
vt 0.5271 0.8394
vt 0.5284 0.7871
vt 0.5746 0.7888
vt 0.5789 0.7847
vt 0.5243 0.7829
vt 0.5732 0.8402
vt 0.5789 0.7847
vt 0.5746 0.7888
vt 0.5697 0.8359
vt 0.5308 0.8352
vt 0.5271 0.8394
vt 0.5732 0.8402
vt 0.5697 0.8359
vt 0.6603 0.7851
vt 0.6557 0.7921
vt 0.6603 0.8365
vt 0.6664 0.8418
vt 0.6603 0.8365
vt 0.6006 0.8368
vt 0.5951 0.8424
vt 0.6664 0.8418
vt 0.5951 0.8424
vt 0.6006 0.8368
vt 0.6043 0.7917
vt 0.5973 0.7854
vt 0.5973 0.7854
vt 0.6043 0.7917
vt 0.6557 0.7921
vt 0.6603 0.7851
vt 0.7384 0.7801
vt 0.7342 0.7841
vt 0.7298 0.8304
vt 0.7335 0.8348
vt 0.6913 0.8265
vt 0.6876 0.8308
vt 0.7335 0.8348
vt 0.7298 0.8304
vt 0.6839 0.7781
vt 0.6876 0.8308
vt 0.6913 0.8265
vt 0.688 0.7823
vt 0.6839 0.7781
vt 0.688 0.7823
vt 0.7342 0.7841
vt 0.7384 0.7801
vt 0.6601 0.7121
vt 0.6568 0.7565
vt 0.6622 0.7619
vt 0.666 0.7066
vt 0.6568 0.7565
vt 0.6034 0.7563
vt 0.598 0.7615
vt 0.6622 0.7619
vt 0.598 0.7615
vt 0.6034 0.7563
vt 0.6019 0.7112
vt 0.596 0.7057
vt 0.596 0.7057
vt 0.6019 0.7112
vt 0.6601 0.7121
vt 0.666 0.7066
vt 0.7392 0.753
vt 0.744 0.7571
vt 0.744 0.7104
vt 0.7373 0.7156
vt 0.6806 0.7567
vt 0.744 0.7571
vt 0.7392 0.753
vt 0.6852 0.7528
vt 0.6806 0.7567
vt 0.6852 0.7528
vt 0.6852 0.7149
vt 0.6804 0.7108
vt 0.6852 0.7149
vt 0.7373 0.7156
vt 0.744 0.7104
vt 0.6804 0.7108
vt 0.5201 0.7549
vt 0.5166 0.7079
vt 0.5113 0.7034
vt 0.5149 0.7593
vt 0.5833 0.7031
vt 0.5113 0.7034
vt 0.5166 0.7079
vt 0.5781 0.7075
vt 0.5781 0.7545
vt 0.5833 0.7587
vt 0.5833 0.7031
vt 0.5781 0.7075
vt 0.5833 0.7587
vt 0.5781 0.7545
vt 0.5201 0.7549
vt 0.5149 0.7593
vt 0.5271 0.8394
vt 0.5243 0.7829
vt 0.5162 0.7773
vt 0.5789 0.7847
vt 0.5196 0.8444
vt 0.5874 0.7799
vt 0.5732 0.8402
vt 0.5805 0.8455
vt 0.5068 0.6957
vt 0.5149 0.7593
vt 0.5113 0.7034
vt 0.5833 0.7031
vt 0.5076 0.7672
vt 0.5877 0.6952
vt 0.5879 0.7666
vt 0.5833 0.7587
vt 0.7467 0.7733
vt 0.7335 0.8348
vt 0.7408 0.8402
vt 0.68 0.8391
vt 0.7384 0.7801
vt 0.6876 0.8308
vt 0.6756 0.7729
vt 0.6839 0.7781
vt 0.6806 0.7567
vt 0.6804 0.7108
vt 0.676 0.7029
vt 0.744 0.7104
vt 0.676 0.7646
vt 0.7486 0.7025
vt 0.744 0.7571
vt 0.7484 0.765
vn 0.9988808 -0.04729909 0
vn 0.9988808 -0.04729909 0
vn 0.9988808 -0.04729909 0
vn 0.9988808 -0.04729909 0
vn -0.0005999791 -0.08159716 -0.9966652
vn -0.0005999791 -0.08159716 -0.9966652
vn -0.0005999791 -0.08159716 -0.9966652
vn -0.0005999791 -0.08159716 -0.9966652
vn -0.9956232 -0.09330218 0.005400126
vn -0.9956232 -0.09330218 0.005400126
vn -0.9956232 -0.09330218 0.005400126
vn -0.9956232 -0.09330218 0.005400126
vn 0.0002999973 -0.08369925 0.996491
vn 0.0002999973 -0.08369925 0.996491
vn 0.0002999973 -0.08369925 0.996491
vn 0.0002999973 -0.08369925 0.996491
vn 0.01550069 -0.9996444 -0.02170097
vn 0.01550069 -0.9996444 -0.02170097
vn 0.01550069 -0.9996444 -0.02170097
vn 0.01550069 -0.9996444 -0.02170097
vn 0 1 0
vn 0 1 0
vn 0 1 0
vn 0 1 0
vn -0.01949936 -0.08289729 0.9963673
vn -0.01949936 -0.08289729 0.9963673
vn -0.01949936 -0.08289729 0.9963673
vn -0.01949936 -0.08289729 0.9963673
vn 0.0001999917 -0.05549771 0.9984587
vn 0.0001999917 -0.05549771 0.9984587
vn 0 -0.07970151 0.9968188
vn 0 -0.07970151 0.9968188
vn 0 -0.07970151 0.9968188
vn 0 -0.07970151 0.9968188
vn 0.0173998 -0.08189908 0.9964888
vn 0.0173998 -0.08189908 0.9964888
vn 0.0173998 -0.08189908 0.9964888
vn 0.0173998 -0.08189908 0.9964888
vn 0 -0.07810354 -0.9969452
vn 0 -0.07820294 -0.9969375
vn 0 -0.07810354 -0.9969452
vn 0 -0.07820294 -0.9969375
vn 0 -0.07820294 -0.9969375
vn 0 -0.07820294 -0.9969375
vn 0 -0.07820294 -0.9969375
vn 0 -0.07820294 -0.9969375
vn 0 -0.07820294 -0.9969375
vn 0 -0.07820294 -0.9969375
vn 0.7436962 0.01719991 0.6682965
vn 0.7436962 0.01719991 0.6682965
vn 0.7436962 0.01719991 0.6682965
vn 0.7436962 0.01719991 0.6682965
vn 0.7418106 -0.6706095 0
vn 0.7418106 -0.6706095 0
vn 0.7418106 -0.6706095 0
vn 0.7418106 -0.6706095 0
vn 0.7437327 0.0182008 -0.6682293
vn 0.7437327 0.0182008 -0.6682293
vn 0.7437327 0.0182008 -0.6682293
vn 0.7437327 0.0182008 -0.6682293
vn 0.8089565 0.5878683 0
vn 0.8089565 0.5878683 0
vn 0.8089565 0.5878683 0
vn 0.8089565 0.5878683 0
vn 0.8038102 0.03580046 -0.5938076
vn 0.8038102 0.03580046 -0.5938076
vn 0.8038102 0.03580046 -0.5938076
vn 0.8038102 0.03580046 -0.5938076
vn 0 -0.8426471 -0.5384662
vn 0 -0.8426471 -0.5384662
vn 0 -0.8426471 -0.5384662
vn 0 -0.8426471 -0.5384662
vn -0.6934848 -0.01119975 -0.7203842
vn -0.6934848 -0.01119975 -0.7203842
vn -0.6934848 -0.01119975 -0.7203842
vn -0.6934848 -0.01119975 -0.7203842
vn 0.00440008 0.6357116 -0.7719141
vn 0.00440008 0.6357116 -0.7719141
vn 0.00440008 0.6357116 -0.7719141
vn 0.00440008 0.6357116 -0.7719141
vn -0.7442131 -0.01320023 0.6678118
vn -0.7442131 -0.01320023 0.6678118
vn -0.7442131 -0.01320023 0.6678118
vn -0.7442131 -0.01320023 0.6678118
vn -0.8348981 0.5486987 -0.0432999
vn -0.8348981 0.5486987 -0.0432999
vn -0.8348981 0.5486987 -0.0432999
vn -0.8348981 0.5486987 -0.0432999
vn -0.7442101 -0.01350018 -0.6678091
vn -0.7442101 -0.01350018 -0.6678091
vn -0.7442101 -0.01350018 -0.6678091
vn -0.7442101 -0.01350018 -0.6678091
vn -0.7116969 -0.7020969 0.0233999
vn -0.7116969 -0.7020969 0.0233999
vn -0.7116969 -0.7020969 0.0233999
vn -0.7116969 -0.7020969 0.0233999
vn 0.7597228 -0.00600018 0.6502195
vn 0.7597228 -0.00600018 0.6502195
vn 0.7597228 -0.00600018 0.6502195
vn 0.7597228 -0.00600018 0.6502195
vn 0 0.7857038 0.618603
vn 0 0.7857038 0.618603
vn 0 0.7857038 0.618603
vn 0 0.7857038 0.618603
vn -0.7595972 -0.02539991 0.6498976
vn -0.7595972 -0.02539991 0.6498976
vn -0.7595972 -0.02539991 0.6498976
vn -0.7595972 -0.02539991 0.6498976
vn 0.005700082 -0.8431121 0.5377077
vn 0.005700082 -0.8431121 0.5377077
vn 0.005700082 -0.8431121 0.5377077
vn 0.005700082 -0.8431121 0.5377077
vn -0.640312 -0.7681144 -0.0009000169
vn -0.640312 -0.7681144 -0.0009000169
vn -0.640312 -0.7681144 -0.0009000169
vn -0.640312 -0.7681144 -0.0009000169
vn 0 -0.6564065 -0.7544075
vn 0 -0.6564065 -0.7544075
vn 0 -0.6564065 -0.7544075
vn 0 -0.6564065 -0.7544075
vn 0.6347885 -0.7726859 0
vn 0.6347885 -0.7726859 0
vn 0.6347885 -0.7726859 0
vn 0.6347885 -0.7726859 0
vn 0.008200438 -0.5702304 0.8214438
vn 0.008200438 -0.5702304 0.8214438
vn 0.008200438 -0.5702304 0.8214438
vn 0.008200438 -0.5702304 0.8214438
vn -0.5836266 0.811237 -0.03570163
vn -0.5836266 0.811237 -0.03570163
vn -0.5836266 0.811237 -0.03570163
vn -0.5836266 0.811237 -0.03570163
vn 0 0.7315207 0.6818192
vn 0 0.7315207 0.6818192
vn 0 0.7315207 0.6818192
vn 0 0.7315207 0.6818192
vn 0.5835062 0.8121086 0
vn 0.5835062 0.8121086 0
vn 0.5835062 0.8121086 0
vn 0.5835062 0.8121086 0
vn 0.0002000056 0.7315207 -0.6818192
vn 0.0002000056 0.7315207 -0.6818192
vn 0.0002000056 0.7315207 -0.6818192
vn 0.0002000056 0.7315207 -0.6818192
vn 0.9988808 -0.04729909 0
vn 0.9988808 -0.04729909 0
vn 0.9988808 -0.04729909 0
vn 0.998876 -0.04739887 0
vn 0.9988808 -0.04729909 0
vn 0.998876 -0.04739887 0
vn 0.9988808 -0.04729909 0
vn 0.9988808 -0.04729909 0
vn 0 1 0
vn 0 1 0
vn 0 1 0
vn 0 1 0
vn 0 1 0
vn 0 1 0
vn 0 1 0
vn 0 1 0
vn -0.9958687 -0.09029716 -0.009599699
vn -0.9958687 -0.09029716 -0.009599699
vn -0.9958687 -0.09029716 -0.009599699
vn -0.9977643 -0.06679761 0.002099925
vn -0.9958687 -0.09029716 -0.009599699
vn -0.9977643 -0.06679761 0.002099925
vn -0.9958253 -0.08930226 -0.01890048
vn -0.9958253 -0.08930226 -0.01890048
vn 0 -1 0
vn 0 -1 0
vn 0 -1 0
vn 0 -1 0
vn 0 -1 0
vn 0 -1 0
vn 0 -1 0
vn 0 -1 0
g props_30_0
f 3/3/3 2/2/2 1/1/1
f 4/4/4 3/3/3 1/1/1
f 7/7/7 6/6/6 5/5/5
f 8/8/8 7/7/7 5/5/5
f 11/11/11 10/10/10 9/9/9
f 12/12/12 11/11/11 9/9/9
f 15/15/15 14/14/14 13/13/13
f 16/16/16 15/15/15 13/13/13
f 19/19/19 18/18/18 17/17/17
f 20/20/20 19/19/19 17/17/17
f 23/23/23 22/22/22 21/21/21
f 24/24/24 23/23/23 21/21/21
f 27/27/27 26/26/26 25/25/25
f 26/26/26 28/28/28 25/25/25
f 28/28/28 29/29/29 25/25/25
f 29/29/29 30/30/30 25/25/25
f 33/33/33 32/32/32 31/31/31
f 34/34/34 33/33/33 31/31/31
f 37/37/37 36/36/36 35/35/35
f 38/38/38 37/37/37 35/35/35
f 41/41/41 40/40/40 39/39/39
f 40/40/40 42/42/42 39/39/39
f 43/43/43 42/42/42 40/40/40
f 44/44/44 43/43/43 40/40/40
f 44/44/44 45/45/45 43/43/43
f 45/45/45 46/46/46 43/43/43
f 47/47/47 46/46/46 45/45/45
f 48/48/48 47/47/47 45/45/45
f 51/51/51 50/50/50 49/49/49
f 52/52/52 51/51/51 49/49/49
f 55/55/55 54/54/54 53/53/53
f 56/56/56 55/55/55 53/53/53
f 59/59/59 58/58/58 57/57/57
f 60/60/60 59/59/59 57/57/57
f 63/63/63 62/62/62 61/61/61
f 64/64/64 63/63/63 61/61/61
f 67/67/67 66/66/66 65/65/65
f 68/68/68 67/67/67 65/65/65
f 71/71/71 70/70/70 69/69/69
f 72/72/72 71/71/71 69/69/69
f 75/75/75 74/74/74 73/73/73
f 76/76/76 75/75/75 73/73/73
f 79/79/79 78/78/78 77/77/77
f 80/80/80 79/79/79 77/77/77
f 83/83/83 82/82/82 81/81/81
f 84/84/84 83/83/83 81/81/81
f 87/87/87 86/86/86 85/85/85
f 88/88/88 87/87/87 85/85/85
f 91/91/91 90/90/90 89/89/89
f 92/92/92 91/91/91 89/89/89
f 95/95/95 94/94/94 93/93/93
f 96/96/96 95/95/95 93/93/93
f 99/99/99 98/98/98 97/97/97
f 100/100/100 99/99/99 97/97/97
f 103/103/103 102/102/102 101/101/101
f 104/104/104 103/103/103 101/101/101
f 107/107/107 106/106/106 105/105/105
f 108/108/108 107/107/107 105/105/105
f 111/111/111 110/110/110 109/109/109
f 112/112/112 111/111/111 109/109/109
f 115/115/115 114/114/114 113/113/113
f 116/116/116 115/115/115 113/113/113
f 119/119/119 118/118/118 117/117/117
f 120/120/120 119/119/119 117/117/117
f 123/123/123 122/122/122 121/121/121
f 124/124/124 123/123/123 121/121/121
f 127/127/127 126/126/126 125/125/125
f 128/128/128 127/127/127 125/125/125
f 131/131/131 130/130/130 129/129/129
f 132/132/132 131/131/131 129/129/129
f 135/135/135 134/134/134 133/133/133
f 136/136/136 135/135/135 133/133/133
f 139/139/139 138/138/138 137/137/137
f 140/140/140 139/139/139 137/137/137
f 143/143/143 142/142/142 141/141/141
f 144/144/144 143/143/143 141/141/141
f 147/147/147 146/146/146 145/145/145
f 146/146/146 147/147/147 148/148/148
f 149/149/149 147/147/147 145/145/145
f 147/147/147 150/150/150 148/148/148
f 145/145/145 151/151/151 149/149/149
f 148/148/148 150/150/150 151/151/151
f 151/151/151 152/152/152 149/149/149
f 150/150/150 152/152/152 151/151/151
f 155/155/155 154/154/154 153/153/153
f 156/156/156 155/155/155 153/153/153
f 154/154/154 157/157/157 153/153/153
f 158/158/158 156/156/156 153/153/153
f 157/157/157 154/154/154 159/159/159
f 160/160/160 156/156/156 158/158/158
f 159/159/159 160/160/160 158/158/158
f 154/154/154 160/160/160 159/159/159
f 163/163/163 162/162/162 161/161/161
f 163/163/163 164/164/164 162/162/162
f 162/162/162 165/165/165 161/161/161
f 164/164/164 166/166/166 162/162/162
f 161/161/161 165/165/165 167/167/167
f 166/166/166 164/164/164 168/168/168
f 164/164/164 167/167/167 168/168/168
f 165/165/165 168/168/168 167/167/167
f 171/171/171 170/170/170 169/169/169
f 172/172/172 170/170/170 171/171/171
f 173/173/173 171/171/171 169/169/169
f 174/174/174 172/172/172 171/171/171
f 169/169/169 175/175/175 173/173/173
f 172/172/172 174/174/174 176/176/176
f 175/175/175 176/176/176 173/173/173
f 175/175/175 172/172/172 176/176/176
