g props_12
v 0.1589746 0.158976 0.0071545
v 0.1589746 -0.158976 0.0071555
v -0.1589743 -0.158976 0.0071555
v -0.1589743 0.158976 0.0071545
v -0.1589743 0.158976 0.0071545
v -0.1589743 0.158976 -0.0310005
v 0.1589746 0.158976 -0.0310005
v 0.1589746 0.158976 0.0071545
v -0.1589743 -0.158976 0.0071555
v -0.1589743 -0.158976 -0.0309995
v -0.1589743 0.158976 -0.0310005
v -0.1589743 0.158976 0.0071545
v 0.1589746 -0.158976 0.0071555
v 0.1589746 -0.158976 -0.0309995
v -0.1589743 -0.158976 -0.0309995
v -0.1589743 -0.158976 0.0071555
v 0.1589746 0.158976 0.0071545
v 0.1589746 0.158976 -0.0310005
v 0.1589746 -0.158976 -0.0309995
v 0.1589746 -0.158976 0.0071555
v -0.1571194 0.156938 0.0310005
v -0.1291214 0.095212 0.0310005
v -0.1571194 0.076621 0.0310005
v -0.06999023 0.116841 0.0310005
v -0.00101532 0.137036 0.0310005
v 0.04964874 0.156938 0.0310005
v -0.1571194 0.076621 0.0310005
v -0.1571194 0.076621 -0.0166925
v -0.1571194 0.156938 -0.0166925
v -0.1571194 0.156938 0.0310005
v -0.1291214 0.095212 0.0310005
v -0.1571194 0.076621 -0.0166925
v -0.1571194 0.076621 0.0310005
v -0.1291214 0.095212 -0.0166925
v -0.06999023 0.116841 0.0310005
v -0.06999023 0.116841 -0.0166925
v -0.00101532 0.137036 0.0310005
v -0.00101532 0.137036 -0.0166925
v 0.04964874 0.156938 0.0310005
v 0.04964874 0.156938 -0.0166925
v -0.1571194 0.156938 0.0310005
v -0.1571194 0.156938 -0.0166925
v 0.04964874 0.156938 -0.0166925
v 0.04964874 0.156938 0.0310005
vt 0.3523983 0.6306119
vt 0.3523983 0.5055997
vt 0.2273873 0.5055997
vt 0.2273873 0.6306119
vt 0.2273873 0.6306119
vt 0.2273873 0.6456137
vt 0.3523983 0.6456137
vt 0.3523983 0.6306119
vt 0.2273873 0.5055997
vt 0.2123855 0.5055998
vt 0.2123855 0.630612
vt 0.2273873 0.6306119
vt 0.3523983 0.5055997
vt 0.3523983 0.490598
vt 0.2273873 0.490598
vt 0.2273873 0.5055997
vt 0.3523983 0.6306119
vt 0.3674 0.630612
vt 0.3674 0.5055998
vt 0.3523983 0.5055997
vt 0.8717403 0.5414056
vt 0.8983469 0.5429123
vt 0.9011906 0.5300078
vt 0.8988074 0.5676636
vt 0.9011906 0.595821
vt 0.9010827 0.6172225
vt 0.1002017 0.8797673
vt 0.0814498 0.8797673
vt 0.0814498 0.9113463
vt 0.1002017 0.9113463
vt 0.1002017 0.8665532
vt 0.0814498 0.8797673
vt 0.1002017 0.8797673
vt 0.0814498 0.8665532
vt 0.1002017 0.8417976
vt 0.0814498 0.8417976
vt 0.1002017 0.8135396
vt 0.0814498 0.8135396
vt 0.1002017 0.7921377
vt 0.0814498 0.7921377
vt 0.1002017 0.9113463
vt 0.0814498 0.9113463
vt 0.0814498 0.9926432
vt 0.1002017 0.9926432
vn 0 3.145651E-06 1
vn 0 3.145651E-06 1
vn 0 3.145651E-06 1
vn 0 3.145651E-06 1
vn 0 1 0
vn 0 1 0
vn 0 1 0
vn 0 1 0
vn -1 0 0
vn -1 0 0
vn -1 0 0
vn -1 0 0
vn 0 -1 0
vn 0 -1 0
vn 0 -1 0
vn 0 -1 0
vn 1 0 0
vn 1 0 0
vn 1 0 0
vn 1 0 0
vn 0 0 1
vn 0 0 1
vn 0 0 1
vn 0 0 1
vn 0 0 1
vn 0 0 1
vn -1 0 0
vn -1 0 0
vn -1 0 0
vn -1 0 0
vn 0.4514703 -0.8922862 0
vn 0.5531676 -0.83307 0
vn 0.5531676 -0.83307 0
vn 0.4514703 -0.8922862 0
vn 0.3124252 -0.9499424 0
vn 0.3124252 -0.9499424 0
vn 0.3236318 -0.946183 0
vn 0.3236318 -0.946183 0
vn 0.3656248 -0.9307624 0
vn 0.3656248 -0.9307624 0
vn 0 1 0
vn 0 1 0
vn 0 1 0
vn 0 1 0
g props_12_0
f 3/3/3 2/2/2 1/1/1
f 4/4/4 3/3/3 1/1/1
f 7/7/7 6/6/6 5/5/5
f 8/8/8 7/7/7 5/5/5
f 11/11/11 10/10/10 9/9/9
f 12/12/12 11/11/11 9/9/9
f 15/15/15 14/14/14 13/13/13
f 16/16/16 15/15/15 13/13/13
f 19/19/19 18/18/18 17/17/17
f 20/20/20 19/19/19 17/17/17
f 23/23/23 22/22/22 21/21/21
f 22/22/22 24/24/24 21/21/21
f 25/25/25 21/21/21 24/24/24
f 26/26/26 21/21/21 25/25/25
f 29/29/29 28/28/28 27/27/27
f 30/30/30 29/29/29 27/27/27
f 33/33/33 32/32/32 31/31/31
f 32/32/32 34/34/34 31/31/31
f 31/31/31 34/34/34 35/35/35
f 34/34/34 36/36/36 35/35/35
f 35/35/35 36/36/36 37/37/37
f 36/36/36 38/38/38 37/37/37
f 37/37/37 38/38/38 39/39/39
f 38/38/38 40/40/40 39/39/39
f 43/43/43 42/42/42 41/41/41
f 44/44/44 43/43/43 41/41/41
