g Ship_Clock_COL
v 0.1029121 0.1226461 5.361031E-09
v 0 0.1350546 0.2068687
v 0 0.1601031 6.998329E-09
v 0.08681137 0.1034578 0.2068687
v 0 0.1601031 6.998329E-09
v -0.08681137 0.1034578 0.2068687
v -0.1029123 0.1226461 5.361031E-09
v 0 0.1350546 0.2068687
v -0.1029123 0.1226461 5.361031E-09
v -0.1330028 0.023452 0.2068687
v -0.1576707 0.02780164 1.215248E-09
v -0.08681137 0.1034578 0.2068687
v -0.1576707 0.02780164 1.215248E-09
v -0.1169606 -0.06752727 0.2068687
v -0.1386534 -0.0800515 -3.499162E-09
v -0.1330028 0.023452 0.2068687
v -0.1386534 -0.0800515 -3.499162E-09
v -0.04619141 -0.1269098 0.2068687
v -0.0547586 -0.1504477 -6.576276E-09
v -0.1169606 -0.06752727 0.2068687
v -0.0547586 -0.1504477 -6.576276E-09
v 0.04619141 -0.1269098 0.2068687
v 0.0547583 -0.1504477 -6.576279E-09
v -0.04619141 -0.1269098 0.2068687
v 0.0547583 -0.1504477 -6.576279E-09
v 0.1169606 -0.06752739 0.2068687
v 0.1386533 -0.08005163 -3.499168E-09
v 0.04619141 -0.1269098 0.2068687
v 0.08681137 0.1034578 0.2068687
v -0.08681137 0.1034578 0.2068687
v 0 0.1350546 0.2068687
v 0.04619141 -0.1269098 0.2068687
v 0.1169606 -0.06752739 0.2068687
v 0.1330028 0.02345199 0.2068687
v -0.1169606 -0.06752727 0.2068687
v -0.1330028 0.023452 0.2068687
v -0.04619141 -0.1269098 0.2068687
v 0.1576707 0.02780162 1.215247E-09
v 0.0547583 -0.1504477 -6.576279E-09
v 0.1386533 -0.08005163 -3.499168E-09
v 0.1029121 0.1226461 5.361031E-09
v -0.1386534 -0.0800515 -3.499162E-09
v -0.0547586 -0.1504477 -6.576276E-09
v -0.1029123 0.1226461 5.361031E-09
v 0 0.1601031 6.998329E-09
v -0.1576707 0.02780164 1.215248E-09
v 0.08681137 0.1034578 0.2068687
v 0.1576707 0.02780162 1.215247E-09
v 0.1330028 0.02345199 0.2068687
v 0.1029121 0.1226461 5.361031E-09
v 0.1169606 -0.06752739 0.2068687
v 0.1576707 0.02780162 1.215247E-09
v 0.1386533 -0.08005163 -3.499168E-09
v 0.1330028 0.02345199 0.2068687
vt 0.8448792 0.5602894
vt 0.8992386 0.544865
vt 0.8472282 0.5311562
vt 0.8982116 0.5569338
vt 0.8467716 0.5387679
vt 0.9001487 0.5201086
vt 0.8473601 0.5095375
vt 0.8998955 0.5321912
vt 0.8474642 0.5172634
vt 0.8995638 0.4954756
vt 0.8468616 0.4882652
vt 0.9000241 0.5074474
vt 0.8099198 0.6774011
vt 0.8622715 0.6882401
vt 0.8183027 0.6575516
vt 0.8575906 0.6991803
vt 0.8157045 0.6636232
vt 0.8721823 0.6655391
vt 0.8268181 0.636633
vt 0.8675656 0.67667
vt 0.8240764 0.6437435
vt 0.880619 0.6422017
vt 0.8335885 0.616156
vt 0.8766754 0.6536523
vt 0.8312677 0.6234109
vt 0.887623 0.6183702
vt 0.8390189 0.5953052
vt 0.8843826 0.6300601
vt 0.790064 0.3877243
vt 0.8329114 0.3877243
vt 0.8114879 0.379927
vt 0.8000883 0.4445741
vt 0.7826239 0.4299199
vt 0.778665 0.4074683
vt 0.8403515 0.4299199
vt 0.8443104 0.4074683
vt 0.8228869 0.4445741
vt 0.07953724 0.1775037
vt 0.1048305 0.1336942
vt 0.08421127 0.1509961
vt 0.09299552 0.2008144
vt 0.1523667 0.1509961
vt 0.1317472 0.1336942
vt 0.1435822 0.2008144
vt 0.1182889 0.2100202
vt 0.1570406 0.1775037
vt 0.8982116 0.5569338
vt 0.07953724 0.1775037
vt 0.778665 0.4074683
vt 0.09299552 0.2008144
vt 0.7826239 0.4299199
vt 0.07953724 0.1775037
vt 0.8390189 0.5953052
vt 0.778665 0.4074683
vn 0.5180966 0.6174439 -0.5918946
vn 0 0.731226 0.6821352
vn 1.177337E-07 0.8060156 -0.5918943
vn 0.470023 0.5601515 0.6821354
vn 1.177337E-07 0.8060156 -0.5918943
vn -0.4700229 0.5601516 0.6821353
vn -0.5180969 0.6174437 -0.5918942
vn 0 0.731226 0.6821352
vn -0.5180969 0.6174437 -0.5918942
vn -0.720117 0.1269758 0.6821353
vn -0.7937704 0.1399632 -0.5918943
vn -0.4700229 0.5601516 0.6821353
vn -0.7937704 0.1399632 -0.5918943
vn -0.6332601 -0.3656127 0.6821357
vn -0.6980304 -0.4030073 -0.5918941
vn -0.720117 0.1269758 0.6821353
vn -0.6980304 -0.4030073 -0.5918941
vn -0.2500944 -0.6871275 0.6821354
vn -0.275674 -0.7574067 -0.5918944
vn -0.6332601 -0.3656127 0.6821357
vn -0.275674 -0.7574067 -0.5918944
vn 0.2500942 -0.6871277 0.6821353
vn 0.275673 -0.7574071 -0.5918945
vn -0.2500944 -0.6871275 0.6821354
vn 0.275673 -0.7574071 -0.5918945
vn 0.6332601 -0.3656132 0.6821353
vn 0.6980297 -0.4030083 -0.5918943
vn 0.2500942 -0.6871277 0.6821353
vn 0.470023 0.5601515 0.6821354
vn -0.4700229 0.5601516 0.6821353
vn 0 0.731226 0.6821352
vn 0.2500942 -0.6871277 0.6821353
vn 0.6332601 -0.3656132 0.6821353
vn 0.720117 0.1269759 0.6821353
vn -0.6332601 -0.3656127 0.6821357
vn -0.720117 0.1269758 0.6821353
vn -0.2500944 -0.6871275 0.6821354
vn 0.7937704 0.1399633 -0.5918942
vn 0.275673 -0.7574071 -0.5918945
vn 0.6980297 -0.4030083 -0.5918943
vn 0.5180966 0.6174439 -0.5918946
vn -0.6980304 -0.4030073 -0.5918941
vn -0.275674 -0.7574067 -0.5918944
vn -0.5180969 0.6174437 -0.5918942
vn 1.177337E-07 0.8060156 -0.5918943
vn -0.7937704 0.1399632 -0.5918943
vn 0.470023 0.5601515 0.6821354
vn 0.7937704 0.1399633 -0.5918942
vn 0.720117 0.1269759 0.6821353
vn 0.5180966 0.6174439 -0.5918946
vn 0.6332601 -0.3656132 0.6821353
vn 0.7937704 0.1399633 -0.5918942
vn 0.6980297 -0.4030083 -0.5918943
vn 0.720117 0.1269759 0.6821353
g Ship_Clock_COL_0
f 3/3/3 2/2/2 1/1/1
f 4/4/4 1/1/1 2/2/2
f 7/7/7 6/6/6 5/5/5
f 8/8/8 5/5/5 6/6/6
f 11/11/11 10/10/10 9/9/9
f 12/12/12 9/9/9 10/10/10
f 15/15/15 14/14/14 13/13/13
f 16/16/16 13/13/13 14/14/14
f 19/19/19 18/18/18 17/17/17
f 20/20/20 17/17/17 18/18/18
f 23/23/23 22/22/22 21/21/21
f 24/24/24 21/21/21 22/22/22
f 27/27/27 26/26/26 25/25/25
f 28/28/28 25/25/25 26/26/26
f 31/31/31 30/30/30 29/29/29
f 30/30/30 32/32/32 29/29/29
f 32/32/32 33/33/33 29/29/29
f 29/29/29 33/33/33 34/34/34
f 35/35/35 32/32/32 30/30/30
f 36/36/36 35/35/35 30/30/30
f 37/37/37 32/32/32 35/35/35
f 40/40/40 39/39/39 38/38/38
f 38/38/38 39/39/39 41/41/41
f 39/39/39 42/42/42 41/41/41
f 43/43/43 42/42/42 39/39/39
f 42/42/42 44/44/44 41/41/41
f 44/44/44 45/45/45 41/41/41
f 46/46/46 44/44/44 42/42/42
f 49/49/49 48/48/48 47/47/47
f 50/50/50 47/47/47 48/48/48
f 53/53/53 52/52/52 51/51/51
f 54/54/54 51/51/51 52/52/52
