g Table_Knife
v -0.009906006 0.01291664 0.170672
v -0.009166259 0.008186264 0.1820036
v -0.01332275 0.008186264 0.170672
v -0.004356079 0.008186264 0.02234617
v -0.002640381 0.01137104 0.02234617
v -0.002640381 0.01091087 0.0121501
v -0.004356079 0.008186264 0.0121501
v -0.004384155 0.01002552 0.007008462
v -0.006099853 0.008186264 0.007008462
v -0.01042297 0.01002552 0.0001529455
v -0.01213867 0.008186264 0.0001529455
v -0.01773743 0.01002552 -0.004988689
v -0.01945313 0.008186264 -0.004988689
v -0.01726685 0.01002552 -0.07612054
v -0.01898193 0.008186264 -0.07612054
v -0.01766357 0.008186264 -0.1076249
v -0.01594849 0.01002552 -0.1076249
v -0.01477661 0.008186264 -0.1331957
v -0.0130603 0.01002552 -0.1331957
v -0.009146118 0.008186264 -0.1587665
v -0.00743042 0.01002552 -0.1587665
v -0.002731933 0.008186264 -0.1758137
v -0.001016846 0.01002552 -0.1758137
v 0.002890015 0.01002552 -0.1826644
v 0.002521973 0.008186264 -0.1843016
v 0.01536011 0.008186264 0.1819726
v 0.01603638 0.003455887 0.170672
v 0.01383545 0.006092529 0.1807991
v 0.01945313 0.008186264 0.170672
v 0.01048645 0.008186264 0.02234617
v 0.008770752 0.005001488 0.02234617
v 0.008770752 0.005461655 0.0121501
v 0.01048645 0.008186264 0.0121501
v 0.008770752 0.006347008 -0.004988689
v 0.01048645 0.008186264 -0.004988689
v 0.008770752 0.006347008 -0.09187269
v 0.01048645 0.008186264 -0.09187269
v 0.008770752 0.006347008 -0.1459811
v 0.01048645 0.008186264 -0.1459811
v 0.008770752 0.006347008 -0.1758137
v 0.01048645 0.008186264 -0.1758137
v 0.008622437 0.006347008 -0.1830452
v 0.009924927 0.008186264 -0.1843362
v 0.00621582 0.008186264 -0.1856114
v 0.002890015 0.01002552 -0.1826644
v 0.002521973 0.008186264 -0.1843016
v 0.005731201 0.01002552 -0.1838171
v -0.001016846 0.01002552 -0.1758137
v 0.009924927 0.008186264 -0.1843362
v 0.004528808 0.01002552 -0.1758137
v 0.008622437 0.01002552 -0.1830452
v 0.008770752 0.01002552 -0.1758137
v 0.01048645 0.008186264 -0.1758137
v 0.003065185 0.01002552 -0.1459811
v -0.00743042 0.01002552 -0.1587665
v -0.0130603 0.01002552 -0.1331957
v 0.008770752 0.01002552 -0.1459811
v 0.01048645 0.008186264 -0.1459811
v 0.003065185 0.01002552 -0.09187269
v -0.01594849 0.01002552 -0.1076249
v -0.01726685 0.01002552 -0.07612054
v 0.003065185 0.01002552 -0.004988689
v -0.01773743 0.01002552 -0.004988689
v -0.01042297 0.01002552 0.0001529455
v -0.004384155 0.01002552 0.007008462
v 0.008770752 0.01002552 -0.09187269
v 0.01048645 0.008186264 -0.09187269
v 0.008770752 0.01002552 -0.004988689
v 0.01048645 0.008186264 -0.004988689
v 0.003065185 0.01091087 0.0121501
v -0.002640381 0.01091087 0.0121501
v -0.002640381 0.01137104 0.02234617
v 0.008770752 0.01091087 0.0121501
v 0.01048645 0.008186264 0.0121501
v 0.003065185 0.01306122 0.02234617
v 0.008770752 0.01137104 0.02234617
v 0.01048645 0.008186264 0.02234617
v 0.01603638 0.01291664 0.170672
v 0.01945313 0.008186264 0.170672
v 0.01536011 0.008186264 0.1819726
v 0.003065185 0.01578094 0.170672
v -0.009906006 0.01291664 0.170672
v 0.01383545 0.01028 0.1807991
v 0.003065185 0.008186264 0.1856114
v -0.007704468 0.01028 0.1807991
v -0.009166259 0.008186264 0.1820036
v 0.003065185 0.01259014 0.183363
v 0.00621582 0.008186264 -0.1856114
v 0.008622437 0.006347008 -0.1830452
v 0.009924927 0.008186264 -0.1843362
v 0.005731201 0.006347008 -0.1838171
v 0.008770752 0.006347008 -0.1758137
v 0.002521973 0.008186264 -0.1843016
v 0.004528808 0.006347008 -0.1758137
v 0.008770752 0.006347008 -0.1459811
v 0.002890015 0.006347008 -0.1826644
v -0.001016846 0.006347008 -0.1758137
v -0.002731933 0.008186264 -0.1758137
v 0.003065185 0.006347008 -0.1459811
v 0.008770752 0.006347008 -0.09187269
v -0.00743042 0.006347008 -0.1587665
v -0.009146118 0.008186264 -0.1587665
v -0.0130603 0.006347008 -0.1331957
v -0.01477661 0.008186264 -0.1331957
v 0.003065185 0.006347008 -0.09187269
v 0.003065185 0.006347008 -0.004988689
v 0.008770752 0.006347008 -0.004988689
v -0.01594849 0.006347008 -0.1076249
v -0.01766357 0.008186264 -0.1076249
v -0.01726685 0.006347008 -0.07612054
v -0.01898193 0.008186264 -0.07612054
v -0.01773743 0.006347008 -0.004988689
v -0.01945313 0.008186264 -0.004988689
v -0.01213867 0.008186264 0.0001529455
v -0.01042297 0.006347008 0.0001529455
v -0.006099853 0.008186264 0.007008462
v -0.004384155 0.006347008 0.007008462
v -0.004356079 0.008186264 0.0121501
v 0.003065185 0.005461655 0.0121501
v 0.008770752 0.005461655 0.0121501
v 0.008770752 0.005001488 0.02234617
v -0.002640381 0.005461655 0.0121501
v 0.003065185 0.00331131 0.02234617
v -0.002640381 0.005001488 0.02234617
v -0.004356079 0.008186264 0.02234617
v -0.01332275 0.008186264 0.170672
v -0.009906006 0.003455887 0.170672
v -0.009166259 0.008186264 0.1820036
v -0.007704468 0.006092529 0.1807992
v 0.003065185 0.0005915833 0.170672
v 0.01603638 0.003455887 0.170672
v 0.003065185 0.003782387 0.1833631
v 0.01383545 0.006092529 0.1807991
v -0.009166259 0.008186264 0.1820036
v 0.003065185 0.003782387 0.1833631
v -0.007704468 0.006092529 0.1807992
v 0.003065185 0.008186264 0.1856114
v 0.01536011 0.008186264 0.1819726
v 0.01383545 0.006092529 0.1807991
vt 0.9735596 0.2551262
vt 0.9734563 0.2472454
vt 0.9699682 0.2547452
vt 0.976972 0.3501135
vt 0.9792737 0.3500532
vt 0.979514 0.3566241
vt 0.9774575 0.3566523
vt 0.978445 0.3600592
vt 0.9768457 0.359906
vt 0.9747403 0.3646754
vt 0.9731686 0.3642785
vt 0.9702391 0.3681476
vt 0.9686775 0.3679548
vt 0.9721756 0.413599
vt 0.9705629 0.4136606
vt 0.9721467 0.4338433
vt 0.9737546 0.4337433
vt 0.9746047 0.4501957
vt 0.9762086 0.4500484
vt 0.9788324 0.4664957
vt 0.9804273 0.4662808
vt 0.9833776 0.4773445
vt 0.9849458 0.4770228
vt 0.9876655 0.4812391
vt 0.987139 0.482708
vt 0.9669043 0.4812258
vt 0.9666333 0.4733693
vt 0.9655636 0.4800734
vt 0.9702309 0.4736899
vt 0.9612162 0.3785155
vt 0.9589193 0.3785921
vt 0.9587124 0.3720624
vt 0.9607854 0.371955
vt 0.9585424 0.361066
vt 0.9601557 0.3610147
vt 0.9579801 0.3053923
vt 0.9595908 0.3053716
vt 0.957662 0.2707269
vt 0.9592749 0.2707013
vt 0.9574826 0.2516212
vt 0.9590904 0.2515376
vt 0.9571966 0.2470521
vt 0.9583532 0.2459388
vt 0.9897607 0.483524
vt 0.9876655 0.4812391
vt 0.987139 0.482708
vt 0.9894115 0.4819188
vt 0.9849458 0.4770228
vt 0.9923304 0.4824504
vt 0.9884827 0.4768693
vt 0.9911234 0.4813914
vt 0.9911959 0.4768138
vt 0.9928051 0.4768229
vt 0.9868368 0.4578427
vt 0.9804273 0.4662808
vt 0.9762086 0.4500484
vt 0.9904935 0.4577211
vt 0.9921054 0.4576719
vt 0.9855613 0.4232121
vt 0.9737546 0.4337433
vt 0.9721756 0.413599
vt 0.9835452 0.3675589
vt 0.9702391 0.3681476
vt 0.9747403 0.3646754
vt 0.978445 0.3600592
vt 0.9892123 0.4230777
vt 0.9908218 0.423024
vt 0.9872171 0.3674373
vt 0.9888323 0.3674134
vt 0.9831803 0.3565586
vt 0.979514 0.3566241
vt 0.9792737 0.3500532
vt 0.9868679 0.3564453
vt 0.9889432 0.356455
vt 0.9830235 0.3499805
vt 0.9867673 0.3499146
vt 0.9890639 0.349884
vt 0.9901714 0.2548853
vt 0.9937505 0.2544014
vt 0.9900839 0.2470243
vt 0.9818679 0.2551957
vt 0.9735596 0.2551262
vt 0.9887971 0.2482374
vt 0.9817091 0.2442424
vt 0.9747418 0.2484411
vt 0.9734563 0.2472454
vt 0.9817517 0.2471675
vt 0.9557378 0.244984
vt 0.9571966 0.2470521
vt 0.9583532 0.2459388
vt 0.9554637 0.2466034
vt 0.9574826 0.2516212
vt 0.9531577 0.2459204
vt 0.9547693 0.2516913
vt 0.957662 0.2707269
vt 0.9537513 0.2473633
vt 0.9512294 0.2517004
vt 0.9496482 0.2514518
vt 0.954003 0.270774
vt 0.9579801 0.3053923
vt 0.9472109 0.2626397
vt 0.945608 0.2624987
vt 0.9437457 0.2790495
vt 0.9421364 0.2789772
vt 0.9543263 0.305427
vt 0.9548717 0.361114
vt 0.9585424 0.361066
vt 0.9420466 0.2954507
vt 0.9404356 0.2954255
vt 0.9413975 0.3156466
vt 0.9397842 0.3156601
vt 0.9415538 0.3611401
vt 0.9400032 0.3614047
vt 0.9446591 0.3648711
vt 0.9462107 0.364402
vt 0.9485363 0.3690692
vt 0.9501266 0.3688421
vt 0.9493002 0.3722914
vt 0.9550225 0.3721203
vt 0.9587124 0.3720624
vt 0.9589193 0.3785921
vt 0.9513559 0.3722241
vt 0.9551737 0.378699
vt 0.9514234 0.3787987
vt 0.9491211 0.3788448
vt 0.9464573 0.4744312
vt 0.9500276 0.4738866
vt 0.9502835 0.4817634
vt 0.9515134 0.480511
vt 0.9583244 0.4734387
vt 0.9666333 0.4733693
vt 0.9585742 0.4814628
vt 0.9655636 0.4800734
vt 0.9502835 0.4817634
vt 0.9585742 0.4814628
vt 0.9515134 0.480511
vt 0.958665 0.4843867
vt 0.9669043 0.4812258
vt 0.9655636 0.4800734
vn -0.5478284 0.8261822 0.1315561
vn -0.6923445 0.009557783 0.7215038
vn -0.9906895 0.0005256287 0.1361396
vn -0.999416 0.004102599 -0.03392475
vn -0.6053333 0.7932646 -0.06559629
vn -0.4404676 0.8973087 -0.02873035
vn -0.9921847 0.00358109 0.1247264
vn -0.3840591 0.9121088 0.1433742
vn -0.8399161 0 0.5427163
vn -0.3120264 0.8935596 0.3227858
vn -0.6353163 0 0.772252
vn -0.4431995 0.842612 0.3059076
vn -0.9202357 -1.136223E-06 0.3913647
vn -0.4024481 0.9153902 -0.009825863
vn -0.9997111 -8.626208E-07 -0.02403588
vn -0.9971159 0 -0.07589531
vn -0.4057007 0.9134511 -0.03184507
vn -0.9870669 0 -0.1603087
vn -0.4070689 0.9107705 -0.06922467
vn -0.9611151 0 -0.2761481
vn -0.4055505 0.9055704 -0.1243816
vn -0.9074476 -0.002495848 -0.4201578
vn -0.3954703 0.8979099 -0.1932902
vn -0.3523165 0.8614669 -0.3657157
vn -0.5943281 0.003501714 -0.8042151
vn 0.695334 0.009080602 0.7186294
vn 0.5474843 -0.826528 0.1308149
vn 0.4250712 -0.7761844 0.465674
vn 0.9910604 0 0.1334137
vn 0.9994673 -0.003256179 -0.03247341
vn 0.6053333 -0.7932646 -0.06559628
vn 0.4860396 -0.873166 -0.03669557
vn 0.9998839 -0.00801158 -0.01295918
vn 0.4062252 -0.9136515 -0.01490465
vn 0.9999281 -0.005637025 -0.01058752
vn 0.3986738 -0.9170927 0
vn 1 0 0
vn 0.3986739 -0.9170927 0
vn 1 0 0
vn 0.400849 -0.9161348 -0.0041286
vn 0.9997076 0.00488781 -0.02368043
vn 0.4032026 -0.8704847 -0.2822835
vn 0.7796177 0.01006968 -0.6261748
vn 0.01486422 0.01013031 -0.9998382
vn -0.3523165 0.8614669 -0.3657157
vn -0.5943281 0.003501714 -0.8042151
vn -0.04552209 0.8848311 -0.4636829
vn -0.3954703 0.8979099 -0.1932902
vn 0.7796177 0.01006968 -0.6261748
vn 0 1 0
vn 0.4115731 0.8641629 -0.2895344
vn 0.4054956 0.91402 -0.01186678
vn 0.9997076 0.00488781 -0.02368043
vn 0 1 0
vn -0.4055505 0.9055704 -0.1243816
vn -0.4070689 0.9107705 -0.06922467
vn 0.3986738 0.9170927 0
vn 1 0 0
vn 0 1 0
vn -0.4057007 0.9134511 -0.03184507
vn -0.4024481 0.9153902 -0.009825863
vn -0.007352396 0.9998205 -0.0174656
vn -0.4431995 0.842612 0.3059076
vn -0.3120264 0.8935596 0.3227858
vn -0.3840591 0.9121088 0.1433742
vn 0.3986739 0.9170927 0
vn 1 0 0
vn 0.4010094 0.9157659 -0.0237556
vn 0.9999281 -0.005637025 -0.01058752
vn -0.03638164 0.9928738 -0.1134819
vn -0.4404676 0.8973087 -0.02873035
vn -0.6053333 0.7932646 -0.06559629
vn 0.5002065 0.8633811 -0.06607775
vn 0.9998839 -0.00801158 -0.01295918
vn -0.02250002 0.9960257 -0.08617774
vn 0.622043 0.782307 -0.03253071
vn 0.9994673 -0.003256179 -0.03247341
vn 0.5478225 0.8261937 0.1315081
vn 0.9910604 0 0.1334137
vn 0.695334 0.009080602 0.7186294
vn -0.0004628795 0.9923782 0.1232284
vn -0.5478284 0.8261822 0.1315561
vn 0.4071559 0.765394 0.4983935
vn 0.0002419861 0.01224314 0.999925
vn -0.4121483 0.763958 0.4964896
vn -0.6923445 0.009557783 0.7215038
vn -7.587151E-06 0.7748276 0.6321726
vn 0.01486422 0.01013031 -0.9998382
vn 0.4032026 -0.8704847 -0.2822835
vn 0.7796177 0.01006968 -0.6261748
vn -0.04519273 -0.8905415 -0.4526516
vn 0.400849 -0.9161348 -0.0041286
vn -0.5943281 0.003501714 -0.8042151
vn 0 -1 0
vn 0.3986739 -0.9170927 0
vn -0.369228 -0.8582522 -0.3564743
vn -0.397279 -0.8947518 -0.2039327
vn -0.9074476 -0.002495848 -0.4201578
vn 0 -1 0
vn 0.3986738 -0.9170927 0
vn -0.4055506 -0.9055704 -0.1243817
vn -0.9611151 0 -0.2761481
vn -0.407069 -0.9107705 -0.06922468
vn -0.9870669 0 -0.1603087
vn 0 -1 0
vn -0.007352397 -0.9998205 -0.0174656
vn 0.4062252 -0.9136515 -0.01490465
vn -0.4057007 -0.9134511 -0.03184507
vn -0.9971159 0 -0.07589531
vn -0.4024489 -0.9153898 -0.009824204
vn -0.9997111 -8.626208E-07 -0.02403588
vn -0.4432009 -0.8426118 0.3059059
vn -0.9202357 -1.136223E-06 0.3913647
vn -0.6353163 0 0.772252
vn -0.3120264 -0.8935596 0.3227858
vn -0.8399161 0 0.5427163
vn -0.3840591 -0.9121088 0.1433742
vn -0.9921847 0.00358109 0.1247264
vn 0.01092198 -0.9934722 -0.1135503
vn 0.4860396 -0.873166 -0.03669557
vn 0.6053333 -0.7932646 -0.06559628
vn -0.4593288 -0.8858849 -0.06499942
vn 0.02249997 -0.9960257 -0.08617774
vn -0.6213594 -0.7827942 -0.03384819
vn -0.999416 0.004102599 -0.03392475
vn -0.9906895 0.0005256287 0.1361396
vn -0.5476695 -0.826039 0.1331081
vn -0.6923445 0.009557783 0.7215038
vn -0.4301282 -0.7742982 0.464168
vn 0.0004600415 -0.9923782 0.1232283
vn 0.5474843 -0.826528 0.1308149
vn 0.0001712695 -0.7827066 0.6223907
vn 0.4250712 -0.7761844 0.465674
vn -0.6923445 0.009557783 0.7215038
vn 0.0001712695 -0.7827066 0.6223907
vn -0.4301282 -0.7742982 0.464168
vn 0.0002419861 0.01224314 0.999925
vn 0.695334 0.009080602 0.7186294
vn 0.4250712 -0.7761844 0.465674
g Table_Knife_0
f 3/3/3 2/2/2 1/1/1
f 3/3/3 1/1/1 4/4/4
f 5/5/5 4/4/4 1/1/1
f 5/5/5 6/6/6 4/4/4
f 7/7/7 4/4/4 6/6/6
f 6/6/6 8/8/8 7/7/7
f 9/9/9 7/7/7 8/8/8
f 8/8/8 10/10/10 9/9/9
f 11/11/11 9/9/9 10/10/10
f 10/10/10 12/12/12 11/11/11
f 13/13/13 11/11/11 12/12/12
f 12/12/12 14/14/14 13/13/13
f 15/15/15 13/13/13 14/14/14
f 15/15/15 14/14/14 16/16/16
f 17/17/17 16/16/16 14/14/14
f 16/16/16 17/17/17 18/18/18
f 19/19/19 18/18/18 17/17/17
f 18/18/18 19/19/19 20/20/20
f 21/21/21 20/20/20 19/19/19
f 20/20/20 21/21/21 22/22/22
f 23/23/23 22/22/22 21/21/21
f 23/23/23 24/24/24 22/22/22
f 25/25/25 22/22/22 24/24/24
f 28/28/28 27/27/27 26/26/26
f 29/29/29 26/26/26 27/27/27
f 29/29/29 27/27/27 30/30/30
f 31/31/31 30/30/30 27/27/27
f 31/31/31 32/32/32 30/30/30
f 33/33/33 30/30/30 32/32/32
f 32/32/32 34/34/34 33/33/33
f 35/35/35 33/33/33 34/34/34
f 34/34/34 36/36/36 35/35/35
f 37/37/37 35/35/35 36/36/36
f 36/36/36 38/38/38 37/37/37
f 39/39/39 37/37/37 38/38/38
f 38/38/38 40/40/40 39/39/39
f 41/41/41 39/39/39 40/40/40
f 40/40/40 42/42/42 41/41/41
f 43/43/43 41/41/41 42/42/42
f 46/46/46 45/45/45 44/44/44
f 47/47/47 44/44/44 45/45/45
f 45/45/45 48/48/48 47/47/47
f 44/44/44 47/47/47 49/49/49
f 50/50/50 47/47/47 48/48/48
f 51/51/51 49/49/49 47/47/47
f 47/47/47 50/50/50 51/51/51
f 51/51/51 52/52/52 49/49/49
f 52/52/52 51/51/51 50/50/50
f 53/53/53 49/49/49 52/52/52
f 50/50/50 48/48/48 54/54/54
f 50/50/50 54/54/54 52/52/52
f 55/55/55 54/54/54 48/48/48
f 55/55/55 56/56/56 54/54/54
f 52/52/52 57/57/57 53/53/53
f 57/57/57 52/52/52 54/54/54
f 58/58/58 53/53/53 57/57/57
f 54/54/54 56/56/56 59/59/59
f 54/54/54 59/59/59 57/57/57
f 60/60/60 59/59/59 56/56/56
f 61/61/61 59/59/59 60/60/60
f 59/59/59 61/61/61 62/62/62
f 63/63/63 62/62/62 61/61/61
f 63/63/63 64/64/64 62/62/62
f 64/64/64 65/65/65 62/62/62
f 57/57/57 66/66/66 58/58/58
f 66/66/66 57/57/57 59/59/59
f 59/59/59 62/62/62 66/66/66
f 67/67/67 58/58/58 66/66/66
f 66/66/66 68/68/68 67/67/67
f 68/68/68 66/66/66 62/62/62
f 69/69/69 67/67/67 68/68/68
f 62/62/62 65/65/65 70/70/70
f 62/62/62 70/70/70 68/68/68
f 71/71/71 70/70/70 65/65/65
f 71/71/71 72/72/72 70/70/70
f 68/68/68 73/73/73 69/69/69
f 73/73/73 68/68/68 70/70/70
f 74/74/74 69/69/69 73/73/73
f 75/75/75 70/70/70 72/72/72
f 70/70/70 75/75/75 73/73/73
f 73/73/73 76/76/76 74/74/74
f 76/76/76 73/73/73 75/75/75
f 77/77/77 74/74/74 76/76/76
f 76/76/76 78/78/78 77/77/77
f 76/76/76 75/75/75 78/78/78
f 79/79/79 77/77/77 78/78/78
f 79/79/79 78/78/78 80/80/80
f 75/75/75 72/72/72 81/81/81
f 81/81/81 78/78/78 75/75/75
f 82/82/82 81/81/81 72/72/72
f 83/83/83 80/80/80 78/78/78
f 78/78/78 81/81/81 83/83/83
f 80/80/80 83/83/83 84/84/84
f 82/82/82 85/85/85 81/81/81
f 85/85/85 82/82/82 86/86/86
f 86/86/86 84/84/84 85/85/85
f 87/87/87 83/83/83 81/81/81
f 87/87/87 81/81/81 85/85/85
f 87/87/87 85/85/85 84/84/84
f 87/87/87 84/84/84 83/83/83
f 90/90/90 89/89/89 88/88/88
f 91/91/91 88/88/88 89/89/89
f 89/89/89 92/92/92 91/91/91
f 88/88/88 91/91/91 93/93/93
f 94/94/94 91/91/91 92/92/92
f 92/92/92 95/95/95 94/94/94
f 96/96/96 93/93/93 91/91/91
f 91/91/91 94/94/94 96/96/96
f 96/96/96 97/97/97 93/93/93
f 97/97/97 96/96/96 94/94/94
f 98/98/98 93/93/93 97/97/97
f 99/99/99 94/94/94 95/95/95
f 94/94/94 99/99/99 97/97/97
f 95/95/95 100/100/100 99/99/99
f 97/97/97 101/101/101 98/98/98
f 101/101/101 97/97/97 99/99/99
f 102/102/102 98/98/98 101/101/101
f 101/101/101 103/103/103 102/102/102
f 101/101/101 99/99/99 103/103/103
f 104/104/104 102/102/102 103/103/103
f 105/105/105 99/99/99 100/100/100
f 99/99/99 105/105/105 103/103/103
f 105/105/105 100/100/100 106/106/106
f 107/107/107 106/106/106 100/100/100
f 103/103/103 108/108/108 104/104/104
f 108/108/108 103/103/103 105/105/105
f 109/109/109 104/104/104 108/108/108
f 110/110/110 108/108/108 105/105/105
f 108/108/108 110/110/110 109/109/109
f 105/105/105 106/106/106 110/110/110
f 111/111/111 109/109/109 110/110/110
f 110/110/110 112/112/112 111/111/111
f 112/112/112 110/110/110 106/106/106
f 113/113/113 111/111/111 112/112/112
f 113/113/113 112/112/112 114/114/114
f 115/115/115 114/114/114 112/112/112
f 112/112/112 106/106/106 115/115/115
f 114/114/114 115/115/115 116/116/116
f 117/117/117 116/116/116 115/115/115
f 115/115/115 106/106/106 117/117/117
f 116/116/116 117/117/117 118/118/118
f 106/106/106 107/107/107 119/119/119
f 106/106/106 119/119/119 117/117/117
f 120/120/120 119/119/119 107/107/107
f 120/120/120 121/121/121 119/119/119
f 122/122/122 118/118/118 117/117/117
f 122/122/122 117/117/117 119/119/119
f 123/123/123 119/119/119 121/121/121
f 119/119/119 123/123/123 122/122/122
f 122/122/122 124/124/124 118/118/118
f 124/124/124 122/122/122 123/123/123
f 125/125/125 118/118/118 124/124/124
f 125/125/125 124/124/124 126/126/126
f 127/127/127 126/126/126 124/124/124
f 124/124/124 123/123/123 127/127/127
f 126/126/126 127/127/127 128/128/128
f 129/129/129 128/128/128 127/127/127
f 123/123/123 121/121/121 130/130/130
f 130/130/130 127/127/127 123/123/123
f 127/127/127 130/130/130 129/129/129
f 131/131/131 130/130/130 121/121/121
f 132/132/132 129/129/129 130/130/130
f 131/131/131 133/133/133 130/130/130
f 132/132/132 130/130/130 133/133/133
f 136/136/136 135/135/135 134/134/134
f 137/137/137 134/134/134 135/135/135
f 137/137/137 135/135/135 138/138/138
f 139/139/139 138/138/138 135/135/135
