g ToyMusketer064
v -0.0003204988 -0.01651012 -0.01618631
v 0.08904649 0.02426288 -0.01622532
v 0.1045115 -0.01742212 -0.01628931
v 0.0441205 0.06235487 -0.01649032
v -0.0441215 0.06235487 -0.01649032
v -0.08904649 0.02426288 -0.01622532
v -0.1035585 -0.01553013 -0.01628931
v -0.0003204988 -0.01651012 0.01618668
v -0.08904649 0.02426288 0.01622469
v -0.1035585 -0.01553013 0.01628868
v -0.0441215 0.06235487 0.01649069
v 0.0441205 0.06235487 0.01649069
v 0.08904649 0.02426288 0.01622469
v 0.1045115 -0.01742212 0.01628868
v 0.08904649 0.02426288 -0.01622532
v 0.0890845 0.02428388 -0.07325432
v 0.1045115 -0.01742212 -0.01628931
v 0.1104015 -0.03371813 -0.0735193
v 0.1104015 -0.03371813 -3.147125E-07
v 0.1045115 -0.01742212 -3.147125E-07
v 0.1104015 -0.1448371 -0.0735193
v 0.1045115 -0.01742212 0.01628868
v 0.1104015 -0.1448371 -3.147125E-07
v 0.1104015 -0.03371813 0.07351968
v 0.0890845 0.02428388 0.07325468
v 0.08904649 0.02426288 0.01622469
v 0.1104015 -0.1448371 0.07351968
v 0.1104015 -0.2644821 -3.147125E-07
v 0.1104015 -0.2644821 0.07351968
v 0.0923465 -0.3226511 -3.147125E-07
v 0.0923465 -0.3226511 0.07351968
v 0.0441205 0.06235487 -0.01649032
v 0.0890845 0.02428388 -0.07325432
v 0.08904649 0.02426288 -0.01622532
v 0.0441875 0.06229788 -0.0735193
v -0.0441875 0.06229788 -0.0735193
v -0.0441215 0.06235487 -0.01649032
v -0.0890845 0.02428388 -0.07325432
v -0.08904649 0.02426288 -0.01622532
v -0.1035585 -0.01553013 -0.01628931
v -0.0890845 0.02428388 -0.07325432
v -0.08904649 0.02426288 -0.01622532
v -0.1104015 -0.03371813 -0.0735193
v -0.1104015 -0.03371813 -3.147125E-07
v -0.1035585 -0.01553013 -3.147125E-07
v -0.1035585 -0.01553013 0.01628868
v -0.1104015 -0.1448371 -3.147125E-07
v -0.1104015 -0.1448371 -0.0735193
v -0.1104015 -0.03371813 0.07351968
v -0.0890845 0.02428388 0.07325468
v -0.08904649 0.02426288 0.01622469
v -0.1104015 -0.1448371 0.07351968
v -0.1104015 -0.2644821 0.07351968
v -0.1104015 -0.2644821 -3.147125E-07
v -0.0923465 -0.3226511 0.07351968
v -0.0923465 -0.3226511 -3.147125E-07
v -0.0441215 0.06235487 0.01649069
v -0.0890845 0.02428388 0.07325468
v -0.08904649 0.02426288 0.01622469
v -0.0441875 0.06229788 0.07351968
v 0.0441875 0.06229788 0.07351968
v 0.0441205 0.06235487 0.01649069
v 0.0890845 0.02428388 0.07325468
v 0.08904649 0.02426288 0.01622469
v 0.0441875 0.06229788 0.07351968
v 0.0890845 0.02428388 0.07325468
v -0.0441875 0.06229788 0.07351968
v -0.0890845 0.02428388 0.07325468
v 0.1104015 -0.03371813 0.07351968
v -0.1104015 -0.03371813 0.07351968
v 0.1104015 -0.1448371 0.07351968
v -0.1104015 -0.1448371 0.07351968
v 0.1104015 -0.2644821 0.07351968
v -0.1104015 -0.2644821 0.07351968
v 0.0923465 -0.3226511 0.07351968
v -0.0923465 -0.3226511 0.07351968
v 0.0297805 -0.3632291 0.07351968
v -0.0297805 -0.3632291 0.07351968
v -0.0441875 0.06229788 -0.0735193
v -0.0890845 0.02428388 -0.07325432
v 0.0441875 0.06229788 -0.0735193
v 0.0890845 0.02428388 -0.07325432
v -0.1104015 -0.03371813 -0.0735193
v 0.1104015 -0.03371813 -0.0735193
v -0.1104015 -0.1448371 -0.0735193
v 0.1104015 -0.1448371 -0.0735193
v 0.0297805 -0.3632291 -3.147125E-07
v 0.0923465 -0.3226511 -3.147125E-07
v -0.0297805 -0.3632291 -3.147125E-07
v -0.0923465 -0.3226511 -3.147125E-07
v 0.1104015 -0.2644821 -3.147125E-07
v -0.1104015 -0.2644821 -3.147125E-07
v 0.1104015 -0.1448371 -3.147125E-07
v -0.1104015 -0.1448371 -3.147125E-07
v 0.1104015 -0.1448371 -0.0735193
v -0.1104015 -0.1448371 -0.0735193
v 0.1104015 -0.1448371 -3.147125E-07
v -0.1104015 -0.1448371 -3.147125E-07
v 0.0297805 -0.3632291 -3.147125E-07
v 0.0923465 -0.3226511 0.07351968
v 0.0923465 -0.3226511 -3.147125E-07
v 0.0297805 -0.3632291 0.07351968
v -0.0297805 -0.3632291 -3.147125E-07
v -0.0297805 -0.3632291 0.07351968
v -0.0923465 -0.3226511 -3.147125E-07
v -0.0923465 -0.3226511 0.07351968
v -0.0003204988 -0.01651012 0.01618668
v -0.1035585 -0.01553013 0.01628868
v -0.0584465 -0.01651012 -3.147125E-07
v -0.1035585 -0.01553013 -3.147125E-07
v -0.1035585 -0.01553013 -0.01628931
v -0.0003204988 -0.01651012 -0.01618631
v 0.0578045 -0.01651012 -3.147125E-07
v 0.1045115 -0.01742212 0.01628868
v 0.1045115 -0.01742212 -0.01628931
v 0.1045115 -0.01742212 -3.147125E-07
vt 0.706846 0.675
vt 0.738162 0.660711
vt 0.743584 0.67532
vt 0.72242 0.647361
vt 0.691495 0.647361
vt 0.675748 0.660711
vt 0.670663 0.674657
vt 0.89152 0.390723
vt 0.922618 0.405012
vt 0.927703 0.391066
vt 0.906871 0.418362
vt 0.875946 0.418362
vt 0.860204 0.405012
vt 0.854782 0.390403
vt 0.239883 0.102882
vt 0.239892 0.122869
vt 0.225277 0.102904
vt 0.219565 0.122961
vt 0.219565 0.097196
vt 0.225277 0.097196
vt 0.180623 0.122961
vt 0.225277 0.091487
vt 0.180623 0.097196
vt 0.219565 0.07143
vt 0.239892 0.071523
vt 0.239883 0.091509
vt 0.180623 0.07143
vt 0.138691 0.097196
vt 0.138691 0.07143
vt 0.118304 0.097196
vt 0.118304 0.07143
vt 0.267782 0.072231
vt 0.247886 0.056473
vt 0.267873 0.056486
vt 0.247795 0.072208
vt 0.247795 0.10318
vt 0.267782 0.103157
vt 0.247886 0.118915
vt 0.267873 0.118902
vt 0.868734 0.445563
vt 0.854782 0.425599
vt 0.854791 0.445585
vt 0.87511 0.425506
vt 0.87511 0.451271
vt 0.868734 0.451271
vt 0.868734 0.45698
vt 0.914052 0.451271
vt 0.914052 0.425506
vt 0.87511 0.477037
vt 0.854782 0.476945
vt 0.854791 0.456958
vt 0.914052 0.477037
vt 0.955984 0.477037
vt 0.955984 0.451271
vt 0.976371 0.477037
vt 0.976371 0.451271
vt 0.925693 0.285253
vt 0.945584 0.301011
vt 0.925598 0.300998
vt 0.945675 0.285276
vt 0.945675 0.254304
vt 0.925693 0.254328
vt 0.945584 0.238569
vt 0.925598 0.238583
vt 0.132018 0.230788
vt 0.147751 0.24411
vt 0.101043 0.230788
vt 0.08531 0.24411
vt 0.155222 0.264438
vt 0.077838 0.264438
vt 0.155222 0.303381
vt 0.077838 0.303381
vt 0.155222 0.345312
vt 0.077838 0.345312
vt 0.148896 0.365698
vt 0.084164 0.365698
vt 0.126969 0.379919
vt 0.106092 0.379919
vt 0.919078 0.665204
vt 0.934811 0.651881
vt 0.888103 0.665204
vt 0.87237 0.651881
vt 0.942283 0.631553
vt 0.864899 0.631553
vt 0.942283 0.59261
vt 0.864899 0.59261
vt 0.427795 0.200193
vt 0.405868 0.214414
vt 0.448672 0.200193
vt 0.4706 0.214414
vt 0.399542 0.2348
vt 0.476926 0.2348
vt 0.399542 0.276732
vt 0.476926 0.276732
vt 0.809734 0.17152
vt 0.809734 0.094137
vt 0.783967 0.17152
vt 0.783967 0.094137
vt 0.301888 0.064615
vt 0.276121 0.086542
vt 0.301888 0.086542
vt 0.276121 0.064615
vt 0.301888 0.043741
vt 0.276121 0.043741
vt 0.301888 0.021814
vt 0.276121 0.021814
vt 0.593017 0.050361
vt 0.593054 0.086542
vt 0.587346 0.070732
vt 0.587346 0.086542
vt 0.581638 0.086542
vt 0.581674 0.050361
vt 0.587346 0.02999
vt 0.593054 0.013621
vt 0.581638 0.013621
vt 0.587346 0.013621
vn 0.001113 0.7083443 0.7058663
vn 0.6183242 0.4342481 0.6550602
vn 0.7950969 0.567743 0.213281
vn 0.2645391 0.7255422 0.6353012
vn -0.264546 0.7255399 0.6353009
vn -0.6198997 0.4327599 0.6545557
vn -0.7866269 0.575664 0.223224
vn 0.001113 0.7083428 -0.7058678
vn -0.6198938 0.4327608 -0.6545607
vn -0.7866257 0.5756658 -0.2232239
vn -0.264542 0.725544 -0.635298
vn 0.264536 0.7255461 -0.635298
vn 0.6183182 0.4342491 -0.6550652
vn 0.7950961 0.5677441 -0.213281
vn 0.6183242 0.4342481 0.6550602
vn 0.6202757 0.4351219 -0.6526308
vn 0.7950969 0.567743 0.213281
vn 0.7304377 0.1307519 -0.6703467
vn 0.9850014 0.1725461 0
vn 0.582455 0.812863 0
vn 0.5773503 -0.5773503 -0.5773503
vn 0.7950961 0.5677441 -0.213281
vn 0.9045342 -0.3015111 -0.3015111
vn 0.7304377 0.1307519 0.6703467
vn 0.6202757 0.4351219 0.6526308
vn 0.6183182 0.4342491 -0.6550652
vn 0.7071068 0 0.7071068
vn 0.7295972 -0.110626 -0.6748703
vn 0.7295972 -0.110626 0.6748703
vn 0.613898 -0.464943 -0.637932
vn 0.613898 -0.464943 0.637932
vn 0.2645391 0.7255422 0.6353012
vn 0.6202757 0.4351219 -0.6526308
vn 0.6183242 0.4342481 0.6550602
vn 0.265685 0.7209609 -0.640021
vn -0.2656811 0.7209603 -0.6400233
vn -0.264546 0.7255399 0.6353009
vn -0.6210901 0.4346221 -0.6521891
vn -0.6198997 0.4327599 0.6545557
vn -0.7866269 0.575664 0.223224
vn -0.6210901 0.4346221 -0.6521891
vn -0.6198997 0.4327599 0.6545557
vn -0.7308158 0.131797 -0.6697297
vn -0.9838567 0.1789579 0
vn -0.560186 0.8283669 0
vn -0.7866257 0.5756658 -0.2232239
vn -0.9045342 -0.3015111 -0.3015111
vn -0.5773503 -0.5773503 -0.5773503
vn -0.7308158 0.131797 0.6697297
vn -0.6210901 0.4346221 0.6521891
vn -0.6198938 0.4327608 -0.6545607
vn -0.7071068 0 0.7071068
vn -0.7295972 -0.110626 0.6748703
vn -0.7295972 -0.110626 -0.6748703
vn -0.613898 -0.464943 0.637932
vn -0.613898 -0.464943 -0.637932
vn -0.264542 0.725544 -0.635298
vn -0.6210901 0.4346221 0.6521891
vn -0.6198938 0.4327608 -0.6545607
vn -0.2656811 0.7209603 0.6400233
vn 0.265685 0.7209609 0.640021
vn 0.264536 0.7255461 -0.635298
vn 0.6202757 0.4351219 0.6526308
vn 0.6183182 0.4342491 -0.6550652
vn 0.265685 0.7209609 0.640021
vn 0.6202757 0.4351219 0.6526308
vn -0.2656811 0.7209603 0.6400233
vn -0.6210901 0.4346221 0.6521891
vn 0.7304377 0.1307519 0.6703467
vn -0.7308158 0.131797 0.6697297
vn 0.7071068 0 0.7071068
vn -0.7071068 0 0.7071068
vn 0.7295972 -0.110626 0.6748703
vn -0.7295972 -0.110626 0.6748703
vn 0.613898 -0.464943 0.637932
vn -0.613898 -0.464943 0.637932
vn 0.2159869 -0.7299548 0.6484718
vn -0.2159869 -0.7299548 0.6484718
vn -0.2656811 0.7209603 -0.6400233
vn -0.6210901 0.4346221 -0.6521891
vn 0.265685 0.7209609 -0.640021
vn 0.6202757 0.4351219 -0.6526308
vn -0.7308158 0.131797 -0.6697297
vn 0.7304377 0.1307519 -0.6703467
vn -0.5773503 -0.5773503 -0.5773503
vn 0.5773503 -0.5773503 -0.5773503
vn 0.2159869 -0.7299548 -0.6484718
vn 0.613898 -0.464943 -0.637932
vn -0.2159869 -0.7299548 -0.6484718
vn -0.613898 -0.464943 -0.637932
vn 0.7295972 -0.110626 -0.6748703
vn -0.7295972 -0.110626 -0.6748703
vn 0.9045342 -0.3015111 -0.3015111
vn -0.9045342 -0.3015111 -0.3015111
vn 0.5773503 -0.5773503 -0.5773503
vn -0.5773503 -0.5773503 -0.5773503
vn 0.9045342 -0.3015111 -0.3015111
vn -0.9045342 -0.3015111 -0.3015111
vn 0.2159869 -0.7299548 -0.6484718
vn 0.613898 -0.464943 0.637932
vn 0.613898 -0.464943 -0.637932
vn 0.2159869 -0.7299548 0.6484718
vn -0.2159869 -0.7299548 -0.6484718
vn -0.2159869 -0.7299548 0.6484718
vn -0.613898 -0.464943 -0.637932
vn -0.613898 -0.464943 0.637932
vn 0.001113 0.7083428 -0.7058678
vn -0.7866257 0.5756658 -0.2232239
vn 0.009993 0.9999501 0
vn -0.560186 0.8283669 0
vn -0.7866269 0.575664 0.223224
vn 0.001113 0.7083443 0.7058663
vn 0.009078998 0.9999588 0
vn 0.7950961 0.5677441 -0.213281
vn 0.7950969 0.567743 0.213281
vn 0.582455 0.812863 0
g ToyMusketer064_0
f 3/3/3 2/2/2 1/1/1
f 2/2/2 4/4/4 1/1/1
f 4/4/4 5/5/5 1/1/1
f 5/5/5 6/6/6 1/1/1
f 6/6/6 7/7/7 1/1/1
f 10/10/10 9/9/9 8/8/8
f 9/9/9 11/11/11 8/8/8
f 11/11/11 12/12/12 8/8/8
f 12/12/12 13/13/13 8/8/8
f 13/13/13 14/14/14 8/8/8
f 17/17/17 16/16/16 15/15/15
f 18/18/18 16/16/16 17/17/17
f 18/18/18 17/17/17 19/19/19
f 20/20/20 19/19/19 17/17/17
f 19/19/19 21/21/21 18/18/18
f 22/22/22 19/19/19 20/20/20
f 23/23/23 21/21/21 19/19/19
f 24/24/24 19/19/19 22/22/22
f 24/24/24 23/23/23 19/19/19
f 24/24/24 22/22/22 25/25/25
f 26/26/26 25/25/25 22/22/22
f 27/27/27 23/23/23 24/24/24
f 23/23/23 27/27/27 28/28/28
f 28/28/28 27/27/27 29/29/29
f 28/28/28 29/29/29 30/30/30
f 30/30/30 29/29/29 31/31/31
f 34/34/34 33/33/33 32/32/32
f 35/35/35 32/32/32 33/33/33
f 35/35/35 36/36/36 32/32/32
f 32/32/32 36/36/36 37/37/37
f 36/36/36 38/38/38 37/37/37
f 37/37/37 38/38/38 39/39/39
f 42/42/42 41/41/41 40/40/40
f 43/43/43 40/40/40 41/41/41
f 43/43/43 44/44/44 40/40/40
f 40/40/40 44/44/44 45/45/45
f 45/45/45 44/44/44 46/46/46
f 43/43/43 47/47/47 44/44/44
f 48/48/48 47/47/47 43/43/43
f 49/49/49 46/46/46 44/44/44
f 49/49/49 50/50/50 46/46/46
f 46/46/46 50/50/50 51/51/51
f 44/44/44 52/52/52 49/49/49
f 47/47/47 52/52/52 44/44/44
f 52/52/52 47/47/47 53/53/53
f 53/53/53 47/47/47 54/54/54
f 53/53/53 54/54/54 55/55/55
f 55/55/55 54/54/54 56/56/56
f 59/59/59 58/58/58 57/57/57
f 60/60/60 57/57/57 58/58/58
f 60/60/60 61/61/61 57/57/57
f 57/57/57 61/61/61 62/62/62
f 61/61/61 63/63/63 62/62/62
f 62/62/62 63/63/63 64/64/64
f 67/67/67 66/66/66 65/65/65
f 68/68/68 66/66/66 67/67/67
f 68/68/68 69/69/69 66/66/66
f 70/70/70 69/69/69 68/68/68
f 70/70/70 71/71/71 69/69/69
f 72/72/72 71/71/71 70/70/70
f 71/71/71 72/72/72 73/73/73
f 73/73/73 72/72/72 74/74/74
f 73/73/73 74/74/74 75/75/75
f 75/75/75 74/74/74 76/76/76
f 75/75/75 76/76/76 77/77/77
f 77/77/77 76/76/76 78/78/78
f 81/81/81 80/80/80 79/79/79
f 82/82/82 80/80/80 81/81/81
f 82/82/82 83/83/83 80/80/80
f 84/84/84 83/83/83 82/82/82
f 84/84/84 85/85/85 83/83/83
f 86/86/86 85/85/85 84/84/84
f 89/89/89 88/88/88 87/87/87
f 90/90/90 88/88/88 89/89/89
f 90/90/90 91/91/91 88/88/88
f 92/92/92 91/91/91 90/90/90
f 92/92/92 93/93/93 91/91/91
f 94/94/94 93/93/93 92/92/92
f 97/97/97 96/96/96 95/95/95
f 98/98/98 96/96/96 97/97/97
f 101/101/101 100/100/100 99/99/99
f 99/99/99 100/100/100 102/102/102
f 102/102/102 103/103/103 99/99/99
f 104/104/104 103/103/103 102/102/102
f 104/104/104 105/105/105 103/103/103
f 106/106/106 105/105/105 104/104/104
f 109/109/109 108/108/108 107/107/107
f 110/110/110 108/108/108 109/109/109
f 110/110/110 109/109/109 111/111/111
f 112/112/112 111/111/111 109/109/109
f 109/109/109 107/107/107 112/112/112
f 112/112/112 107/107/107 113/113/113
f 107/107/107 114/114/114 113/113/113
f 113/113/113 115/115/115 112/112/112
f 116/116/116 113/113/113 114/114/114
f 116/116/116 115/115/115 113/113/113
