g ToyMusketer056
v 0.02574781 0.2160634 0.01702035
v 0.02569125 0.2166801 0.01645318
v 0.02782751 0.2148758 0.01714841
v 0.02810276 0.2167813 0.0146198
v 0.02887537 0.2149038 0.01619272
v 0.02883666 0.2159974 0.01448218
v 0.02817161 0.2168525 -0.01337009
v 0.0287973 0.2163038 -0.01355263
v 0.02878394 0.2154153 -0.01562758
v 0.01277732 0.2172557 0.008307218
v 0.02634233 0.2168643 -0.0159777
v 0.02739578 0.2155281 -0.01703319
v 0.01297233 0.2172453 -0.008107855
v 0.01256639 0.2170989 -0.009487696
v -7.954236E-08 0.2168401 -0.01579282
v -7.949245E-08 0.2172149 -0.009697181
v -0.01256655 0.2170989 -0.009487696
v -0.02634249 0.2168643 -0.0159777
v 0.008170717 0.2234842 -0.00783522
v -0.01297249 0.2172453 -0.008107855
v 0.01230802 0.217095 0.009659391
v -7.955059E-08 0.2167783 0.01616793
v -7.946439E-08 0.2174257 0.009507834
v -0.01230818 0.217095 0.009659391
v -0.02569141 0.2166801 0.01645318
v 0.008219814 0.2233403 0.008268761
v 0.00743233 0.2231363 0.009171412
v 0.007161831 0.2239695 0.008314524
v 0.007271862 0.2239785 -0.008386085
v -7.868338E-08 0.223291 0.009248951
v -7.858746E-08 0.2240112 -0.008455661
v -7.859227E-08 0.2239752 0.008594447
v -0.007161988 0.2239695 0.008314524
v -0.007272019 0.2239785 -0.008386085
v -0.007432487 0.2231363 0.009171412
v -0.008170875 0.2234842 -0.00783522
v -0.008219971 0.2233403 0.008268761
v -0.01277748 0.2172557 0.008307218
v -0.02817177 0.2168525 -0.01337009
v -0.02810292 0.2167813 0.0146198
v -0.0287841 0.2154153 -0.01562758
v -0.02739594 0.2155281 -0.01703319
v -0.02879746 0.2163038 -0.01355263
v -0.02883682 0.2159974 0.01448218
v -0.02887553 0.2149039 0.01619272
v -0.02782767 0.2148758 0.01714841
v -0.02574797 0.2160634 0.01702035
v 0.01297233 0.2172453 -0.008107855
v 0.008170717 0.2234842 -0.00783522
v 0.01256639 0.2170989 -0.009487696
v 0.007018814 0.2231623 -0.009137488
v 0.007271862 0.2239785 -0.008386085
v -7.949245E-08 0.2172149 -0.009697181
v -7.858746E-08 0.2240112 -0.008455661
v -7.868316E-08 0.2232926 -0.009197363
v -0.007018972 0.2231623 -0.009137488
v -0.007272019 0.2239785 -0.008386085
v -0.01256655 0.2170989 -0.009487696
v -0.008170875 0.2234842 -0.00783522
v -0.01297249 0.2172453 -0.008107855
v 0.02739578 0.2155281 -0.01703319
v 0.03635477 0.1301056 -0.02647931
v 0.02878394 0.2154153 -0.01562758
v 0.03789127 0.1298223 -0.02464215
v 0.03669757 0.1284979 -0.02524453
v 0.03692314 0.1284606 0.02500868
v 0.02887537 0.2149038 0.01619272
v 0.0287973 0.2163038 -0.01355263
v 0.02883666 0.2159974 0.01448218
v 0.03800961 0.1299819 0.02450522
v 0.03622534 0.1302457 0.02647288
v 0.02782751 0.2148758 0.01714841
v 0.03669757 0.1284979 -0.02524453
v 0.03635477 0.1301056 -0.02647931
v -9.132364E-08 0.1283641 -0.02588823
v -9.120306E-08 0.1292698 -0.02663212
v 0.02739578 0.2155281 -0.01703319
v -0.03635495 0.1301056 -0.02647931
v -0.03669775 0.1284979 -0.02524453
v -0.02739594 0.2155281 -0.01703319
v -7.969762E-08 0.2156741 -0.01696827
v 0.02634233 0.2168643 -0.0159777
v -0.02634249 0.2168643 -0.0159777
v -7.954236E-08 0.2168401 -0.01579282
v 0.03692314 0.1284606 0.02500868
v -9.132325E-08 0.1283671 0.02595156
v 0.03622534 0.1302457 0.02647288
v -9.113762E-08 0.1297611 0.02663183
v 0.02782751 0.2148758 0.01714841
v -7.971412E-08 0.2155502 0.01709959
v 0.02574781 0.2160634 0.01702035
v 0.02569125 0.2166801 0.01645318
v -7.955059E-08 0.2167783 0.01616793
v -0.02569141 0.2166801 0.01645318
v -0.02574797 0.2160634 0.01702035
v -0.02782767 0.2148758 0.01714841
v -0.03622552 0.1302458 0.02647288
v -0.03692332 0.1284606 0.02500868
v 0.01681668 0.1283604 -0.008065655
v 0.02075631 0.1201937 -0.008053393
v 0.02098228 0.1283604 -0.008116823
v 0.0168353 0.1201429 -0.008018542
v 0.02082655 0.1169349 -0.005071977
v 0.01679152 0.1169516 -0.004908055
v 0.01679152 0.1169516 -0.004908055
v 0.02070636 0.1169217 0.005097212
v 0.02082655 0.1169349 -0.005071977
v 0.01686395 0.1169816 0.00515285
v 0.02078884 0.1205461 0.008131774
v 0.02082655 0.1169349 -0.005071977
v 0.02070636 0.1169217 0.005097212
v 0.02075631 0.1201937 -0.008053393
v 0.02098228 0.1283604 -0.008116823
v 0.02091078 0.1283604 0.008144252
v -0.01230818 0.217095 0.009659391
v -0.007432487 0.2231363 0.009171412
v -7.946439E-08 0.2174257 0.009507834
v -7.868338E-08 0.223291 0.009248951
v 0.00743233 0.2231363 0.009171412
v 0.01230802 0.217095 0.009659391
v -0.02887553 0.2149039 0.01619272
v -0.02879746 0.2163038 -0.01355263
v -0.02883682 0.2159974 0.01448218
v -0.0287841 0.2154153 -0.01562758
v -0.03789145 0.1298223 -0.02464215
v -0.03635495 0.1301056 -0.02647931
v -0.02739594 0.2155281 -0.01703319
v -0.03669775 0.1284979 -0.02524453
v -0.03692332 0.1284606 0.02500868
v -0.0380098 0.129982 0.02450522
v -0.03622552 0.1302458 0.02647288
v -0.02782767 0.2148758 0.01714841
v -0.01683548 0.120143 -0.008018542
v -0.02082674 0.1169349 -0.005071977
v -0.01679171 0.1169516 -0.004908055
v -0.02075649 0.1201937 -0.008053393
v -0.01681686 0.1283604 -0.008065655
v -0.02098246 0.1283604 -0.008116823
v -0.01686414 0.1169816 0.00515285
v -0.01679171 0.1169516 -0.004908055
v -0.02070654 0.1169218 0.005097212
v -0.02082674 0.1169349 -0.005071977
v -0.02078902 0.1205461 0.008131774
v -0.02098246 0.1283604 -0.008116823
v -0.02091097 0.1283604 0.008144252
v -0.02075649 0.1201937 -0.008053393
v -0.02082674 0.1169349 -0.005071977
v -0.02070654 0.1169218 0.005097212
v -0.02070654 0.1169218 0.005097212
v -0.0169323 0.1204678 0.008109334
v -0.01686414 0.1169816 0.00515285
v -0.02078902 0.1205461 0.008131774
v -0.01680442 0.1283604 0.008261634
v -0.02091097 0.1283604 0.008144252
v -0.01686414 0.1169816 0.00515285
v -0.0169323 0.1204678 0.008109334
v -0.01679171 0.1169516 -0.004908055
v -0.01683548 0.120143 -0.008018542
v -0.01681686 0.1283604 -0.008065655
v -0.01680442 0.1283604 0.008261634
v 0.01693212 0.1204678 0.008109334
v 0.02070636 0.1169217 0.005097212
v 0.01686395 0.1169816 0.00515285
v 0.02078884 0.1205461 0.008131774
v 0.01680424 0.1283604 0.008261634
v 0.02091078 0.1283604 0.008144252
v 0.01679152 0.1169516 -0.004908055
v 0.01693212 0.1204678 0.008109334
v 0.01686395 0.1169816 0.00515285
v 0.0168353 0.1201429 -0.008018542
v 0.01681668 0.1283604 -0.008065655
v 0.01680424 0.1283604 0.008261634
v -0.02091097 0.1283604 0.008144252
v -0.03692332 0.1284606 0.02500868
v -0.01680442 0.1283604 0.008261634
v -0.02098246 0.1283604 -0.008116823
v -0.03669775 0.1284979 -0.02524453
v -9.132325E-08 0.1283671 0.02595156
v -0.01681686 0.1283604 -0.008065655
v -9.132364E-08 0.1283641 -0.02588823
v 0.01681668 0.1283604 -0.008065655
v 0.03669757 0.1284979 -0.02524453
v 0.01680424 0.1283604 0.008261634
v 0.02098228 0.1283604 -0.008116823
v 0.03692314 0.1284606 0.02500868
v 0.02091078 0.1283604 0.008144252
vt 0.383895 0.341167
vt 0.383759 0.339796
vt 0.388923 0.341477
vt 0.389589 0.335364
vt 0.391456 0.339167
vt 0.391363 0.335031
vt 0.389755 0.267697
vt 0.391268 0.267256
vt 0.391235 0.26224
vt 0.352539 0.320103
vt 0.385333 0.261393
vt 0.387879 0.258842
vt 0.35301 0.280419
vt 0.352029 0.277083
vt 0.321649 0.26184
vt 0.321649 0.276577
vt 0.291269 0.277083
vt 0.257965 0.261393
vt 0.341402 0.281078
vt 0.290288 0.280419
vt 0.351404 0.323372
vt 0.321649 0.339107
vt 0.321649 0.323006
vt 0.291894 0.323372
vt 0.259539 0.339796
vt 0.341521 0.32001
vt 0.339617 0.322192
vt 0.338963 0.320121
vt 0.339229 0.279746
vt 0.321649 0.32238
vt 0.321649 0.279578
vt 0.321649 0.320797
vt 0.304335 0.320121
vt 0.304069 0.279746
vt 0.303681 0.322192
vt 0.301896 0.281078
vt 0.301777 0.32001
vt 0.290759 0.320103
vt 0.253543 0.267697
vt 0.253709 0.335364
vt 0.252063 0.26224
vt 0.255419 0.258842
vt 0.25203 0.267256
vt 0.251935 0.335031
vt 0.251842 0.339167
vt 0.254375 0.341477
vt 0.259403 0.341167
vt 0.327057 0.867532
vt 0.34214 0.87914
vt 0.326703 0.868514
vt 0.341362 0.881925
vt 0.343335 0.881313
vt 0.326984 0.898893
vt 0.343414 0.898893
vt 0.341677 0.898893
vt 0.341362 0.915862
vt 0.343335 0.916474
vt 0.326703 0.929273
vt 0.34214 0.918647
vt 0.327057 0.930255
vt 0.769771 0.408179
vt 0.792607 0.614691
vt 0.766372 0.408452
vt 0.788166 0.615376
vt 0.789622 0.618577
vt 0.668133 0.618668
vt 0.689446 0.409688
vt 0.761356 0.406304
vt 0.693581 0.407044
vt 0.66935 0.61499
vt 0.664593 0.614352
vt 0.687135 0.409756
vt 0.670986 0.817564
vt 0.674873 0.818393
vt 0.670663 0.906282
vt 0.672852 0.906282
vt 0.881385 0.840052
vt 0.674873 0.994171
vt 0.670986 0.995
vt 0.881385 0.972513
vt 0.881738 0.906282
vt 0.884615 0.842598
vt 0.884615 0.969966
vt 0.884557 0.906282
vt 0.841684 0.353617
vt 0.841911 0.264353
vt 0.837371 0.35193
vt 0.838539 0.264353
vt 0.632773 0.331628
vt 0.631141 0.264353
vt 0.629901 0.3266
vt 0.62841 0.326463
vt 0.628174 0.264353
vt 0.62841 0.202244
vt 0.629901 0.202107
vt 0.632773 0.197079
vt 0.837371 0.176777
vt 0.841684 0.17509
vt 0.154019 0.653003
vt 0.134276 0.643479
vt 0.154019 0.642932
vt 0.134153 0.652958
vt 0.126397 0.643309
vt 0.126438 0.653064
vt 0.294156 0.765756
vt 0.301577 0.790648
vt 0.30391 0.766173
vt 0.292307 0.790009
vt 0.516923 0.356994
vt 0.548843 0.365725
vt 0.524259 0.365756
vt 0.556051 0.357846
vt 0.556204 0.338103
vt 0.516893 0.338103
vt 0.631013 0.935489
vt 0.616408 0.947277
vt 0.630214 0.965245
vt 0.616034 0.965245
vt 0.616408 0.983213
vt 0.631013 0.995
vt 0.557332 0.609214
vt 0.485422 0.612598
vt 0.553196 0.611857
vt 0.480405 0.61045
vt 0.458612 0.403526
vt 0.454171 0.404211
vt 0.477007 0.610723
vt 0.457156 0.400324
vt 0.578645 0.400234
vt 0.577428 0.403912
vt 0.582185 0.40455
vt 0.559642 0.609146
vt 0.158433 0.984975
vt 0.150677 0.994624
vt 0.150717 0.984869
vt 0.158555 0.994454
vt 0.178298 0.98493
vt 0.178298 0.995
vt 0.211376 0.956584
vt 0.213224 0.980837
vt 0.220645 0.955946
vt 0.222978 0.980421
vt 0.236494 0.549194
vt 0.197213 0.568086
vt 0.236524 0.568086
vt 0.197366 0.548342
vt 0.204574 0.540464
vt 0.229158 0.540432
vt 0.283541 0.767051
vt 0.274969 0.776175
vt 0.283397 0.77634
vt 0.27478 0.766852
vt 0.255888 0.776485
vt 0.255888 0.766557
vt 0.012515 0.436499
vt 0.005368 0.428071
vt 0.036838 0.436572
vt 0.044358 0.428856
vt 0.044472 0.408991
vt 0.005 0.408991
vt 0.109059 0.643445
vt 0.117632 0.65257
vt 0.117487 0.64328
vt 0.108869 0.652769
vt 0.089978 0.643136
vt 0.089978 0.653064
vt 0.259475 0.358408
vt 0.290945 0.366909
vt 0.283798 0.358481
vt 0.251955 0.366123
vt 0.251842 0.385989
vt 0.291313 0.385989
vt 0.814526 0.726582
vt 0.853236 0.685812
vt 0.804598 0.726299
vt 0.814698 0.765894
vt 0.852691 0.807301
vt 0.763973 0.683533
vt 0.804628 0.76577
vt 0.763973 0.808857
vt 0.723317 0.76577
vt 0.675255 0.807301
vt 0.723347 0.726299
vt 0.713247 0.765894
vt 0.674709 0.685812
vt 0.71342 0.726582
vn 0.115039 0.4586139 0.8811579
vn 0.1301972 0.8776125 0.4613513
vn 0.3721163 0.3669811 0.8525575
vn 0.4309873 0.8745483 0.2222951
vn 0.8328291 0.3499189 0.428897
vn 0.9017268 0.4149587 0.121236
vn 0.3871151 0.9155829 -0.108857
vn 0.8765291 0.4657149 -0.121681
vn 0.8326471 0.4067859 -0.375798
vn 0.4125343 0.9039544 0.1126141
vn 0.1661401 0.8836727 -0.4376299
vn 0.3678871 0.435928 -0.8213561
vn 0.4086282 0.9077851 -0.09460002
vn 0.2028412 0.9370353 -0.2842891
vn 1.217685E-07 0.9144659 -0.404663
vn 0 0.714613 -0.6995199
vn -0.202841 0.9370353 -0.2842891
vn -0.1661399 0.8836728 -0.4376299
vn 0.6535792 0.7096181 -0.2632041
vn -0.408628 0.9077852 -0.09460002
vn 0.2039021 0.9278778 0.3121969
vn 1.168751E-07 0.8777171 0.4791791
vn 0 0.6841151 0.7293741
vn -0.2039018 0.9278778 0.3121969
vn -0.130197 0.8776126 0.4613513
vn 0.641625 0.7079729 0.295113
vn 0.2343741 0.471444 0.850182
vn 0.2372331 0.912136 0.334258
vn 0.3320222 0.838505 -0.4320541
vn 0 0.3978379 0.9174557
vn 1.232097E-07 0.9252889 -0.379263
vn 1.219259E-07 0.9156476 0.4019818
vn -0.2372329 0.9121361 0.334258
vn -0.3320219 0.8385051 -0.432054
vn -0.234374 0.4714441 0.850182
vn -0.6535791 0.7096183 -0.2632041
vn -0.6416248 0.7079731 0.295113
vn -0.4125337 0.9039547 0.112614
vn -0.3871149 0.915583 -0.108857
vn -0.4309871 0.8745485 0.2222951
vn -0.8326469 0.4067861 -0.375798
vn -0.367887 0.4359281 -0.8213561
vn -0.876529 0.4657151 -0.121681
vn -0.9017267 0.414959 0.121236
vn -0.8328289 0.3499191 0.428897
vn -0.3721161 0.3669812 0.8525575
vn -0.1150389 0.458614 0.8811579
vn 0.4086282 0.9077851 -0.09460002
vn 0.6535792 0.7096181 -0.2632041
vn 0.2028412 0.9370353 -0.2842891
vn 0.217801 0.426668 -0.877791
vn 0.3320222 0.838505 -0.4320541
vn 0 0.714613 -0.6995199
vn 1.232097E-07 0.9252889 -0.379263
vn 0 0.430029 -0.902815
vn -0.2178009 0.426668 -0.877791
vn -0.3320219 0.8385051 -0.432054
vn -0.202841 0.9370353 -0.2842891
vn -0.6535791 0.7096183 -0.2632041
vn -0.408628 0.9077852 -0.09460002
vn 0.3678871 0.435928 -0.8213561
vn 0.3887198 -0.18848 -0.9018715
vn 0.8326471 0.4067859 -0.375798
vn 0.9219224 -0.241371 -0.3029838
vn 0.406999 -0.8086514 -0.4247762
vn 0.4506847 -0.7893787 0.4168508
vn 0.8328291 0.3499189 0.428897
vn 0.8765291 0.4657149 -0.121681
vn 0.9017268 0.4149587 0.121236
vn 0.9271265 -0.1908602 0.3225042
vn 0.3639028 -0.195669 0.9106526
vn 0.3721163 0.3669811 0.8525575
vn 0.406999 -0.8086514 -0.4247762
vn 0.3887198 -0.18848 -0.9018715
vn -1.200755E-07 -0.9017514 -0.4322552
vn 0 -0.2895021 -0.9571774
vn 0.3678871 0.435928 -0.8213561
vn -0.3887198 -0.1884799 -0.9018715
vn -0.4069993 -0.8086512 -0.4247762
vn -0.367887 0.4359281 -0.8213561
vn 0 0.4342353 -0.9007995
vn 0.1661401 0.8836727 -0.4376299
vn -0.1661399 0.8836728 -0.4376299
vn 1.217685E-07 0.9144659 -0.404663
vn 0.4506847 -0.7893787 0.4168508
vn -1.127177E-07 -0.8464956 0.5323958
vn 0.3639028 -0.195669 0.9106526
vn 0 -0.1732471 0.9848784
vn 0.3721163 0.3669811 0.8525575
vn 0 0.3685529 0.9296068
vn 0.115039 0.4586139 0.8811579
vn 0.1301972 0.8776125 0.4613513
vn 1.168751E-07 0.8777171 0.4791791
vn -0.130197 0.8776126 0.4613513
vn -0.1150389 0.458614 0.8811579
vn -0.3721161 0.3669812 0.8525575
vn -0.3639029 -0.1956689 0.9106526
vn -0.4506849 -0.7893786 0.4168508
vn -0.3022383 -0.9042975 -0.3014932
vn 0.6259849 -0.2867391 -0.725206
vn 0.2966278 -0.9076728 -0.296887
vn -0.6367447 -0.2882507 -0.7151697
vn 0.6289678 -0.709686 -0.317404
vn -0.6444821 -0.7067619 -0.291771
vn -0.6444821 -0.7067619 -0.291771
vn 0.6067998 -0.7226799 0.3309499
vn 0.6289678 -0.709686 -0.317404
vn -0.6305118 -0.6998865 0.3355798
vn 0.6369779 -0.2719631 0.721315
vn 0.6289678 -0.709686 -0.317404
vn 0.6067998 -0.7226799 0.3309499
vn 0.6259849 -0.2867391 -0.725206
vn 0.2966278 -0.9076728 -0.296887
vn 0.3117789 -0.9010572 0.3014791
vn -0.2039018 0.9278778 0.3121969
vn -0.234374 0.4714441 0.850182
vn 0 0.6841151 0.7293741
vn 0 0.3978379 0.9174557
vn 0.2343741 0.471444 0.850182
vn 0.2039021 0.9278778 0.3121969
vn -0.8328289 0.3499191 0.428897
vn -0.876529 0.4657151 -0.121681
vn -0.9017267 0.414959 0.121236
vn -0.8326469 0.4067861 -0.375798
vn -0.9219224 -0.2413707 -0.3029838
vn -0.3887198 -0.1884799 -0.9018715
vn -0.367887 0.4359281 -0.8213561
vn -0.4069993 -0.8086512 -0.4247762
vn -0.4506849 -0.7893786 0.4168508
vn -0.9271265 -0.19086 0.3225042
vn -0.3639029 -0.1956689 0.9106526
vn -0.3721161 0.3669812 0.8525575
vn 0.6367446 -0.2882509 -0.7151697
vn -0.628968 -0.7096858 -0.3174039
vn 0.6444819 -0.7067621 -0.291771
vn -0.6259854 -0.2867391 -0.7252054
vn 0.302238 -0.9042976 -0.3014932
vn -0.2966281 -0.9076728 -0.296887
vn 0.6305116 -0.6998867 0.3355798
vn 0.6444819 -0.7067621 -0.291771
vn -0.6068 -0.7226797 0.3309499
vn -0.628968 -0.7096858 -0.3174039
vn -0.636978 -0.2719629 0.721315
vn -0.2966281 -0.9076728 -0.296887
vn -0.3117792 -0.9010572 0.3014791
vn -0.6259854 -0.2867391 -0.7252054
vn -0.628968 -0.7096858 -0.3174039
vn -0.6068 -0.7226797 0.3309499
vn -0.6068 -0.7226797 0.3309499
vn 0.633744 -0.2761671 0.7225651
vn 0.6305116 -0.6998867 0.3355798
vn -0.636978 -0.2719629 0.721315
vn 0.2892618 -0.9098921 0.297362
vn -0.3117792 -0.9010572 0.3014791
vn 0.6305116 -0.6998867 0.3355798
vn 0.633744 -0.2761671 0.7225651
vn 0.6444819 -0.7067621 -0.291771
vn 0.6367446 -0.2882509 -0.7151697
vn 0.302238 -0.9042976 -0.3014932
vn 0.2892618 -0.9098921 0.297362
vn -0.6337441 -0.2761669 0.7225651
vn 0.6067998 -0.7226799 0.3309499
vn -0.6305118 -0.6998865 0.3355798
vn 0.6369779 -0.2719631 0.721315
vn -0.2892621 -0.9098918 0.297362
vn 0.3117789 -0.9010572 0.3014791
vn -0.6444821 -0.7067619 -0.291771
vn -0.6337441 -0.2761669 0.7225651
vn -0.6305118 -0.6998865 0.3355798
vn -0.6367447 -0.2882507 -0.7151697
vn -0.3022383 -0.9042975 -0.3014932
vn -0.2892621 -0.9098918 0.297362
vn -0.3117792 -0.9010572 0.3014791
vn -0.4506849 -0.7893786 0.4168508
vn 0.2892618 -0.9098921 0.297362
vn -0.2966281 -0.9076728 -0.296887
vn -0.4069993 -0.8086512 -0.4247762
vn -1.127177E-07 -0.8464956 0.5323958
vn 0.302238 -0.9042976 -0.3014932
vn -1.200755E-07 -0.9017514 -0.4322552
vn -0.3022383 -0.9042975 -0.3014932
vn 0.406999 -0.8086514 -0.4247762
vn -0.2892621 -0.9098918 0.297362
vn 0.2966278 -0.9076728 -0.296887
vn 0.4506847 -0.7893787 0.4168508
vn 0.3117789 -0.9010572 0.3014791
g ToyMusketer056_0
f 3/3/3 2/2/2 1/1/1
f 4/4/4 2/2/2 3/3/3
f 5/5/5 4/4/4 3/3/3
f 6/6/6 4/4/4 5/5/5
f 6/6/6 7/7/7 4/4/4
f 8/8/8 7/7/7 6/6/6
f 8/8/8 9/9/9 7/7/7
f 4/4/4 10/10/10 2/2/2
f 4/4/4 7/7/7 10/10/10
f 7/7/7 9/9/9 11/11/11
f 12/12/12 11/11/11 9/9/9
f 7/7/7 11/11/11 13/13/13
f 13/13/13 10/10/10 7/7/7
f 13/13/13 11/11/11 14/14/14
f 15/15/15 14/14/14 11/11/11
f 16/16/16 14/14/14 15/15/15
f 16/16/16 15/15/15 17/17/17
f 18/18/18 17/17/17 15/15/15
f 13/13/13 19/19/19 10/10/10
f 17/17/17 18/18/18 20/20/20
f 21/21/21 2/2/2 10/10/10
f 2/2/2 21/21/21 22/22/22
f 23/23/23 22/22/22 21/21/21
f 23/23/23 24/24/24 22/22/22
f 22/22/22 24/24/24 25/25/25
f 10/10/10 26/26/26 21/21/21
f 26/26/26 10/10/10 19/19/19
f 27/27/27 21/21/21 26/26/26
f 19/19/19 28/28/28 26/26/26
f 28/28/28 27/27/27 26/26/26
f 29/29/29 28/28/28 19/19/19
f 27/27/27 28/28/28 30/30/30
f 31/31/31 28/28/28 29/29/29
f 32/32/32 30/30/30 28/28/28
f 32/32/32 28/28/28 31/31/31
f 33/33/33 30/30/30 32/32/32
f 32/32/32 31/31/31 33/33/33
f 34/34/34 33/33/33 31/31/31
f 35/35/35 30/30/30 33/33/33
f 34/34/34 36/36/36 33/33/33
f 33/33/33 37/37/37 35/35/35
f 37/37/37 33/33/33 36/36/36
f 37/37/37 24/24/24 35/35/35
f 37/37/37 36/36/36 38/38/38
f 38/38/38 24/24/24 37/37/37
f 38/38/38 36/36/36 20/20/20
f 38/38/38 25/25/25 24/24/24
f 39/39/39 38/38/38 20/20/20
f 39/39/39 20/20/20 18/18/18
f 40/40/40 25/25/25 38/38/38
f 40/40/40 38/38/38 39/39/39
f 18/18/18 41/41/41 39/39/39
f 42/42/42 41/41/41 18/18/18
f 43/43/43 39/39/39 41/41/41
f 43/43/43 44/44/44 39/39/39
f 40/40/40 39/39/39 44/44/44
f 44/44/44 45/45/45 40/40/40
f 46/46/46 40/40/40 45/45/45
f 40/40/40 46/46/46 25/25/25
f 47/47/47 25/25/25 46/46/46
f 50/50/50 49/49/49 48/48/48
f 51/51/51 49/49/49 50/50/50
f 49/49/49 51/51/51 52/52/52
f 50/50/50 53/53/53 51/51/51
f 52/52/52 51/51/51 54/54/54
f 51/51/51 53/53/53 55/55/55
f 55/55/55 54/54/54 51/51/51
f 55/55/55 53/53/53 56/56/56
f 55/55/55 56/56/56 54/54/54
f 54/54/54 56/56/56 57/57/57
f 58/58/58 56/56/56 53/53/53
f 59/59/59 57/57/57 56/56/56
f 56/56/56 58/58/58 59/59/59
f 60/60/60 59/59/59 58/58/58
f 63/63/63 62/62/62 61/61/61
f 64/64/64 62/62/62 63/63/63
f 62/62/62 64/64/64 65/65/65
f 65/65/65 64/64/64 66/66/66
f 63/63/63 67/67/67 64/64/64
f 68/68/68 67/67/67 63/63/63
f 69/69/69 67/67/67 68/68/68
f 70/70/70 66/66/66 64/64/64
f 70/70/70 64/64/64 67/67/67
f 66/66/66 70/70/70 71/71/71
f 70/70/70 67/67/67 71/71/71
f 72/72/72 71/71/71 67/67/67
f 75/75/75 74/74/74 73/73/73
f 76/76/76 74/74/74 75/75/75
f 74/74/74 76/76/76 77/77/77
f 76/76/76 75/75/75 78/78/78
f 79/79/79 78/78/78 75/75/75
f 80/80/80 76/76/76 78/78/78
f 81/81/81 77/77/77 76/76/76
f 81/81/81 76/76/76 80/80/80
f 81/81/81 82/82/82 77/77/77
f 80/80/80 83/83/83 81/81/81
f 84/84/84 82/82/82 81/81/81
f 84/84/84 81/81/81 83/83/83
f 87/87/87 86/86/86 85/85/85
f 88/88/88 86/86/86 87/87/87
f 87/87/87 89/89/89 88/88/88
f 88/88/88 89/89/89 90/90/90
f 91/91/91 90/90/90 89/89/89
f 91/91/91 92/92/92 90/90/90
f 90/90/90 92/92/92 93/93/93
f 93/93/93 94/94/94 90/90/90
f 95/95/95 90/90/90 94/94/94
f 95/95/95 96/96/96 90/90/90
f 90/90/90 96/96/96 88/88/88
f 97/97/97 88/88/88 96/96/96
f 88/88/88 97/97/97 86/86/86
f 98/98/98 86/86/86 97/97/97
f 101/101/101 100/100/100 99/99/99
f 102/102/102 99/99/99 100/100/100
f 103/103/103 102/102/102 100/100/100
f 104/104/104 102/102/102 103/103/103
f 107/107/107 106/106/106 105/105/105
f 108/108/108 105/105/105 106/106/106
f 111/111/111 110/110/110 109/109/109
f 112/112/112 109/109/109 110/110/110
f 113/113/113 109/109/109 112/112/112
f 114/114/114 109/109/109 113/113/113
f 117/117/117 116/116/116 115/115/115
f 118/118/118 116/116/116 117/117/117
f 118/118/118 117/117/117 119/119/119
f 120/120/120 119/119/119 117/117/117
f 123/123/123 122/122/122 121/121/121
f 124/124/124 121/121/121 122/122/122
f 124/124/124 125/125/125 121/121/121
f 125/125/125 124/124/124 126/126/126
f 127/127/127 126/126/126 124/124/124
f 126/126/126 128/128/128 125/125/125
f 128/128/128 129/129/129 125/125/125
f 125/125/125 129/129/129 130/130/130
f 121/121/121 125/125/125 130/130/130
f 129/129/129 131/131/131 130/130/130
f 131/131/131 121/121/121 130/130/130
f 132/132/132 121/121/121 131/131/131
f 135/135/135 134/134/134 133/133/133
f 136/136/136 133/133/133 134/134/134
f 136/136/136 137/137/137 133/133/133
f 138/138/138 137/137/137 136/136/136
f 141/141/141 140/140/140 139/139/139
f 142/142/142 140/140/140 141/141/141
f 145/145/145 144/144/144 143/143/143
f 146/146/146 143/143/143 144/144/144
f 147/147/147 143/143/143 146/146/146
f 148/148/148 143/143/143 147/147/147
f 151/151/151 150/150/150 149/149/149
f 152/152/152 149/149/149 150/150/150
f 150/150/150 153/153/153 152/152/152
f 154/154/154 152/152/152 153/153/153
f 157/157/157 156/156/156 155/155/155
f 158/158/158 156/156/156 157/157/157
f 158/158/158 159/159/159 156/156/156
f 156/156/156 159/159/159 160/160/160
f 163/163/163 162/162/162 161/161/161
f 161/161/161 162/162/162 164/164/164
f 164/164/164 165/165/165 161/161/161
f 166/166/166 165/165/165 164/164/164
f 169/169/169 168/168/168 167/167/167
f 170/170/170 167/167/167 168/168/168
f 170/170/170 168/168/168 171/171/171
f 172/172/172 171/171/171 168/168/168
f 175/175/175 174/174/174 173/173/173
f 173/173/173 174/174/174 176/176/176
f 177/177/177 176/176/176 174/174/174
f 178/178/178 174/174/174 175/175/175
f 176/176/176 177/177/177 179/179/179
f 179/179/179 178/178/178 175/175/175
f 180/180/180 179/179/179 177/177/177
f 180/180/180 178/178/178 179/179/179
f 180/180/180 181/181/181 178/178/178
f 182/182/182 181/181/181 180/180/180
f 183/183/183 178/178/178 181/181/181
f 184/184/184 181/181/181 182/182/182
f 178/178/178 183/183/183 185/185/185
f 182/182/182 185/185/185 184/184/184
f 186/186/186 185/185/185 183/183/183
f 184/184/184 185/185/185 186/186/186
