g ToyMusketer059
v -0.0817475 -0.2682561 0.058931
v 0.0817475 -0.2682562 0.058931
v -0.0817475 -0.2704802 -0.0004311878
v 0.0817475 -0.2704802 -0.0004311879
v -0.0817475 -0.2682561 0.058931
v -0.0817475 -0.008527468 0.04920102
v 0.0817475 -0.2682562 0.058931
v 0.0817475 -0.008527469 0.04920102
v -0.0730005 0.03533344 0.04755796
v 0.0730005 0.03533344 0.04755796
v -0.0341395 0.06647063 0.04639175
v 0.0341395 0.06647063 0.04639175
v 0.0817475 -0.2682562 0.058931
v 0.0817475 -0.008527469 0.04920102
v 0.0817475 -0.2704802 -0.0004311879
v 0.0817475 -0.01075144 -0.01016117
v 0.0730005 0.03533344 0.04755796
v 0.0730005 0.03310943 -0.01180424
v 0.0817475 -0.01297539 -0.06952436
v 0.0730005 0.03088548 -0.07116741
v 0.0817475 -0.2727031 -0.05979431
v 0.0817475 -0.3474039 -0.05699579
v 0.0817475 -0.3451798 0.002366395
v 0.06837849 -0.3837225 -0.05563521
v 0.06837849 -0.3814985 0.003726976
v 0.0817475 -0.2704802 -0.0004311879
v 0.0817475 -0.3451798 0.002366395
v -0.0817475 -0.2704802 -0.0004311878
v -0.0817475 -0.3451798 0.002366395
v 0.06837849 -0.3814985 0.003726976
v -0.0683785 -0.3814985 0.003726976
v 0.0220515 -0.4068324 0.004676071
v -0.0220505 -0.4068324 0.004676071
v -0.0683785 -0.3814985 0.003726976
v -0.0220505 -0.4068324 0.004676071
v -0.0683785 -0.3837225 -0.05563521
v -0.0220505 -0.4090564 -0.05468611
v 0.0220515 -0.4068324 0.004676071
v 0.0220515 -0.4090564 -0.05468611
v 0.06837849 -0.3814985 0.003726976
v 0.06837849 -0.3837225 -0.05563521
v 0.0730005 0.03533344 0.04755796
v 0.0341395 0.06647063 0.04639175
v 0.0730005 0.03310943 -0.01180424
v 0.0341395 0.06424668 -0.01297143
v 0.0730005 0.03088548 -0.07116741
v 0.0341395 0.06202366 -0.07233354
v -0.0341395 0.06202366 -0.07233354
v -0.0341395 0.06424668 -0.01297143
v -0.0341395 0.06647063 0.04639175
v -0.0730005 0.03533344 0.04755796
v -0.0730005 0.03310943 -0.01180424
v -0.0730005 0.03088548 -0.07116741
v -0.0817475 -0.3474039 -0.05699579
v -0.0683785 -0.3814985 0.003726976
v -0.0683785 -0.3837225 -0.05563521
v -0.0817475 -0.3451798 0.002366395
v -0.0817475 -0.2727031 -0.05979431
v -0.0817475 -0.2704802 -0.0004311878
v -0.0817475 -0.01297539 -0.06952436
v -0.0817475 -0.01075144 -0.01016117
v -0.0817475 -0.2682561 0.058931
v -0.0730005 0.03088548 -0.07116741
v -0.0817475 -0.008527468 0.04920102
v -0.0730005 0.03310943 -0.01180424
v -0.0730005 0.03533344 0.04755796
v 0.06837849 -0.3837225 -0.05563521
v -0.0220505 -0.4090564 -0.05468611
v 0.0220515 -0.4090564 -0.05468611
v -0.0683785 -0.3837225 -0.05563521
v 0.0817475 -0.3474039 -0.05699579
v -0.0817475 -0.3474039 -0.05699579
v 0.0817475 -0.2727031 -0.05979431
v -0.0817475 -0.2727031 -0.05979431
v 0.0817475 -0.01297539 -0.06952436
v -0.0817475 -0.01297539 -0.06952436
v 0.0730005 0.03088548 -0.07116741
v -0.0730005 0.03088548 -0.07116741
v 0.0341395 0.06202366 -0.07233354
v -0.0341395 0.06202366 -0.07233354
vt 0.437984 0.913421
vt 0.437984 0.970721
vt 0.458804 0.913421
vt 0.458804 0.970721
vt 0.328727 0.790648
vt 0.328727 0.700035
vt 0.386026 0.790648
vt 0.386026 0.700035
vt 0.331792 0.684733
vt 0.382961 0.684733
vt 0.345412 0.67387
vt 0.369341 0.67387
vt 0.519412 0.695861
vt 0.610025 0.705167
vt 0.517285 0.716571
vt 0.607898 0.725877
vt 0.625327 0.706738
vt 0.6232 0.727448
vt 0.605771 0.746587
vt 0.621073 0.748158
vt 0.515159 0.737281
vt 0.489098 0.734605
vt 0.491225 0.713895
vt 0.476427 0.733303
vt 0.478554 0.712593
vt 0.062299 0.316163
vt 0.062299 0.342224
vt 0.005 0.316163
vt 0.005 0.342224
vt 0.057614 0.354895
vt 0.009685 0.354895
vt 0.041378 0.363733
vt 0.025922 0.363733
vt 0.339751 0.52825
vt 0.338843 0.544487
vt 0.360461 0.52825
vt 0.359553 0.544487
vt 0.338843 0.559943
vt 0.359553 0.559943
vt 0.339751 0.576179
vt 0.360461 0.576179
vt 0.411728 0.498708
vt 0.410612 0.512327
vt 0.391019 0.498708
vt 0.389903 0.512327
vt 0.370308 0.498708
vt 0.369192 0.512327
vt 0.369192 0.536257
vt 0.389903 0.536257
vt 0.410612 0.536257
vt 0.411728 0.549876
vt 0.391019 0.549876
vt 0.370308 0.549876
vt 0.216091 0.432224
vt 0.226634 0.454235
vt 0.228762 0.433525
vt 0.213964 0.452934
vt 0.19003 0.429547
vt 0.187904 0.450258
vt 0.099418 0.420241
vt 0.097291 0.440952
vt 0.185776 0.470968
vt 0.084115 0.41867
vt 0.095164 0.461662
vt 0.081989 0.43938
vt 0.079862 0.46009
vt 0.511462 0.83949
vt 0.543154 0.830652
vt 0.527698 0.830652
vt 0.55939 0.83949
vt 0.506776 0.852161
vt 0.564076 0.852161
vt 0.506776 0.878222
vt 0.564076 0.878222
vt 0.506776 0.968835
vt 0.564076 0.968835
vt 0.509842 0.984137
vt 0.56101 0.984137
vt 0.523461 0.995
vt 0.54739 0.995
vn -0.5773503 -0.5553311 0.5985599
vn 0.5773503 -0.5553311 0.5985599
vn -0.9045322 -0.2900161 0.3125894
vn 0.9045322 -0.2900161 0.3125894
vn -0.5773503 -0.5553311 0.5985599
vn -0.7244059 0.09709692 0.6825014
vn 0.5773503 -0.5553311 0.5985599
vn 0.7244059 0.09709691 0.6825014
vn -0.6584257 0.4235051 0.622189
vn 0.658426 0.4235054 0.6221883
vn -0.254863 0.74871 0.6119463
vn 0.254863 0.74871 0.6119463
vn 0.5773503 -0.5553311 0.5985599
vn 0.7244059 0.09709691 0.6825014
vn 0.9045322 -0.2900161 0.3125894
vn 0.9951671 0.09812696 -0.00367617
vn 0.658426 0.4235054 0.6221883
vn 0.8546962 0.5187645 -0.01943485
vn 0.7244049 0.04576093 -0.6878543
vn 0.6584256 0.3757657 -0.6521318
vn 0.7071069 -0.02647173 -0.706611
vn 0.7311367 -0.1551875 -0.6643462
vn 0.731137 -0.1050494 0.6740944
vn 0.5846058 -0.5272441 -0.6166438
vn 0.5846051 -0.4796276 0.6543655
vn 0.9045322 -0.2900161 0.3125894
vn 0.731137 -0.1050494 0.6740944
vn -0.9045322 -0.2900161 0.3125894
vn -0.731137 -0.1050494 0.6740945
vn 0.5846051 -0.4796276 0.6543655
vn -0.5846033 -0.4796315 0.6543643
vn 0.1871301 -0.7067184 0.6822987
vn -0.187126 -0.7067189 0.6822992
vn -0.5846033 -0.4796315 0.6543643
vn -0.187126 -0.7067189 0.6822992
vn -0.5846039 -0.5272473 -0.6166431
vn -0.187126 -0.7557901 -0.6275073
vn 0.1871301 -0.7067184 0.6822987
vn 0.18713 -0.755789 -0.6275072
vn 0.5846051 -0.4796276 0.6543655
vn 0.5846058 -0.5272441 -0.6166438
vn 0.658426 0.4235054 0.6221883
vn 0.254863 0.74871 0.6119463
vn 0.8546962 0.5187645 -0.01943485
vn 0.3315291 0.9427839 -0.03531447
vn 0.6584256 0.3757657 -0.6521318
vn 0.2548689 0.7008356 -0.6662366
vn -0.2548659 0.7008358 -0.6662377
vn -0.331527 0.9427846 -0.0353134
vn -0.254863 0.74871 0.6119463
vn -0.6584257 0.4235051 0.622189
vn -0.854697 0.5187633 -0.01943292
vn -0.6584258 0.375763 -0.6521332
vn -0.7311368 -0.1551875 -0.6643462
vn -0.5846033 -0.4796315 0.6543643
vn -0.5846039 -0.5272473 -0.6166431
vn -0.731137 -0.1050494 0.6740945
vn -0.7071069 -0.02647173 -0.706611
vn -0.9045322 -0.2900161 0.3125894
vn -0.7244049 0.04576093 -0.6878543
vn -0.9951671 0.09812698 -0.003676169
vn -0.5773503 -0.5553311 0.5985599
vn -0.6584258 0.375763 -0.6521332
vn -0.7244059 0.09709692 0.6825014
vn -0.854697 0.5187633 -0.01943292
vn -0.6584257 0.4235051 0.622189
vn 0.5846058 -0.5272441 -0.6166438
vn -0.187126 -0.7557901 -0.6275073
vn 0.18713 -0.755789 -0.6275072
vn -0.5846039 -0.5272473 -0.6166431
vn 0.7311367 -0.1551875 -0.6643462
vn -0.7311368 -0.1551875 -0.6643462
vn 0.7071069 -0.02647173 -0.706611
vn -0.7071069 -0.02647173 -0.706611
vn 0.7244049 0.04576093 -0.6878543
vn -0.7244049 0.04576093 -0.6878543
vn 0.6584256 0.3757657 -0.6521318
vn -0.6584258 0.375763 -0.6521332
vn 0.2548689 0.7008356 -0.6662366
vn -0.2548659 0.7008358 -0.6662377
g ToyMusketer059_0
f 3/3/3 2/2/2 1/1/1
f 4/4/4 2/2/2 3/3/3
f 7/7/7 6/6/6 5/5/5
f 8/8/8 6/6/6 7/7/7
f 8/8/8 9/9/9 6/6/6
f 10/10/10 9/9/9 8/8/8
f 10/10/10 11/11/11 9/9/9
f 12/12/12 11/11/11 10/10/10
f 15/15/15 14/14/14 13/13/13
f 16/16/16 14/14/14 15/15/15
f 16/16/16 17/17/17 14/14/14
f 18/18/18 17/17/17 16/16/16
f 19/19/19 18/18/18 16/16/16
f 20/20/20 18/18/18 19/19/19
f 19/19/19 16/16/16 21/21/21
f 21/21/21 16/16/16 15/15/15
f 15/15/15 22/22/22 21/21/21
f 23/23/23 22/22/22 15/15/15
f 23/23/23 24/24/24 22/22/22
f 25/25/25 24/24/24 23/23/23
f 28/28/28 27/27/27 26/26/26
f 29/29/29 27/27/27 28/28/28
f 29/29/29 30/30/30 27/27/27
f 31/31/31 30/30/30 29/29/29
f 31/31/31 32/32/32 30/30/30
f 33/33/33 32/32/32 31/31/31
f 36/36/36 35/35/35 34/34/34
f 37/37/37 35/35/35 36/36/36
f 37/37/37 38/38/38 35/35/35
f 39/39/39 38/38/38 37/37/37
f 38/38/38 39/39/39 40/40/40
f 40/40/40 39/39/39 41/41/41
f 44/44/44 43/43/43 42/42/42
f 45/45/45 43/43/43 44/44/44
f 46/46/46 45/45/45 44/44/44
f 47/47/47 45/45/45 46/46/46
f 47/47/47 48/48/48 45/45/45
f 45/45/45 49/49/49 43/43/43
f 45/45/45 48/48/48 49/49/49
f 43/43/43 49/49/49 50/50/50
f 50/50/50 49/49/49 51/51/51
f 51/51/51 49/49/49 52/52/52
f 49/49/49 48/48/48 52/52/52
f 52/52/52 48/48/48 53/53/53
f 56/56/56 55/55/55 54/54/54
f 54/54/54 55/55/55 57/57/57
f 54/54/54 57/57/57 58/58/58
f 58/58/58 57/57/57 59/59/59
f 59/59/59 60/60/60 58/58/58
f 61/61/61 60/60/60 59/59/59
f 62/62/62 61/61/61 59/59/59
f 61/61/61 63/63/63 60/60/60
f 64/64/64 61/61/61 62/62/62
f 65/65/65 63/63/63 61/61/61
f 64/64/64 65/65/65 61/61/61
f 66/66/66 65/65/65 64/64/64
f 69/69/69 68/68/68 67/67/67
f 67/67/67 68/68/68 70/70/70
f 67/67/67 70/70/70 71/71/71
f 71/71/71 70/70/70 72/72/72
f 71/71/71 72/72/72 73/73/73
f 73/73/73 72/72/72 74/74/74
f 74/74/74 75/75/75 73/73/73
f 76/76/76 75/75/75 74/74/74
f 76/76/76 77/77/77 75/75/75
f 78/78/78 77/77/77 76/76/76
f 78/78/78 79/79/79 77/77/77
f 80/80/80 79/79/79 78/78/78
