g ToyMusketer062
v -0.1104015 -0.1448374 0.07351938
v 0.1104015 -0.1448374 0.07351938
v -0.1104015 -0.1448374 3.910065E-07
v 0.1104015 -0.1448374 3.910065E-07
v -0.1104015 -0.1448374 0.07351938
v -0.1104015 -0.03371843 0.07351938
v 0.1104015 -0.1448374 0.07351938
v 0.1104015 -0.03371843 0.07351938
v -0.0890845 0.02428357 0.07325439
v 0.0890845 0.02428357 0.07325439
v -0.0441875 0.06229757 0.07351938
v 0.0441875 0.06229757 0.07351938
v 0.1104015 -0.1448374 0.07351938
v 0.1104015 -0.03371843 0.07351938
v 0.1104015 -0.1448374 3.910065E-07
v 0.1104015 -0.03371843 3.910065E-07
v 0.1045115 -0.01742243 0.01628939
v 0.0890845 0.02428357 0.07325439
v 0.08904649 0.02426257 0.0162254
v 0.1045115 -0.01742243 3.910065E-07
v 0.1045115 -0.01742243 -0.0162886
v 0.1104015 -0.1448374 -0.0735196
v 0.1104015 -0.2644824 -0.0735196
v 0.1104015 -0.03371843 -0.0735196
v 0.0890845 0.02428357 -0.07325461
v 0.08904649 0.02426257 -0.01622461
v 0.1104015 -0.2644824 3.910065E-07
v 0.0923465 -0.3226514 -0.0735196
v 0.0923465 -0.3226514 3.910065E-07
v 0.1104015 -0.1448374 3.910065E-07
v 0.1104015 -0.2644824 3.910065E-07
v -0.1104015 -0.1448374 3.910065E-07
v -0.1104015 -0.2644824 3.910065E-07
v 0.0923465 -0.3226514 3.910065E-07
v -0.0923465 -0.3226514 3.910065E-07
v 0.0297805 -0.3632294 3.910065E-07
v -0.0297805 -0.3632294 3.910065E-07
v -0.0923465 -0.3226514 3.910065E-07
v -0.0297805 -0.3632294 3.910065E-07
v -0.0923465 -0.3226514 -0.0735196
v -0.0297805 -0.3632294 -0.0735196
v 0.0297805 -0.3632294 3.910065E-07
v 0.0297805 -0.3632294 -0.0735196
v 0.0923465 -0.3226514 3.910065E-07
v 0.0923465 -0.3226514 -0.0735196
v 0.1045115 -0.01742243 -0.0162886
v -0.0003204988 -0.01651043 -0.01618661
v 0.08904649 0.02426257 -0.01622461
v 0.0441205 0.06235456 -0.01649061
v -0.0441215 0.06235456 -0.01649061
v -0.08904649 0.02426257 -0.01622461
v -0.1035585 -0.01553043 -0.0162886
v -0.1035585 -0.01553043 0.01628939
v -0.0003204988 -0.01651043 0.01618639
v -0.08904649 0.02426257 0.0162254
v -0.0441215 0.06235456 0.01649039
v 0.0441205 0.06235456 0.01649039
v 0.08904649 0.02426257 0.0162254
v 0.1045115 -0.01742243 0.01628939
v -0.1104015 -0.2644824 -0.0735196
v -0.0923465 -0.3226514 3.910065E-07
v -0.0923465 -0.3226514 -0.0735196
v -0.1104015 -0.2644824 3.910065E-07
v -0.1104015 -0.1448374 -0.0735196
v -0.1104015 -0.1448374 3.910065E-07
v -0.1104015 -0.03371843 -0.0735196
v -0.1104015 -0.03371843 3.910065E-07
v -0.1104015 -0.1448374 0.07351938
v -0.1104015 -0.03371843 0.07351938
v -0.1035585 -0.01553043 -0.0162886
v -0.0890845 0.02428357 -0.07325461
v -0.08904649 0.02426257 -0.01622461
v -0.1035585 -0.01553043 3.910065E-07
v -0.1035585 -0.01553043 0.01628939
v -0.0890845 0.02428357 0.07325439
v -0.08904649 0.02426257 0.0162254
v 0.0923465 -0.3226514 -0.0735196
v -0.0297805 -0.3632294 -0.0735196
v 0.0297805 -0.3632294 -0.0735196
v -0.0923465 -0.3226514 -0.0735196
v 0.1104015 -0.2644824 -0.0735196
v -0.1104015 -0.2644824 -0.0735196
v 0.1104015 -0.1448374 -0.0735196
v -0.1104015 -0.1448374 -0.0735196
v 0.1104015 -0.03371843 -0.0735196
v -0.1104015 -0.03371843 -0.0735196
v 0.0890845 0.02428357 -0.07325461
v -0.0890845 0.02428357 -0.07325461
v 0.0441875 0.06229757 -0.0735196
v -0.0441875 0.06229757 -0.0735196
v 0.0441205 0.06235456 -0.01649061
v 0.0890845 0.02428357 -0.07325461
v 0.08904649 0.02426257 -0.01622461
v 0.0441875 0.06229757 -0.0735196
v -0.0441875 0.06229757 -0.0735196
v -0.0441215 0.06235456 -0.01649061
v -0.0890845 0.02428357 -0.07325461
v -0.08904649 0.02426257 -0.01622461
v -0.0441215 0.06235456 0.01649039
v -0.0890845 0.02428357 0.07325439
v -0.08904649 0.02426257 0.0162254
v -0.0441875 0.06229757 0.07351938
v 0.0441875 0.06229757 0.07351938
v 0.0441205 0.06235456 0.01649039
v 0.0890845 0.02428357 0.07325439
v 0.08904649 0.02426257 0.0162254
v 0.1045115 -0.01742243 0.01628939
v 0.0578045 -0.01651043 3.910065E-07
v 0.1045115 -0.01742243 3.910065E-07
v 0.1045115 -0.01742243 -0.0162886
v -0.0003204988 -0.01651043 0.01618639
v -0.0003204988 -0.01651043 -0.01618661
v -0.0584465 -0.01651043 3.910065E-07
v -0.1035585 -0.01553043 -0.0162886
v -0.1035585 -0.01553043 0.01628939
v -0.1035585 -0.01553043 3.910065E-07
vt 0.005 0.229697
vt 0.005 0.307081
vt 0.030766 0.229697
vt 0.030766 0.307081
vt 0.162817 0.290895
vt 0.162817 0.251951
vt 0.2402 0.290895
vt 0.2402 0.251951
vt 0.170288 0.231624
vt 0.232729 0.231624
vt 0.186022 0.218301
vt 0.216995 0.218301
vt 0.546837 0.2252
vt 0.585781 0.2252
vt 0.546837 0.250965
vt 0.585781 0.250965
vt 0.591492 0.245257
vt 0.606108 0.225293
vt 0.606101 0.245279
vt 0.591492 0.250965
vt 0.591492 0.256674
vt 0.546837 0.276732
vt 0.504906 0.276732
vt 0.585781 0.276732
vt 0.606108 0.276639
vt 0.606101 0.256652
vt 0.504906 0.250965
vt 0.48452 0.276732
vt 0.48452 0.250965
vt 0.667115 0.756598
vt 0.667115 0.798529
vt 0.589731 0.756598
vt 0.589731 0.798529
vt 0.660787 0.818916
vt 0.596059 0.818916
vt 0.63886 0.833137
vt 0.617986 0.833137
vt 0.346936 0.187724
vt 0.346936 0.209651
vt 0.372702 0.187724
vt 0.372702 0.209651
vt 0.346936 0.230525
vt 0.372702 0.230525
vt 0.346936 0.252452
vt 0.372702 0.252452
vt 0.648489 0.543806
vt 0.611749 0.543486
vt 0.643069 0.529197
vt 0.627324 0.515847
vt 0.596398 0.515847
vt 0.580654 0.529197
vt 0.575568 0.543143
vt 0.077921 0.372856
vt 0.04174 0.372513
vt 0.072835 0.386802
vt 0.05709 0.400152
vt 0.026165 0.400152
vt 0.01042 0.386802
vt 0.005 0.372193
vt 0.106202 0.170571
vt 0.126588 0.196337
vt 0.126588 0.170571
vt 0.106202 0.196337
vt 0.064271 0.170571
vt 0.064271 0.196337
vt 0.025328 0.170571
vt 0.025328 0.196337
vt 0.064271 0.222103
vt 0.025328 0.222103
vt 0.018953 0.190628
vt 0.005 0.170664
vt 0.005007 0.190651
vt 0.018953 0.196337
vt 0.018953 0.202046
vt 0.005 0.22201
vt 0.005007 0.202023
vt 0.596059 0.372476
vt 0.63886 0.358255
vt 0.617986 0.358255
vt 0.660787 0.372476
vt 0.589731 0.392862
vt 0.667115 0.392862
vt 0.589731 0.434793
vt 0.667115 0.434793
vt 0.589731 0.473737
vt 0.667115 0.473737
vt 0.597202 0.494064
vt 0.659644 0.494064
vt 0.612937 0.507387
vt 0.643909 0.507387
vt 0.504507 0.195652
vt 0.484613 0.179894
vt 0.5046 0.179907
vt 0.48452 0.195629
vt 0.48452 0.226601
vt 0.504507 0.226578
vt 0.484613 0.242336
vt 0.5046 0.242322
vt 0.039489 0.291323
vt 0.059383 0.307081
vt 0.039396 0.307068
vt 0.059476 0.291346
vt 0.059476 0.260374
vt 0.039489 0.260397
vt 0.059383 0.244639
vt 0.039396 0.244652
vt 0.657801 0.922079
vt 0.652092 0.938448
vt 0.652092 0.922079
vt 0.646383 0.922079
vt 0.657764 0.958819
vt 0.646419 0.958819
vt 0.652092 0.97919
vt 0.646383 0.995
vt 0.657801 0.995
vt 0.652092 0.995
vn -0.5773503 -0.5773503 0.5773503
vn 0.5773503 -0.5773503 0.5773503
vn -0.9045342 -0.3015111 0.3015111
vn 0.9045342 -0.3015111 0.3015111
vn -0.5773503 -0.5773503 0.5773503
vn -0.7308158 0.131797 0.6697297
vn 0.5773503 -0.5773503 0.5773503
vn 0.7304377 0.1307519 0.6703467
vn -0.6210901 0.4346221 0.6521891
vn 0.6202757 0.4351219 0.6526308
vn -0.2656811 0.7209603 0.6400233
vn 0.265685 0.7209609 0.640021
vn 0.5773503 -0.5773503 0.5773503
vn 0.7304377 0.1307519 0.6703467
vn 0.9045342 -0.3015111 0.3015111
vn 0.9850014 0.1725461 0
vn 0.7950969 0.567743 -0.213281
vn 0.6202757 0.4351219 0.6526308
vn 0.6183242 0.4342481 -0.6550602
vn 0.582455 0.812863 0
vn 0.7950961 0.5677441 0.213281
vn 0.7071068 0 -0.7071068
vn 0.7295972 -0.110626 -0.6748703
vn 0.7304377 0.1307519 -0.6703467
vn 0.6202757 0.4351219 -0.6526308
vn 0.6183182 0.4342491 0.6550652
vn 0.7295972 -0.110626 0.6748703
vn 0.613898 -0.464943 -0.637932
vn 0.613898 -0.464943 0.637932
vn 0.9045342 -0.3015111 0.3015111
vn 0.7295972 -0.110626 0.6748703
vn -0.9045342 -0.3015111 0.3015111
vn -0.7295972 -0.110626 0.6748703
vn 0.613898 -0.464943 0.637932
vn -0.613898 -0.464943 0.637932
vn 0.2159869 -0.7299548 0.6484718
vn -0.2159869 -0.7299548 0.6484718
vn -0.613898 -0.464943 0.637932
vn -0.2159869 -0.7299548 0.6484718
vn -0.613898 -0.464943 -0.637932
vn -0.2159869 -0.7299548 -0.6484718
vn 0.2159869 -0.7299548 0.6484718
vn 0.2159869 -0.7299548 -0.6484718
vn 0.613898 -0.464943 0.637932
vn 0.613898 -0.464943 -0.637932
vn 0.7950961 0.5677441 0.213281
vn 0.001113 0.7083428 0.7058678
vn 0.6183182 0.4342491 0.6550652
vn 0.264536 0.7255461 0.635298
vn -0.264542 0.725544 0.635298
vn -0.6198938 0.4327608 0.6545607
vn -0.7866257 0.5756658 0.2232239
vn -0.7866269 0.575664 -0.223224
vn 0.001113 0.7083443 -0.7058663
vn -0.6198997 0.4327599 -0.6545557
vn -0.264546 0.7255399 -0.6353009
vn 0.2645391 0.7255422 -0.6353012
vn 0.6183242 0.4342481 -0.6550602
vn 0.7950969 0.567743 -0.213281
vn -0.7295972 -0.110626 -0.6748703
vn -0.613898 -0.464943 0.637932
vn -0.613898 -0.464943 -0.637932
vn -0.7295972 -0.110626 0.6748703
vn -0.7071068 0 -0.7071068
vn -0.9045342 -0.3015111 0.3015111
vn -0.7308158 0.131797 -0.6697297
vn -0.9838567 0.1789579 0
vn -0.5773503 -0.5773503 0.5773503
vn -0.7308158 0.131797 0.6697297
vn -0.7866257 0.5756658 0.2232239
vn -0.6210901 0.4346221 -0.6521891
vn -0.6198938 0.4327608 0.6545607
vn -0.560186 0.8283669 0
vn -0.7866269 0.575664 -0.223224
vn -0.6210901 0.4346221 0.6521891
vn -0.6198997 0.4327599 -0.6545557
vn 0.613898 -0.464943 -0.637932
vn -0.2159869 -0.7299548 -0.6484718
vn 0.2159869 -0.7299548 -0.6484718
vn -0.613898 -0.464943 -0.637932
vn 0.7295972 -0.110626 -0.6748703
vn -0.7295972 -0.110626 -0.6748703
vn 0.7071068 0 -0.7071068
vn -0.7071068 0 -0.7071068
vn 0.7304377 0.1307519 -0.6703467
vn -0.7308158 0.131797 -0.6697297
vn 0.6202757 0.4351219 -0.6526308
vn -0.6210901 0.4346221 -0.6521891
vn 0.265685 0.7209609 -0.640021
vn -0.2656811 0.7209603 -0.6400233
vn 0.264536 0.7255461 0.635298
vn 0.6202757 0.4351219 -0.6526308
vn 0.6183182 0.4342491 0.6550652
vn 0.265685 0.7209609 -0.640021
vn -0.2656811 0.7209603 -0.6400233
vn -0.264542 0.725544 0.635298
vn -0.6210901 0.4346221 -0.6521891
vn -0.6198938 0.4327608 0.6545607
vn -0.264546 0.7255399 -0.6353009
vn -0.6210901 0.4346221 0.6521891
vn -0.6198997 0.4327599 -0.6545557
vn -0.2656811 0.7209603 0.6400233
vn 0.265685 0.7209609 0.640021
vn 0.2645391 0.7255422 -0.6353012
vn 0.6202757 0.4351219 0.6526308
vn 0.6183242 0.4342481 -0.6550602
vn 0.7950969 0.567743 -0.213281
vn 0.009078998 0.9999588 0
vn 0.582455 0.812863 0
vn 0.7950961 0.5677441 0.213281
vn 0.001113 0.7083443 -0.7058663
vn 0.001113 0.7083428 0.7058678
vn 0.009993 0.9999501 0
vn -0.7866257 0.5756658 0.2232239
vn -0.7866269 0.575664 -0.223224
vn -0.560186 0.8283669 0
g ToyMusketer062_0
f 3/3/3 2/2/2 1/1/1
f 4/4/4 2/2/2 3/3/3
f 7/7/7 6/6/6 5/5/5
f 8/8/8 6/6/6 7/7/7
f 8/8/8 9/9/9 6/6/6
f 10/10/10 9/9/9 8/8/8
f 10/10/10 11/11/11 9/9/9
f 12/12/12 11/11/11 10/10/10
f 15/15/15 14/14/14 13/13/13
f 16/16/16 14/14/14 15/15/15
f 16/16/16 17/17/17 14/14/14
f 14/14/14 17/17/17 18/18/18
f 19/19/19 18/18/18 17/17/17
f 20/20/20 17/17/17 16/16/16
f 20/20/20 16/16/16 21/21/21
f 22/22/22 16/16/16 15/15/15
f 15/15/15 23/23/23 22/22/22
f 24/24/24 16/16/16 22/22/22
f 24/24/24 21/21/21 16/16/16
f 25/25/25 21/21/21 24/24/24
f 26/26/26 21/21/21 25/25/25
f 27/27/27 23/23/23 15/15/15
f 27/27/27 28/28/28 23/23/23
f 29/29/29 28/28/28 27/27/27
f 32/32/32 31/31/31 30/30/30
f 33/33/33 31/31/31 32/32/32
f 33/33/33 34/34/34 31/31/31
f 35/35/35 34/34/34 33/33/33
f 35/35/35 36/36/36 34/34/34
f 37/37/37 36/36/36 35/35/35
f 40/40/40 39/39/39 38/38/38
f 41/41/41 39/39/39 40/40/40
f 41/41/41 42/42/42 39/39/39
f 43/43/43 42/42/42 41/41/41
f 42/42/42 43/43/43 44/44/44
f 44/44/44 43/43/43 45/45/45
f 48/48/48 47/47/47 46/46/46
f 49/49/49 47/47/47 48/48/48
f 50/50/50 47/47/47 49/49/49
f 51/51/51 47/47/47 50/50/50
f 52/52/52 47/47/47 51/51/51
f 55/55/55 54/54/54 53/53/53
f 56/56/56 54/54/54 55/55/55
f 57/57/57 54/54/54 56/56/56
f 58/58/58 54/54/54 57/57/57
f 59/59/59 54/54/54 58/58/58
f 62/62/62 61/61/61 60/60/60
f 60/60/60 61/61/61 63/63/63
f 60/60/60 63/63/63 64/64/64
f 64/64/64 63/63/63 65/65/65
f 65/65/65 66/66/66 64/64/64
f 67/67/67 66/66/66 65/65/65
f 68/68/68 67/67/67 65/65/65
f 69/69/69 67/67/67 68/68/68
f 67/67/67 70/70/70 66/66/66
f 66/66/66 70/70/70 71/71/71
f 72/72/72 71/71/71 70/70/70
f 73/73/73 70/70/70 67/67/67
f 73/73/73 67/67/67 74/74/74
f 69/69/69 74/74/74 67/67/67
f 75/75/75 74/74/74 69/69/69
f 76/76/76 74/74/74 75/75/75
f 79/79/79 78/78/78 77/77/77
f 77/77/77 78/78/78 80/80/80
f 77/77/77 80/80/80 81/81/81
f 81/81/81 80/80/80 82/82/82
f 81/81/81 82/82/82 83/83/83
f 83/83/83 82/82/82 84/84/84
f 84/84/84 85/85/85 83/83/83
f 86/86/86 85/85/85 84/84/84
f 86/86/86 87/87/87 85/85/85
f 88/88/88 87/87/87 86/86/86
f 88/88/88 89/89/89 87/87/87
f 90/90/90 89/89/89 88/88/88
f 93/93/93 92/92/92 91/91/91
f 94/94/94 91/91/91 92/92/92
f 95/95/95 91/91/91 94/94/94
f 96/96/96 91/91/91 95/95/95
f 97/97/97 96/96/96 95/95/95
f 98/98/98 96/96/96 97/97/97
f 101/101/101 100/100/100 99/99/99
f 102/102/102 99/99/99 100/100/100
f 103/103/103 99/99/99 102/102/102
f 104/104/104 99/99/99 103/103/103
f 105/105/105 104/104/104 103/103/103
f 106/106/106 104/104/104 105/105/105
f 109/109/109 108/108/108 107/107/107
f 110/110/110 108/108/108 109/109/109
f 111/111/111 107/107/107 108/108/108
f 112/112/112 108/108/108 110/110/110
f 108/108/108 112/112/112 111/111/111
f 113/113/113 111/111/111 112/112/112
f 112/112/112 114/114/114 113/113/113
f 111/111/111 113/113/113 115/115/115
f 116/116/116 113/113/113 114/114/114
f 115/115/115 113/113/113 116/116/116
