g ToyMusketer060
v -0.0817475 -0.07044568 -0.08376101
v 0.0817475 -0.07044568 -0.08376101
v -0.0817475 -0.07107023 -0.02436047
v 0.0817475 -0.07107023 -0.02436047
v -0.0483155 -0.3876056 -0.08709721
v -0.0483155 -0.3882303 -0.02769568
v 0.0483165 -0.3876056 -0.08709721
v 0.0483165 -0.3882303 -0.02769568
v -0.0483155 -0.3888549 0.03170488
v 0.0483165 -0.3888549 0.03170488
v -0.0817475 -0.07044568 -0.08376101
v -0.0817475 -0.3303412 -0.08649436
v 0.0817475 -0.07044568 -0.08376101
v 0.0817475 -0.3303412 -0.08649436
v -0.0483155 -0.3876056 -0.08709721
v 0.0483165 -0.3876056 -0.08709721
v 0.0817475 -0.07044568 -0.08376101
v 0.0817475 -0.3303412 -0.08649436
v 0.0817475 -0.07107023 -0.02436047
v 0.0817475 -0.3309668 -0.02709393
v 0.0483165 -0.3876056 -0.08709721
v 0.0483165 -0.3882303 -0.02769568
v 0.0817475 -0.3315913 0.0323066
v 0.0483165 -0.3888549 0.03170488
v 0.0817475 -0.0716949 0.03504108
v 0.0817475 0.003053107 0.03582704
v 0.0817475 0.003678765 -0.02357438
v 0.06837849 0.03939526 0.03620926
v 0.06837849 0.04001993 -0.02319227
v 0.0817475 -0.07107023 -0.02436047
v 0.0817475 0.003678765 -0.02357438
v -0.0817475 -0.07107023 -0.02436047
v -0.0817475 0.003678764 -0.02357438
v 0.06837849 0.04001993 -0.02319227
v -0.0683785 0.04001992 -0.02319227
v 0.0220515 0.06537116 -0.02292557
v -0.0220505 0.06537116 -0.02292557
v -0.0683785 0.04001992 -0.02319227
v -0.0220505 0.06537116 -0.02292557
v -0.0683785 0.03939526 0.03620926
v -0.0220505 0.0647465 0.03647598
v 0.0220515 0.06537116 -0.02292557
v 0.0220515 0.0647465 0.03647598
v 0.06837849 0.04001993 -0.02319227
v 0.06837849 0.03939526 0.03620926
v -0.0817475 0.003053106 0.03582704
v -0.0683785 0.04001992 -0.02319227
v -0.0683785 0.03939526 0.03620926
v -0.0817475 0.003678764 -0.02357438
v -0.0817475 -0.0716949 0.03504108
v -0.0817475 -0.07107023 -0.02436047
v -0.0817475 -0.3315913 0.0323066
v -0.0817475 -0.3309668 -0.02709393
v -0.0817475 -0.07044568 -0.08376101
v -0.0483155 -0.3888549 0.03170488
v -0.0817475 -0.3303412 -0.08649436
v -0.0483155 -0.3882303 -0.02769568
v -0.0483155 -0.3876056 -0.08709721
v 0.06837849 0.03939526 0.03620926
v -0.0220505 0.0647465 0.03647598
v 0.0220515 0.0647465 0.03647598
v -0.0683785 0.03939526 0.03620926
v 0.0817475 0.003053107 0.03582704
v -0.0817475 0.003053106 0.03582704
v 0.0817475 -0.0716949 0.03504108
v -0.0817475 -0.0716949 0.03504108
v 0.0817475 -0.3315913 0.0323066
v -0.0817475 -0.3315913 0.0323066
v 0.0483165 -0.3888549 0.03170488
v -0.0483155 -0.3888549 0.03170488
vt 0.786578 0.086542
vt 0.786578 0.029243
vt 0.765758 0.086542
vt 0.765758 0.029243
vt 0.788969 0.627291
vt 0.768257 0.627291
vt 0.788969 0.661157
vt 0.768257 0.661157
vt 0.747548 0.627291
vt 0.747548 0.661157
vt 0.438632 0.191753
vt 0.438632 0.101141
vt 0.381332 0.191753
vt 0.381332 0.101141
vt 0.426914 0.081176
vt 0.393048 0.081176
vt 0.200555 0.529643
vt 0.109945 0.520337
vt 0.202682 0.508933
vt 0.112069 0.499627
vt 0.089978 0.518287
vt 0.092105 0.497577
vt 0.114198 0.478917
vt 0.094232 0.476867
vt 0.204809 0.488223
vt 0.230871 0.490899
vt 0.228745 0.51161
vt 0.243541 0.4922
vt 0.241415 0.512911
vt 0.367169 0.024809
vt 0.367169 0.05087
vt 0.424468 0.024809
vt 0.424468 0.05087
vt 0.371855 0.06354
vt 0.419783 0.06354
vt 0.38809 0.072379
vt 0.403546 0.072379
vt 0.950784 0.653064
vt 0.949877 0.636827
vt 0.971495 0.653064
vt 0.970586 0.636827
vt 0.949877 0.621371
vt 0.970586 0.621371
vt 0.950784 0.605135
vt 0.971495 0.605135
vt 0.262488 0.475145
vt 0.251945 0.453133
vt 0.249818 0.473843
vt 0.264615 0.454434
vt 0.288549 0.477821
vt 0.290676 0.457111
vt 0.379162 0.487127
vt 0.381288 0.466417
vt 0.292805 0.436401
vt 0.399128 0.489177
vt 0.383415 0.445707
vt 0.401255 0.468467
vt 0.403381 0.447757
vt 0.978212 0.726317
vt 0.946518 0.717478
vt 0.961976 0.717478
vt 0.930283 0.726317
vt 0.982897 0.738987
vt 0.925598 0.738987
vt 0.982897 0.765048
vt 0.925598 0.765048
vt 0.982897 0.855661
vt 0.925598 0.855661
vt 0.971181 0.875626
vt 0.937313 0.875626
vn -0.57735 0.5833892 -0.5712479
vn 0.57735 0.5833892 -0.5712479
vn -0.9045339 0.3046649 -0.298325
vn 0.9045339 0.3046649 -0.298325
vn -0.3944171 -0.6805025 -0.6175366
vn -0.497912 -0.8671797 -0.009119193
vn 0.3944199 -0.6805012 -0.6175362
vn 0.497917 -0.8671767 -0.009118856
vn -0.3944141 -0.6933407 0.603089
vn 0.394419 -0.6933385 0.6030881
vn -0.57735 0.5833892 -0.5712479
vn -0.7312613 -0.1909498 -0.6548245
vn 0.57735 0.5833892 -0.5712479
vn 0.7312611 -0.1909434 -0.6548266
vn -0.3944171 -0.6805025 -0.6175366
vn 0.3944199 -0.6805012 -0.6175362
vn 0.57735 0.5833892 -0.5712479
vn 0.7312611 -0.1909434 -0.6548266
vn 0.9045339 0.3046649 -0.298325
vn 0.9653009 -0.2611258 -0.002746985
vn 0.3944199 -0.6805012 -0.6175362
vn 0.497917 -0.8671767 -0.009118856
vn 0.7312621 -0.2046795 0.6506627
vn 0.394419 -0.6933385 0.6030881
vn 0.7071059 -0.00743707 0.7070684
vn 0.731136 0.123157 0.6710235
vn 0.731137 0.1372459 -0.668283
vn 0.5846078 0.4970686 0.641215
vn 0.5846059 0.5104446 -0.6306205
vn 0.9045339 0.3046649 -0.298325
vn 0.731137 0.1372459 -0.668283
vn -0.9045339 0.3046649 -0.298325
vn -0.7311379 0.1372468 -0.6682819
vn 0.5846059 0.5104446 -0.6306205
vn -0.584605 0.5104474 -0.6306191
vn 0.1871361 0.7386187 -0.6476284
vn -0.187133 0.7386187 -0.6476293
vn -0.584605 0.5104474 -0.6306191
vn -0.187133 0.7386187 -0.6476293
vn -0.5846072 0.4970711 0.6412136
vn -0.187133 0.7248328 0.6630223
vn 0.1871361 0.7386187 -0.6476284
vn 0.187136 0.724833 0.6630213
vn 0.5846059 0.5104446 -0.6306205
vn 0.5846078 0.4970686 0.641215
vn -0.7311363 0.1231582 0.671023
vn -0.584605 0.5104474 -0.6306191
vn -0.5846072 0.4970711 0.6412136
vn -0.7311379 0.1372468 -0.6682819
vn -0.7071059 -0.007437077 0.7070684
vn -0.9045339 0.3046649 -0.298325
vn -0.7312617 -0.2046844 0.6506618
vn -0.965299 -0.2611328 -0.002747774
vn -0.57735 0.5833892 -0.5712479
vn -0.3944141 -0.6933407 0.603089
vn -0.7312613 -0.1909498 -0.6548245
vn -0.497912 -0.8671797 -0.009119193
vn -0.3944171 -0.6805025 -0.6175366
vn 0.5846078 0.4970686 0.641215
vn -0.187133 0.7248328 0.6630223
vn 0.187136 0.724833 0.6630213
vn -0.5846072 0.4970711 0.6412136
vn 0.731136 0.123157 0.6710235
vn -0.7311363 0.1231582 0.671023
vn 0.7071059 -0.00743707 0.7070684
vn -0.7071059 -0.007437077 0.7070684
vn 0.7312621 -0.2046795 0.6506627
vn -0.7312617 -0.2046844 0.6506618
vn 0.394419 -0.6933385 0.6030881
vn -0.3944141 -0.6933407 0.603089
g ToyMusketer060_0
f 3/3/3 2/2/2 1/1/1
f 4/4/4 2/2/2 3/3/3
f 7/7/7 6/6/6 5/5/5
f 8/8/8 6/6/6 7/7/7
f 8/8/8 9/9/9 6/6/6
f 10/10/10 9/9/9 8/8/8
f 13/13/13 12/12/12 11/11/11
f 14/14/14 12/12/12 13/13/13
f 14/14/14 15/15/15 12/12/12
f 16/16/16 15/15/15 14/14/14
f 19/19/19 18/18/18 17/17/17
f 20/20/20 18/18/18 19/19/19
f 20/20/20 21/21/21 18/18/18
f 22/22/22 21/21/21 20/20/20
f 23/23/23 22/22/22 20/20/20
f 24/24/24 22/22/22 23/23/23
f 23/23/23 20/20/20 25/25/25
f 25/25/25 20/20/20 19/19/19
f 19/19/19 26/26/26 25/25/25
f 27/27/27 26/26/26 19/19/19
f 27/27/27 28/28/28 26/26/26
f 29/29/29 28/28/28 27/27/27
f 32/32/32 31/31/31 30/30/30
f 33/33/33 31/31/31 32/32/32
f 33/33/33 34/34/34 31/31/31
f 35/35/35 34/34/34 33/33/33
f 35/35/35 36/36/36 34/34/34
f 37/37/37 36/36/36 35/35/35
f 40/40/40 39/39/39 38/38/38
f 41/41/41 39/39/39 40/40/40
f 41/41/41 42/42/42 39/39/39
f 43/43/43 42/42/42 41/41/41
f 42/42/42 43/43/43 44/44/44
f 44/44/44 43/43/43 45/45/45
f 48/48/48 47/47/47 46/46/46
f 46/46/46 47/47/47 49/49/49
f 46/46/46 49/49/49 50/50/50
f 50/50/50 49/49/49 51/51/51
f 51/51/51 52/52/52 50/50/50
f 53/53/53 52/52/52 51/51/51
f 54/54/54 53/53/53 51/51/51
f 53/53/53 55/55/55 52/52/52
f 56/56/56 53/53/53 54/54/54
f 57/57/57 55/55/55 53/53/53
f 56/56/56 57/57/57 53/53/53
f 58/58/58 57/57/57 56/56/56
f 61/61/61 60/60/60 59/59/59
f 59/59/59 60/60/60 62/62/62
f 59/59/59 62/62/62 63/63/63
f 63/63/63 62/62/62 64/64/64
f 63/63/63 64/64/64 65/65/65
f 65/65/65 64/64/64 66/66/66
f 66/66/66 67/67/67 65/65/65
f 68/68/68 67/67/67 66/66/66
f 68/68/68 69/69/69 67/67/67
f 70/70/70 69/69/69 68/68/68
