g Toys_4_robot1_arm_R_forearm
v 0.006102769 -0.006500464 0.008060072
v 0.003283206 -0.006457369 0.008045124
v 0.005979741 -0.001743129 0.01011473
v 0.005831 -0.01021788 0.002037897
v -0.00556475 -0.01023663 0.001948703
v 0.006001863 -0.009076431 -0.005104595
v -0.003012493 -0.006446466 0.008053771
v -0.005507311 -0.006534119 0.008118001
v -0.005800522 -0.002680791 0.009840606
v -0.005331695 -0.009143503 -0.004994145
v 0.005625889 -0.003742079 -0.009725621
v -0.005837003 -0.003709936 -0.009629396
v 0.006052997 0.003512177 -0.009801249
v -0.005505174 0.003430485 -0.009841021
v 0.005881748 0.008765688 -0.00530593
v -0.005731049 0.008972117 -0.0052817
v 0.003095464 0.011112 0.00154523
v 0.005963346 0.01019913 0.001341745
v 0.005872044 0.007089489 0.007846486
v -0.003042956 0.01112126 0.001479544
v -0.005817014 0.01000119 0.001313758
v -0.005752977 0.006875259 0.007831165
v -0.003407871 0.007562349 0.0453379
v 0.003338512 0.007562348 0.0453379
v -0.006069477 0.003825484 0.04520877
v 0.006000116 0.003825482 0.04520877
v -0.006069478 -0.001797664 0.04501482
v -0.005800522 -0.002680791 0.009840606
v 0.005979741 -0.001743129 0.01011473
v 0.006000116 -0.001797666 0.04501482
v 0.00333851 -0.005534392 0.0448861
v 0.003283206 -0.006457369 0.008045124
v -0.00325234 -0.005515604 0.04451337
v -0.003012493 -0.006446466 0.008053771
v 0.003283206 -0.006457369 0.008045124
v 0.00333851 -0.005534392 0.0448861
v -0.003407871 0.007562349 0.0453379
v -0.006069478 -0.001797664 0.04501482
v -0.006069477 0.003825484 0.04520877
v -0.00325234 -0.005515604 0.04451337
v 0.003338512 0.007562348 0.0453379
v 0.00333851 -0.005534392 0.0448861
v 0.006000116 0.003825482 0.04520877
v 0.006000116 -0.001797666 0.04501482
v 0.007523612 0.01048373 0.08397597
v -0.007593167 0.01048373 0.08397597
v -0.009134125 0.01936672 0.07316142
v 0.009064671 0.01936672 0.07316142
v -0.009788174 0.02069975 0.06606444
v 0.009718624 0.02069974 0.06606444
v -0.01037984 0.01962881 0.05874509
v 0.01031038 0.01962881 0.05874509
v 0.01061592 0.01620824 0.0521317
v -0.01068537 0.01620824 0.0521317
v 0.01068277 0.01067691 0.04691499
v -0.01075222 0.01067691 0.04691499
v 0.01046232 0.002016162 0.04377265
v -0.0105376 0.002017028 0.04376732
v 0.01058787 -0.007199034 0.04385368
v -0.01065772 -0.00719903 0.04385368
v 0.0103456 -0.01415105 0.04693304
v -0.01041506 -0.01415105 0.04693304
v 0.00992276 -0.0195769 0.05203114
v -0.009992224 -0.01957689 0.05203114
v 0.009386305 -0.02302245 0.05857703
v -0.009455868 -0.02302245 0.05857703
v 0.008865956 -0.02412667 0.06571323
v -0.008935714 -0.02412667 0.06571323
v -0.007569884 -0.01810167 0.07923392
v 0.007500127 -0.01810167 0.07923392
v -0.007569884 -0.01810167 0.07923392
v -0.00918565 -0.01657618 0.06621115
v -0.007579101 -0.01353772 0.07953477
v -0.008935714 -0.02412667 0.06571323
v -0.009568125 -0.01581099 0.06095488
v -0.009455868 -0.02302245 0.05857703
v -0.009922268 -0.01353236 0.05662602
v -0.009992224 -0.01957689 0.05203114
v -0.01022246 -0.009947057 0.05325715
v -0.01041506 -0.01415105 0.04693304
v -0.01043311 -0.005340291 0.051217
v -0.01065772 -0.00719903 0.04385368
v -0.0105376 0.002017028 0.04376732
v -0.01037984 0.0008012878 0.05086589
v -0.01053207 0.006474459 0.05324005
v -0.01075222 0.01067691 0.04691499
v -0.0104071 0.01013989 0.05669702
v -0.01068537 0.01620824 0.0521317
v -0.01016298 0.01239977 0.06106685
v -0.01037984 0.01962881 0.05874509
v -0.009788174 0.02069975 0.06606444
v -0.009812917 0.01310818 0.06590731
v -0.009134125 0.01936672 0.07316142
v -0.009395124 0.01208091 0.07111835
v -0.007593167 0.01048373 0.08397597
v -0.007645464 0.006079826 0.08274103
v -0.007579101 -0.01353772 0.07953477
v 0.007500127 -0.01810167 0.07923392
v -0.007569884 -0.01810167 0.07923392
v 0.007509249 -0.01353772 0.07953477
v -0.00918565 -0.01657618 0.06621115
v 0.009116187 -0.01657618 0.06621115
v 0.00949837 -0.01581099 0.06095488
v -0.009568125 -0.01581099 0.06095488
v 0.009852514 -0.01353236 0.05662602
v -0.009922268 -0.01353236 0.05662602
v 0.010153 -0.00994706 0.05325715
v -0.01022246 -0.009947057 0.05325715
v 0.01036365 -0.005340295 0.051217
v -0.01043311 -0.005340291 0.051217
v 0.0102836 0.000806158 0.05083901
v -0.01037984 0.0008012878 0.05086589
v 0.01046261 0.006474456 0.05324005
v -0.01053207 0.006474459 0.05324005
v 0.01033765 0.01013988 0.05669702
v -0.0104071 0.01013989 0.05669702
v 0.01009324 0.01239977 0.06106686
v -0.01016298 0.01239977 0.06106685
v -0.009812917 0.01310818 0.06590731
v 0.00974317 0.01310817 0.06590731
v -0.009395124 0.01208091 0.07111835
v 0.009325668 0.01208091 0.07111835
v -0.007645464 0.006079826 0.08274103
v 0.007576005 0.006079824 0.08274103
v -0.007593167 0.01048373 0.08397597
v 0.007523612 0.01048373 0.08397597
v 0.007523612 0.01048373 0.08397597
v 0.009325668 0.01208091 0.07111835
v 0.007576005 0.006079824 0.08274103
v 0.009064671 0.01936672 0.07316142
v 0.00974317 0.01310817 0.06590731
v 0.009718624 0.02069974 0.06606444
v 0.01031038 0.01962881 0.05874509
v 0.01009324 0.01239977 0.06106686
v 0.01061592 0.01620824 0.0521317
v 0.01033765 0.01013988 0.05669702
v 0.01046261 0.006474456 0.05324005
v 0.01068277 0.01067691 0.04691499
v 0.01046232 0.002016162 0.04377265
v 0.0102836 0.000806158 0.05083901
v 0.01036365 -0.005340295 0.051217
v 0.01058787 -0.007199034 0.04385368
v 0.010153 -0.00994706 0.05325715
v 0.0103456 -0.01415105 0.04693304
v 0.009852514 -0.01353236 0.05662602
v 0.00992276 -0.0195769 0.05203114
v 0.00949837 -0.01581099 0.06095488
v 0.009386305 -0.02302245 0.05857703
v 0.008865956 -0.02412667 0.06571323
v 0.009116187 -0.01657618 0.06621115
v 0.007500127 -0.01810167 0.07923392
v 0.007509249 -0.01353772 0.07953477
v -0.005507311 -0.006534119 0.008118001
v -0.0058534 6.010772E-08 -1.264849E-08
v -0.005800522 -0.002680791 0.009840606
v -0.00556475 -0.01023663 0.001948703
v -0.005752977 0.006875259 0.007831165
v -0.005331695 -0.009143503 -0.004994145
v -0.005817014 0.01000119 0.001313758
v -0.005837003 -0.003709936 -0.009629396
v -0.005731049 0.008972117 -0.0052817
v -0.005505174 0.003430485 -0.009841021
v 0.005979741 -0.001743129 0.01011473
v 0.006196982 5.829578E-08 -1.228936E-08
v 0.006102769 -0.006500464 0.008060072
v 0.005872044 0.007089489 0.007846486
v 0.005831 -0.01021788 0.002037897
v 0.005963346 0.01019913 0.001341745
v 0.006001863 -0.009076431 -0.005104595
v 0.005881748 0.008765688 -0.00530593
v 0.005625889 -0.003742079 -0.009725621
v 0.006052997 0.003512177 -0.009801249
vt 0.912718 0.725377
vt 0.912615 0.723495
vt 0.909254 0.725444
vt 0.917433 0.724951
vt 0.917097 0.717341
vt 0.922266 0.724815
vt 0.912389 0.719293
vt 0.912297 0.717626
vt 0.909469 0.717647
vt 0.921796 0.717254
vt 0.926966 0.724322
vt 0.926546 0.716672
vt 0.931823 0.724329
vt 0.931325 0.716619
vt 0.936432 0.723953
vt 0.936105 0.716196
vt 0.941176 0.721856
vt 0.940977 0.723862
vt 0.94574 0.724604
vt 0.940923 0.717767
vt 0.940553 0.7158
vt 0.945193 0.714438
vt 0.970272 0.715922
vt 0.970512 0.720434
vt 0.970209 0.71285
vt 0.970784 0.723495
vt 0.970143 0.709083
vt 0.946646 0.708083
vt 0.948013 0.730251
vt 0.971144 0.727241
vt 0.971457 0.730295
vt 0.94711 0.734029
vt 0.969863 0.705957
vt 0.945506 0.704933
vt 0.945648 0.700728
vt 0.970266 0.701563
vt 0.219603 0.760994
vt 0.221391 0.767251
vt 0.221386 0.763491
vt 0.219498 0.769752
vt 0.215094 0.760993
vt 0.215086 0.769752
vt 0.213313 0.763491
vt 0.21331 0.767252
vt 0.920221 0.728544
vt 0.910102 0.728543
vt 0.909079 0.737897
vt 0.921243 0.737898
vt 0.908634 0.742724
vt 0.921663 0.742725
vt 0.908241 0.747668
vt 0.922082 0.747669
vt 0.922265 0.752646
vt 0.908031 0.752645
vt 0.922318 0.757728
vt 0.907978 0.757727
vt 0.922161 0.763886
vt 0.908136 0.763886
vt 0.922265 0.770046
vt 0.908057 0.770046
vt 0.922082 0.775128
vt 0.908214 0.775128
vt 0.92182 0.780104
vt 0.908503 0.780105
vt 0.921453 0.785048
vt 0.90887 0.785049
vt 0.921112 0.789875
vt 0.90921 0.789876
vt 0.910128 0.79977
vt 0.920195 0.799769
vt 0.599605 0.027616
vt 0.599212 0.036437
vt 0.602646 0.027912
vt 0.594178 0.035928
vt 0.599133 0.039996
vt 0.594126 0.040767
vt 0.600155 0.043108
vt 0.595673 0.045474
vt 0.602148 0.04573
vt 0.598687 0.04944
vt 0.604979 0.047585
vt 0.602934 0.052238
vt 0.609016 0.053305
vt 0.60899 0.04849
vt 0.613001 0.047551
vt 0.615072 0.052184
vt 0.615779 0.045672
vt 0.619292 0.049352
vt 0.617745 0.043034
vt 0.622254 0.045362
vt 0.623775 0.040637
vt 0.618742 0.039911
vt 0.62367 0.035792
vt 0.618637 0.036352
vt 0.619004 0.027616
vt 0.615989 0.027945
vt 0.943531 0.673395
vt 0.933464 0.676458
vt 0.943531 0.676452
vt 0.933464 0.673401
vt 0.944605 0.66426
vt 0.932363 0.664267
vt 0.932127 0.660717
vt 0.944868 0.660709
vt 0.931865 0.657447
vt 0.945103 0.657439
vt 0.931681 0.654159
vt 0.945287 0.654151
vt 0.931524 0.650792
vt 0.945444 0.650783
vt 0.931577 0.646676
vt 0.945392 0.646671
vt 0.931472 0.642561
vt 0.945497 0.642561
vt 0.93155 0.639193
vt 0.945418 0.639193
vt 0.931708 0.635905
vt 0.945261 0.635905
vt 0.945025 0.632635
vt 0.931944 0.632635
vt 0.944736 0.629085
vt 0.932232 0.629085
vt 0.943557 0.620342
vt 0.933385 0.620342
vt 0.943531 0.617285
vt 0.933438 0.617285
vt 0.259468 0.026767
vt 0.259877 0.035523
vt 0.262509 0.027082
vt 0.254845 0.034973
vt 0.259788 0.039062
vt 0.254768 0.039822
vt 0.2563 0.044541
vt 0.260801 0.042182
vt 0.259299 0.048526
vt 0.262782 0.044829
vt 0.265587 0.046691
vt 0.263532 0.051331
vt 0.269595 0.052405
vt 0.269595 0.047634
vt 0.273602 0.046691
vt 0.275658 0.051331
vt 0.276408 0.044803
vt 0.279891 0.048499
vt 0.278391 0.042182
vt 0.282892 0.044541
vt 0.279406 0.039062
vt 0.284426 0.039822
vt 0.284352 0.034973
vt 0.279319 0.035497
vt 0.278871 0.026689
vt 0.27583 0.027003
vt 0.210996 0.578286
vt 0.215408 0.572889
vt 0.209338 0.575996
vt 0.21554 0.579858
vt 0.209338 0.56947
vt 0.219935 0.578193
vt 0.21317 0.566529
vt 0.222218 0.573989
vt 0.217625 0.566291
vt 0.221374 0.569285
vt 0.018344 0.534283
vt 0.024606 0.537091
vt 0.020466 0.531545
vt 0.018344 0.540379
vt 0.024984 0.530132
vt 0.022039 0.543473
vt 0.029419 0.532061
vt 0.026581 0.543653
vt 0.031535 0.536283
vt 0.030366 0.540998
vn -0.01400312 -0.6537595 0.7565728
vn -0.008608133 -0.7583984 0.6517345
vn -0.01092909 -0.3967086 0.9178796
vn -0.001636153 -0.9794896 0.2014882
vn 0.006212845 -0.9801356 0.198231
vn -4.811707E-05 -0.8746045 -0.4848371
vn 0.02241887 -0.7697669 0.6379312
vn 0.04248185 -0.6586522 0.7512473
vn 0.03775891 -0.4054321 0.913345
vn -0.001215117 -0.8724756 -0.4886563
vn -0.007238028 -0.3522764 -0.935868
vn -0.004688026 -0.3541365 -0.935182
vn -0.003232921 0.344189 -0.9388949
vn 0.004995077 0.3233132 -0.9462789
vn 0.04419714 0.8317379 -0.5534064
vn -0.03967288 0.8386622 -0.5432051
vn 0.1933251 0.9805421 -0.0340992
vn 0.308362 0.9455603 0.1040608
vn 0.867175 0.4929711 0.07061876
vn -0.2172878 0.9757351 -0.02696498
vn -0.3778968 0.916035 0.1344389
vn -0.887593 0.4563847 0.06238294
vn -0.465448 0.8824772 0.06776524
vn 0.4632623 0.8833026 0.07186536
vn -0.9552795 0.2952713 0.01600357
vn 0.9551734 0.2950878 0.023811
vn -0.9543523 -0.2986831 -0.000171598
vn -0.9434897 -0.3313973 0.001681448
vn 0.9642976 -0.2647845 0.004406111
vn 0.9543456 -0.2987029 -0.001023523
vn 0.819728 -0.572753 -0.0001829235
vn 0.8658423 -0.5001909 0.01123149
vn -0.457454 -0.8890327 0.0188903
vn -0.383765 -0.9231909 0.02104603
vn -0.001989152 -0.9996738 0.02545917
vn -0.00426615 -0.9996771 0.02505172
vn 0.01266397 -0.0583301 0.9982169
vn 0.08508293 -0.05852703 0.9946535
vn -9.103498E-05 -0.03447096 0.9994056
vn -0.0007400368 -0.04842737 0.9988264
vn -0.01202904 -0.04883134 0.9987347
vn -0.04054201 -0.03444717 0.9985839
vn 8.096499E-05 -0.03447591 0.9994055
vn 6.296505E-05 -0.03447096 0.9994056
vn 0 0.77274 0.6347227
vn 0 0.77274 0.6347227
vn 1.25123E-07 0.9129928 0.4079758
vn 1.251229E-07 0.9129924 0.4079767
vn 1.500239E-07 0.9999382 0.01111638
vn 1.500239E-07 0.9999382 0.01111638
vn 1.521469E-07 0.9499153 -0.3125075
vn 1.521469E-07 0.9499153 -0.3125075
vn 1.378245E-07 0.796856 -0.6041692
vn 1.378245E-07 0.796856 -0.6041692
vn 1.043494E-07 0.5253276 -0.8509001
vn 9.410435E-05 0.5254723 -0.8508107
vn 0.0001610549 0.1694692 -0.9855355
vn 0.0001620548 0.1694683 -0.9855356
vn 9.599753E-05 -0.2101608 -0.9776668
vn 0 -0.2103283 -0.9776308
vn 0 -0.5486757 -0.8360353
vn 0 -0.5486727 -0.8360372
vn -1.008097E-07 -0.7915555 -0.6110973
vn -1.008097E-07 -0.7915555 -0.6110973
vn -1.328477E-07 -0.9471095 -0.3209106
vn -1.328478E-07 -0.9471101 -0.3209087
vn -1.528199E-07 -0.9931191 0.1171082
vn -1.528199E-07 -0.9931189 0.1171104
vn -1.494756E-07 -0.9134151 0.4070292
vn -1.494756E-07 -0.9134151 0.4070292
vn -0.9924855 -0.01799597 0.1210322
vn -0.9948584 -0.03619102 0.09458894
vn -0.9924838 -0.01004444 0.1219637
vn -0.9952924 -0.03885529 0.08878758
vn -0.9972199 -0.0368273 0.06477898
vn -0.9972202 -0.03685265 0.06476089
vn -0.9976762 -0.03356269 0.05929452
vn -0.9977807 -0.03334221 0.05763663
vn -0.9983576 -0.02775909 0.05011438
vn -0.9986463 -0.02583625 0.04514394
vn -0.9994287 -0.004964778 0.03343147
vn -0.999503 -0.003374757 0.03134148
vn -0.9997382 -0.009920653 0.02062131
vn -0.9997261 -0.01182816 0.0201932
vn -0.9995586 -0.01551851 0.02532908
vn -0.9994699 -0.02094491 0.02492588
vn -0.9989236 -0.006216666 0.04596579
vn -0.9989103 -0.01464859 0.04431235
vn -0.9978264 -0.004396225 0.06575073
vn -0.9977186 -0.008414651 0.06698482
vn -0.9963927 -0.0002079117 0.08486231
vn -0.9968272 0.004475019 0.07946928
vn -0.9938939 0.001781121 0.1103252
vn -0.9938084 0.002022942 0.1110883
vn -0.9904628 -0.01976645 0.1363547
vn -0.9904235 -0.02624856 0.135544
vn 1.008396E-07 0.7917139 0.6108921
vn 0 -0.06577872 0.9978343
vn 0 -0.06577872 0.9978343
vn 1.008399E-07 0.7917152 0.6108904
vn 1.511513E-07 0.9995953 -0.02844631
vn 1.511514E-07 0.9995953 -0.02844765
vn 1.331734E-07 0.9484726 0.3168594
vn 1.331732E-07 0.9484716 0.3168624
vn 1.007859E-07 0.7914296 0.6112602
vn 1.007863E-07 0.7914315 0.6112578
vn 0 0.5480119 0.8364705
vn 0 0.5480145 0.8364688
vn 0 0.2352598 0.9719325
vn 0.0005380064 0.2332842 0.9724085
vn 0.0007859448 -0.1703923 0.9853759
vn 0.0007759447 -0.1703493 0.9853835
vn 0.0005328928 -0.5465743 0.8374105
vn -1.069192E-07 -0.5448717 0.8385195
vn -1.377363E-07 -0.7960625 0.6052144
vn -1.377365E-07 -0.7960644 0.6052119
vn -1.521475E-07 -0.9499253 0.3124772
vn -1.521476E-07 -0.9499261 0.3124745
vn -1.498539E-07 -0.9998647 -0.01644785
vn -1.498538E-07 -0.9998647 -0.01645146
vn -1.329075E-07 -0.9473605 -0.3201688
vn -1.329074E-07 -0.9473599 -0.3201707
vn -1.5132E-07 -0.9372509 0.3486558
vn -1.513201E-07 -0.9372536 0.3486485
vn 0 -0.2700074 0.9628583
vn 0 -0.2700081 0.962858
vn 0.9904619 -0.0197534 0.1363636
vn 0.9938108 0.002030176 0.1110674
vn 0.9904227 -0.0262293 0.1355542
vn 0.9938956 0.001775426 0.1103106
vn 0.9966429 0.002332116 0.08183842
vn 0.9962781 0.001437686 0.08618564
vn 0.9978426 -0.007228663 0.06525421
vn 0.9979187 -0.007142963 0.06408773
vn 0.9989605 -0.01051 0.0443556
vn 0.9986166 -0.006541676 0.05217427
vn 0.999388 -0.02298174 0.02637132
vn 0.9995586 -0.02148126 0.02051841
vn 0.9997116 -0.01013197 0.02177085
vn 0.9996554 -0.01233737 0.02317071
vn 0.9994453 -0.007279531 0.03249829
vn 0.9994256 -0.004122178 0.03363758
vn 0.9985286 -0.02831361 0.04624838
vn 0.9986168 -0.02346367 0.04705204
vn 0.9977683 -0.03359993 0.05770056
vn 0.9978168 -0.03224738 0.05763388
vn 0.997218 -0.03680236 0.06482133
vn 0.9972174 -0.0368623 0.06479716
vn 0.9952914 -0.03887421 0.08879188
vn 0.994859 -0.03622335 0.09457046
vn 0.9924828 -0.01799177 0.1210544
vn 0.992481 -0.01002513 0.1219878
vn -0.9988563 -0.04762405 0.004251475
vn -0.9999001 -0.01312578 -0.005249257
vn -0.9993219 -0.03653396 -0.004583097
vn -0.9995277 -0.02969192 -0.007917852
vn -0.9999496 0.004236743 0.00910397
vn -0.9985632 -0.05312084 -0.007055812
vn -0.9999912 0.003855107 -0.001653009
vn -0.9999163 -0.01254962 0.003132808
vn -0.9996513 -0.001874331 -0.02634134
vn -0.9994125 0.01826666 -0.02899655
vn 0.9995608 0.01685994 0.02437349
vn 0.9999859 -0.0005134009 -0.005294994
vn 0.9999311 -0.01148552 0.002425267
vn 0.9995265 0.0191895 0.02405454
vn 0.9993529 -0.03596127 -0.0008354695
vn 0.9997422 0.0224899 0.003128138
vn 0.9997002 -0.00859596 -0.0229276
vn 0.9995029 0.02991233 -0.009965911
vn 0.9984982 -0.02207385 -0.05013921
vn 0.9997383 -0.0124943 -0.01916347
g Toys_4_robot1_arm_R_forearm_0
f 3/3/3 2/2/2 1/1/1
f 1/1/1 2/2/2 4/4/4
f 4/4/4 2/2/2 5/5/5
f 4/4/4 5/5/5 6/6/6
f 2/2/2 7/7/7 5/5/5
f 8/8/8 5/5/5 7/7/7
f 7/7/7 9/9/9 8/8/8
f 5/5/5 10/10/10 6/6/6
f 6/6/6 10/10/10 11/11/11
f 10/10/10 12/12/12 11/11/11
f 11/11/11 12/12/12 13/13/13
f 12/12/12 14/14/14 13/13/13
f 13/13/13 14/14/14 15/15/15
f 14/14/14 16/16/16 15/15/15
f 17/17/17 15/15/15 16/16/16
f 18/18/18 15/15/15 17/17/17
f 19/19/19 18/18/18 17/17/17
f 20/20/20 17/17/17 16/16/16
f 21/21/21 20/20/20 16/16/16
f 21/21/21 22/22/22 20/20/20
f 20/20/20 23/23/23 17/17/17
f 23/23/23 20/20/20 22/22/22
f 23/23/23 24/24/24 17/17/17
f 19/19/19 17/17/17 24/24/24
f 25/25/25 23/23/23 22/22/22
f 26/26/26 19/19/19 24/24/24
f 27/27/27 25/25/25 22/22/22
f 28/28/28 27/27/27 22/22/22
f 29/29/29 19/19/19 26/26/26
f 30/30/30 29/29/29 26/26/26
f 30/30/30 31/31/31 29/29/29
f 31/31/31 32/32/32 29/29/29
f 33/33/33 27/27/27 28/28/28
f 34/34/34 33/33/33 28/28/28
f 33/33/33 34/34/34 35/35/35
f 36/36/36 33/33/33 35/35/35
f 39/39/39 38/38/38 37/37/37
f 38/38/38 40/40/40 37/37/37
f 37/37/37 40/40/40 41/41/41
f 40/40/40 42/42/42 41/41/41
f 43/43/43 41/41/41 42/42/42
f 44/44/44 43/43/43 42/42/42
f 47/47/47 46/46/46 45/45/45
f 48/48/48 47/47/47 45/45/45
f 49/49/49 47/47/47 48/48/48
f 50/50/50 49/49/49 48/48/48
f 51/51/51 49/49/49 50/50/50
f 52/52/52 51/51/51 50/50/50
f 51/51/51 52/52/52 53/53/53
f 54/54/54 51/51/51 53/53/53
f 54/54/54 53/53/53 55/55/55
f 56/56/56 54/54/54 55/55/55
f 56/56/56 55/55/55 57/57/57
f 58/58/58 56/56/56 57/57/57
f 58/58/58 57/57/57 59/59/59
f 60/60/60 58/58/58 59/59/59
f 60/60/60 59/59/59 61/61/61
f 62/62/62 60/60/60 61/61/61
f 62/62/62 61/61/61 63/63/63
f 64/64/64 62/62/62 63/63/63
f 64/64/64 63/63/63 65/65/65
f 66/66/66 64/64/64 65/65/65
f 66/66/66 65/65/65 67/67/67
f 68/68/68 66/66/66 67/67/67
f 68/68/68 67/67/67 69/69/69
f 67/67/67 70/70/70 69/69/69
f 73/73/73 72/72/72 71/71/71
f 72/72/72 74/74/74 71/71/71
f 72/72/72 75/75/75 74/74/74
f 75/75/75 76/76/76 74/74/74
f 75/75/75 77/77/77 76/76/76
f 77/77/77 78/78/78 76/76/76
f 77/77/77 79/79/79 78/78/78
f 79/79/79 80/80/80 78/78/78
f 79/79/79 81/81/81 80/80/80
f 81/81/81 82/82/82 80/80/80
f 82/82/82 81/81/81 83/83/83
f 81/81/81 84/84/84 83/83/83
f 84/84/84 85/85/85 83/83/83
f 85/85/85 86/86/86 83/83/83
f 85/85/85 87/87/87 86/86/86
f 87/87/87 88/88/88 86/86/86
f 87/87/87 89/89/89 88/88/88
f 89/89/89 90/90/90 88/88/88
f 90/90/90 89/89/89 91/91/91
f 89/89/89 92/92/92 91/91/91
f 91/91/91 92/92/92 93/93/93
f 92/92/92 94/94/94 93/93/93
f 93/93/93 94/94/94 95/95/95
f 94/94/94 96/96/96 95/95/95
f 99/99/99 98/98/98 97/97/97
f 98/98/98 100/100/100 97/97/97
f 101/101/101 97/97/97 100/100/100
f 102/102/102 101/101/101 100/100/100
f 102/102/102 103/103/103 101/101/101
f 103/103/103 104/104/104 101/101/101
f 103/103/103 105/105/105 104/104/104
f 105/105/105 106/106/106 104/104/104
f 105/105/105 107/107/107 106/106/106
f 107/107/107 108/108/108 106/106/106
f 107/107/107 109/109/109 108/108/108
f 109/109/109 110/110/110 108/108/108
f 109/109/109 111/111/111 110/110/110
f 111/111/111 112/112/112 110/110/110
f 111/111/111 113/113/113 112/112/112
f 113/113/113 114/114/114 112/112/112
f 113/113/113 115/115/115 114/114/114
f 115/115/115 116/116/116 114/114/114
f 115/115/115 117/117/117 116/116/116
f 117/117/117 118/118/118 116/116/116
f 118/118/118 117/117/117 119/119/119
f 117/117/117 120/120/120 119/119/119
f 119/119/119 120/120/120 121/121/121
f 120/120/120 122/122/122 121/121/121
f 121/121/121 122/122/122 123/123/123
f 122/122/122 124/124/124 123/123/123
f 123/123/123 124/124/124 125/125/125
f 124/124/124 126/126/126 125/125/125
f 129/129/129 128/128/128 127/127/127
f 128/128/128 130/130/130 127/127/127
f 128/128/128 131/131/131 130/130/130
f 131/131/131 132/132/132 130/130/130
f 133/133/133 132/132/132 131/131/131
f 134/134/134 133/133/133 131/131/131
f 135/135/135 133/133/133 134/134/134
f 136/136/136 135/135/135 134/134/134
f 135/135/135 136/136/136 137/137/137
f 138/138/138 135/135/135 137/137/137
f 139/139/139 138/138/138 137/137/137
f 140/140/140 139/139/139 137/137/137
f 139/139/139 140/140/140 141/141/141
f 142/142/142 139/139/139 141/141/141
f 142/142/142 141/141/141 143/143/143
f 144/144/144 142/142/142 143/143/143
f 144/144/144 143/143/143 145/145/145
f 146/146/146 144/144/144 145/145/145
f 146/146/146 145/145/145 147/147/147
f 148/148/148 146/146/146 147/147/147
f 149/149/149 148/148/148 147/147/147
f 150/150/150 149/149/149 147/147/147
f 149/149/149 150/150/150 151/151/151
f 150/150/150 152/152/152 151/151/151
f 155/155/155 154/154/154 153/153/153
f 153/153/153 154/154/154 156/156/156
f 157/157/157 154/154/154 155/155/155
f 156/156/156 154/154/154 158/158/158
f 159/159/159 154/154/154 157/157/157
f 158/158/158 154/154/154 160/160/160
f 161/161/161 154/154/154 159/159/159
f 160/160/160 154/154/154 162/162/162
f 162/162/162 154/154/154 161/161/161
f 165/165/165 164/164/164 163/163/163
f 166/166/166 163/163/163 164/164/164
f 167/167/167 164/164/164 165/165/165
f 166/166/166 164/164/164 168/168/168
f 169/169/169 164/164/164 167/167/167
f 168/168/168 164/164/164 170/170/170
f 171/171/171 164/164/164 169/169/169
f 170/170/170 164/164/164 172/172/172
f 172/172/172 164/164/164 171/171/171
