g Toys_3_dog_wheel4
v -0.02064956 -0.07464306 -0.04328323
v -0.04920801 -0.08613437 -0.0001477051
v -0.02064956 -0.0862762 -0.0001477051
v -0.04875917 -0.07479042 -0.04287048
v -0.02064956 -0.04299534 -0.07481781
v -0.04920801 -0.04292267 -0.07469223
v -0.02064956 0.0001782989 -0.08631134
v -0.04920801 0.0001786804 -0.0861705
v -0.02064956 0.0433115 -0.07466888
v -0.04920801 0.04324007 -0.07454437
v -0.02064956 0.07484856 -0.04302536
v -0.04920801 0.07472399 -0.04295349
v -0.04920801 0.08612391 0.0001695251
v -0.02064956 0.08627607 0.0001695251
v -0.04920802 0.07457668 0.04321029
v -0.02064956 0.07469989 0.04328201
v -0.02064956 0.04305538 0.0748175
v -0.04920801 0.04298357 0.07469284
v -0.02064956 -0.0001176071 0.08631103
v -0.04920801 -0.0001174164 0.08616638
v -0.02064958 -0.04325043 0.07466888
v -0.04920801 -0.04317841 0.07454376
v -0.02064956 -0.07478988 0.04302734
v -0.04994764 -0.07432682 0.04327163
v -0.02064956 -0.0862762 -0.0001477051
v -0.04920801 -0.08613437 -0.0001477051
v -0.06643824 0.04762932 -0.02853912
v -0.06391508 0.07675007 0.0007072448
v -0.06658892 0.05596895 0.001614532
v -0.06630912 0.04613729 0.03011658
v -0.06390245 0.06728895 -0.0369815
v -0.06698112 0.02769192 -0.04865738
v -0.06374428 0.0386443 -0.06664688
v -0.06742084 -0.0004988861 -0.05810974
v -0.06472294 0.06450357 0.03830078
v -0.067106 0.02732307 0.04964874
v -0.04920801 0.07472399 -0.04295349
v -0.04920801 0.08612391 0.0001695251
v -0.04920801 0.04324007 -0.07454437
v -0.04920802 0.07457668 0.04321029
v -0.04920801 0.0001786804 -0.0861705
v -0.06323528 -0.001229477 -0.07789291
v -0.06748176 -0.02895493 -0.05112091
v -0.04920801 -0.04292267 -0.07469223
v -0.06431471 0.03832756 0.06550308
v -0.04920801 0.04298357 0.07469284
v -0.04920801 -0.0001174164 0.08616638
v -0.0647212 -0.002024918 0.07501556
v -0.06662359 -0.003722076 0.05557403
v -0.06400062 -0.03985412 0.06533355
v -0.06719856 -0.03166164 0.04829758
v -0.04920801 -0.04317841 0.07454376
v -0.06750684 -0.05248188 0.02787109
v -0.06355863 -0.06705307 0.03852875
v -0.04994764 -0.07432682 0.04327163
v -0.04920801 -0.08613437 -0.0001477051
v -0.06745289 -0.05889862 -0.00271347
v -0.06370558 -0.07708442 -0.0007977295
v -0.04875917 -0.07479042 -0.04287048
v -0.06375252 -0.066371 -0.0390419
v -0.06749273 -0.04858635 -0.03413986
v -0.06382484 -0.03993389 -0.06570007
v -0.067106 0.02732307 0.04964874
v -0.03809199 0.03499464 0.02464508
v -0.06630912 0.04613729 0.03011658
v -0.06658892 0.05596895 0.001614532
v -0.03762552 0.01664158 0.03918488
v -0.06662359 -0.003722076 0.05557403
v -0.0394735 0.04326122 0.002942047
v -0.06643824 0.04762932 -0.02853912
v -0.03483001 0.02230057 0.01354156
v -0.04043346 0.03712234 -0.0229747
v -0.03486993 0.0254981 0.000572815
v -0.04038801 0.02063253 -0.03844665
v -0.06698112 0.02769192 -0.04865738
v -0.06742084 -0.0004988861 -0.05810974
v -0.03486231 0.02236166 -0.01344864
v -0.03507062 0.009886322 -0.02289444
v -0.04804126 0.01432898 -0.003101196
v -0.03755867 -0.001079636 -0.04224716
v -0.03754751 -0.0006233978 -0.02396576
v -0.03735306 -0.0197636 -0.03713211
v -0.06748176 -0.02895493 -0.05112091
v -0.06749273 -0.04858635 -0.03413986
v -0.04819015 0.00385334 -0.01322891
v -0.03498014 -0.01284832 -0.02129288
v -0.03669402 -0.03391777 -0.02386887
v -0.03649445 -0.04143807 -0.00229599
v -0.06745289 -0.05889862 -0.00271347
v -0.06750684 -0.05248188 0.02787109
v -0.03487959 -0.02206345 -0.01185989
v -0.04820355 -0.01017509 -0.0105722
v -0.05021259 -0.000657196 0.001631012
v -0.03659846 -0.03726467 0.01867111
v -0.06719856 -0.03166164 0.04829758
v -0.03484755 -0.02505589 -0.002516632
v -0.03559491 -0.02402996 0.03225357
v -0.04838944 -0.01538338 0.002955017
v -0.03483358 -0.02279591 0.011884
v -0.04788926 0.01079121 0.01185135
v -0.03582896 -0.006421318 0.04072159
v -0.03486785 -0.01598068 0.01907684
v -0.04804698 -0.006853981 0.01475906
v -0.03488459 0.01127605 0.02256454
v -0.037574 -0.003437538 0.02339935
v -0.02064956 0.07469989 0.04328201
v -0.003450403 0.03905157 0.06176605
v -0.02064956 0.04305538 0.0748175
v -0.02064956 -0.0001176071 0.08631103
v -0.002835588 -0.001344185 0.07064483
v -0.02064958 -0.04325043 0.07466888
v -0.003747091 -0.03983349 0.0622528
v -0.02064956 -0.07478988 0.04302734
v 0.001859808 -0.0008892822 -0.0009156799
v -0.003855295 -0.06462479 0.03648758
v -0.004303255 0.06491409 0.03827683
v -0.004316559 0.0753882 -0.0009312439
v -0.02064956 -0.0862762 -0.0001477051
v -0.02064956 0.08627607 0.0001695251
v -0.004622745 -0.0759526 -0.002078705
v -0.02064956 -0.07464306 -0.04328323
v -0.004452047 0.06663983 -0.035905
v -0.02064956 0.07484856 -0.04302536
v -0.003611498 -0.06157749 -0.04018966
v -0.02064956 -0.04299534 -0.07481781
v -0.00344428 0.03632076 -0.06337783
v -0.02064956 0.0433115 -0.07466888
v -0.003963871 -0.034925 -0.06580322
v -0.02064956 0.0001782989 -0.08631134
v -0.00414361 0.002148438 -0.07493012
vt 0.017114 0.404822
vt 0.010038 0.415566
vt 0.016973 0.415666
vt 0.010289 0.404838
vt 0.017243 0.393978
vt 0.010308 0.393905
vt 0.017345 0.383133
vt 0.010411 0.383078
vt 0.017416 0.372288
vt 0.010481 0.372251
vt 0.017454 0.361443
vt 0.010526 0.361425
vt 0.010539 0.350597
vt 0.017474 0.350597
vt 0.010526 0.33978
vt 0.017454 0.339761
vt 0.017416 0.328916
vt 0.010481 0.328953
vt 0.017339 0.318071
vt 0.010411 0.318126
vt 0.017243 0.307227
vt 0.010308 0.3073
vt 0.017114 0.296382
vt 0.010006 0.296588
vt 0.016928 0.285539
vt 0.01 0.285664
vt 0.955597 0.477094
vt 0.955054 0.487282
vt 0.958851 0.483914
vt 0.96543 0.486409
vt 0.950682 0.479051
vt 0.955798 0.470217
vt 0.950696 0.46912
vt 0.958742 0.463558
vt 0.963723 0.491079
vt 0.971667 0.485691
vt 0.946495 0.479667
vt 0.952011 0.490047
vt 0.94666 0.4681
vt 0.962496 0.495474
vt 0.952011 0.457778
vt 0.955116 0.460158
vt 0.964343 0.459452
vt 0.961904 0.451138
vt 0.972715 0.49038
vt 0.974136 0.494589
vt 0.984086 0.488584
vt 0.981113 0.484991
vt 0.977896 0.481341
vt 0.986003 0.477056
vt 0.981619 0.475336
vt 0.99 0.478525
vt 0.981726 0.46835
vt 0.986229 0.467875
vt 0.99 0.466836
vt 0.984115 0.456707
vt 0.977519 0.462365
vt 0.981033 0.459452
vt 0.973972 0.450862
vt 0.972573 0.454833
vt 0.970385 0.458856
vt 0.963361 0.455006
vt 0.975407 0.389961
vt 0.966586 0.386713
vt 0.967837 0.393499
vt 0.95867 0.393499
vt 0.971641 0.383638
vt 0.980725 0.38098
vt 0.960607 0.387163
vt 0.950279 0.388131
vt 0.965021 0.383498
vt 0.954846 0.383873
vt 0.961448 0.383193
vt 0.952569 0.378685
vt 0.946308 0.380291
vt 0.946256 0.371135
vt 0.958131 0.381274
vt 0.956649 0.37746
vt 0.961781 0.379508
vt 0.953563 0.373273
vt 0.957464 0.374722
vt 0.956084 0.369231
vt 0.951106 0.363405
vt 0.957868 0.359117
vt 0.960287 0.376808
vt 0.958978 0.371693
vt 0.960229 0.366766
vt 0.965932 0.366698
vt 0.967927 0.359016
vt 0.976241 0.363463
vt 0.962166 0.370189
vt 0.96173 0.374103
vt 0.963744 0.376831
vt 0.970692 0.369347
vt 0.980815 0.371437
vt 0.964777 0.370108
vt 0.973027 0.373548
vt 0.964861 0.37384
vt 0.968261 0.371995
vt 0.965136 0.37987
vt 0.973617 0.378302
vt 0.969717 0.374169
vt 0.966901 0.376302
vt 0.968312 0.381656
vt 0.969563 0.377836
vt 0.031472 0.067297
vt 0.025547 0.058072
vt 0.021251 0.0611
vt 0.015511 0.050861
vt 0.020895 0.049071
vt 0.015511 0.039012
vt 0.020553 0.039493
vt 0.021431 0.028741
vt 0.037684 0.044831
vt 0.025057 0.032103
vt 0.032553 0.062761
vt 0.042326 0.062691
vt 0.031681 0.022858
vt 0.043504 0.067233
vt 0.033394 0.027112
vt 0.043504 0.022865
vt 0.05001 0.058418
vt 0.053779 0.061183
vt 0.043187 0.02808
vt 0.05377 0.028786
vt 0.05465 0.049604
vt 0.059708 0.050893
vt 0.050804 0.032744
vt 0.059693 0.039038
vt 0.055217 0.040866
vn -0.003979998 -0.8645107 -0.5025988
vn -0.002614 -0.9658639 -0.2590369
vn -0.004794999 -0.9654938 -0.260382
vn -0.002425999 -0.8675146 -0.4974057
vn -0.00541 -0.4988299 -0.8666829
vn -0.005055002 -0.4982732 -0.8670053
vn -0.004957001 0.001696 -0.9999863
vn -0.004951002 0.001699001 -0.9999863
vn -0.005007 0.501533 -0.865124
vn -0.005029002 0.5015512 -0.8651134
vn -0.005087001 0.8672551 -0.4978381
vn -0.005036 0.867275 -0.497804
vn -0.005273997 0.9999845 0.001775999
vn -0.005266998 0.9999846 0.001776999
vn -0.005062 0.865469 0.500937
vn -0.004991999 0.8654508 0.5009689
vn -0.005030001 0.49854 0.866852
vn -0.005042998 0.4985318 0.8668567
vn -0.005059998 -0.001728 0.9999857
vn -0.005063999 -0.001731999 0.9999857
vn -0.005055998 -0.5014829 0.8651528
vn -0.005137997 -0.5027587 0.8644115
vn -0.009501999 -0.8681128 0.4962759
vn -0.007952997 -0.8651808 0.5013969
vn -0.007855998 -0.9654678 0.260404
vn -0.004791998 -0.9649656 0.2623329
vn -0.9928022 0.107595 -0.05260201
vn -0.8111294 0.5846236 0.01685899
vn -0.9917304 0.1280061 0.009238004
vn -0.9961493 0.08402003 0.02504701
vn -0.8142218 0.5125559 -0.2726339
vn -0.9892097 0.08443198 -0.119731
vn -0.8031617 0.3012589 -0.5139788
vn -0.9803945 0.003306998 -0.1970169
vn -0.842298 0.468579 0.266398
vn -0.9921788 0.05967299 0.109637
vn -0.5395247 0.7285827 -0.4219958
vn -0.546243 0.8375859 0.008275999
vn -0.5321829 0.424726 -0.7323859
vn -0.5820199 0.7079108 0.4001439
vn -0.5101278 0.01344299 -0.8599936
vn -0.7791467 -0.009748995 -0.6267657
vn -0.9790981 -0.09344599 -0.180651
vn -0.5276489 -0.424248 -0.7359349
vn -0.8172477 0.2895329 0.4982738
vn -0.5629542 0.4089281 0.7182342
vn -0.5791329 0.004641 0.8152199
vn -0.8371809 -0.021001 0.5465229
vn -0.9937543 -0.019557 0.109863
vn -0.8063949 -0.302077 0.508406
vn -0.9859891 -0.070806 0.151036
vn -0.5486571 -0.4060671 0.7308111
vn -0.9773806 -0.1911011 0.09059606
vn -0.7890658 -0.5345319 0.3027389
vn -0.5373848 -0.7280797 0.4255788
vn -0.5286411 -0.8488412 -0.002692001
vn -0.9790163 -0.2036351 -0.007731003
vn -0.7913786 -0.6112908 -0.006589997
vn -0.5218451 -0.7411402 -0.4223611
vn -0.7885308 -0.5295828 -0.3126679
vn -0.9768527 -0.1694519 -0.130556
vn -0.7958949 -0.3216 -0.5129569
vn -0.413563 -0.431209 -0.801888
vn -0.75223 -0.551822 -0.360059
vn -0.4012031 -0.7808362 -0.4788851
vn -0.425352 -0.90481 -0.019868
vn -0.776278 -0.232258 -0.586045
vn -0.4380909 0.05824299 -0.8970419
vn -0.7284153 -0.6847743 -0.02225501
vn -0.4245799 -0.7818378 0.4565759
vn -0.9726154 0.1956611 0.125444
vn -0.7164419 -0.5963619 0.362027
vn -0.9755426 0.2179969 0.02817599
vn -0.7391679 -0.3341079 0.5848099
vn -0.4224391 -0.4731301 0.7731062
vn -0.458919 -0.0167 0.8883211
vn -0.9911032 0.107696 -0.07820501
vn -0.9770329 0.194265 -0.08756699
vn -0.850457 0.506954 -0.14043
vn -0.8302178 -0.02320899 0.5569558
vn -0.9595371 -0.06069 -0.274964
vn -0.8039719 0.253229 0.538056
vn -0.4839081 0.4077151 0.7743392
vn -0.4960628 0.7214478 0.4831508
vn -0.8568539 0.159083 -0.490402
vn -0.9573777 -0.2110649 -0.197179
vn -0.8072281 0.4872281 0.333154
vn -0.8033785 0.5941707 0.03929498
vn -0.4912057 0.8698355 0.04586097
vn -0.4996141 0.7603262 -0.4150781
vn -0.9496307 -0.2774449 -0.145691
vn -0.838814 -0.346619 -0.419817
vn -0.9998454 0.008148002 0.01558101
vn -0.7942412 0.5446362 -0.2693551
vn -0.495074 0.4373 -0.7507799
vn -0.9452068 -0.3235269 -0.04375399
vn -0.8157983 0.3332551 -0.4726672
vn -0.8334161 -0.5467351 0.080612
vn -0.9509894 -0.2639231 0.1611331
vn -0.8308422 0.3719331 0.4139651
vn -0.8190718 0.07771497 -0.5684028
vn -0.9222567 -0.2703289 0.2763419
vn -0.819052 -0.222112 0.5289801
vn -0.9596024 0.1714001 0.2231261
vn -0.9067345 -0.08844495 0.4123228
vn 0.564064 0.712966 0.416547
vn 0.8532129 0.273531 0.4440819
vn 0.6136721 0.379927 0.6921431
vn 0.654745 -0.002702 0.7558451
vn 0.8753592 -0.012594 0.4833091
vn 0.6028432 -0.3777061 0.7027932
vn 0.8419209 -0.281906 0.4601069
vn 0.5796022 -0.7070912 0.4050721
vn 0.9999938 -0.0004639999 -0.003488999
vn 0.8437775 -0.4709387 0.2574028
vn 0.8274651 0.4821281 0.287844
vn 0.8315012 0.5555201 -0.001792
vn 0.5457518 -0.8378186 0.01466099
vn 0.5528077 0.8332376 0.01089699
vn 0.8206032 -0.5713391 -0.01349
vn 0.5851188 -0.7011508 -0.4074599
vn 0.8239201 0.494273 -0.277218
vn 0.5595601 0.7074021 -0.4318271
vn 0.8525221 -0.433336 -0.292277
vn 0.5740101 -0.4150791 -0.7058482
vn 0.8581455 0.2663439 -0.4389158
vn 0.601797 0.4118581 -0.6842611
vn 0.8395159 -0.250377 -0.482208
vn 0.5631667 -0.004561998 -0.8263307
vn 0.834072 0.018509 -0.551345
g Toys_3_dog_wheel4_0
f 3/3/3 2/2/2 1/1/1
f 2/2/2 4/4/4 1/1/1
f 1/1/1 4/4/4 5/5/5
f 4/4/4 6/6/6 5/5/5
f 5/5/5 6/6/6 7/7/7
f 6/6/6 8/8/8 7/7/7
f 7/7/7 8/8/8 9/9/9
f 8/8/8 10/10/10 9/9/9
f 9/9/9 10/10/10 11/11/11
f 10/10/10 12/12/12 11/11/11
f 12/12/12 13/13/13 11/11/11
f 13/13/13 14/14/14 11/11/11
f 14/14/14 13/13/13 15/15/15
f 16/16/16 14/14/14 15/15/15
f 16/16/16 15/15/15 17/17/17
f 15/15/15 18/18/18 17/17/17
f 17/17/17 18/18/18 19/19/19
f 18/18/18 20/20/20 19/19/19
f 19/19/19 20/20/20 21/21/21
f 20/20/20 22/22/22 21/21/21
f 21/21/21 22/22/22 23/23/23
f 22/22/22 24/24/24 23/23/23
f 23/23/23 24/24/24 25/25/25
f 24/24/24 26/26/26 25/25/25
f 29/29/29 28/28/28 27/27/27
f 29/29/29 30/30/30 28/28/28
f 28/28/28 31/31/31 27/27/27
f 32/32/32 27/27/27 31/31/31
f 33/33/33 32/32/32 31/31/31
f 34/34/34 32/32/32 33/33/33
f 30/30/30 35/35/35 28/28/28
f 30/30/30 36/36/36 35/35/35
f 31/31/31 28/28/28 37/37/37
f 33/33/33 31/31/31 37/37/37
f 28/28/28 38/38/38 37/37/37
f 28/28/28 35/35/35 38/38/38
f 39/39/39 33/33/33 37/37/37
f 35/35/35 40/40/40 38/38/38
f 33/33/33 39/39/39 41/41/41
f 42/42/42 34/34/34 33/33/33
f 42/42/42 33/33/33 41/41/41
f 43/43/43 34/34/34 42/42/42
f 42/42/42 41/41/41 44/44/44
f 35/35/35 45/45/45 40/40/40
f 36/36/36 45/45/45 35/35/35
f 45/45/45 46/46/46 40/40/40
f 46/46/46 45/45/45 47/47/47
f 45/45/45 36/36/36 48/48/48
f 45/45/45 48/48/48 47/47/47
f 36/36/36 49/49/49 48/48/48
f 48/48/48 50/50/50 47/47/47
f 48/48/48 49/49/49 50/50/50
f 49/49/49 51/51/51 50/50/50
f 50/50/50 52/52/52 47/47/47
f 51/51/51 53/53/53 50/50/50
f 52/52/52 50/50/50 54/54/54
f 53/53/53 54/54/54 50/50/50
f 55/55/55 52/52/52 54/54/54
f 55/55/55 54/54/54 56/56/56
f 54/54/54 53/53/53 57/57/57
f 54/54/54 58/58/58 56/56/56
f 58/58/58 54/54/54 57/57/57
f 56/56/56 58/58/58 59/59/59
f 58/58/58 57/57/57 60/60/60
f 58/58/58 60/60/60 59/59/59
f 57/57/57 61/61/61 60/60/60
f 59/59/59 60/60/60 44/44/44
f 60/60/60 61/61/61 43/43/43
f 60/60/60 62/62/62 44/44/44
f 62/62/62 60/60/60 43/43/43
f 62/62/62 42/42/42 44/44/44
f 62/62/62 43/43/43 42/42/42
f 65/65/65 64/64/64 63/63/63
f 64/64/64 65/65/65 66/66/66
f 64/64/64 67/67/67 63/63/63
f 68/68/68 63/63/63 67/67/67
f 69/69/69 64/64/64 66/66/66
f 69/69/69 66/66/66 70/70/70
f 67/67/67 64/64/64 71/71/71
f 71/71/71 64/64/64 69/69/69
f 72/72/72 69/69/69 70/70/70
f 73/73/73 71/71/71 69/69/69
f 73/73/73 69/69/69 72/72/72
f 74/74/74 72/72/72 70/70/70
f 75/75/75 74/74/74 70/70/70
f 74/74/74 75/75/75 76/76/76
f 77/77/77 73/73/73 72/72/72
f 78/78/78 77/77/77 72/72/72
f 74/74/74 78/78/78 72/72/72
f 79/79/79 73/73/73 77/77/77
f 71/71/71 73/73/73 79/79/79
f 77/77/77 78/78/78 79/79/79
f 80/80/80 74/74/74 76/76/76
f 81/81/81 78/78/78 74/74/74
f 80/80/80 81/81/81 74/74/74
f 82/82/82 80/80/80 76/76/76
f 80/80/80 82/82/82 81/81/81
f 83/83/83 82/82/82 76/76/76
f 83/83/83 84/84/84 82/82/82
f 85/85/85 78/78/78 81/81/81
f 78/78/78 85/85/85 79/79/79
f 82/82/82 86/86/86 81/81/81
f 81/81/81 86/86/86 85/85/85
f 84/84/84 87/87/87 82/82/82
f 82/82/82 87/87/87 86/86/86
f 88/88/88 87/87/87 84/84/84
f 89/89/89 88/88/88 84/84/84
f 88/88/88 89/89/89 90/90/90
f 87/87/87 91/91/91 86/86/86
f 87/87/87 88/88/88 91/91/91
f 86/86/86 92/92/92 85/85/85
f 91/91/91 92/92/92 86/86/86
f 79/79/79 85/85/85 93/93/93
f 85/85/85 92/92/92 93/93/93
f 94/94/94 88/88/88 90/90/90
f 94/94/94 90/90/90 95/95/95
f 88/88/88 96/96/96 91/91/91
f 91/91/91 96/96/96 92/92/92
f 88/88/88 94/94/94 96/96/96
f 97/97/97 94/94/94 95/95/95
f 95/95/95 68/68/68 97/97/97
f 96/96/96 98/98/98 92/92/92
f 92/92/92 98/98/98 93/93/93
f 94/94/94 99/99/99 96/96/96
f 94/94/94 97/97/97 99/99/99
f 99/99/99 98/98/98 96/96/96
f 100/100/100 79/79/79 93/93/93
f 100/100/100 71/71/71 79/79/79
f 68/68/68 101/101/101 97/97/97
f 101/101/101 68/68/68 67/67/67
f 97/97/97 102/102/102 99/99/99
f 99/99/99 102/102/102 98/98/98
f 102/102/102 97/97/97 101/101/101
f 98/98/98 103/103/103 93/93/93
f 103/103/103 100/100/100 93/93/93
f 102/102/102 103/103/103 98/98/98
f 100/100/100 104/104/104 71/71/71
f 104/104/104 67/67/67 71/71/71
f 104/104/104 100/100/100 103/103/103
f 101/101/101 67/67/67 105/105/105
f 105/105/105 102/102/102 101/101/101
f 105/105/105 103/103/103 102/102/102
f 105/105/105 104/104/104 103/103/103
f 67/67/67 104/104/104 105/105/105
f 108/108/108 107/107/107 106/106/106
f 107/107/107 108/108/108 109/109/109
f 110/110/110 107/107/107 109/109/109
f 109/109/109 111/111/111 110/110/110
f 111/111/111 112/112/112 110/110/110
f 111/111/111 113/113/113 112/112/112
f 107/107/107 110/110/110 114/114/114
f 110/110/110 112/112/112 114/114/114
f 113/113/113 115/115/115 112/112/112
f 112/112/112 115/115/115 114/114/114
f 116/116/116 107/107/107 114/114/114
f 107/107/107 116/116/116 106/106/106
f 117/117/117 116/116/116 114/114/114
f 116/116/116 117/117/117 106/106/106
f 113/113/113 118/118/118 115/115/115
f 117/117/117 119/119/119 106/106/106
f 118/118/118 120/120/120 115/115/115
f 115/115/115 120/120/120 114/114/114
f 118/118/118 121/121/121 120/120/120
f 117/117/117 122/122/122 119/119/119
f 122/122/122 117/117/117 114/114/114
f 122/122/122 123/123/123 119/119/119
f 121/121/121 124/124/124 120/120/120
f 120/120/120 124/124/124 114/114/114
f 121/121/121 125/125/125 124/124/124
f 122/122/122 126/126/126 123/123/123
f 126/126/126 122/122/122 114/114/114
f 126/126/126 127/127/127 123/123/123
f 125/125/125 128/128/128 124/124/124
f 124/124/124 128/128/128 114/114/114
f 125/125/125 129/129/129 128/128/128
f 129/129/129 127/127/127 130/130/130
f 127/127/127 126/126/126 130/130/130
f 130/130/130 126/126/126 114/114/114
f 128/128/128 130/130/130 114/114/114
f 129/129/129 130/130/130 128/128/128
