g Toys_4_robot3_R_foot
v 0.08596517 -0.03871176 0.2464013
v 0.06009772 -0.03796196 0.2901816
v 0.07854129 -0.03840146 0.2707086
v 0.03084274 -0.03864243 0.2999736
v -0.08336303 -0.03810381 0.263904
v 0.08918481 -0.03831149 0.1607001
v -0.04811411 -0.03827069 0.2960576
v -0.07087588 -0.03874009 0.2825997
v 0.02661636 -0.03827057 -0.01977802
v -0.08816587 -0.0371071 -0.1301363
v -0.08582004 -0.03973865 0.2416003
v 0.02561569 -0.03782706 -0.1291291
v 0.02441956 0.06526523 -0.1289598
v -0.08816587 -0.0371071 -0.1301363
v 0.02561569 -0.03782706 -0.1291291
v -0.08846413 0.06596489 -0.1294634
v -0.08918539 0.06571891 0.1562508
v -0.08582004 -0.03973865 0.2416003
v -0.08819656 0.02237679 0.2372292
v -0.08480285 0.009083187 0.2593645
v -0.08336303 -0.03810381 0.263904
v -0.07087588 -0.03874009 0.2825997
v -0.07321975 -0.001840621 0.2807618
v -0.04811411 -0.03827069 0.2960576
v -0.04699428 -0.005323422 0.2958786
v 0.03084274 -0.03864243 0.2999736
v 0.03001694 -0.005526389 0.2996188
v 0.06009772 -0.03796196 0.2901816
v 0.05990256 -0.002341338 0.2893222
v 0.07854129 -0.03840146 0.2707086
v 0.07874542 0.003513981 0.2708323
v 0.08500703 0.01739725 0.2490384
v 0.08596517 -0.03871176 0.2464013
v 0.08918481 -0.03831149 0.1607001
v 0.08727275 0.06455355 0.1572492
v 0.02661636 -0.03827057 -0.01977802
v 0.02515141 0.0658542 -0.02137961
v 0.02561569 -0.03782706 -0.1291291
v 0.02441956 0.06526523 -0.1289598
v 0.08727275 0.06455355 0.1572492
v 0.01605522 0.07527842 -0.01874721
v 0.02515141 0.0658542 -0.02137961
v 0.02441956 0.06526523 -0.1289598
v 0.08099183 0.07247951 0.1602733
v 0.08500703 0.01739725 0.2490384
v 0.07259158 0.02653678 0.2507433
v 0.07874542 0.003513981 0.2708323
v 0.01490793 0.07448421 -0.1294386
v -0.08846413 0.06596489 -0.1294634
v -0.08111509 0.07421379 0.1559751
v -0.07882967 0.07499625 -0.1290505
v -0.08918539 0.06571891 0.1562508
v -0.07975126 0.031597 0.2393829
v -0.08819656 0.02237679 0.2372292
v 0.07037196 0.01575298 0.2693046
v -0.07748159 0.01854204 0.261883
v -0.08480285 0.009083187 0.2593645
v 0.05535784 0.007362628 0.2854605
v 0.05990256 -0.002341338 0.2893222
v 0.02974688 0.004425137 0.2944348
v 0.03001694 -0.005526389 0.2996188
v -0.04699428 -0.005323422 0.2958786
v -0.06793522 0.008798035 0.279412
v -0.07321975 -0.001840621 0.2807618
v -0.04489506 0.005350967 0.2908582
vt 0.939163 0.262914
vt 0.933624 0.272194
vt 0.937562 0.268065
vt 0.927395 0.274238
vt 0.903162 0.266453
vt 0.939934 0.244707
vt 0.91062 0.273321
vt 0.905793 0.27045
vt 0.926821 0.20629
vt 0.902539 0.182723
vt 0.902539 0.261721
vt 0.926718 0.18305
vt 0.670948 0.466381
vt 0.692975 0.490053
vt 0.692852 0.46587
vt 0.671073 0.490368
vt 0.671596 0.551081
vt 0.694157 0.569052
vt 0.68094 0.568226
vt 0.683825 0.572944
vt 0.693865 0.573823
vt 0.694045 0.578594
vt 0.686194 0.578096
vt 0.694031 0.584217
vt 0.687031 0.584505
vt 0.694238 0.60102
vt 0.687199 0.600889
vt 0.694106 0.607574
vt 0.686534 0.6076
vt 0.694143 0.613276
vt 0.685236 0.613197
vt 0.682251 0.617995
vt 0.69417 0.618676
vt 0.693913 0.636909
vt 0.672043 0.63742
vt 0.69332 0.677489
vt 0.671188 0.677594
vt 0.692975 0.700728
vt 0.671068 0.700453
vt 0.856977 0.955895
vt 0.869369 0.917175
vt 0.866666 0.916127
vt 0.870664 0.89311
vt 0.859162 0.956288
vt 0.856977 0.978413
vt 0.860241 0.977849
vt 0.858603 0.98422
vt 0.873118 0.894382
vt 0.895249 0.894093
vt 0.892418 0.954387
vt 0.892627 0.895089
vt 0.89489 0.954689
vt 0.89277 0.97393
vt 0.89543 0.97431
vt 0.861042 0.982306
vt 0.892286 0.979265
vt 0.894762 0.979934
vt 0.864344 0.98591
vt 0.863267 0.988047
vt 0.869896 0.987628
vt 0.869938 0.99
vt 0.886418 0.988493
vt 0.890332 0.983446
vt 0.892202 0.985137
vt 0.885551 0.986133
vn -0.001247 -0.9999989 0.0007302696
vn 0.031742 -0.9988525 0.03586206
vn -0.01527499 -0.9998505 0.00809843
vn 0.002527999 -0.999988 0.004221655
vn 0.03099499 -0.9994778 -0.009142659
vn -0.002179 -0.9999963 -0.001629915
vn 0.0008659996 -0.9999808 -0.006139375
vn 0.066975 -0.9946551 -0.07858527
vn -0.006093001 -0.9999789 -0.002266865
vn -0.001465 -0.9999937 -0.00326136
vn 0.6120381 -0.7907718 -0.00945982
vn -0.006291998 -0.9999722 -0.00399799
vn 0.006819998 0.003991273 -0.9999688
vn -0.7026176 -0.00280332 -0.711562
vn 0.008862 0.00174558 -0.9999592
vn -0.7079521 0.002561598 -0.7062559
vn -0.9996684 -0.02560241 0.002776961
vn -0.9978175 -0.02682739 0.06033673
vn -0.9987144 -0.03567644 0.03600844
vn -0.9670236 -0.02126298 0.2537979
vn -0.935271 0.005506428 0.3538897
vn -0.6894486 0.01044404 0.7242594
vn -0.7615521 -0.0137562 0.6479577
vn -0.2902241 0.0116685 0.9568876
vn -0.284955 0.01519955 0.9584204
vn 0.138155 0.01374684 0.9903153
vn 0.141416 0.01593516 0.989822
vn 0.5375298 0.0215325 0.8429698
vn 0.5510101 0.01349005 0.8343896
vn 0.8629338 0.005411285 0.505288
vn 0.8885588 -0.005680922 0.4587277
vn 0.9924258 0.0107645 0.1223735
vn 0.9867617 0.009240851 0.1619137
vn 0.9895012 0.01273023 -0.1439634
vn 0.9823001 0.01231673 -0.1869087
vn 0.9848839 0.01092489 -0.172871
vn 0.9856248 0.01069433 -0.1686106
vn 0.9998871 0.01274608 -0.007956168
vn 0.999909 0.01161276 -0.006866246
vn 0.786718 0.6169025 0.02250011
vn 0.3406489 0.9383282 -0.05914965
vn 0.6988019 0.7062268 -0.1136642
vn 0.6368639 0.6310729 -0.4428898
vn 0.4571901 0.875268 0.1577438
vn 0.567869 0.6634181 0.4872385
vn 0.3077859 0.8127056 0.4947497
vn 0.5876706 0.5293745 0.611887
vn 0.2943809 0.6981356 -0.6526458
vn -0.6077242 0.6618591 -0.4388779
vn -0.369677 0.9050706 0.2102049
vn -0.2826301 0.736665 -0.6143655
vn -0.7104561 0.6766902 0.193242
vn -0.403372 0.7938893 0.4550065
vn -0.7348434 0.5682522 0.3702628
vn 0.408793 0.7182189 0.5630719
vn -0.4542901 0.705369 0.5441278
vn -0.7392734 0.4435371 0.5067047
vn 0.2719771 0.6622809 0.6981493
vn 0.387653 0.4914465 0.7798752
vn 0.066873 0.698323 0.712652
vn 0.09503999 0.4619409 0.8818038
vn -0.2065729 0.4329791 0.8774148
vn -0.41694 0.5993423 0.6833373
vn -0.5735842 0.3771771 0.7271442
vn -0.123969 0.6856118 0.717334
g Toys_4_robot3_R_foot_0
f 3/3/3 2/2/2 1/1/1
f 2/2/2 4/4/4 1/1/1
f 1/1/1 4/4/4 5/5/5
f 5/5/5 6/6/6 1/1/1
f 7/7/7 5/5/5 4/4/4
f 5/5/5 7/7/7 8/8/8
f 9/9/9 6/6/6 5/5/5
f 10/10/10 9/9/9 5/5/5
f 11/11/11 10/10/10 5/5/5
f 12/12/12 9/9/9 10/10/10
f 15/15/15 14/14/14 13/13/13
f 14/14/14 16/16/16 13/13/13
f 14/14/14 17/17/17 16/16/16
f 17/17/17 14/14/14 18/18/18
f 17/17/17 18/18/18 19/19/19
f 20/20/20 19/19/19 18/18/18
f 21/21/21 20/20/20 18/18/18
f 20/20/20 21/21/21 22/22/22
f 23/23/23 20/20/20 22/22/22
f 22/22/22 24/24/24 23/23/23
f 24/24/24 25/25/25 23/23/23
f 24/24/24 26/26/26 25/25/25
f 26/26/26 27/27/27 25/25/25
f 26/26/26 28/28/28 27/27/27
f 28/28/28 29/29/29 27/27/27
f 28/28/28 30/30/30 29/29/29
f 30/30/30 31/31/31 29/29/29
f 31/31/31 30/30/30 32/32/32
f 30/30/30 33/33/33 32/32/32
f 34/34/34 32/32/32 33/33/33
f 34/34/34 35/35/35 32/32/32
f 35/35/35 34/34/34 36/36/36
f 37/37/37 35/35/35 36/36/36
f 36/36/36 38/38/38 37/37/37
f 38/38/38 39/39/39 37/37/37
f 42/42/42 41/41/41 40/40/40
f 41/41/41 42/42/42 43/43/43
f 41/41/41 44/44/44 40/40/40
f 40/40/40 44/44/44 45/45/45
f 44/44/44 46/46/46 45/45/45
f 47/47/47 45/45/45 46/46/46
f 48/48/48 41/41/41 43/43/43
f 48/48/48 43/43/43 49/49/49
f 44/44/44 41/41/41 50/50/50
f 44/44/44 50/50/50 46/46/46
f 41/41/41 48/48/48 51/51/51
f 51/51/51 48/48/48 49/49/49
f 50/50/50 41/41/41 51/51/51
f 51/51/51 49/49/49 50/50/50
f 49/49/49 52/52/52 50/50/50
f 50/50/50 52/52/52 53/53/53
f 50/50/50 53/53/53 46/46/46
f 52/52/52 54/54/54 53/53/53
f 55/55/55 47/47/47 46/46/46
f 55/55/55 46/46/46 53/53/53
f 56/56/56 53/53/53 54/54/54
f 56/56/56 55/55/55 53/53/53
f 57/57/57 56/56/56 54/54/54
f 55/55/55 58/58/58 47/47/47
f 58/58/58 59/59/59 47/47/47
f 55/55/55 60/60/60 58/58/58
f 58/58/58 60/60/60 59/59/59
f 60/60/60 55/55/55 56/56/56
f 60/60/60 61/61/61 59/59/59
f 61/61/61 60/60/60 62/62/62
f 63/63/63 56/56/56 57/57/57
f 64/64/64 63/63/63 57/57/57
f 63/63/63 64/64/64 62/62/62
f 65/65/65 60/60/60 56/56/56
f 60/60/60 65/65/65 62/62/62
f 65/65/65 56/56/56 63/63/63
f 65/65/65 63/63/63 62/62/62
