g Toys_2_locomotive1_pin001
v 0.004402893 -0.01413791 -0.001502899
v -0.002429715 -0.01413791 0.003736293
v 0.002789988 -0.01413791 0.003736293
v -0.004043025 -0.01413791 -0.001502899
v 0.0001799337 -0.01413791 -0.004741075
v -0.004043025 -0.01413791 -0.001502899
v -0.002429715 0.00786885 0.003736293
v -0.002429715 -0.01413791 0.003736293
v -0.004043025 0.00786885 -0.001502899
v 0.0001799337 -0.01413791 -0.004741075
v 0.0001799337 0.00786885 -0.004741075
v 0.004402893 -0.01413791 -0.001502899
v 0.004402893 0.00786885 -0.001502899
v 0.002789988 -0.01413791 0.003736293
v 0.002789988 0.00786885 0.003736293
v -0.002429715 -0.01413791 0.003736293
v -0.002429715 0.00786885 0.003736293
v 0.004223771 0.01255534 0.002978848
v 0.006997513 0.009113977 -0.001469017
v 0.005932127 0.009113977 0.004183434
v 0.004982498 0.01255534 -0.001045946
v 5.610016E-17 0.01413798 2.123903E-08
v 0.003963822 0.009113977 -0.006260676
v 0.000991057 0.01255534 0.005258509
v 0.001391948 0.009113977 0.007385112
v 0.002822482 0.01255534 -0.004457721
v -0.001391948 0.009113977 -0.007385004
v -0.002822076 0.01255534 0.004458221
v -0.003963822 0.009113977 0.006261175
v -0.000991057 0.01255534 -0.005258467
v -0.005932127 0.009113977 -0.004183392
v -0.004982498 0.01255534 0.001045989
v -0.006997513 0.009113977 0.001469059
v -0.004223771 0.01255534 -0.002978282
v 0.005932127 0.009113977 0.004183434
v 0.006547475 0.008735033 -0.001374303
v 0.005550732 0.008735033 0.003914208
v 0.006997513 0.009113977 -0.001469017
v 0.001391948 0.009113977 0.007385112
v 0.003708747 0.008735033 -0.005857751
v 0.003963822 0.009113977 -0.006260676
v 0.00130259 0.008735033 0.006910171
v -0.003963822 0.009113977 0.006261175
v 0.004402893 0.00786885 -0.001502899
v 0.002789988 0.00786885 0.003736293
v 0.0001799337 0.00786885 -0.004741075
v -0.001302184 0.008735033 -0.006910129
v -0.001391948 0.009113977 -0.007385004
v -0.004043025 0.00786885 -0.001502899
v -0.003708747 0.008735033 0.005858317
v -0.006997513 0.009113977 0.001469059
v -0.002429715 0.00786885 0.003736293
v -0.005550732 0.008735033 -0.003914165
v -0.005932127 0.009113977 -0.004183392
v -0.006547475 0.008735033 0.001374739
vt 0.01 0.938965
vt 0.014793 0.938965
vt 0.012397 0.937224
vt 0.013881 0.941783
vt 0.010912 0.941783
vt 0.506598 0.978164
vt 0.509554 0.99
vt 0.509554 0.978164
vt 0.506598 0.99
vt 0.503628 0.978164
vt 0.503628 0.99
vt 0.500671 0.978164
vt 0.500671 0.99
vt 0.497702 0.978164
vt 0.497702 0.99
vt 0.494745 0.978164
vt 0.494745 0.99
vt 0.221185 0.91624
vt 0.218238 0.918115
vt 0.222049 0.918115
vt 0.218956 0.916174
vt 0.220143 0.913517
vt 0.215542 0.915432
vt 0.222803 0.914703
vt 0.224744 0.915432
vt 0.217423 0.914559
vt 0.215542 0.911616
vt 0.222864 0.912475
vt 0.224745 0.911616
vt 0.217484 0.912332
vt 0.218238 0.90892
vt 0.221331 0.91086
vt 0.222049 0.90892
vt 0.219103 0.910795
vt 0.222834 0.987602
vt 0.222612 0.9845
vt 0.222534 0.987463
vt 0.222925 0.98438
vt 0.220554 0.989849
vt 0.220476 0.982428
vt 0.220619 0.982123
vt 0.220424 0.989541
vt 0.217337 0.99
vt 0.221323 0.984681
vt 0.220893 0.987616
vt 0.218601 0.983507
vt 0.217519 0.982437
vt 0.217415 0.982123
vt 0.216699 0.985734
vt 0.217493 0.989705
vt 0.215188 0.987637
vt 0.218093 0.988407
vt 0.215527 0.984582
vt 0.215214 0.984447
vt 0.215501 0.98753
vn 0 -1 0
vn 0 -1 0
vn 0 -1 0
vn 0 -1 0
vn 0 -1 0
vn -0.9510676 0 -0.3089828
vn -0.9510373 0 0.3090761
vn -0.9510373 0 0.3090761
vn -0.9510676 0 -0.3089828
vn 0 0 -1
vn 0 0 -1
vn 0.9510561 0 -0.309018
vn 0.9510561 0 -0.309018
vn 0.5877903 0 0.8090134
vn 0.5877898 0 0.8090137
vn 0 0 1
vn 0 0 1
vn 0.5433549 0.7569289 0.3630759
vn 0.8298043 0.5330872 -0.1650541
vn 0.7034711 0.5330911 0.4700451
vn 0.6409491 0.7569241 -0.127476
vn -2E-06 1 -4E-06
vn 0.4700409 0.5330859 -0.7034778
vn 0.127504 0.7569271 0.6409401
vn 0.1650841 0.5330812 0.8298023
vn 0.3630761 0.7569251 -0.5433601
vn -0.165053 0.533074 -0.829813
vn -0.3630202 0.7569433 0.5433722
vn -0.4700261 0.5331142 0.7034662
vn -0.127488 0.756923 -0.640948
vn -0.703455 0.53312 -0.470036
vn -0.6409482 0.7569272 0.127462
vn -0.8298053 0.5330922 0.1650331
vn -0.5433629 0.7569509 -0.363018
vn 0.5123821 -0.7875382 0.3424151
vn 0.5126611 -0.8532631 -0.09550201
vn 0.4279181 -0.8602563 0.2772101
vn 0.6043649 -0.7875778 -0.120267
vn 0.120229 -0.7875147 0.6044548
vn 0.2825681 -0.8616133 -0.4216371
vn 0.3422578 -0.7877246 -0.5122007
vn 0.08296302 -0.8720173 0.4823931
vn -0.3422689 -0.7876976 0.5122347
vn 0.3146809 -0.9434297 -0.104481
vn 0.1853709 -0.9467316 0.2633189
vn 0.003572998 -0.9476776 -0.3192089
vn -0.109492 -0.8625824 -0.4939262
vn -0.12028 -0.7875212 -0.6044362
vn -0.274049 -0.9566718 -0.09836797
vn -0.272682 -0.865576 0.420027
vn -0.604434 -0.787535 0.120201
vn -0.142528 -0.9529948 0.2673699
vn -0.4106099 -0.8663087 -0.2844449
vn -0.5123802 -0.7875403 -0.3424131
vn -0.486202 -0.868106 0.099998
g Toys_2_locomotive1_pin001_0
f 3/3/3 2/2/2 1/1/1
f 2/2/2 4/4/4 1/1/1
f 4/4/4 5/5/5 1/1/1
f 8/8/8 7/7/7 6/6/6
f 7/7/7 9/9/9 6/6/6
f 6/6/6 9/9/9 10/10/10
f 9/9/9 11/11/11 10/10/10
f 10/10/10 11/11/11 12/12/12
f 11/11/11 13/13/13 12/12/12
f 12/12/12 13/13/13 14/14/14
f 13/13/13 15/15/15 14/14/14
f 14/14/14 15/15/15 16/16/16
f 15/15/15 17/17/17 16/16/16
f 20/20/20 19/19/19 18/18/18
f 19/19/19 21/21/21 18/18/18
f 18/18/18 21/21/21 22/22/22
f 19/19/19 23/23/23 21/21/21
f 20/20/20 18/18/18 24/24/24
f 24/24/24 18/18/18 22/22/22
f 25/25/25 20/20/20 24/24/24
f 23/23/23 26/26/26 21/21/21
f 21/21/21 26/26/26 22/22/22
f 23/23/23 27/27/27 26/26/26
f 25/25/25 24/24/24 28/28/28
f 28/28/28 24/24/24 22/22/22
f 29/29/29 25/25/25 28/28/28
f 27/27/27 30/30/30 26/26/26
f 26/26/26 30/30/30 22/22/22
f 27/27/27 31/31/31 30/30/30
f 29/29/29 28/28/28 32/32/32
f 32/32/32 28/28/28 22/22/22
f 33/33/33 29/29/29 32/32/32
f 30/30/30 34/34/34 22/22/22
f 31/31/31 34/34/34 30/30/30
f 34/34/34 32/32/32 22/22/22
f 31/31/31 33/33/33 34/34/34
f 33/33/33 32/32/32 34/34/34
f 37/37/37 36/36/36 35/35/35
f 36/36/36 38/38/38 35/35/35
f 37/37/37 35/35/35 39/39/39
f 36/36/36 40/40/40 38/38/38
f 40/40/40 41/41/41 38/38/38
f 42/42/42 37/37/37 39/39/39
f 42/42/42 39/39/39 43/43/43
f 44/44/44 36/36/36 37/37/37
f 44/44/44 40/40/40 36/36/36
f 45/45/45 44/44/44 37/37/37
f 45/45/45 37/37/37 42/42/42
f 44/44/44 46/46/46 40/40/40
f 40/40/40 47/47/47 41/41/41
f 46/46/46 47/47/47 40/40/40
f 47/47/47 48/48/48 41/41/41
f 46/46/46 49/49/49 47/47/47
f 50/50/50 42/42/42 43/43/43
f 45/45/45 42/42/42 50/50/50
f 50/50/50 43/43/43 51/51/51
f 52/52/52 45/45/45 50/50/50
f 47/47/47 53/53/53 48/48/48
f 49/49/49 53/53/53 47/47/47
f 53/53/53 54/54/54 48/48/48
f 55/55/55 50/50/50 51/51/51
f 52/52/52 50/50/50 55/55/55
f 52/52/52 55/55/55 49/49/49
f 55/55/55 51/51/51 54/54/54
f 53/53/53 55/55/55 54/54/54
f 49/49/49 55/55/55 53/53/53
