g wall
v -0.1348658 1.244101 1.831934
v 0.1348661 1.244101 1.831934
v 0.1348658 -1.244101 1.831934
v -0.1348661 -1.244101 1.831934
v -0.1348658 1.244101 0
v -0.1348658 1.244101 1.831934
v -0.1348661 -1.244101 1.831934
v -0.1348661 -1.244101 0
v -0.1348661 -1.244101 0
v -0.1348661 -1.244101 1.831934
v 0.1348658 -1.244101 1.831934
v 0.1348658 -1.244101 0
v 0.1348658 -1.244101 0
v 0.1348658 -1.244101 1.831934
v 0.1348661 1.244101 1.831934
v 0.1348661 1.244101 0
v 0.1348661 1.244101 0
v 0.1348661 1.244101 1.831934
v -0.1348658 1.244101 1.831934
v -0.1348658 1.244101 0
vt 4.986012 -2.537054
vt 4.986012 -2.951393
vt 1.163851 -2.951393
vt 1.163851 -2.537054
vt 1.007934 -0.1373335
vt 1.007934 -2.951393
vt -2.814227 -2.951393
vt -2.814227 -0.1373335
vt -2.814227 3.402899
vt -0.0001676828 3.402899
vt -0.0001676828 2.988559
vt -2.814227 2.988559
vt 1.007934 2.832643
vt 1.007934 0.01858256
vt -2.814227 0.01858256
vt -2.814227 2.832643
vt 1.163851 -1.914827
vt 3.977911 -1.914827
vt 3.977911 -2.329166
vt 1.163851 -2.329166
vn 0 0 1
vn 0 0 1
vn 0 0 1
vn 0 0 1
vn -1 1.111507E-07 0
vn -1 1.111507E-07 0
vn -1 1.111507E-07 0
vn -1 1.111507E-07 0
vn 0 -1 0
vn 0 -1 0
vn 0 -1 0
vn 0 -1 0
vn 1 -1.111507E-07 0
vn 1 -1.111507E-07 0
vn 1 -1.111507E-07 0
vn 1 -1.111507E-07 0
vn 0 1 0
vn 0 1 0
vn 0 1 0
vn 0 1 0
g wall_0
f 3/3/3 2/2/2 1/1/1
f 4/4/4 3/3/3 1/1/1
f 7/7/7 6/6/6 5/5/5
f 8/8/8 7/7/7 5/5/5
f 11/11/11 10/10/10 9/9/9
f 12/12/12 11/11/11 9/9/9
f 15/15/15 14/14/14 13/13/13
f 16/16/16 15/15/15 13/13/13
f 19/19/19 18/18/18 17/17/17
f 20/20/20 19/19/19 17/17/17
