g Wheel_BL
v -0.3335788 -0.1145627 -0.4663171
v -0.3813935 -0.1273746 -0.4663171
v -0.3592026 -0.1145627 -0.4663171
v -0.2985769 -0.1495652 -0.4663171
v -0.3113888 -0.1273745 -0.4663171
v -0.3592026 -0.2101916 -0.4663171
v -0.3942054 -0.175189 -0.4663171
v -0.3942054 -0.1495653 -0.4663171
v -0.3813935 -0.1973797 -0.4663171
v -0.3113888 -0.1973797 -0.4663171
v -0.3335788 -0.2101915 -0.4663171
v -0.2985769 -0.1751888 -0.4663171
v -0.3592026 -0.2101916 -0.4984599
v -0.3942054 -0.175189 -0.4984599
v -0.3813935 -0.1973797 -0.4984599
v -0.3113888 -0.1973797 -0.4984599
v -0.3335788 -0.2101915 -0.4984599
v -0.3335788 -0.1145627 -0.4984599
v -0.3813935 -0.1273746 -0.4984599
v -0.3942054 -0.1495653 -0.4984599
v -0.3592026 -0.1145627 -0.4984599
v -0.2985769 -0.1495652 -0.4984599
v -0.3113888 -0.1273745 -0.4984599
v -0.2985769 -0.1751889 -0.4984599
v -0.3813935 -0.1273746 -0.4663171
v -0.3592026 -0.1145627 -0.4984599
v -0.3592026 -0.1145627 -0.4663171
v -0.3813935 -0.1273746 -0.4984599
v -0.3942054 -0.1495653 -0.4663171
v -0.3942054 -0.1495653 -0.4984599
v -0.3942054 -0.175189 -0.4663171
v -0.3942054 -0.175189 -0.4984599
v -0.3335788 -0.1145627 -0.4984599
v -0.3592026 -0.1145627 -0.4663171
v -0.3592026 -0.1145627 -0.4984599
v -0.3335788 -0.1145627 -0.4663171
v -0.3113888 -0.1273745 -0.4984599
v -0.3113888 -0.1273745 -0.4663171
v -0.2985769 -0.1495652 -0.4984599
v -0.2985769 -0.1495652 -0.4663171
v -0.2985769 -0.1751889 -0.4984599
v -0.2985769 -0.1495652 -0.4663171
v -0.2985769 -0.1495652 -0.4984599
v -0.2985769 -0.1751888 -0.4663171
v -0.3113888 -0.1973797 -0.4984599
v -0.3113888 -0.1973797 -0.4663171
v -0.3335788 -0.2101915 -0.4984599
v -0.3335788 -0.2101915 -0.4663171
v -0.3592026 -0.2101916 -0.4984599
v -0.3335788 -0.2101915 -0.4663171
v -0.3335788 -0.2101915 -0.4984599
v -0.3592026 -0.2101916 -0.4663171
v -0.3813935 -0.1973797 -0.4984599
v -0.3813935 -0.1973797 -0.4663171
v -0.3942054 -0.175189 -0.4984599
v -0.3942054 -0.175189 -0.4663171
v -0.3630969 -0.1002999 -0.5081825
v -0.3630969 -0.1771353 -0.5081825
v -0.3331045 -0.1771353 -0.5081825
v -0.2781651 -0.1166452 -0.5081825
v -0.2781651 -0.1002999 -0.5081825
v -0.3630969 -0.1002999 -0.4579532
v -0.2781651 -0.1002999 -0.5081825
v -0.2781651 -0.1002999 -0.4579532
v -0.3630969 -0.1002999 -0.5081825
v -0.3630969 -0.1002999 -0.4579532
v -0.3331045 -0.1771353 -0.4579532
v -0.3630969 -0.1771353 -0.4579532
v -0.2781651 -0.1166452 -0.4579532
v -0.2781651 -0.1002999 -0.4579532
v -0.3333252 -0.1041053 -0.4625468
v -0.3630969 -0.1041053 -0.5035888
v -0.3630969 -0.1041053 -0.4625468
v -0.3333252 -0.1041053 -0.5035888
v -0.2781651 -0.1041053 -0.4625468
v -0.2781651 -0.1041053 -0.5035888
v -0.3630969 -0.1041053 -0.5035888
v -0.3331045 -0.1771353 -0.5035888
v -0.3630969 -0.1771353 -0.5035888
v -0.3333252 -0.1041053 -0.5035888
v -0.2781651 -0.1166452 -0.5035888
v -0.2781651 -0.1041053 -0.5035888
v -0.3333252 -0.1041053 -0.4625468
v -0.2781651 -0.1166452 -0.4625468
v -0.2781651 -0.1041053 -0.4625468
v -0.3331045 -0.1771353 -0.4625468
v -0.3630969 -0.1771353 -0.4625468
v -0.3630969 -0.1041053 -0.4625468
v -0.3630969 -0.1771353 -0.5035888
v -0.3331045 -0.1771353 -0.5081825
v -0.3630969 -0.1771353 -0.5081825
v -0.3331045 -0.1771353 -0.5035888
v -0.3630969 -0.1771353 -0.5081825
v -0.3630969 -0.1041053 -0.5035888
v -0.3630969 -0.1771353 -0.5035888
v -0.3630969 -0.1002999 -0.5081825
v -0.3630969 -0.1041053 -0.4625468
v -0.3630969 -0.1002999 -0.4579532
v -0.3630969 -0.1771353 -0.4579532
v -0.3630969 -0.1771353 -0.4625468
v -0.3331045 -0.1771353 -0.4579532
v -0.2781651 -0.1166452 -0.4625468
v -0.3331045 -0.1771353 -0.4625468
v -0.2781651 -0.1166452 -0.4579532
v -0.2781651 -0.1041053 -0.4625468
v -0.2781651 -0.1002999 -0.4579532
v -0.2781651 -0.1002999 -0.5081825
v -0.2781651 -0.1041053 -0.5035888
v -0.2781651 -0.1166452 -0.5081825
v -0.2781651 -0.1166452 -0.5035888
v -0.3331045 -0.1771353 -0.5035888
v -0.3331045 -0.1771353 -0.5081825
v -0.3331045 -0.1771353 -0.4625468
v -0.3630969 -0.1771353 -0.4579532
v -0.3331045 -0.1771353 -0.4579532
v -0.3630969 -0.1771353 -0.4625468
v -0.2929608 -0.08349078 -0.4914371
v -0.2875319 -0.1019249 -0.4820335
v -0.2875319 -0.08349078 -0.4820335
v -0.2929608 -0.1019249 -0.4914371
v -0.3038186 -0.08349078 -0.4914371
v -0.2929608 -0.1019249 -0.4914371
v -0.2929608 -0.08349078 -0.4914371
v -0.3038186 -0.1019249 -0.4914371
v -0.3092484 -0.08349078 -0.4820335
v -0.3038186 -0.1019249 -0.4914371
v -0.3038186 -0.08349078 -0.4914371
v -0.3092484 -0.1019249 -0.4820335
v -0.3038186 -0.08349078 -0.4726299
v -0.3092484 -0.1019249 -0.4820335
v -0.3092484 -0.08349078 -0.4820335
v -0.3038186 -0.1019249 -0.4726299
v -0.2929608 -0.08349078 -0.4726299
v -0.3038186 -0.1019249 -0.4726299
v -0.3038186 -0.08349078 -0.4726299
v -0.2929608 -0.1019249 -0.4726299
v -0.2875319 -0.08349078 -0.4820335
v -0.2929608 -0.1019249 -0.4726299
v -0.2929608 -0.08349078 -0.4726299
v -0.2875319 -0.1019249 -0.4820335
vt 0.3996697 0.4469159
vt 0.4009014 0.4423185
vt 0.3996697 0.4444523
vt 0.4030348 0.4502813
vt 0.4009014 0.4490494
vt 0.4088639 0.4444523
vt 0.4054985 0.4410867
vt 0.4030348 0.4410867
vt 0.4076322 0.4423185
vt 0.4076322 0.4490494
vt 0.4088639 0.4469159
vt 0.4054985 0.4502813
vt 0.387233 0.4108955
vt 0.3838677 0.4142612
vt 0.3860014 0.4130292
vt 0.3860014 0.4062984
vt 0.387233 0.4084319
vt 0.3780386 0.4084319
vt 0.3792704 0.4130292
vt 0.381404 0.4142609
vt 0.3780386 0.4108955
vt 0.381404 0.4050665
vt 0.3792704 0.4062984
vt 0.3838677 0.4050665
vt 0.413247 0.4275663
vt 0.4159486 0.4254128
vt 0.413247 0.4254128
vt 0.4159486 0.4275663
vt 0.413247 0.4297199
vt 0.4159486 0.4297199
vt 0.413247 0.4318736
vt 0.4159486 0.4318736
vt 0.4159486 0.4232594
vt 0.413247 0.4254128
vt 0.4159486 0.4254128
vt 0.413247 0.4232594
vt 0.4159486 0.4211055
vt 0.413247 0.4211055
vt 0.4159486 0.418952
vt 0.413247 0.418952
vt 0.4159486 0.4167982
vt 0.413247 0.418952
vt 0.4159486 0.418952
vt 0.413247 0.4167982
vt 0.4159486 0.4146448
vt 0.413247 0.4146448
vt 0.4159486 0.4124913
vt 0.413247 0.4124913
vt 0.4159486 0.4361808
vt 0.413247 0.4383343
vt 0.4159486 0.4383343
vt 0.413247 0.4361808
vt 0.4159486 0.4340271
vt 0.413247 0.4340271
vt 0.4159486 0.4318736
vt 0.413247 0.4318736
vt 0.3904006 0.3984857
vt 0.3830134 0.3984857
vt 0.3830134 0.4013689
vt 0.3888292 0.4066515
vt 0.3904006 0.4066515
vt 0.3952299 0.3984857
vt 0.3904006 0.4066515
vt 0.3952299 0.4066516
vt 0.3904006 0.3984857
vt 0.3952299 0.3984857
vt 0.4026174 0.4013693
vt 0.4026174 0.3984857
vt 0.3968017 0.4066516
vt 0.3952299 0.4066516
vt 0.4090805 0.4102208
vt 0.4084412 0.4093397
vt 0.4084412 0.4102208
vt 0.4090805 0.4093397
vt 0.4102647 0.4102208
vt 0.4102647 0.4093397
vt 0.4084412 0.4093397
vt 0.4090851 0.4077716
vt 0.4084412 0.4077716
vt 0.4090805 0.4093397
vt 0.4102647 0.4090704
vt 0.4102647 0.4093397
vt 0.4090805 0.4102208
vt 0.4102647 0.41049
vt 0.4102647 0.4102208
vt 0.4090851 0.4117889
vt 0.4084412 0.4117889
vt 0.4084412 0.4102208
vt 0.4113392 0.4138087
vt 0.4117812 0.4166923
vt 0.4117812 0.4138087
vt 0.4113392 0.4166923
vt 0.4117812 0.4138087
vt 0.4113392 0.406787
vt 0.4113392 0.4138087
vt 0.4117808 0.4064213
vt 0.4073934 0.406787
vt 0.4069517 0.4064213
vt 0.4069517 0.4138087
vt 0.4073934 0.4138087
vt 0.4069517 0.4166923
vt 0.4073934 0.4219745
vt 0.4073934 0.4166923
vt 0.4069517 0.4219745
vt 0.4073934 0.4231803
vt 0.4069517 0.4235461
vt 0.4117808 0.4235461
vt 0.4113392 0.4231803
vt 0.4117812 0.4219745
vt 0.4113392 0.4219745
vt 0.4113392 0.4166923
vt 0.4117812 0.4166923
vt 0.4073934 0.4166923
vt 0.4069517 0.4138087
vt 0.4069517 0.4166923
vt 0.4073934 0.4138087
vt 0.4100729 0.4147657
vt 0.4086486 0.4156048
vt 0.4100731 0.4156048
vt 0.4086485 0.414766
vt 0.4100729 0.4139269
vt 0.4086485 0.414766
vt 0.4100729 0.4147657
vt 0.4086485 0.413927
vt 0.4100729 0.413088
vt 0.4086485 0.413927
vt 0.4100729 0.4139269
vt 0.4086485 0.413088
vt 0.4100731 0.4172823
vt 0.4086486 0.4181215
vt 0.4100731 0.4181215
vt 0.4086486 0.4172823
vt 0.4100731 0.4164436
vt 0.4086486 0.4172823
vt 0.4100731 0.4172823
vt 0.4086486 0.4164436
vt 0.4100731 0.4156048
vt 0.4086486 0.4164436
vt 0.4100731 0.4164436
vt 0.4086486 0.4156048
vn 0.1959734 0.7313624 0.6532255
vn -0.5353935 0.5353956 0.6532269
vn -0.1959675 0.7313627 0.653227
vn 0.7313626 0.1959692 0.6532264
vn 0.5353966 0.5353907 0.6532284
vn -0.1959671 -0.7313628 0.6532269
vn -0.7313626 -0.1959691 0.6532265
vn -0.7313626 0.1959691 0.6532266
vn -0.5353933 -0.5353957 0.6532269
vn 0.5353976 -0.53539 0.6532281
vn 0.1959738 -0.7313622 0.6532255
vn 0.7313626 -0.1959681 0.6532268
vn -0.1959671 -0.7313627 -0.653227
vn -0.7313626 -0.1959691 -0.6532266
vn -0.5353934 -0.5353957 -0.6532268
vn 0.5353975 -0.5353901 -0.6532281
vn 0.1959738 -0.7313623 -0.6532255
vn 0.1959735 0.7313624 -0.6532254
vn -0.5353934 0.5353956 -0.653227
vn -0.7313626 0.1959691 -0.6532266
vn -0.1959675 0.7313627 -0.6532269
vn 0.7313626 0.1959691 -0.6532265
vn 0.5353966 0.5353907 -0.6532284
vn 0.7313626 -0.1959683 -0.6532267
vn -0.5353935 0.5353956 0.6532269
vn -0.1959675 0.7313627 -0.6532269
vn -0.1959675 0.7313627 0.653227
vn -0.5353934 0.5353956 -0.653227
vn -0.7313626 0.1959691 0.6532266
vn -0.7313626 0.1959691 -0.6532266
vn -0.7313626 -0.1959691 0.6532265
vn -0.7313626 -0.1959691 -0.6532266
vn 0.1959735 0.7313624 -0.6532254
vn -0.1959675 0.7313627 0.653227
vn -0.1959675 0.7313627 -0.6532269
vn 0.1959734 0.7313624 0.6532255
vn 0.5353966 0.5353907 -0.6532284
vn 0.5353966 0.5353907 0.6532284
vn 0.7313626 0.1959691 -0.6532265
vn 0.7313626 0.1959692 0.6532264
vn 0.7313626 -0.1959683 -0.6532267
vn 0.7313626 0.1959692 0.6532264
vn 0.7313626 0.1959691 -0.6532265
vn 0.7313626 -0.1959681 0.6532268
vn 0.5353975 -0.5353901 -0.6532281
vn 0.5353976 -0.53539 0.6532281
vn 0.1959738 -0.7313623 -0.6532255
vn 0.1959738 -0.7313622 0.6532255
vn -0.1959671 -0.7313627 -0.653227
vn 0.1959738 -0.7313622 0.6532255
vn 0.1959738 -0.7313623 -0.6532255
vn -0.1959671 -0.7313628 0.6532269
vn -0.5353934 -0.5353957 -0.6532268
vn -0.5353933 -0.5353957 0.6532269
vn -0.7313626 -0.1959691 -0.6532266
vn -0.7313626 -0.1959691 0.6532265
vn 0 0 -1
vn 0 0 -1
vn 0 0 -1
vn 0 0 -1
vn 0 0 -1
vn 1.12287E-07 1 0
vn 1.12287E-07 1 0
vn 1.12287E-07 1 0
vn 1.12287E-07 1 0
vn 0 0 1
vn 0 0 1
vn 0 0 1
vn 0 0 1
vn 0 0 1
vn -3.330566E-07 -1 0
vn -3.203293E-07 -1 0
vn -3.203293E-07 -1 0
vn -3.330566E-07 -1 0
vn -3.457839E-07 -1 0
vn -3.457839E-07 -1 0
vn 0 0 1
vn 0 0 1
vn 0 0 1
vn 0 0 1
vn 0 0 1
vn 0 0 1
vn 0 0 -1
vn 0 0 -1
vn 0 0 -1
vn 0 0 -1
vn 0 0 -1
vn 0 0 -1
vn 0 -1 0
vn 0.4047672 -0.9144198 0
vn 0 -1 0
vn 0.4047669 -0.9144199 0
vn -1 0 0
vn -1 0 0
vn -1 0 0
vn -1 0 0
vn -1 0 0
vn -1 0 0
vn -1 0 0
vn -1 0 0
vn 0.404767 -0.9144199 0
vn 0.9328061 -0.3603787 0
vn 0.4047672 -0.9144198 0
vn 0.932806 -0.3603788 0
vn 1 0 0
vn 1 0 0
vn 1 0 0
vn 1 0 0
vn 0.9328061 -0.3603787 0
vn 0.932806 -0.3603788 0
vn 0.4047669 -0.9144199 0
vn 0.4047672 -0.9144198 0
vn 0.4047672 -0.9144198 0
vn 0 -1 0
vn 0.404767 -0.9144199 0
vn 0 -1 0
vn 0.5000088 0 -0.8660204
vn 1 0 -8.763029E-07
vn 1 0 -8.763029E-07
vn 0.5000088 0 -0.8660204
vn -0.4999817 0 -0.8660359
vn 0.5000088 0 -0.8660204
vn 0.5000088 0 -0.8660204
vn -0.4999817 0 -0.8660359
vn -1 0 -8.763345E-07
vn -0.4999817 0 -0.8660359
vn -0.4999817 0 -0.8660359
vn -1 0 -8.763347E-07
vn -0.4999825 0 0.8660355
vn -1 0 -8.763347E-07
vn -1 0 -8.763345E-07
vn -0.4999825 0 0.8660355
vn 0.5000095 0 0.86602
vn -0.4999825 0 0.8660355
vn -0.4999825 0 0.8660355
vn 0.5000095 0 0.86602
vn 1 0 -8.763029E-07
vn 0.5000095 0 0.86602
vn 0.5000095 0 0.86602
vn 1 0 -8.763029E-07
g Wheel_BL_0
f 3/3/3 2/2/2 1/1/1
f 2/2/2 4/4/4 1/1/1
f 4/4/4 5/5/5 1/1/1
f 6/6/6 4/4/4 2/2/2
f 7/7/7 6/6/6 2/2/2
f 8/8/8 7/7/7 2/2/2
f 9/9/9 6/6/6 7/7/7
f 10/10/10 4/4/4 6/6/6
f 11/11/11 10/10/10 6/6/6
f 12/12/12 4/4/4 10/10/10
f 15/15/15 14/14/14 13/13/13
f 14/14/14 16/16/16 13/13/13
f 16/16/16 17/17/17 13/13/13
f 18/18/18 16/16/16 14/14/14
f 19/19/19 18/18/18 14/14/14
f 20/20/20 19/19/19 14/14/14
f 21/21/21 18/18/18 19/19/19
f 22/22/22 16/16/16 18/18/18
f 23/23/23 22/22/22 18/18/18
f 24/24/24 16/16/16 22/22/22
f 27/27/27 26/26/26 25/25/25
f 28/28/28 25/25/25 26/26/26
f 25/25/25 28/28/28 29/29/29
f 30/30/30 29/29/29 28/28/28
f 29/29/29 30/30/30 31/31/31
f 32/32/32 31/31/31 30/30/30
f 35/35/35 34/34/34 33/33/33
f 36/36/36 33/33/33 34/34/34
f 33/33/33 36/36/36 37/37/37
f 38/38/38 37/37/37 36/36/36
f 37/37/37 38/38/38 39/39/39
f 40/40/40 39/39/39 38/38/38
f 43/43/43 42/42/42 41/41/41
f 44/44/44 41/41/41 42/42/42
f 41/41/41 44/44/44 45/45/45
f 46/46/46 45/45/45 44/44/44
f 45/45/45 46/46/46 47/47/47
f 48/48/48 47/47/47 46/46/46
f 51/51/51 50/50/50 49/49/49
f 52/52/52 49/49/49 50/50/50
f 49/49/49 52/52/52 53/53/53
f 54/54/54 53/53/53 52/52/52
f 53/53/53 54/54/54 55/55/55
f 56/56/56 55/55/55 54/54/54
f 59/59/59 58/58/58 57/57/57
f 59/59/59 57/57/57 60/60/60
f 61/61/61 60/60/60 57/57/57
f 64/64/64 63/63/63 62/62/62
f 65/65/65 62/62/62 63/63/63
f 68/68/68 67/67/67 66/66/66
f 67/67/67 69/69/69 66/66/66
f 70/70/70 66/66/66 69/69/69
f 73/73/73 72/72/72 71/71/71
f 74/74/74 71/71/71 72/72/72
f 71/71/71 74/74/74 75/75/75
f 76/76/76 75/75/75 74/74/74
f 79/79/79 78/78/78 77/77/77
f 80/80/80 77/77/77 78/78/78
f 78/78/78 81/81/81 80/80/80
f 82/82/82 80/80/80 81/81/81
f 85/85/85 84/84/84 83/83/83
f 86/86/86 83/83/83 84/84/84
f 86/86/86 87/87/87 83/83/83
f 88/88/88 83/83/83 87/87/87
f 91/91/91 90/90/90 89/89/89
f 92/92/92 89/89/89 90/90/90
f 95/95/95 94/94/94 93/93/93
f 96/96/96 93/93/93 94/94/94
f 94/94/94 97/97/97 96/96/96
f 98/98/98 96/96/96 97/97/97
f 98/98/98 97/97/97 99/99/99
f 100/100/100 99/99/99 97/97/97
f 103/103/103 102/102/102 101/101/101
f 104/104/104 101/101/101 102/102/102
f 102/102/102 105/105/105 104/104/104
f 106/106/106 104/104/104 105/105/105
f 106/106/106 105/105/105 107/107/107
f 108/108/108 107/107/107 105/105/105
f 107/107/107 108/108/108 109/109/109
f 110/110/110 109/109/109 108/108/108
f 110/110/110 111/111/111 109/109/109
f 112/112/112 109/109/109 111/111/111
f 115/115/115 114/114/114 113/113/113
f 116/116/116 113/113/113 114/114/114
f 119/119/119 118/118/118 117/117/117
f 120/120/120 117/117/117 118/118/118
f 123/123/123 122/122/122 121/121/121
f 124/124/124 121/121/121 122/122/122
f 127/127/127 126/126/126 125/125/125
f 128/128/128 125/125/125 126/126/126
f 131/131/131 130/130/130 129/129/129
f 132/132/132 129/129/129 130/130/130
f 135/135/135 134/134/134 133/133/133
f 136/136/136 133/133/133 134/134/134
f 139/139/139 138/138/138 137/137/137
f 140/140/140 137/137/137 138/138/138
