g 对象534
v 17.44734 16.56351 1.220703E-06
v -17.44734 16.56351 1.220703E-06
v -17.44734 -16.56351 1.220703E-06
v 17.44734 -16.56351 1.220703E-06
v -45.44457 6.18614 -11.27994
v -45.44457 -11.61836 -11.27994
v -29.13409 -11.61836 -11.27994
v -29.13409 6.18614 -11.27994
v -29.12261 -7.673144 -14.70606
v -17.44734 -7.673144 -9.564928
v -17.44734 -5.335143 -9.564928
v -29.12261 -5.335143 -14.70606
v -37.10907 39.37042 -6.438091
v -37.10907 16.6433 -6.438091
v -10.16973 16.6433 -6.438091
v -10.16973 39.37042 -6.438091
v 7.393218 -40.25484 -7.532855
v 7.393218 -16.56351 -7.532855
v 2.911858 -16.56351 -7.532855
v 2.911858 -40.25484 -7.532855
v 30.61747 -19.01107 -6.778905
v 26.92092 -19.01107 -6.778905
v 26.92092 -32.8516 -6.778905
v 30.61747 -32.8516 -6.778905
v 35.06896 -19.01107 -6.778905
v 35.06896 -32.8516 -6.778905
v 30.61747 -10.36198 -6.778905
v 44.01214 -19.01107 -6.778905
v 44.01214 -32.8516 -6.778905
v 35.06896 -10.36198 -6.778905
v 30.61747 -5.910489 -6.778905
v 35.06896 -5.910489 -6.778905
v 17.44734 -10.36198 -6.778905
v 17.44734 -5.910489 -6.778905
vt -1.189252 12.83959
vt 6.463355 12.83959
vt 6.463355 5.574636
vt -1.189252 5.574636
vt 13.23719 1.879333
vt 13.23719 -2.025297
vt 8.499971 -2.025297
vt 8.499971 1.879333
vt -1.189252 0.9999366
vt 1.371204 0.9999366
vt 1.371204 0.006929159
vt -1.189252 0.006929159
vt 14.18217 11.39516
vt 14.18217 5.574636
vt 6.875517 5.574636
vt 6.875517 11.39516
vt 5.256588 4.0423
vt 0.01676625 4.0423
vt 0.01676625 5.025088
vt 5.256588 5.025088
vt 1.707972 2.136801
vt 1.707972 2.947478
vt 7.950423 2.947478
vt 7.950423 2.136801
vt 1.707972 1.160564
vt 7.950423 1.160564
vt -0.2130136 2.136801
vt 1.707972 -2.025297
vt 7.950423 -2.025297
vt -0.2130136 1.160564
vt -1.189252 2.136801
vt -1.189252 1.160564
vt -0.2130136 5.025088
vt -1.189252 5.025088
vn 0 0 -1
vn 0 0 -1
vn 0 0 -1
vn 0 0 -1
vn 0 0 -1
vn 0 0 -1
vn 0 0 -1
vn 0 0 -1
vn 0.4030023 0 -0.915199
vn 0.4030023 0 -0.915199
vn 0.4030023 0 -0.915199
vn 0.4030023 0 -0.915199
vn 0 0 -1
vn 0 0 -1
vn 0 0 -1
vn 0 0 -1
vn 0 0 -1
vn 0 0 -1
vn 0 0 -1
vn 0 0 -1
vn 0 0 -1
vn 0 0 -1
vn 0 0 -1
vn 0 0 -1
vn 0 0 -1
vn 0 0 -1
vn 0 0 -1
vn 0 0 -1
vn 0 0 -1
vn 0 0 -1
vn 0 0 -1
vn 0 0 -1
vn 0 0 -1
vn 0 0 -1
g 对象534_0
f 3/3/3 2/2/2 1/1/1
f 4/4/4 3/3/3 1/1/1
f 7/7/7 6/6/6 5/5/5
f 8/8/8 7/7/7 5/5/5
f 11/11/11 10/10/10 9/9/9
f 12/12/12 11/11/11 9/9/9
f 15/15/15 14/14/14 13/13/13
f 16/16/16 15/15/15 13/13/13
f 19/19/19 18/18/18 17/17/17
f 20/20/20 19/19/19 17/17/17
f 23/23/23 22/22/22 21/21/21
f 24/24/24 23/23/23 21/21/21
f 24/24/24 21/21/21 25/25/25
f 26/26/26 24/24/24 25/25/25
f 21/21/21 27/27/27 25/25/25
f 26/26/26 25/25/25 28/28/28
f 29/29/29 26/26/26 28/28/28
f 27/27/27 30/30/30 25/25/25
f 27/27/27 31/31/31 30/30/30
f 31/31/31 32/32/32 30/30/30
f 27/27/27 33/33/33 31/31/31
f 33/33/33 34/34/34 31/31/31
