g 对象003
v 1.907349E-08 0.2568909 5.054474E-07
v 0.01088869 0.2508729 0.0149835
v 1.907349E-08 0.2508729 0.0185205
v -0.01087889 0.2508729 0.0149835
v 1.907349E-08 0.2508729 -0.0185205
v 0.01088869 0.2508729 -0.0149835
v -0.01087889 0.2508729 -0.0149835
v 1.907349E-08 0.2351189 -0.0299665
v 0.01088869 0.2508729 -0.0149835
v 1.907349E-08 0.2508729 -0.0185205
v 0.01761721 0.2351189 -0.0242435
v 1.907349E-08 0.2156449 -0.0299665
v 0.01761721 0.2508729 -0.005722494
v 1.907349E-08 0.2568909 5.054474E-07
v 0.01761721 0.2156449 -0.0242435
v 1.907349E-08 0.1998909 -0.0185205
v 0.01088869 0.1998909 -0.0149835
v 0.01761721 0.2508729 0.005723505
v 0.01088869 0.2508729 0.0149835
v 0.02850588 0.2351189 -0.009259496
v 0.02850588 0.2156449 -0.009259496
v 0.02850588 0.2351189 0.009260504
v 0.01761721 0.1998909 -0.005722494
v 1.907349E-08 0.1938729 5.054474E-07
v 0.01761721 0.2351189 0.0242435
v 1.907349E-08 0.2508729 0.0185205
v 1.907349E-08 0.2351189 0.0299675
v 0.02850588 0.2156449 0.009260504
v 0.01761721 0.1998909 0.005723505
v 0.01088869 0.1998909 0.0149835
v 0.01761721 0.2156449 0.0242435
v 1.907349E-08 0.2156449 0.0299675
v 1.907349E-08 0.1998909 0.0185205
v 1.907349E-08 0.2351189 0.0299675
v -0.01087889 0.2508729 0.0149835
v 1.907349E-08 0.2508729 0.0185205
v -0.0176074 0.235119 0.0242435
v 1.907349E-08 0.2156449 0.0299675
v -0.0176074 0.250873 0.005723505
v 1.907349E-08 0.2568909 5.054474E-07
v -0.0176074 0.215645 0.0242435
v 1.907349E-08 0.1998909 0.0185205
v -0.01087889 0.1998909 0.0149835
v -0.0176074 0.250873 -0.005722494
v -0.01087889 0.2508729 -0.0149835
v -0.02849607 0.235119 0.009260504
v -0.02849607 0.215645 0.009260504
v -0.02849607 0.235119 -0.009259496
v -0.0176074 0.199891 0.005723505
v 1.907349E-08 0.1938729 5.054474E-07
v -0.0176074 0.235119 -0.0242435
v 1.907349E-08 0.2508729 -0.0185205
v 1.907349E-08 0.2351189 -0.0299665
v -0.02849607 0.215645 -0.009259496
v -0.0176074 0.199891 -0.005722494
v -0.01087889 0.1998909 -0.0149835
v -0.0176074 0.215645 -0.0242435
v 1.907349E-08 0.2156449 -0.0299665
v 1.907349E-08 0.1998909 -0.0185205
v 1.907349E-08 0.1938729 5.054474E-07
v 1.907349E-08 0.1998909 0.0185205
v 0.01088869 0.1998909 0.0149835
v -0.01087889 0.1998909 0.0149835
v 0.01088869 0.1998909 -0.0149835
v 1.907349E-08 0.1998909 -0.0185205
v -0.01087889 0.1998909 -0.0149835
v 0.01607424 0.0315419 5.054474E-07
v 0.01607424 0.205864 5.054474E-07
v 0.01136721 0.205864 -0.01136549
v 0.01136721 0.0315419 -0.01136549
v 0.01136721 0.0315419 -0.01136549
v 0.01136721 0.205864 -0.01136549
v 1.907349E-08 0.205864 -0.0160725
v 1.907349E-08 0.0315419 -0.0160725
v 1.907349E-08 0.0315419 -0.0160725
v 1.907349E-08 0.205864 -0.0160725
v -0.0113574 0.205864 -0.01136549
v -0.0113574 0.0315419 -0.01136549
v -0.01606443 0.205864 5.054474E-07
v -0.01606443 0.03154198 5.054474E-07
v -0.01606443 0.03154198 5.054474E-07
v -0.01606443 0.205864 5.054474E-07
v -0.0113574 0.205864 0.0113655
v -0.0113574 0.0315419 0.0113655
v 1.907349E-08 0.205864 0.0160725
v 1.907349E-08 0.0315419 0.0160725
v 1.907349E-08 0.0315419 0.0160725
v 1.907349E-08 0.205864 0.0160725
v 0.01136721 0.205864 0.0113655
v 0.01136721 0.0315419 0.0113655
v 0.01136721 0.0315419 0.0113655
v 0.01136721 0.205864 0.0113655
v 0.01607424 0.205864 5.054474E-07
v 0.01607424 0.0315419 5.054474E-07
v 0.0252051 0.03715897 -0.02699749
v -0.02542967 0.01419304 -0.0436835
v 0.0252051 0.01419296 -0.0436835
v -0.02542967 0.03715904 -0.02699749
v 0.0252051 0.04593094 5.054474E-07
v -0.02542967 0.04593102 5.054474E-07
v 0.0252051 0.03715897 0.0269975
v -0.02542967 0.03715904 0.0269975
v 0.0252051 0.01419296 0.0436835
v -0.02542967 0.01419304 0.0436835
v 0.0252051 0.01419296 -0.0436835
v -0.02542967 0.01419304 -0.0436835
v -0.02542967 -0.01419395 -0.0436835
v 0.0252051 -0.01419403 -0.0436835
v 0.0252051 -0.01419403 -0.0436835
v -0.02542967 -0.01419395 -0.0436835
v -0.02542967 -0.03715897 -0.02699749
v 0.0252051 -0.03715904 -0.02699749
v -0.02542967 -0.04593102 5.054474E-07
v 0.0252051 -0.04593109 5.054474E-07
v -0.02542967 -0.03715897 0.0269975
v 0.0252051 -0.03715904 0.0269975
v -0.02542967 -0.01419395 0.0436835
v 0.0252051 -0.01419403 0.0436835
v 0.0252051 -0.01419403 0.0436835
v -0.02542967 -0.01419395 0.0436835
v -0.02542967 0.01419304 0.0436835
v 0.0252051 0.01419296 0.0436835
v 0.0252051 0.03715897 -0.02699749
v 0.0252051 -7.629394E-08 5.054474E-07
v 0.0252051 0.04593094 5.054474E-07
v 0.0252051 0.01419296 -0.0436835
v 0.0252051 0.03715897 0.0269975
v 0.0252051 -0.01419403 -0.0436835
v 0.0252051 0.01419296 0.0436835
v 0.0252051 -0.03715904 -0.02699749
v 0.0252051 -0.01419403 0.0436835
v 0.0252051 -0.04593109 5.054474E-07
v 0.0252051 -0.03715904 0.0269975
v -0.02542967 0.04593102 5.054474E-07
v -0.02542967 0 5.054474E-07
v -0.02542967 0.03715904 -0.02699749
v -0.02542967 0.03715904 0.0269975
v -0.02542967 0.01419304 -0.0436835
v -0.02542967 0.01419304 0.0436835
v -0.02542967 -0.01419395 -0.0436835
v -0.02542967 -0.01419395 0.0436835
v -0.02542967 -0.03715897 -0.02699749
v -0.02542967 -0.03715897 0.0269975
v -0.02542967 -0.04593102 5.054474E-07
vt 0.1590534 0.9903505
vt 0.1559751 0.9881134
vt 0.1552484 0.9903505
vt 0.1559751 0.9925856
vt 0.1628585 0.9903505
vt 0.1621318 0.9881134
vt 0.1621318 0.9925856
vt 0.1403688 0.9901739
vt 0.1372905 0.9934107
vt 0.1380172 0.9934107
vt 0.139193 0.9901739
vt 0.1403688 0.986173
vt 0.1353878 0.9934107
vt 0.134212 0.994647
vt 0.139193 0.986173
vt 0.1380172 0.9829363
vt 0.1372905 0.9829363
vt 0.1330362 0.9934107
vt 0.1311338 0.9934107
vt 0.1361145 0.9901739
vt 0.1361145 0.986173
vt 0.1323095 0.9901739
vt 0.1353878 0.9829363
vt 0.134212 0.9816999
vt 0.1292313 0.9901739
vt 0.1304071 0.9934107
vt 0.1280553 0.9901739
vt 0.1323095 0.986173
vt 0.1330362 0.9829363
vt 0.1311338 0.9829363
vt 0.1292313 0.986173
vt 0.1280553 0.986173
vt 0.1304071 0.9829363
vt 0.5164874 0.9014563
vt 0.519724 0.9045348
vt 0.519724 0.9038081
vt 0.5164874 0.9026323
vt 0.5124863 0.9014563
vt 0.519724 0.9064372
vt 0.5209605 0.907613
vt 0.5124863 0.9026323
vt 0.5092496 0.9038081
vt 0.5092496 0.9045348
vt 0.519724 0.9087889
vt 0.519724 0.9106914
vt 0.5164874 0.9057105
vt 0.5124863 0.9057105
vt 0.5164874 0.9095156
vt 0.5092496 0.9064372
vt 0.5080132 0.907613
vt 0.5164874 0.912594
vt 0.519724 0.9114181
vt 0.5164874 0.9137698
vt 0.5124863 0.9095156
vt 0.5092496 0.9087889
vt 0.5092496 0.9106914
vt 0.5124863 0.912594
vt 0.5124863 0.9137698
vt 0.5092496 0.9114181
vt 0.1783554 0.9903485
vt 0.1745504 0.9903485
vt 0.1752771 0.9925856
vt 0.1752771 0.9881134
vt 0.1814339 0.9925856
vt 0.1821605 0.9903485
vt 0.1814339 0.9881134
vt 0.08868006 0.9801649
vt 0.05286542 0.9801649
vt 0.05286542 0.9811319
vt 0.08868006 0.9811319
vt 0.08868006 0.9811319
vt 0.05286542 0.9811319
vt 0.05286542 0.9834673
vt 0.08868006 0.9834673
vt 0.08868006 0.9834673
vt 0.05286542 0.9834673
vt 0.05286542 0.9858007
vt 0.08868006 0.9858007
vt 0.05286542 0.9867678
vt 0.08868006 0.9867678
vt 0.05286542 0.9947231
vt 0.08868006 0.9947231
vt 0.08868006 0.9937561
vt 0.05286542 0.9937561
vt 0.08868006 0.9914227
vt 0.05286542 0.9914227
vt 0.05286542 0.9914227
vt 0.08868006 0.9914227
vt 0.08868006 0.9890873
vt 0.05286542 0.9890873
vt 0.05286542 0.9890873
vt 0.08868006 0.9890873
vt 0.08868006 0.9881202
vt 0.05286542 0.9881202
vt 0.01990157 0.9825772
vt 0.02332973 0.9929802
vt 0.02332973 0.9825772
vt 0.01990157 0.9929802
vt 0.01435483 0.9825772
vt 0.01435483 0.9929802
vt 0.008808255 0.9825772
vt 0.008808255 0.9929802
vt 0.005380094 0.9825772
vt 0.005380094 0.9929802
vt 0.09003237 0.9947231
vt 0.1004354 0.9947231
vt 0.1004354 0.988891
vt 0.09003237 0.988891
vt 0.0426318 0.9929802
vt 0.0426318 0.9825772
vt 0.03920364 0.9825772
vt 0.03920364 0.9929802
vt 0.03365684 0.9825772
vt 0.03365684 0.9929802
vt 0.02811033 0.9825772
vt 0.02811033 0.9929802
vt 0.02468216 0.9825772
vt 0.02468216 0.9929802
vt 0.09003237 0.9867678
vt 0.1004354 0.9867678
vt 0.1004354 0.9809357
vt 0.09003237 0.9809357
vt 0.543439 0.9159778
vt 0.5510733 0.910431
vt 0.5416367 0.910431
vt 0.5481573 0.9194059
vt 0.543439 0.9048844
vt 0.5539895 0.9194059
vt 0.5481573 0.9014563
vt 0.5587077 0.9159778
vt 0.5539895 0.9014563
vt 0.5605099 0.910431
vt 0.5587077 0.9048844
vt 0.5407351 0.910431
vt 0.5312985 0.910431
vt 0.5389329 0.9159778
vt 0.5389329 0.9048844
vt 0.5342145 0.9194059
vt 0.5342145 0.9014563
vt 0.5283824 0.9194059
vt 0.5283824 0.9014563
vt 0.5236642 0.9159778
vt 0.5236642 0.9048844
vt 0.521862 0.910431
vn -7.881974E-05 1 7.475094E-06
vn 0.3674518 0.7804573 0.5058315
vn -7.08725E-05 0.7804464 0.6252227
vn -0.3675131 0.7804406 0.5058128
vn -7.086772E-05 0.7804412 -0.6252292
vn 0.3674558 0.780457 -0.5058293
vn -0.367517 0.7804402 -0.5058106
vn -8.09678E-05 0.2924848 -0.9562702
vn 0.3674558 0.780457 -0.5058293
vn -7.086772E-05 0.7804412 -0.6252292
vn 0.5620278 0.2924973 -0.7736731
vn -8.161954E-05 -0.2924851 -0.9562701
vn 0.5945675 0.7804871 -0.1932081
vn -7.881974E-05 1 7.475094E-06
vn 0.5620278 -0.2924973 -0.7736731
vn -7.183998E-05 -0.780441 -0.6252296
vn 0.3674558 -0.7804569 -0.5058294
vn 0.5945648 0.7804859 0.1932218
vn 0.3674518 0.7804573 0.5058315
vn 0.9094456 0.2925224 -0.2955323
vn 0.9094456 -0.2925224 -0.2955324
vn 0.9094406 0.2925228 0.2955475
vn 0.5945675 -0.7804872 -0.1932081
vn -8.162564E-05 -1 7.477741E-06
vn 0.5620304 0.2925013 0.7736696
vn -7.08725E-05 0.7804464 0.6252227
vn -8.096464E-05 0.2924937 0.9562675
vn 0.9094406 -0.2925229 0.2955475
vn 0.5945647 -0.7804857 0.1932218
vn 0.3674518 -0.7804573 0.5058315
vn 0.5620305 -0.2925014 0.7736696
vn -8.162745E-05 -0.292494 0.9562674
vn -7.185533E-05 -0.7804461 0.6252231
vn -8.096464E-05 0.2924937 0.9562675
vn -0.3675131 0.7804406 0.5058128
vn -7.08725E-05 0.7804464 0.6252227
vn -0.562096 0.2924996 0.7736227
vn -8.162745E-05 -0.292494 0.9562674
vn -0.5946066 0.7804493 0.1932407
vn -7.881974E-05 1 7.475094E-06
vn -0.5620974 -0.2924979 0.7736224
vn -7.185533E-05 -0.7804461 0.6252231
vn -0.3675167 -0.7804403 0.5058107
vn -0.5946094 0.7804506 -0.1932269
vn -0.367517 0.7804402 -0.5058106
vn -0.9094404 0.2925232 0.2955477
vn -0.9094407 -0.2925226 0.2955471
vn -0.9094454 0.2925226 -0.2955327
vn -0.594611 -0.7804464 0.1932387
vn -8.162564E-05 -1 7.477741E-06
vn -0.5620934 0.2924956 -0.7736261
vn -7.086772E-05 0.7804412 -0.6252292
vn -8.09678E-05 0.2924848 -0.9562702
vn -0.9094458 -0.2925221 -0.2955322
vn -0.5946139 -0.7804477 -0.1932249
vn -0.3675207 -0.7804398 -0.5058084
vn -0.5620946 -0.2924939 -0.7736258
vn -8.161954E-05 -0.2924851 -0.9562701
vn -7.183998E-05 -0.780441 -0.6252296
vn -8.162564E-05 -1 7.477741E-06
vn -7.185533E-05 -0.7804461 0.6252231
vn 0.3674518 -0.7804573 0.5058315
vn -0.3675167 -0.7804403 0.5058107
vn 0.3674558 -0.7804569 -0.5058294
vn -7.183998E-05 -0.780441 -0.6252296
vn -0.3675207 -0.7804398 -0.5058084
vn 1 0 1.556591E-05
vn 1 0 1.556591E-05
vn 0.923906 0 -0.3826196
vn 0.923906 0 -0.3826196
vn 0.3825835 0 -0.9239209
vn 0.3825835 0 -0.9239209
vn 0.3825835 0 -0.9239209
vn 0.3825835 0 -0.9239209
vn -0.3828643 0 -0.9238046
vn -0.3828643 0 -0.9238046
vn -0.707201 0 -0.7070125
vn -0.7071998 0 -0.7070137
vn -1 0 1.558651E-05
vn -1 0 1.558638E-05
vn -1 0 1.558638E-05
vn -1 0 1.558651E-05
vn -0.70719 0 0.7070236
vn -0.7071888 0 0.7070248
vn -0.3828641 0 0.9238048
vn -0.3828641 0 0.9238048
vn 0.3825833 0 0.9239209
vn 0.3825833 0 0.9239209
vn 0.3825833 0 0.9239209
vn 0.3825833 0 0.9239209
vn 0.923894 0 0.3826484
vn 0.923894 0 0.3826484
vn 1 0 1.556591E-05
vn 1 0 1.556591E-05
vn 1.216474E-06 0.8090209 -0.5877799
vn 4.621702E-07 0.3090203 -0.9510555
vn 4.621693E-07 0.3090198 -0.9510556
vn 1.216474E-06 0.8090211 -0.5877797
vn 1.508634E-06 1 5.456082E-06
vn 1.508634E-06 1 5.456085E-06
vn 1.216497E-06 0.8090176 0.5877844
vn 1.216497E-06 0.8090178 0.5877841
vn 4.621693E-07 0.3090197 0.9510556
vn 4.621702E-07 0.3090203 0.9510555
vn 4.621693E-07 0.3090198 -0.9510556
vn 4.621702E-07 0.3090203 -0.9510555
vn -4.66544E-07 -0.3090296 -0.9510524
vn -4.665449E-07 -0.3090301 -0.9510522
vn -4.665449E-07 -0.3090301 -0.9510522
vn -4.66544E-07 -0.3090296 -0.9510524
vn -1.216482E-06 -0.8090262 -0.5877727
vn -1.216482E-06 -0.8090264 -0.5877724
vn -1.504274E-06 -1 5.436138E-06
vn -1.504274E-06 -1 5.43614E-06
vn -1.220865E-06 -0.8090229 0.5877771
vn -1.220865E-06 -0.8090231 0.5877768
vn -4.665442E-07 -0.3090295 0.9510525
vn -4.66545E-07 -0.30903 0.9510524
vn -4.66545E-07 -0.30903 0.9510524
vn -4.665442E-07 -0.3090295 0.9510525
vn 4.621702E-07 0.3090203 0.9510555
vn 4.621693E-07 0.3090197 0.9510556
vn 1 0 0
vn 1 0 0
vn 1 0 0
vn 1 0 0
vn 1 0 0
vn 1 0 0
vn 1 0 0
vn 1 0 0
vn 1 0 0
vn 1 0 0
vn 1 0 0
vn -1 0 0
vn -1 0 0
vn -1 0 0
vn -1 0 0
vn -1 0 0
vn -1 0 0
vn -1 0 0
vn -1 0 0
vn -1 0 0
vn -1 0 0
vn -1 0 0
g 对象003_0
f 3/3/3 2/2/2 1/1/1
f 4/4/4 3/3/3 1/1/1
f 6/6/6 5/5/5 1/1/1
f 5/5/5 7/7/7 1/1/1
f 10/10/10 9/9/9 8/8/8
f 9/9/9 11/11/11 8/8/8
f 8/8/8 11/11/11 12/12/12
f 9/9/9 13/13/13 11/11/11
f 13/13/13 9/9/9 14/14/14
f 11/11/11 15/15/15 12/12/12
f 12/12/12 15/15/15 16/16/16
f 15/15/15 17/17/17 16/16/16
f 18/18/18 13/13/13 14/14/14
f 19/19/19 18/18/18 14/14/14
f 13/13/13 20/20/20 11/11/11
f 11/11/11 20/20/20 15/15/15
f 13/13/13 18/18/18 20/20/20
f 15/15/15 21/21/21 17/17/17
f 20/20/20 21/21/21 15/15/15
f 18/18/18 22/22/22 20/20/20
f 18/18/18 19/19/19 22/22/22
f 20/20/20 22/22/22 21/21/21
f 21/21/21 23/23/23 17/17/17
f 17/17/17 23/23/23 24/24/24
f 19/19/19 25/25/25 22/22/22
f 19/19/19 26/26/26 25/25/25
f 26/26/26 27/27/27 25/25/25
f 22/22/22 28/28/28 21/21/21
f 21/21/21 28/28/28 23/23/23
f 22/22/22 25/25/25 28/28/28
f 23/23/23 29/29/29 24/24/24
f 28/28/28 29/29/29 23/23/23
f 29/29/29 30/30/30 24/24/24
f 25/25/25 27/27/27 31/31/31
f 25/25/25 31/31/31 28/28/28
f 28/28/28 31/31/31 29/29/29
f 31/31/31 30/30/30 29/29/29
f 27/27/27 32/32/32 31/31/31
f 31/31/31 32/32/32 30/30/30
f 32/32/32 33/33/33 30/30/30
f 36/36/36 35/35/35 34/34/34
f 35/35/35 37/37/37 34/34/34
f 34/34/34 37/37/37 38/38/38
f 35/35/35 39/39/39 37/37/37
f 39/39/39 35/35/35 40/40/40
f 37/37/37 41/41/41 38/38/38
f 38/38/38 41/41/41 42/42/42
f 41/41/41 43/43/43 42/42/42
f 44/44/44 39/39/39 40/40/40
f 45/45/45 44/44/44 40/40/40
f 39/39/39 46/46/46 37/37/37
f 37/37/37 46/46/46 41/41/41
f 39/39/39 44/44/44 46/46/46
f 41/41/41 47/47/47 43/43/43
f 46/46/46 47/47/47 41/41/41
f 44/44/44 48/48/48 46/46/46
f 44/44/44 45/45/45 48/48/48
f 46/46/46 48/48/48 47/47/47
f 47/47/47 49/49/49 43/43/43
f 43/43/43 49/49/49 50/50/50
f 45/45/45 51/51/51 48/48/48
f 45/45/45 52/52/52 51/51/51
f 52/52/52 53/53/53 51/51/51
f 48/48/48 54/54/54 47/47/47
f 47/47/47 54/54/54 49/49/49
f 48/48/48 51/51/51 54/54/54
f 49/49/49 55/55/55 50/50/50
f 54/54/54 55/55/55 49/49/49
f 55/55/55 56/56/56 50/50/50
f 51/51/51 53/53/53 57/57/57
f 51/51/51 57/57/57 54/54/54
f 54/54/54 57/57/57 55/55/55
f 57/57/57 56/56/56 55/55/55
f 53/53/53 58/58/58 57/57/57
f 57/57/57 58/58/58 56/56/56
f 58/58/58 59/59/59 56/56/56
f 62/62/62 61/61/61 60/60/60
f 61/61/61 63/63/63 60/60/60
f 65/65/65 64/64/64 60/60/60
f 66/66/66 65/65/65 60/60/60
f 69/69/69 68/68/68 67/67/67
f 70/70/70 69/69/69 67/67/67
f 73/73/73 72/72/72 71/71/71
f 74/74/74 73/73/73 71/71/71
f 77/77/77 76/76/76 75/75/75
f 78/78/78 77/77/77 75/75/75
f 79/79/79 77/77/77 78/78/78
f 80/80/80 79/79/79 78/78/78
f 83/83/83 82/82/82 81/81/81
f 84/84/84 83/83/83 81/81/81
f 85/85/85 83/83/83 84/84/84
f 86/86/86 85/85/85 84/84/84
f 89/89/89 88/88/88 87/87/87
f 90/90/90 89/89/89 87/87/87
f 93/93/93 92/92/92 91/91/91
f 94/94/94 93/93/93 91/91/91
f 97/97/97 96/96/96 95/95/95
f 96/96/96 98/98/98 95/95/95
f 95/95/95 98/98/98 99/99/99
f 98/98/98 100/100/100 99/99/99
f 99/99/99 100/100/100 101/101/101
f 100/100/100 102/102/102 101/101/101
f 101/101/101 102/102/102 103/103/103
f 102/102/102 104/104/104 103/103/103
f 107/107/107 106/106/106 105/105/105
f 108/108/108 107/107/107 105/105/105
f 111/111/111 110/110/110 109/109/109
f 112/112/112 111/111/111 109/109/109
f 113/113/113 111/111/111 112/112/112
f 114/114/114 113/113/113 112/112/112
f 115/115/115 113/113/113 114/114/114
f 116/116/116 115/115/115 114/114/114
f 117/117/117 115/115/115 116/116/116
f 118/118/118 117/117/117 116/116/116
f 121/121/121 120/120/120 119/119/119
f 122/122/122 121/121/121 119/119/119
f 125/125/125 124/124/124 123/123/123
f 123/123/123 124/124/124 126/126/126
f 127/127/127 124/124/124 125/125/125
f 126/126/126 124/124/124 128/128/128
f 129/129/129 124/124/124 127/127/127
f 128/128/128 124/124/124 130/130/130
f 131/131/131 124/124/124 129/129/129
f 130/130/130 124/124/124 132/132/132
f 133/133/133 124/124/124 131/131/131
f 132/132/132 124/124/124 133/133/133
f 136/136/136 135/135/135 134/134/134
f 134/134/134 135/135/135 137/137/137
f 138/138/138 135/135/135 136/136/136
f 137/137/137 135/135/135 139/139/139
f 140/140/140 135/135/135 138/138/138
f 139/139/139 135/135/135 141/141/141
f 142/142/142 135/135/135 140/140/140
f 141/141/141 135/135/135 143/143/143
f 144/144/144 135/135/135 142/142/142
f 143/143/143 135/135/135 144/144/144
