g 对象541
v 1.229331 10.03044 -5.867768
v -2.182407 10.03044 -5.867768
v -2.182407 -1.136858 0
v 1.229331 -1.136858 0
v 1.229331 -9.283813 0
v 1.229331 -1.136858 0
v -2.182407 -1.136858 0
v -2.182407 -9.283813 0
v 1.229331 -11.97388 0
v -9.390852 -1.136858 0
v -2.182407 -11.97388 0
v 1.229331 -12.04526 0
v -9.390853 -9.283813 0
v -12.18194 -9.283813 0
v -9.390853 -11.97388 0
v -12.18194 -1.136858 0
v -2.182407 -12.04526 0
v 1.229331 -15.12485 0
v -2.182407 -15.12485 0
v -9.390853 -12.04526 0
v -12.18194 -12.04526 0
v -12.18194 -11.97388 0
v -17.36156 -12.04526 0
v -17.36156 -11.97387 0
v -17.36156 -9.283813 0
v -17.36156 -1.136858 0
v 1.229328 10.03044 -5.867768
v 1.229326 10.03044 -8.451674
v -2.182408 10.03044 -8.451674
v -2.182408 10.03044 -5.867768
v -2.182408 10.03044 -8.451674
v 1.229326 10.03044 -8.451674
v 1.229326 16.52499 -8.451674
v -2.182408 16.52499 -8.451674
v -2.182408 26.49632 -8.451674
v 1.229327 26.49632 -8.451674
v -12.67562 16.52499 -8.451674
v -12.67562 26.49632 -8.451674
v 5.925382 24.08027 2.189072
v 5.925369 7.500794 2.189072
v 6.983667 7.500791 2.189072
v 6.98368 24.08027 2.189072
v 10.28761 24.08027 2.189072
v 10.2876 7.500788 2.189072
v 6.98368 34.79696 2.189072
v 11.29427 24.08027 2.189072
v 11.29426 7.500783 2.189072
v 10.28761 34.79696 2.189072
v 6.98368 48.64185 2.189072
v 10.28761 48.64184 2.189072
v 20.91033 48.64184 2.189072
v 20.91033 34.79696 2.189072
v -8.773638 -9.283813 12.28857
v -14.52705 -9.283813 12.28857
v -14.52706 -16.72159 12.28857
v -8.773639 -16.72159 12.28857
vt -1.015892 -0.3085271
vt -1.015892 0.002921447
vt 0.003540453 0.002921447
vt 0.003540453 -0.3085271
vt 0.8400116 -0.3085271
vt 0.003540453 -0.3085271
vt 0.003540453 0.002921447
vt 0.8400116 0.002921447
vt 0.865504 -0.3085271
vt 0.003540453 0.2246277
vt 0.865504 0.002921447
vt 0.9993395 -0.3085271
vt 0.8400116 0.2246277
vt 0.8400116 0.410861
vt 0.865504 0.2246277
vt 0.003540453 0.410861
vt 0.9993395 0.002921447
vt 1.280467 -0.3085271
vt 1.280467 0.002921447
vt 0.9993395 0.2246277
vt 0.9993395 0.410861
vt 0.865504 0.410861
vt 0.9993395 1.388586
vt 0.865504 1.388586
vt 0.8400116 1.388586
vt 0.003540453 1.388586
vt 2.675158 0.9608184
vt 2.675158 0.7249405
vt 2.36371 0.7249405
vt 2.36371 0.9608184
vt 2.913486 0.002921224
vt 2.913486 -0.3085269
vt 2.320616 -0.3085269
vt 2.320616 0.002921224
vt 1.412749 0.002921224
vt 1.412749 -0.3085269
vt 2.320616 0.9608184
vt 1.412749 0.9608184
vt 1.169499 -0.5022755
vt 2.682995 -0.5017179
vt 2.683032 -0.598327
vt 1.169535 -0.5988846
vt 1.169646 -0.9004915
vt 2.683142 -0.8999339
vt 0.1912368 -0.5992442
vt 1.16968 -0.9923866
vt 2.683177 -0.9918292
vt 0.1913478 -0.9008512
vt -1.072625 -0.5997087
vt -1.072514 -0.9013157
vt -1.072157 -1.871035
vt 0.1917043 -1.870571
vt 0.07730987 0.03880988
vt 0.07730987 1.734883
vt 1.965966 1.734883
vt 1.965966 0.03881026
vn 0 -0.4651408 -0.8852367
vn 0 -0.4651408 -0.8852367
vn 0 -0.4651408 -0.8852367
vn 0 -0.4651408 -0.8852367
vn 0 0 -1
vn 0 0 -1
vn 0 0 -1
vn 0 0 -1
vn 0 0 -1
vn 0 0 -1
vn 0 0 -1
vn 0 0 -1
vn 0 0 -1
vn 0 0 -1
vn 0 0 -1
vn 0 0 -1
vn 0 0 -1
vn 0 0 -1
vn 0 0 -1
vn 0 0 -1
vn 0 0 -1
vn 0 0 -1
vn 0 0 -1
vn 0 0 -1
vn 0 0 -1
vn 0 0 -1
vn -1.788977E-07 -1 0
vn -1.788977E-07 -1 0
vn -1.788977E-07 -1 0
vn -1.788977E-07 -1 0
vn 0 0 -1
vn 0 0 -1
vn 0 0 -1
vn 0 0 -1
vn 0 0 -1
vn 0 0 -1
vn 0 0 -1
vn 0 0 -1
vn 0 0 -1
vn 0 0 -1
vn 0 0 -1
vn 0 0 -1
vn 0 0 -1
vn 0 0 -1
vn 0 0 -1
vn 0 0 -1
vn 0 0 -1
vn 0 0 -1
vn 0 0 -1
vn 0 0 -1
vn 0 0 -1
vn 0 0 -1
vn 0 0 -1
vn 0 0 -1
vn 0 0 -1
vn 0 0 -1
g 对象541_0
f 3/3/3 2/2/2 1/1/1
f 4/4/4 3/3/3 1/1/1
f 7/7/7 6/6/6 5/5/5
f 8/8/8 7/7/7 5/5/5
f 8/8/8 5/5/5 9/9/9
f 10/10/10 7/7/7 8/8/8
f 11/11/11 8/8/8 9/9/9
f 11/11/11 9/9/9 12/12/12
f 13/13/13 10/10/10 8/8/8
f 13/13/13 8/8/8 11/11/11
f 10/10/10 13/13/13 14/14/14
f 15/15/15 13/13/13 11/11/11
f 16/16/16 10/10/10 14/14/14
f 17/17/17 11/11/11 12/12/12
f 15/15/15 11/11/11 17/17/17
f 17/17/17 12/12/12 18/18/18
f 19/19/19 17/17/17 18/18/18
f 20/20/20 15/15/15 17/17/17
f 15/15/15 20/20/20 21/21/21
f 22/22/22 15/15/15 21/21/21
f 22/22/22 21/21/21 23/23/23
f 24/24/24 22/22/22 23/23/23
f 14/14/14 22/22/22 24/24/24
f 25/25/25 14/14/14 24/24/24
f 16/16/16 14/14/14 25/25/25
f 26/26/26 16/16/16 25/25/25
f 29/29/29 28/28/28 27/27/27
f 30/30/30 29/29/29 27/27/27
f 33/33/33 32/32/32 31/31/31
f 34/34/34 33/33/33 31/31/31
f 33/33/33 34/34/34 35/35/35
f 36/36/36 33/33/33 35/35/35
f 34/34/34 37/37/37 35/35/35
f 37/37/37 38/38/38 35/35/35
f 41/41/41 40/40/40 39/39/39
f 42/42/42 41/41/41 39/39/39
f 41/41/41 42/42/42 43/43/43
f 44/44/44 41/41/41 43/43/43
f 42/42/42 45/45/45 43/43/43
f 44/44/44 43/43/43 46/46/46
f 47/47/47 44/44/44 46/46/46
f 45/45/45 48/48/48 43/43/43
f 45/45/45 49/49/49 48/48/48
f 49/49/49 50/50/50 48/48/48
f 50/50/50 51/51/51 48/48/48
f 51/51/51 52/52/52 48/48/48
f 55/55/55 54/54/54 53/53/53
f 56/56/56 55/55/55 53/53/53
