g 对象581
v -29.12262 -5.335143 -18.15169
v -29.12261 -5.335143 -14.70606
v -17.44734 -5.335143 -9.564927
v -17.44734 -5.335143 -13.15786
v -17.44734 -7.673143 -13.21898
v -17.44734 -7.673143 -9.564927
v -29.12261 -7.673143 -14.70606
v -29.12262 -7.673143 -18.15169
v -45.44458 6.18614 -17.77022
v -45.44458 -11.61836 -17.77022
v -45.44458 -11.61836 -14.56267
v -45.44458 6.18614 -14.56267
v -45.44458 6.18614 -12.77639
v -45.44458 -11.61836 -12.77639
v -45.44458 6.18614 -11.27994
v -45.44458 -11.61836 -11.27994
v -29.13409 6.186139 -17.77022
v -45.44458 6.18614 -17.77022
v -45.44458 6.18614 -14.56267
v -29.13409 6.186138 -14.56267
v -29.13409 6.186138 -12.77639
v -45.44458 6.18614 -12.77639
v -29.13409 6.186138 -11.27994
v -45.44458 6.18614 -11.27994
v -29.13408 -5.335144 -17.77022
v -29.13409 6.186139 -17.77022
v -29.13409 6.186138 -14.56267
v -29.13408 -5.335144 -14.56267
v -29.13408 -5.335144 -12.77639
v -29.13409 6.186138 -12.77639
v -29.13409 6.186138 -11.27994
v -29.13408 -5.335144 -11.27994
v -29.13408 -7.673145 -11.27994
v -29.13408 -7.673145 -12.77639
v -29.13409 -11.61836 -11.27994
v -29.13409 -11.61836 -12.77639
v -29.13408 -7.673145 -14.56267
v -29.13409 -11.61836 -14.56267
v -29.13409 -11.61836 -17.77022
v -29.13409 -7.673146 -17.77022
v -42.59277 -11.61836 -17.77022
v -29.13409 -11.61836 -17.77022
v -29.13409 -11.61836 -14.56267
v -42.59277 -11.61836 -14.56267
v -44.2197 -11.61836 -17.77022
v -42.59277 -11.61836 -12.77639
v -29.13409 -11.61836 -12.77639
v -29.13409 -11.61836 -11.27994
v -42.59277 -11.61836 -11.27994
v -44.2197 -11.61836 -12.77639
v -44.2197 -11.61836 -14.56267
v -45.44458 -11.61836 -17.77022
v -45.44458 -11.61836 -14.56267
v -45.44458 -11.61836 -12.77639
v -45.44458 -11.61836 -11.27994
v -44.2197 -11.61836 -11.27994
v -28.56421 -5.335144 -17.77022
v -28.56421 -5.335144 -17.36071
v -28.56421 -7.673146 -17.36071
v -28.56421 -7.673146 -17.77022
v -28.56421 -5.335144 -17.36071
v -27.89516 -5.335144 -17.36071
v -27.89516 -7.673145 -17.36071
v -28.56421 -7.673146 -17.36071
v -27.89516 -5.335144 -17.36071
v -27.89516 -5.335144 -16.94999
v -27.89516 -7.673145 -16.94999
v -27.89516 -7.673145 -17.36071
v -27.89516 -5.335144 -16.94999
v -27.11845 -5.335143 -16.94999
v -27.11845 -7.673145 -16.94999
v -27.89516 -7.673145 -16.94999
v -27.11845 -5.335143 -16.94999
v -27.11845 -5.335144 -16.54814
v -27.11845 -7.673145 -16.54814
v -27.11845 -7.673145 -16.94999
v -27.11845 -5.335144 -16.54814
v -26.19725 -5.335144 -16.54814
v -26.19725 -7.673144 -16.54814
v -27.11845 -7.673145 -16.54814
v -26.19725 -5.335144 -16.54814
v -26.19725 -5.335144 -16.18428
v -26.19725 -7.673144 -16.18428
v -26.19725 -7.673144 -16.54814
v -26.19725 -5.335144 -16.18428
v -25.26206 -5.335143 -16.18428
v -25.26206 -7.673145 -16.18428
v -26.19725 -7.673144 -16.18428
v -25.26206 -5.335143 -16.18428
v -25.26206 -5.335143 -15.7884
v -25.26206 -7.673144 -15.7884
v -25.26206 -7.673145 -16.18428
v -25.26206 -5.335143 -15.7884
v -24.23306 -5.335144 -15.7884
v -24.23306 -7.673144 -15.7884
v -25.26206 -7.673144 -15.7884
v -24.23306 -5.335144 -15.7884
v -24.23306 -5.335144 -15.37238
v -24.23306 -7.673144 -15.37238
v -24.23306 -7.673144 -15.7884
v -24.23306 -5.335144 -15.37238
v -23.27821 -5.335143 -15.37238
v -23.27821 -7.673144 -15.37238
v -24.23306 -7.673144 -15.37238
v -23.27821 -5.335143 -15.37238
v -23.27821 -5.335143 -14.92471
v -23.27821 -7.673144 -14.92471
v -23.27821 -7.673144 -15.37238
v -23.27821 -5.335143 -14.92471
v -22.33669 -5.335143 -14.92471
v -22.33669 -7.673143 -14.92471
v -23.27821 -7.673144 -14.92471
v -22.33669 -5.335143 -14.92471
v -22.33668 -5.335143 -14.50914
v -22.33668 -7.673144 -14.50914
v -22.33669 -7.673143 -14.92471
v -22.33668 -5.335143 -14.50914
v -21.39905 -5.335143 -14.50914
v -21.39905 -7.673144 -14.50914
v -22.33668 -7.673144 -14.50914
v -21.39905 -5.335143 -14.50914
v -21.39905 -5.335143 -14.10554
v -21.39905 -7.673144 -14.10554
v -21.39905 -7.673144 -14.50914
v -21.39905 -5.335143 -14.10554
v -20.34451 -5.335143 -14.10554
v -20.34451 -7.673144 -14.10554
v -21.39905 -7.673144 -14.10554
v -20.34451 -5.335143 -14.10554
v -20.34451 -5.335143 -13.67139
v -20.34451 -7.673144 -13.67139
v -20.34451 -7.673144 -14.10554
v -20.34451 -5.335143 -13.67139
v -19.31387 -5.335143 -13.67139
v -19.31386 -7.673144 -13.67139
v -20.34451 -7.673144 -13.67139
v -19.31387 -5.335143 -13.67139
v -19.31386 -5.335143 -13.19487
v -19.31386 -7.673144 -13.19487
v -19.31386 -7.673144 -13.67139
v -19.31386 -5.335143 -13.19487
v -18.31482 -5.335143 -13.19487
v -18.31482 -7.673143 -13.19487
v -19.31386 -7.673144 -13.19487
v -18.31482 -5.335143 -13.19487
v -18.31481 -5.335143 -12.77639
v -18.31481 -7.673144 -12.77639
v -18.31482 -7.673143 -13.19487
v -18.31481 -5.335143 -12.77639
v -17.44734 -5.335142 -12.77639
v -17.44734 -7.673144 -12.77639
v -18.31481 -7.673144 -12.77639
v -28.56421 -7.673146 -17.77022
v -29.13409 -7.673146 -17.77022
v -29.13408 -5.335144 -17.77022
v -28.56421 -5.335144 -17.77022
v -28.95703 -5.304869 -14.70606
v -28.95703 -5.304869 -17.77022
v -28.95703 -5.518834 -17.77022
v -28.95703 -5.518834 -14.70606
v -28.95703 -5.304869 -14.56267
v -28.95703 -5.518834 -14.56267
v -28.95703 -7.731762 -17.77022
v -28.95703 -7.517791 -14.70606
v -28.95703 -7.517792 -17.77022
v -28.95703 -7.731762 -14.70606
v -28.95703 -7.517792 -14.56267
v -28.95703 -7.731762 -14.56267
v -28.95703 -5.518834 -14.56267
v -28.95703 -5.518834 -14.70606
v -28.95703 -7.517791 -14.70606
v -28.95703 -7.517792 -14.56267
v -29.24413 -5.518834 -17.77022
v -29.24413 -5.304869 -17.77022
v -29.24413 -5.304869 -14.70606
v -29.24413 -5.518834 -14.70606
v -29.24413 -5.304869 -14.56267
v -29.24413 -5.518834 -14.56267
v -29.24413 -7.517791 -14.70606
v -29.24413 -7.731762 -17.77022
v -29.24413 -7.517791 -17.77022
v -29.24413 -7.731762 -14.70606
v -29.24413 -7.517791 -14.56267
v -29.24413 -7.731762 -14.56267
v -29.24413 -7.517791 -14.70606
v -29.24413 -5.518834 -14.70606
v -29.24413 -5.518834 -14.56267
v -29.24413 -7.517791 -14.56267
v -28.95703 -5.518834 -17.77022
v -29.24413 -5.518834 -17.77022
v -29.24413 -5.518834 -14.70606
v -28.95703 -5.518834 -14.70606
v -28.95703 -5.304869 -17.77022
v -29.24413 -5.304869 -17.77022
v -29.24413 -5.518834 -17.77022
v -28.95703 -5.518834 -17.77022
v -28.95703 -5.304869 -14.70606
v -29.24413 -5.304869 -17.77022
v -28.95703 -5.304869 -17.77022
v -29.24413 -5.304869 -14.70606
v -28.95703 -5.304869 -14.56267
v -29.24413 -5.304869 -14.56267
v -28.95703 -7.517792 -17.77022
v -29.24413 -7.517791 -17.77022
v -29.24413 -7.731762 -17.77022
v -28.95703 -7.731762 -17.77022
v -28.95703 -7.517791 -14.70606
v -29.24413 -7.517791 -14.70606
v -29.24413 -7.517791 -17.77022
v -28.95703 -7.517792 -17.77022
v -28.95703 -7.731762 -17.77022
v -29.24413 -7.731762 -17.77022
v -29.24413 -7.731762 -14.70606
v -28.95703 -7.731762 -14.70606
v -29.24413 -7.731762 -14.56267
v -28.95703 -7.731762 -14.56267
v -28.95703 -5.518834 -14.70606
v -29.24413 -5.518834 -14.70606
v -29.24413 -7.517791 -14.70606
v -28.95703 -7.517791 -14.70606
v -28.95703 -5.518834 -14.56267
v -29.24413 -5.304869 -14.56267
v -28.95703 -5.304869 -14.56267
v -29.24413 -5.518834 -14.56267
v -28.95703 -7.517792 -14.56267
v -29.24413 -7.517791 -14.56267
v -28.95703 -7.731762 -14.56267
v -29.24413 -7.731762 -14.56267
v -45.44458 -11.61836 -17.77022
v -45.44458 6.18614 -17.77022
v -29.13409 6.186139 -17.77022
v -29.13409 -11.61836 -17.77022
vt -0.1942617 1.516479
vt -0.1572084 2.611337
vt 1.727251 3.26552
vt 1.692855 2.249178
vt -0.1674368 0.3762271
vt -0.1529737 1.393048
vt 1.697887 0.6491014
vt 1.682307 -0.4462723
vt -1.407362 0.9991128
vt 1.32931 0.9991128
vt 1.32931 0.5060905
vt -1.407362 0.5060905
vt -1.407362 0.2315272
vt 1.32931 0.2315272
vt -1.407362 0.001512692
vt 1.32931 0.001512692
vt -1.50716 0.9989867
vt 0.9998728 0.9989867
vt 0.9998728 0.5059646
vt -1.50716 0.5059646
vt -1.50716 0.2314011
vt 0.9998728 0.2314011
vt -1.50716 0.001387045
vt 0.9998728 0.001387045
vt -0.4415897 0.9991126
vt 1.329309 0.9991126
vt 1.329309 0.5060899
vt -0.4415897 0.5060899
vt -0.4415897 0.2315265
vt 1.329309 0.2315265
vt 1.329309 0.001512088
vt -0.4415897 0.001512088
vt -0.8009561 0.001512088
vt -0.8009561 0.2315265
vt -1.407362 0.001512088
vt -1.407362 0.2315265
vt -0.8009561 0.5060899
vt -1.407362 0.5060899
vt -1.407362 0.9991126
vt -0.8009561 0.9991126
vt -1.068819 0.9989879
vt 0.9998726 0.9989879
vt 0.9998726 0.505964
vt -1.068819 0.505964
vt -1.318888 0.9989879
vt -1.068819 0.2314014
vt 0.9998726 0.2314014
vt 0.9998726 0.001386169
vt -1.068819 0.001386169
vt -1.318888 0.2314014
vt -1.318888 0.505964
vt -1.507161 0.9989879
vt -1.507161 0.505964
vt -1.507161 0.2314014
vt -1.507161 0.001386169
vt -1.318888 0.001386169
vt 2.119261 3.121249
vt 2.119261 2.945177
vt 1.114015 2.945177
vt 1.114015 3.121249
vt 3.231909 1.407046
vt 3.231909 1.119385
vt 2.226663 1.119385
vt 2.226663 1.407046
vt 3.205058 2.60206
vt 3.205058 2.425466
vt 2.199812 2.425466
vt 2.199812 2.60206
vt 2.09241 1.99029
vt 2.09241 1.656336
vt 1.087164 1.656336
vt 1.087164 1.99029
vt 3.205058 3.117955
vt 3.205058 2.945177
vt 2.199812 2.945177
vt 2.199812 3.117955
vt 3.231908 0.9649227
vt 3.231908 0.5688469
vt 2.226663 0.5688469
vt 2.226663 0.9649227
vt 1.006612 3.369651
vt 1.006612 3.213208
vt 0.001366735 3.213208
vt 0.001366735 3.369651
vt 2.11926 1.521479
vt 2.11926 1.119385
vt 1.114015 1.119385
vt 1.114015 1.521479
vt 3.205058 3.368722
vt 3.205058 3.198507
vt 2.199813 3.198507
vt 2.199812 3.368722
vt 2.11926 0.4504618
vt 2.11926 0.008035235
vt 1.114015 0.008036293
vt 1.114015 0.4504618
vt 3.205057 2.318899
vt 3.205057 2.140031
vt 2.199812 2.140031
vt 2.199812 2.318899
vt 2.11926 0.9793928
vt 2.11926 0.5688469
vt 1.114015 0.5688469
vt 1.114015 0.9793928
vt 3.205058 1.848816
vt 3.205058 1.656336
vt 2.199813 1.656336
vt 2.199812 1.848816
vt 3.231908 0.412852
vt 3.231908 0.008036293
vt 2.226663 0.008035235
vt 2.226663 0.412852
vt 2.11926 2.864625
vt 2.11926 2.685948
vt 1.114015 2.685948
vt 1.114015 2.864625
vt 1.006612 2.059479
vt 1.006612 1.656336
vt 0.001366735 1.656336
vt 0.001366735 2.059479
vt 3.205058 2.859481
vt 3.205058 2.685948
vt 2.199812 2.685948
vt 2.199812 2.859481
vt 1.006612 0.4614445
vt 1.006612 0.008035235
vt 0.001367003 0.008035235
vt 0.001366735 0.4614445
vt 1.006612 3.132656
vt 1.006612 2.945989
vt 0.001366735 2.945989
vt 0.001366735 3.132656
vt 1.006612 1.011982
vt 1.006612 0.5688475
vt 0.001366735 0.5688469
vt 0.001366735 1.011982
vt 2.11926 2.344914
vt 2.11926 2.140031
vt 1.114015 2.140031
vt 1.114015 2.344914
vt 1.006612 1.548933
vt 1.006612 1.119385
vt 0.001367003 1.119385
vt 0.001366735 1.548933
vt 2.11926 2.605396
vt 2.11926 2.425466
vt 1.114015 2.425466
vt 1.114015 2.605396
vt 1.006612 2.51301
vt 1.006612 2.140031
vt 0.001366735 2.140032
vt 0.001366735 2.51301
vt 0.001366869 2.620412
vt 0.001366735 2.865438
vt 1.006612 2.865437
vt 1.006612 2.620412
vt 0.9532895 0.9289005
vt 0.008603849 0.9289005
vt 0.008603849 0.9948663
vt 0.9532893 0.9948663
vt 0.9974973 0.9289005
vt 0.9974973 0.9948663
vt 5.064392E-05 0.9987847
vt 0.9447361 0.9328169
vt 5.064392E-05 0.9328171
vt 0.9447363 0.9987847
vt 0.9889441 0.9328171
vt 0.9889441 0.9987847
vt 0.01188332 0.9385058
vt 0.01188332 0.9827137
vt 0.6007594 0.9827138
vt 0.6007596 0.9385059
vt 0.008603849 0.9291197
vt 0.008603849 0.9950855
vt 0.9532895 0.9950855
vt 0.9532893 0.9291197
vt 0.9974973 0.9950855
vt 0.9974973 0.9291197
vt 0.9531808 0.9949158
vt 0.00849532 0.9289482
vt 0.00849532 0.9949158
vt 0.953181 0.9289482
vt 0.9973887 0.9949158
vt 0.9973887 0.9289482
vt 0.01188654 0.9827137
vt 0.6007626 0.9827138
vt 0.6007626 0.9385059
vt 0.01188642 0.9385058
vt 0.003541749 0.9326499
vt 0.003541749 0.9947207
vt 0.9482272 0.9947207
vt 0.9482272 0.9326499
vt 0.001176538 0.9346292
vt 0.001176538 0.9966998
vt 0.06714226 0.9966998
vt 0.06714226 0.9346292
vt 0.9412452 0.9967525
vt -0.003440462 0.9346818
vt -0.003440462 0.9967525
vt 0.9412452 0.9346818
vt 0.985453 0.9967525
vt 0.985453 0.9346818
vt 0.001176494 0.9331437
vt 0.001176494 0.9952143
vt 0.06714423 0.9952143
vt 0.06714423 0.9331437
vt 0.9394994 0.9931184
vt 0.9394994 0.9310478
vt -0.005186013 0.9310478
vt -0.005186013 0.9931184
vt -0.001694908 0.9330796
vt -0.001694908 0.9951504
vt 0.9429907 0.9951504
vt 0.9429907 0.9330796
vt 0.9871985 0.9951504
vt 0.9871985 0.9330796
vt 0.001620369 0.9355514
vt 0.001620369 0.997622
vt 0.5904965 0.9976219
vt 0.5904965 0.9355513
vt 0.06758611 0.9961367
vt 0.001620369 0.9340658
vt 0.001620369 0.9961365
vt 0.06758611 0.9340659
vt 0.6564623 0.9961367
vt 0.6564623 0.9340661
vt 0.72243 0.9961369
vt 0.72243 0.9340662
vt -0.007402539 2.971769
vt 3.256968 2.971769
vt 3.256968 -0.01868224
vt -0.007402539 -0.01868224
vn 0 -1 0
vn 0 -1 0
vn 0 -1 0
vn 0 -1 0
vn 0 1 0
vn 0 1 0
vn 0 1 0
vn 0 1 0
vn 1 0 0
vn 1 0 0
vn 1 0 0
vn 1 0 0
vn 1 0 0
vn 1 0 0
vn 1 0 0
vn 1 0 0
vn -1.122624E-07 -1 -1.902858E-07
vn -1.122624E-07 -1 -1.902858E-07
vn -1.122624E-07 -1 -1.902858E-07
vn -1.122624E-07 -1 -1.902858E-07
vn -1.496832E-07 -1 0
vn -1.496832E-07 -1 0
vn -1.496832E-07 -1 0
vn -1.496832E-07 -1 0
vn -1 -3.178561E-07 3.805717E-07
vn -1 -3.178561E-07 3.805717E-07
vn -1 -3.178561E-07 3.805717E-07
vn -1 -3.17856E-07 3.805717E-07
vn -1 -4.238081E-07 0
vn -1 -4.238081E-07 0
vn -1 -4.238081E-07 0
vn -1 -4.238081E-07 0
vn -1 6.188271E-07 0
vn -1 6.188271E-07 0
vn -1 6.188271E-07 0
vn -1 6.188271E-07 0
vn -1 3.094136E-07 3.805718E-07
vn -1 3.094136E-07 3.805718E-07
vn -1 3.094136E-07 3.805718E-07
vn -1 3.094136E-07 3.805718E-07
vn 0 1 1.902858E-07
vn 0 1 1.902858E-07
vn 0 1 1.902858E-07
vn 0 1 1.902858E-07
vn 0 1 0
vn 0 1 0
vn 0 1 0
vn 0 1 0
vn 0 1 0
vn 0 1 0
vn 0 1 0
vn 4.982938E-07 1 1.902858E-07
vn 4.982938E-07 1 1.902858E-07
vn 0 1 0
vn 0 1 0
vn 0 1 0
vn -1 0 0
vn -1 0 0
vn -1 0 0
vn -1 0 0
vn 0 0 1
vn 0 0 1
vn 0 0 1
vn 0 0 1
vn -1 0 5.944172E-06
vn -1 0 5.944172E-06
vn -1 0 5.944172E-06
vn -1 0 5.944172E-06
vn 0 0 1
vn 0 0 1
vn 0 0 1
vn 0 0 1
vn -1 0 6.075445E-06
vn -1 0 6.075445E-06
vn -1 0 6.075445E-06
vn -1 0 6.075445E-06
vn 0 0 1
vn 0 0 1
vn 0 0 1
vn 0 0 1
vn -1 0 1.341962E-05
vn -1 0 1.341962E-05
vn -1 0 1.341962E-05
vn -1 0 1.341962E-05
vn 0 0 1
vn 0 0 1
vn 0 0 1
vn 0 0 1
vn -1 0 0
vn -1 0 0
vn -1 0 0
vn -1 0 0
vn 0 0 1
vn 0 0 1
vn 0 0 1
vn 0 0 1
vn -1 5.221141E-07 2.934298E-06
vn -1 5.221141E-07 2.934298E-06
vn -1 5.221141E-07 2.934298E-06
vn -1 5.221141E-07 2.934298E-06
vn 0 0 1
vn 0 0 1
vn 0 0 1
vn 0 0 1
vn -1 0 0
vn -1 0 0
vn -1 0 0
vn -1 0 0
vn 0 0 1
vn 0 0 1
vn 0 0 1
vn 0 0 1
vn -1 -5.221141E-07 1.468722E-05
vn -1 -5.221141E-07 1.468722E-05
vn -1 -5.221142E-07 1.468722E-05
vn -1 -5.221142E-07 1.468722E-05
vn -1.3019E-06 0 1
vn -1.3019E-06 0 1
vn -1.3019E-06 0 1
vn -1.3019E-06 0 1
vn -1 0 0
vn -1 0 0
vn -1 0 0
vn -1 0 0
vn 0 0 1
vn 0 0 1
vn 0 0 1
vn 0 0 1
vn -1 0 8.435141E-06
vn -1 0 8.435141E-06
vn -1 0 8.435141E-06
vn -1 0 8.435141E-06
vn 0 0 1
vn 0 0 1
vn 0 0 1
vn 0 0 1
vn -1 -2.61057E-07 3.842577E-06
vn -1 -2.61057E-07 3.842577E-06
vn -1 -2.61057E-07 3.842577E-06
vn -1 -2.61057E-07 3.842577E-06
vn 0 0 1
vn 0 0 1
vn 0 0 1
vn 0 0 1
vn -1 0 1.458491E-05
vn -1 0 1.458491E-05
vn -1 0 1.458491E-05
vn -1 0 1.458491E-05
vn 0 0 1
vn 0 0 1
vn 0 0 1
vn 0 0 1
vn -2.142039E-06 0 1
vn -2.142039E-06 0 1
vn -2.142039E-06 0 1
vn -2.142039E-06 0 1
vn 1 0 0
vn 1 0 0
vn 1 0 0
vn 1 0 0
vn 1 0 0
vn 1 0 0
vn 1 0 0
vn 1 0 0
vn 1 0 0
vn 1 0 0
vn 1 0 0
vn 1 0 0
vn 1 0 0
vn 1 0 0
vn 1 0 0
vn 1 0 0
vn -1 0 0
vn -1 0 0
vn -1 0 0
vn -1 0 0
vn -1 0 0
vn -1 0 0
vn -1 0 0
vn -1 0 0
vn -1 0 0
vn -1 0 0
vn -1 0 0
vn -1 0 0
vn -1 0 0
vn -1 0 0
vn -1 0 0
vn -1 0 0
vn 0 -1 0
vn 0 -1 0
vn 0 -1 0
vn 0 -1 0
vn 0 0 -1
vn 0 0 -1
vn 0 0 -1
vn 0 0 -1
vn 0 1 0
vn 0 1 0
vn 0 1 0
vn 0 1 0
vn 0 1 0
vn 0 1 0
vn 0 0 -1
vn 0 0 -1
vn 0 0 -1
vn 0 0 -1
vn 1.062961E-06 1 0
vn 1.062961E-06 1 0
vn 1.062961E-06 1 0
vn 1.062961E-06 1 0
vn 0 -1 0
vn 0 -1 0
vn 0 -1 0
vn 0 -1 0
vn 0 -1 0
vn 0 -1 0
vn 0 0 -1
vn 0 0 -1
vn 0 0 -1
vn 0 0 -1
vn 0 0 1
vn 0 0 1
vn 0 0 1
vn 0 0 1
vn 0 0 1
vn 0 0 1
vn 0 0 1
vn 0 0 1
vn 0 0 1
vn 0 0 1
vn 0 0 1
vn 0 0 1
g 对象581_0
f 3/3/3 2/2/2 1/1/1
f 4/4/4 3/3/3 1/1/1
f 7/7/7 6/6/6 5/5/5
f 8/8/8 7/7/7 5/5/5
g 对象581_1
f 11/11/11 10/10/10 9/9/9
f 12/12/12 11/11/11 9/9/9
f 11/11/11 12/12/12 13/13/13
f 14/14/14 11/11/11 13/13/13
f 14/14/14 13/13/13 15/15/15
f 16/16/16 14/14/14 15/15/15
f 19/19/19 18/18/18 17/17/17
f 20/20/20 19/19/19 17/17/17
f 19/19/19 20/20/20 21/21/21
f 22/22/22 19/19/19 21/21/21
f 22/22/22 21/21/21 23/23/23
f 24/24/24 22/22/22 23/23/23
f 27/27/27 26/26/26 25/25/25
f 28/28/28 27/27/27 25/25/25
f 27/27/27 28/28/28 29/29/29
f 30/30/30 27/27/27 29/29/29
f 30/30/30 29/29/29 31/31/31
f 29/29/29 32/32/32 31/31/31
f 33/33/33 32/32/32 29/29/29
f 34/34/34 29/29/29 28/28/28
f 34/34/34 33/33/33 29/29/29
f 33/33/33 34/34/34 35/35/35
f 34/34/34 36/36/36 35/35/35
f 37/37/37 34/34/34 28/28/28
f 34/34/34 37/37/37 36/36/36
f 37/37/37 38/38/38 36/36/36
f 38/38/38 37/37/37 39/39/39
f 37/37/37 40/40/40 39/39/39
f 43/43/43 42/42/42 41/41/41
f 44/44/44 43/43/43 41/41/41
f 44/44/44 41/41/41 45/45/45
f 43/43/43 44/44/44 46/46/46
f 47/47/47 43/43/43 46/46/46
f 47/47/47 46/46/46 48/48/48
f 46/46/46 49/49/49 48/48/48
f 46/46/46 44/44/44 50/50/50
f 51/51/51 44/44/44 45/45/45
f 44/44/44 51/51/51 50/50/50
f 51/51/51 45/45/45 52/52/52
f 53/53/53 51/51/51 52/52/52
f 51/51/51 53/53/53 54/54/54
f 50/50/50 51/51/51 54/54/54
f 50/50/50 54/54/54 55/55/55
f 56/56/56 50/50/50 55/55/55
g 对象581_2
f 59/59/59 58/58/58 57/57/57
f 60/60/60 59/59/59 57/57/57
f 63/63/63 62/62/62 61/61/61
f 64/64/64 63/63/63 61/61/61
f 67/67/67 66/66/66 65/65/65
f 68/68/68 67/67/67 65/65/65
f 71/71/71 70/70/70 69/69/69
f 72/72/72 71/71/71 69/69/69
f 75/75/75 74/74/74 73/73/73
f 76/76/76 75/75/75 73/73/73
f 79/79/79 78/78/78 77/77/77
f 80/80/80 79/79/79 77/77/77
f 83/83/83 82/82/82 81/81/81
f 84/84/84 83/83/83 81/81/81
f 87/87/87 86/86/86 85/85/85
f 88/88/88 87/87/87 85/85/85
f 91/91/91 90/90/90 89/89/89
f 92/92/92 91/91/91 89/89/89
f 95/95/95 94/94/94 93/93/93
f 96/96/96 95/95/95 93/93/93
f 99/99/99 98/98/98 97/97/97
f 100/100/100 99/99/99 97/97/97
f 103/103/103 102/102/102 101/101/101
f 104/104/104 103/103/103 101/101/101
f 107/107/107 106/106/106 105/105/105
f 108/108/108 107/107/107 105/105/105
f 111/111/111 110/110/110 109/109/109
f 112/112/112 111/111/111 109/109/109
f 115/115/115 114/114/114 113/113/113
f 116/116/116 115/115/115 113/113/113
f 119/119/119 118/118/118 117/117/117
f 120/120/120 119/119/119 117/117/117
f 123/123/123 122/122/122 121/121/121
f 124/124/124 123/123/123 121/121/121
f 127/127/127 126/126/126 125/125/125
f 128/128/128 127/127/127 125/125/125
f 131/131/131 130/130/130 129/129/129
f 132/132/132 131/131/131 129/129/129
f 135/135/135 134/134/134 133/133/133
f 136/136/136 135/135/135 133/133/133
f 139/139/139 138/138/138 137/137/137
f 140/140/140 139/139/139 137/137/137
f 143/143/143 142/142/142 141/141/141
f 144/144/144 143/143/143 141/141/141
f 147/147/147 146/146/146 145/145/145
f 148/148/148 147/147/147 145/145/145
f 151/151/151 150/150/150 149/149/149
f 152/152/152 151/151/151 149/149/149
f 155/155/155 154/154/154 153/153/153
f 156/156/156 155/155/155 153/153/153
g 对象581_3
f 159/159/159 158/158/158 157/157/157
f 160/160/160 159/159/159 157/157/157
f 160/160/160 157/157/157 161/161/161
f 162/162/162 160/160/160 161/161/161
f 165/165/165 164/164/164 163/163/163
f 164/164/164 166/166/166 163/163/163
f 166/166/166 164/164/164 167/167/167
f 168/168/168 166/166/166 167/167/167
f 171/171/171 170/170/170 169/169/169
f 172/172/172 171/171/171 169/169/169
f 175/175/175 174/174/174 173/173/173
f 176/176/176 175/175/175 173/173/173
f 177/177/177 175/175/175 176/176/176
f 178/178/178 177/177/177 176/176/176
f 181/181/181 180/180/180 179/179/179
f 180/180/180 182/182/182 179/179/179
f 183/183/183 179/179/179 182/182/182
f 184/184/184 183/183/183 182/182/182
f 187/187/187 186/186/186 185/185/185
f 188/188/188 187/187/187 185/185/185
f 191/191/191 190/190/190 189/189/189
f 192/192/192 191/191/191 189/189/189
f 195/195/195 194/194/194 193/193/193
f 196/196/196 195/195/195 193/193/193
f 199/199/199 198/198/198 197/197/197
f 198/198/198 200/200/200 197/197/197
f 197/197/197 200/200/200 201/201/201
f 200/200/200 202/202/202 201/201/201
f 205/205/205 204/204/204 203/203/203
f 206/206/206 205/205/205 203/203/203
f 209/209/209 208/208/208 207/207/207
f 210/210/210 209/209/209 207/207/207
f 213/213/213 212/212/212 211/211/211
f 214/214/214 213/213/213 211/211/211
f 215/215/215 213/213/213 214/214/214
f 216/216/216 215/215/215 214/214/214
f 219/219/219 218/218/218 217/217/217
f 220/220/220 219/219/219 217/217/217
f 223/223/223 222/222/222 221/221/221
f 222/222/222 224/224/224 221/221/221
f 221/221/221 224/224/224 225/225/225
f 224/224/224 226/226/226 225/225/225
f 225/225/225 226/226/226 227/227/227
f 226/226/226 228/228/228 227/227/227
g 对象581_4
f 231/231/231 230/230/230 229/229/229
f 232/232/232 231/231/231 229/229/229
