g 对象004
v 0.02830078 0.0162745 -0.050089
v -0.02829101 -0.0162755 -0.050089
v 0.02830078 -0.0162755 -0.050089
v -0.02829101 0.0162745 -0.050089
v 0.02830078 0.0426085 -0.030957
v -0.02829101 0.0426085 -0.030957
v 0.02830078 0.0526665 0
v -0.02829101 0.0526665 0
v 0.02830078 0.0426085 0.030957
v -0.02829101 0.0426085 0.030957
v 0.02830078 0.0162745 0.050089
v -0.02829101 0.0162745 0.050089
v 0.02830078 -0.0162755 0.050089
v -0.02829101 -0.0162755 0.050089
v 0.02830078 -0.0426085 0.030957
v -0.02829101 -0.0426085 0.030957
v 0.02830078 -0.0526675 0
v -0.02829101 -0.0526675 0
v 0.02830078 -0.0426085 -0.030957
v -0.02829101 -0.0426085 -0.030957
v 0.02830078 -0.0162755 -0.050089
v -0.02829101 -0.0162755 -0.050089
v 0.04527344 -0.0465735 0.033837
v 0.04527344 -0.0177895 0.05475
v 0.04527344 0.0177885 0.05475
v 0.04527344 0.0575675 0
v 0.04527344 0.0465725 0.033837
v 0.04527344 -0.0465735 -0.033837
v 0.04527344 -0.0575675 0
v 0.04527344 0.0177885 -0.05475
v 0.04527344 -0.0177895 -0.05475
v 0.04527344 0.0465725 -0.033837
v -0.04527344 -0.0177895 -0.05475
v -0.04527344 0.0177885 -0.05475
v -0.04527344 0.0465725 -0.033837
v -0.04527344 0.0465725 0.033837
v -0.04527344 0.0575675 0
v -0.04527344 -0.0575675 0
v -0.04527344 -0.0465735 -0.033837
v -0.04527344 -0.0177895 0.05475
v -0.04527344 -0.0465735 0.033837
v -0.04527344 0.0177885 0.05475
v -0.02829101 0.0177885 -0.05475
v -0.04527344 -0.0177895 -0.05475
v -0.02829101 -0.0177895 -0.05475
v -0.04527344 0.0177885 -0.05475
v -0.02829101 0.0465725 -0.033837
v -0.04527344 0.0465725 -0.033837
v -0.02829101 0.0575675 0
v -0.04527344 0.0575675 0
v -0.02829101 0.0465725 0.033837
v -0.04527344 0.0465725 0.033837
v -0.02829101 0.0177885 0.05475
v -0.04527344 0.0177885 0.05475
v -0.02829101 -0.0177895 0.05475
v -0.04527344 -0.0177895 0.05475
v -0.02829101 -0.0465735 0.033837
v -0.04527344 -0.0465735 0.033837
v -0.02829101 -0.0575675 0
v -0.04527344 -0.0575675 0
v -0.02829101 -0.0465735 -0.033837
v -0.04527344 -0.0465735 -0.033837
v -0.02829101 -0.0177895 -0.05475
v -0.04527344 -0.0177895 -0.05475
v 0.02830078 -0.0177895 -0.05475
v 0.04527344 -0.0177895 -0.05475
v 0.04527344 0.0177885 -0.05475
v 0.02830078 0.0177885 -0.05475
v 0.04527344 0.0465725 -0.033837
v 0.02830078 0.0465725 -0.033837
v 0.04527344 0.0575675 0
v 0.02830078 0.0575675 0
v 0.04527344 0.0465725 0.033837
v 0.02830078 0.0465725 0.033837
v 0.04527344 0.0177885 0.05475
v 0.02830078 0.0177885 0.05475
v 0.04527344 -0.0177895 0.05475
v 0.02830078 -0.0177895 0.05475
v 0.04527344 -0.0465735 0.033837
v 0.02830078 -0.0465735 0.033837
v 0.04527344 -0.0575675 0
v 0.02830078 -0.0575675 0
v 0.04527344 -0.0465735 -0.033837
v 0.02830078 -0.0465735 -0.033837
v 0.04527344 -0.0177895 -0.05475
v 0.02830078 -0.0177895 -0.05475
v -0.02829101 0.0426085 0.030957
v -0.02829101 0.0465725 0.033837
v -0.02829101 0.0575675 0
v -0.02829101 0.0526665 0
v -0.02829101 0.0465725 -0.033837
v -0.02829101 0.0426085 -0.030957
v -0.02829101 0.0177885 -0.05475
v -0.02829101 0.0162745 -0.050089
v -0.02829101 -0.0177895 -0.05475
v -0.02829101 -0.0162755 -0.050089
v -0.02829101 0.0162745 0.050089
v -0.02829101 0.0465725 0.033837
v -0.02829101 0.0177885 0.05475
v -0.02829101 -0.0162755 0.050089
v -0.02829101 0.0177885 0.05475
v -0.02829101 -0.0177895 0.05475
v -0.02829101 -0.0426085 0.030957
v -0.02829101 -0.0465735 0.033837
v -0.02829101 -0.0526675 0
v -0.02829101 -0.0465735 0.033837
v -0.02829101 -0.0575675 0
v -0.02829101 -0.0426085 -0.030957
v -0.02829101 -0.0465735 -0.033837
v -0.02829101 -0.0162755 -0.050089
v -0.02829101 -0.0177895 -0.05475
v 0.02830078 0.0426085 -0.030957
v 0.02830078 0.0465725 -0.033837
v 0.02830078 0.0575675 0
v 0.02830078 0.0526665 0
v 0.02830078 0.0465725 0.033837
v 0.02830078 0.0426085 0.030957
v 0.02830078 0.0177885 0.05475
v 0.02830078 0.0162745 0.050089
v 0.02830078 -0.0177895 0.05475
v 0.02830078 -0.0162755 0.050089
v 0.02830078 -0.0465735 0.033837
v 0.02830078 -0.0426085 0.030957
v 0.02830078 0.0162745 -0.050089
v 0.02830078 0.0465725 -0.033837
v 0.02830078 0.0177885 -0.05475
v 0.02830078 -0.0162755 -0.050089
v 0.02830078 -0.0177895 -0.05475
v 0.02830078 -0.0465735 0.033837
v 0.02830078 -0.0575675 0
v 0.02830078 -0.0526675 0
v 0.02830078 -0.0465735 -0.033837
v 0.02830078 -0.0426085 -0.030957
v 0.02830078 -0.0465735 -0.033837
v 0.02830078 -0.0177895 -0.05475
v 0.02830078 -0.0162755 -0.050089
vt 0.967439 0.2376176
vt 0.9815523 0.2294574
vt 0.9675453 0.2295018
vt 0.9816816 0.2376242
vt 0.9674627 0.2457545
vt 0.9816549 0.245751
vt 0.9674713 0.253887
vt 0.9816513 0.2538814
vt 0.9674756 0.2620185
vt 0.9816532 0.2620129
vt 0.9674788 0.2701501
vt 0.9816561 0.2701445
vt 0.9674816 0.2782817
vt 0.9816593 0.2782761
vt 0.9674835 0.2864131
vt 0.9816635 0.2864075
vt 0.9674799 0.2945436
vt 0.9816721 0.2945401
vt 0.9674532 0.3026704
vt 0.9816958 0.302677
vt 0.9675826 0.310837
vt 0.9815895 0.3107926
vt 0.2344269 0.685846
vt 0.2344269 0.6769773
vt 0.2292141 0.6698026
vt 0.2123449 0.6698025
vt 0.2207794 0.6670622
vt 0.2207796 0.6957614
vt 0.2292141 0.6930208
vt 0.2071322 0.6858462
vt 0.212345 0.6930209
vt 0.2071322 0.6769775
vt 0.6385241 0.9790801
vt 0.6333113 0.9719054
vt 0.6248767 0.9691649
vt 0.6112294 0.9790803
vt 0.6164421 0.9719054
vt 0.6333113 0.9951236
vt 0.6385241 0.9879488
vt 0.6164422 0.9951237
vt 0.6248769 0.9978642
vt 0.6112294 0.987949
vt 0.6175919 0.4370762
vt 0.6133589 0.4459447
vt 0.6175919 0.4459447
vt 0.6133589 0.4370762
vt 0.6175919 0.4282075
vt 0.6133589 0.4282075
vt 0.6175919 0.4193389
vt 0.6133589 0.4193389
vt 0.6175919 0.4104704
vt 0.6133589 0.4104704
vt 0.6175919 0.4016017
vt 0.6133589 0.4016017
vt 0.6175919 0.3927332
vt 0.6133589 0.3927332
vt 0.6175919 0.3838645
vt 0.6133589 0.3838645
vt 0.6175919 0.374996
vt 0.6133589 0.374996
vt 0.6175919 0.3661275
vt 0.6133589 0.3661275
vt 0.6175919 0.3572588
vt 0.6133589 0.3572588
vt 0.6233004 0.4459447
vt 0.6275313 0.4459447
vt 0.6275313 0.4370762
vt 0.6233004 0.4370762
vt 0.6275313 0.4282075
vt 0.6233004 0.4282075
vt 0.6275313 0.4193389
vt 0.6233004 0.4193389
vt 0.6275313 0.4104704
vt 0.6233004 0.4104704
vt 0.6275313 0.4016016
vt 0.6233004 0.4016016
vt 0.6275313 0.3927332
vt 0.6233004 0.3927332
vt 0.6275313 0.3838645
vt 0.6233004 0.3838645
vt 0.6275313 0.374996
vt 0.6233004 0.374996
vt 0.6275313 0.3661275
vt 0.6233004 0.3661275
vt 0.6275313 0.3572588
vt 0.6233004 0.3572588
vt 0.9816532 0.2620129
vt 0.982806 0.2620208
vt 0.9828043 0.2538897
vt 0.9816513 0.2538814
vt 0.9828074 0.2457613
vt 0.9816549 0.245751
vt 0.9828507 0.2376293
vt 0.9816816 0.2376242
vt 0.9827128 0.2290614
vt 0.9815523 0.2294574
vt 0.9816561 0.2701445
vt 0.982806 0.2620208
vt 0.9828091 0.2701524
vt 0.9816593 0.2782761
vt 0.9828091 0.2701524
vt 0.9828122 0.2782837
vt 0.9816635 0.2864075
vt 0.9828164 0.2864149
vt 0.9816721 0.2945401
vt 0.9828164 0.2864149
vt 0.9828247 0.2945457
vt 0.9816958 0.302677
vt 0.9828506 0.3026871
vt 0.9815895 0.3107926
vt 0.9827262 0.3111806
vt 0.9674627 0.2457545
vt 0.9663102 0.2457489
vt 0.9663183 0.2538797
vt 0.9674713 0.253887
vt 0.9663228 0.2620109
vt 0.9674756 0.2620185
vt 0.9663258 0.2701424
vt 0.9674788 0.2701501
vt 0.9663286 0.2782738
vt 0.9674816 0.2782817
vt 0.9663307 0.286405
vt 0.9674835 0.2864131
vt 0.967439 0.2376176
vt 0.9663102 0.2457489
vt 0.9662841 0.2376072
vt 0.9675453 0.2295018
vt 0.9664086 0.229114
vt 0.9663307 0.286405
vt 0.9663274 0.2945332
vt 0.9674799 0.2945436
vt 0.9662841 0.302665
vt 0.9674532 0.3026704
vt 0.9662841 0.302665
vt 0.9664221 0.3112332
vt 0.9675826 0.310837
vn 0 0.3090079 -0.9510595
vn 0 -0.3090165 -0.9510567
vn 0 -0.3090165 -0.9510567
vn 0 0.3090079 -0.9510595
vn 0 0.809016 -0.5877866
vn 0 0.809016 -0.5877866
vn 0 1 0
vn 0 1 0
vn 0 0.809016 0.5877866
vn 0 0.809016 0.5877866
vn 0 0.3090079 0.9510595
vn 0 0.3090079 0.9510595
vn 0 -0.3090164 0.9510567
vn 0 -0.3090164 0.9510567
vn 0 -0.8090127 0.5877911
vn 0 -0.8090127 0.5877911
vn 0 -1 0
vn 0 -1 0
vn 0 -0.8090127 -0.5877911
vn 0 -0.8090127 -0.5877911
vn 0 -0.3090165 -0.9510567
vn 0 -0.3090165 -0.9510567
vn 1 0 0
vn 1 0 0
vn 1 0 0
vn 1 0 0
vn 1 0 0
vn 1 0 0
vn 1 0 0
vn 1 0 0
vn 1 0 0
vn 1 0 0
vn -1 0 0
vn -1 0 0
vn -1 0 0
vn -1 0 0
vn -1 0 0
vn -1 0 0
vn -1 0 0
vn -1 0 0
vn -1 0 0
vn -1 0 0
vn 0 0.3090192 -0.9510558
vn 0 -0.3090192 -0.9510558
vn 0 -0.3090192 -0.9510558
vn 0 0.3090192 -0.9510558
vn 0 0.8090129 -0.5877908
vn 0 0.8090129 -0.5877908
vn 0 1 0
vn 0 1 0
vn 0 0.8090129 0.5877908
vn 0 0.8090129 0.5877908
vn 0 0.3090192 0.9510558
vn 0 0.3090192 0.9510558
vn 0 -0.3090192 0.9510558
vn 0 -0.3090192 0.9510558
vn 0 -0.8090208 0.5877801
vn 0 -0.8090208 0.5877801
vn 0 -1 0
vn 0 -1 0
vn 0 -0.8090208 -0.5877801
vn 0 -0.8090208 -0.5877801
vn 0 -0.3090192 -0.9510558
vn 0 -0.3090192 -0.9510558
vn 0 -0.3090191 -0.9510558
vn 0 -0.3090191 -0.9510558
vn 0 0.3090191 -0.9510558
vn 0 0.3090191 -0.9510558
vn 0 0.8090129 -0.5877909
vn 0 0.8090129 -0.5877909
vn 0 1 0
vn 0 1 0
vn 0 0.8090129 0.5877909
vn 0 0.8090129 0.5877909
vn 0 0.3090191 0.9510558
vn 0 0.3090191 0.9510558
vn 0 -0.3090191 0.9510558
vn 0 -0.3090191 0.9510558
vn 0 -0.8090207 0.5877801
vn 0 -0.8090207 0.5877801
vn 0 -1 0
vn 0 -1 0
vn 0 -0.8090207 -0.5877801
vn 0 -0.8090207 -0.5877801
vn 0 -0.3090191 -0.9510558
vn 0 -0.3090191 -0.9510558
vn 1 0 0
vn 1 0 0
vn 1 0 0
vn 1 0 0
vn 1 0 0
vn 1 0 0
vn 1 0 0
vn 1 0 0
vn 1 0 0
vn 1 0 0
vn 1 0 0
vn 1 0 0
vn 1 0 0
vn 1 0 0
vn 1 0 0
vn 1 0 0
vn 1 0 0
vn 1 0 0
vn 1 0 0
vn 1 0 0
vn 1 0 0
vn 1 0 0
vn 1 0 0
vn 1 0 0
vn 1 0 0
vn -1 0 0
vn -1 0 0
vn -1 0 0
vn -1 0 0
vn -1 0 0
vn -1 0 0
vn -1 0 0
vn -1 0 0
vn -1 0 0
vn -1 0 0
vn -1 0 0
vn -1 0 0
vn -1 0 0
vn -1 0 0
vn -1 0 0
vn -1 0 0
vn -1 0 0
vn -1 0 0
vn -1 0 0
vn -1 0 0
vn -1 0 0
vn -1 0 0
vn -1 0 0
vn -1 0 0
vn -1 0 0
g 对象004_0
f 3/3/3 2/2/2 1/1/1
f 2/2/2 4/4/4 1/1/1
f 1/1/1 4/4/4 5/5/5
f 4/4/4 6/6/6 5/5/5
f 5/5/5 6/6/6 7/7/7
f 6/6/6 8/8/8 7/7/7
f 7/7/7 8/8/8 9/9/9
f 8/8/8 10/10/10 9/9/9
f 9/9/9 10/10/10 11/11/11
f 10/10/10 12/12/12 11/11/11
f 11/11/11 12/12/12 13/13/13
f 12/12/12 14/14/14 13/13/13
f 13/13/13 14/14/14 15/15/15
f 14/14/14 16/16/16 15/15/15
f 15/15/15 16/16/16 17/17/17
f 16/16/16 18/18/18 17/17/17
f 17/17/17 18/18/18 19/19/19
f 18/18/18 20/20/20 19/19/19
f 19/19/19 20/20/20 21/21/21
f 20/20/20 22/22/22 21/21/21
f 25/25/25 24/24/24 23/23/23
f 26/26/26 25/25/25 23/23/23
f 25/25/25 26/26/26 27/27/27
f 26/26/26 23/23/23 28/28/28
f 23/23/23 29/29/29 28/28/28
f 26/26/26 28/28/28 30/30/30
f 28/28/28 31/31/31 30/30/30
f 32/32/32 26/26/26 30/30/30
f 35/35/35 34/34/34 33/33/33
f 36/36/36 35/35/35 33/33/33
f 35/35/35 36/36/36 37/37/37
f 36/36/36 33/33/33 38/38/38
f 33/33/33 39/39/39 38/38/38
f 36/36/36 38/38/38 40/40/40
f 38/38/38 41/41/41 40/40/40
f 42/42/42 36/36/36 40/40/40
f 45/45/45 44/44/44 43/43/43
f 44/44/44 46/46/46 43/43/43
f 43/43/43 46/46/46 47/47/47
f 46/46/46 48/48/48 47/47/47
f 47/47/47 48/48/48 49/49/49
f 48/48/48 50/50/50 49/49/49
f 49/49/49 50/50/50 51/51/51
f 50/50/50 52/52/52 51/51/51
f 51/51/51 52/52/52 53/53/53
f 52/52/52 54/54/54 53/53/53
f 53/53/53 54/54/54 55/55/55
f 54/54/54 56/56/56 55/55/55
f 55/55/55 56/56/56 57/57/57
f 56/56/56 58/58/58 57/57/57
f 57/57/57 58/58/58 59/59/59
f 58/58/58 60/60/60 59/59/59
f 59/59/59 60/60/60 61/61/61
f 60/60/60 62/62/62 61/61/61
f 61/61/61 62/62/62 63/63/63
f 62/62/62 64/64/64 63/63/63
f 67/67/67 66/66/66 65/65/65
f 68/68/68 67/67/67 65/65/65
f 69/69/69 67/67/67 68/68/68
f 70/70/70 69/69/69 68/68/68
f 71/71/71 69/69/69 70/70/70
f 72/72/72 71/71/71 70/70/70
f 73/73/73 71/71/71 72/72/72
f 74/74/74 73/73/73 72/72/72
f 75/75/75 73/73/73 74/74/74
f 76/76/76 75/75/75 74/74/74
f 77/77/77 75/75/75 76/76/76
f 78/78/78 77/77/77 76/76/76
f 79/79/79 77/77/77 78/78/78
f 80/80/80 79/79/79 78/78/78
f 81/81/81 79/79/79 80/80/80
f 82/82/82 81/81/81 80/80/80
f 83/83/83 81/81/81 82/82/82
f 84/84/84 83/83/83 82/82/82
f 85/85/85 83/83/83 84/84/84
f 86/86/86 85/85/85 84/84/84
f 89/89/89 88/88/88 87/87/87
f 90/90/90 89/89/89 87/87/87
f 91/91/91 89/89/89 90/90/90
f 92/92/92 91/91/91 90/90/90
f 93/93/93 91/91/91 92/92/92
f 94/94/94 93/93/93 92/92/92
f 95/95/95 93/93/93 94/94/94
f 96/96/96 95/95/95 94/94/94
f 87/87/87 98/98/98 97/97/97
f 98/98/98 99/99/99 97/97/97
f 97/97/97 101/101/101 100/100/100
f 101/101/101 102/102/102 100/100/100
f 100/100/100 102/102/102 103/103/103
f 102/102/102 104/104/104 103/103/103
f 103/103/103 106/106/106 105/105/105
f 106/106/106 107/107/107 105/105/105
f 105/105/105 107/107/107 108/108/108
f 107/107/107 109/109/109 108/108/108
f 108/108/108 109/109/109 110/110/110
f 109/109/109 111/111/111 110/110/110
f 114/114/114 113/113/113 112/112/112
f 115/115/115 114/114/114 112/112/112
f 116/116/116 114/114/114 115/115/115
f 117/117/117 116/116/116 115/115/115
f 118/118/118 116/116/116 117/117/117
f 119/119/119 118/118/118 117/117/117
f 120/120/120 118/118/118 119/119/119
f 121/121/121 120/120/120 119/119/119
f 122/122/122 120/120/120 121/121/121
f 123/123/123 122/122/122 121/121/121
f 112/112/112 125/125/125 124/124/124
f 125/125/125 126/126/126 124/124/124
f 124/124/124 126/126/126 127/127/127
f 126/126/126 128/128/128 127/127/127
f 130/130/130 129/129/129 123/123/123
f 131/131/131 130/130/130 123/123/123
f 132/132/132 130/130/130 131/131/131
f 133/133/133 132/132/132 131/131/131
f 135/135/135 134/134/134 133/133/133
f 136/136/136 135/135/135 133/133/133
