g 对象530
v 0.05535261 -0.02610337 1.560624
v 0.05535261 -0.02610337 1.627698
v -0.05535254 -0.02610335 1.627698
v -0.05535254 -0.02610335 1.560624
v 0.05535261 -0.02610337 -1.281811
v -0.05535254 -0.02610335 -1.281811
v -0.05535254 -0.02610335 -1.348886
v 0.05535261 -0.02610337 -1.348886
v -0.05535256 -0.1040738 1.560624
v -0.05535285 -1.857606 1.560624
v 0.05535228 -1.857606 1.560624
v 0.05535259 -0.1040737 1.560624
v 0.05535227 -1.935576 1.627698
v -0.05535287 -1.935576 1.560624
v -0.05535287 -1.935576 1.627698
v 0.05535227 -1.935576 1.560624
v -0.05535287 -1.935576 -1.281811
v 0.05535227 -1.935576 -1.281811
v 0.05535227 -1.935576 -1.348886
v -0.05535287 -1.935576 -1.348886
v 0.05535261 -0.02610337 1.627698
v -0.05535256 -0.1040737 1.627698
v -0.05535254 -0.02610335 1.627698
v 0.05535259 -0.1040738 1.627698
v -0.05535285 -1.857606 1.627698
v 0.05535228 -1.857606 1.627698
v -0.05535287 -1.935576 1.627698
v 0.05535227 -1.935576 1.627698
v 0.05535261 -0.02610337 1.560624
v 0.05535259 -0.1040738 1.627698
v 0.05535261 -0.02610337 1.627698
v 0.05535259 -0.1040737 1.560624
v 0.05535228 -1.857606 1.627698
v 0.05535259 -0.1040737 -1.281811
v 0.05535228 -1.857606 1.560624
v 0.05535227 -1.935576 1.627698
v 0.05535227 -1.935576 1.560624
v 0.05535227 -1.935576 -1.281811
v 0.05535228 -1.857606 -1.281811
v 0.05535227 -1.935576 -1.348886
v 0.05535228 -1.857606 -1.348886
v 0.05535261 -0.02610337 -1.281811
v 0.05535259 -0.1040738 -1.348886
v 0.05535261 -0.02610337 -1.348886
v -0.05535287 -1.935576 1.560624
v -0.05535285 -1.857606 1.627698
v -0.05535287 -1.935576 1.627698
v -0.05535285 -1.857606 1.560624
v -0.05535256 -0.1040737 1.627698
v -0.05535285 -1.857606 -1.281811
v -0.05535256 -0.1040738 1.560624
v -0.05535254 -0.02610335 1.627698
v -0.05535254 -0.02610335 1.560624
v -0.05535254 -0.02610335 -1.281811
v -0.05535256 -0.1040738 -1.281811
v -0.05535254 -0.02610335 -1.348886
v -0.05535256 -0.1040737 -1.348886
v -0.05535287 -1.935576 -1.281811
v -0.05535285 -1.857606 -1.348886
v -0.05535287 -1.935576 -1.348886
v 0.05535228 -1.857606 -1.281811
v -0.05535285 -1.857606 -1.281811
v -0.05535256 -0.1040738 -1.281811
v 0.05535259 -0.1040737 -1.281811
v -0.05535256 -0.1040737 -1.348886
v 0.05535261 -0.02610337 -1.348886
v -0.05535254 -0.02610335 -1.348886
v 0.05535259 -0.1040738 -1.348886
v -0.05535285 -1.857606 -1.348886
v 0.05535228 -1.857606 -1.348886
v -0.05535287 -1.935576 -1.348886
v 0.05535227 -1.935576 -1.348886
v 0.05535259 -0.1040737 1.560624
v 0.05535259 -0.1040737 -1.281811
v -0.05535256 -0.1040738 -1.281811
v -0.05535256 -0.1040738 1.560624
v -0.05535285 -1.857606 1.560624
v -0.05535285 -1.857606 -1.281811
v 0.05535228 -1.857606 -1.281811
v 0.05535228 -1.857606 1.560624
v 0.01690412 -1.898311 0.7381088
v 0.01690442 -0.03879894 0.7381085
v -0.002713944 -0.03879913 0.7299821
v -0.002714247 -1.898312 0.7299827
v 0.02503032 -1.898311 0.7577276
v 0.02503062 -0.03879895 0.7577266
v 0.01690442 -0.03879894 0.7381085
v 0.01690412 -1.898311 0.7381088
v 0.01690412 -1.898311 0.7773452
v 0.01690442 -0.03879894 0.7773448
v 0.02503062 -0.03879895 0.7577266
v 0.02503032 -1.898311 0.7577276
v -0.002714247 -1.898311 0.7854716
v -0.002713944 -0.03879894 0.7854712
v 0.01690442 -0.03879894 0.7773448
v 0.01690412 -1.898311 0.7773452
v -0.02233262 -1.898311 0.7773452
v -0.02233232 -0.03879894 0.7773448
v -0.002713944 -0.03879894 0.7854712
v -0.002714247 -1.898311 0.7854716
v -0.03045881 -1.898311 0.7577276
v -0.0304585 -0.03879894 0.7577266
v -0.02233232 -0.03879894 0.7773448
v -0.02233262 -1.898311 0.7773452
v -0.02233262 -1.898311 0.7381088
v -0.02233232 -0.03879894 0.7381085
v -0.0304585 -0.03879894 0.7577266
v -0.03045881 -1.898311 0.7577276
v -0.002714247 -1.898312 0.7299827
v -0.002713944 -0.03879913 0.7299821
v -0.02233232 -0.03879894 0.7381085
v -0.02233262 -1.898311 0.7381088
v 0.01690412 -1.898311 -0.9369576
v 0.01690442 -0.03879894 -0.936958
v -0.002713944 -0.03879913 -0.9450843
v -0.002714247 -1.898312 -0.9450836
v -0.02233232 -0.03879894 -0.936958
v -0.02233262 -1.898311 -0.9369576
v 0.02503032 -1.898311 -0.9173389
v 0.02503062 -0.03879895 -0.9173397
v 0.01690442 -0.03879894 -0.936958
v 0.01690412 -1.898311 -0.9369576
v 0.01690412 -1.898311 -0.8977211
v 0.01690442 -0.03879894 -0.8977215
v 0.02503062 -0.03879895 -0.9173397
v 0.02503032 -1.898311 -0.9173389
v -0.002714247 -1.898311 -0.8895947
v -0.002713944 -0.03879894 -0.8895951
v 0.01690442 -0.03879894 -0.8977215
v 0.01690412 -1.898311 -0.8977211
v -0.02233262 -1.898311 -0.8977211
v -0.02233232 -0.03879894 -0.8977215
v -0.002713944 -0.03879894 -0.8895951
v -0.002714247 -1.898311 -0.8895947
v -0.03045881 -1.898311 -0.9173389
v -0.0304585 -0.03879894 -0.9173397
v -0.02233232 -0.03879894 -0.8977215
v -0.02233262 -1.898311 -0.8977211
v -0.02233262 -1.898311 -0.9369576
v -0.02233232 -0.03879894 -0.936958
v -0.0304585 -0.03879894 -0.9173397
v -0.03045881 -1.898311 -0.9173389
v 0.03038977 -0.3368403 -1.331977
v -0.002713995 -0.3505524 -1.331977
v -0.002713988 -0.3505524 1.578542
v 0.03038977 -0.3368402 1.578542
v 0.0441018 -0.3037365 -1.331977
v 0.0441018 -0.3037365 1.578542
v 0.03038978 -0.2706329 -1.331977
v 0.0441018 -0.3037365 -1.331977
v 0.0441018 -0.3037365 1.578542
v 0.03038978 -0.2706329 1.578542
v -0.002713979 -0.2569208 -1.331977
v -0.002713979 -0.2569208 1.578542
v -0.03581775 -0.2706329 -1.331977
v -0.002713979 -0.2569208 -1.331977
v -0.002713979 -0.2569208 1.578542
v -0.03581775 -0.2706329 1.578542
v -0.04952977 -0.3037365 -1.331977
v -0.04952977 -0.3037365 1.578542
v -0.03581776 -0.3368403 -1.331977
v -0.04952977 -0.3037365 -1.331977
v -0.04952977 -0.3037365 1.578542
v -0.03581776 -0.3368402 1.578542
v -0.002713995 -0.3505524 -1.331977
v -0.002713988 -0.3505524 1.578542
v 0.03038969 -0.7969459 -1.331977
v -0.002714063 -0.8106579 1.578542
v 0.03038969 -0.7969459 1.578542
v -0.00271407 -0.8106579 -1.331977
v -0.03581783 -0.7969459 1.578542
v -0.03581783 -0.7969459 -1.331977
v 0.04410172 -0.7638423 -1.331977
v 0.03038969 -0.7969459 -1.331977
v 0.03038969 -0.7969459 1.578542
v 0.04410172 -0.7638423 1.578542
v 0.0303897 -0.7307383 -1.331977
v 0.0303897 -0.7307383 1.578542
v -0.002714054 -0.7170264 -1.331977
v 0.0303897 -0.7307383 -1.331977
v 0.0303897 -0.7307383 1.578542
v -0.002714054 -0.7170264 1.578542
v -0.03581782 -0.7307383 -1.331977
v -0.03581782 -0.7307383 1.578542
v -0.04952985 -0.7638423 -1.331977
v -0.03581782 -0.7307383 -1.331977
v -0.03581782 -0.7307383 1.578542
v -0.04952985 -0.7638423 1.578542
v -0.03581783 -0.7969459 -1.331977
v -0.03581783 -0.7969459 1.578542
v 0.03038963 -1.21424 -1.331977
v -0.002714131 -1.227952 1.578542
v 0.03038963 -1.21424 1.578542
v -0.002714138 -1.227952 -1.331977
v -0.0358179 -1.21424 1.578542
v -0.0358179 -1.21424 -1.331977
v 0.04410166 -1.181136 -1.331977
v 0.03038963 -1.21424 -1.331977
v 0.03038963 -1.21424 1.578542
v 0.04410166 -1.181136 1.578542
v 0.03038964 -1.148033 -1.331977
v 0.03038964 -1.148033 1.578542
v -0.002714122 -1.134321 -1.331977
v 0.03038964 -1.148033 -1.331977
v 0.03038964 -1.148033 1.578542
v -0.002714122 -1.134321 1.578542
v -0.03581789 -1.148033 -1.331977
v -0.03581789 -1.148033 1.578542
v -0.04952991 -1.181136 -1.331977
v -0.03581789 -1.148033 -1.331977
v -0.03581789 -1.148033 1.578542
v -0.04952991 -1.181136 1.578542
v -0.0358179 -1.21424 -1.331977
v -0.0358179 -1.21424 1.578542
v 0.03038955 -1.674346 -1.331977
v -0.002714206 -1.688058 1.578542
v 0.03038955 -1.674346 1.578542
v -0.002714213 -1.688058 -1.331977
v -0.03581798 -1.674346 1.578542
v -0.03581798 -1.674346 -1.331977
v 0.04410158 -1.641242 -1.331977
v 0.03038955 -1.674346 -1.331977
v 0.03038955 -1.674346 1.578542
v 0.04410158 -1.641242 1.578542
v 0.03038956 -1.608138 -1.331977
v 0.03038956 -1.608138 1.578542
v -0.002714198 -1.594426 -1.331977
v 0.03038956 -1.608138 -1.331977
v 0.03038956 -1.608138 1.578542
v -0.002714198 -1.594426 1.578542
v -0.03581797 -1.608138 -1.331977
v -0.03581797 -1.608138 1.578542
v -0.04952999 -1.641242 -1.331977
v -0.03581797 -1.608138 -1.331977
v -0.03581797 -1.608138 1.578542
v -0.04952999 -1.641242 1.578542
v -0.03581798 -1.674346 -1.331977
v -0.03581798 -1.674346 1.578542
vt 2.977827 -4.577598
vt 3.027423 -4.577598
vt 3.027423 -4.659456
vt 2.977827 -4.659456
vt 0.8760631 -4.577598
vt 0.8760631 -4.659456
vt 0.8264668 -4.659456
vt 0.8264668 -4.577598
vt -4.371043 2.873315
vt -3.074439 2.873315
vt -3.074439 2.791458
vt -4.371043 2.791458
vt 0.1447029 2.001061
vt 0.09510708 2.082917
vt 0.1447029 2.082917
vt 0.09510708 2.001061
vt -2.006657 2.082917
vt -2.006657 2.001061
vt -2.056253 2.001061
vt -2.056253 2.082917
vt -2.959133 3.149992
vt -3.016786 3.231851
vt -2.959133 3.231851
vt -3.016787 3.149992
vt -4.313389 3.231851
vt -4.313389 3.149992
vt -4.371043 3.231851
vt -4.371043 3.149992
vt 2.977827 -6.461002
vt 3.027423 -6.403349
vt 3.027423 -6.461002
vt 2.977827 -6.403349
vt 3.027423 -5.106746
vt 0.8760631 -6.403349
vt 2.977827 -5.106746
vt 3.027423 -5.049093
vt 2.977827 -5.049093
vt 0.8760631 -5.049093
vt 0.8760631 -5.106746
vt 0.8264668 -5.049093
vt 0.8264668 -5.106746
vt 0.8760631 -6.461002
vt 0.8264668 -6.403349
vt 0.8264668 -6.461002
vt -2.495487 2.001061
vt -2.44589 2.058713
vt -2.44589 2.001061
vt -2.495487 2.058713
vt -2.44589 3.355316
vt -4.59725 2.058713
vt -2.495487 3.355316
vt -2.44589 3.412968
vt -2.495487 3.412968
vt -4.59725 3.412968
vt -4.59725 3.355316
vt -4.646846 3.412968
vt -4.646846 3.355316
vt -4.59725 2.001061
vt -4.646846 2.058713
vt -4.646846 2.001061
vt -4.371043 2.61219
vt -4.371043 2.694047
vt -3.07444 2.694047
vt -3.074439 2.612189
vt -4.313389 3.052582
vt -4.371043 2.970725
vt -4.371043 3.052582
vt -4.313389 2.970725
vt -3.016786 3.052582
vt -3.016786 2.970725
vt -2.959133 3.052582
vt -2.959133 2.970725
vt 2.928229 8.099145
vt 0.8264668 8.099145
vt 0.8264668 8.181004
vt 2.928229 8.181004
vt 2.928229 -4.187961
vt 0.8264668 -4.187961
vt 0.8264668 -4.106103
vt 2.928229 -4.106103
vt 2.477238 -5.259224
vt 1.10227 -5.259224
vt 1.10227 -5.244718
vt 2.477238 -5.244718
vt 0.2676678 5.9005
vt -1.107299 5.900501
vt -1.107299 5.915007
vt 0.2676678 5.915007
vt 0.2676678 5.885994
vt -1.107299 5.885994
vt -1.107299 5.900501
vt 0.2676678 5.9005
vt 1.10227 -5.497562
vt 2.477238 -5.497562
vt 2.477238 -5.512068
vt 1.10227 -5.512068
vt 1.10227 -5.483055
vt 2.477238 -5.483056
vt 2.477238 -5.497562
vt 1.10227 -5.497562
vt -1.107299 5.446124
vt 0.2676678 5.446125
vt 0.2676678 5.431619
vt -1.107299 5.431619
vt -1.107299 5.460631
vt 0.2676678 5.460631
vt 0.2676678 5.446125
vt -1.107299 5.446124
vt 2.477238 -5.244718
vt 1.10227 -5.244718
vt 1.10227 -5.230212
vt 2.477238 -5.230212
vt 2.477238 -5.385646
vt 1.10227 -5.385646
vt 1.10227 -5.37114
vt 2.477238 -5.37114
vt 1.10227 -5.356633
vt 2.477238 -5.356633
vt 0.2676678 6.340373
vt -1.107299 6.340374
vt -1.107299 6.356073
vt 0.2676678 6.356073
vt 0.2676678 6.794749
vt -1.107299 6.794749
vt -1.107299 6.810452
vt 0.2676678 6.81045
vt 1.10227 -5.623984
vt 2.477238 -5.623984
vt 2.477238 -5.63849
vt 1.10227 -5.63849
vt 1.10227 -5.609478
vt 2.477238 -5.609478
vt 2.477238 -5.623984
vt 1.10227 -5.623984
vt 8.766808 -5.492812
vt 10.14178 -5.492811
vt 10.14178 -5.507317
vt 8.766808 -5.507318
vt 8.766808 -5.478306
vt 10.14178 -5.478304
vt 10.14178 -5.492811
vt 8.766808 -5.492812
vt 8.401354 8.117879
vt 8.401354 8.144373
vt 10.55346 8.144373
vt 10.55346 8.117879
vt 8.401354 8.099145
vt 10.55346 8.099145
vt 8.401354 8.995067
vt 8.401354 9.021558
vt 10.55346 9.021558
vt 10.55346 8.995067
vt 8.401354 8.976331
vt 10.55346 8.976331
vt 8.401354 8.556472
vt 8.401354 8.582965
vt 10.55346 8.582965
vt 10.55346 8.556472
vt 8.401354 8.53774
vt 10.55346 8.53774
vt 0.8264668 -2.820547
vt 0.8264668 -2.794053
vt 2.978573 -2.794053
vt 2.978573 -2.820547
vt 0.8264668 -2.839281
vt 2.978573 -2.839281
vt 3.317868 8.976331
vt 5.469975 9.000808
vt 5.469975 8.976331
vt 3.317868 9.000808
vt 5.469975 9.025283
vt 3.317868 9.025283
vt 0.8264668 -3.691989
vt 0.8264668 -3.667511
vt 2.978573 -3.667511
vt 2.978573 -3.691989
vt 0.8264668 -3.716466
vt 2.978573 -3.716466
vt -2.056253 3.374217
vt -2.056253 3.398695
vt 0.09585333 3.398695
vt 0.09585333 3.374217
vt -2.056253 3.34974
vt 0.09585333 3.34974
vt 3.317868 8.123622
vt 3.317868 8.148102
vt 5.469975 8.148102
vt 5.469975 8.123622
vt 3.317868 8.099145
vt 5.469975 8.099145
vt 3.317868 8.53774
vt 5.469975 8.562215
vt 5.469975 8.53774
vt 3.317868 8.562215
vt 5.469975 8.586694
vt 3.317868 8.586694
vt -2.056253 2.497033
vt -2.056253 2.521511
vt 0.09585333 2.521511
vt 0.09585333 2.497033
vt -2.056253 2.472555
vt 0.09585333 2.472555
vt 5.859612 8.123622
vt 5.859612 8.148102
vt 8.011717 8.148102
vt 8.011717 8.123622
vt 5.859612 8.099145
vt 8.011717 8.099145
vt 5.859612 8.995067
vt 5.859612 9.02156
vt 8.011717 9.02156
vt 8.011717 8.995067
vt 5.859612 8.976331
vt 8.011717 8.976331
vt 0.8264668 -3.277874
vt 2.978573 -3.253396
vt 2.978573 -3.277874
vt 0.8264668 -3.253396
vt 2.978573 -3.228919
vt 0.8264668 -3.228919
vt 8.51346 4.924819
vt 8.51346 4.949296
vt 10.66557 4.949296
vt 10.66557 4.924819
vt 8.51346 4.900341
vt 10.66557 4.900341
vt 5.859612 8.562215
vt 5.859612 8.586694
vt 8.011717 8.586694
vt 8.011717 8.562215
vt 5.859612 8.53774
vt 8.011717 8.53774
vt -2.056253 2.935624
vt -2.056253 2.960103
vt 0.09585333 2.960103
vt 0.09585333 2.935624
vt -2.056253 2.911148
vt 0.09585333 2.911148
vn 1.722909E-07 1 0
vn 1.722909E-07 1 0
vn 1.722909E-07 1 0
vn 1.722909E-07 1 0
vn 1.722909E-07 1 0
vn 1.722909E-07 1 0
vn 1.722909E-07 1 0
vn 1.722909E-07 1 0
vn 0 0 -1
vn 0 0 -1
vn 0 0 -1
vn 0 0 -1
vn 0 -1 0
vn 0 -1 0
vn 0 -1 0
vn 0 -1 0
vn 0 -1 0
vn 0 -1 0
vn 0 -1 0
vn 0 -1 0
vn 0 0 1
vn 0 0 1
vn 0 0 1
vn 0 0 1
vn 0 0 1
vn 0 0 1
vn 0 0 1
vn 0 0 1
vn 1 -1.834686E-07 0
vn 1 -1.801114E-07 0
vn 1 -1.834686E-07 0
vn 1 -1.801114E-07 0
vn 1 -1.801115E-07 0
vn 1 -1.801114E-07 0
vn 1 -1.801115E-07 0
vn 1 -1.834688E-07 0
vn 1 -1.834688E-07 0
vn 1 -1.834688E-07 0
vn 1 -1.801115E-07 0
vn 1 -1.834688E-07 0
vn 1 -1.801115E-07 0
vn 1 -1.834686E-07 0
vn 1 -1.801114E-07 0
vn 1 -1.834686E-07 0
vn -1 1.834688E-07 0
vn -1 1.685963E-07 0
vn -1 1.834688E-07 0
vn -1 1.685963E-07 0
vn -1 1.685963E-07 0
vn -1 1.685963E-07 0
vn -1 1.685963E-07 0
vn -1 1.834686E-07 0
vn -1 1.834686E-07 0
vn -1 1.834686E-07 0
vn -1 1.685963E-07 0
vn -1 1.834686E-07 0
vn -1 1.685963E-07 0
vn -1 1.834688E-07 0
vn -1 1.685963E-07 0
vn -1 1.834688E-07 0
vn 0 0 1
vn 0 0 1
vn 0 0 1
vn 0 0 1
vn 0 0 -1
vn 0 0 -1
vn 0 0 -1
vn 0 0 -1
vn 0 0 -1
vn 0 0 -1
vn 0 0 -1
vn 0 0 -1
vn 6.891635E-07 -1 0
vn 6.891635E-07 -1 0
vn 6.891635E-07 -1 0
vn 6.891635E-07 -1 0
vn 0 1 0
vn 0 1 0
vn 0 1 0
vn 0 1 0
vn 0.7071049 -3.15643E-07 -0.7071086
vn 0.7071084 -3.15643E-07 -0.707105
vn 0 -2.464083E-07 -1
vn 0 -2.464083E-07 -1
vn 1 -1.556871E-07 4.969709E-06
vn 1 -1.556872E-07 4.682205E-06
vn 0.7071084 -3.15643E-07 -0.707105
vn 0.7071049 -3.15643E-07 -0.7071086
vn 0.7071065 0 0.707107
vn 0.7071066 0 0.7071069
vn 1 -1.556872E-07 4.682205E-06
vn 1 -1.556871E-07 4.969709E-06
vn 0 2.459386E-07 1
vn 1.026801E-07 2.459386E-07 1
vn 0.7071066 0 0.7071069
vn 0.7071065 0 0.707107
vn -0.7071066 3.23202E-07 0.7071068
vn -0.7071068 3.23202E-07 0.7071068
vn 1.026801E-07 2.459386E-07 1
vn 0 2.459386E-07 1
vn -1 1.712538E-07 4.928635E-06
vn -1 1.712536E-07 4.661667E-06
vn -0.7071068 3.23202E-07 0.7071068
vn -0.7071066 3.23202E-07 0.7071068
vn -0.7071052 0 -0.7071084
vn -0.7071086 0 -0.7071049
vn -1 1.712536E-07 4.661667E-06
vn -1 1.712538E-07 4.928635E-06
vn 0 -2.464083E-07 -1
vn 0 -2.464083E-07 -1
vn -0.7071086 0 -0.7071049
vn -0.7071052 0 -0.7071084
vn 0.7071043 -3.379459E-07 -0.7071092
vn 0.7071078 -3.379456E-07 -0.7071057
vn 0 -3.079849E-07 -1
vn 0 -3.079848E-07 -1
vn -0.707108 -1.06712E-07 -0.7071055
vn -0.7071046 -1.067136E-07 -0.7071089
vn 1 -1.642039E-07 3.593795E-06
vn 1 -1.64204E-07 3.388436E-06
vn 0.7071078 -3.379456E-07 -0.7071057
vn 0.7071043 -3.379459E-07 -0.7071092
vn 0.7071075 0 0.7071061
vn 0.7071075 0 0.7071059
vn 1 -1.64204E-07 3.388436E-06
vn 1 -1.642039E-07 3.593795E-06
vn 0 2.048875E-07 1
vn 0 2.048876E-07 1
vn 0.7071075 0 0.7071059
vn 0.7071075 0 0.7071061
vn -0.7071077 2.856628E-07 0.7071058
vn -0.7071077 2.856629E-07 0.7071058
vn 0 2.048876E-07 1
vn 0 2.048875E-07 1
vn -1 1.627357E-07 3.552723E-06
vn -1 1.627357E-07 3.326827E-06
vn -0.7071077 2.856629E-07 0.7071058
vn -0.7071077 2.856628E-07 0.7071058
vn -0.7071046 -1.067136E-07 -0.7071089
vn -0.707108 -1.06712E-07 -0.7071055
vn -1 1.627357E-07 3.326827E-06
vn -1 1.627357E-07 3.552723E-06
vn 0.7071079 -0.7071056 0
vn 0 -1 0
vn 0 -1 0
vn 0.7071079 -0.7071056 0
vn 1 3.696473E-07 0
vn 1 3.696473E-07 0
vn 0.7071069 0.7071066 0
vn 1 3.696473E-07 0
vn 1 3.696473E-07 0
vn 0.7071069 0.7071066 0
vn 0 1 0
vn 0 1 0
vn -0.7071069 0.7071066 0
vn 0 1 0
vn 0 1 0
vn -0.7071069 0.7071066 0
vn -1 6.776866E-07 0
vn -1 6.776866E-07 0
vn -0.707108 -0.7071055 0
vn -1 6.776866E-07 0
vn -1 6.776866E-07 0
vn -0.707108 -0.7071055 0
vn 0 -1 0
vn 0 -1 0
vn 0.7071053 -0.7071081 0
vn 0 -1 0
vn 0.7071053 -0.7071081 0
vn 0 -1 0
vn -0.7071055 -0.7071081 0
vn -0.7071055 -0.7071081 0
vn 1 -1.745556E-06 0
vn 0.7071053 -0.7071081 0
vn 0.7071053 -0.7071081 0
vn 1 -1.745556E-06 0
vn 0.7071066 0.7071069 0
vn 0.7071066 0.7071069 0
vn 0 1 0
vn 0.7071066 0.7071069 0
vn 0.7071066 0.7071069 0
vn 0 1 0
vn -0.7071065 0.707107 0
vn -0.7071065 0.707107 0
vn -1 -1.51966E-06 0
vn -0.7071065 0.707107 0
vn -0.7071065 0.707107 0
vn -1 -1.51966E-06 0
vn -0.7071055 -0.7071081 0
vn -0.7071055 -0.7071081 0
vn 0.7071062 -0.7071072 0
vn 0 -1 0
vn 0.7071062 -0.7071072 0
vn 0 -1 0
vn -0.7071064 -0.7071071 0
vn -0.7071064 -0.7071071 0
vn 1 6.571505E-07 0
vn 0.7071062 -0.7071072 0
vn 0.7071062 -0.7071072 0
vn 1 6.571505E-07 0
vn 0.7071058 0.7071077 0
vn 0.7071058 0.7071077 0
vn 0 1 0
vn 0.7071058 0.7071077 0
vn 0.7071058 0.7071077 0
vn 0 1 0
vn -0.7071056 0.7071078 0
vn -0.7071056 0.7071078 0
vn -1 9.857256E-07 0
vn -0.7071056 0.7071078 0
vn -0.7071056 0.7071078 0
vn -1 9.857256E-07 0
vn -0.7071064 -0.7071071 0
vn -0.7071064 -0.7071071 0
vn 0.7071047 -0.7071089 0
vn 0 -1 0
vn 0.7071047 -0.7071089 0
vn 0 -1 0
vn -0.7071048 -0.7071087 0
vn -0.7071048 -0.7071087 0
vn 1 -1.745556E-06 0
vn 0.7071047 -0.7071089 0
vn 0.7071047 -0.7071089 0
vn 1 -1.745556E-06 0
vn 0.7071059 0.7071077 0
vn 0.7071059 0.7071077 0
vn 0 1 0
vn 0.7071059 0.7071077 0
vn 0.7071059 0.7071077 0
vn 0 1 0
vn -0.7071058 0.7071077 0
vn -0.7071058 0.7071077 0
vn -1 -1.51966E-06 0
vn -0.7071058 0.7071077 0
vn -0.7071058 0.7071077 0
vn -1 -1.51966E-06 0
vn -0.7071048 -0.7071087 0
vn -0.7071048 -0.7071087 0
g 对象530_0
f 3/3/3 2/2/2 1/1/1
f 4/4/4 3/3/3 1/1/1
f 1/1/1 5/5/5 4/4/4
f 5/5/5 6/6/6 4/4/4
f 7/7/7 6/6/6 5/5/5
f 8/8/8 7/7/7 5/5/5
f 11/11/11 10/10/10 9/9/9
f 12/12/12 11/11/11 9/9/9
f 15/15/15 14/14/14 13/13/13
f 14/14/14 16/16/16 13/13/13
f 14/14/14 17/17/17 16/16/16
f 17/17/17 18/18/18 16/16/16
f 19/19/19 18/18/18 17/17/17
f 20/20/20 19/19/19 17/17/17
f 23/23/23 22/22/22 21/21/21
f 22/22/22 24/24/24 21/21/21
f 22/22/22 25/25/25 24/24/24
f 25/25/25 26/26/26 24/24/24
f 26/26/26 25/25/25 27/27/27
f 28/28/28 26/26/26 27/27/27
f 31/31/31 30/30/30 29/29/29
f 30/30/30 32/32/32 29/29/29
f 30/30/30 33/33/33 32/32/32
f 32/32/32 34/34/34 29/29/29
f 33/33/33 35/35/35 32/32/32
f 35/35/35 33/33/33 36/36/36
f 37/37/37 35/35/35 36/36/36
f 37/37/37 38/38/38 35/35/35
f 38/38/38 39/39/39 35/35/35
f 38/38/38 40/40/40 39/39/39
f 40/40/40 41/41/41 39/39/39
f 34/34/34 39/39/39 41/41/41
f 34/34/34 42/42/42 29/29/29
f 43/43/43 34/34/34 41/41/41
f 42/42/42 34/34/34 43/43/43
f 44/44/44 42/42/42 43/43/43
f 47/47/47 46/46/46 45/45/45
f 46/46/46 48/48/48 45/45/45
f 48/48/48 46/46/46 49/49/49
f 48/48/48 50/50/50 45/45/45
f 51/51/51 48/48/48 49/49/49
f 51/51/51 49/49/49 52/52/52
f 53/53/53 51/51/51 52/52/52
f 53/53/53 54/54/54 51/51/51
f 54/54/54 55/55/55 51/51/51
f 54/54/54 56/56/56 55/55/55
f 56/56/56 57/57/57 55/55/55
f 55/55/55 57/57/57 50/50/50
f 50/50/50 58/58/58 45/45/45
f 57/57/57 59/59/59 50/50/50
f 58/58/58 50/50/50 59/59/59
f 60/60/60 58/58/58 59/59/59
f 63/63/63 62/62/62 61/61/61
f 64/64/64 63/63/63 61/61/61
f 67/67/67 66/66/66 65/65/65
f 66/66/66 68/68/68 65/65/65
f 65/65/65 68/68/68 69/69/69
f 68/68/68 70/70/70 69/69/69
f 71/71/71 69/69/69 70/70/70
f 72/72/72 71/71/71 70/70/70
f 75/75/75 74/74/74 73/73/73
f 76/76/76 75/75/75 73/73/73
f 79/79/79 78/78/78 77/77/77
f 80/80/80 79/79/79 77/77/77
f 83/83/83 82/82/82 81/81/81
f 84/84/84 83/83/83 81/81/81
f 87/87/87 86/86/86 85/85/85
f 88/88/88 87/87/87 85/85/85
f 91/91/91 90/90/90 89/89/89
f 92/92/92 91/91/91 89/89/89
f 95/95/95 94/94/94 93/93/93
f 96/96/96 95/95/95 93/93/93
f 99/99/99 98/98/98 97/97/97
f 100/100/100 99/99/99 97/97/97
f 103/103/103 102/102/102 101/101/101
f 104/104/104 103/103/103 101/101/101
f 107/107/107 106/106/106 105/105/105
f 108/108/108 107/107/107 105/105/105
f 111/111/111 110/110/110 109/109/109
f 112/112/112 111/111/111 109/109/109
f 115/115/115 114/114/114 113/113/113
f 116/116/116 115/115/115 113/113/113
f 117/117/117 115/115/115 116/116/116
f 118/118/118 117/117/117 116/116/116
f 121/121/121 120/120/120 119/119/119
f 122/122/122 121/121/121 119/119/119
f 125/125/125 124/124/124 123/123/123
f 126/126/126 125/125/125 123/123/123
f 129/129/129 128/128/128 127/127/127
f 130/130/130 129/129/129 127/127/127
f 133/133/133 132/132/132 131/131/131
f 134/134/134 133/133/133 131/131/131
f 137/137/137 136/136/136 135/135/135
f 138/138/138 137/137/137 135/135/135
f 141/141/141 140/140/140 139/139/139
f 142/142/142 141/141/141 139/139/139
f 145/145/145 144/144/144 143/143/143
f 146/146/146 145/145/145 143/143/143
f 146/146/146 143/143/143 147/147/147
f 148/148/148 146/146/146 147/147/147
f 151/151/151 150/150/150 149/149/149
f 152/152/152 151/151/151 149/149/149
f 152/152/152 149/149/149 153/153/153
f 154/154/154 152/152/152 153/153/153
f 157/157/157 156/156/156 155/155/155
f 158/158/158 157/157/157 155/155/155
f 158/158/158 155/155/155 159/159/159
f 160/160/160 158/158/158 159/159/159
f 163/163/163 162/162/162 161/161/161
f 164/164/164 163/163/163 161/161/161
f 164/164/164 161/161/161 165/165/165
f 166/166/166 164/164/164 165/165/165
f 169/169/169 168/168/168 167/167/167
f 168/168/168 170/170/170 167/167/167
f 168/168/168 171/171/171 170/170/170
f 171/171/171 172/172/172 170/170/170
f 175/175/175 174/174/174 173/173/173
f 176/176/176 175/175/175 173/173/173
f 176/176/176 173/173/173 177/177/177
f 178/178/178 176/176/176 177/177/177
f 181/181/181 180/180/180 179/179/179
f 182/182/182 181/181/181 179/179/179
f 182/182/182 179/179/179 183/183/183
f 184/184/184 182/182/182 183/183/183
f 187/187/187 186/186/186 185/185/185
f 188/188/188 187/187/187 185/185/185
f 188/188/188 185/185/185 189/189/189
f 190/190/190 188/188/188 189/189/189
f 193/193/193 192/192/192 191/191/191
f 192/192/192 194/194/194 191/191/191
f 192/192/192 195/195/195 194/194/194
f 195/195/195 196/196/196 194/194/194
f 199/199/199 198/198/198 197/197/197
f 200/200/200 199/199/199 197/197/197
f 200/200/200 197/197/197 201/201/201
f 202/202/202 200/200/200 201/201/201
f 205/205/205 204/204/204 203/203/203
f 206/206/206 205/205/205 203/203/203
f 206/206/206 203/203/203 207/207/207
f 208/208/208 206/206/206 207/207/207
f 211/211/211 210/210/210 209/209/209
f 212/212/212 211/211/211 209/209/209
f 212/212/212 209/209/209 213/213/213
f 214/214/214 212/212/212 213/213/213
f 217/217/217 216/216/216 215/215/215
f 216/216/216 218/218/218 215/215/215
f 216/216/216 219/219/219 218/218/218
f 219/219/219 220/220/220 218/218/218
f 223/223/223 222/222/222 221/221/221
f 224/224/224 223/223/223 221/221/221
f 224/224/224 221/221/221 225/225/225
f 226/226/226 224/224/224 225/225/225
f 229/229/229 228/228/228 227/227/227
f 230/230/230 229/229/229 227/227/227
f 230/230/230 227/227/227 231/231/231
f 232/232/232 230/230/230 231/231/231
f 235/235/235 234/234/234 233/233/233
f 236/236/236 235/235/235 233/233/233
f 236/236/236 233/233/233 237/237/237
f 238/238/238 236/236/236 237/237/237
